<svg width="44" height="42" viewBox="0 0 44 42" fill="none" xmlns="http://www.w3.org/2000/svg">
<path d="M18.8609 35.741C21.8479 38.2009 26.2326 38.4725 29.8506 37.1067C33.4686 35.741 36.3997 32.9616 38.6999 29.8548C40.7844 27.0434 42.4776 23.8248 42.8051 20.3426C43.2683 15.5186 40.9921 10.6706 37.43 7.39608C33.8679 4.12152 29.1318 2.30854 24.3398 1.6137C16.4649 0.471593 7.30408 2.93151 3.55031 9.95184C2.22452 12.4357 1.68142 15.255 1.3939 18.0583C0.866769 23.1858 1.22617 28.6807 4.06146 32.9855C8.66981 39.9819 18.3976 41.7071 26.6479 40.2455" fill="black"/>
<path d="M18.0141 36.587C21.8397 39.622 26.9992 39.7498 31.3439 37.7691C35.6887 35.7884 39.4345 31.5874 41.7586 27.3224C44.2186 22.8179 44.7936 17.7623 42.7809 12.9703C40.7683 8.17823 37.0545 4.83981 32.5499 2.77125C24.6591 -0.846742 14.1166 -1.11832 6.92851 4.28869C2.99904 7.25177 1.07424 11.5407 0.403353 16.3327C-0.267531 21.1247 -0.283503 26.6116 1.78506 31.2838C6.01004 40.836 17.6467 42.9924 26.9672 41.3871C28.4847 41.1235 27.8378 38.8153 26.3283 39.0789C19.3079 40.2929 10.6982 39.2626 5.88225 33.4403C3.03099 29.998 2.28822 25.3657 2.40004 21.0209C2.51185 16.6761 3.11884 11.8681 5.98608 8.4498C10.9059 2.57156 19.7392 1.59717 26.7915 3.29835C31.1043 4.33662 35.2255 6.41318 38.1247 9.83948C41.0239 13.2658 42.3656 17.7144 41.3194 22.0113C40.1853 26.6755 36.7829 31.2918 32.9014 34.0872C29.0198 36.8825 23.6208 37.9927 19.7153 34.8859C18.5173 33.9354 16.8161 35.6206 18.0221 36.579L18.0141 36.587Z" fill="white"/>
<path d="M19.4121 19.3672L18.9489 27.6893C18.877 28.9273 18.8371 30.2531 19.492 31.2914C20.1469 32.3296 21.8161 32.8168 22.6308 31.8904C23.0541 31.4112 23.126 30.7163 23.1739 30.0774C23.4135 27.0345 23.6531 23.9835 23.8847 20.9406C23.9087 20.677 23.9406 20.3815 24.1403 20.2138C24.316 20.07 24.5636 20.062 24.7952 20.062C26.9596 20.062 29.132 20.0461 31.2964 20.0461C28.8445 16.7476 25.9772 13.7525 22.7905 11.1488C22.4391 10.8613 22.0398 10.5578 21.5845 10.5498C21.1373 10.5498 20.7379 10.8134 20.3705 11.0769C17.2318 13.3452 14.085 15.6134 10.9462 17.8816C10.7306 18.0334 10.491 18.281 10.6028 18.5126C10.6747 18.6723 10.8583 18.7282 11.0261 18.7682C13.6936 19.439 16.3612 20.102 19.0288 20.7728" fill="#FFE977"/>
</svg>
