<svg width="22" height="22" viewBox="0 0 22 22" fill="none" xmlns="http://www.w3.org/2000/svg">
<g clip-path="url(#clip0_335_2730)">
<path d="M15.2352 18.1173H6.60387V18.9805C6.60387 19.2094 6.51293 19.4289 6.35106 19.5908C6.18919 19.7527 5.96965 19.8436 5.74074 19.8436H4.01447C3.78556 19.8436 3.56601 19.7527 3.40415 19.5908C3.24228 19.4289 3.15134 19.2094 3.15134 18.9805V11.2123H2.28821V7.75975H3.15134V5.17036C3.15134 4.71252 3.33321 4.27344 3.65695 3.9497C3.98069 3.62597 4.41977 3.44409 4.8776 3.44409H16.9614C17.4193 3.44409 17.8584 3.62597 18.1821 3.9497C18.5058 4.27344 18.6877 4.71252 18.6877 5.17036V7.75975H19.5508V11.2123H18.6877V18.9805C18.6877 19.2094 18.5968 19.4289 18.4349 19.5908C18.273 19.7527 18.0535 19.8436 17.8246 19.8436H16.0983C15.8694 19.8436 15.6499 19.7527 15.488 19.5908C15.3261 19.4289 15.2352 19.2094 15.2352 18.9805V18.1173ZM4.8776 5.17036V11.2123H16.9614V5.17036H4.8776ZM7.03543 16.3911C7.37881 16.3911 7.70812 16.2547 7.95092 16.0119C8.19373 15.7691 8.33013 15.4397 8.33013 15.0964C8.33013 14.753 8.19373 14.4237 7.95092 14.1809C7.70812 13.9381 7.37881 13.8017 7.03543 13.8017C6.69206 13.8017 6.36275 13.9381 6.11994 14.1809C5.87714 14.4237 5.74074 14.753 5.74074 15.0964C5.74074 15.4397 5.87714 15.7691 6.11994 16.0119C6.36275 16.2547 6.69206 16.3911 7.03543 16.3911ZM14.8036 16.3911C15.147 16.3911 15.4763 16.2547 15.7191 16.0119C15.9619 15.7691 16.0983 15.4397 16.0983 15.0964C16.0983 14.753 15.9619 14.4237 15.7191 14.1809C15.4763 13.9381 15.147 13.8017 14.8036 13.8017C14.4602 13.8017 14.1309 13.9381 13.8881 14.1809C13.6453 14.4237 13.5089 14.753 13.5089 15.0964C13.5089 15.4397 13.6453 15.7691 13.8881 16.0119C14.1309 16.2547 14.4602 16.3911 14.8036 16.3911Z" fill="#424242"/>
</g>
<defs>
<clipPath id="clip0_335_2730">
<rect width="20.7152" height="20.7152" fill="white" transform="translate(0.56189 0.854492)"/>
</clipPath>
</defs>
</svg>
