<svg width="262" height="276" viewBox="0 0 262 276" fill="none" xmlns="http://www.w3.org/2000/svg">
<g clip-path="url(#clip0_745_5314)">
<path d="M108.002 63.7553L107.41 56.9696C117.234 55.2653 127.25 54.6868 137.204 55.2445C137.167 58.2048 136.342 61.1547 134.831 63.698C138.907 64.1827 143.17 64.7404 146.509 67.1378C152.033 71.104 153.285 78.6871 154.058 85.4624C155.175 95.2189 156.073 105.856 150.818 114.138C145.211 122.982 133.917 126.62 123.47 126.495C118.703 126.437 113.895 125.723 109.513 123.847C100.483 119.975 94.0079 111.308 91.3753 101.817C89.4956 95.0573 89.4229 87.6774 91.9049 81.1158C94.3869 74.5541 99.5742 68.9098 106.174 66.5853" fill="#202020"/>
<path d="M143.726 24.9901C138.559 22.3895 131.887 23.8905 128.065 28.1797C126.227 30.2436 124.093 34.1264 126.237 36.6645C126.809 37.3421 127.712 37.6756 128.236 38.3948C128.683 39.0046 128.719 39.8176 128.569 40.5369C128.205 42.262 126.928 43.4503 125.734 44.649C124.451 45.9363 123.21 47.3382 122.935 49.2041C122.696 50.8301 123.153 52.5396 124.617 53.4256C125.479 53.9468 126.263 52.5969 125.401 52.0758C124.285 51.4034 124.269 49.9129 124.617 48.7975C125.064 47.3487 126.326 46.275 127.359 45.2327C128.444 44.1382 129.441 42.9864 129.929 41.4958C130.36 40.1668 130.339 38.6189 129.477 37.4619C129.015 36.8365 128.366 36.4821 127.785 35.9974C127.141 35.4606 126.902 34.7779 126.938 33.9544C127.001 32.5941 127.702 31.2651 128.47 30.1706C129.945 28.0651 132.229 26.5537 134.665 25.8084C137.38 24.9745 140.382 25.0579 142.947 26.3452C143.84 26.7934 144.629 25.4488 143.731 24.9953L143.726 24.9901Z" fill="#202020"/>
<path d="M159.209 12.284C159.864 8.60445 159.459 4.74773 158.062 1.28711C156.255 3.18941 155.102 5.7067 154.843 8.32301C154.801 8.74517 154.765 9.20902 154.464 9.50609C154.147 9.81879 153.659 9.83443 153.217 9.83443C148.705 9.82401 144.193 9.81358 139.681 9.80316C142.334 11.8774 144.993 13.9517 147.646 16.026C144.899 17.8814 142.604 20.6437 142.022 23.9114C144.702 23.0202 147.386 22.1342 150.066 21.243C150.263 21.1805 150.481 21.1127 150.668 21.1909C150.969 21.316 151.031 21.7121 151.047 22.0352C151.265 26.0952 151.483 30.1604 151.696 34.2203C153.472 31.3122 154.619 28.0131 155.019 24.6255C155.196 23.1297 155.455 21.2951 156.862 20.7583C158.01 20.3205 159.241 21.0554 160.253 21.7538C162.34 23.2026 164.423 24.6463 166.51 26.0952C166.837 26.3245 167.206 26.559 167.6 26.5069C168.239 26.4183 168.519 25.6313 168.525 24.9851C168.545 23.015 167.346 21.2586 166.095 19.742C165.311 18.7935 164.449 17.4853 165.118 16.4534C165.383 16.0469 165.83 15.8071 166.25 15.5622C168.379 14.3166 170.165 12.482 171.36 10.3191C167.185 10.0898 162.99 10.3191 158.867 10.9914" fill="#FD9DC3"/>
<path d="M159.957 12.4922C160.617 8.65112 160.248 4.7058 158.81 1.0784C158.607 0.562434 157.948 0.265362 157.506 0.734423C156.296 2.03216 155.362 3.54357 154.754 5.21655C154.438 6.08692 154.23 6.98335 154.11 7.90062C154.074 8.17163 154.121 8.75014 153.908 8.9534C153.659 9.18793 152.859 9.05242 152.574 9.05242C148.274 9.042 143.975 9.03158 139.675 9.02115C139.063 9.02115 138.569 9.92279 139.125 10.3554C141.778 12.4297 144.437 14.5039 147.09 16.5782L147.246 15.3483C144.359 17.3235 141.929 20.1744 141.264 23.7027C141.161 24.25 141.617 24.865 142.225 24.6669C143.892 24.1145 145.559 23.562 147.22 23.0096C148.035 22.7386 148.845 22.4728 149.661 22.2017C149.77 22.1653 150.154 21.9568 150.268 21.9985C150.252 21.889 150.252 21.8838 150.263 21.9776C150.273 22.0871 150.278 22.1913 150.284 22.3008C150.31 22.7334 150.33 23.1659 150.351 23.5985C150.538 27.1425 150.73 30.6865 150.917 34.2305C150.959 34.9915 151.956 35.3094 152.371 34.6266C154.095 31.7758 155.253 28.5966 155.715 25.2975C155.871 24.2083 155.845 22.5405 156.743 21.7431C157.963 20.6643 159.926 22.4884 160.902 23.1659C162.429 24.2291 163.961 25.2871 165.487 26.3503C166.121 26.7881 166.775 27.3562 167.595 27.2989C168.255 27.2572 168.769 26.7933 169.039 26.2096C169.662 24.8545 169.132 23.1555 168.509 21.9047C168.151 21.1854 167.684 20.5236 167.195 19.8877C166.707 19.2519 166.188 18.7151 165.856 18.0167C165.716 17.7196 165.575 17.3339 165.705 17.0056C165.877 16.5782 166.453 16.3646 166.816 16.1457C167.517 15.7183 168.182 15.2284 168.805 14.6968C170.103 13.5815 171.188 12.2212 172.03 10.7254C172.331 10.1886 171.947 9.57881 171.355 9.54754C167.102 9.32344 162.855 9.56839 158.654 10.2459C157.667 10.4023 158.088 11.9137 159.069 11.7521C163.13 11.1007 167.253 10.8974 171.355 11.1111L170.68 9.93322C169.937 11.2622 168.997 12.4453 167.855 13.4512C167.289 13.9515 166.676 14.3997 166.027 14.7906C165.378 15.1815 164.713 15.5359 164.345 16.229C163.618 17.5997 164.573 19.0903 165.414 20.1483C166.401 21.3887 167.455 22.7177 167.699 24.3386C167.751 24.6826 167.876 25.949 167.237 25.6519C166.453 25.2819 165.731 24.6252 165.02 24.1301C163.498 23.0773 161.993 21.9985 160.461 20.9666C159.215 20.1275 157.61 19.3978 156.172 20.2317C155.055 20.878 154.614 22.1965 154.406 23.3952C154.1 25.1725 153.903 26.9184 153.363 28.6487C152.797 30.4728 152.002 32.2032 151.016 33.8344L152.47 34.2305C152.361 32.1562 152.246 30.082 152.137 28.0077C152.028 25.9334 152.013 23.906 151.805 21.8786C151.727 21.1177 151.312 20.3933 150.46 20.3828C150.008 20.3776 149.536 20.6017 149.115 20.7424C148.627 20.904 148.139 21.0656 147.651 21.2271C145.699 21.8734 143.752 22.5197 141.799 23.1659L142.76 24.1301C143.352 21.003 145.455 18.4701 148.025 16.7137C148.394 16.4636 148.606 15.8173 148.181 15.4838C145.527 13.4095 142.869 11.3352 140.215 9.2609L139.665 10.5951C144.208 10.6055 148.757 10.7098 153.295 10.6264C154.194 10.6107 155.04 10.3397 155.398 9.43288C155.71 8.64069 155.663 7.69215 155.871 6.86348C156.338 4.98202 157.278 3.26735 158.597 1.84974L157.293 1.50577C158.623 4.86215 159.048 8.52082 158.441 12.0857C158.275 13.0707 159.775 13.4929 159.942 12.5026L159.957 12.4922Z" fill="#FD9DC3"/>
</g>
<g clip-path="url(#clip1_745_5314)">
<path d="M81.9266 143.785C81.9132 144.887 81.8999 145.994 81.891 147.097C81.8865 147.619 81.8731 148.15 82.1049 148.632C82.3188 149.065 82.711 149.355 83.1523 149.529C84.0303 149.873 85.1178 149.779 86.0404 149.73C87.1368 149.672 88.2288 149.525 89.3029 149.292C90.1453 149.114 89.7887 147.82 88.9463 148.003C88.046 148.195 87.1413 148.324 86.2231 148.382C85.4387 148.431 84.5339 148.525 83.7629 148.324C83.5222 148.261 83.3261 148.172 83.2548 147.918C83.1523 147.547 83.2236 147.097 83.228 146.713L83.2592 143.785C83.2682 142.923 81.9311 142.923 81.9222 143.785H81.9266Z" fill="black"/>
<path d="M89.1158 144.892C90.279 144.892 91.4378 144.892 92.6011 144.892C92.9487 144.892 93.2875 144.584 93.2696 144.222C93.2518 143.861 92.9755 143.553 92.6011 143.553C91.4378 143.553 90.279 143.553 89.1158 143.553C88.7681 143.553 88.4294 143.861 88.4472 144.222C88.465 144.584 88.7414 144.892 89.1158 144.892Z" fill="black"/>
<path d="M92.8015 140.295V155.122C92.8015 155.983 94.1386 155.983 94.1386 155.122V140.295C94.1386 139.433 92.8015 139.433 92.8015 140.295Z" fill="black"/>
<path d="M95.9794 141.281C96.4652 141.687 96.3181 142.37 96.229 142.986C96.1131 143.798 95.9705 144.655 96.2869 145.441C96.9866 147.159 99.3176 147.476 100.913 147.146C102.415 146.838 103.882 145.86 104.501 144.419C105.236 142.7 104.563 140.741 103.151 139.594C101.288 138.081 98.6892 138.246 96.6925 139.411C95.9482 139.844 96.6212 141 97.3655 140.567C98.7962 139.737 100.637 139.491 102.072 140.446C103.142 141.16 103.81 142.575 103.316 143.825C102.856 144.977 101.626 145.655 100.468 145.874C99.4915 146.057 97.6418 145.892 97.4457 144.655C97.2184 143.214 98.297 141.477 96.9242 140.335C96.6479 140.103 96.2512 140.062 95.9794 140.335C95.7431 140.571 95.703 141.049 95.9794 141.281Z" fill="black"/>
<path d="M95.8367 150.577C99.7856 149.649 103.797 149.047 107.844 148.783C108.7 148.73 108.704 147.386 107.844 147.444C103.681 147.716 99.5449 148.332 95.4846 149.288C94.6467 149.484 95.0033 150.774 95.8412 150.577H95.8367Z" fill="black"/>
<path d="M102.83 149.02C102.897 152.515 102.741 156.01 102.366 159.487C102.273 160.344 103.61 160.335 103.703 159.487C104.078 156.01 104.234 152.515 104.167 149.02C104.149 148.159 102.812 148.159 102.83 149.02Z" fill="black"/>
<path d="M117.297 140.375C116.352 141.759 117.792 143.2 119.057 143.611C119.824 143.861 120.622 143.718 121.402 143.611C122.115 143.513 122.922 143.374 123.586 143.731C124.343 144.142 125.016 142.986 124.259 142.575C123.586 142.209 122.837 142.125 122.084 142.187C121.371 142.25 120.658 142.428 119.935 142.415C119.521 142.406 119.004 142.192 118.679 141.888C118.625 141.839 118.572 141.781 118.523 141.727C118.465 141.66 118.5 141.705 118.474 141.66C118.442 141.611 118.411 141.562 118.384 141.509C118.291 141.326 118.416 141.607 118.353 141.419C118.313 141.303 118.353 141.446 118.34 141.375C118.331 141.33 118.34 141.227 118.327 141.326C118.327 141.326 118.38 141.134 118.34 141.232C118.367 141.165 118.411 141.102 118.451 141.044C118.656 140.745 118.509 140.304 118.211 140.129C117.881 139.938 117.502 140.071 117.297 140.37V140.375Z" fill="black"/>
<path d="M117.426 148.815H125.703C126.563 148.815 126.563 147.476 125.703 147.476H117.426C116.566 147.476 116.566 148.815 117.426 148.815Z" fill="black"/>
<path d="M118.924 152.314C120.395 151.779 121.955 151.716 123.452 152.158L123.051 151.176C122.155 152.533 121.259 153.885 120.364 155.242C120.163 155.546 120.306 155.983 120.604 156.157C120.93 156.349 121.317 156.22 121.518 155.916C122.414 154.559 123.31 153.207 124.205 151.85C124.451 151.48 124.201 150.984 123.804 150.868C122.097 150.364 120.234 150.413 118.563 151.025C118.224 151.149 117.997 151.48 118.095 151.85C118.184 152.176 118.576 152.444 118.92 152.319L118.924 152.314Z" fill="black"/>
<path d="M122.061 153.456C122.258 153.492 122.454 153.537 122.645 153.603C122.69 153.617 122.734 153.635 122.783 153.653C122.801 153.662 122.957 153.724 122.859 153.679C122.761 153.635 122.917 153.706 122.935 153.715C122.98 153.737 123.02 153.755 123.064 153.778C123.243 153.871 123.416 153.974 123.577 154.09C123.617 154.117 123.657 154.144 123.693 154.175C123.612 154.103 123.648 154.144 123.711 154.193C123.786 154.255 123.858 154.318 123.929 154.385C124.067 154.518 124.196 154.661 124.321 154.813C124.424 154.942 124.236 154.697 124.335 154.831C124.361 154.871 124.392 154.911 124.419 154.951C124.473 155.032 124.526 155.112 124.575 155.197C124.624 155.282 124.669 155.367 124.713 155.451C124.736 155.496 124.753 155.541 124.776 155.581C124.843 155.715 124.736 155.469 124.785 155.599C124.856 155.795 124.923 155.991 124.967 156.197C125.043 156.54 125.458 156.772 125.792 156.665C126.149 156.549 126.34 156.21 126.26 155.84C125.85 154.014 124.272 152.483 122.427 152.166C122.084 152.108 121.692 152.26 121.602 152.635C121.527 152.961 121.7 153.394 122.07 153.461L122.061 153.456Z" fill="black"/>
<path d="M131.194 143.954C130.316 143.606 129.589 144.48 129.304 145.199C129.077 145.766 129.072 146.413 129.206 147.002C129.465 148.167 130.401 149.274 131.613 149.493C133.012 149.743 134.447 148.917 135.049 147.64C135.357 146.984 135.473 146.239 135.268 145.534C135.089 144.931 134.715 144.414 134.22 144.034C133.155 143.208 131.533 142.99 130.396 143.811C130.102 144.021 129.959 144.391 130.155 144.726C130.325 145.016 130.775 145.181 131.069 144.967C131.158 144.904 131.247 144.846 131.341 144.797C131.368 144.784 131.528 144.713 131.372 144.775C131.421 144.757 131.47 144.739 131.519 144.721C131.622 144.69 131.724 144.668 131.827 144.646C131.996 144.61 131.684 144.646 131.858 144.646C131.929 144.646 132.001 144.637 132.067 144.637C132.165 144.637 132.264 144.655 132.362 144.65C132.464 144.65 132.206 144.619 132.37 144.65C132.424 144.659 132.477 144.668 132.526 144.681C132.629 144.704 132.736 144.735 132.834 144.771C132.861 144.78 133.026 144.851 132.874 144.784C132.941 144.815 133.003 144.842 133.066 144.878C133.159 144.927 133.253 144.985 133.342 145.043C133.364 145.056 133.498 145.168 133.378 145.065C133.418 145.101 133.458 145.132 133.498 145.168C133.565 145.226 133.623 145.293 133.681 145.355C133.699 145.378 133.801 145.516 133.708 145.387C133.748 145.445 133.788 145.503 133.823 145.561C133.85 145.605 133.877 145.654 133.899 145.699C133.913 145.726 133.971 145.886 133.917 145.735C133.953 145.842 133.979 145.944 134.011 146.052C134.06 146.235 134.011 145.931 134.024 146.119C134.024 146.181 134.033 146.239 134.033 146.301C134.033 146.342 134.033 146.382 134.033 146.422C134.033 146.462 134.028 146.502 134.024 146.543C134.033 146.467 134.033 146.467 134.024 146.543C133.993 146.663 133.962 146.779 133.926 146.895C133.872 147.078 133.984 146.792 133.899 146.962C133.872 147.016 133.846 147.074 133.815 147.127C133.757 147.234 133.69 147.341 133.614 147.44C133.694 147.328 133.569 147.489 133.561 147.498C133.507 147.56 133.449 147.618 133.387 147.676C133.351 147.712 133.311 147.748 133.271 147.779C133.249 147.797 133.142 147.877 133.235 147.81C133.137 147.882 133.03 147.948 132.923 148.006C132.87 148.038 132.816 148.065 132.758 148.087C132.888 148.029 132.705 148.105 132.691 148.109C132.633 148.127 132.576 148.145 132.518 148.163C132.491 148.172 132.246 148.216 132.397 148.194C132.277 148.212 132.152 148.212 132.032 148.207C132.009 148.207 131.818 148.176 131.965 148.207C131.929 148.198 131.894 148.194 131.858 148.185C131.751 148.163 131.648 148.127 131.55 148.087C131.702 148.149 131.542 148.078 131.515 148.065C131.452 148.033 131.39 147.998 131.332 147.957C131.287 147.931 131.243 147.899 131.203 147.864C131.332 147.962 131.194 147.85 131.172 147.832C131.091 147.761 131.016 147.685 130.944 147.605C130.926 147.587 130.824 147.444 130.913 147.574C130.891 147.542 130.873 147.516 130.851 147.484C130.779 147.382 130.717 147.27 130.659 147.158C130.646 147.136 130.574 146.971 130.637 147.118C130.61 147.051 130.583 146.984 130.561 146.913C130.521 146.792 130.499 146.667 130.467 146.547C130.427 146.373 130.472 146.69 130.463 146.511C130.458 146.44 130.45 146.368 130.45 146.297C130.45 146.19 130.454 146.083 130.463 145.976C130.445 146.15 130.463 145.976 130.472 145.944C130.485 145.873 130.503 145.806 130.525 145.739C130.543 145.69 130.561 145.636 130.579 145.587C130.521 145.744 130.61 145.534 130.623 145.503C130.65 145.453 130.677 145.409 130.708 145.364C130.659 145.436 130.802 145.262 130.828 145.239C130.739 145.311 130.904 145.145 130.819 145.239C130.9 145.217 130.9 145.217 130.824 145.23C130.748 145.221 130.753 145.23 130.828 145.248C131.163 145.382 131.564 145.101 131.653 144.78C131.755 144.4 131.524 144.088 131.185 143.954H131.194Z" fill="black"/>
<path d="M135.718 145.762H137.46C137.808 145.762 138.147 145.454 138.129 145.092C138.111 144.731 137.835 144.423 137.46 144.423H135.718C135.37 144.423 135.031 144.731 135.049 145.092C135.067 145.454 135.343 145.762 135.718 145.762Z" fill="black"/>
<path d="M138.534 141.606C138.534 144.949 138.534 148.292 138.534 151.64C138.534 152.501 139.872 152.501 139.872 151.64C139.872 148.297 139.872 144.954 139.872 141.606C139.872 140.745 138.534 140.745 138.534 141.606Z" fill="black"/>
<path d="M144.739 140.589C143.874 142.829 143.254 145.155 142.889 147.529C142.836 147.886 142.978 148.248 143.357 148.355C143.673 148.444 144.124 148.248 144.182 147.886C144.547 145.512 145.167 143.187 146.031 140.946C146.16 140.607 145.889 140.209 145.563 140.12C145.184 140.018 144.872 140.25 144.739 140.589Z" fill="black"/>
<path d="M143.91 144.735C145.216 146.186 146.526 147.641 147.832 149.092C148.072 149.359 148.532 149.337 148.777 149.092C149.044 148.824 149.017 148.413 148.777 148.145C147.471 146.695 146.16 145.24 144.855 143.789C144.614 143.521 144.155 143.544 143.91 143.789C143.642 144.057 143.669 144.468 143.91 144.735Z" fill="black"/>
<path d="M148.104 145.78C149.561 145.356 151.014 144.932 152.471 144.508C152.819 144.405 153.033 144.035 152.939 143.682C152.846 143.329 152.467 143.115 152.115 143.213C150.657 143.637 149.205 144.061 147.747 144.485C147.399 144.588 147.186 144.958 147.279 145.311C147.373 145.664 147.752 145.878 148.104 145.78Z" fill="black"/>
<path d="M152.645 139.861C152.561 145.529 152.48 151.198 152.396 156.866C152.382 157.728 153.719 157.728 153.733 156.866C153.817 151.198 153.898 145.529 153.982 139.861C153.996 138.999 152.659 138.999 152.645 139.861Z" fill="black"/>
<path d="M60.346 172.247C59.254 173.01 58.844 174.327 59.0579 175.612C59.2585 176.831 60.1811 177.933 61.429 178.143C62.7795 178.37 64.1522 177.71 64.9099 176.585C65.6676 175.46 65.4893 173.938 64.5712 172.93C63.5773 171.832 61.8747 171.412 60.5465 172.131C60.2301 172.3 60.1276 172.742 60.3058 173.046C60.493 173.367 60.9031 173.456 61.2195 173.287C61.2686 173.26 61.3176 173.233 61.3711 173.211C61.2686 173.26 61.3711 173.211 61.4156 173.197C61.536 173.157 61.6608 173.131 61.7856 173.108C61.6652 173.131 61.7633 173.113 61.8257 173.108C61.8792 173.108 61.9326 173.104 61.9906 173.108C62.053 173.108 62.1198 173.113 62.1822 173.117C62.209 173.117 62.2357 173.122 62.2625 173.126C62.2045 173.122 62.1733 173.108 62.2491 173.126C62.356 173.148 62.463 173.171 62.57 173.202C62.6324 173.22 62.6948 173.242 62.7527 173.264C62.7795 173.273 62.8062 173.282 62.8285 173.296C62.7705 173.273 62.7616 173.264 62.824 173.296C62.9221 173.349 63.0246 173.398 63.1182 173.456C63.1672 173.488 63.2118 173.514 63.2564 173.55C63.2876 173.572 63.3188 173.595 63.3455 173.617C63.2965 173.581 63.292 173.572 63.341 173.617C63.4213 173.693 63.5059 173.764 63.5817 173.845C63.6218 173.885 63.653 173.929 63.6931 173.97C63.711 173.992 63.7689 174.072 63.6931 173.965C63.7154 173.996 63.7377 174.023 63.7555 174.054C63.8179 174.144 63.8714 174.242 63.9204 174.336C63.9472 174.385 63.9784 174.483 63.9427 174.376C63.965 174.447 63.9918 174.514 64.0096 174.581C64.023 174.635 64.0319 174.688 64.0497 174.742C64.0809 174.867 64.0497 174.653 64.0586 174.782C64.0675 174.911 64.0675 175.041 64.0586 175.175C64.0497 175.309 64.0854 175.094 64.0497 175.219C64.0363 175.273 64.0274 175.326 64.0096 175.38C63.9918 175.434 63.9739 175.483 63.9606 175.536C63.9606 175.545 63.9249 175.634 63.9561 175.559C63.9873 175.483 63.9427 175.59 63.9338 175.603C63.8803 175.71 63.8224 175.813 63.7555 175.916C63.7288 175.956 63.6575 176.05 63.7288 175.96C63.6887 176.009 63.6441 176.058 63.5995 176.108C63.5149 176.197 63.4257 176.277 63.3366 176.362C63.2474 176.447 63.399 176.326 63.2965 176.398C63.243 176.433 63.1895 176.474 63.1316 176.509C63.0291 176.576 62.9176 176.63 62.8107 176.688C62.7037 176.746 62.882 176.665 62.7616 176.71C62.6992 176.732 62.6368 176.755 62.5744 176.773C62.4586 176.808 62.3427 176.835 62.2223 176.857C62.0931 176.884 62.3115 176.857 62.1822 176.857C62.1198 176.857 62.053 176.866 61.9906 176.866C61.9371 176.866 61.8792 176.866 61.8257 176.862C61.7722 176.857 61.6251 176.831 61.7588 176.857C61.6385 176.831 61.5271 176.804 61.4112 176.768C61.3844 176.759 61.3577 176.75 61.3309 176.741C61.3399 176.741 61.429 176.786 61.3621 176.755C61.3042 176.728 61.2463 176.697 61.1928 176.665C61.1482 176.639 61.1036 176.607 61.0591 176.581C60.9655 176.523 61.1215 176.643 61.01 176.545C60.9343 176.478 60.863 176.402 60.7917 176.326C60.6802 176.206 60.8184 176.375 60.7515 176.282C60.7159 176.233 60.6847 176.183 60.6535 176.13C60.6 176.041 60.5599 175.947 60.5064 175.858C60.4708 175.795 60.5198 175.889 60.5242 175.898C60.5109 175.867 60.4975 175.835 60.4886 175.8C60.4663 175.742 60.4485 175.684 60.4306 175.626C60.395 175.509 60.3772 175.385 60.3504 175.268C60.3326 175.193 60.3549 175.309 60.3549 175.318C60.3549 175.273 60.346 175.228 60.3415 175.188C60.337 175.126 60.3326 175.068 60.3326 175.005C60.3326 174.88 60.337 174.76 60.3504 174.639C60.3504 174.599 60.3772 174.519 60.3504 174.661C60.3593 174.626 60.3638 174.595 60.3682 174.559C60.3816 174.501 60.395 174.438 60.4084 174.38C60.4217 174.322 60.4396 174.264 60.4618 174.206C60.4708 174.175 60.5332 174.019 60.502 174.095C60.4708 174.17 60.551 173.996 60.5688 173.965C60.5955 173.912 60.6267 173.863 60.6579 173.809C60.6758 173.782 60.7738 173.648 60.7248 173.711C60.6758 173.773 60.7827 173.644 60.805 173.621C60.8541 173.572 60.9031 173.523 60.9521 173.479C60.9699 173.461 60.9922 173.447 61.01 173.43C61.0814 173.363 60.8853 173.519 61.0234 173.425C61.3176 173.22 61.4557 172.84 61.2641 172.51C61.0947 172.216 60.649 172.064 60.3504 172.269L60.346 172.247Z" fill="black"/>
<path d="M67.5797 169.957C67.2454 173.698 67.6778 177.478 68.8366 181.049C69.0995 181.866 70.3921 181.517 70.1246 180.692C69.0015 177.224 68.5914 173.591 68.9168 169.957C68.9926 169.1 67.6555 169.105 67.5797 169.957Z" fill="black"/>
<path d="M80.1083 170.975C80.6074 170.153 82.1406 170.261 82.2877 171.296C82.3546 171.765 82.1495 172.305 81.7618 172.582C81.1735 172.997 80.2598 172.675 79.6135 172.586C78.8291 172.479 78.0224 172.506 77.3539 172.974C76.7923 173.363 76.4134 173.929 76.1906 174.568C75.7538 175.844 76.1148 177.308 77.1578 178.174C78.5082 179.294 80.4202 179.339 81.9624 178.62C82.2922 178.469 82.3724 177.996 82.203 177.705C82.0069 177.371 81.6192 177.313 81.2894 177.464C80.1662 177.987 78.5483 177.884 77.7282 176.862C77.1043 176.081 77.2469 174.693 78.0625 174.104C78.6419 173.684 79.4263 173.903 80.086 174.01C80.9061 174.139 81.7974 174.193 82.5106 173.684C83.6872 172.845 84.0304 171.06 83.0811 169.921C82.0069 168.631 79.8007 168.908 78.9539 170.296C78.5038 171.033 79.6581 171.707 80.1083 170.97V170.975Z" fill="black"/>
<path d="M85.9958 167.762L86.6911 176.501C86.758 177.354 88.0951 177.362 88.0282 176.501L87.3329 167.762C87.2661 166.909 85.929 166.9 85.9958 167.762Z" fill="black"/>
<path d="M85.1356 178.183C84.066 179.268 83.0007 180.602 82.818 182.169C82.6665 183.508 83.4598 184.856 84.7924 185.199C85.9334 185.494 87.1635 185.101 88.0505 184.365C89.0889 183.494 89.4009 182.12 89.1157 180.825C88.7547 179.205 87.48 177.83 86.027 177.103C85.7061 176.942 85.305 177.018 85.1133 177.344C84.9395 177.638 85.0287 178.098 85.354 178.259C86.3435 178.754 87.2215 179.562 87.6494 180.602C87.8499 181.089 87.9435 181.602 87.8677 182.12C87.8544 182.209 87.8276 182.338 87.7964 182.441C87.7831 182.486 87.7697 182.526 87.7563 182.57C87.6895 182.767 87.8143 182.468 87.7207 182.655C87.6806 182.736 87.6404 182.811 87.5914 182.887C87.5558 182.945 87.5201 182.999 87.48 183.052C87.5468 182.968 87.4265 183.11 87.4176 183.124C87.1502 183.423 86.8426 183.637 86.4861 183.784C86.1295 183.932 85.822 183.99 85.403 183.963C85.412 183.963 85.2069 183.941 85.305 183.954C85.403 183.967 85.2025 183.932 85.2114 183.932C85.1133 183.909 85.0108 183.878 84.9172 183.842C85.0331 183.887 84.837 183.798 84.8014 183.78C84.7479 183.749 84.6944 183.717 84.6454 183.682C84.739 183.749 84.6097 183.646 84.5874 183.628C84.5562 183.597 84.5295 183.57 84.4983 183.539C84.3601 183.396 84.5295 183.592 84.4582 183.499C84.3869 183.405 84.32 183.289 84.2665 183.177C84.1595 182.941 84.1283 182.731 84.1328 182.481C84.1506 181.209 85.2203 180.008 86.076 179.143C86.6822 178.531 85.7373 177.58 85.1312 178.196L85.1356 178.183Z" fill="black"/>
<path d="M91.3129 172.846C92.338 172.35 93.4299 171.801 94.5888 171.761C95.3955 171.734 96.3136 171.971 96.8395 172.627C97.4189 173.35 97.3164 174.363 97.2184 175.225C97.098 176.296 96.9287 177.358 97.1916 178.425C97.4011 179.26 98.6892 178.907 98.4797 178.068C98.2034 176.952 98.5287 175.787 98.6089 174.667C98.6892 173.547 98.4619 172.292 97.5794 171.471C96.7593 170.708 95.5916 170.369 94.4862 170.431C93.1135 170.507 91.8566 171.101 90.6354 171.694C90.3101 171.85 90.2254 172.315 90.3948 172.609C90.5909 172.939 90.9831 173.006 91.3084 172.85L91.3129 172.846Z" fill="black"/>
<path d="M97.8292 174.519C96.2336 174.519 94.6335 174.519 93.0379 174.519C92.6769 174.519 92.3694 174.827 92.3694 175.188C92.3694 175.55 92.6769 175.858 93.0379 175.858C94.6335 175.858 96.2336 175.858 97.8292 175.858C98.1902 175.858 98.4977 175.55 98.4977 175.188C98.4977 174.827 98.1902 174.519 97.8292 174.519Z" fill="black"/>
<path d="M93.0377 181.964C95.5069 181.964 97.9716 181.964 100.441 181.964C101.301 181.964 101.301 180.625 100.441 180.625C97.9716 180.625 95.5069 180.625 93.0377 180.625C92.1775 180.625 92.1775 181.964 93.0377 181.964Z" fill="black"/>
<path d="M101.831 169.457C101.386 170.6 101.635 171.97 102.375 172.93C103.191 173.988 104.483 174.425 105.785 174.22C106.493 174.108 107.162 173.765 107.679 173.269C107.937 173.019 107.929 172.573 107.679 172.323C107.429 172.073 106.993 172.073 106.734 172.323C106.672 172.385 106.605 172.448 106.534 172.501C106.618 172.434 106.453 172.555 106.453 172.555C106.324 172.64 106.186 172.716 106.043 172.778C106.15 172.734 105.972 172.8 105.954 172.805C105.869 172.832 105.785 172.858 105.696 172.881C105.629 172.899 105.566 172.908 105.5 172.921C105.419 172.934 105.41 172.934 105.477 172.921C105.433 172.925 105.388 172.93 105.344 172.934C105.196 172.943 105.054 172.943 104.907 172.934C104.871 172.934 104.84 172.93 104.809 172.925C104.876 172.934 104.867 172.934 104.786 172.921C104.72 172.908 104.657 172.894 104.59 172.881C104.274 172.8 104.14 172.738 103.842 172.537C103.721 172.457 103.868 172.573 103.775 172.484C103.712 172.426 103.645 172.368 103.587 172.305C103.543 172.256 103.498 172.211 103.458 172.162C103.409 172.1 103.405 172.095 103.445 172.144C103.427 172.118 103.409 172.091 103.391 172.064C103.311 171.948 103.244 171.827 103.182 171.698C103.164 171.658 103.146 171.618 103.128 171.582C103.155 171.64 103.151 171.636 103.124 171.56C103.102 171.497 103.079 171.435 103.062 171.372C103.035 171.287 103.017 171.203 102.999 171.118C102.995 171.091 102.963 170.908 102.981 171.037C102.959 170.89 102.955 170.734 102.959 170.582C102.959 170.515 102.968 170.453 102.972 170.39C102.981 170.31 102.981 170.305 102.972 170.377C102.981 170.332 102.986 170.292 102.995 170.252C103.026 170.105 103.075 169.957 103.128 169.819C103.262 169.484 102.986 169.083 102.66 168.993C102.282 168.891 101.97 169.123 101.836 169.462L101.831 169.457Z" fill="black"/>
<path d="M102.17 178.683C104.938 178.826 107.701 178.964 110.469 179.107C111.329 179.152 111.325 177.813 110.469 177.768C107.701 177.625 104.938 177.487 102.17 177.344C101.31 177.299 101.314 178.638 102.17 178.683Z" fill="black"/>
<path d="M103.681 180.62C104.171 182.089 103.088 183.954 104.096 185.342C104.813 186.329 106.039 186.293 107.135 186.324C108.388 186.36 109.644 186.351 110.897 186.311C111.757 186.284 111.757 184.945 110.897 184.972C109.729 185.008 108.561 185.017 107.394 184.99C106.89 184.976 106.36 184.999 105.861 184.923C105.673 184.896 105.486 184.842 105.33 184.726C105.25 184.664 105.192 184.593 105.13 184.49C105.094 184.427 105.054 184.298 105.023 184.146C105.018 184.119 105.009 184.088 105.005 183.986C105 183.905 104.996 183.829 104.996 183.749C104.996 183.383 105.032 183.013 105.072 182.647C105.152 181.852 105.228 181.031 104.969 180.259C104.697 179.446 103.405 179.794 103.681 180.616V180.62Z" fill="black"/>
<path d="M122.668 169.686C121.736 171.761 120.604 173.743 119.294 175.6C119.084 175.894 119.24 176.345 119.534 176.515C119.869 176.711 120.239 176.568 120.448 176.274C121.763 174.417 122.891 172.435 123.822 170.36C123.969 170.029 123.916 169.641 123.581 169.445C123.296 169.275 122.815 169.355 122.668 169.686Z" fill="black"/>
<path d="M122.899 171.872C123.247 172.997 123.898 174.028 124.785 174.8C125.048 175.028 125.476 175.082 125.73 174.8C125.961 174.55 126.01 174.1 125.73 173.854C125.534 173.684 125.351 173.501 125.181 173.31C125.137 173.26 125.097 173.211 125.057 173.162C125.039 173.14 125.021 173.118 125.003 173.095C124.95 173.033 125.088 173.211 125.016 173.113C124.941 173.011 124.865 172.903 124.794 172.796C124.655 172.587 124.535 172.368 124.424 172.14C124.397 172.082 124.37 172.024 124.343 171.966C124.294 171.855 124.384 172.064 124.352 171.988C124.343 171.962 124.33 171.935 124.321 171.908C124.272 171.783 124.228 171.654 124.187 171.524C124.085 171.189 123.715 170.944 123.363 171.056C123.011 171.167 122.784 171.52 122.895 171.881L122.899 171.872Z" fill="black"/>
<path d="M127.223 167.338C127.392 170.101 127.561 172.859 127.731 175.622C127.784 176.479 129.121 176.483 129.068 175.622C128.899 172.859 128.729 170.101 128.56 167.338C128.506 166.481 127.169 166.476 127.223 167.338Z" fill="black"/>
<path d="M129.184 171.935H131.363C131.711 171.935 132.05 171.627 132.032 171.265C132.014 170.904 131.738 170.596 131.363 170.596H129.184C128.836 170.596 128.497 170.904 128.515 171.265C128.533 171.627 128.809 171.935 129.184 171.935Z" fill="black"/>
<path d="M123.586 180.737C124.335 180.366 125.253 179.871 126.122 180.045C126.603 180.143 127.263 180.581 127.178 181.152C127.169 181.201 127.151 181.25 127.138 181.304C127.089 181.482 127.2 181.205 127.116 181.357C127.093 181.397 127.071 181.438 127.044 181.478C126.991 181.563 127.151 181.375 127.031 181.491C126.991 181.531 126.955 181.567 126.915 181.603C126.79 181.719 126.986 181.558 126.897 181.616C126.857 181.638 126.817 181.665 126.777 181.687C126.755 181.701 126.536 181.799 126.674 181.746C126.478 181.826 126.273 181.879 126.068 181.92C125.747 181.987 125.627 182 125.355 182.027C124.326 182.143 123.14 182.152 122.24 182.732C121.754 183.044 121.375 183.517 121.237 184.084C121.045 184.883 121.38 185.704 121.946 186.271C122.645 186.963 123.59 187.235 124.553 187.115C125.614 186.981 126.559 186.454 127.459 185.914C128.199 185.472 127.526 184.316 126.786 184.758C125.676 185.419 123.608 186.611 122.663 185.039C122.529 184.816 122.489 184.598 122.547 184.348C122.605 184.098 122.507 184.397 122.587 184.245C122.61 184.2 122.636 184.156 122.663 184.116C122.726 184.022 122.561 184.223 122.685 184.089C122.739 184.031 122.792 183.977 122.85 183.924C122.748 184.008 122.971 183.848 123.006 183.83C123.06 183.799 123.113 183.772 123.171 183.745C123.145 183.758 123.06 183.79 123.185 183.741C123.434 183.647 123.693 183.584 123.956 183.535C124.397 183.455 124.892 183.419 125.418 183.357C125.943 183.294 126.474 183.236 126.964 183.053C128.168 182.607 128.898 181.375 128.274 180.13C127.86 179.295 126.951 178.768 126.042 178.688C124.923 178.59 123.871 179.094 122.895 179.576C122.124 179.96 122.801 181.116 123.568 180.732L123.586 180.737Z" fill="black"/>
<path d="M132.232 170.73C133.208 170.27 134.545 170.261 135.406 170.98C136.128 171.582 136.359 172.73 135.874 173.551C135.588 174.028 135.076 174.202 134.568 174.345C133.886 174.537 133.164 174.689 132.62 175.175C132.179 175.568 131.885 176.135 131.836 176.72C131.787 177.304 132.116 178.121 132.767 178.211C133.199 178.269 133.748 178.099 134.184 178.041C134.661 177.974 135.143 177.907 135.62 177.845C136.578 177.711 137.536 177.581 138.494 177.447C138.851 177.398 139.047 176.938 138.962 176.622C138.855 176.233 138.499 176.104 138.138 176.153C136.319 176.403 134.496 176.657 132.678 176.907L133.195 176.974C133.164 176.952 133.159 176.876 133.168 176.8C133.177 176.706 133.248 176.519 133.32 176.403C133.565 176.019 133.984 175.899 134.403 175.778C135.455 175.479 136.515 175.18 137.077 174.149C137.523 173.328 137.59 172.283 137.269 171.404C136.899 170.391 136.123 169.681 135.12 169.311C133.962 168.887 132.66 169.052 131.559 169.57C131.234 169.726 131.149 170.194 131.319 170.484C131.515 170.819 131.907 170.877 132.232 170.726V170.73Z" fill="black"/>
<path d="M141.583 167.775C141.583 171.846 141.583 175.916 141.583 179.987C141.583 180.848 142.92 180.848 142.92 179.987C142.92 175.916 142.92 171.846 142.92 167.775C142.92 166.914 141.583 166.914 141.583 167.775Z" fill="black"/>
<path d="M134.639 182.106C135.664 181.727 137.389 181.432 137.933 182.664C138.093 183.026 138.115 183.477 137.924 183.78C137.665 184.186 136.983 184.146 136.489 184.137C135.762 184.124 135.013 184.164 134.416 184.624C133.939 184.99 133.69 185.534 133.636 186.128C133.538 187.221 134.171 188.404 135.12 188.944C136.778 189.89 138.811 189.042 140.335 188.248C141.097 187.851 140.424 186.695 139.662 187.092C138.561 187.663 136.752 188.538 135.633 187.686C135.325 187.454 135.103 187.065 135.004 186.663C134.92 186.311 134.973 185.945 135.16 185.749C135.276 185.628 135.495 185.534 135.722 185.499C136.061 185.445 136.422 185.485 136.765 185.485C137.487 185.49 138.249 185.374 138.784 184.838C139.68 183.941 139.51 182.428 138.766 181.499C137.705 180.169 135.718 180.285 134.282 180.817C133.944 180.942 133.712 181.272 133.814 181.642C133.904 181.968 134.296 182.236 134.639 182.111V182.106Z" fill="black"/>
<path d="M153.323 170.39C153.078 172.443 152.364 174.425 151.29 176.184C150.84 176.92 151.995 177.594 152.445 176.858C153.648 174.885 154.383 172.684 154.66 170.39C154.704 170.029 154.321 169.721 153.991 169.721C153.595 169.721 153.367 170.029 153.323 170.39Z" fill="black"/>
<path d="M153.443 173.774C154.272 175.109 155.097 176.448 155.926 177.782C156.108 178.081 156.532 178.224 156.839 178.023C157.147 177.822 157.276 177.425 157.08 177.108C156.251 175.774 155.426 174.435 154.597 173.1C154.415 172.801 153.991 172.658 153.684 172.859C153.376 173.06 153.247 173.457 153.443 173.774Z" fill="black"/>
<path d="M148.349 182.839C151.687 182.839 155.025 182.839 158.368 182.839C159.228 182.839 159.228 181.5 158.368 181.5C155.03 181.5 151.691 181.5 148.349 181.5C147.489 181.5 147.489 182.839 148.349 182.839Z" fill="black"/>
<path d="M153.229 182.174C153.398 185.517 153.568 188.86 153.737 192.203C153.782 193.06 155.119 193.064 155.074 192.203C154.905 188.86 154.736 185.517 154.566 182.174C154.522 181.317 153.185 181.312 153.229 182.174Z" fill="black"/>
<path d="M170.299 170.681C169.305 171.444 168.726 172.663 168.806 173.926C168.886 175.189 169.6 176.331 170.807 176.809C171.819 177.206 173.112 177.063 173.994 176.421C175.019 175.68 175.483 174.399 175.019 173.189C174.498 171.832 173.094 170.797 171.605 171.181C171.258 171.27 171.044 171.658 171.137 172.006C171.231 172.355 171.61 172.564 171.962 172.475C172.015 172.462 172.073 172.448 172.127 172.439C171.966 172.475 172.136 172.439 172.167 172.439C172.22 172.439 172.274 172.439 172.332 172.439C172.363 172.439 172.537 172.471 172.367 172.439C172.474 172.457 172.577 172.484 172.679 172.52C172.706 172.529 172.866 172.6 172.719 172.533C172.786 172.564 172.849 172.596 172.916 172.636C172.965 172.663 173.009 172.694 173.054 172.725C173.072 172.738 173.214 172.85 173.098 172.752C173.183 172.823 173.268 172.899 173.343 172.979C173.375 173.011 173.539 173.22 173.455 173.104C173.531 173.212 173.602 173.323 173.664 173.439C173.691 173.488 173.713 173.537 173.74 173.591C173.673 173.448 173.749 173.613 173.758 173.64C173.794 173.747 173.825 173.854 173.847 173.961C173.851 173.993 173.865 174.171 173.856 174.002C173.856 174.055 173.865 174.113 173.865 174.167C173.865 174.22 173.865 174.278 173.865 174.332C173.865 174.368 173.86 174.403 173.856 174.443C173.869 174.359 173.865 174.354 173.856 174.43C173.825 174.537 173.802 174.644 173.758 174.751C173.82 174.591 173.713 174.827 173.691 174.867C173.664 174.912 173.638 174.952 173.611 174.992C173.522 175.131 173.704 174.894 173.593 175.015C173.513 175.099 173.433 175.18 173.348 175.26C173.228 175.376 173.464 175.184 173.326 175.278C173.285 175.305 173.245 175.336 173.201 175.363C173.116 175.416 173.027 175.465 172.938 175.51C172.907 175.524 172.751 175.582 172.911 175.524C172.862 175.541 172.817 175.559 172.768 175.577C172.657 175.613 172.541 175.644 172.421 175.666C172.381 175.675 172.336 175.68 172.296 175.689C172.193 175.711 172.461 175.68 172.296 175.689C172.193 175.693 172.091 175.702 171.988 175.702C171.886 175.702 171.783 175.693 171.681 175.684C171.859 175.702 171.69 175.684 171.659 175.675C171.592 175.662 171.525 175.648 171.458 175.631C171.36 175.604 171.262 175.573 171.168 175.532C171.329 175.595 171.168 175.532 171.142 175.515C171.097 175.492 171.053 175.465 171.008 175.443C170.963 175.421 170.923 175.39 170.879 175.363C170.852 175.345 170.727 175.238 170.852 175.345C170.772 175.274 170.696 175.202 170.62 175.126C170.585 175.086 170.544 175.041 170.513 174.997C170.611 175.122 170.5 174.97 170.486 174.952C170.424 174.858 170.38 174.76 170.326 174.667C170.241 174.51 170.366 174.792 170.308 174.626C170.29 174.573 170.273 174.524 170.255 174.47C170.215 174.345 170.192 174.22 170.161 174.095C170.121 173.917 170.166 174.234 170.157 174.055C170.152 173.979 170.143 173.908 170.143 173.832C170.143 173.72 170.143 173.609 170.152 173.497C170.152 173.47 170.174 173.283 170.152 173.453C170.161 173.377 170.174 173.305 170.192 173.229C170.219 173.1 170.255 172.975 170.299 172.85C170.317 172.796 170.339 172.743 170.357 172.694C170.299 172.841 170.393 172.622 170.406 172.6C170.464 172.484 170.531 172.372 170.607 172.265C170.62 172.247 170.732 172.1 170.634 172.221C170.683 172.163 170.727 172.105 170.781 172.051C170.821 172.011 170.861 171.971 170.901 171.935C170.923 171.917 171.102 171.765 170.981 171.859C171.266 171.64 171.418 171.283 171.222 170.944C171.057 170.663 170.593 170.484 170.308 170.703L170.299 170.681Z" fill="black"/>
<path d="M176.223 173.676H178.402C178.75 173.676 179.089 173.368 179.071 173.006C179.053 172.645 178.777 172.337 178.402 172.337H176.223C175.875 172.337 175.536 172.645 175.554 173.006C175.572 173.368 175.848 173.676 176.223 173.676Z" fill="black"/>
<path d="M178.166 169.953C178.166 172.858 178.166 175.768 178.166 178.674C178.166 179.535 179.503 179.535 179.503 178.674C179.503 175.768 179.503 172.858 179.503 169.953C179.503 169.091 178.166 169.091 178.166 169.953Z" fill="black"/>
<path d="M168.539 181.259C169.033 182.362 168.935 183.634 169.078 184.803C169.212 185.901 169.564 186.941 170.313 187.776C171.017 188.552 172.118 188.999 173.147 188.65C174.177 188.302 174.881 187.378 175.144 186.356C175.509 184.919 174.961 183.477 174.409 182.17C174.27 181.835 173.967 181.598 173.584 181.701C173.272 181.786 172.978 182.187 173.116 182.527C173.53 183.509 174.025 184.598 173.909 185.691C173.838 186.352 173.45 187.115 172.8 187.36C172.149 187.606 171.498 187.177 171.115 186.66C170.589 185.95 170.424 185.102 170.353 184.241C170.25 182.986 170.21 181.75 169.684 180.585C169.537 180.255 169.056 180.175 168.77 180.344C168.432 180.541 168.383 180.929 168.53 181.259H168.539Z" fill="black"/>
<path d="M174.092 183.866C173.125 182.919 171.703 182.54 170.393 182.857C170.054 182.942 169.818 183.343 169.925 183.683C170.041 184.035 170.384 184.24 170.749 184.151C170.812 184.138 170.87 184.124 170.932 184.111C170.959 184.107 170.999 184.107 171.026 184.093C170.901 184.142 170.941 184.102 171.008 184.093C171.133 184.08 171.253 184.075 171.378 184.075C171.449 184.075 171.516 184.075 171.587 184.084C171.619 184.084 171.65 184.089 171.681 184.093C171.775 184.102 171.677 184.102 171.641 184.089C171.757 184.133 171.904 184.138 172.029 184.169C172.153 184.2 172.265 184.245 172.381 184.285C172.465 184.316 172.269 184.232 172.35 184.272C172.376 184.285 172.407 184.298 172.434 184.312C172.497 184.343 172.559 184.374 172.621 184.41C172.728 184.473 172.831 184.539 172.933 184.611C173.036 184.682 172.867 184.553 172.929 184.606C172.951 184.629 172.978 184.647 173 184.664C173.054 184.709 173.103 184.758 173.152 184.807C173.401 185.053 173.852 185.075 174.097 184.807C174.342 184.539 174.364 184.12 174.097 183.861L174.092 183.866Z" fill="black"/>
<path d="M177.315 181.732C177.118 183.593 176.517 185.405 175.599 187.034C175.175 187.784 176.33 188.462 176.753 187.708C177.796 185.86 178.429 183.834 178.652 181.727C178.692 181.366 178.317 181.058 177.983 181.058C177.591 181.058 177.355 181.366 177.315 181.727V181.732Z" fill="black"/>
<path d="M177.359 185.825C177.724 185.883 178.081 185.968 178.429 186.088C178.513 186.119 178.603 186.151 178.687 186.182C178.732 186.2 178.812 186.235 178.727 186.195C178.763 186.213 178.803 186.226 178.839 186.244C179.017 186.325 179.186 186.414 179.356 186.512C179.516 186.601 179.672 186.704 179.824 186.807C179.899 186.86 179.975 186.914 180.047 186.967C179.993 186.927 180.015 186.945 180.055 186.976C180.096 187.008 180.136 187.043 180.171 187.074C180.461 187.32 180.724 187.592 180.96 187.882C181.183 188.155 181.678 188.132 181.905 187.882C182.168 187.592 182.141 187.226 181.905 186.936C180.867 185.669 179.333 184.785 177.711 184.53C177.368 184.477 176.976 184.62 176.887 184.999C176.815 185.32 176.985 185.767 177.355 185.825H177.359Z" fill="black"/>
<path d="M184.717 175.242C183.782 176.76 183.198 178.456 182.988 180.223C182.895 180.995 182.877 181.821 183.242 182.531C183.608 183.24 184.388 183.66 185.194 183.624C186.674 183.557 188.216 182.517 189.161 181.424C190.151 180.272 190.73 178.719 190.257 177.215C189.785 175.711 188.354 174.349 186.683 174.568C186.326 174.613 186.014 174.845 186.014 175.238C186.014 175.563 186.322 175.952 186.683 175.907C187.69 175.778 188.519 176.461 188.894 177.367C189.317 178.384 188.992 179.473 188.35 180.317C187.708 181.16 186.67 181.915 185.631 182.205C185.19 182.33 184.664 182.366 184.423 181.901C184.183 181.437 184.263 180.794 184.325 180.29C184.508 178.737 185.061 177.246 185.881 175.921C186.335 175.184 185.177 174.515 184.726 175.247L184.717 175.242Z" fill="black"/>
<path d="M192.081 177.144L194.692 176.706C194.848 176.679 195.018 176.528 195.093 176.398C195.178 176.255 195.214 176.041 195.16 175.88C195.04 175.506 194.71 175.349 194.336 175.412L191.724 175.849C191.568 175.876 191.399 176.028 191.323 176.157C191.238 176.3 191.203 176.514 191.256 176.675C191.376 177.05 191.706 177.206 192.081 177.144Z" fill="black"/>
<path d="M195.637 171.265C195.254 176.568 195.597 181.897 196.64 187.11C196.809 187.954 198.097 187.597 197.928 186.753C196.912 181.656 196.6 176.447 196.974 171.265C197.037 170.404 195.699 170.409 195.637 171.265Z" fill="black"/>
<path d="M202.354 186.762C203.214 186.762 203.214 185.423 202.354 185.423C201.493 185.423 201.493 186.762 202.354 186.762Z" fill="black"/>
<path d="M97.3878 203.772H103.922C104.782 203.772 104.782 202.433 103.922 202.433H97.3878C96.5276 202.433 96.5276 203.772 97.3878 203.772Z" fill="black"/>
<path d="M98.9611 203.896C98.9967 203.968 98.9967 203.968 98.9611 203.896C98.9744 203.932 98.9878 203.972 98.9967 204.008C99.0056 204.039 99.0368 204.276 99.0234 204.124C99.0368 204.289 99.0324 204.454 99.019 204.619C99.019 204.664 99.0101 204.704 99.0056 204.749C99.0145 204.677 99.0145 204.682 99.0056 204.762C98.9923 204.847 98.9789 204.936 98.9611 205.021C98.9343 205.168 98.9031 205.32 98.8764 205.467C98.756 206.141 98.6491 206.9 99.0769 207.498C99.7098 208.382 100.833 208.239 101.782 208.137C102.852 208.02 103.908 207.829 104.947 207.556C105.78 207.338 105.428 206.048 104.59 206.266C103.668 206.507 102.732 206.695 101.782 206.798C101.363 206.842 100.882 206.936 100.459 206.873C100.468 206.873 100.334 206.847 100.307 206.833C100.307 206.833 100.124 206.69 100.236 206.798C100.187 206.753 100.138 206.686 100.2 206.78C100.173 206.74 100.102 206.557 100.151 206.717C100.133 206.659 100.12 206.601 100.106 206.543C100.098 206.494 100.098 206.507 100.111 206.592C100.111 206.557 100.106 206.521 100.102 206.485C100.098 206.351 100.106 206.217 100.124 206.079C100.106 206.235 100.142 205.976 100.147 205.95C100.156 205.887 100.169 205.825 100.182 205.762C100.209 205.61 100.24 205.463 100.267 205.311C100.392 204.593 100.45 203.892 100.12 203.218C99.9594 202.892 99.5003 202.803 99.2062 202.977C98.8764 203.169 98.8095 203.566 98.9655 203.892L98.9611 203.896Z" fill="black"/>
<path d="M101.074 208.338V211.391C101.074 211.739 101.381 212.078 101.742 212.061C102.103 212.043 102.411 211.766 102.411 211.391V208.338C102.411 207.99 102.103 207.651 101.742 207.669C101.381 207.686 101.074 207.963 101.074 208.338Z" fill="black"/>
<path d="M96.9511 213.376C99.7055 213.202 102.464 213.028 105.219 212.854C106.074 212.801 106.079 211.462 105.219 211.515C102.464 211.689 99.7055 211.863 96.9511 212.037C96.0954 212.091 96.0909 213.43 96.9511 213.376Z" fill="black"/>
<path d="M98.6937 215.533C100.303 215.555 101.912 215.582 103.516 215.604L102.937 215.274C103.182 215.662 102.914 216.086 102.602 216.358C102.121 216.787 101.439 216.796 100.829 216.796C99.4781 216.796 98.0162 216.733 97 217.805C96.1666 218.684 96.171 220.081 97.1471 220.853C98.0118 221.536 99.2419 221.612 100.285 221.398C101.546 221.139 103.115 219.987 104.372 220.799C105.098 221.268 105.767 220.112 105.045 219.643C103.512 218.648 101.814 219.545 100.276 220.018C99.75 220.179 99.1706 220.219 98.6313 220.094C98.1767 219.987 97.78 219.786 97.7131 219.38C97.6374 218.907 98.1365 218.514 98.56 218.336C99.2909 218.023 100.12 218.144 100.891 218.139C101.782 218.139 102.665 218.014 103.378 217.443C103.944 216.992 104.376 216.296 104.367 215.555C104.367 215.153 104.207 214.578 103.837 214.363C103.578 214.212 103.186 214.265 102.897 214.265L102.143 214.256L98.6758 214.207C97.8156 214.194 97.8156 215.533 98.6758 215.546L98.6937 215.533Z" fill="black"/>
<path d="M109.168 207.221C108.441 208.81 107.634 210.984 108.713 212.609C109.854 214.327 112.163 214.269 113.838 213.452C115.514 212.635 116.78 211.046 117.07 209.257C117.359 207.467 116.686 205.896 115.207 204.936C113.727 203.977 111.672 203.896 110.366 205.182C109.751 205.789 110.696 206.735 111.311 206.128C112.06 205.387 113.192 205.405 114.119 205.856C115.198 206.378 115.849 207.36 115.804 208.574C115.755 209.899 114.913 211.162 113.843 211.899C112.849 212.582 111.164 213.14 110.126 212.229C108.909 211.167 109.774 209.083 110.313 207.895C110.464 207.565 110.407 207.177 110.072 206.98C109.783 206.811 109.31 206.891 109.159 207.221H109.168Z" fill="black"/>
<path d="M118.086 202.669C117.845 206.825 118.108 210.985 118.835 215.077C118.986 215.925 120.274 215.564 120.123 214.72C119.414 210.744 119.187 206.7 119.418 202.665C119.467 201.803 118.13 201.808 118.081 202.665L118.086 202.669Z" fill="black"/>
<path d="M120.377 211.105C121.464 210.583 122.726 210.302 123.956 210.302C124.303 210.302 124.642 209.994 124.624 209.632C124.607 209.271 124.33 208.963 123.956 208.963C122.476 208.963 121.032 209.311 119.704 209.949C119.387 210.101 119.28 210.579 119.463 210.864C119.673 211.19 120.038 211.266 120.377 211.105Z" fill="black"/>
<path d="M126.3 206.351L128.154 206.079C128.685 206.003 129.353 205.78 129.888 205.878C130.374 205.967 130.093 206.53 129.964 206.856C129.719 207.485 129.447 208.101 129.188 208.726C128.163 211.19 127.138 213.653 126.113 216.113C125.975 216.447 126.264 216.845 126.581 216.938C126.964 217.05 127.267 216.804 127.405 216.47C128.653 213.475 129.906 210.48 131.145 207.485C131.582 206.423 131.742 204.932 130.307 204.593C129.692 204.445 129.032 204.606 128.422 204.7L125.948 205.066C125.101 205.191 125.462 206.481 126.305 206.356L126.3 206.351Z" fill="black"/>
<path d="M134.679 202.232C134.483 207.32 134.283 212.404 134.086 217.492C134.051 218.354 135.388 218.354 135.423 217.492C135.62 212.404 135.82 207.32 136.016 202.232C136.052 201.371 134.715 201.371 134.679 202.232Z" fill="black"/>
<path d="M135.887 208.967C137.688 208.548 139.533 208.423 141.374 208.584C141.735 208.615 142.042 208.253 142.042 207.914C142.042 207.526 141.735 207.276 141.374 207.245C139.417 207.075 137.443 207.231 135.531 207.678C134.693 207.874 135.049 209.164 135.887 208.967Z" fill="black"/>
<path d="M140.941 218.166C141.801 218.166 141.801 216.827 140.941 216.827C140.081 216.827 140.081 218.166 140.941 218.166Z" fill="black"/>
</g>
<path d="M12.0813 246.536L6.57932 245.094C5.36132 246.018 3.28932 246.48 1.39932 246.522V245.472C3.31732 245.416 5.62732 244.87 6.15932 243.652H1.62332V242.616H6.18732V241.524H7.60132V242.616H12.1513V243.652H7.61532C7.55932 243.862 7.47532 244.058 7.36332 244.24L12.3893 245.514L12.0813 246.536ZM12.8653 248.3H7.58732V249.308H12.0393V252.038H3.10732V252.808H12.2493V253.816H1.74932V251.072H10.6813V250.316H1.72132V249.308H6.18732V248.3H0.92332V247.236H12.8653V248.3ZM25.2121 244.142H26.8921V245.416H25.2121V247.992H23.8261V242H25.2121V244.142ZM21.7961 242.21V247.558H14.8101V242.21H16.1681V243.694H20.4381V242.21H21.7961ZM16.1681 246.438H20.4381V244.8H16.1681V246.438ZM16.6021 251.73V252.724H25.5061V253.802H15.2301V250.708H23.8401V249.728H15.2021V248.65H25.2121V251.73H16.6021ZM37.6289 242H39.0149V253.956H37.6289V242ZM32.9669 243.708C32.9529 245.094 32.8129 246.368 32.5889 247.488L36.4949 252.318L35.4029 253.144L32.1829 249.042C31.3569 251.548 29.9289 253.032 28.1229 253.242V251.87C30.2509 251.478 31.5109 248.146 31.5669 243.708H28.4029V242.434H36.0329V243.708H32.9669ZM53.3255 243.008V244.086H45.2055V243.008H48.5655V241.79H49.9655V243.008H53.3255ZM57.7495 244.898V246.214H56.0695V249.126H54.6835V242H56.0695V244.898H57.7495ZM49.2655 249.028C47.2775 249.028 45.7515 248.244 45.7515 246.9C45.7515 245.514 47.2775 244.716 49.2655 244.716C51.2395 244.716 52.7655 245.514 52.7655 246.9C52.7655 248.244 51.2395 249.028 49.2655 249.028ZM49.2655 245.738C47.9215 245.738 47.0815 246.228 47.0815 246.9C47.0815 247.544 47.9215 248.006 49.2655 248.006C50.5955 248.006 51.4495 247.544 51.4495 246.9C51.4495 246.228 50.5955 245.738 49.2655 245.738ZM46.0735 253.802V249.784H56.0695V253.802H46.0735ZM47.4455 250.89V252.696H54.6975V250.89H47.4455ZM69.0183 242H70.2783V253.956H69.0183V242ZM66.4563 246.676V242.07H67.7163V253.746H66.4563V247.95H64.9163C64.6783 251.142 63.8523 252.99 61.8643 253.214V252.01C63.2923 251.758 63.7263 249.448 63.7263 245.612V243.61H62.2983V242.434H65.0003V245.472C65.0003 245.892 65.0003 246.284 64.9863 246.676H66.4563ZM61.7103 242.434L61.7243 245.304C61.7523 249.658 61.2063 252.514 58.8403 252.794V251.59C60.1843 251.338 60.4783 248.818 60.4503 245.43L60.4363 243.61H58.8403V242.434H61.7103ZM81.747 246.424C80.627 247.67 78.765 248.454 76.483 248.58V247.306C79.003 247.124 80.823 245.962 81.313 244.324H76.791V243.064H81.327V241.706H82.755V243.064H87.347V244.324H82.811C82.741 244.688 82.615 245.038 82.461 245.374L87.669 247.292L87.193 248.496L81.747 246.424ZM88.047 249.728V251.016H82.769V254.236H81.355V251.016H76.105V249.728H88.047ZM102.074 246.844V248.174H100.394V253.956H99.0078V242H100.394V246.844H102.074ZM90.0058 243.708V242.434H96.5158V245.318C96.5158 250.078 94.0658 253.214 90.0058 253.214V251.898C93.2538 251.884 95.1018 249.35 95.1018 245.346V243.708H90.0058ZM107.883 241.972V243.89H111.061V245.122H103.305V243.89H106.469V241.972H107.883ZM115.541 246.844V248.174H113.861V253.956H112.475V242H113.861V246.844H115.541ZM107.183 246.074C109.129 246.074 110.501 247.53 110.501 249.728C110.501 251.926 109.129 253.382 107.183 253.382C105.237 253.382 103.851 251.926 103.851 249.728C103.851 247.53 105.237 246.074 107.183 246.074ZM107.183 252.178C108.289 252.178 109.157 251.254 109.157 249.728C109.157 248.202 108.289 247.278 107.183 247.278C106.063 247.278 105.195 248.202 105.195 249.728C105.195 251.254 106.063 252.178 107.183 252.178ZM126.277 253.956V242H127.663V253.956H126.277ZM117.065 253.214V251.898C120.327 251.884 122.287 249.35 122.287 245.346V243.708H117.065V242.434H123.701V245.318C123.701 250.106 121.153 253.214 117.065 253.214ZM143.668 253.956V242H145.054V253.956H143.668ZM134.456 253.214V251.898C137.718 251.884 139.678 249.35 139.678 245.346V243.708H134.456V242.434H141.092V245.318C141.092 250.106 138.544 253.214 134.456 253.214ZM158.185 244.842H159.865V246.172H158.185V250.876H156.799V242H158.185V244.842ZM154.559 243.918C154.559 247.32 151.773 249 147.671 249V247.754C151.017 247.74 153.159 246.466 153.159 244.086V243.512H147.671V242.294H154.559V243.918ZM149.589 250.036V252.542H158.507V253.802H148.189V250.036H149.589ZM170.602 253.956V242H172.002V253.956H170.602ZM164.96 253.396C162.832 253.396 161.334 251.632 161.334 247.838C161.334 244.044 162.832 242.28 164.96 242.28C167.074 242.28 168.572 244.044 168.572 247.838C168.572 251.632 167.074 253.396 164.96 253.396ZM164.96 252.122C166.206 252.122 167.186 250.876 167.186 247.838C167.186 244.814 166.206 243.554 164.96 243.554C163.686 243.554 162.72 244.814 162.72 247.838C162.72 250.876 163.686 252.122 164.96 252.122ZM189.042 244.842H190.722V246.172H189.042V250.876H187.656V242H189.042V244.842ZM185.626 242.294V248.748H178.64V242.294H185.626ZM184.254 247.544V243.498H180.012V247.544H184.254ZM180.446 249.924V252.542H189.364V253.802H179.046V249.924H180.446ZM200.647 252.122H203.629V253.382H191.687V252.122H194.669V249.798H192.485V245.514H201.473V243.666H192.485V242.434H202.845V246.704H193.871V248.566H203.027V249.798H200.647V252.122ZM196.055 249.798V252.122H199.261V249.798H196.055ZM214.954 242H216.34V253.956H214.954V242ZM209.956 251.94H210.04C211.65 251.94 213.106 251.8 213.96 251.436V252.738C213.106 253.088 211.692 253.242 210.054 253.242H205.154V251.94H208.57V248.888H205.854V242.462H212.798V243.736H207.226V247.614H212.938V248.888H209.956V251.94ZM226.083 245.794C225.817 247.306 224.459 248.328 222.429 248.328C220.161 248.328 218.747 247.04 218.747 245.234C218.747 243.428 220.161 242.14 222.429 242.14C224.375 242.14 225.705 243.092 226.041 244.506H228.491V242H229.877V248.65H228.491V245.794H226.083ZM220.119 245.234C220.119 246.424 221.057 247.166 222.429 247.166C223.801 247.166 224.739 246.424 224.739 245.234C224.739 244.044 223.801 243.302 222.429 243.302C221.057 243.302 220.119 244.044 220.119 245.234ZM230.871 252.878L230.073 253.886L227.721 251.968C226.979 253.06 225.901 253.732 224.725 253.802L222.653 251.996C221.911 253.06 220.833 253.718 219.671 253.802V252.542C220.987 252.416 222.177 250.904 222.317 249.014L223.647 249.21C223.591 249.84 223.437 250.414 223.227 250.946L225.117 252.472C226.237 252.122 227.203 250.708 227.329 249.014L228.673 249.21C228.617 249.826 228.477 250.386 228.267 250.904L230.871 252.878ZM241.957 242H243.343V253.956H241.957V248.258H239.661C239.549 251.758 238.107 253.396 236.105 253.396C234.005 253.396 232.535 251.632 232.535 247.838C232.535 244.044 234.005 242.28 236.105 242.28C238.023 242.28 239.423 243.764 239.633 246.956H241.957V242ZM236.105 252.122C237.337 252.122 238.275 250.876 238.275 247.838C238.275 244.814 237.337 243.554 236.105 243.554C234.859 243.554 233.921 244.814 233.921 247.838C233.921 250.876 234.859 252.122 236.105 252.122ZM254.752 252.108H257.496V253.382H245.554V252.108H248.298V248.874C246.926 248.244 246.128 247.194 246.128 245.85C246.128 243.638 248.256 242.21 251.518 242.21C254.78 242.21 256.908 243.638 256.908 245.85C256.908 247.18 256.11 248.244 254.752 248.86V252.108ZM247.598 245.85C247.598 247.278 249.166 248.216 251.518 248.216C253.87 248.216 255.452 247.278 255.452 245.85C255.452 244.394 253.87 243.47 251.518 243.47C249.166 243.47 247.598 244.394 247.598 245.85ZM249.684 249.308V252.108H253.366V249.308C252.806 249.42 252.19 249.476 251.518 249.476C250.86 249.476 250.244 249.42 249.684 249.308ZM260.057 253.844C259.497 253.844 259.063 253.41 259.063 252.85C259.063 252.29 259.497 251.856 260.057 251.856C260.617 251.856 261.037 252.29 261.037 252.85C261.037 253.41 260.617 253.844 260.057 253.844ZM33.2429 262H34.5589V273.956H33.2429V268.132H31.1849V273.746H29.8689V262.07H31.1849V266.816H33.2429V262ZM27.0409 262.35C27.0409 264.17 26.9569 265.766 26.7749 267.124L29.6729 272.444L28.5109 273.06L26.4249 269.098C25.8229 271.548 24.7729 272.906 23.1629 273.242V271.842C25.0529 271.226 25.6969 267.628 25.7109 262.294L27.0409 262.35ZM43.1817 272.108H48.4737V273.382H36.5317V272.108H41.7677V269.854H37.3297V265.542H46.3177V263.666H37.3297V262.434H47.6897V266.732H38.7157V268.622H47.8717V269.854H43.1817V272.108ZM55.9625 267.096C53.0645 267.096 50.6565 266.284 50.6565 264.506C50.6565 262.742 53.0645 261.93 55.9625 261.93C58.8605 261.93 61.2685 262.742 61.2685 264.506C61.2685 266.284 58.8605 267.096 55.9625 267.096ZM55.9625 263.05C53.8765 263.05 52.1265 263.54 52.1265 264.506C52.1265 265.486 53.8765 265.976 55.9625 265.976C58.0485 265.976 59.7985 265.486 59.7985 264.506C59.7985 263.54 58.0485 263.05 55.9625 263.05ZM49.9985 268.132H61.9405V269.308H56.6625V271.366H55.2625V269.308H49.9985V268.132ZM52.2385 270.414V272.626H61.3245V273.816H50.8245V270.414H52.2385ZM77.1611 269.126V262H78.5471V269.126H77.1611ZM67.9351 268.58V264.87H73.6331V263.428H67.9071V262.294H75.0051V265.976H69.3071V267.446H72.4571C74.0811 267.446 75.4531 267.25 76.2231 266.9V268.048C75.4951 268.37 74.0951 268.58 72.4011 268.58H67.9351ZM73.5351 273.956C70.6371 273.956 68.3411 273.382 68.3411 271.73C68.3411 270.064 70.6371 269.504 73.5351 269.504C76.4471 269.504 78.7291 270.064 78.7291 271.73C78.7291 273.382 76.4471 273.956 73.5351 273.956ZM73.5351 272.85C75.6211 272.85 77.2591 272.542 77.2591 271.73C77.2591 270.918 75.6211 270.61 73.5351 270.61C71.4631 270.61 69.8111 270.918 69.8111 271.73C69.8111 272.542 71.4631 272.85 73.5351 272.85ZM90.5159 270.946V268.118H81.6259V266.83H90.5159V263.736H81.6259V262.434H91.9159V270.946H90.5159ZM80.8559 272.08H92.7979V273.382H80.8559V272.08ZM95.1907 266.634V263.932H104.067V263.12H95.1907V262.14H105.411V264.856H96.5347V265.654H105.579V266.634H95.1907ZM94.3227 268.51V267.502H106.265V268.51H94.3227ZM95.1487 273.816V271.128H104.095V270.358H95.1207V269.378H105.439V272.052H96.4927V272.836H105.649V273.816H95.1487ZM122.535 264.842H124.215V266.172H122.535V270.876H121.149V262H122.535V264.842ZM119.119 262.294V268.748H112.133V262.294H119.119ZM117.747 267.544V263.498H113.505V267.544H117.747ZM113.939 269.924V272.542H122.857V273.802H112.539V269.924H113.939ZM126.034 265.962V262.14H136.268V263.204H127.42V264.898H136.408V265.962H126.034ZM125.18 268.062V266.984H137.122V268.062H125.18ZM126.006 273.816V270.96H134.938V270.12H125.978V269.084H136.296V271.94H127.364V272.78H136.506V273.816H126.006ZM148.517 262H149.903V273.956H148.517V268.258H146.221C146.109 271.758 144.667 273.396 142.665 273.396C140.565 273.396 139.095 271.632 139.095 267.838C139.095 264.044 140.565 262.28 142.665 262.28C144.583 262.28 145.983 263.764 146.193 266.956H148.517V262ZM142.665 272.122C143.897 272.122 144.835 270.876 144.835 267.838C144.835 264.814 143.897 263.554 142.665 263.554C141.419 263.554 140.481 264.814 140.481 267.838C140.481 270.876 141.419 272.122 142.665 272.122ZM165.712 266.2V263.316H156.836V262.14H167.098V266.2H165.712ZM161.918 267.04H167.98V268.188H156.038V267.04H160.518V264.702H161.918V267.04ZM162.002 269.308C164.858 269.308 167.252 269.966 167.252 271.632C167.252 273.312 164.858 273.97 162.002 273.97C159.146 273.97 156.752 273.312 156.752 271.632C156.752 269.91 159.146 269.308 162.002 269.308ZM162.002 272.864C163.934 272.864 165.796 272.486 165.796 271.632C165.796 270.792 163.934 270.414 162.002 270.414C160.07 270.414 158.208 270.75 158.208 271.632C158.208 272.486 160.07 272.864 162.002 272.864ZM175.468 268.412C172.262 268.412 170.148 267.264 170.148 265.262C170.148 263.26 172.262 262.112 175.468 262.112C178.674 262.112 180.788 263.26 180.788 265.262C180.788 267.264 178.674 268.412 175.468 268.412ZM175.468 263.344C173.2 263.344 171.59 264.016 171.59 265.262C171.59 266.494 173.2 267.166 175.468 267.166C177.736 267.166 179.346 266.494 179.346 265.262C179.346 264.016 177.736 263.344 175.468 263.344ZM181.446 269.546V270.848H178.492V274.236H177.12V270.848H173.816V274.236H172.444V270.848H169.504V269.546H181.446ZM186.583 261.972V263.862H189.089V265.108H182.705V263.862H185.211V261.972H186.583ZM193.177 262H194.465V273.956H193.177V268.118H191.259V273.746H189.971V262.07H191.259V266.816H193.177V262ZM185.953 266.046C187.563 266.046 188.739 267.334 188.739 269.714C188.739 272.094 187.563 273.382 185.953 273.382C184.357 273.382 183.181 272.094 183.181 269.714C183.181 267.334 184.357 266.046 185.953 266.046ZM185.953 272.164C186.821 272.164 187.465 271.282 187.465 269.714C187.465 268.146 186.821 267.264 185.953 267.264C185.099 267.264 184.469 268.146 184.469 269.714C184.469 271.282 185.099 272.164 185.953 272.164ZM202.164 265.878C200.96 267.306 198.986 268.174 196.83 268.314V267.026C199.266 266.83 201.296 265.556 201.8 263.568H197.124V262.308H207.68V263.568H203.27C203.186 264.002 203.046 264.422 202.864 264.8L208.072 267.11L207.498 268.272L202.164 265.878ZM208.38 269.602V270.89H203.088V274.236H201.688V270.89H196.438V269.602H208.38ZM220.083 262H221.399V273.956H220.083V262ZM217.073 266.088V262.07H218.389V273.746H217.073V267.404H215.183V266.088H217.073ZM213.881 262.35C213.881 264.212 213.783 265.822 213.615 267.208L216.513 272.472L215.351 273.088L213.251 269.168C212.649 271.562 211.599 272.906 210.003 273.242V271.842C211.893 271.226 212.537 267.628 212.551 262.294L213.881 262.35ZM232.57 272.108H235.314V273.382H223.372V272.108H226.116V268.874C224.744 268.244 223.946 267.194 223.946 265.85C223.946 263.638 226.074 262.21 229.336 262.21C232.598 262.21 234.726 263.638 234.726 265.85C234.726 267.18 233.928 268.244 232.57 268.86V272.108ZM225.416 265.85C225.416 267.278 226.984 268.216 229.336 268.216C231.688 268.216 233.27 267.278 233.27 265.85C233.27 264.394 231.688 263.47 229.336 263.47C226.984 263.47 225.416 264.394 225.416 265.85ZM227.502 269.308V272.108H231.184V269.308C230.624 269.42 230.008 269.476 229.336 269.476C228.678 269.476 228.062 269.42 227.502 269.308ZM237.356 270.554L237.006 262.448H238.784L238.42 270.554H237.356ZM237.888 273.886C237.3 273.886 236.852 273.438 236.852 272.85C236.852 272.276 237.3 271.828 237.888 271.828C238.476 271.828 238.924 272.276 238.924 272.85C238.924 273.438 238.476 273.886 237.888 273.886Z" fill="#9E9E9E"/>
<defs>
<clipPath id="clip0_745_5314">
<rect width="126" height="126" fill="white" transform="translate(68 0.5)"/>
</clipPath>
<clipPath id="clip1_745_5314">
<rect width="144" height="83" fill="white" transform="translate(59 138.5)"/>
</clipPath>
</defs>
</svg>
