<svg width="79" height="78" viewBox="0 0 79 78" fill="none" xmlns="http://www.w3.org/2000/svg">
<g clip-path="url(#clip0_337_2881)">
<g opacity="0.75" filter="url(#filter0_f_337_2881)">
<ellipse cx="39.6651" cy="68.306" rx="16.3995" ry="0.863132" fill="#DDDDDD"/>
</g>
<path d="M33.2771 60.3241C32.273 61.2196 30.6801 60.7928 30.2582 59.5152L22.5809 36.2676C18.107 22.7205 30.4739 9.62568 44.2545 13.3182C58.0351 17.0107 62.1977 34.5345 51.5497 44.0298L33.2771 60.3241Z" fill="#BDBDBD"/>
<path d="M33.8368 58.1622C32.8408 59.0297 31.2833 58.6123 30.8545 57.3631L23.0025 34.488C18.2867 20.7497 30.8249 7.31697 44.8552 11.0764C58.8854 14.8358 63.0275 32.7379 52.0743 42.2778L33.8368 58.1622Z" fill="#EEEEEE"/>
<circle cx="40.1498" cy="28.6366" r="5.9996" transform="rotate(15 40.1498 28.6366)" fill="white"/>
<mask id="mask0_337_2881" style="mask-type:alpha" maskUnits="userSpaceOnUse" x="21" y="10" width="38" height="51">
<path fill-rule="evenodd" clip-rule="evenodd" d="M22.0883 26.6738C23.1921 16.1972 33.5382 8.0442 44.8551 11.0765C56.174 14.1094 61.0572 26.3471 56.7707 35.9728C55.8599 38.9244 54.1445 41.7156 51.5493 44.0298L33.2767 60.3242C32.2725 61.2196 30.6797 60.7928 30.2578 59.5152L22.5805 36.2677C21.4894 32.9638 21.3999 29.6869 22.0883 26.6738Z" fill="#DDDDDD"/>
</mask>
<g mask="url(#mask0_337_2881)">
<path opacity="0.1" d="M49.3574 9.30811L60.5743 12.3137C63.337 13.0539 64.9765 15.8937 64.2363 18.6564L52.9135 60.9137C52.1732 63.6764 49.3335 65.3159 46.5708 64.5756L35.3539 61.5701L49.3574 9.30811Z" fill="#BDBDBD"/>
</g>
</g>
<defs>
<filter id="filter0_f_337_2881" x="20.6762" y="64.8535" width="37.9779" height="6.90486" filterUnits="userSpaceOnUse" color-interpolation-filters="sRGB">
<feFlood flood-opacity="0" result="BackgroundImageFix"/>
<feBlend mode="normal" in="SourceGraphic" in2="BackgroundImageFix" result="shape"/>
<feGaussianBlur stdDeviation="1.2947" result="effect1_foregroundBlur_337_2881"/>
</filter>
<clipPath id="clip0_337_2881">
<rect width="77.6819" height="77.6819" fill="white" transform="translate(0.824463 0.118652)"/>
</clipPath>
</defs>
</svg>
