<svg width="16" height="16" viewBox="0 0 16 16" fill="none" xmlns="http://www.w3.org/2000/svg">
<path d="M8.00065 14.6673C4.31865 14.6673 1.33398 11.6827 1.33398 8.00065C1.33398 4.31865 4.31865 1.33398 8.00065 1.33398C11.6827 1.33398 14.6673 4.31865 14.6673 8.00065C14.6673 11.6827 11.6827 14.6673 8.00065 14.6673ZM8.00065 13.334C9.41514 13.334 10.7717 12.7721 11.7719 11.7719C12.7721 10.7717 13.334 9.41514 13.334 8.00065C13.334 6.58616 12.7721 5.22961 11.7719 4.22941C10.7717 3.22922 9.41514 2.66732 8.00065 2.66732C6.58616 2.66732 5.22961 3.22922 4.22941 4.22941C3.22922 5.22961 2.66732 6.58616 2.66732 8.00065C2.66732 9.41514 3.22922 10.7717 4.22941 11.7719C5.22961 12.7721 6.58616 13.334 8.00065 13.334Z" fill="black"/>
<path d="M5.33333 7.33398H2V8.66732H5.33333V7.33398Z" fill="black"/>
<path d="M13.9993 7.33398H10.666V8.66732H13.9993V7.33398Z" fill="black"/>
<path d="M8.66602 5.33333L8.66602 2L7.33268 2L7.33268 5.33333L8.66602 5.33333Z" fill="black"/>
<path d="M8.66602 13.9993L8.66602 10.666L7.33268 10.666L7.33268 13.9993L8.66602 13.9993Z" fill="black"/>
</svg>
