<svg width="22" height="22" viewBox="0 0 22 22" fill="none" xmlns="http://www.w3.org/2000/svg">
<g clip-path="url(#clip0_337_2632)">
<path d="M16.5656 14.9798L11.0726 20.4728L5.57966 14.9798C4.49327 13.8934 3.75343 12.5093 3.4537 11.0024C3.15397 9.49552 3.30782 7.9336 3.89577 6.51416C4.48373 5.09471 5.4794 3.88149 6.75687 3.02792C8.03434 2.17434 9.53623 1.71875 11.0726 1.71875C12.609 1.71875 14.1109 2.17434 15.3884 3.02792C16.6659 3.88149 17.6615 5.09471 18.2495 6.51416C18.8375 7.9336 18.9913 9.49552 18.6916 11.0024C18.3918 12.5093 17.652 13.8934 16.5656 14.9798ZM11.0726 11.2131C11.5305 11.2131 11.9695 11.0313 12.2933 10.7075C12.617 10.3838 12.7989 9.9447 12.7989 9.48687C12.7989 9.02904 12.617 8.58995 12.2933 8.26622C11.9695 7.94248 11.5305 7.76061 11.0726 7.76061C10.6148 7.76061 10.1757 7.94248 9.85198 8.26622C9.52824 8.58995 9.34637 9.02904 9.34637 9.48687C9.34637 9.9447 9.52824 10.3838 9.85198 10.7075C10.1757 11.0313 10.6148 11.2131 11.0726 11.2131Z" fill="#D6D6D6"/>
</g>
<defs>
<clipPath id="clip0_337_2632">
<rect width="20.7152" height="20.7152" fill="white" transform="translate(0.715088 0.855957)"/>
</clipPath>
</defs>
</svg>
