<svg width="80" height="80" viewBox="0 0 80 80" fill="none" xmlns="http://www.w3.org/2000/svg">
<g clip-path="url(#clip0_525_1718)">
<path d="M43.5151 5.43778C40.7858 4.28946 37.6946 5.82739 35.3168 7.58064C27.0358 13.6709 21.3187 23.0728 19.7266 33.1719C19.5612 34.2279 19.4371 35.3045 19.6852 36.34C19.985 37.6217 20.8121 38.729 21.7219 39.6927C27.2322 45.4856 35.9268 46.9928 43.9597 46.9415C47.2059 46.921 50.6072 46.6442 53.3779 44.9627C58.9296 41.5793 59.8807 34.1049 60.2426 27.6558C60.5114 22.9497 60.6768 17.8746 58.0198 13.9682C55.5593 10.3489 51.2068 8.56492 47.1129 6.96547C44.1561 5.81714 40.5894 4.73033 38.0254 6.58611" fill="black"/>
<path d="M43.9183 3.95115C38.9766 2.11588 34.0245 6.28881 30.6852 9.4262C27.1495 12.7481 24.1927 16.7263 22.032 21.0632C20.9672 23.2061 20.0677 25.431 19.3854 27.7174C18.7031 30.0038 18.0001 32.5773 18.0001 34.9867C17.9794 39.7953 22.9521 43.3838 26.9014 45.2704C31.2848 47.362 36.1439 48.2027 40.9822 48.418C45.8206 48.6333 51.3309 48.5718 55.3422 45.4549C58.7331 42.8199 60.3149 38.6265 61.0489 34.5458C61.8553 30.0243 62.2792 25.0824 61.783 20.5096C61.4831 17.7311 60.7181 14.9833 59.0123 12.7071C57.3065 10.431 55.1457 8.93406 52.7266 7.71397C50.3074 6.49387 47.7848 5.43782 45.2209 4.67911C42.657 3.92039 39.6382 3.66407 37.2501 5.26352C35.6063 6.36058 37.157 9.02634 38.8112 7.91902C40.5893 6.72969 42.657 7.1193 44.5903 7.70371C46.5236 8.28813 48.5499 9.11861 50.4315 10.0106C54.3704 11.8766 57.4409 14.4911 58.4023 18.8794C59.2811 22.8473 58.8365 27.2355 58.4023 31.2444C58.0301 34.7304 57.2961 38.5547 55.0837 41.3948C52.4061 44.8397 48.0536 45.3729 43.9597 45.4036C39.8657 45.4344 35.689 45.0653 31.7397 43.8657C28.08 42.7481 23.9343 40.6771 21.8046 37.3654C20.5847 35.4583 21.236 33.1002 21.7115 31.0393C22.1871 28.9785 22.7867 27.0612 23.5621 25.1542C25.2989 20.8479 27.8732 16.8391 31.0471 13.4453C32.5875 11.7946 34.2726 10.2362 36.1025 8.9033C38.1081 7.43714 40.5687 5.98123 43.1016 6.91424C44.9728 7.61144 45.7792 4.63809 43.9286 3.95115H43.9183Z" fill="white"/>
<path d="M45.2932 23.3087V15.3217C45.2829 14.8398 45.2726 14.3374 45.0658 13.8966C44.4558 12.6354 42.4502 12.779 41.5197 13.8145C40.5893 14.8501 40.4342 16.3675 40.3308 17.7619C40.1551 19.997 39.9897 22.2322 39.8139 24.4673C36.8468 24.6621 33.8797 24.8467 30.9229 25.0415C30.6231 25.062 30.3026 25.0927 30.0959 25.308C29.8788 25.5336 29.8581 25.8719 29.8581 26.1898C29.8581 27.2253 29.8374 28.2506 29.8374 29.2862C29.8374 29.8911 29.8581 30.578 30.2923 30.9984C30.6438 31.347 31.1814 31.429 31.6776 31.4803C34.407 31.7776 37.157 31.9724 39.907 32.0544C40.3929 32.0647 40.9615 32.1262 41.2199 32.5363C41.3957 32.8132 41.3647 33.172 41.3233 33.4899C41.2096 34.5151 41.0959 35.5507 40.9821 36.576C40.8788 37.5295 40.8064 38.5958 41.4163 39.3238C42.4295 40.5336 44.5695 39.7954 45.2932 38.401C46.0169 37.0066 45.7895 35.3251 45.6344 33.7564C45.5517 32.8952 45.5103 31.9622 46.0169 31.2547C47.4539 29.2451 51.0724 31.388 52.9539 29.7988C54.1118 28.8248 53.6983 26.5999 52.2613 26.1078C51.7444 25.9335 51.1964 25.9642 50.6485 25.9847C48.4464 26.0975 46.2547 26.2205 44.0526 26.3333" fill="#FFE977"/>
</g>
<path d="M1.09212 57.9499C1.78169 58.9376 2.15002 59.7993 2.38987 60.972C2.45412 61.2957 2.86529 61.5101 3.18223 61.4134C3.53343 61.2999 3.70047 60.9846 3.63194 60.6358C3.39209 59.4504 2.90383 58.3072 2.2057 57.311C2.00868 57.042 1.6275 56.8948 1.31912 57.0882C1.04501 57.2605 0.886537 57.6598 1.08784 57.9499H1.09212Z" fill="black"/>
<path d="M0.175476 62.1283C0.650889 62.6326 1.34045 62.6747 1.99147 62.6411C2.26986 62.6242 2.56539 62.5864 2.84379 62.6284C2.75813 62.6158 2.95086 62.6579 2.95086 62.6579C3.04081 62.6873 2.97656 62.6368 3.04081 62.7041C2.99798 62.6621 3.04937 62.7041 3.07079 62.7377C3.0922 62.7756 3.10505 62.8134 3.11362 62.8596C3.17358 63.1791 2.97228 63.5658 2.8652 63.8558C2.69388 64.3224 2.52256 64.7847 2.35124 65.2513C2.0086 66.1802 1.66596 67.1091 1.32332 68.0423C1.2034 68.3617 1.45609 68.7316 1.77304 68.8199C2.12853 68.9166 2.44547 68.7022 2.56539 68.3785C2.93801 67.3697 3.31063 66.3568 3.68326 65.348C3.99592 64.4989 4.55699 63.4943 4.36425 62.5654C4.19293 61.7373 3.41771 61.3717 2.62535 61.3591C2.31269 61.3548 1.99575 61.3927 1.68309 61.3969C1.37043 61.4011 1.23766 61.3969 1.08776 61.2414C0.526682 60.6445 -0.381315 61.5356 0.179759 62.1325H0.175476V62.1283Z" fill="black"/>
<path d="M3.06243 64.2468C3.9019 65.7726 5.27675 67.0294 6.90857 67.7061C7.21695 67.8364 7.61098 67.807 7.78659 67.4791C7.93221 67.2101 7.88509 66.7561 7.5553 66.6174C7.1784 66.4577 6.81434 66.2728 6.46742 66.0542C6.30038 65.9491 6.14191 65.8398 5.98344 65.7221C5.92348 65.6801 6.05197 65.7768 5.95774 65.7011C5.91491 65.6675 5.87208 65.6339 5.82925 65.596C5.75216 65.533 5.67507 65.4657 5.59797 65.3985C5.30244 65.1337 5.02833 64.8437 4.77563 64.5368C4.83131 64.6083 4.78848 64.5536 4.7585 64.5116C4.72852 64.4738 4.70282 64.4359 4.67713 64.4023C4.61288 64.314 4.54864 64.2216 4.48867 64.1291C4.37732 63.961 4.27452 63.7844 4.17601 63.6079C4.01754 63.3179 3.58068 63.2002 3.298 63.3809C2.99819 63.5701 2.8954 63.9315 3.06672 64.2426L3.06243 64.2468Z" fill="black"/>
<path d="M1.54626 70.0848C3.63636 69.841 5.72219 69.6014 7.81229 69.3576C8.15493 69.3156 8.45474 69.097 8.45474 68.7271C8.45474 68.4161 8.15922 68.0546 7.81229 68.0966C5.72219 68.3404 3.63636 68.58 1.54626 68.8238C1.20362 68.8658 0.903809 69.0844 0.903809 69.4543C0.903809 69.7653 1.19934 70.1268 1.54626 70.0848Z" fill="black"/>
<path d="M5.03682 69.1096C4.93403 69.9292 4.83124 70.7531 4.72844 71.5727C4.71131 71.7198 4.8141 71.9174 4.9169 72.0183C5.02825 72.1275 5.21242 72.2116 5.37089 72.2032C5.52937 72.1948 5.70925 72.1444 5.82489 72.0183C5.9491 71.888 5.99193 71.7493 6.01335 71.5727C6.11614 70.7531 6.21893 69.9292 6.32172 69.1096C6.33885 68.9625 6.23606 68.7649 6.13327 68.664C6.02191 68.5548 5.83774 68.4707 5.67927 68.4791C5.5208 68.4875 5.34091 68.5379 5.22527 68.664C5.10107 68.7943 5.05824 68.9331 5.03682 69.1096Z" fill="black"/>
<path d="M1.23754 72.687C1.84145 73.1326 2.62095 73.2082 3.34907 73.1578C3.94012 73.1158 4.65966 72.9728 5.18219 73.0527C5.44345 73.0905 5.67902 73.162 5.85891 73.2587C6.00453 73.3385 6.00881 73.3427 6.10304 73.4394C6.15015 73.4898 6.18441 73.5445 6.20155 73.5991C6.20155 73.5991 6.23581 73.8051 6.22724 73.7C6.22724 73.7042 6.22296 73.9186 6.23581 73.7925C6.22724 73.8513 6.21011 73.9144 6.1887 73.9732C6.19726 73.9438 6.24009 73.885 6.17585 73.99C6.17585 73.9942 6.06021 74.154 6.13302 74.0657C6.09447 74.1161 6.04736 74.1582 6.00024 74.2044C5.95313 74.2506 5.86319 74.3137 5.74326 74.3809C5.33638 74.6121 4.71106 74.755 4.28276 74.8013C3.40046 74.8937 2.51388 74.9694 1.63158 75.0535C1.18615 75.0955 0.762131 75.0829 0.453755 75.4402C0.209623 75.726 0.0811333 76.0749 0.0597183 76.4448C0.0254543 77.0752 0.333831 77.7436 0.830659 78.1471C1.52879 78.7145 2.47105 78.7902 3.33622 78.6809C4.20138 78.5716 5.16934 78.1765 6.08162 78.3278C6.42426 78.3825 6.77547 78.2396 6.87398 77.8865C6.95964 77.5838 6.77119 77.1677 6.42426 77.1089C5.6833 76.987 4.97661 77.0752 4.2485 77.2308C3.66172 77.3527 3.07924 77.504 2.47533 77.462C2.24833 77.4451 2.01705 77.3947 1.81575 77.2854C1.64871 77.1971 1.55877 77.1047 1.46454 76.9449C1.37032 76.7852 1.34034 76.6633 1.3489 76.4784C1.3489 76.4994 1.3746 76.3355 1.36175 76.3733C1.41315 76.2514 1.41315 76.2682 1.51594 76.1842L1.06194 76.3691C2.26547 76.2556 3.48184 76.1842 4.6768 76.016C5.482 75.9025 6.34288 75.6419 6.9425 75.0745C7.57211 74.4818 7.72201 73.494 7.20377 72.7795C6.68552 72.0649 5.71328 71.7875 4.83955 71.7749C3.88444 71.7623 2.7366 72.2289 1.89713 71.6026C1.61873 71.3966 1.17758 71.5605 1.01911 71.8295C0.826376 72.1532 0.971998 72.4853 1.25039 72.6912L1.23754 72.687Z" fill="black"/>
<path d="M9.68378 60.4759C9.68378 62.0774 9.68378 63.6788 9.68378 65.2761C9.68378 66.0915 9.65809 66.9111 9.68378 67.7266C9.7052 68.4033 9.95361 69.0296 10.6389 69.2902C11.2556 69.5256 11.9495 69.3869 12.5877 69.3238C13.2644 69.2608 14.0096 69.265 14.6606 69.0632C16.1939 68.5841 16.1297 67.0667 15.9884 65.7721C15.7999 64.0319 15.4316 62.3254 14.8791 60.6609C14.6221 59.8917 13.38 60.2237 13.6413 60.9971C14.1595 62.5481 14.5321 64.1496 14.7077 65.7721C14.7634 66.268 15.0118 67.2642 14.6135 67.6845C14.4508 67.8569 14.1681 67.9031 13.9411 67.9367C13.5471 67.9956 13.1445 68.0124 12.7504 68.0502C12.3564 68.0881 11.9709 68.1385 11.5769 68.1553C11.4141 68.1637 11.1272 68.2016 11.0158 68.046C10.9387 67.9409 10.973 67.714 10.973 67.5921C10.973 67.3693 10.973 67.1507 10.973 66.928V65.6039C10.973 63.8932 10.973 62.1824 10.973 60.4717C10.973 59.6605 9.68807 59.6605 9.68807 60.4717L9.68378 60.4759Z" fill="black"/>
<path d="M11.2686 66.6506H14.408C14.7421 66.6506 15.0676 66.3606 15.0505 66.0201C15.0333 65.6797 14.7678 65.3896 14.408 65.3896H11.2686C10.9345 65.3896 10.609 65.6797 10.6261 66.0201C10.6433 66.3606 10.9088 66.6506 11.2686 66.6506Z" fill="black"/>
<path d="M17.1279 60.7785C16.8367 63.9562 16.7724 67.1465 16.9352 70.3368C16.978 71.1438 18.2629 71.148 18.2201 70.3368C18.0573 67.1507 18.1216 63.9562 18.4128 60.7785C18.4856 59.9715 17.2007 59.9757 17.1279 60.7785Z" fill="black"/>
<path d="M17.2349 67.5754H20.3743C20.7084 67.5754 21.0339 67.2854 21.0168 66.9449C20.9997 66.6045 20.7341 66.3145 20.3743 66.3145H17.2349C16.9008 66.3145 16.5753 66.6045 16.5924 66.9449C16.6096 67.2854 16.8751 67.5754 17.2349 67.5754Z" fill="black"/>
<path d="M12.4807 72.6782C13.0032 72.4806 13.56 72.2873 14.121 72.2453C14.5793 72.2116 15.0547 72.2453 15.346 72.5899C15.6544 72.9556 15.5858 73.4978 15.3417 73.8803C15.0419 74.3469 14.4637 74.5823 13.924 74.6579C13.2216 74.7546 12.4978 74.5276 11.8382 74.8849C11.3114 75.1707 11.0373 75.7088 10.9859 76.2804C10.8702 77.5666 11.9067 78.5502 13.1274 78.7688C13.9626 78.9201 14.7935 78.8276 15.6329 78.7519C16.5881 78.6679 17.5474 78.5796 18.5026 78.4955C18.8495 78.4661 19.145 78.2265 19.145 77.8651C19.145 77.5498 18.8495 77.2051 18.5026 77.2346C17.6288 77.3144 16.7551 77.3901 15.8814 77.4699C15.1575 77.533 14.4251 77.6339 13.697 77.5792C13.4186 77.5582 13.1231 77.4994 12.8747 77.3733C12.6434 77.2598 12.532 77.1673 12.4207 76.9782C12.3393 76.8437 12.2708 76.6083 12.2665 76.4864C12.2665 76.4275 12.2665 76.3729 12.2665 76.314C12.2793 76.1963 12.228 76.4401 12.2793 76.251C12.2922 76.209 12.3008 76.1669 12.3179 76.1249C12.2665 76.2426 12.4335 75.9778 12.3522 76.0745C12.4207 75.9946 12.4207 75.9988 12.4892 75.9694C12.6091 75.9231 12.7376 75.9189 12.8618 75.9189C13.243 75.9189 13.6156 75.9526 13.9926 75.9105C14.7035 75.8265 15.376 75.5827 15.9242 75.1203C16.9564 74.246 17.2005 72.4975 16.1041 71.5643C15.0076 70.6312 13.3715 70.9927 12.1337 71.4677C11.8125 71.5895 11.5855 71.8922 11.684 72.2453C11.7697 72.5479 12.1509 72.8085 12.4764 72.6866L12.4807 72.6782Z" fill="black"/>
<path d="M21.942 63.5784C23.2697 63.5742 24.6146 63.4986 25.938 63.5658C26.0665 63.5742 26.3064 63.5658 26.3792 63.6919C26.4734 63.8516 26.3621 64.1291 26.3064 64.2846C26.1351 64.7848 25.8481 65.2639 25.5911 65.7263C24.4861 67.6934 23.0128 69.4294 21.2653 70.8753C20.6314 71.4007 21.5437 72.2876 22.1733 71.7664C24.2505 70.0431 25.9723 67.891 27.1587 65.4909C27.4285 64.9487 27.7155 64.3644 27.6812 63.7466C27.647 63.1287 27.2187 62.5822 26.5891 62.3973C25.9595 62.2124 25.1628 62.3048 24.4947 62.309C23.6424 62.309 22.79 62.3174 21.9377 62.3174C21.0854 62.3174 21.1111 63.5826 21.9377 63.5784H21.942Z" fill="black"/>
<path d="M24.0107 68.9245C24.8287 69.6643 25.6511 70.3999 26.4691 71.1397C26.7175 71.3624 27.1373 71.3961 27.3771 71.1397C27.6041 70.8959 27.6427 70.4881 27.3771 70.2486C26.5591 69.5088 25.7367 68.7732 24.9187 68.0334C24.6703 67.8107 24.2505 67.777 24.0107 68.0334C23.7837 68.2772 23.7451 68.6849 24.0107 68.9245Z" fill="black"/>
<path d="M29.857 62.0226C29.373 67.5458 29.7242 73.1193 30.8849 78.5458C31.0562 79.3402 32.294 79.0039 32.1227 78.2095C30.9877 72.8923 30.6665 67.4365 31.1419 62.0226C31.2147 61.2156 29.9255 61.2198 29.857 62.0226Z" fill="black"/>
<path d="M38.4358 60.7619C39.1682 60.6526 39.9006 60.5434 40.6287 60.4341C40.7786 60.4131 40.9413 60.2659 41.0142 60.144C41.0955 60.0095 41.1298 59.8078 41.0784 59.6565C41.027 59.5051 40.9328 59.358 40.7829 59.2782C40.6201 59.1941 40.4702 59.1857 40.286 59.2151C39.5537 59.3244 38.8213 59.4337 38.0931 59.543C37.9432 59.564 37.7805 59.7111 37.7077 59.833C37.6263 59.9675 37.592 60.1693 37.6434 60.3206C37.6948 60.4719 37.7891 60.619 37.939 60.6989C38.1017 60.7829 38.2516 60.7914 38.4358 60.7619Z" fill="black"/>
<path d="M38.4698 63.0444C39.2793 62.767 40.1059 62.5526 40.9497 62.4139C41.1595 62.3803 41.3737 62.3509 41.5878 62.3299C41.7292 62.313 41.909 62.3383 42.0461 62.3088C42.029 62.3088 42.1189 62.3173 42.1146 62.3257C42.0718 62.3046 42.0504 62.271 42.0504 62.2332C42.0418 62.1743 42.0418 62.1996 42.0461 62.3046C42.0076 62.4728 41.9519 62.6367 41.9005 62.8006C41.3822 64.4399 40.7355 66.0414 39.9774 67.5882C39.8275 67.895 39.8918 68.2691 40.2087 68.4498C40.4914 68.6096 40.9368 68.5297 41.0867 68.2229C41.5578 67.2603 41.9904 66.2809 42.3802 65.2848C42.5643 64.814 42.74 64.3348 42.9027 63.8557C43.0655 63.3765 43.2882 62.8637 43.3267 62.3509C43.3696 61.8087 43.0655 61.3253 42.5429 61.1403C42.1232 60.9932 41.6778 61.0605 41.2452 61.1151C40.183 61.2496 39.1422 61.485 38.1314 61.8339C37.8059 61.9474 37.5875 62.2668 37.6817 62.6115C37.7674 62.9225 38.1443 63.1663 38.4741 63.0528L38.4698 63.0444Z" fill="black"/>
<path d="M42.0207 65.0283C42.7531 65.4402 43.4854 65.848 44.2178 66.2599C44.5091 66.4238 44.9331 66.3355 45.0959 66.0329C45.2586 65.7303 45.1772 65.3436 44.8646 65.1712C44.1322 64.7593 43.3998 64.3516 42.6674 63.9397C42.3762 63.7757 41.9521 63.864 41.7894 64.1666C41.6266 64.4693 41.708 64.856 42.0207 65.0283Z" fill="black"/>
<path d="M38.2645 70.6857C40.6373 70.6437 42.9972 70.3957 45.3272 69.9543C45.6698 69.8913 45.8625 69.4878 45.7769 69.1767C45.6784 68.8279 45.3272 68.6723 44.9845 68.7354C42.7659 69.1557 40.5216 69.3827 38.2645 69.4205C37.4379 69.4373 37.4379 70.6983 38.2645 70.6815V70.6857Z" fill="black"/>
<path d="M41.7293 69.4123C41.5065 72.052 41.7036 74.7084 42.2946 77.2935C42.4745 78.0837 43.7123 77.7516 43.5324 76.9572C42.967 74.4815 42.8 71.9427 43.0142 69.4123C43.0827 68.6053 41.7978 68.6095 41.7293 69.4123Z" fill="black"/>
<path d="M47.0531 64.4736C47.884 64.4904 48.7106 64.5114 49.5415 64.5282C49.7042 64.5282 50.3039 64.4609 50.4366 64.6123C50.5095 64.6921 50.3681 65.0326 50.3424 65.1209C49.8713 66.7013 49.3959 68.2775 48.9205 69.858C48.6849 70.6398 49.927 70.9718 50.1582 70.1942C50.4409 69.2569 50.7193 68.3238 51.002 67.3864C51.1348 66.9367 51.2718 66.4911 51.4046 66.0414C51.5374 65.5916 51.713 65.1629 51.7258 64.7047C51.7558 63.717 50.8692 63.3134 49.9998 63.2756C49.019 63.2336 48.0339 63.2336 47.0531 63.2126C46.2265 63.1958 46.2265 64.4567 47.0531 64.4736Z" fill="black"/>
<path d="M53.2592 60.7875C53.4904 65.7138 53.7174 70.6442 53.9487 75.5705C53.9873 76.3775 55.2722 76.3817 55.2336 75.5705C55.0023 70.6442 54.7753 65.7138 54.5441 60.7875C54.5055 59.9805 53.2206 59.9763 53.2592 60.7875Z" fill="black"/>
<path d="M54.5952 68.551C55.6403 68.4459 56.6854 68.3366 57.7347 68.2315C58.0688 68.1979 58.3943 67.9667 58.3771 67.601C58.3643 67.29 58.0945 66.9327 57.7347 66.9705C56.6896 67.0756 55.6446 67.1849 54.5952 67.29C54.2612 67.3236 53.9357 67.5548 53.9528 67.9205C53.9656 68.2315 54.2355 68.5888 54.5952 68.551Z" fill="black"/>
<path d="M59.2984 63.8811H62.1252C62.4592 63.8811 62.7847 63.5911 62.7676 63.2506C62.7505 62.9101 62.4849 62.6201 62.1252 62.6201H59.2984C58.9643 62.6201 58.6388 62.9101 58.6559 63.2506C58.6731 63.5911 58.9386 63.8811 59.2984 63.8811Z" fill="black"/>
<path d="M59.7908 66.3652L63.2386 65.7221C63.5684 65.659 63.7868 65.2513 63.6883 64.9445C63.5727 64.5998 63.2514 64.4359 62.8959 64.5031L59.4481 65.1462C59.1183 65.2093 58.8999 65.617 58.9984 65.9238C59.1141 66.2685 59.4353 66.4324 59.7908 66.3652Z" fill="black"/>
<path d="M61.0412 68.6223C59.2938 69.0384 58.9725 71.636 60.5144 72.4977C61.2639 72.9138 62.249 72.8339 62.9643 72.3842C63.3198 72.1614 63.641 71.8462 63.8166 71.4679C64.035 71.0055 64.0822 70.5263 63.9922 70.0304C63.8166 69.0468 62.9643 68.1683 61.9663 67.9623C61.6366 67.8951 61.2554 68.0548 61.174 68.4037C61.1012 68.7189 61.2725 69.1056 61.6237 69.1813C61.7094 69.1981 61.7907 69.2233 61.8764 69.2485C61.992 69.2822 61.8464 69.2317 61.8421 69.2317C61.8678 69.2317 61.9364 69.2738 61.9578 69.2864C62.022 69.32 62.082 69.3536 62.1419 69.3957L62.1762 69.4209C62.2319 69.4629 62.2233 69.4545 62.1505 69.3999C62.1891 69.4083 62.2533 69.4839 62.2833 69.5133C62.3347 69.5638 62.3861 69.6142 62.4332 69.6689C62.446 69.6815 62.5146 69.7908 62.4632 69.7067C62.4118 69.6226 62.4803 69.7361 62.4889 69.7487C62.5317 69.8118 62.5745 69.879 62.6088 69.9505C62.6259 69.9799 62.6388 70.0135 62.6559 70.0472C62.6859 70.1102 62.6816 70.0976 62.6431 70.0135C62.6516 70.0388 62.6645 70.0682 62.673 70.0934C62.6945 70.1607 62.7159 70.2279 62.733 70.2952C62.733 70.3036 62.7501 70.4171 62.7587 70.4171C62.733 70.4086 62.7459 70.2783 62.7501 70.375C62.7501 70.4591 62.7587 70.5432 62.7501 70.6272C62.7501 70.623 62.7416 70.7113 62.7416 70.7113C62.7544 70.6146 62.7587 70.5978 62.7416 70.6693C62.7373 70.6987 62.7287 70.7239 62.7244 70.7533C62.7116 70.808 62.6602 70.892 62.6602 70.9467C62.6602 70.8374 62.703 70.8542 62.6602 70.9341C62.6431 70.9677 62.6216 71.0013 62.6002 71.0307C62.5874 71.0518 62.5702 71.0728 62.5574 71.0938C62.4846 71.2073 62.6559 70.9887 62.5617 71.0854C62.506 71.14 62.4546 71.1947 62.3989 71.2493L62.3689 71.2745C62.3176 71.3166 62.3304 71.3082 62.4075 71.2451C62.3989 71.2451 62.3561 71.2787 62.3433 71.2871C62.279 71.3292 62.2105 71.367 62.1419 71.4048C62.1205 71.4174 62.0948 71.4258 62.0734 71.4385C61.9492 71.5015 62.2148 71.3922 62.082 71.4343C62.0092 71.4595 61.9321 71.4847 61.855 71.5015C61.8164 71.5099 61.7779 71.5183 61.7393 71.5225C61.6023 71.5519 61.8978 71.5141 61.7565 71.5225C61.6922 71.5225 61.628 71.5309 61.5637 71.5309C61.5252 71.5309 61.4867 71.5267 61.4481 71.5267C61.3839 71.5267 61.3967 71.4889 61.5038 71.5351C61.431 71.5057 61.341 71.5015 61.2639 71.4805C61.2382 71.4721 61.204 71.4511 61.174 71.4469C61.3025 71.4595 61.2639 71.4847 61.1911 71.4469C61.1611 71.43 61.0584 71.346 61.0284 71.346C61.0969 71.346 61.1269 71.4258 61.0412 71.346C61.0241 71.3292 61.007 71.3124 60.9898 71.2955C60.9684 71.2703 60.9427 71.2367 60.917 71.2157C60.9813 71.2955 60.9941 71.3124 60.9556 71.2577C60.9427 71.2367 60.9299 71.2199 60.917 71.1989C60.887 71.1484 60.8656 71.0938 60.8356 71.0433C60.9384 71.2073 60.8485 71.0602 60.8314 70.9971C60.8228 70.9635 60.8142 70.9299 60.8057 70.8962C60.7928 70.8248 60.8185 70.7701 60.8057 70.9257C60.8099 70.8584 60.7928 70.7827 60.7971 70.7113C60.7971 70.6819 60.7971 70.6524 60.7971 70.623C60.8014 70.5516 60.8485 70.4717 60.7928 70.6314C60.8142 70.5642 60.8185 70.4885 60.8399 70.4213C60.8485 70.3876 60.8613 70.354 60.8742 70.3204C60.8827 70.2994 60.8913 70.2741 60.8999 70.2531C60.8613 70.3456 60.8485 70.3666 60.8699 70.3246C60.9084 70.2615 60.9384 70.1901 60.9813 70.127C60.9898 70.1102 61.0155 70.085 61.0198 70.0682C60.9556 70.148 60.9427 70.1649 60.9855 70.1144C61.0027 70.0976 61.0155 70.0808 61.0327 70.064C61.0541 70.043 61.0712 70.0219 61.0926 70.0009C61.144 69.9547 61.2297 69.9253 61.084 70.0009C61.144 69.9715 61.204 69.9253 61.2639 69.8916C61.3753 69.8286 61.1183 69.9379 61.2425 69.9001C61.2896 69.8874 61.3325 69.8706 61.3839 69.858C61.7094 69.7782 61.9364 69.3999 61.8336 69.0804C61.7222 68.7484 61.3924 68.555 61.0412 68.6391V68.6223Z" fill="black"/>
<path d="M65.0804 60.7787C65.2603 64.6794 65.1104 68.5842 64.6436 72.4597C64.5451 73.2625 65.83 73.2583 65.9285 72.4597C66.3996 68.5842 66.5452 64.6794 66.3653 60.7787C66.3268 59.9717 65.0419 59.9675 65.0804 60.7787Z" fill="black"/>
<path d="M66.2022 67.2688H69.6543C69.9884 67.2688 70.3139 66.9788 70.2967 66.6383C70.2796 66.2978 70.0141 66.0078 69.6543 66.0078H66.2022C65.8681 66.0078 65.5426 66.2978 65.5597 66.6383C65.5769 66.9788 65.8424 67.2688 66.2022 67.2688Z" fill="black"/>
<path d="M69.9714 64.1958L72.584 64.1747C72.6954 64.1747 72.9738 64.1285 73.0852 64.1873C73.1451 64.221 73.0723 64.1453 73.0937 64.1747C73.1194 64.2084 73.1066 64.263 73.1066 64.3008C73.1066 64.6581 72.9738 65.028 72.8967 65.3727C72.5198 67.0666 72.1429 68.7605 71.766 70.4544C71.5904 71.2447 72.8282 71.5851 73.0038 70.7907C73.2265 69.7945 73.4449 68.8026 73.6676 67.8064C73.8904 66.8102 74.1516 65.8182 74.3272 64.8136C74.4 64.3975 74.4343 63.952 74.2159 63.5653C73.976 63.1449 73.5434 62.9558 73.068 62.918C72.0487 62.8381 70.9908 62.9264 69.9671 62.9348C69.1405 62.9432 69.1405 64.2042 69.9671 64.1958H69.9714Z" fill="black"/>
<path d="M77.5523 61.4053C77.608 65.6128 77.6594 69.8203 77.715 74.0278C77.7236 74.839 79.0085 74.839 78.9999 74.0278C78.9443 69.8203 78.8929 65.6128 78.8372 61.4053C78.8286 60.5941 77.5437 60.5941 77.5523 61.4053Z" fill="black"/>
<defs>
<clipPath id="clip0_525_1718">
<rect width="44" height="45" fill="white" transform="translate(18 3.5)"/>
</clipPath>
</defs>
</svg>
