<svg width="188" height="200" viewBox="0 0 188 200" fill="none" xmlns="http://www.w3.org/2000/svg">
<mask id="path-1-inside-1_758_1970" fill="white">
<path d="M147.95 21.2928C114.34 20.0777 80.7057 19.6201 47.0716 19.9278C46.1012 19.9357 45.0281 19.9831 44.326 20.6458C43.7895 21.1507 43.5843 21.9003 43.395 22.6182C36.8859 48.0548 32.8858 74.1383 31.4656 100.364C31.3946 101.65 31.3473 103.015 31.9785 104.143C33.1225 106.202 35.8839 106.549 38.2429 106.652C76.0507 108.325 113.898 109.177 151.745 109.2C153.244 109.2 154.98 109.09 155.872 107.891C156.479 107.078 156.518 105.989 156.526 104.979C156.858 78.6355 156.116 52.2758 154.301 25.995C154.104 23.1468 153.126 19.486 150.27 19.3203"/>
</mask>
<path d="M147.95 21.2928C114.34 20.0777 80.7057 19.6201 47.0716 19.9278C46.1012 19.9357 45.0281 19.9831 44.326 20.6458C43.7895 21.1507 43.5843 21.9003 43.395 22.6182C36.8859 48.0548 32.8858 74.1383 31.4656 100.364C31.3946 101.65 31.3473 103.015 31.9785 104.143C33.1225 106.202 35.8839 106.549 38.2429 106.652C76.0507 108.325 113.898 109.177 151.745 109.2C153.244 109.2 154.98 109.09 155.872 107.891C156.479 107.078 156.518 105.989 156.526 104.979C156.858 78.6355 156.116 52.2758 154.301 25.995C154.104 23.1468 153.126 19.486 150.27 19.3203" fill="white"/>
<path d="M47.0716 19.9278L47.0814 21.137L47.0827 21.137L47.0716 19.9278ZM44.326 20.6458L45.1547 21.5264L45.156 21.5252L44.326 20.6458ZM43.395 22.6182L42.2256 22.3098L42.2234 22.3184L43.395 22.6182ZM31.4656 100.364L32.6731 100.431L32.6731 100.429L31.4656 100.364ZM31.9785 104.143L33.0356 103.556L33.0338 103.553L31.9785 104.143ZM38.2429 106.652L38.2964 105.444L38.2955 105.444L38.2429 106.652ZM151.745 109.2L151.744 110.41H151.745V109.2ZM155.872 107.891L154.903 107.167L154.901 107.169L155.872 107.891ZM156.526 104.979L155.317 104.964L155.317 104.97L156.526 104.979ZM154.301 25.995L155.508 25.9117L155.508 25.9115L154.301 25.995ZM147.994 20.0843C114.365 18.8686 80.713 18.4107 47.0605 18.7186L47.0827 21.137C80.6984 20.8295 114.314 21.2869 147.906 22.5012L147.994 20.0843ZM47.0618 18.7186C46.576 18.7225 45.9621 18.735 45.3606 18.8556C44.7494 18.978 44.0671 19.2273 43.4959 19.7664L45.156 21.5252C45.287 21.4015 45.4923 21.2958 45.8358 21.2269C46.189 21.1561 46.5968 21.141 47.0814 21.137L47.0618 18.7186ZM43.4972 19.7652C42.6663 20.5472 42.3976 21.658 42.2257 22.3098L44.5642 22.9266C44.771 22.1425 44.9126 21.7543 45.1547 21.5264L43.4972 19.7652ZM42.2234 22.3184C35.6947 47.8319 31.6826 73.9939 30.2581 100.298L32.6731 100.429C34.089 74.2827 38.0771 48.2777 44.5665 22.918L42.2234 22.3184ZM30.2582 100.297C30.1902 101.529 30.0944 103.252 30.9231 104.733L33.0338 103.553C32.6002 102.778 32.599 101.771 32.6731 100.431L30.2582 100.297ZM30.9214 104.73C31.696 106.125 32.9902 106.873 34.2902 107.284C35.5782 107.692 36.9917 107.808 38.1904 107.86L38.2955 105.444C37.1351 105.393 35.9884 105.285 35.0199 104.978C34.0635 104.676 33.4049 104.221 33.0356 103.556L30.9214 104.73ZM38.1895 107.86C76.0147 109.533 113.88 110.386 151.744 110.41L151.746 107.991C113.916 107.967 76.0867 107.116 38.2964 105.444L38.1895 107.86ZM151.745 110.41C152.506 110.41 153.438 110.384 154.321 110.171C155.214 109.954 156.169 109.518 156.842 108.612L154.901 107.169C154.683 107.463 154.324 107.681 153.751 107.82C153.168 107.961 152.483 107.991 151.745 107.991V110.41ZM156.84 108.615C157.721 107.437 157.728 105.937 157.736 104.989L155.317 104.97C155.309 106.041 155.237 106.719 154.903 107.167L156.84 108.615ZM157.736 104.995C158.067 78.6179 157.325 52.2253 155.508 25.9117L153.095 26.0783C154.907 52.3263 155.648 78.6531 155.317 104.964L157.736 104.995ZM155.508 25.9115C155.404 24.4132 155.092 22.6127 154.371 21.1243C153.645 19.6258 152.38 18.2314 150.34 18.1131L150.2 20.5275C151.016 20.5749 151.668 21.0937 152.195 22.1792C152.726 23.2747 153.002 24.7287 153.095 26.0786L155.508 25.9115Z" fill="black" mask="url(#path-1-inside-1_758_1970)"/>
<path d="M44.654 20.1333C44.6545 20.133 44.6549 20.1328 44.6553 20.1325L44.8676 20.5147M44.654 20.1333C44.6536 20.1335 44.6533 20.1337 44.6529 20.1339L44.8669 20.5151M44.654 20.1333C43.78 20.6195 43.4762 21.5122 43.2862 22.1852L43.286 22.1858C43.2079 22.4634 43.1322 22.7422 43.0583 23.0216L42.8976 22.9807M44.654 20.1333L42.1287 26.7983C42.2018 26.4967 42.2745 26.1933 42.3474 25.8889C42.5755 24.9375 42.806 23.9757 43.0582 23.0219L42.8976 22.9807M44.8676 20.5147C44.8674 20.5148 44.8672 20.5149 44.8669 20.5151M44.8676 20.5147L44.949 20.6611M44.8676 20.5147C44.9032 20.4951 44.9399 20.4764 44.9778 20.4586C45.4806 20.2217 46.0834 20.13 46.7608 20.1055C46.7994 20.1041 46.8382 20.103 46.877 20.102C46.8772 20.102 46.8774 20.102 46.8777 20.102C47.1761 20.0945 47.4796 20.0988 47.788 20.1055C47.8536 20.107 47.9197 20.1085 47.986 20.1101C48.2668 20.1166 48.5527 20.1233 48.8265 20.1217L48.8283 20.1217L48.8741 20.1213C50.6104 20.1056 52.3376 20.0901 54.0722 20.0822L54.0736 20.0822C55.0661 20.0755 56.0586 20.0694 57.0511 20.0642C59.5526 20.0509 62.0539 20.0428 64.555 20.0428L64.5557 20.0428C75.5415 20.0303 86.5272 20.0967 97.5129 20.2458C100.425 20.2854 103.337 20.3307 106.25 20.382C116.865 20.5687 127.476 20.8291 138.085 21.1666L44.949 20.6611M44.8669 20.5151L44.949 20.6611M44.8669 20.5151C44.2372 20.8619 43.9471 21.4843 43.7055 22.3036C43.7055 22.3037 43.7055 22.3037 43.7055 22.3038C43.6297 22.5608 43.5586 22.8372 43.4834 23.1306C43.1641 24.3837 42.8495 25.641 42.5431 26.8991L42.7161 26.9413M44.949 20.6611L32.6409 105.515C34.3353 106.895 36.71 106.986 38.8374 107.067C39.0576 107.075 39.2753 107.084 39.4892 107.093M42.7161 26.9413L42.543 26.8994C42.4488 27.2863 42.3553 27.6733 42.2627 28.0603L42.2626 28.0609C41.4904 31.2759 40.7499 34.5058 40.0567 37.7352L40.0567 37.7353C39.4513 40.5524 38.8761 43.3764 38.3312 46.2066C36.3376 56.5617 34.7504 66.9986 33.5811 77.4791L33.581 77.4795C33.2871 80.0977 33.0193 82.7182 32.7777 85.3411L32.9486 85.3571M42.7161 26.9413C41.154 33.3399 39.7496 39.7701 38.503 46.2397C36.0098 59.1789 34.1557 72.2364 32.9486 85.3571M42.7161 26.9413L32.9486 85.3571M32.9486 85.3571L32.7777 85.3413C32.4811 88.5608 32.224 91.7838 32.0064 95.0104C32.0064 95.0106 32.0064 95.0108 32.0064 95.011C31.9452 95.9181 31.8871 96.8255 31.8322 97.7332L31.8321 97.734C31.8075 98.1314 31.7719 98.5331 31.7361 98.9368C31.7022 99.3201 31.668 99.7051 31.643 100.09L31.8677 100.103M31.8677 100.103L31.643 100.09C31.6051 100.673 31.5881 101.256 31.624 101.832C31.6831 102.778 31.8847 103.619 32.3425 104.303L32.4831 104.206M31.8677 100.103C31.8642 100.165 31.8605 100.226 31.8568 100.289C31.7787 101.607 31.6921 103.068 32.4831 104.206M31.8677 100.103L130.521 108.695M32.4831 104.206L32.3426 104.303C32.5256 104.577 32.7494 104.825 33.0214 105.045L33.0227 105.047C33.8431 105.715 34.8683 106.057 36.0069 106.24C36.9366 106.389 37.8943 106.426 38.8455 106.462C39.0101 106.468 39.1746 106.475 39.3386 106.482L39.3472 106.289M32.4831 104.206C33.7969 106.101 36.5544 106.193 38.7226 106.266C38.9373 106.273 39.1461 106.28 39.3472 106.289M39.3472 106.289L39.339 106.482C39.398 106.484 39.4568 106.487 39.5157 106.489C39.5159 106.489 39.5162 106.489 39.5164 106.489L39.4979 106.9M39.3472 106.289C42.7161 106.438 46.0772 106.58 49.4461 106.715C62.914 107.251 76.295 107.685 89.8496 108.016C103.404 108.348 116.967 108.577 130.521 108.695M39.4979 106.9C39.4978 106.9 39.4977 106.9 39.4977 106.9M39.4979 106.9L39.4892 107.093M39.4979 106.9C42.8083 107.048 46.1113 107.187 49.4221 107.319C60.005 107.74 70.5345 108.099 81.1367 108.394C84.0298 108.474 86.9284 108.55 89.8349 108.621C100.821 108.889 111.812 109.091 122.799 109.22C125.372 109.251 127.944 109.277 130.516 109.3M39.4977 106.9L39.4892 107.093M39.4977 106.9C39.4386 106.898 39.3795 106.895 39.3203 106.893M39.4977 106.9L39.3203 106.893M39.4892 107.093C53.3673 107.701 67.2454 108.198 81.1314 108.584C95.0174 108.971 108.903 109.247 122.797 109.405C129.788 109.484 136.77 109.539 143.76 109.571M143.76 109.571V109.389M143.76 109.571L143.761 109.389M143.76 109.571L148.999 109.401M130.516 109.3C134.93 109.341 139.345 109.372 143.76 109.389M130.516 109.3C130.516 109.3 130.516 109.3 130.516 109.3L130.52 108.878M130.516 109.3L130.52 108.878M143.76 109.389C143.761 109.389 143.761 109.389 143.761 109.389M143.76 109.389V108.966C143.761 108.966 143.762 108.966 143.763 108.966M143.761 109.389L143.763 108.966M143.761 109.389C145.507 109.395 147.253 109.4 148.999 109.401M143.763 108.966C145.507 108.966 147.259 108.974 149.002 108.982C149.414 108.982 149.819 108.99 150.219 108.998C150.392 109.001 150.564 109.004 150.735 109.007C151.631 109.021 152.502 109.017 153.368 108.9C153.858 108.833 154.313 108.718 154.709 108.536L154.633 108.371M143.763 108.966C139.347 108.946 134.934 108.917 130.52 108.878M148.999 109.401V109.586M148.999 109.401V109.586M148.999 109.586L149 109.401C149.578 109.402 150.157 109.402 150.735 109.402C150.915 109.402 151.106 109.405 151.304 109.408C151.768 109.415 152.271 109.422 152.753 109.395C152.975 109.383 153.2 109.363 153.426 109.332L153.449 109.5C152.368 109.645 151.261 109.623 150.166 109.602C149.775 109.594 149.385 109.586 148.999 109.586ZM156.736 104.607C156.736 104.645 156.735 104.683 156.735 104.722C156.728 105.39 156.72 106.194 156.521 106.921C156.43 107.256 156.295 107.584 156.1 107.883C156.1 107.883 156.1 107.884 156.099 107.884C155.828 108.301 155.439 108.664 154.887 108.92C154.414 109.14 153.918 109.263 153.426 109.332L156.936 103.977L156.743 103.975M156.736 104.607C156.736 104.607 156.736 104.607 156.736 104.607L156.331 104.602C156.331 104.602 156.331 104.602 156.331 104.602L156.736 104.607ZM156.736 104.607C156.739 104.396 156.741 104.185 156.743 103.975M156.743 103.975L156.332 103.97C156.332 103.97 156.332 103.97 156.332 103.97L156.743 103.975ZM154.633 108.371L154.709 108.536L156.132 104.6L156.131 104.694C156.116 106.099 156.099 107.692 154.633 108.371ZM154.633 108.371C153.633 108.838 152.452 108.82 151.34 108.804C151.135 108.801 150.933 108.798 150.735 108.798C143.997 108.798 137.259 108.758 130.521 108.695M130.521 108.695L130.52 108.878M130.521 108.695L130.52 108.878M130.521 108.695L130.52 108.878M130.52 108.878C130.52 108.878 130.52 108.878 130.52 108.878M39.3203 106.893C39.1302 106.885 38.9293 106.878 38.7202 106.871C37.7429 106.839 36.5854 106.8 35.502 106.586C34.5254 106.393 33.54 106.045 32.7484 105.383C32.7483 105.383 32.7482 105.383 32.7481 105.383C32.4668 105.148 32.2099 104.873 31.9867 104.551C31.4913 103.838 31.2982 103.039 31.2327 102.271C31.174 101.582 31.216 100.878 31.253 100.257C31.2568 100.193 31.2605 100.13 31.2641 100.069C31.3081 99.2804 31.3538 98.4938 31.4012 97.7073C31.4012 97.7072 31.4012 97.7071 31.4012 97.7071C31.4559 96.7996 31.5128 95.8923 31.5721 94.9827L31.5722 94.9807C31.7934 91.7501 32.0462 88.5263 32.3465 85.3017L39.3203 106.893ZM42.8976 22.9807C42.4795 24.6217 42.0692 26.2707 41.6747 27.9197L54.0695 19.4776C52.3335 19.4854 50.6052 19.501 48.8693 19.5166L48.8228 19.5171C48.5588 19.5187 48.2843 19.5122 48.0041 19.5057C46.8943 19.4797 45.6966 19.4517 44.7201 19.9116C43.5396 20.4676 43.2266 21.6927 42.9296 22.8558C42.9189 22.8975 42.9083 22.9392 42.8976 22.9807Z" fill="black" stroke="black" stroke-width="1.20926"/>
<path d="M150.269 17L147.95 18.9803C114.347 17.7653 80.7054 17.3077 47.0792 17.6154C46.1087 17.6233 45.0357 17.6706 44.3335 18.3334C43.797 18.8383 43.5919 19.5878 43.4025 20.3058C42.4242 24.1323 41.509 27.9825 40.6411 31.8406H154.822C154.656 29.1187 154.49 26.4046 154.301 23.6826C154.104 20.8344 153.126 17.1736 150.269 17.0079V17Z" fill="#A3A3A3" stroke="black" stroke-width="1.20926" stroke-miterlimit="10" stroke-linejoin="round"/>
<mask id="path-5-inside-2_758_1970" fill="white">
<path d="M49.6275 23.5167C48.657 24.3767 48.2231 25.9231 48.8858 27.0356C49.5486 28.148 51.4106 28.4084 52.1601 27.3433C52.7518 26.507 52.452 25.284 51.7577 24.5345C51.0634 23.785 50.0772 23.3826 49.1304 23.0039"/>
</mask>
<path d="M49.6275 23.5167C48.657 24.3767 48.2231 25.9231 48.8858 27.0356C49.5486 28.148 51.4106 28.4084 52.1601 27.3433C52.7518 26.507 52.452 25.284 51.7577 24.5345C51.0634 23.785 50.0772 23.3826 49.1304 23.0039" fill="#F25844"/>
<path d="M52.1601 27.3433L51.6285 26.9672L51.6276 26.9685L52.1601 27.3433ZM49.1956 23.0294C48.0561 24.0392 47.463 25.9194 48.3264 27.3688L49.4452 26.7023C48.9832 25.9268 49.2579 24.7143 50.0593 24.0041L49.1956 23.0294ZM48.3264 27.3688C48.7816 28.1328 49.6147 28.5643 50.4188 28.6532C51.2253 28.7424 52.1442 28.4972 52.6926 27.718L51.6276 26.9685C51.4264 27.2544 51.0396 27.4116 50.562 27.3588C50.082 27.3057 49.6528 27.0508 49.4452 26.7023L48.3264 27.3688ZM52.6916 27.7194C53.5254 26.5409 53.0526 24.9743 52.2354 24.092L51.28 24.977C51.8514 25.5938 51.9782 26.473 51.6285 26.9672L52.6916 27.7194ZM52.2354 24.092C51.425 23.2172 50.2947 22.7683 49.3722 22.3993L48.8886 23.6085C49.8596 23.9969 50.7018 24.3528 51.28 24.977L52.2354 24.092Z" fill="black" mask="url(#path-5-inside-2_758_1970)"/>
<path d="M49.3512 23.241C48.578 23.9353 48.0889 25.0162 48.1836 26.0655C48.2782 27.1149 48.87 27.9117 49.8404 28.2668C50.6609 28.5666 51.7024 28.4482 52.3099 27.7855C53.0752 26.965 52.9726 25.7105 52.4361 24.7953C51.7497 23.6355 50.4321 23.099 49.2329 22.6256C49.0356 22.5467 48.799 22.7124 48.7437 22.9017C48.6806 23.1227 48.8226 23.312 49.0199 23.3909C49.8956 23.7381 50.8266 24.1089 51.4736 24.819C51.9864 25.3791 52.2941 26.318 51.8917 27.0202C51.5683 27.5804 50.8897 27.7224 50.3059 27.5883C49.6116 27.4226 49.1303 26.9334 48.9883 26.2312C48.8068 25.3397 49.2487 24.3929 49.9035 23.8012C50.2822 23.4619 49.7221 22.9017 49.3434 23.241H49.3512Z" fill="black"/>
<mask id="path-8-inside-3_758_1970" fill="white">
<path d="M58.2675 22.8546C56.7685 24.0065 55.2457 26.2235 56.6028 27.5332C57.7705 28.6536 59.9165 27.3833 60.0822 25.7738C60.2479 24.1643 59.1275 22.7047 57.9046 21.6475"/>
</mask>
<path d="M58.2675 22.8546C56.7685 24.0065 55.2457 26.2235 56.6028 27.5332C57.7705 28.6536 59.9165 27.3833 60.0822 25.7738C60.2479 24.1643 59.1275 22.7047 57.9046 21.6475" fill="#75C1E1"/>
<path d="M56.6028 27.5332L56.1506 28.0017L56.152 28.0031L56.6028 27.5332ZM57.8708 22.3383C57.0612 22.9604 56.2266 23.8804 55.7731 24.8615C55.319 25.8439 55.1855 27.0703 56.1506 28.0017L57.055 27.0647C56.6631 26.6865 56.6124 26.1495 56.9552 25.4079C57.2985 24.6652 57.9748 23.9007 58.6643 23.3709L57.8708 22.3383ZM56.152 28.0031C57.0112 28.8275 58.175 28.7093 59.027 28.2505C59.8771 27.7926 60.6204 26.9042 60.7299 25.8405L59.4345 25.7071C59.3783 26.2529 58.9657 26.8044 58.4095 27.1039C57.8551 27.4025 57.362 27.3593 57.0536 27.0634L56.152 28.0031ZM60.7299 25.8405C60.9306 23.8911 59.5822 22.237 58.3304 21.1549L57.4787 22.14C58.6728 23.1724 59.5652 24.4374 59.4345 25.7071L60.7299 25.8405Z" fill="black" mask="url(#path-8-inside-3_758_1970)"/>
<path d="M57.9911 22.5709C57.0759 23.2888 56.2317 24.2435 55.853 25.3638C55.5058 26.358 55.7346 27.502 56.6814 28.0779C57.5493 28.6065 58.638 28.2988 59.3876 27.7071C60.2476 27.0286 60.6105 26.0187 60.4606 24.9378C60.2554 23.5019 59.2534 22.2947 58.1962 21.3716C57.8175 21.0403 57.2573 21.5925 57.636 21.9318C58.8747 23.0127 60.642 25.2139 59.1903 26.8156C58.7406 27.3126 57.9911 27.7308 57.3047 27.5099C56.5078 27.2495 56.3579 26.3658 56.5867 25.6558C56.9102 24.638 57.7307 23.778 58.5513 23.1389C58.7169 23.0048 58.6854 22.7208 58.5513 22.5788C58.3856 22.4131 58.1568 22.4446 57.9911 22.5788V22.5709Z" fill="black"/>
<mask id="path-11-inside-4_758_1970" fill="white">
<path d="M66.5273 23.8875C65.0677 23.5167 63.7501 25.5838 64.6495 26.783C65.549 27.9823 67.837 27.4142 68.121 25.931C68.4051 24.4477 66.6299 23.0591 65.2413 23.6271"/>
</mask>
<path d="M66.5273 23.8875C65.0677 23.5167 63.7501 25.5838 64.6495 26.783C65.549 27.9823 67.837 27.4142 68.121 25.931C68.4051 24.4477 66.6299 23.0591 65.2413 23.6271" fill="#5CC848"/>
<path d="M66.6876 23.2564C65.5935 22.9784 64.6478 23.6306 64.1563 24.394C63.6651 25.1568 63.4615 26.2842 64.1286 27.1737L65.1704 26.3924C64.9382 26.0826 64.9436 25.5768 65.2512 25.099C65.5586 24.6217 66.0015 24.4257 66.367 24.5186L66.6876 23.2564ZM64.1286 27.1737C64.783 28.0462 65.8862 28.2136 66.7719 27.9951C67.6584 27.7766 68.5569 27.1171 68.7606 26.0534L67.4815 25.8085C67.4012 26.2281 67.0136 26.5943 66.4602 26.7307C65.906 26.8674 65.4155 26.7191 65.1704 26.3924L64.1286 27.1737ZM68.7606 26.0534C68.9602 25.0109 68.429 24.0676 67.713 23.4997C66.9979 22.9324 65.9612 22.6291 64.9947 23.0245L65.4878 24.2298C65.9099 24.0571 66.4551 24.1641 66.9037 24.5199C67.3515 24.8751 67.5659 25.3678 67.4815 25.8085L68.7606 26.0534Z" fill="black" mask="url(#path-11-inside-4_758_1970)"/>
<path d="M66.63 23.501C65.5965 23.2485 64.6024 23.9271 64.1921 24.8581C63.9791 25.3393 63.8923 25.8758 64.0264 26.3887C64.1527 26.8699 64.484 27.2802 64.9101 27.5327C65.7227 28.0061 66.8352 27.8798 67.5926 27.3433C67.995 27.0514 68.3185 26.6648 68.4605 26.1835C68.6183 25.6549 68.5315 25.079 68.2869 24.5898C67.7346 23.4931 66.3145 22.783 65.131 23.2407C64.9337 23.3195 64.7917 23.5089 64.8548 23.7298C64.9101 23.9192 65.1389 24.0849 65.344 24.006C66.0857 23.714 66.922 24.0454 67.4032 24.6529C67.5295 24.8107 67.6321 25.0001 67.6794 25.15C67.7504 25.3709 67.7662 25.4892 67.7504 25.7259C67.7504 25.7969 67.7346 25.8522 67.7109 25.9468C67.6952 25.9863 67.6873 26.0336 67.6715 26.0731C67.6715 26.0889 67.6399 26.1441 67.6715 26.081C67.6636 26.1046 67.6478 26.1283 67.6399 26.1441C67.5453 26.3334 67.5058 26.3808 67.348 26.5307C67.3165 26.5622 67.2849 26.5859 67.2533 26.6175C67.2376 26.6332 67.2218 26.6411 67.2139 26.649C67.2612 26.6096 67.2139 26.649 67.206 26.649C67.1271 26.7043 67.0482 26.7516 66.9693 26.7989C66.9299 26.8226 66.8904 26.8384 66.851 26.8542C66.8431 26.8542 66.78 26.8857 66.8431 26.8542C66.8273 26.8542 66.8115 26.8699 66.7878 26.8778C66.7011 26.9094 66.6064 26.9409 66.5196 26.9646C66.4723 26.9804 66.4249 26.9883 66.3697 26.9962C66.3539 26.9962 66.3302 26.9962 66.3145 27.0041C66.2513 27.012 66.3697 27.0041 66.3145 27.0041C66.2198 27.012 66.1251 27.0198 66.0383 27.0198C65.9989 27.0198 65.9515 27.0198 65.9121 27.0198C65.8884 27.0198 65.778 27.0041 65.849 27.0198C65.7622 27.0041 65.6675 26.9883 65.5807 26.9567C65.5413 26.9409 65.5018 26.9331 65.4624 26.9173C65.5334 26.9409 65.4071 26.8936 65.3914 26.8857C65.3598 26.8699 65.3282 26.8542 65.2967 26.8305C65.273 26.8147 65.2572 26.8068 65.2336 26.791C65.2336 26.791 65.1468 26.7279 65.1862 26.7595C65.202 26.7753 65.131 26.7121 65.1152 26.6964C65.0837 26.6648 65.0521 26.6332 65.0284 26.6017C65.0126 26.5859 65.0048 26.5701 64.989 26.5622C65.0284 26.6096 64.989 26.5622 64.9811 26.5465C64.9495 26.4991 64.918 26.4597 64.8943 26.4123C64.8391 26.3098 64.847 26.3255 64.8154 26.2151C64.7996 26.1678 64.7917 26.1125 64.776 26.0652C64.776 26.0652 64.7681 26.0021 64.776 26.0415C64.7838 26.081 64.776 25.9784 64.776 25.9784C64.7602 25.7575 64.776 25.6707 64.8233 25.4813C64.8785 25.2604 64.9337 25.1421 65.0679 24.9369C65.1389 24.8186 65.1468 24.8186 65.2257 24.7318C65.2967 24.645 65.3835 24.5661 65.4703 24.503C65.5255 24.4636 65.4308 24.5346 65.486 24.4951C65.5097 24.4793 65.5255 24.4636 65.5492 24.4478C65.5965 24.4162 65.6517 24.3847 65.6991 24.361C65.8016 24.3058 65.7937 24.3137 65.9279 24.2742C66.1014 24.2269 66.2829 24.2269 66.4486 24.2663C66.9456 24.3847 67.1508 23.6273 66.6616 23.5089L66.63 23.501Z" fill="black"/>
<mask id="path-14-inside-5_758_1970" fill="white">
<path d="M85.2659 63.5644C83.2382 60.1797 81.1632 56.6688 80.6819 52.7555C80.2007 48.8422 81.7707 44.3845 85.3448 42.7197C88.3508 41.3232 91.8854 42.1832 95.0492 43.1694C97.2978 43.8716 99.6095 44.6764 101.298 46.3174C104.264 49.1893 104.548 53.7733 104.651 57.8996C104.706 60.2113 104.667 62.7834 103.081 64.4639C101.929 65.6868 100.178 66.1681 98.9073 67.2726C96.927 69.0005 96.5088 71.8724 96.2169 74.4839C95.7277 78.8785 95.2386 83.2731 94.7494 87.6676C94.7021 88.0937 94.6468 88.5513 94.3865 88.8906C93.7553 89.719 92.3036 89.3324 91.7749 88.4408C91.2463 87.5493 91.341 86.4211 91.4594 85.3875C92.1142 79.6201 92.7691 73.8527 93.4318 68.0853C93.5344 67.1937 93.6448 66.2706 94.0788 65.4895C94.5048 64.7242 95.1991 64.1641 95.8303 63.5644C98.1657 61.3632 99.9409 58.1679 99.2623 55.0356C98.7732 52.7792 97.069 50.933 95.065 49.7811C93.3687 48.8027 91.3252 48.2583 89.4238 48.7396C87.5224 49.2209 85.8734 50.933 85.8813 52.8975C85.8813 54.6806 87.1436 56.1875 87.6802 57.8917C88.2167 59.5959 87.333 62.0733 85.5657 61.8445"/>
</mask>
<path d="M85.2659 63.5644C83.2382 60.1797 81.1632 56.6688 80.6819 52.7555C80.2007 48.8422 81.7707 44.3845 85.3448 42.7197C88.3508 41.3232 91.8854 42.1832 95.0492 43.1694C97.2978 43.8716 99.6095 44.6764 101.298 46.3174C104.264 49.1893 104.548 53.7733 104.651 57.8996C104.706 60.2113 104.667 62.7834 103.081 64.4639C101.929 65.6868 100.178 66.1681 98.9073 67.2726C96.927 69.0005 96.5088 71.8724 96.2169 74.4839C95.7277 78.8785 95.2386 83.2731 94.7494 87.6676C94.7021 88.0937 94.6468 88.5513 94.3865 88.8906C93.7553 89.719 92.3036 89.3324 91.7749 88.4408C91.2463 87.5493 91.341 86.4211 91.4594 85.3875C92.1142 79.6201 92.7691 73.8527 93.4318 68.0853C93.5344 67.1937 93.6448 66.2706 94.0788 65.4895C94.5048 64.7242 95.1991 64.1641 95.8303 63.5644C98.1657 61.3632 99.9409 58.1679 99.2623 55.0356C98.7732 52.7792 97.069 50.933 95.065 49.7811C93.3687 48.8027 91.3252 48.2583 89.4238 48.7396C87.5224 49.2209 85.8734 50.933 85.8813 52.8975C85.8813 54.6806 87.1436 56.1875 87.6802 57.8917C88.2167 59.5959 87.333 62.0733 85.5657 61.8445" fill="#F7D260"/>
<path d="M85.3448 42.7197L84.8353 41.623L84.8342 41.6235L85.3448 42.7197ZM95.0492 43.1694L95.4097 42.0151L95.4091 42.015L95.0492 43.1694ZM101.298 46.3174L100.455 47.1846L100.457 47.1863L101.298 46.3174ZM104.651 57.8996L105.86 57.8707L105.86 57.8696L104.651 57.8996ZM103.081 64.4639L102.201 63.6339L102.201 63.6347L103.081 64.4639ZM98.9073 67.2726L98.1138 66.3601L98.1123 66.3614L98.9073 67.2726ZM96.2169 74.4839L95.0151 74.3495L95.015 74.3501L96.2169 74.4839ZM94.7494 87.6676L93.5475 87.5339L93.5475 87.5341L94.7494 87.6676ZM94.3865 88.8906L93.4271 88.1543L93.4246 88.1577L94.3865 88.8906ZM91.4594 85.3875L92.6608 85.5251L92.6609 85.5239L91.4594 85.3875ZM93.4318 68.0853L92.2305 67.9471L92.2304 67.9472L93.4318 68.0853ZM94.0788 65.4895L93.0222 64.9014L93.0217 64.9023L94.0788 65.4895ZM95.8303 63.5644L95.0008 62.6845L94.9974 62.6877L95.8303 63.5644ZM99.2623 55.0356L100.444 54.7796L100.444 54.7794L99.2623 55.0356ZM95.065 49.7811L94.4608 50.8286L94.4623 50.8295L95.065 49.7811ZM85.8813 52.8975H87.0906L87.0905 52.8926L85.8813 52.8975ZM86.3032 62.943C84.2525 59.5198 82.327 56.2254 81.8822 52.6079L79.4817 52.9031C79.9994 57.1123 82.2239 60.8397 84.2285 64.1859L86.3032 62.943ZM81.8822 52.6079C81.4389 49.0034 82.9246 45.181 85.8554 43.8159L84.8342 41.6235C80.6168 43.5879 78.9624 48.6809 79.4817 52.9031L81.8822 52.6079ZM85.8543 43.8164C88.3854 42.6405 91.4834 43.3246 94.6893 44.3239L95.4091 42.015C92.2874 41.0419 88.3161 40.0059 84.8353 41.623L85.8543 43.8164ZM94.6887 44.3237C96.9571 45.0321 98.9994 45.7698 100.455 47.1846L102.141 45.4503C100.22 43.583 97.6385 42.7112 95.4097 42.0151L94.6887 44.3237ZM100.457 47.1863C101.714 48.4037 102.445 50.0217 102.869 51.9035C103.295 53.7962 103.391 55.8669 103.442 57.9297L105.86 57.8696C105.809 55.806 105.712 53.5215 105.228 51.3727C104.742 49.213 103.848 47.103 102.139 45.4486L100.457 47.1863ZM103.442 57.9285C103.47 59.0829 103.469 60.1966 103.29 61.2086C103.114 62.2099 102.778 63.0227 102.201 63.6339L103.96 65.2938C104.97 64.2245 105.446 62.9111 105.672 61.6282C105.896 60.3562 105.888 59.028 105.86 57.8707L103.442 57.9285ZM102.201 63.6347C101.768 64.094 101.197 64.4415 100.451 64.8554C99.7571 65.241 98.8672 65.705 98.1138 66.3601L99.7008 68.1852C100.218 67.7357 100.839 67.4068 101.626 66.9699C102.361 66.5612 103.242 66.0567 103.961 65.293L102.201 63.6347ZM98.1123 66.3614C96.8965 67.4222 96.2021 68.7998 95.7733 70.1906C95.3477 71.5713 95.161 73.0446 95.0151 74.3495L97.4187 74.6182C97.5647 73.3117 97.7331 72.0432 98.0845 70.9031C98.4329 69.7732 98.9377 68.8509 99.7023 68.1838L98.1123 66.3614ZM95.015 74.3501C94.7705 76.5474 94.5259 78.7447 94.2813 80.942C94.0367 83.1393 93.7921 85.3366 93.5475 87.5339L95.9512 87.8014C96.1958 85.6041 96.4404 83.4068 96.685 81.2095C96.9296 79.0122 97.1741 76.8149 97.4187 74.6176L95.015 74.3501ZM93.5475 87.5341C93.5229 87.7556 93.5043 87.8992 93.4743 88.0196C93.4461 88.1329 93.4224 88.1605 93.4271 88.1543L95.3458 89.6268C95.8463 88.9746 95.9115 88.1591 95.9513 87.8012L93.5475 87.5341ZM93.4246 88.1577C93.4388 88.139 93.46 88.1308 93.4556 88.132C93.4403 88.1364 93.3835 88.1463 93.286 88.1262C93.1901 88.1065 93.0859 88.0636 92.9937 88.0014C92.9013 87.939 92.8443 87.8733 92.8151 87.8241L90.7348 89.0576C91.1951 89.834 92.0025 90.3313 92.7985 90.4951C93.6006 90.6602 94.6635 90.5223 95.3483 89.6234L93.4246 88.1577ZM92.8151 87.8241C92.5255 87.3356 92.5349 86.6244 92.6608 85.5251L90.2579 85.2499C90.1471 86.2178 89.9672 87.763 90.7348 89.0576L92.8151 87.8241ZM92.6609 85.5239C93.3158 79.7564 93.9705 73.9898 94.6332 68.2233L92.2304 67.9472C91.5676 73.7156 90.9126 79.4838 90.2578 85.2511L92.6609 85.5239ZM94.6331 68.2235C94.7407 67.2885 94.8382 66.6126 95.1358 66.0768L93.0217 64.9023C92.4515 65.9286 92.328 67.099 92.2305 67.9471L94.6331 68.2235ZM95.1353 66.0777C95.4446 65.5222 95.9279 65.1397 96.6632 64.4412L94.9974 62.6877C94.4703 63.1885 93.565 63.9263 93.0222 64.9014L95.1353 66.0777ZM96.6597 64.4444C99.1297 62.1163 101.254 58.5157 100.444 54.7796L98.0805 55.2916C98.6282 57.82 97.2016 60.6101 95.0009 62.6845L96.6597 64.4444ZM100.444 54.7794C99.861 52.0893 97.8663 49.9965 95.6676 48.7326L94.4623 50.8295C96.2716 51.8694 97.6854 53.469 98.0805 55.2918L100.444 54.7794ZM95.6691 48.7335C93.8075 47.6599 91.4356 46.983 89.1271 47.5673L89.7205 49.9119C91.2148 49.5337 92.9298 49.9456 94.4608 50.8286L95.6691 48.7335ZM89.1271 47.5673C86.8208 48.1511 84.6614 50.2556 84.672 52.9024L87.0905 52.8926C87.0854 51.6103 88.2239 50.2907 89.7205 49.9119L89.1271 47.5673ZM84.672 52.8975C84.672 54.069 85.0875 55.0942 85.4855 55.9394C85.9182 56.8584 86.2912 57.5067 86.5267 58.2548L88.8336 57.5286C88.5326 56.5725 88.0061 55.6153 87.6736 54.909C87.3062 54.1289 87.0906 53.5091 87.0906 52.8975H84.672ZM86.5267 58.2548C86.6996 58.804 86.6445 59.5379 86.3909 60.082C86.1399 60.6202 85.8825 60.6661 85.721 60.6452L85.4104 63.0437C87.0162 63.2516 88.0843 62.1733 88.5828 61.104C89.0787 60.0405 89.1972 58.6836 88.8336 57.5286L86.5267 58.2548Z" fill="black" mask="url(#path-14-inside-5_758_1970)"/>
<path d="M105.077 59.5809L104.891 59.5749L95.3014 86.5007C95.3447 86.1143 95.3881 85.726 95.4315 85.3376C95.4749 84.9488 95.5183 84.5601 95.5617 84.1733L95.5618 84.1723C95.7433 82.5552 95.9247 80.9381 96.0982 79.3289C96.2114 78.2792 96.3247 77.2798 96.4379 76.2804C96.4982 75.7475 96.5586 75.2146 96.619 74.674C96.761 73.3959 96.9188 72.1098 97.2738 70.8632C97.6052 69.7113 98.1259 68.591 98.9938 67.7468C99.5781 67.1784 100.32 66.7674 101.06 66.3573C101.419 66.1582 101.778 65.9594 102.118 65.7428C103.16 65.0801 103.964 64.228 104.438 63.0839C104.911 61.9399 105.037 60.7644 105.077 59.5809ZM105.077 59.5809C105.156 57.1351 105.037 54.5946 104.588 52.1882L104.891 59.5747L105.077 59.5809Z" fill="black" stroke="black" stroke-width="1.20926"/>
<mask id="path-17-inside-6_758_1970" fill="white">
<path d="M93.9837 93.0806C93.4945 92.2521 92.1059 92.5204 91.5852 93.333C91.0644 94.1457 91.1433 95.1792 91.238 96.1339C91.2854 96.6073 91.3406 97.1043 91.6246 97.483C92.3662 98.5087 94.1572 97.9328 94.678 96.7809C95.1987 95.6289 94.8673 94.2877 94.5202 93.0727"/>
</mask>
<path d="M93.9837 93.0806C93.4945 92.2521 92.1059 92.5204 91.5852 93.333C91.0644 94.1457 91.1433 95.1792 91.238 96.1339C91.2854 96.6073 91.3406 97.1043 91.6246 97.483C92.3662 98.5087 94.1572 97.9328 94.678 96.7809C95.1987 95.6289 94.8673 94.2877 94.5202 93.0727" fill="#F7D260"/>
<path d="M91.238 96.1339L90.0347 96.2532L90.0347 96.2542L91.238 96.1339ZM91.6246 97.483L92.6045 96.7745L92.5984 96.7659L92.592 96.7575L91.6246 97.483ZM95.0249 92.4657C94.4522 91.4958 93.4091 91.2865 92.6315 91.3934C91.8599 91.4995 91.0451 91.9345 90.567 92.6806L92.6033 93.9855C92.6193 93.9605 92.6586 93.9158 92.7324 93.8715C92.8062 93.8273 92.8889 93.7993 92.961 93.7894C93.0351 93.7792 93.0614 93.7924 93.0464 93.7867C93.0186 93.7762 92.971 93.7439 92.9424 93.6954L95.0249 92.4657ZM90.567 92.6806C89.7839 93.9027 89.9475 95.3748 90.0347 96.2532L92.4414 96.0146C92.3391 94.9836 92.345 94.3886 92.6033 93.9855L90.567 92.6806ZM90.0347 96.2542C90.0758 96.6644 90.1376 97.5158 90.6572 98.2086L92.592 96.7575C92.5809 96.7427 92.55 96.6936 92.5186 96.5625C92.4852 96.4227 92.4658 96.2584 92.4413 96.0136L90.0347 96.2542ZM90.6447 98.1916C91.4058 99.2443 92.6373 99.3567 93.5426 99.1178C94.4417 98.8806 95.3463 98.2381 95.7799 97.279L93.576 96.2827C93.4889 96.4755 93.2376 96.697 92.9256 96.7793C92.7838 96.8167 92.6875 96.8084 92.6431 96.797C92.6134 96.7894 92.6117 96.7843 92.6045 96.7745L90.6447 98.1916ZM95.7799 97.279C96.5103 95.6632 96.0105 93.8872 95.6829 92.7405L93.3574 93.4049C93.7241 94.6882 93.8871 95.5947 93.576 96.2827L95.7799 97.279Z" fill="black" mask="url(#path-17-inside-6_758_1970)"/>
<mask id="path-19-inside-7_758_1970" fill="white">
<path d="M94.3229 92.8835C93.7706 92.0077 92.5477 92.0314 91.7666 92.5916C90.7331 93.3411 90.7173 94.7376 90.8199 95.8816C90.8751 96.4812 90.9145 97.144 91.2617 97.6568C91.5299 98.0513 91.9402 98.3117 92.4136 98.3827C93.3682 98.5247 94.3624 98.0197 94.8831 97.2308C95.7115 95.9763 95.2776 94.2958 94.9068 92.9703C94.7726 92.4811 94.0073 92.6863 94.1493 93.1833C94.4334 94.1853 94.749 95.2899 94.4413 96.3234C94.2361 97.0098 93.6365 97.5385 92.9106 97.6252C92.6424 97.6568 92.3584 97.6253 92.1296 97.4517C91.8297 97.2229 91.7272 96.7968 91.6798 96.4339C91.6088 95.929 91.5694 95.4161 91.5773 94.9112C91.5852 94.4378 91.6641 93.9407 91.9402 93.5462C92.2874 93.0334 93.2815 92.702 93.6602 93.2938C93.9284 93.7198 94.6148 93.3253 94.3387 92.8993L94.3229 92.8835Z"/>
</mask>
<path d="M94.3229 92.8835C93.7706 92.0077 92.5477 92.0314 91.7666 92.5916C90.7331 93.3411 90.7173 94.7376 90.8199 95.8816C90.8751 96.4812 90.9145 97.144 91.2617 97.6568C91.5299 98.0513 91.9402 98.3117 92.4136 98.3827C93.3682 98.5247 94.3624 98.0197 94.8831 97.2308C95.7115 95.9763 95.2776 94.2958 94.9068 92.9703C94.7726 92.4811 94.0073 92.6863 94.1493 93.1833C94.4334 94.1853 94.749 95.2899 94.4413 96.3234C94.2361 97.0098 93.6365 97.5385 92.9106 97.6252C92.6424 97.6568 92.3584 97.6253 92.1296 97.4517C91.8297 97.2229 91.7272 96.7968 91.6798 96.4339C91.6088 95.929 91.5694 95.4161 91.5773 94.9112C91.5852 94.4378 91.6641 93.9407 91.9402 93.5462C92.2874 93.0334 93.2815 92.702 93.6602 93.2938C93.9284 93.7198 94.6148 93.3253 94.3387 92.8993L94.3229 92.8835Z" fill="black"/>
<path d="M94.3229 92.8835L93.3001 93.5286L93.3722 93.643L93.4678 93.7386L94.3229 92.8835ZM91.7666 92.5916L91.0619 91.6089L91.0567 91.6126L91.7666 92.5916ZM90.8199 95.8816L89.6154 95.9896L89.6157 95.9925L90.8199 95.8816ZM91.2617 97.6568L90.2603 98.3347L90.2617 98.3368L91.2617 97.6568ZM92.4136 98.3827L92.2342 99.5786L92.2357 99.5788L92.4136 98.3827ZM94.8831 97.2308L93.874 96.5644L93.8738 96.5646L94.8831 97.2308ZM94.9068 92.9703L93.7405 93.2901L93.7422 93.2961L94.9068 92.9703ZM94.1493 93.1833L95.3128 92.8535L95.3121 92.8511L94.1493 93.1833ZM94.4413 96.3234L95.5999 96.6697L95.6003 96.6685L94.4413 96.3234ZM92.9106 97.6252L93.0519 98.8262L93.0542 98.826L92.9106 97.6252ZM92.1296 97.4517L91.3959 98.413L91.3987 98.4151L92.1296 97.4517ZM91.6798 96.4339L92.879 96.2775L92.8773 96.2655L91.6798 96.4339ZM91.5773 94.9112L90.3682 94.891L90.3682 94.8923L91.5773 94.9112ZM91.9402 93.5462L92.9309 94.2397L92.9363 94.232L92.9416 94.2241L91.9402 93.5462ZM93.6602 93.2938L94.6835 92.6494L94.6787 92.6419L93.6602 93.2938ZM94.3387 92.8993L95.3535 92.2416L95.284 92.1345L95.1938 92.0442L94.3387 92.8993ZM95.3458 92.2385C94.8293 91.4194 94.0018 91.0486 93.2162 90.9928C92.4531 90.9387 91.6741 91.1699 91.0619 91.6089L92.4714 93.5743C92.6403 93.4531 92.8633 93.3924 93.045 93.4053C93.2041 93.4166 93.2643 93.4718 93.3001 93.5286L95.3458 92.2385ZM91.0567 91.6126C90.2252 92.2157 89.8437 93.0613 89.6827 93.8454C89.5259 94.6086 89.5614 95.3865 89.6154 95.9896L92.0243 95.7736C91.9758 95.2327 91.9679 94.7403 92.0517 94.332C92.1313 93.9444 92.2745 93.717 92.4765 93.5705L91.0567 91.6126ZM89.6157 95.9925C89.6605 96.4788 89.7007 97.508 90.2603 98.3347L92.2631 96.9789C92.1284 96.7799 92.0897 96.4837 92.024 95.7707L89.6157 95.9925ZM90.2617 98.3368C90.7177 99.0074 91.4241 99.457 92.2342 99.5786L92.593 97.1868C92.4563 97.1663 92.3421 97.0952 92.2617 96.9768L90.2617 98.3368ZM92.2357 99.5788C93.7042 99.7972 95.1409 99.0355 95.8924 97.8969L93.8738 96.5646C93.5838 97.004 93.0323 97.2521 92.5915 97.1866L92.2357 99.5788ZM95.8922 97.8971C96.5058 96.968 96.6126 95.9355 96.551 95.0438C96.4901 94.1621 96.2546 93.2998 96.0713 92.6445L93.7422 93.2961C93.9297 93.9663 94.0966 94.607 94.1382 95.2105C94.1792 95.804 94.0888 96.239 93.874 96.5644L95.8922 97.8971ZM96.073 92.6505C95.9482 92.1954 95.6429 91.8299 95.2287 91.6341C94.8445 91.4524 94.439 91.449 94.1043 91.5409C93.7694 91.6328 93.4184 91.8443 93.1802 92.2046C92.9233 92.5931 92.8583 93.0663 92.9866 93.5155L95.3121 92.8511C95.3694 93.0518 95.3467 93.3129 95.1977 93.5385C95.0672 93.7358 94.8892 93.8334 94.7447 93.8731C94.6003 93.9127 94.4025 93.9187 94.195 93.8205C93.9576 93.7083 93.7983 93.5006 93.7405 93.2901L96.073 92.6505ZM92.9859 93.5131C93.2926 94.595 93.4717 95.3421 93.2823 95.9784L95.6003 96.6685C96.0262 95.2376 95.5741 93.7756 95.3128 92.8535L92.9859 93.5131ZM93.2826 95.9772C93.2098 96.2209 92.9953 96.3972 92.7671 96.4245L93.0542 98.826C94.2777 98.6797 95.2625 97.7988 95.5999 96.6697L93.2826 95.9772ZM92.7694 96.4243C92.7269 96.4293 92.7175 96.4248 92.734 96.4279C92.7437 96.4298 92.7616 96.4342 92.7849 96.4442C92.8088 96.4544 92.8349 96.4689 92.8604 96.4883L91.3987 98.4151C91.9715 98.8496 92.616 98.8775 93.0519 98.8262L92.7694 96.4243ZM92.8632 96.4904C92.9507 96.5571 92.9597 96.6138 92.9395 96.5611C92.9308 96.5384 92.9198 96.5031 92.9085 96.4522C92.8974 96.4017 92.8876 96.3438 92.879 96.2775L90.4807 96.5903C90.5272 96.9462 90.6621 97.853 91.3959 98.413L92.8632 96.4904ZM92.8773 96.2655C92.8132 95.8098 92.7797 95.3607 92.7864 94.9301L90.3682 94.8923C90.3591 95.4716 90.4044 96.0481 90.4824 96.6023L92.8773 96.2655ZM92.7864 94.9313C92.7928 94.5453 92.8607 94.3399 92.9309 94.2397L90.9495 92.8528C90.4674 93.5416 90.3775 94.3303 90.3682 94.891L92.7864 94.9313ZM92.9416 94.2241C92.9174 94.2599 92.9125 94.2522 92.9504 94.2281C92.9852 94.206 93.0214 94.1926 93.0427 94.188C93.0678 94.1826 93.0285 94.1975 92.943 94.1727C92.8969 94.1593 92.8395 94.1345 92.7811 94.0921C92.7215 94.0488 92.6746 93.9971 92.6416 93.9456L94.6787 92.6419C94.1086 91.7511 93.1349 91.6943 92.534 91.8236C91.9394 91.9515 91.3135 92.3149 90.9388 92.8684L92.9416 94.2241ZM92.6369 93.9381C93.2059 94.8419 94.2313 94.7968 94.8087 94.463C95.1049 94.2918 95.3975 93.9981 95.5355 93.5787C95.6859 93.1219 95.6106 92.6383 95.3535 92.2416L93.3239 93.557C93.2049 93.3733 93.1473 93.0988 93.2383 92.8224C93.3169 92.5836 93.4729 92.4417 93.5984 92.3691C93.7256 92.2956 93.905 92.2437 94.1167 92.2789C94.3584 92.3192 94.5659 92.4627 94.6835 92.6495L92.6369 93.9381ZM95.1938 92.0442L95.178 92.0284L93.4678 93.7386L93.4836 93.7544L95.1938 92.0442Z" fill="black" mask="url(#path-19-inside-7_758_1970)"/>
<path d="M17.009 150.966C16.183 152.156 14.839 153.01 13.187 153.192V151.988C15.007 151.722 16.169 150.434 16.449 148.768H13.313V147.606H16.477V146.29H17.877V147.606H20.999V148.768H17.863C17.807 149.16 17.709 149.538 17.569 149.902L21.209 152.016L20.551 153.066L17.009 150.966ZM23.841 149.146H25.521V150.476H23.841V153.416H22.455V146.5H23.841V149.146ZM19.837 155.18C19.739 155.446 19.627 155.698 19.487 155.922L24.289 157.322L23.925 158.47L18.703 156.804C17.499 157.812 15.595 158.302 13.677 158.302V157.14C15.791 157.14 17.723 156.412 18.353 155.18H13.817V154.074H23.995V155.18H19.837ZM32.4498 150.812C29.5658 150.812 27.1998 150.224 27.1998 148.628C27.1998 147.046 29.5658 146.458 32.4498 146.458C35.3338 146.458 37.6998 147.046 37.6998 148.628C37.6998 150.224 35.3338 150.812 32.4498 150.812ZM32.4498 149.748C34.5358 149.748 36.2718 149.426 36.2718 148.628C36.2718 147.844 34.5358 147.508 32.4498 147.508C30.3638 147.508 28.6278 147.844 28.6278 148.628C28.6278 149.426 30.3638 149.748 32.4498 149.748ZM26.4858 152.632V151.554H38.4278V152.632H26.4858ZM27.3118 158.316V155.46H36.2438V154.62H27.2838V153.584H37.6018V156.44H28.6698V157.28H37.8118V158.316H27.3118ZM49.7144 149.888C48.3844 151.694 46.3404 152.828 44.1564 152.842V151.526C46.7324 151.54 49.1684 149.244 49.6864 146.416L51.1144 146.64C50.9744 147.41 50.7224 148.152 50.3864 148.824L55.5104 151.666L54.8664 152.828L49.7144 149.888ZM55.8184 154.102V155.39H50.5404V158.736H49.1264V155.39H43.8764V154.102H55.8184ZM68.7011 150.182C68.4071 151.596 67.0631 152.548 65.0751 152.548C62.8071 152.548 61.3791 151.33 61.3791 149.594C61.3791 147.872 62.8071 146.64 65.0751 146.64C67.0071 146.64 68.3371 147.55 68.6731 148.894H71.1371V146.5H72.5231V152.716H71.1371V150.182H68.7011ZM62.7651 149.594C62.7651 150.714 63.7031 151.4 65.0751 151.4C66.4471 151.4 67.3711 150.714 67.3711 149.594C67.3711 148.474 66.4471 147.788 65.0751 147.788C63.7031 147.788 62.7651 148.474 62.7651 149.594ZM73.7551 157.392L72.9011 158.316L70.7451 156.356C70.0591 157.518 69.0091 158.218 67.8191 158.302V157.084C69.0511 156.93 70.1431 155.502 70.2971 153.192L71.6271 153.29C71.5851 154.004 71.4451 154.662 71.2491 155.236L73.7551 157.392ZM66.0691 154.634V153.234H67.3291V158.302H62.3311V153.234H63.5771V154.634H66.0691ZM63.5771 157.196H66.0691V155.712H63.5771V157.196ZM75.5879 151.134V146.5H76.9879V149.902H85.9339V151.134H75.5879ZM74.7339 153.682V152.45H86.6759V153.682H74.7339ZM75.5599 158.316V154.746H76.9739V157.084H86.0599V158.316H75.5599ZM102.344 146.5H103.618V158.456H102.344V146.5ZM99.6145 151.358V146.57H100.888V158.246H99.6145V152.66H98.1725V151.358H99.6145ZM97.2625 148.166V156.37C97.8365 156.272 98.3265 156.146 98.7465 155.936V157.182C97.9765 157.56 96.5905 157.742 94.9245 157.742H92.0545V156.51H93.1185V148.166H92.1385V146.934H98.2845V148.166H97.2625ZM94.3645 156.51H94.9665C95.3445 156.51 95.6945 156.51 96.0165 156.482V148.166H94.3645V156.51ZM115.363 158.456V146.5H116.763V158.456H115.363ZM109.721 157.896C107.593 157.896 106.095 156.132 106.095 152.338C106.095 148.544 107.593 146.78 109.721 146.78C111.835 146.78 113.333 148.544 113.333 152.338C113.333 156.132 111.835 157.896 109.721 157.896ZM109.721 156.622C110.967 156.622 111.947 155.376 111.947 152.338C111.947 149.314 110.967 148.054 109.721 148.054C108.447 148.054 107.481 149.314 107.481 152.338C107.481 155.376 108.447 156.622 109.721 156.622ZM128.83 146.5H130.216V158.456H128.83V146.5ZM124.168 148.208C124.154 149.594 124.014 150.868 123.79 151.988L127.696 156.818L126.604 157.644L123.384 153.542C122.558 156.048 121.13 157.532 119.324 157.742V156.37C121.452 155.978 122.712 152.646 122.768 148.208H119.604V146.934H127.234V148.208H124.168ZM142.297 146.5H143.683V152.632H142.297V146.5ZM140.183 149.594C140.183 151.358 138.727 152.562 136.445 152.562C134.149 152.562 132.693 151.358 132.693 149.594C132.693 147.844 134.149 146.626 136.445 146.626C138.727 146.626 140.183 147.844 140.183 149.594ZM134.079 149.594C134.079 150.742 135.045 151.428 136.445 151.428C137.845 151.428 138.797 150.742 138.797 149.594C138.797 148.446 137.845 147.76 136.445 147.76C135.045 147.76 134.079 148.446 134.079 149.594ZM142.325 154.55V153.29H143.683V158.302H133.687V153.29H135.059V154.55H142.325ZM135.059 157.168H142.325V155.656H135.059V157.168ZM155.764 158.47V146.5H157.15V158.456L155.764 158.47ZM146.678 157.742V146.864H148.092V156.468H151.564C152.698 156.468 153.93 156.23 154.658 155.88V157.154C153.93 157.518 152.712 157.742 151.564 157.742H146.678ZM171.96 151.344V152.674H170.28V158.456H168.894V146.5H170.28V151.344H171.96ZM161.432 156.482H164.764C165.898 156.482 167.13 156.258 167.858 155.908V157.168C167.13 157.532 165.842 157.742 164.694 157.742H160.018V146.934H166.92V148.194H161.432V156.482ZM173.961 158.344C173.401 158.344 172.967 157.91 172.967 157.35C172.967 156.79 173.401 156.356 173.961 156.356C174.521 156.356 174.941 156.79 174.941 157.35C174.941 157.91 174.521 158.344 173.961 158.344ZM10.8147 176.608H13.5587V177.882H1.61668V176.608H4.36068V173.374C2.98868 172.744 2.19068 171.694 2.19068 170.35C2.19068 168.138 4.31868 166.71 7.58068 166.71C10.8427 166.71 12.9707 168.138 12.9707 170.35C12.9707 171.68 12.1727 172.744 10.8147 173.36V176.608ZM3.66068 170.35C3.66068 171.778 5.22868 172.716 7.58068 172.716C9.93268 172.716 11.5147 171.778 11.5147 170.35C11.5147 168.894 9.93268 167.97 7.58068 167.97C5.22868 167.97 3.66068 168.894 3.66068 170.35ZM5.74668 173.808V176.608H9.42868V173.808C8.86868 173.92 8.25268 173.976 7.58068 173.976C6.92268 173.976 6.30668 173.92 5.74668 173.808ZM19.1715 171.05C18.3455 172.282 17.0015 173.178 15.3215 173.36V172.156C17.1555 171.89 18.3455 170.49 18.5975 168.782H15.4475V167.62H18.6115V166.29H20.0115V167.62H23.1335V168.782H20.0115C19.9555 169.188 19.8575 169.594 19.7175 169.972L23.3435 172.226L22.6855 173.262L19.1715 171.05ZM22.6575 169.398H24.9535V166.5H26.3395V173.626H24.9535V170.63H22.6575V169.398ZM21.2855 174.004C24.1835 174.004 26.4795 174.564 26.4795 176.23C26.4795 177.882 24.1835 178.456 21.2855 178.456C18.3875 178.456 16.0915 177.882 16.0915 176.23C16.0915 174.564 18.3875 174.004 21.2855 174.004ZM21.2855 177.35C23.3575 177.35 25.0095 177.042 25.0095 176.23C25.0095 175.418 23.3575 175.11 21.2855 175.11C19.2135 175.11 17.5615 175.418 17.5615 176.23C17.5615 177.042 19.2135 177.35 21.2855 177.35ZM33.3943 166.472V168.39H36.5723V169.622H28.8163V168.39H31.9803V166.472H33.3943ZM41.0523 171.344V172.674H39.3723V178.456H37.9863V166.5H39.3723V171.344H41.0523ZM32.6943 170.574C34.6403 170.574 36.0123 172.03 36.0123 174.228C36.0123 176.426 34.6403 177.882 32.6943 177.882C30.7483 177.882 29.3623 176.426 29.3623 174.228C29.3623 172.03 30.7483 170.574 32.6943 170.574ZM32.6943 176.678C33.8003 176.678 34.6683 175.754 34.6683 174.228C34.6683 172.702 33.8003 171.778 32.6943 171.778C31.5743 171.778 30.7063 172.702 30.7063 174.228C30.7063 175.754 31.5743 176.678 32.6943 176.678ZM53.1751 166.5V175.376H51.7891V166.5H53.1751ZM46.2171 170.77C45.3211 172.268 43.9211 173.346 42.1991 173.57V172.268C44.4671 171.862 45.8671 169.398 45.8951 166.612L47.2811 166.696C47.2811 167.718 47.0991 168.712 46.7631 169.608L50.5991 172.436L49.7731 173.444L46.2171 170.77ZM44.4391 177.07H53.4971V178.302H43.0391V174.494H44.4391V177.07ZM69.6277 166.5H70.9017V178.456H69.6277V166.5ZM66.8977 171.358V166.57H68.1717V178.246H66.8977V172.66H65.4557V171.358H66.8977ZM64.5457 168.166V176.37C65.1197 176.272 65.6097 176.146 66.0297 175.936V177.182C65.2597 177.56 63.8737 177.742 62.2077 177.742H59.3377V176.51H60.4017V168.166H59.4217V166.934H65.5677V168.166H64.5457ZM61.6477 176.51H62.2497C62.6277 176.51 62.9777 176.51 63.2997 176.482V168.166H61.6477V176.51ZM82.6465 178.456V166.5H84.0465V178.456H82.6465ZM77.0045 177.896C74.8765 177.896 73.3785 176.132 73.3785 172.338C73.3785 168.544 74.8765 166.78 77.0045 166.78C79.1185 166.78 80.6165 168.544 80.6165 172.338C80.6165 176.132 79.1185 177.896 77.0045 177.896ZM77.0045 176.622C78.2505 176.622 79.2305 175.376 79.2305 172.338C79.2305 169.314 78.2505 168.054 77.0045 168.054C75.7305 168.054 74.7645 169.314 74.7645 172.338C74.7645 175.376 75.7305 176.622 77.0045 176.622ZM96.1133 166.5H97.4993V178.456H96.1133V166.5ZM91.4513 168.208C91.4373 169.594 91.2973 170.868 91.0733 171.988L94.9793 176.818L93.8873 177.644L90.6673 173.542C89.8413 176.048 88.4133 177.532 86.6073 177.742V176.37C88.7353 175.978 89.9953 172.646 90.0513 168.208H86.8873V166.934H94.5173V168.208H91.4513ZM112.31 171.344V172.674H110.63V178.456H109.244V166.5H110.63V171.344H112.31ZM100.242 168.208V166.934H106.752V169.818C106.752 174.578 104.302 177.714 100.242 177.714V176.398C103.49 176.384 105.338 173.85 105.338 169.846V168.208H100.242ZM129.701 171.344V172.674H128.021V178.456H126.635V166.5H128.021V171.344H129.701ZM122.365 166.85C122.351 168.712 122.197 170.378 121.889 171.82L125.655 176.916L124.535 177.714L121.455 173.444C120.601 176.048 119.159 177.602 117.297 177.742V176.342C119.691 175.964 120.937 171.82 120.951 166.794L122.365 166.85ZM143.168 171.344V172.674H141.488V178.456H140.102V166.5H141.488V171.344H143.168ZM132.598 176.468H135.972C137.106 176.468 138.338 176.258 139.066 175.908V177.168C138.338 177.532 137.092 177.742 135.944 177.742H131.226V171.61H136.448V168.208H131.198V166.934H137.834V172.884H132.598V176.468ZM154.016 173.15V171.428H152.07V170.294H154.016V168.964H152.07V167.83H154.016V166.5H155.388V173.15H154.016ZM148.122 170.756C147.352 172.072 146.05 172.982 144.37 173.15V171.904C146.288 171.638 147.38 170.014 147.534 167.998H144.524V166.808H151.734V167.998H148.92C148.892 168.572 148.794 169.118 148.626 169.636L152.07 172.03L151.342 173.038L148.122 170.756ZM156.382 177.378L155.584 178.386L153.19 176.454C152.448 177.546 151.356 178.232 150.166 178.302L148.052 176.482C147.31 177.546 146.218 178.218 145.042 178.302V177.042C146.372 176.916 147.576 175.404 147.716 173.514L149.046 173.71C148.99 174.326 148.836 174.914 148.626 175.432L150.558 176.986C151.692 176.636 152.672 175.208 152.798 173.514L154.142 173.71C154.086 174.326 153.946 174.886 153.75 175.39L156.382 177.378ZM167.469 166.5H168.855V178.456H167.469V172.66H164.277C163.479 175.782 161.281 177.714 158.103 177.714V176.398C161.351 176.384 163.199 173.85 163.199 169.846V168.208H158.103V166.934H164.613V169.818C164.613 170.35 164.585 170.868 164.515 171.358H167.469V166.5ZM183.568 171.344V172.674H181.888V178.456H180.502V166.5H181.888V171.344H183.568ZM173.04 176.454H176.372C177.506 176.454 178.738 176.244 179.466 175.908V177.168C178.738 177.532 177.492 177.742 176.344 177.742H171.626V166.864H173.04V176.454ZM186.381 176.412L185.681 179.576H184.533L184.981 176.412H186.381ZM19.049 188.432H20.729V189.706H19.049V192.352H17.663V186.5H19.049V188.432ZM12.273 190.168C11.447 191.274 10.075 192.044 8.39503 192.226V191.078C10.327 190.826 11.559 189.622 11.755 187.956H8.54903V186.808H16.179V187.956H13.141C13.099 188.39 12.987 188.796 12.833 189.188L16.571 191.078L15.955 192.086L12.273 190.168ZM10.439 196.174V197.21H19.343V198.302H9.06703V195.138H17.677V194.102H9.03903V193.01H19.049V196.174H10.439ZM28.3438 192.506H33.6358V193.668H21.6938V192.506H26.9718V191.176H22.5478V186.64H32.7678V191.176H28.3438V192.506ZM23.9338 187.76V190.056H31.3958V187.76H23.9338ZM28.6798 194.466C28.5818 194.886 28.4418 195.264 28.2318 195.6L33.2438 197.252L32.7958 198.442L27.4898 196.538C26.2298 197.728 24.2278 198.302 22.2818 198.302V197.084C24.5918 197.084 26.8738 196.076 27.2938 194.242L28.6798 194.466ZM46.3466 186.5V195.6H44.9606V186.5H46.3466ZM43.9666 193.668C43.2106 194.004 41.7126 194.144 40.0046 194.144H35.1606V192.982H38.6186V191.386H35.8606V186.738H42.8046V187.858H37.2326V190.266H42.9446V191.386H40.0046V192.982H40.0466C41.6846 192.982 43.1406 192.87 43.9666 192.52V193.668ZM37.6106 197.098H46.6686V198.302H36.2106V195.068H37.6106V197.098ZM62.4213 193.108V191.806H59.8733V190.588H62.4213V189.006H60.3353V187.788H62.4213V186.5H63.8073V193.108H62.4213ZM59.7473 188.096C59.7473 191.344 57.0593 192.73 52.9293 192.73V191.526C56.2753 191.512 58.3473 190.476 58.3473 188.334V187.97H52.9293V186.794H59.7473V188.096ZM58.7673 193.5C61.6233 193.5 63.9753 194.158 63.9753 195.978C63.9753 197.784 61.6233 198.456 58.7673 198.456C55.9113 198.456 53.5593 197.784 53.5593 195.978C53.5593 194.158 55.9113 193.5 58.7673 193.5ZM58.7673 197.308C60.7973 197.308 62.5053 196.916 62.5053 195.978C62.5053 195.04 60.7973 194.648 58.7673 194.648C56.7513 194.648 55.0293 195.04 55.0293 195.978C55.0293 196.916 56.7513 197.308 58.7673 197.308ZM72.668 196.608H77.96V197.882H66.018V196.608H71.254V194.354H66.816V190.042H75.804V188.166H66.816V186.934H77.176V191.232H68.202V193.122H77.358V194.354H72.668V196.608ZM80.3528 191.134V188.432H89.2288V187.62H80.3528V186.64H90.5728V189.356H81.6968V190.154H90.7408V191.134H80.3528ZM79.4848 193.01V192.002H91.4268V193.01H79.4848ZM80.3108 198.316V195.628H89.2568V194.858H80.2828V193.878H90.6008V196.552H81.6548V197.336H90.8108V198.316H80.3108ZM106.647 198.456V186.5H108.047V198.456H106.647ZM101.005 197.896C98.8775 197.896 97.3795 196.132 97.3795 192.338C97.3795 188.544 98.8775 186.78 101.005 186.78C103.119 186.78 104.617 188.544 104.617 192.338C104.617 196.132 103.119 197.896 101.005 197.896ZM101.005 196.622C102.251 196.622 103.231 195.376 103.231 192.338C103.231 189.314 102.251 188.054 101.005 188.054C99.7315 188.054 98.7655 189.314 98.7655 192.338C98.7655 195.376 99.7315 196.622 101.005 196.622ZM119.652 192.1H122.284V193.22H110.342V192.1H112.96V190.602C111.784 190.252 111.028 189.636 111.028 188.712C111.028 187.088 113.408 186.43 116.306 186.43C119.204 186.43 121.584 187.088 121.584 188.712C121.584 189.636 120.828 190.252 119.652 190.602V192.1ZM112.498 188.712C112.498 189.552 114.22 189.916 116.306 189.916C118.392 189.916 120.114 189.552 120.114 188.712C120.114 187.886 118.392 187.522 116.306 187.522C114.22 187.522 112.498 187.886 112.498 188.712ZM114.332 190.896V192.1H118.28V190.896C117.664 190.966 117.006 191.008 116.306 191.008C115.606 191.008 114.948 190.966 114.332 190.896ZM116.306 194.144C119.162 194.144 121.556 194.662 121.556 196.3C121.556 197.938 119.162 198.484 116.306 198.484C113.45 198.484 111.056 197.938 111.056 196.3C111.056 194.662 113.45 194.144 116.306 194.144ZM116.306 197.392C118.238 197.392 120.1 197.126 120.1 196.3C120.1 195.488 118.238 195.236 116.306 195.236C114.374 195.236 112.526 195.488 112.526 196.3C112.526 197.126 114.374 197.392 116.306 197.392ZM128.653 186.472V188.39H131.831V189.622H124.075V188.39H127.239V186.472H128.653ZM136.311 191.344V192.674H134.631V198.456H133.245V186.5H134.631V191.344H136.311ZM127.953 190.574C129.899 190.574 131.271 192.03 131.271 194.228C131.271 196.426 129.899 197.882 127.953 197.882C126.007 197.882 124.621 196.426 124.621 194.228C124.621 192.03 126.007 190.574 127.953 190.574ZM127.953 196.678C129.059 196.678 129.927 195.754 129.927 194.228C129.927 192.702 129.059 191.778 127.953 191.778C126.833 191.778 125.965 192.702 125.965 194.228C125.965 195.754 126.833 196.678 127.953 196.678ZM147.16 193.15V190.952H144.584V189.804H147.16V188.656H144.584V187.508H147.16V186.5H148.532V193.15H147.16ZM141.196 190.63C140.328 192.002 138.984 192.982 137.276 193.206V191.946C139.53 191.526 140.874 189.216 140.86 186.612L142.246 186.696C142.26 187.69 142.078 188.656 141.742 189.51L145.438 192.114L144.626 193.08L141.196 190.63ZM149.526 197.378L148.728 198.386L146.334 196.454C145.592 197.546 144.5 198.232 143.31 198.302L141.196 196.482C140.454 197.546 139.362 198.218 138.186 198.302V197.042C139.516 196.916 140.72 195.404 140.86 193.514L142.19 193.71C142.134 194.326 141.98 194.914 141.77 195.432L143.702 196.986C144.836 196.636 145.816 195.208 145.942 193.514L147.286 193.71C147.23 194.326 147.09 194.886 146.894 195.39L149.526 197.378ZM160.613 186.5H161.999V198.456H160.613V192.758H158.317C158.205 196.258 156.763 197.896 154.761 197.896C152.661 197.896 151.191 196.132 151.191 192.338C151.191 188.544 152.661 186.78 154.761 186.78C156.679 186.78 158.079 188.264 158.289 191.456H160.613V186.5ZM154.761 196.622C155.993 196.622 156.931 195.376 156.931 192.338C156.931 189.314 155.993 188.054 154.761 188.054C153.515 188.054 152.577 189.314 152.577 192.338C152.577 195.376 153.515 196.622 154.761 196.622ZM173.407 196.608H176.151V197.882H164.209V196.608H166.953V193.374C165.581 192.744 164.783 191.694 164.783 190.35C164.783 188.138 166.911 186.71 170.173 186.71C173.435 186.71 175.563 188.138 175.563 190.35C175.563 191.68 174.765 192.744 173.407 193.36V196.608ZM166.253 190.35C166.253 191.778 167.821 192.716 170.173 192.716C172.525 192.716 174.107 191.778 174.107 190.35C174.107 188.894 172.525 187.97 170.173 187.97C167.821 187.97 166.253 188.894 166.253 190.35ZM168.339 193.808V196.608H172.021V193.808C171.461 193.92 170.845 193.976 170.173 193.976C169.515 193.976 168.899 193.92 168.339 193.808ZM178.194 195.054L177.844 186.948H179.622L179.258 195.054H178.194ZM178.726 198.386C178.138 198.386 177.69 197.938 177.69 197.35C177.69 196.776 178.138 196.328 178.726 196.328C179.314 196.328 179.762 196.776 179.762 197.35C179.762 197.938 179.314 198.386 178.726 198.386Z" fill="#9E9E9E"/>
</svg>
