<svg width="18" height="18" viewBox="0 0 18 18" fill="none" xmlns="http://www.w3.org/2000/svg">
<g clip-path="url(#clip0_337_1944)">
<path d="M10.0867 14.8492C11.5377 14.6645 12.864 13.9343 13.7959 12.807C14.7278 11.6796 15.1955 10.2397 15.104 8.77988C15.0124 7.32007 14.3683 5.9499 13.3028 4.94787C12.2372 3.94584 10.8301 3.38714 9.36745 3.38533C7.90297 3.38424 6.49318 3.94157 5.42534 4.94377C4.35749 5.94597 3.71195 7.31761 3.62024 8.77921C3.52854 10.2408 3.99757 11.6824 4.93177 12.8102C5.86597 13.938 7.19504 14.6672 8.64817 14.8492V10.5781H7.20962V9.13954H8.64817V7.94986C8.64817 6.98819 8.74887 6.63934 8.93588 6.28761C9.1201 5.93961 9.40482 5.65514 9.75298 5.47123C10.0277 5.32378 10.3694 5.23531 10.9664 5.19719C11.203 5.18208 11.5095 5.20078 11.8856 5.25473V6.62136H11.5253C10.8657 6.62136 10.5931 6.65228 10.4305 6.73932C10.3335 6.7892 10.2546 6.86817 10.2047 6.96517C10.1184 7.12773 10.0867 7.28884 10.0867 7.94914V9.13954H11.8849L11.5253 10.5781H10.0867V14.8492ZM9.36745 16.3323C5.39488 16.3323 2.17468 13.1121 2.17468 9.13954C2.17468 5.16698 5.39488 1.94678 9.36745 1.94678C13.34 1.94678 16.5602 5.16698 16.5602 9.13954C16.5602 13.1121 13.34 16.3323 9.36745 16.3323Z" fill="white"/>
</g>
<defs>
<clipPath id="clip0_337_1944">
<rect width="17.2626" height="17.2626" fill="white" transform="translate(0.736084 0.508057)"/>
</clipPath>
</defs>
</svg>
