<svg width="18" height="18" viewBox="0 0 18 18" fill="none" xmlns="http://www.w3.org/2000/svg">
<g clip-path="url(#clip0_337_1940)">
<path d="M8.74721 6.98171C8.17492 6.98171 7.62606 7.20905 7.22139 7.61373C6.81672 8.0184 6.58938 8.56725 6.58938 9.13954C6.58938 9.71183 6.81672 10.2607 7.22139 10.6654C7.62606 11.07 8.17492 11.2974 8.74721 11.2974C9.3195 11.2974 9.86835 11.07 10.273 10.6654C10.6777 10.2607 10.905 9.71183 10.905 9.13954C10.905 8.56725 10.6777 8.0184 10.273 7.61373C9.86835 7.20905 9.3195 6.98171 8.74721 6.98171ZM8.74721 5.54316C9.70103 5.54316 10.6158 5.92206 11.2902 6.59652C11.9647 7.27097 12.3436 8.18572 12.3436 9.13954C12.3436 10.0934 11.9647 11.0081 11.2902 11.6826C10.6158 12.357 9.70103 12.7359 8.74721 12.7359C7.79339 12.7359 6.87863 12.357 6.20418 11.6826C5.52973 11.0081 5.15083 10.0934 5.15083 9.13954C5.15083 8.18572 5.52973 7.27097 6.20418 6.59652C6.87863 5.92206 7.79339 5.54316 8.74721 5.54316ZM13.4225 5.36334C13.4225 5.6018 13.3278 5.83048 13.1592 5.9991C12.9906 6.16771 12.7619 6.26244 12.5234 6.26244C12.285 6.26244 12.0563 6.16771 11.8877 5.9991C11.719 5.83048 11.6243 5.6018 11.6243 5.36334C11.6243 5.12489 11.719 4.8962 11.8877 4.72758C12.0563 4.55897 12.285 4.46425 12.5234 4.46425C12.7619 4.46425 12.9906 4.55897 13.1592 4.72758C13.3278 4.8962 13.4225 5.12489 13.4225 5.36334ZM8.74721 3.38533C6.96772 3.38533 6.67713 3.39037 5.84924 3.42705C5.28533 3.45366 4.90699 3.52919 4.55598 3.66585C4.24382 3.78669 4.01868 3.93126 3.77917 4.1715C3.55404 4.38901 3.38094 4.65455 3.27279 4.94832C3.13613 5.30076 3.06061 5.67838 3.03471 6.24158C2.99731 7.03566 2.993 7.3133 2.993 9.13954C2.993 10.919 2.99803 11.2096 3.03471 12.0375C3.06133 12.6007 3.13685 12.9798 3.27279 13.33C3.39507 13.6429 3.53893 13.8681 3.77773 14.1069C4.02012 14.3485 4.24526 14.4931 4.55455 14.6125C4.90987 14.7499 5.28821 14.8261 5.84924 14.852C6.64332 14.8894 6.92097 14.8938 8.74721 14.8938C10.5267 14.8938 10.8173 14.8887 11.6452 14.852C12.2076 14.8254 12.5867 14.7499 12.9377 14.614C13.2492 14.4924 13.4757 14.3478 13.7145 14.109C13.9569 13.8666 14.1015 13.6415 14.2209 13.3322C14.3576 12.9776 14.4338 12.5985 14.4597 12.0375C14.4971 11.2434 14.5014 10.9658 14.5014 9.13954C14.5014 7.36005 14.4964 7.06946 14.4597 6.24158C14.4331 5.6791 14.3576 5.29932 14.2209 4.94832C14.1125 4.65485 13.9397 4.38941 13.7153 4.1715C13.4978 3.94626 13.2323 3.77314 12.9384 3.66513C12.586 3.52847 12.2076 3.45294 11.6452 3.42705C10.8511 3.38965 10.5735 3.38533 8.74721 3.38533ZM8.74721 1.94678C10.7015 1.94678 10.9453 1.95397 11.7121 1.98993C12.4781 2.0259 12.9996 2.14602 13.4585 2.3244C13.9332 2.50709 14.3331 2.75452 14.733 3.15372C15.0988 3.51329 15.3818 3.94823 15.5624 4.42828C15.74 4.88646 15.8609 5.40865 15.8968 6.17468C15.9306 6.94143 15.94 7.18527 15.94 9.13954C15.94 11.0938 15.9328 11.3377 15.8968 12.1044C15.8609 12.8704 15.74 13.3919 15.5624 13.8508C15.3823 14.3311 15.0992 14.7662 14.733 15.1254C14.3734 15.491 13.9384 15.774 13.4585 15.9547C13.0003 16.1323 12.4781 16.2532 11.7121 16.2892C10.9453 16.323 10.7015 16.3323 8.74721 16.3323C6.79293 16.3323 6.5491 16.3251 5.78235 16.2892C5.01632 16.2532 4.49485 16.1323 4.03595 15.9547C3.55571 15.7745 3.12069 15.4914 2.76139 15.1254C2.39557 14.7659 2.11255 14.3309 1.93206 13.8508C1.75368 13.3926 1.63356 12.8704 1.5976 12.1044C1.56379 11.3377 1.55444 11.0938 1.55444 9.13954C1.55444 7.18527 1.56164 6.94143 1.5976 6.17468C1.63356 5.40794 1.75368 4.88718 1.93206 4.42828C2.11205 3.94793 2.39514 3.51287 2.76139 3.15372C3.12079 2.78778 3.55578 2.50474 4.03595 2.3244C4.49485 2.14602 5.0156 2.0259 5.78235 1.98993C6.5491 1.95613 6.79293 1.94678 8.74721 1.94678Z" fill="white"/>
</g>
<defs>
<clipPath id="clip0_337_1940">
<rect width="17.2626" height="17.2626" fill="white" transform="translate(0.115845 0.508057)"/>
</clipPath>
</defs>
</svg>
