<svg width="280" height="258" viewBox="0 0 280 258" fill="none" xmlns="http://www.w3.org/2000/svg">
<path d="M118.381 92.9617C119.457 70.9686 119.189 48.9141 117.586 26.9621C117.545 26.443 117.524 25.8624 117.853 25.4526C118.237 24.9745 118.936 24.913 119.553 24.8994C130.838 24.6057 142.131 24.312 153.417 24.0183C154.096 23.9978 154.842 24.0115 155.343 24.4554C155.843 24.8994 155.932 25.637 155.987 26.2996C158.063 50.1026 160.139 73.9056 162.216 97.7086C162.291 98.5419 162.312 99.5049 161.688 100.065C161.249 100.461 160.612 100.529 160.023 100.57C148.744 101.452 137.417 101.759 126.103 101.492C123.753 101.438 121.273 101.315 119.313 100.031C117.353 98.7468 116.243 95.8645 117.648 93.993" fill="#FFE977"/>
<path d="M129.441 41.2371C128.749 40.8478 127.919 41.0049 127.364 41.565C126.878 42.0499 126.617 42.8149 126.823 43.4911C127.22 44.8025 128.865 45.3147 130.071 44.8298C130.66 44.5907 131.113 44.2287 131.489 43.7233C131.764 43.3545 131.962 42.89 132.038 42.4392C132.127 41.9133 132.14 41.3464 131.949 40.841C131.729 40.2741 131.387 39.7823 130.852 39.4613C129.961 38.9149 128.714 39.0378 127.878 39.6252C127.385 39.9736 127.015 40.4039 126.802 40.9776C126.59 41.5513 126.679 42.1592 126.933 42.6851C127.337 43.5389 128.372 43.9897 129.283 43.9487C130.325 43.9009 131.291 43.3545 131.64 42.3368C131.99 41.3191 131.414 40.2058 130.51 39.6662C129.694 39.1813 128.529 39.0583 127.714 39.6184C127.44 39.8096 127.234 40.0214 127.049 40.3014C126.864 40.5814 126.844 41.0595 127.049 41.3328C127.755 42.3026 128.728 43.3955 130.071 43.2179C130.736 43.1291 131.298 42.7602 131.675 42.2138C132.051 41.6674 132.106 40.882 131.736 40.3082C131.448 39.8574 130.811 39.632 130.331 39.9394C129.879 40.2331 129.653 40.8615 129.961 41.3396C129.982 41.3737 130.003 41.4079 130.023 41.4489L129.92 41.203C129.948 41.2645 129.961 41.3259 129.975 41.3874L129.941 41.1142C129.941 41.1757 129.941 41.2371 129.941 41.2986L129.975 41.0254C129.961 41.0869 129.948 41.1483 129.92 41.2098L130.023 40.9639C129.996 41.0254 129.961 41.08 129.927 41.1415C129.852 41.2713 130.085 40.9708 130.003 41.0459C129.975 41.0664 129.955 41.1005 129.934 41.121C129.913 41.1415 129.893 41.162 129.872 41.1757C129.756 41.2849 130.044 41.0664 129.961 41.1074C129.893 41.1415 129.824 41.1893 129.756 41.2235L130.003 41.121C129.893 41.1688 129.79 41.1961 129.674 41.2098L129.948 41.1757C129.865 41.1825 129.776 41.1825 129.694 41.1757L129.968 41.2098C129.838 41.1893 129.708 41.1552 129.585 41.1005L129.831 41.203C129.701 41.1483 129.585 41.0732 129.461 40.9981C129.358 40.9298 129.653 41.162 129.53 41.0527C129.502 41.0322 129.475 41.0117 129.454 40.9844C129.4 40.9366 129.338 40.882 129.29 40.8273C129.187 40.7249 129.091 40.6088 128.995 40.4995C128.995 40.4926 128.934 40.4175 128.927 40.4175C128.927 40.4175 129.084 40.6224 128.995 40.4995C128.94 40.4312 128.892 40.3629 128.844 40.2946V41.3259C128.961 41.1483 128.68 41.5035 128.797 41.3806C128.838 41.3396 128.879 41.3054 128.913 41.2645C128.975 41.203 128.707 41.4011 128.783 41.3669C128.803 41.3532 128.831 41.3396 128.851 41.3259C128.899 41.2986 128.947 41.2781 128.995 41.2508L128.749 41.3532C128.858 41.3054 128.975 41.2781 129.091 41.2645L128.817 41.2986C128.961 41.2781 129.105 41.2849 129.249 41.2986L128.975 41.2645C129.146 41.2849 129.31 41.3328 129.468 41.3942L129.221 41.2918C129.31 41.3328 129.4 41.3737 129.482 41.4215C129.523 41.4489 129.564 41.4762 129.612 41.5035C129.715 41.5718 129.482 41.4011 129.482 41.4079C129.489 41.4284 129.53 41.4489 129.543 41.4625C129.578 41.4898 129.605 41.524 129.639 41.5513C129.66 41.5718 129.674 41.5923 129.694 41.6128C129.776 41.6947 129.591 41.483 129.591 41.483C129.612 41.565 129.701 41.6538 129.735 41.7357L129.632 41.4898C129.674 41.5923 129.701 41.6879 129.722 41.7972L129.687 41.524C129.701 41.6264 129.701 41.7221 129.687 41.8245L129.722 41.5513C129.708 41.6469 129.68 41.7426 129.646 41.8314L129.749 41.5855C129.715 41.6606 129.667 41.7289 129.626 41.7972C129.756 41.5513 129.783 41.606 129.708 41.6879C129.68 41.7152 129.653 41.7494 129.626 41.7767C129.543 41.8518 129.434 41.8723 129.715 41.7152C129.687 41.7289 129.667 41.7494 129.639 41.7699C129.571 41.8177 129.495 41.8518 129.42 41.886L129.667 41.7835C129.516 41.845 129.358 41.886 129.201 41.9065L129.475 41.8723C129.304 41.8928 129.125 41.8928 128.954 41.8723L129.228 41.9065C129.071 41.886 128.913 41.845 128.762 41.7835L129.009 41.886C128.94 41.8587 128.879 41.8245 128.817 41.7835C128.783 41.7631 128.749 41.7357 128.714 41.7152C128.995 41.886 128.892 41.8587 128.817 41.7904C128.79 41.7631 128.769 41.7426 128.742 41.7152C128.605 41.5786 128.858 41.886 128.817 41.8177C128.776 41.7494 128.735 41.6879 128.707 41.6128L128.81 41.8587C128.769 41.7631 128.749 41.6674 128.728 41.5581L128.762 41.8314C128.749 41.7221 128.749 41.6196 128.762 41.5103L128.728 41.7835C128.742 41.6811 128.769 41.5786 128.81 41.483L128.707 41.7289C128.749 41.6333 128.803 41.5445 128.858 41.4557C128.927 41.3532 128.762 41.5786 128.762 41.5786C128.783 41.5581 128.803 41.5308 128.817 41.5103C128.851 41.4694 128.892 41.4284 128.934 41.3942C128.968 41.3601 129.009 41.3328 129.043 41.2986C128.776 41.5308 128.92 41.3942 129.002 41.3396C129.105 41.2781 129.208 41.2235 129.317 41.1757L129.071 41.2781C129.235 41.2098 129.4 41.162 129.578 41.1347L129.304 41.1688C129.461 41.1483 129.619 41.1483 129.783 41.1688L129.509 41.1347C129.639 41.1552 129.77 41.1893 129.893 41.2371L129.646 41.1347C129.728 41.1688 129.797 41.2098 129.872 41.2576C130.009 41.3396 129.653 41.0664 129.797 41.203C129.831 41.2371 129.865 41.2645 129.893 41.2986C129.92 41.3259 129.941 41.3601 129.968 41.3874C129.742 41.1552 129.865 41.244 129.92 41.3328C129.968 41.4079 130.009 41.483 130.044 41.565L129.941 41.3191C130.003 41.4694 130.05 41.6264 130.071 41.7904L130.037 41.5172C130.064 41.7084 130.057 41.8997 130.037 42.0909L130.071 41.8177C130.044 42.0294 129.989 42.2275 129.907 42.4256L130.009 42.1797C129.955 42.3026 129.9 42.4187 129.831 42.528C129.797 42.5758 129.763 42.6236 129.728 42.6715C129.667 42.7671 129.907 42.4597 129.804 42.569C129.783 42.5963 129.763 42.6168 129.742 42.6441C129.701 42.6851 129.66 42.7261 129.619 42.7671C129.598 42.7876 129.571 42.8081 129.543 42.8286C129.461 42.9105 129.77 42.6646 129.646 42.7534C129.537 42.8286 129.427 42.89 129.304 42.9447L129.55 42.8422C129.4 42.9037 129.249 42.9447 129.091 42.972L129.365 42.9378C129.201 42.9583 129.036 42.9583 128.872 42.9378L129.146 42.972C129.002 42.9515 128.858 42.9173 128.721 42.8627L128.968 42.9652C128.906 42.9378 128.851 42.9105 128.797 42.8764C128.776 42.8627 128.749 42.8422 128.728 42.8286C128.653 42.7876 128.927 43.013 128.824 42.8969C128.803 42.8764 128.783 42.8559 128.762 42.8354C128.666 42.7466 128.851 42.931 128.844 42.9447C128.844 42.9447 128.749 42.7807 128.742 42.7603L128.844 43.0061C128.817 42.9447 128.803 42.8832 128.797 42.8217L128.831 43.0949C128.824 43.0198 128.824 42.9447 128.831 42.8627L128.797 43.1359C128.81 43.0608 128.831 42.9856 128.858 42.9105L128.755 43.1564C128.776 43.1018 128.803 43.0471 128.838 42.9993C128.851 42.9788 128.865 42.9583 128.879 42.931C128.92 42.8559 128.694 43.1359 128.803 43.0335C128.824 43.0198 128.838 42.9993 128.858 42.9788C128.94 42.89 128.749 43.0608 128.735 43.0676C128.783 43.0539 128.844 42.9993 128.892 42.972L128.646 43.0744C128.701 43.0539 128.755 43.0335 128.817 43.0266L128.543 43.0608C128.605 43.0539 128.659 43.0539 128.721 43.0608L128.447 43.0266C128.495 43.0335 128.543 43.0471 128.584 43.0676L128.337 42.9652C128.337 42.9652 128.385 42.9856 128.406 42.9993C128.872 43.2589 129.55 43.1291 129.811 42.6305C130.071 42.1319 129.941 41.5103 129.441 41.2303V41.2371Z" fill="black"/>
<path d="M141.816 39.9931C141.432 41.3045 141.638 42.7866 142.385 43.9409C142.686 44.4053 143.296 44.5966 143.789 44.3097C144.865 43.6813 145.352 42.247 144.913 41.0859C144.646 40.3756 144.153 39.8701 143.447 39.5901C142.912 39.3784 142.254 39.3852 141.713 39.5559C141.09 39.7608 140.555 40.1433 140.206 40.6897C139.918 41.1405 139.815 41.6869 140.158 42.1446C140.384 42.4451 140.63 42.691 140.953 42.889C141.508 43.2237 142.179 43.3398 142.816 43.2579C143.543 43.1623 144.153 42.7934 144.591 42.206C145.359 41.1747 145.194 39.6038 144.317 38.6885C144.194 38.5656 144.043 38.4221 143.892 38.3402C143.55 38.1489 143.193 38.1899 142.851 38.3334C142.57 38.4495 142.302 38.6134 142.097 38.8456C141.679 39.3101 141.46 39.877 141.418 40.4985C141.323 41.7757 142.357 42.9983 143.687 42.93C145.016 42.8617 146.256 41.7826 146.154 40.4234C146.126 40.0682 146.023 39.8155 145.783 39.5423C145.667 39.4057 145.516 39.2964 145.372 39.2008C145.057 38.989 144.687 38.9003 144.31 38.8661C143.652 38.8115 143.008 39.0915 142.563 39.5628C141.453 40.7239 142.878 42.5749 144.303 42.2129C144.673 42.1172 144.982 41.8577 145.174 41.5367C145.448 41.0722 145.297 40.3961 144.804 40.1365C144.31 39.877 143.687 40.0067 143.399 40.5053C143.317 40.6488 143.563 40.3209 143.481 40.4029C143.399 40.4848 143.728 40.2458 143.598 40.3141C143.584 40.3209 143.879 40.2185 143.755 40.2458C143.735 40.2458 144.07 40.2185 143.933 40.2185C143.81 40.2185 144.111 40.2458 144.105 40.2458C144.105 40.239 144.036 40.2253 144.022 40.2253C143.913 40.2048 144.283 40.3619 144.153 40.2799C144.125 40.2663 144.098 40.2458 144.07 40.2321C143.906 40.1365 144.276 40.4165 144.118 40.2663C143.961 40.116 144.249 40.478 144.153 40.3141C144.057 40.1502 144.235 40.5873 144.18 40.3892C144.159 40.3004 144.207 40.2799 144.201 40.5668C144.201 40.4165 144.146 40.8605 144.18 40.7171C144.111 40.963 144.07 40.9493 144.118 40.8742C143.974 41.0996 143.968 41.0586 144.043 40.9834C144.064 40.963 144.091 40.9356 144.111 40.9151C144.207 40.8195 144.194 40.922 144.043 40.963C144.064 40.963 144.111 40.922 144.132 40.9083C144.255 40.8263 144.043 40.9493 144.022 40.9493C144.057 40.9493 144.111 40.922 144.146 40.9151C144.344 40.8468 143.981 40.9151 144.07 40.9151C144.125 40.9151 144.249 40.8878 144.296 40.9151C144.303 40.9151 144.016 40.8537 144.173 40.9015C144.201 40.9083 144.242 40.922 144.269 40.9288C144.447 40.9698 144.084 40.8263 144.187 40.8947C144.214 40.9151 144.249 40.9288 144.276 40.9425C144.392 41.0039 144.296 41.0313 144.207 40.8878C144.228 40.922 144.283 40.9766 144.31 40.9971L144.194 40.7239C144.105 40.4302 144.07 40.3551 144.084 40.4985C144.084 40.5258 144.084 40.5668 144.084 40.5941C144.084 40.7785 144.139 40.3687 144.098 40.4917C144.084 40.519 144.084 40.5531 144.07 40.5873C144.043 40.6897 143.974 40.7034 144.111 40.4985C144.098 40.5258 144.084 40.56 144.07 40.5873C144.057 40.6146 144.036 40.6419 144.022 40.6693C143.933 40.8263 144.18 40.4917 144.064 40.6214C144.016 40.6761 143.961 40.7307 143.906 40.7785C143.831 40.8537 143.769 40.8263 143.974 40.7239C143.947 40.7376 143.92 40.7649 143.892 40.7785C143.844 40.8059 143.611 40.9083 143.796 40.84C143.981 40.7717 143.707 40.8673 143.659 40.8742C143.639 40.8742 143.556 40.9083 143.536 40.9015C143.522 40.8947 143.831 40.8878 143.666 40.881C143.611 40.881 143.351 40.8605 143.563 40.8878C143.803 40.922 143.481 40.881 143.467 40.8468C143.461 40.8332 143.721 40.9834 143.577 40.8878C143.543 40.8673 143.488 40.8263 143.454 40.8127C143.659 40.9083 143.618 40.9561 143.556 40.8878C143.536 40.8673 143.515 40.8468 143.495 40.8264C143.33 40.6488 143.625 41.0381 143.495 40.8264C143.481 40.799 143.467 40.7785 143.454 40.7512C143.378 40.6283 143.515 40.8673 143.508 40.8742C143.508 40.8742 143.454 40.6829 143.447 40.6624C143.399 40.4917 143.461 40.9083 143.461 40.7785C143.461 40.7376 143.454 40.6897 143.454 40.6419C143.454 40.5873 143.481 40.3209 143.454 40.5327C143.426 40.7444 143.474 40.4575 143.488 40.4029C143.495 40.3756 143.508 40.3482 143.515 40.3209C143.563 40.157 143.399 40.5531 143.481 40.4029C143.515 40.3414 143.556 40.2731 143.591 40.2116C143.666 40.0887 143.515 40.3209 143.508 40.3141C143.508 40.3141 143.584 40.2321 143.598 40.2185C143.625 40.1911 143.748 40.0955 143.598 40.2185C143.447 40.3414 143.563 40.2458 143.598 40.2185C143.632 40.198 143.666 40.1843 143.693 40.1638C143.748 40.1297 143.419 40.2594 143.639 40.198L142.844 40.0955C142.59 39.9111 142.741 40.0136 142.796 40.0682C142.837 40.1092 142.878 40.157 142.919 40.198C142.988 40.2594 142.782 39.9726 142.878 40.157C142.905 40.2116 142.94 40.2594 142.967 40.3141C143.056 40.4712 142.892 40.0819 142.947 40.2594C142.96 40.3073 142.981 40.3619 142.995 40.4097C143.008 40.4575 143.008 40.519 143.029 40.56C142.947 40.3346 143.008 40.3687 143.015 40.4985C143.015 40.601 143.001 40.7102 143.008 40.8127C142.995 40.5258 143.036 40.6419 143.008 40.7444C142.995 40.8059 142.974 40.8605 142.96 40.922C142.905 41.1269 143.036 40.7922 142.988 40.8673C142.953 40.9151 142.933 40.9766 142.899 41.0244L142.871 41.0654C142.81 41.1474 142.83 41.12 142.94 40.9834C142.899 41.0108 142.864 41.0654 142.83 41.0996C142.727 41.1952 142.707 41.1337 142.878 41.0722C142.837 41.0859 142.782 41.1337 142.748 41.1542C142.72 41.1679 142.686 41.1883 142.659 41.202L142.81 41.1405C142.762 41.1474 142.714 41.1747 142.659 41.1883C142.604 41.202 142.535 41.2088 142.481 41.2293C142.385 41.2566 142.768 41.2157 142.549 41.2157C142.446 41.2157 142.302 41.243 142.207 41.2088L142.378 41.2293C142.344 41.2293 142.309 41.2157 142.275 41.2088C142.227 41.1952 142.172 41.1815 142.124 41.1679C142.015 41.1337 141.974 41.0654 142.172 41.1952C142.131 41.1679 142.076 41.1474 142.035 41.1269C141.994 41.1064 141.946 41.0722 141.905 41.0449C141.747 40.9493 142.076 41.202 141.953 41.0791C141.912 41.0381 141.871 40.9834 141.823 40.9493C141.775 40.8878 141.795 40.922 141.905 41.0517C141.884 41.0244 141.864 40.9971 141.843 40.963L141.946 41.7552C142.008 41.5913 141.816 42.0011 141.946 41.7757C141.967 41.7348 142.008 41.6938 142.028 41.6528C141.919 41.7962 141.891 41.8235 141.96 41.7416C141.974 41.7211 141.994 41.7074 142.008 41.6869C142.049 41.646 142.097 41.6118 142.131 41.5708C141.98 41.7416 141.98 41.6801 142.083 41.6118C142.138 41.5777 142.2 41.5435 142.254 41.5162C142.405 41.4274 142.015 41.5982 142.193 41.5435C142.241 41.5299 142.289 41.5094 142.337 41.4957C142.398 41.4752 142.467 41.4684 142.529 41.4547C142.275 41.5299 142.337 41.4752 142.453 41.4684C142.508 41.4684 142.57 41.4684 142.625 41.4684C142.748 41.4684 142.837 41.5435 142.57 41.4547C142.618 41.4684 142.666 41.4752 142.714 41.4889C142.748 41.4957 142.775 41.5094 142.81 41.5162C142.905 41.5503 142.871 41.5367 142.7 41.4684C142.741 41.4957 142.789 41.5162 142.83 41.5367C142.857 41.5572 142.885 41.5708 142.912 41.5913C142.782 41.482 142.741 41.4547 142.803 41.5094C142.837 41.5503 142.885 41.5913 142.926 41.6323C143.056 41.7552 142.796 41.4274 142.885 41.5777C142.912 41.6255 142.94 41.6733 142.974 41.7279C143.09 41.9192 142.905 41.5094 142.953 41.6869C142.967 41.7348 142.981 41.7826 142.995 41.8304C143.001 41.8645 143.008 41.8918 143.015 41.926C143.036 42.0353 143.029 41.9943 143.001 41.8031C143.001 41.9123 143.001 42.0216 143.001 42.1241C142.995 42.3563 143.056 41.8919 143.001 42.0763C142.988 42.1241 142.981 42.1719 142.967 42.2197C142.94 42.329 142.83 42.4656 142.988 42.206C142.96 42.247 142.947 42.2948 142.919 42.3358C142.892 42.3768 142.864 42.4178 142.844 42.4588C142.755 42.6022 143.029 42.2538 142.844 42.4383C142.81 42.4724 142.762 42.4997 142.734 42.5407C142.878 42.4314 142.905 42.4109 142.823 42.4724C142.796 42.4929 142.768 42.5066 142.741 42.5271L144.146 42.8959C144.07 42.7798 144.002 42.6637 143.94 42.5407C143.913 42.4929 143.892 42.4383 143.865 42.3836C143.81 42.2675 143.933 42.5885 143.879 42.4041C143.796 42.1514 143.728 41.9055 143.68 41.6391C143.652 41.5094 143.7 41.8645 143.68 41.6733C143.68 41.605 143.666 41.5367 143.666 41.4684C143.666 41.3454 143.666 41.2157 143.666 41.0927C143.666 41.0381 143.673 40.9766 143.68 40.922C143.632 41.1542 143.7 40.6829 143.68 40.922C143.707 40.7854 143.735 40.6556 143.776 40.519C143.926 40.0067 143.591 39.3784 143.056 39.2554C142.522 39.1325 141.953 39.4193 141.789 39.9726L141.816 39.9931Z" fill="black"/>
<path d="M133.36 54.0227C134.066 52.3766 135.608 51.4204 137.341 51.2087C138.966 51.0106 140.836 51.5024 141.809 52.8138C142.138 53.2577 142.7 53.4831 143.214 53.1826C143.653 52.9299 143.913 52.2264 143.584 51.7824C142.111 49.8153 139.692 48.9001 137.259 49.1733C134.827 49.4465 132.552 50.7306 131.579 52.9913C131.359 53.4968 131.428 54.091 131.949 54.3915C132.38 54.6442 133.134 54.5349 133.353 54.0227H133.36Z" fill="black"/>
<path d="M142.631 100.953C140.822 98.5488 140.096 95.4616 138.869 92.7501C137.725 90.2229 136.389 87.484 136.779 84.629C136.951 83.3928 137.465 82.3204 138.362 81.4462C139.26 80.5719 140.213 79.9504 141.055 79.1171C143.043 77.1569 143.324 74.6229 141.898 72.2323C141.144 70.9756 140.096 69.8896 139.52 68.5236C138.869 66.9936 138.78 65.2861 139.192 63.681C139.623 61.9735 136.985 61.2495 136.546 62.957C135.765 66.0169 136.403 69.1246 138.212 71.6928C138.911 72.6831 139.993 73.8169 140.123 75.0737C140.226 76.1255 139.438 76.9178 138.712 77.5598C137.8 78.3726 136.766 79.0693 135.964 79.9982C135.018 81.0842 134.402 82.4024 134.155 83.8162C133.614 86.9513 134.628 89.9019 135.882 92.7364C136.581 94.3142 137.28 95.8851 137.883 97.5038C138.486 99.1226 139.171 100.878 140.26 102.326C140.706 102.913 141.446 103.221 142.138 102.818C142.72 102.476 143.077 101.54 142.631 100.946V100.953Z" fill="#572800"/>
<path d="M119.408 92.9615C120.135 77.9626 120.251 62.9363 119.737 47.9305C119.607 44.1534 119.436 40.3695 119.23 36.5925C119.128 34.7347 119.018 32.87 118.895 31.0122C118.833 30.1107 118.771 29.2091 118.71 28.3075C118.668 27.7611 118.278 26.238 118.888 25.9853C119.525 25.7121 120.58 25.8965 121.259 25.876C122.225 25.8487 123.198 25.8282 124.164 25.8008C126.048 25.753 127.926 25.7052 129.81 25.6574C133.572 25.5618 137.334 25.4593 141.096 25.3637C144.858 25.2681 148.737 25.1656 152.554 25.0632C153.109 25.0495 154.253 24.8173 154.685 25.2749C155.144 25.7599 155.02 27.0508 155.075 27.6586C155.247 29.5847 155.411 31.5108 155.582 33.4369C156.24 40.9774 156.898 48.511 157.556 56.0515C158.214 63.592 158.871 71.1256 159.529 78.6661C159.858 82.409 160.18 86.1451 160.509 89.888C160.681 91.8141 160.845 93.7402 161.016 95.6663C161.092 96.4996 161.194 97.3328 161.229 98.1729C161.256 98.8901 161.194 99.3819 160.406 99.5116C158.632 99.7985 156.747 99.7985 154.952 99.9078C153.033 100.031 151.108 100.133 149.189 100.222C145.461 100.393 141.727 100.502 137.992 100.543C134.258 100.584 130.523 100.57 126.789 100.488C124.006 100.427 120.169 100.529 118.572 97.7631C117.969 96.725 117.839 95.5297 118.538 94.512C119.292 93.426 117.51 92.4015 116.763 93.4806C115.085 95.9053 116.387 99.2043 118.614 100.796C121.471 102.838 125.493 102.531 128.824 102.585C136.916 102.715 145.009 102.544 153.088 102.08C155.068 101.964 157.042 101.834 159.015 101.684C160.585 101.568 162.421 101.533 163.065 99.8053C163.312 99.136 163.305 98.412 163.25 97.7153C163.168 96.6976 163.072 95.6731 162.983 94.6554C162.805 92.6132 162.627 90.5778 162.448 88.5356C161.736 80.3736 161.023 72.2116 160.31 64.0564C159.598 55.9012 158.906 47.9646 158.207 39.9119C157.85 35.8343 157.494 31.7499 157.138 27.6723C157.001 26.1219 157.083 24.1206 155.445 23.3215C154.767 22.9868 153.986 22.9868 153.246 23.0073C152.163 23.0346 151.08 23.062 149.998 23.0893C141.843 23.301 133.689 23.5128 125.535 23.7245C123.499 23.7791 121.464 23.7928 119.429 23.8816C117.826 23.9567 116.585 24.7012 116.53 26.4292C116.476 28.3826 116.798 30.418 116.921 32.3714C117.044 34.3249 117.168 36.4285 117.271 38.4571C118.107 54.583 118.223 70.7431 117.613 86.8759C117.538 88.9044 117.449 90.9398 117.353 92.9684C117.291 94.2866 119.347 94.2866 119.408 92.9684V92.9615Z" fill="#1D1D1B"/>
<g clip-path="url(#clip0_745_5383)">
<path d="M78.3295 129.185L82.5601 129.174H84.6755C85.1541 129.166 86.0033 129.007 86.4279 129.302C86.8294 129.582 86.8178 130.374 86.8564 130.806C86.9182 131.482 86.9413 132.162 86.9182 132.842C86.8719 134.21 86.6402 135.554 86.2465 136.864C86.0304 137.583 87.1498 137.89 87.3621 137.175C87.8137 135.663 88.0646 134.085 88.0839 132.504C88.0916 131.769 88.0492 131.031 87.9604 130.301C87.8832 129.683 87.7867 129.014 87.3312 128.548C86.8757 128.082 86.2349 128.004 85.625 128C84.8376 127.996 84.054 128.004 83.2665 128.008L78.3295 128.02C77.5845 128.02 77.5845 129.189 78.3295 129.185Z" fill="black"/>
<path d="M86.6286 132.573C84.6175 132.573 82.6064 132.573 80.5915 132.573C79.8465 132.573 79.8465 133.739 80.5915 133.739C82.6026 133.739 84.6137 133.739 86.6286 133.739C87.3736 133.739 87.3736 132.573 86.6286 132.573Z" fill="black"/>
<path d="M77.789 140.61C80.3406 140.999 82.9191 141.111 85.4938 140.921C86.231 140.866 86.2388 139.701 85.4938 139.755C83.0272 139.938 80.5413 139.856 78.0979 139.487C77.7852 139.44 77.4802 139.565 77.3837 139.895C77.3065 140.171 77.4802 140.563 77.789 140.614V140.61Z" fill="black"/>
<path d="M83.1121 140.513C83.4325 142.421 83.749 144.329 84.0694 146.237C84.1196 146.547 84.5018 146.722 84.7835 146.645C85.1117 146.555 85.239 146.24 85.1889 145.926C84.8685 144.018 84.5519 142.11 84.2316 140.202C84.1814 139.891 83.7992 139.716 83.5174 139.794C83.1893 139.883 83.062 140.198 83.1121 140.513Z" fill="black"/>
<path d="M95.0101 146.428C95.3155 147.536 95.6173 148.644 95.9227 149.752C95.9706 149.933 96.3349 150.034 96.6035 149.989C96.9163 149.937 97.0378 149.755 96.9899 149.572C96.6845 148.464 96.3827 147.356 96.0773 146.248C96.0294 146.067 95.6651 145.966 95.3965 146.011C95.0837 146.063 94.9622 146.245 95.0101 146.428Z" fill="black"/>
<path d="M93.2718 131.038C94.2793 131.299 95.2791 131.066 96.2943 131.077C96.6687 131.081 97.1165 131.12 97.3635 131.45C97.7302 131.948 97.5681 132.834 97.5527 133.409C97.4755 136.498 97.2593 139.58 96.9119 142.645C96.827 143.392 97.985 143.384 98.0699 142.645C98.4482 139.28 98.73 135.865 98.7261 132.472C98.7261 131.24 98.2011 130.168 96.908 129.962C95.804 129.787 94.6653 130.199 93.5768 129.915C92.8549 129.729 92.5461 130.852 93.268 131.038H93.2718Z" fill="black"/>
<path d="M97.1897 137.128C95.4295 137.128 93.6693 137.128 91.9091 137.128C91.1641 137.128 91.1641 138.294 91.9091 138.294C93.6693 138.294 95.4295 138.294 97.1897 138.294C97.9347 138.294 97.9347 137.128 97.1897 137.128Z" fill="black"/>
<path d="M91.1564 146.613C94.808 146.78 98.4635 146.73 102.107 146.465C102.845 146.411 102.852 145.245 102.107 145.3C98.4635 145.564 94.808 145.611 91.1564 145.447C90.4114 145.412 90.4114 146.578 91.1564 146.613Z" fill="black"/>
<path d="M106.161 131.38C107.489 130.786 108.951 130.572 110.395 130.697C110.708 130.724 110.974 130.409 110.974 130.114C110.974 129.776 110.708 129.558 110.395 129.531C108.739 129.387 107.091 129.694 105.578 130.374C105.292 130.502 105.226 130.922 105.369 131.171C105.543 131.466 105.875 131.509 106.161 131.38Z" fill="black"/>
<path d="M105.686 131.859C105.427 133.432 105.195 135.01 104.987 136.588C104.883 137.369 104.786 138.15 104.698 138.931C104.609 139.712 104.447 140.47 104.516 141.22C104.624 142.42 105.458 143.155 106.624 143.244C107.697 143.33 108.797 142.914 109.851 143.236C110.565 143.454 110.87 142.327 110.16 142.113C109.214 141.826 108.249 142.024 107.288 142.078C106.902 142.102 106.438 142.137 106.091 141.927C105.628 141.647 105.643 141.049 105.678 140.571C105.879 137.765 106.35 134.944 106.805 132.169C106.925 131.435 105.809 131.12 105.69 131.859H105.686Z" fill="black"/>
<path d="M113.56 132.395C113.761 137.334 113.641 142.281 113.194 147.2C113.124 147.946 114.286 147.942 114.352 147.2C114.799 142.277 114.919 137.33 114.718 132.395C114.688 131.649 113.529 131.645 113.56 132.395Z" fill="black"/>
<path d="M114.556 143.038C114.61 142.987 114.661 142.941 114.715 142.894C114.742 142.871 114.769 142.847 114.796 142.824C114.827 142.797 114.854 142.781 114.807 142.816C114.931 142.727 115.058 142.642 115.189 142.564C115.313 142.49 115.44 142.424 115.572 142.366C115.579 142.362 115.68 142.319 115.626 142.342C115.572 142.366 115.672 142.327 115.68 142.323C115.757 142.296 115.83 142.268 115.907 142.241C116.043 142.199 116.181 142.16 116.324 142.132C116.394 142.117 116.463 142.105 116.537 142.094C116.587 142.086 116.602 142.086 116.544 142.094C116.579 142.094 116.614 142.086 116.652 142.082C116.957 142.055 117.262 142.063 117.563 142.105C117.864 142.148 118.154 141.81 118.142 141.522C118.127 141.173 117.888 140.982 117.563 140.939C116.181 140.753 114.749 141.262 113.742 142.222C113.522 142.432 113.514 142.836 113.742 143.046C113.97 143.255 114.325 143.271 114.56 143.046L114.556 143.038Z" fill="black"/>
<path d="M123.755 132.228C122.991 134.758 122.23 137.287 121.466 139.817C121.25 140.536 122.365 140.843 122.581 140.128C123.346 137.598 124.106 135.068 124.87 132.539C125.087 131.82 123.971 131.513 123.755 132.228Z" fill="black"/>
<path d="M122.987 135.802C124.905 136.673 126.53 138.091 127.627 139.902C128.013 140.543 129.016 139.956 128.626 139.315C127.437 137.345 125.662 135.744 123.573 134.796C123.288 134.668 122.952 134.714 122.782 135.006C122.635 135.254 122.705 135.674 122.991 135.802H122.987Z" fill="black"/>
<path d="M119.598 146.24C123.531 145.556 127.53 145.323 131.514 145.525C132.259 145.564 132.255 144.398 131.514 144.359C127.422 144.154 123.327 144.414 119.289 145.117C118.555 145.245 118.868 146.368 119.598 146.24Z" fill="black"/>
<path d="M141.11 132.227C140.099 135.138 139.083 138.045 138.072 140.955C137.825 141.666 138.944 141.969 139.188 141.266C140.199 138.355 141.214 135.449 142.225 132.538C142.472 131.827 141.353 131.524 141.11 132.227Z" fill="black"/>
<path d="M140.234 136.129C141.82 137.365 143.075 139.012 143.789 140.901C143.901 141.196 144.179 141.398 144.503 141.309C144.781 141.231 145.02 140.889 144.908 140.59C144.125 138.515 142.804 136.665 141.056 135.301C140.809 135.107 140.477 135.06 140.237 135.301C140.037 135.503 139.99 135.931 140.237 136.125L140.234 136.129Z" fill="black"/>
<path d="M144.846 137.827C145.476 137.578 146.109 137.33 146.738 137.081C146.884 137.023 147.004 136.953 147.085 136.813C147.159 136.688 147.189 136.502 147.143 136.362C147.097 136.222 147.012 136.086 146.877 136.012C146.742 135.938 146.572 135.896 146.429 135.954C145.8 136.203 145.167 136.451 144.538 136.7C144.391 136.758 144.271 136.828 144.19 136.968C144.117 137.093 144.086 137.279 144.132 137.419C144.179 137.559 144.263 137.695 144.399 137.769C144.534 137.843 144.704 137.885 144.846 137.827Z" fill="black"/>
<path d="M147.911 132.014C147.807 135.437 147.95 138.861 148.34 142.261C148.425 142.999 149.583 143.007 149.498 142.261C149.112 138.861 148.969 135.437 149.069 132.014C149.092 131.264 147.934 131.264 147.911 132.014Z" fill="black"/>
<path d="M153.2 130.499C153.196 132.34 153.192 134.178 153.188 136.02C153.188 136.821 153.122 137.652 153.207 138.453C153.281 139.137 153.566 139.762 154.238 140.023C154.987 140.314 155.94 140.202 156.732 140.225C157.523 140.248 158.353 140.388 159.071 140.116C159.739 139.867 160.09 139.269 160.206 138.589C160.341 137.773 160.372 136.926 160.445 136.102C160.634 133.984 160.819 131.866 161.009 129.749C161.074 129.002 159.916 129.006 159.851 129.749C159.673 131.738 159.499 133.728 159.322 135.717C159.275 136.23 159.229 136.743 159.187 137.256C159.148 137.68 159.152 138.134 159.04 138.546C158.816 139.347 157.754 139.09 157.118 139.071C156.612 139.055 156.106 139.04 155.601 139.028C155.315 139.02 154.747 139.094 154.524 138.853C154.315 138.632 154.354 138.204 154.35 137.928C154.346 137.419 154.35 136.914 154.35 136.405C154.354 134.439 154.358 132.473 154.361 130.502C154.361 129.752 153.203 129.752 153.203 130.502L153.2 130.499Z" fill="black"/>
<path d="M159.804 133.32C158.171 133.472 156.538 133.623 154.906 133.775C154.593 133.802 154.327 134.023 154.327 134.358C154.327 134.649 154.593 134.968 154.906 134.94C156.538 134.789 158.171 134.637 159.804 134.486C160.117 134.459 160.383 134.237 160.383 133.903C160.383 133.611 160.117 133.293 159.804 133.32Z" fill="black"/>
<path d="M162.448 136.397H165.467C165.768 136.397 166.061 136.129 166.046 135.814C166.03 135.5 165.791 135.231 165.467 135.231H162.448C162.147 135.231 161.854 135.5 161.869 135.814C161.885 136.129 162.124 136.397 162.448 136.397Z" fill="black"/>
<path d="M167.192 129.741C166.64 134.785 166.366 139.852 166.37 144.927C166.37 145.677 167.528 145.677 167.528 144.927C167.524 139.856 167.798 134.785 168.35 129.741C168.431 128.995 167.273 129.003 167.192 129.741Z" fill="black"/>
<path d="M172.616 133.898C171.871 134.796 171.091 135.837 171.087 137.065C171.087 138.06 171.666 139.101 172.616 139.455C173.685 139.851 174.704 139.14 175.244 138.243C175.823 137.283 176.094 135.954 175.746 134.87C175.364 133.673 174.16 132.779 172.89 133.094C172.168 133.273 172.473 134.4 173.199 134.217C173.754 134.077 174.368 134.508 174.596 135.076C174.882 135.791 174.719 136.708 174.391 137.38C174.249 137.671 174.059 137.971 173.82 138.169C173.708 138.262 173.569 138.332 173.457 138.363C173.318 138.402 173.175 138.402 173.083 138.375C172.608 138.247 172.261 137.652 172.249 137.127C172.234 136.199 172.878 135.39 173.438 134.714C173.639 134.473 173.673 134.128 173.438 133.891C173.233 133.685 172.82 133.646 172.62 133.891L172.616 133.898Z" fill="black"/>
<path d="M177.302 130.872C176.901 134.404 176.792 137.959 176.97 141.507C177.009 142.253 178.167 142.257 178.128 141.507C177.947 137.959 178.059 134.404 178.46 130.872C178.545 130.129 177.387 130.133 177.302 130.872Z" fill="black"/>
<path d="M178.062 137.104C179.317 136.844 180.575 136.58 181.83 136.319C182.135 136.257 182.312 135.892 182.235 135.6C182.146 135.282 181.83 135.13 181.521 135.192C180.266 135.453 179.008 135.717 177.753 135.977C177.448 136.04 177.271 136.405 177.348 136.696C177.437 137.015 177.753 137.166 178.062 137.104Z" fill="black"/>
<path d="M182.27 129.36C182.073 133.666 182.154 137.983 182.513 142.277C182.575 143.019 183.733 143.027 183.671 142.277C183.312 137.979 183.231 133.666 183.428 129.36C183.463 128.61 182.305 128.61 182.27 129.36Z" fill="black"/>
<path d="M187.963 131.233C186.852 131.412 186.242 132.566 186.253 133.619C186.265 134.8 186.994 135.849 188.168 136.11C189.434 136.39 190.804 135.803 191.607 134.804C192.503 133.685 192.804 131.956 191.997 130.701C191.19 129.445 189.226 128.995 188.106 130.137C187.581 130.67 188.4 131.497 188.925 130.961C189.036 130.848 189.021 130.86 189.129 130.794C189.179 130.763 189.229 130.736 189.283 130.712C189.183 130.755 189.361 130.689 189.365 130.689C189.403 130.677 189.442 130.67 189.476 130.658C189.484 130.658 189.67 130.631 189.554 130.642C189.693 130.631 189.832 130.631 189.971 130.646C189.874 130.635 190.001 130.654 190.025 130.658C190.075 130.67 190.121 130.681 190.171 130.693C190.322 130.736 190.314 130.732 190.426 130.79C190.658 130.91 190.754 130.977 190.924 131.182C191.194 131.513 191.314 132.002 191.302 132.469C191.291 132.935 191.148 133.425 190.882 133.837C190.65 134.202 190.299 134.509 189.89 134.73C189.519 134.932 189.141 135.033 188.708 135.01C188.708 135.01 188.511 134.995 188.623 135.01C188.573 135.002 188.523 134.995 188.477 134.983C188.369 134.96 188.261 134.928 188.16 134.886C188.253 134.925 188.071 134.839 188.075 134.843C188.025 134.816 187.975 134.785 187.925 134.754C187.898 134.734 187.871 134.719 187.844 134.695C187.952 134.777 187.797 134.645 187.778 134.625C187.743 134.59 187.712 134.555 187.682 134.517C187.766 134.618 187.67 134.497 187.658 134.478C187.616 134.408 187.577 134.338 187.539 134.268C187.465 134.132 187.57 134.377 187.523 134.229C187.508 134.182 187.492 134.136 187.477 134.089C187.45 133.996 187.431 133.899 187.411 133.802C187.435 133.945 187.411 133.782 187.411 133.759C187.407 133.693 187.404 133.627 187.404 133.561C187.404 133.51 187.404 133.463 187.411 133.413C187.411 133.359 187.431 133.269 187.411 133.374C187.431 133.261 187.454 133.153 187.489 133.044C187.504 132.997 187.519 132.954 187.535 132.908C187.489 133.032 187.535 132.904 187.554 132.877C187.577 132.838 187.597 132.795 187.624 132.756C187.639 132.729 187.759 132.581 187.666 132.69C187.697 132.655 187.724 132.62 187.755 132.589C187.766 132.578 187.894 132.465 187.832 132.515C187.763 132.57 187.878 132.484 187.882 132.484C187.936 132.453 187.987 132.422 188.041 132.399C187.909 132.457 188.052 132.399 188.075 132.395C188.137 132.379 188.199 132.364 188.264 132.356C188.573 132.305 188.747 131.917 188.67 131.637C188.581 131.307 188.268 131.179 187.956 131.229L187.963 131.233Z" fill="black"/>
<path d="M188.774 137.085C189.121 138.915 189.191 140.788 189.002 142.642C188.971 142.956 189.291 143.225 189.581 143.225C189.921 143.225 190.129 142.956 190.16 142.642C190.361 140.683 190.26 138.709 189.893 136.774C189.836 136.463 189.465 136.288 189.179 136.366C188.859 136.455 188.716 136.774 188.774 137.085Z" fill="black"/>
<path d="M184.702 146.648C187.593 146.648 190.484 146.648 193.379 146.648C194.124 146.648 194.124 145.482 193.379 145.482C190.488 145.482 187.597 145.482 184.702 145.482C183.957 145.482 183.957 146.648 184.702 146.648Z" fill="black"/>
<path d="M80.4022 162.017L80.3829 164.853L80.3752 166.217C80.3752 166.617 80.3636 167.029 80.518 167.41C80.8654 168.265 81.8111 168.331 82.6102 168.354C83.5173 168.378 84.4321 168.25 85.3007 167.989C86.0148 167.775 85.7098 166.649 84.9919 166.866C84.2739 167.084 83.5636 167.193 82.8263 167.193C82.4905 167.193 82.1277 167.2 81.7996 167.111C81.595 167.057 81.5564 166.952 81.5371 166.742C81.4715 165.992 81.5371 165.211 81.5409 164.461L81.5564 162.02C81.5602 161.271 80.4022 161.271 80.3984 162.02L80.4022 162.017Z" fill="black"/>
<path d="M89.0681 160.494V174.922C89.0681 175.672 90.2261 175.672 90.2261 174.922V160.494C90.2261 159.744 89.0681 159.744 89.0681 160.494Z" fill="black"/>
<path d="M91.0717 168.976C91.2917 168.836 91.5194 168.712 91.7588 168.607C91.643 168.658 91.8398 168.576 91.8591 168.568C91.9093 168.549 91.9556 168.533 92.0058 168.514C92.1293 168.471 92.2529 168.436 92.3802 168.405C92.5076 168.374 92.635 168.347 92.7624 168.323C92.7778 168.323 92.9477 168.296 92.8126 168.316C92.882 168.308 92.9515 168.3 93.0171 168.292C93.2758 168.273 93.5344 168.273 93.793 168.292C94.0941 168.316 94.3836 168.009 94.372 167.709C94.3566 167.375 94.1173 167.15 93.793 167.127C92.6427 167.037 91.4577 167.344 90.4849 167.97C90.2302 168.133 90.1028 168.494 90.2765 168.766C90.4425 169.023 90.7976 169.151 91.0678 168.976H91.0717Z" fill="black"/>
<path d="M102.748 159.549C101.976 161.01 101.123 162.755 101.768 164.426C102.347 165.926 103.818 166.816 105.365 166.147C106.771 165.541 108.068 164.142 108.697 162.751C109.326 161.36 109.33 159.755 108.315 158.535C107.384 157.416 105.667 156.825 104.393 157.711C103.783 158.135 104.362 159.145 104.976 158.718C105.713 158.201 106.62 158.496 107.234 159.079C108.037 159.844 108.141 160.894 107.79 161.916C107.4 163.05 106.477 164.057 105.508 164.733C105.045 165.055 104.466 165.366 103.891 165.164C103.447 165.009 103.13 164.624 102.93 164.212C102.277 162.86 103.123 161.325 103.748 160.136C104.095 159.475 103.1 158.885 102.748 159.549Z" fill="black"/>
<path d="M110.391 161.839H113.032C113.333 161.839 113.626 161.57 113.611 161.256C113.595 160.941 113.356 160.673 113.032 160.673H110.391C110.09 160.673 109.797 160.941 109.812 161.256C109.828 161.57 110.067 161.839 110.391 161.839Z" fill="black"/>
<path d="M114.36 158.061C113.398 161.815 112.642 165.615 112.098 169.455C112.051 169.769 112.175 170.076 112.503 170.174C112.773 170.251 113.171 170.076 113.217 169.766C113.761 165.93 114.518 162.126 115.479 158.372C115.664 157.645 114.549 157.335 114.363 158.061H114.36Z" fill="black"/>
<path d="M106.825 169.832L106.292 172.016C106.138 172.649 105.86 173.38 106.029 174.036C106.219 174.759 106.867 175.043 107.546 175.093C108.226 175.144 108.975 175.132 109.689 175.152C110.341 175.167 111.129 175.272 111.638 174.759C112.113 174.281 112.101 173.453 112.155 172.824C112.26 171.608 112.152 170.201 111.233 169.296C110.314 168.39 108.886 168.122 107.905 169.012C107.35 169.517 108.172 170.337 108.724 169.836C108.816 169.754 108.94 169.688 109.06 169.657C109.098 169.645 109.141 169.638 109.179 169.63C109.152 169.634 109.091 169.638 109.21 169.63C109.253 169.63 109.291 169.63 109.334 169.63C109.334 169.63 109.515 169.641 109.43 169.63C109.774 169.673 110.086 169.824 110.318 170.03C110.967 170.601 111.067 171.565 111.028 172.428C111.017 172.676 110.994 172.925 110.967 173.174C110.943 173.38 110.951 173.656 110.862 173.85C110.804 173.974 110.743 173.982 110.608 173.994C110.341 174.021 110.059 173.994 109.789 173.986C109.199 173.97 108.612 173.955 108.021 173.943C107.751 173.935 107.215 174.001 107.145 173.725C107.103 173.562 107.168 173.302 107.215 173.119C107.292 172.789 107.377 172.459 107.458 172.128L107.944 170.143C108.122 169.416 107.006 169.105 106.829 169.832H106.825Z" fill="black"/>
<path d="M119.447 158.8H122.84C123.141 158.8 123.434 158.531 123.419 158.217C123.404 157.902 123.164 157.634 122.84 157.634H119.447C119.146 157.634 118.853 157.902 118.868 158.217C118.883 158.531 119.123 158.8 119.447 158.8Z" fill="black"/>
<path d="M119.52 162.095C120.366 161.407 121.632 161.271 122.597 161.726L122.388 160.929C121.323 162.553 120.254 164.182 119.188 165.806C119.015 166.07 119.138 166.451 119.397 166.602C119.679 166.77 120.015 166.657 120.188 166.393C121.254 164.768 122.323 163.14 123.388 161.516C123.55 161.271 123.454 160.847 123.18 160.719C121.698 160.016 119.972 160.233 118.698 161.271C118.455 161.469 118.494 161.889 118.698 162.095C118.938 162.336 119.273 162.293 119.517 162.095H119.52Z" fill="black"/>
<path d="M121.937 163.703C122.002 163.727 122.068 163.754 122.137 163.781C122.207 163.808 122.157 163.781 122.118 163.773C122.153 163.785 122.184 163.8 122.215 163.816C122.33 163.87 122.446 163.925 122.558 163.987C122.797 164.115 123.025 164.259 123.245 164.418C123.268 164.434 123.292 164.453 123.315 164.469C123.357 164.469 123.396 164.531 123.315 164.469C123.353 164.469 123.434 164.566 123.465 164.589C123.569 164.675 123.67 164.768 123.766 164.861C123.963 165.048 124.145 165.25 124.311 165.464C124.5 165.704 124.936 165.677 125.129 165.464C125.361 165.211 125.33 164.896 125.129 164.64C124.38 163.695 123.365 162.992 122.242 162.58C121.956 162.475 121.593 162.697 121.527 162.988C121.454 163.319 121.628 163.594 121.933 163.707L121.937 163.703Z" fill="black"/>
<path d="M124.728 162.976H126.237C126.538 162.976 126.831 162.708 126.816 162.393C126.8 162.079 126.561 161.811 126.237 161.811H124.728C124.426 161.811 124.133 162.079 124.149 162.393C124.164 162.708 124.403 162.976 124.728 162.976Z" fill="black"/>
<path d="M127.14 159.355C126.885 161.885 126.631 164.419 126.376 166.948C126.345 167.263 126.665 167.531 126.955 167.531C127.295 167.531 127.503 167.263 127.534 166.948C127.789 164.419 128.043 161.885 128.298 159.355C128.329 159.041 128.009 158.772 127.719 158.772C127.379 158.772 127.171 159.041 127.14 159.355Z" fill="black"/>
<path d="M121.956 172.175C120.856 172.676 120.443 174.056 120.725 175.171C121.049 176.457 122.323 177.211 123.608 177.071C125.013 176.916 126.152 175.944 126.476 174.545C126.777 173.255 126.441 171.635 125.403 170.749C124.365 169.863 122.624 169.49 121.836 170.85C121.462 171.499 122.462 172.086 122.836 171.437C122.84 171.429 122.94 171.277 122.867 171.371C122.898 171.328 122.937 171.297 122.971 171.258C123.075 171.145 122.917 171.285 122.991 171.239C123.025 171.215 123.06 171.196 123.099 171.176C123.222 171.103 123.006 171.192 123.145 171.161C123.195 171.149 123.241 171.134 123.292 171.122C123.319 171.114 123.4 171.114 123.292 171.122C123.361 171.118 123.431 171.114 123.5 171.118C123.512 171.118 123.689 171.137 123.562 171.118C123.597 171.122 123.635 171.13 123.67 171.137C123.782 171.161 123.89 171.192 123.998 171.231C124.106 171.27 124.048 171.246 124.021 171.239C124.075 171.262 124.129 171.289 124.179 171.316C124.284 171.371 124.388 171.433 124.484 171.503C124.527 171.534 124.6 171.588 124.689 171.674C124.758 171.74 124.828 171.814 124.89 171.887C124.824 171.806 124.936 171.954 124.936 171.957C124.963 172 124.99 172.043 125.013 172.086C125.079 172.198 125.148 172.334 125.187 172.439C125.384 172.929 125.449 173.407 125.403 173.928C125.318 174.86 124.708 175.614 123.851 175.847C123.434 175.96 123.029 175.96 122.608 175.789C122.674 175.816 122.581 175.777 122.574 175.773C122.516 175.746 122.462 175.715 122.408 175.684C122.303 175.622 122.3 175.622 122.207 175.532C122.068 175.4 122.006 175.315 121.902 175.089C121.952 175.198 121.883 175.031 121.879 175.023C121.86 174.961 121.84 174.899 121.825 174.837C121.813 174.79 121.806 174.747 121.798 174.701C121.786 174.631 121.786 174.627 121.798 174.689C121.798 174.65 121.79 174.615 121.79 174.576C121.775 174.301 121.79 174.227 121.844 174.013C121.86 173.959 121.875 173.908 121.894 173.854C121.917 173.792 121.921 173.784 121.894 173.842C121.91 173.807 121.925 173.776 121.941 173.745C121.956 173.714 121.975 173.683 121.991 173.652C122.002 173.632 122.122 173.461 122.053 173.551C122.118 173.469 122.195 173.387 122.276 173.321C122.184 173.395 122.327 173.29 122.334 173.286C122.396 173.248 122.462 173.216 122.531 173.185C122.817 173.057 122.886 172.637 122.74 172.389C122.57 172.093 122.234 172.051 121.948 172.179L121.956 172.175Z" fill="black"/>
<path d="M139.801 160.148C138.381 160.284 137.277 161.334 136.841 162.674C136.404 164.015 136.814 165.495 137.979 166.323C139.056 167.089 140.577 167.108 141.735 166.529C143.021 165.884 143.6 164.469 143.337 163.082C143.048 161.543 141.754 160.242 140.179 160.144C139.867 160.125 139.6 160.428 139.6 160.727C139.6 161.058 139.867 161.291 140.179 161.31C140.207 161.31 140.349 161.326 140.261 161.31C140.326 161.318 140.396 161.334 140.461 161.349C140.519 161.365 140.573 161.38 140.627 161.396C140.666 161.407 140.701 161.419 140.735 161.435C140.828 161.47 140.67 161.403 140.759 161.442C140.874 161.493 140.982 161.555 141.09 161.621C141.141 161.652 141.187 161.687 141.233 161.718C141.175 161.675 141.314 161.788 141.341 161.811C141.708 162.142 141.963 162.538 142.106 162.954C142.148 163.074 142.179 163.199 142.206 163.327C142.214 163.362 142.237 163.51 142.233 163.482C142.233 163.455 142.241 163.599 142.245 163.638C142.252 163.766 142.245 163.89 142.237 164.019C142.237 164.046 142.233 164.077 142.229 164.104C142.229 164.092 142.241 164.026 142.229 164.092C142.214 164.17 142.198 164.244 142.179 164.318C142.164 164.376 142.144 164.431 142.125 164.485C142.121 164.497 142.075 164.609 142.102 164.551C142.125 164.501 142.083 164.59 142.083 164.59C142.021 164.71 141.955 164.831 141.874 164.94C141.924 164.87 141.839 164.978 141.824 164.998C141.781 165.048 141.735 165.095 141.689 165.142C141.65 165.181 141.608 165.219 141.565 165.254C141.515 165.297 141.565 165.254 141.573 165.254C141.542 165.278 141.515 165.297 141.484 165.32C141.384 165.39 141.28 165.453 141.172 165.507C141.148 165.519 140.998 165.589 141.083 165.554C141.021 165.581 140.959 165.6 140.897 165.624C140.782 165.662 140.662 165.693 140.542 165.721C140.508 165.728 140.357 165.752 140.396 165.748C140.427 165.744 140.284 165.76 140.245 165.76C140.122 165.767 139.998 165.767 139.875 165.763C139.817 165.763 139.763 165.756 139.705 165.752C139.689 165.752 139.573 165.736 139.639 165.744C139.697 165.752 139.585 165.732 139.577 165.732C139.458 165.709 139.338 165.682 139.222 165.647C139.168 165.631 139.114 165.612 139.064 165.592C139.064 165.592 138.975 165.557 139.029 165.581C139.087 165.604 138.956 165.546 138.944 165.542C138.836 165.488 138.732 165.429 138.632 165.363C138.608 165.348 138.504 165.274 138.531 165.293C138.551 165.309 138.446 165.219 138.419 165.196C138.35 165.134 138.222 164.99 138.199 164.963C138.215 164.982 138.134 164.866 138.114 164.835C138.08 164.776 138.045 164.718 138.014 164.656C137.948 164.524 137.96 164.551 137.91 164.392C137.89 164.326 137.875 164.263 137.86 164.197C137.852 164.166 137.829 163.999 137.84 164.096C137.825 163.972 137.821 163.848 137.825 163.723C137.825 163.665 137.829 163.607 137.833 163.548C137.833 163.533 137.848 163.416 137.836 163.482C137.829 163.537 137.848 163.424 137.848 163.416C137.875 163.273 137.91 163.129 137.956 162.989C138.014 162.81 138.018 162.802 138.087 162.666C138.157 162.53 138.226 162.406 138.307 162.286C138.323 162.262 138.342 162.239 138.358 162.212C138.365 162.204 138.427 162.118 138.4 162.153C138.4 162.153 138.489 162.049 138.524 162.014C138.744 161.773 138.852 161.683 139.13 161.536C139.296 161.446 139.272 161.454 139.438 161.403C139.512 161.38 139.585 161.361 139.662 161.345C139.689 161.337 139.72 161.334 139.747 161.33C139.851 161.31 139.612 161.341 139.797 161.326C140.11 161.295 140.376 161.081 140.376 160.743C140.376 160.451 140.11 160.129 139.797 160.16L139.801 160.148Z" fill="black"/>
<path d="M144.819 157.843C144.97 159.992 145.116 162.145 145.267 164.294C145.317 165.04 146.475 165.044 146.425 164.294C146.274 162.145 146.128 159.992 145.977 157.843C145.927 157.097 144.769 157.093 144.819 157.843Z" fill="black"/>
<path d="M147.112 161.337C148 161.116 148.888 160.894 149.776 160.673C150.069 160.599 150.274 160.249 150.181 159.954C150.088 159.658 149.783 159.468 149.467 159.546C148.579 159.767 147.691 159.989 146.803 160.21C146.51 160.284 146.305 160.634 146.398 160.929C146.491 161.224 146.796 161.415 147.112 161.337Z" fill="black"/>
<path d="M148.112 162.596H149.621C149.922 162.596 150.216 162.328 150.2 162.014C150.185 161.699 149.946 161.431 149.621 161.431H148.112C147.811 161.431 147.518 161.699 147.533 162.014C147.548 162.328 147.788 162.596 148.112 162.596Z" fill="black"/>
<path d="M143.221 169.143L145.356 168.961L146.379 168.875C146.533 168.863 146.688 168.844 146.842 168.844C146.946 168.844 147.047 168.883 147.07 168.875C147.108 168.867 147.085 168.902 147.054 168.848C147.062 168.86 147.128 169.003 147.097 168.918C147.116 168.976 147.132 169.034 147.143 169.097C147.124 169.003 147.151 169.17 147.151 169.19C147.17 169.509 147.159 169.827 147.159 170.146C147.159 170.853 147.159 171.56 147.159 172.267C147.159 173.017 148.317 173.017 148.317 172.267C148.317 171.471 148.317 170.678 148.317 169.882C148.317 169.213 148.363 168.432 147.788 167.966C147.213 167.5 146.309 167.713 145.618 167.772L143.217 167.974C142.905 168.001 142.638 168.222 142.638 168.556C142.638 168.852 142.905 169.167 143.217 169.139L143.221 169.143Z" fill="black"/>
<path d="M154.396 157.696L153.682 160.365C153.605 160.661 153.782 161.01 154.087 161.084C154.392 161.158 154.717 160.991 154.802 160.676L155.516 158.007C155.593 157.711 155.415 157.362 155.11 157.288C154.805 157.214 154.481 157.381 154.396 157.696Z" fill="black"/>
<path d="M152.262 162.976H156.789C157.534 162.976 157.534 161.811 156.789 161.811H152.262C151.517 161.811 151.517 162.976 152.262 162.976Z" fill="black"/>
<path d="M155.716 165.732C154.786 166.233 153.84 166.804 153.23 167.698C152.659 168.537 152.563 169.61 153.161 170.465C153.697 171.234 154.67 171.797 155.589 171.355C156.654 170.845 156.793 169.279 156.608 168.254C156.496 167.628 156.137 167.033 155.558 166.746C154.979 166.458 154.292 166.486 153.763 166.921C153.52 167.119 153.559 167.539 153.763 167.745C154.002 167.985 154.338 167.943 154.581 167.745C154.508 167.807 154.601 167.737 154.624 167.725C154.713 167.694 154.547 167.752 154.635 167.725C154.666 167.717 154.778 167.702 154.666 167.713C154.701 167.713 154.74 167.713 154.774 167.713C154.875 167.706 154.821 167.713 154.786 167.713C154.832 167.721 154.879 167.733 154.921 167.748C154.933 167.748 155.045 167.791 154.987 167.768C154.948 167.752 155.076 167.818 155.095 167.83C155.114 167.842 155.211 167.916 155.141 167.857C155.172 167.881 155.195 167.912 155.226 167.935C155.296 167.993 155.269 167.978 155.245 167.947C155.272 167.982 155.299 168.024 155.323 168.063C155.404 168.199 155.473 168.425 155.492 168.553C155.554 168.953 155.516 169.365 155.435 169.707C155.388 169.901 155.361 170.01 155.245 170.173C155.265 170.146 155.16 170.263 155.13 170.29C155.215 170.216 155.13 170.282 155.11 170.298C155.091 170.309 155.072 170.321 155.049 170.333C155.11 170.309 155.122 170.305 155.083 170.321C155.037 170.336 154.852 170.356 154.998 170.352C154.94 170.352 154.879 170.352 154.821 170.352C154.964 170.352 154.782 170.336 154.732 170.321C154.701 170.313 154.605 170.27 154.717 170.321C154.674 170.301 154.628 170.278 154.589 170.255C154.531 170.224 154.477 170.185 154.423 170.146C154.516 170.212 154.354 170.084 154.327 170.057C154.273 170.002 154.219 169.944 154.168 169.886C154.184 169.905 154.226 169.971 154.165 169.878C154.138 169.835 154.107 169.792 154.08 169.746C154.045 169.687 154.01 169.625 153.983 169.559C154.029 169.66 153.983 169.559 153.972 169.528C153.96 169.485 153.945 169.447 153.933 169.404C153.921 169.361 153.894 169.182 153.906 169.307C153.898 169.221 153.898 169.136 153.902 169.05C153.906 168.891 153.883 169.12 153.906 169.027C153.918 168.976 153.929 168.926 153.945 168.879C153.956 168.84 153.972 168.798 153.983 168.759C153.983 168.751 154.022 168.654 153.995 168.724C154.068 168.545 154.172 168.37 154.288 168.215C154.358 168.121 154.203 168.312 154.331 168.16C154.373 168.114 154.412 168.067 154.454 168.02C154.527 167.943 154.601 167.869 154.682 167.799C154.852 167.643 154.944 167.574 155.122 167.449C155.496 167.185 155.898 166.963 156.299 166.746C156.573 166.598 156.662 166.213 156.508 165.949C156.346 165.669 155.99 165.592 155.716 165.739V165.732Z" fill="black"/>
<path d="M160.36 159.736V171.13C160.36 171.88 161.518 171.88 161.518 171.13V159.736C161.518 158.986 160.36 158.986 160.36 159.736Z" fill="black"/>
<path d="M161.587 168.557C162.221 168.184 162.854 167.815 163.487 167.442C163.749 167.286 163.865 166.909 163.695 166.645C163.525 166.381 163.182 166.272 162.904 166.435C162.271 166.808 161.638 167.178 161.005 167.551C160.742 167.706 160.626 168.083 160.796 168.347C160.966 168.611 161.31 168.72 161.587 168.557Z" fill="black"/>
<path d="M163.753 160.875V171.888C163.753 172.638 164.911 172.638 164.911 171.888V160.875C164.911 160.125 163.753 160.125 163.753 160.875Z" fill="black"/>
<path d="M169.535 160.039C168.945 160.712 168.81 161.683 169.134 162.515C169.478 163.397 170.273 164.089 171.253 164.05C172.292 164.011 173.206 163.261 173.538 162.286C173.87 161.31 173.426 160.339 172.627 159.779C171.828 159.22 170.659 159.138 169.879 159.736C169.64 159.919 169.489 160.249 169.671 160.533C169.825 160.774 170.203 160.941 170.462 160.743C170.52 160.696 170.582 160.657 170.647 160.618C170.678 160.599 170.713 160.584 170.744 160.568C170.829 160.525 170.632 160.603 170.755 160.568C170.825 160.545 170.894 160.525 170.964 160.51C170.987 160.506 171.106 160.479 171.014 160.498C170.921 160.517 171.052 160.498 171.083 160.498C171.164 160.498 171.242 160.498 171.323 160.502C171.33 160.502 171.369 160.514 171.377 160.506C171.377 160.506 171.253 160.482 171.315 160.498C171.357 160.506 171.4 160.514 171.442 160.521C171.516 160.537 171.585 160.556 171.655 160.58C171.666 160.58 171.755 160.622 171.759 160.618C171.759 160.618 171.651 160.568 171.705 160.595C171.728 160.607 171.751 160.615 171.77 160.626C171.836 160.657 171.902 160.696 171.963 160.735C171.994 160.754 172.025 160.778 172.056 160.797C172.164 160.871 171.998 160.743 172.068 160.809C172.122 160.859 172.176 160.906 172.226 160.96C172.234 160.968 172.292 161.046 172.299 161.042C172.299 161.042 172.23 160.945 172.265 160.995C172.276 161.015 172.292 161.034 172.307 161.054C172.349 161.12 172.388 161.19 172.423 161.26C172.388 161.155 172.469 161.353 172.423 161.26C172.434 161.302 172.45 161.341 172.461 161.384C172.473 161.419 172.477 161.462 172.485 161.497C172.504 161.559 172.477 161.454 172.481 161.45C172.477 161.458 172.485 161.504 172.485 161.512C172.488 161.578 172.512 161.726 172.477 161.788C172.477 161.788 172.504 161.672 172.481 161.738C172.473 161.757 172.473 161.78 172.469 161.8C172.461 161.843 172.45 161.881 172.438 161.92C172.43 161.947 172.419 162.021 172.396 162.041C172.396 162.041 172.442 161.94 172.415 161.998C172.403 162.025 172.392 162.048 172.38 162.076C172.342 162.153 172.299 162.223 172.253 162.297C172.241 162.317 172.226 162.332 172.218 162.352C172.218 162.352 172.288 162.27 172.245 162.317C172.214 162.355 172.18 162.394 172.149 162.429C172.083 162.499 172.014 162.558 171.944 162.62C171.898 162.662 171.975 162.596 171.979 162.596C171.96 162.608 171.944 162.62 171.925 162.635C171.882 162.662 171.844 162.69 171.801 162.717C171.767 162.74 171.728 162.76 171.689 162.779C171.67 162.787 171.651 162.798 171.631 162.806C171.574 162.837 171.67 162.787 171.674 162.791C171.651 162.779 171.45 162.865 171.415 162.872C171.392 162.876 171.265 162.911 171.35 162.888C171.435 162.865 171.307 162.888 171.28 162.892C171.238 162.892 171.195 162.892 171.157 162.892C171.137 162.892 171.114 162.892 171.095 162.892C171.01 162.892 171.103 162.88 171.122 162.899C171.079 162.865 170.944 162.861 170.886 162.841C170.871 162.837 170.852 162.826 170.836 162.822C170.778 162.806 170.89 162.841 170.89 162.845C170.883 162.83 170.798 162.798 170.778 162.787C170.748 162.771 170.717 162.752 170.686 162.732C170.666 162.721 170.647 162.705 170.628 162.694C170.578 162.662 170.674 162.725 170.674 162.732C170.666 162.694 170.531 162.604 170.504 162.573C170.481 162.546 170.458 162.519 170.431 162.491C170.427 162.484 170.404 162.453 170.396 162.449C170.4 162.449 170.462 162.546 170.431 162.495C170.392 162.425 170.342 162.363 170.304 162.293C170.284 162.254 170.265 162.216 170.246 162.177C170.188 162.06 170.269 162.254 170.242 162.161C170.215 162.08 170.188 161.998 170.165 161.912C170.153 161.87 170.145 161.827 170.138 161.784C170.111 161.652 170.141 161.874 170.138 161.776C170.134 161.691 170.126 161.605 170.13 161.52C170.13 161.485 170.153 161.403 170.141 161.376C170.141 161.376 170.118 161.501 170.134 161.442C170.138 161.419 170.141 161.396 170.145 161.372C170.161 161.291 170.188 161.209 170.211 161.128C170.25 161.003 170.168 161.201 170.211 161.116C170.23 161.077 170.25 161.042 170.269 161.003C170.288 160.964 170.315 160.933 170.338 160.894C170.354 160.84 170.358 160.867 170.338 160.894C170.319 160.953 170.334 160.902 170.365 160.867C170.566 160.638 170.605 160.265 170.365 160.043C170.145 159.841 169.759 159.799 169.547 160.043L169.535 160.039Z" fill="black"/>
<path d="M168.316 166.42C168.138 167.675 168.238 168.95 168.671 170.15C168.775 170.438 169.068 170.659 169.385 170.558C169.663 170.469 169.902 170.147 169.79 169.84C169.697 169.583 169.616 169.319 169.555 169.055C169.52 168.911 169.493 168.767 169.466 168.623C169.454 168.561 169.447 168.499 169.435 168.437C169.447 168.518 169.423 168.332 169.42 168.309C169.393 168.037 169.377 167.765 169.381 167.489C169.381 167.353 169.389 167.217 169.396 167.077C169.4 167.015 169.408 166.952 169.412 166.886C169.416 166.844 169.42 166.801 169.427 166.762C169.435 166.688 169.439 166.676 169.431 166.731C169.474 166.432 169.358 166.09 169.026 166.012C168.752 165.95 168.358 166.097 168.312 166.42H168.316Z" fill="black"/>
<path d="M172.43 166.571C172.43 167.838 172.43 169.1 172.43 170.367C172.43 170.67 172.697 170.966 173.009 170.95C173.322 170.935 173.588 170.694 173.588 170.367C173.588 169.1 173.588 167.838 173.588 166.571C173.588 166.268 173.322 165.972 173.009 165.988C172.697 166.003 172.43 166.244 172.43 166.571Z" fill="black"/>
<path d="M168.482 172.85H174.519C175.264 172.85 175.264 171.685 174.519 171.685H168.482C167.737 171.685 167.737 172.85 168.482 172.85Z" fill="black"/>
<path d="M178.668 171.713C179.413 171.713 179.413 170.547 178.668 170.547C177.923 170.547 177.923 171.713 178.668 171.713Z" fill="black"/>
<path d="M76.079 189.284L79.4103 188.93C79.804 188.888 80.3405 188.744 80.7304 188.864C81.0547 188.965 81.0315 189.338 80.9929 189.622C80.9311 190.084 80.7767 190.543 80.6609 190.994C80.5181 191.557 80.3714 192.117 80.2286 192.68C79.9391 193.803 79.6496 194.93 79.3601 196.053C79.1748 196.78 80.2904 197.091 80.4756 196.364C80.8037 195.086 81.1319 193.807 81.46 192.529C81.6298 191.864 81.8035 191.2 81.9734 190.535C82.093 190.061 82.205 189.575 82.1471 189.086C82.0892 188.596 81.8614 188.153 81.4329 187.901C80.9775 187.632 80.4448 187.652 79.9391 187.706C78.6537 187.842 77.3644 187.982 76.079 188.118C75.7663 188.153 75.5039 188.363 75.5 188.701C75.5 188.993 75.7702 189.319 76.079 189.284Z" fill="black"/>
<path d="M81.0277 191.794L86.7058 195.945C86.9606 196.131 87.3505 195.987 87.4971 195.735C87.667 195.439 87.5435 195.125 87.2887 194.938L81.6105 190.788C81.3558 190.601 80.9659 190.745 80.8192 190.998C80.6494 191.293 80.7729 191.608 81.0277 191.794Z" fill="black"/>
<path d="M82.6528 197.328V199.986C82.6528 200.289 82.9192 200.584 83.2318 200.568C83.5445 200.553 83.8109 200.312 83.8109 199.986V197.328C83.8109 197.025 83.5445 196.729 83.2318 196.745C82.9192 196.76 82.6528 197.001 82.6528 197.328Z" fill="black"/>
<path d="M79.8234 201.455C82.5834 201.793 85.3626 201.867 88.1341 201.673C88.8753 201.622 88.8791 200.456 88.1341 200.507C85.3626 200.701 82.5795 200.627 79.8234 200.289C79.5107 200.25 79.2482 200.585 79.2444 200.872C79.2444 201.218 79.5146 201.416 79.8234 201.455Z" fill="black"/>
<path d="M93.3335 188.235C94.0129 188.013 94.7154 187.768 95.4334 187.834C95.5608 187.846 95.6959 187.873 95.8271 187.916C95.8657 187.928 95.9005 187.943 95.9391 187.955C95.8927 187.935 95.9005 187.939 95.9622 187.966C96.0163 187.994 96.0664 188.021 96.1205 188.052C96.3058 188.165 96.491 188.343 96.5991 188.522C96.6107 188.542 96.6956 188.709 96.6532 188.612C96.6841 188.681 96.6995 188.755 96.7188 188.825C96.7497 188.938 96.7304 188.767 96.7265 188.891C96.7265 188.918 96.7034 189.128 96.7265 189.02C96.7149 189.078 96.6995 189.128 96.6841 189.183C96.6609 189.249 96.6609 189.253 96.6841 189.202C96.6686 189.237 96.6532 189.272 96.6339 189.303C96.5721 189.424 96.5026 189.54 96.4293 189.653C96.2865 189.878 96.1359 190.096 96.0317 190.337C95.8734 190.69 95.8271 191.025 95.8889 191.409C95.9352 191.72 96.3251 191.891 96.603 191.817C96.9311 191.728 97.0546 191.413 97.0083 191.098C97.0276 191.219 97.016 191.013 97.0199 190.986C97.0044 191.122 97.0508 190.912 97.0585 190.885C97.0816 190.823 97.0816 190.819 97.0585 190.873C97.0739 190.838 97.0894 190.807 97.1087 190.776C97.1434 190.71 97.182 190.644 97.2206 190.582C97.3789 190.317 97.5642 190.069 97.6915 189.789C98.0119 189.078 97.9231 188.32 97.4483 187.702C96.9736 187.084 96.2826 186.742 95.5183 186.669C94.673 186.587 93.8315 186.847 93.0363 187.104C92.7391 187.201 92.546 187.508 92.631 187.823C92.712 188.118 93.044 188.328 93.3451 188.231L93.3335 188.235Z" fill="black"/>
<path d="M90.3805 195.023C92.8896 195.342 95.4179 195.408 97.9424 195.222C98.6797 195.167 98.6874 194.001 97.9424 194.056C95.4218 194.238 92.8896 194.172 90.3805 193.858C90.0679 193.819 89.8015 194.153 89.8015 194.44C89.8015 194.786 90.0679 194.984 90.3805 195.023Z" fill="black"/>
<path d="M92.4612 198.847L92.5268 202.523C92.5307 202.807 92.7082 202.986 92.9514 203.087C93.9898 203.51 95.0667 203.93 96.2093 203.926C97.1666 203.922 98.1278 203.565 98.7994 202.865C99.4711 202.166 99.7683 201.171 99.4325 200.25C99.0967 199.329 98.3478 198.7 97.4716 198.361C96.2556 197.891 94.8853 198.152 93.6539 198.404C93.349 198.466 93.1714 198.832 93.2486 199.123C93.3374 199.442 93.6539 199.593 93.9628 199.531C95.3524 199.244 97.3828 198.894 98.2359 200.402C98.5408 200.942 98.4289 201.567 98.012 202.014C97.5449 202.515 96.8887 202.76 96.2132 202.764C95.1864 202.768 94.2021 202.352 93.2641 201.968L93.6887 202.531L93.6231 198.855C93.6115 198.105 92.4535 198.105 92.465 198.855L92.4612 198.847Z" fill="black"/>
<path d="M108.376 189.132C107.388 188.301 105.991 188.402 104.964 189.132C103.787 189.968 103.366 191.355 103.231 192.738C103.165 193.418 103.088 194.192 103.212 194.868C103.366 195.707 104.115 195.995 104.875 196.022C105.678 196.053 106.485 196.069 107.284 196.065C107.983 196.065 108.724 195.832 108.924 195.074C109.036 194.65 108.975 194.188 108.959 193.756C108.94 193.271 108.921 192.781 108.905 192.295C108.867 191.32 108.832 190.345 108.793 189.373C108.766 188.627 107.608 188.623 107.635 189.373C107.689 190.772 107.743 192.175 107.793 193.574C107.805 193.885 107.824 194.196 107.828 194.506C107.828 194.685 107.851 194.813 107.67 194.868C107.45 194.938 107.191 194.899 106.967 194.895C106.612 194.887 106.261 194.883 105.906 194.876C105.593 194.872 105.277 194.868 104.964 194.86C104.813 194.86 104.52 194.88 104.404 194.767C104.288 194.654 104.327 194.409 104.331 194.266C104.331 193.962 104.339 193.655 104.354 193.352C104.397 192.358 104.528 191.172 105.246 190.419C105.798 189.84 106.875 189.385 107.562 189.964C107.801 190.166 108.145 190.201 108.38 189.964C108.585 189.758 108.619 189.342 108.38 189.14L108.376 189.132Z" fill="black"/>
<path d="M113.541 187.276C112.387 190.151 112.067 193.279 112.537 196.337C112.588 196.652 112.974 196.819 113.252 196.745C113.584 196.656 113.703 196.337 113.657 196.027C113.217 193.178 113.587 190.256 114.661 187.586C114.78 187.291 114.533 186.949 114.255 186.867C113.927 186.77 113.661 186.984 113.541 187.276Z" fill="black"/>
<path d="M114.317 192.949C115.197 192.821 116.077 192.692 116.957 192.564C117.092 192.545 117.239 192.409 117.305 192.296C117.378 192.172 117.409 191.985 117.363 191.845C117.255 191.515 116.973 191.391 116.649 191.437C115.768 191.565 114.888 191.694 114.008 191.822C113.873 191.841 113.726 191.977 113.661 192.09C113.588 192.214 113.557 192.401 113.603 192.541C113.711 192.871 113.993 192.995 114.317 192.949Z" fill="black"/>
<path d="M106.917 199.119C106.655 200.402 106.523 202.22 107.809 203.017C108.643 203.534 109.685 203.27 110.592 203.157C111.657 203.025 112.719 202.896 113.784 202.764C114.093 202.726 114.363 202.523 114.363 202.181C114.363 201.898 114.097 201.56 113.784 201.599C112.865 201.711 111.951 201.824 111.032 201.937C110.596 201.991 110.156 202.045 109.72 202.1C109.357 202.143 108.932 202.232 108.577 202.1C108.148 201.944 107.982 201.498 107.928 201.047C107.863 200.511 107.932 199.955 108.04 199.426C108.191 198.696 107.075 198.381 106.925 199.116L106.917 199.119Z" fill="black"/>
<path d="M123.307 192.242C123.35 192.195 123.396 192.148 123.446 192.106C123.477 192.078 123.473 192.082 123.435 192.117C123.462 192.098 123.492 192.078 123.523 192.063C123.55 192.047 123.685 191.997 123.574 192.036C123.624 192.02 123.67 192.005 123.72 191.993C123.763 191.981 123.875 191.973 123.77 191.981C123.832 191.977 123.894 191.973 123.952 191.977C123.979 191.977 124.16 192.001 124.037 191.977C124.091 191.985 124.145 191.997 124.195 192.012C124.442 192.074 124.535 192.117 124.774 192.28C124.789 192.292 124.917 192.389 124.84 192.327C124.886 192.362 124.928 192.401 124.967 192.444C125.006 192.486 125.048 192.525 125.087 192.568C125.114 192.595 125.137 192.626 125.16 192.657C125.133 192.622 125.133 192.622 125.156 192.657C125.226 192.758 125.291 192.863 125.341 192.98C125.295 192.875 125.372 193.085 125.372 193.081C125.395 193.163 125.419 193.244 125.438 193.326C125.511 193.656 125.504 194.006 125.461 194.34C125.368 195.059 125.102 195.754 124.847 196.431C124.735 196.726 124.971 197.072 125.253 197.149C125.577 197.239 125.855 197.037 125.967 196.741C126.546 195.206 127.152 193.229 125.967 191.818C125.137 190.831 123.454 190.372 122.493 191.433C122.28 191.666 122.265 192.028 122.493 192.257C122.705 192.471 123.099 192.49 123.311 192.257L123.307 192.242Z" fill="black"/>
<path d="M130.811 187.823C130.371 192.26 129.927 196.694 129.487 201.132C129.414 201.878 130.572 201.874 130.645 201.132C131.085 196.694 131.529 192.26 131.969 187.823C132.042 187.077 130.884 187.081 130.811 187.823Z" fill="black"/>
<path d="M134.073 193.659C135.142 193.104 136.331 192.878 137.551 192.975C137.852 192.999 138.141 192.692 138.13 192.392C138.114 192.054 137.875 191.837 137.551 191.81C136.146 191.701 134.737 192.008 133.486 192.653C133.208 192.797 133.127 193.189 133.278 193.449C133.444 193.733 133.791 193.803 134.069 193.659H134.073Z" fill="black"/>
<path d="M134.717 192.393L134.698 195.478C134.698 195.968 134.659 196.465 134.698 196.951C134.737 197.436 134.914 197.872 135.37 198.085C135.783 198.28 136.242 198.206 136.678 198.155C137.203 198.097 137.728 198.023 138.245 197.934C139.222 197.767 140.183 197.534 141.133 197.246C141.843 197.032 141.542 195.905 140.824 196.123C139.998 196.372 139.164 196.582 138.315 196.741C137.917 196.815 137.516 196.885 137.111 196.935C136.894 196.962 136.674 196.99 136.454 197.013C136.319 197.025 136.022 197.11 135.899 197.044C135.783 196.982 135.845 196.57 135.848 196.446L135.856 195.132L135.872 192.393C135.875 191.643 134.717 191.643 134.714 192.393H134.717Z" fill="black"/>
<path d="M142.951 188.211C142.569 192.634 142.468 197.071 142.65 201.505C142.681 202.251 143.839 202.255 143.808 201.505C143.623 197.071 143.723 192.63 144.109 188.211C144.175 187.465 143.017 187.469 142.951 188.211Z" fill="black"/>
<path d="M143.65 197.211C143.723 197.072 143.812 196.943 143.901 196.815C143.792 196.971 143.874 196.854 143.901 196.815C143.928 196.784 143.951 196.757 143.978 196.726C144.032 196.667 144.086 196.613 144.144 196.559C144.171 196.531 144.202 196.504 144.233 196.481C144.267 196.45 144.387 196.372 144.233 196.481C144.298 196.438 144.36 196.388 144.426 196.345C144.557 196.259 144.696 196.19 144.839 196.127L144.7 196.186C144.881 196.108 145.066 196.053 145.259 196.015C145.557 195.956 145.753 195.579 145.665 195.296C145.56 194.977 145.271 194.826 144.95 194.888C143.985 195.074 143.109 195.743 142.654 196.617C142.515 196.889 142.577 197.262 142.862 197.414C143.129 197.553 143.503 197.491 143.654 197.204L143.65 197.211Z" fill="black"/>
<path d="M147.749 191.452C148.621 191.425 150.158 191.324 150.49 192.389C150.567 192.637 150.605 193.053 150.378 193.244C150.185 193.407 149.86 193.356 149.625 193.384C149.32 193.415 149.034 193.485 148.76 193.621C147.884 194.052 147.456 195.054 147.294 195.972C147.201 196.5 147.162 197.036 147.174 197.569C147.185 198.101 147.212 198.742 147.614 199.158C148.185 199.745 149.034 199.492 149.741 199.372C150.625 199.224 151.509 199.076 152.393 198.929C153.126 198.808 152.813 197.681 152.084 197.806C151.354 197.93 150.575 198.058 149.822 198.183C149.471 198.241 149.115 198.315 148.764 198.357C148.486 198.392 148.409 198.373 148.363 198.089C148.22 197.231 148.313 196.076 148.706 195.295C148.876 194.957 149.127 194.67 149.505 194.577C150.088 194.433 150.656 194.545 151.146 194.11C151.872 193.469 151.837 192.257 151.343 191.487C150.578 190.302 149.004 190.248 147.749 190.286C147.004 190.31 147.004 191.476 147.749 191.452Z" fill="black"/>
<path d="M154.149 192.595L157.917 192.171C158.218 192.136 158.511 191.926 158.496 191.588C158.484 191.301 158.241 190.971 157.917 191.005L154.149 191.429C153.848 191.464 153.555 191.674 153.57 192.012C153.582 192.299 153.825 192.63 154.149 192.595Z" fill="black"/>
<path d="M153.396 195.272L157.538 194.818C157.851 194.783 158.117 194.573 158.117 194.235C158.117 193.947 157.851 193.617 157.538 193.652L153.396 194.107C153.084 194.142 152.817 194.351 152.817 194.69C152.817 194.977 153.084 195.307 153.396 195.272Z" fill="black"/>
<path d="M158.526 187.081C158.225 190.621 157.924 194.161 157.623 197.701C157.561 198.447 158.719 198.443 158.781 197.701C159.082 194.161 159.383 190.621 159.685 187.081C159.746 186.334 158.588 186.338 158.526 187.081Z" fill="black"/>
<path d="M168.335 190.924C168.871 190.613 169.335 190.341 169.929 190.225C170.122 190.186 170.396 190.178 170.605 190.24C170.639 190.252 170.774 190.314 170.663 190.256C170.705 190.279 170.747 190.298 170.786 190.322C170.832 190.349 170.879 190.384 170.925 190.411C170.979 190.442 170.91 190.4 170.902 190.392C170.929 190.419 170.96 190.442 170.991 190.469C171.029 190.508 171.068 190.547 171.106 190.59C171.18 190.668 171.072 190.528 171.13 190.621C171.16 190.668 171.187 190.71 171.215 190.757C171.23 190.784 171.242 190.811 171.257 190.839C171.296 190.901 171.234 190.753 171.249 190.823C171.261 190.874 171.284 190.92 171.296 190.971C171.299 190.99 171.303 191.013 171.307 191.037C171.33 191.111 171.311 190.936 171.303 191.01C171.296 191.052 171.303 191.115 171.303 191.157C171.303 191.149 171.33 191.048 171.311 191.107C171.303 191.13 171.296 191.165 171.292 191.188C171.288 191.208 171.249 191.289 171.284 191.219C171.319 191.15 171.284 191.219 171.276 191.227C171.261 191.251 171.242 191.282 171.23 191.305C171.23 191.297 171.299 191.235 171.253 191.274C171.172 191.348 171.103 191.429 171.022 191.499C170.94 191.569 171.087 191.453 170.998 191.519C170.956 191.55 170.913 191.581 170.871 191.612C170.778 191.678 170.686 191.74 170.597 191.806C170.369 191.973 170.153 192.144 169.995 192.385C169.809 192.665 169.779 192.984 169.84 193.302C169.898 193.601 170.273 193.8 170.554 193.71C170.871 193.605 171.022 193.314 170.96 192.991C170.987 193.135 170.96 193.065 170.964 193.03C170.971 192.956 170.929 193.03 170.952 193.077C170.952 193.077 170.979 192.894 170.964 193.011C170.952 193.1 170.971 192.976 171.006 192.956C170.94 192.995 170.944 193.03 170.987 192.988C171.01 192.964 171.033 192.941 171.056 192.918C171.091 192.886 171.13 192.855 171.164 192.824C171.06 192.921 171.184 192.809 171.218 192.785C171.315 192.716 171.415 192.649 171.512 192.58C172.01 192.222 172.423 191.806 172.469 191.157C172.508 190.586 172.21 190.007 171.801 189.626C171.319 189.175 170.693 188.977 170.037 189.039C169.211 189.117 168.47 189.506 167.76 189.918C167.497 190.069 167.385 190.454 167.551 190.714C167.717 190.975 168.061 191.087 168.343 190.924H168.335Z" fill="black"/>
<path d="M171.844 191.667C172.346 192.3 172.851 192.933 173.353 193.567C173.438 193.676 173.631 193.738 173.762 193.738C173.905 193.738 174.075 193.676 174.171 193.567C174.268 193.458 174.349 193.31 174.341 193.155C174.333 192.992 174.272 192.871 174.171 192.743C173.67 192.11 173.164 191.476 172.662 190.843C172.577 190.734 172.384 190.672 172.253 190.672C172.11 190.672 171.94 190.734 171.844 190.843C171.747 190.952 171.666 191.099 171.674 191.255C171.682 191.418 171.743 191.538 171.844 191.667Z" fill="black"/>
<path d="M166.98 197.607C169.863 197.293 172.751 196.974 175.634 196.659C176.368 196.578 176.375 195.412 175.634 195.493C172.751 195.808 169.863 196.127 166.98 196.442C166.247 196.523 166.239 197.689 166.98 197.607Z" fill="black"/>
<path d="M173.218 196.951C173.013 199.162 173.117 201.385 173.492 203.573C173.546 203.883 173.924 204.058 174.206 203.981C174.53 203.891 174.665 203.576 174.611 203.262C174.252 201.179 174.183 199.053 174.38 196.947C174.407 196.632 174.094 196.364 173.801 196.364C173.465 196.364 173.253 196.632 173.222 196.947L173.218 196.951Z" fill="black"/>
<path d="M180.452 189.979C179.838 192.26 179.22 194.545 178.607 196.826C178.41 197.553 179.529 197.86 179.722 197.137C180.336 194.856 180.954 192.571 181.567 190.29C181.764 189.564 180.645 189.257 180.452 189.979Z" fill="black"/>
<path d="M180.181 195.385C180.216 195.385 180.251 195.385 180.286 195.389C180.309 195.389 180.332 195.392 180.355 195.396C180.263 195.385 180.239 195.381 180.286 195.389C180.355 195.4 180.421 195.412 180.486 195.431C180.56 195.451 180.629 195.474 180.699 195.501C180.803 195.54 180.583 195.443 180.687 195.497C180.718 195.513 180.749 195.528 180.78 195.544C180.842 195.575 180.899 195.61 180.957 195.649C180.984 195.668 181.015 195.688 181.042 195.707C181.143 195.777 180.942 195.622 181.035 195.699C181.146 195.793 181.251 195.894 181.343 196.003C181.355 196.018 181.432 196.119 181.374 196.037C181.316 195.956 181.39 196.061 181.401 196.076C181.444 196.139 181.486 196.201 181.521 196.267C181.556 196.329 181.587 196.391 181.614 196.453C181.66 196.554 181.567 196.329 181.61 196.442C181.621 196.473 181.633 196.508 181.644 196.539C181.668 196.605 181.683 196.671 181.698 196.737C181.706 196.772 181.71 196.803 181.718 196.838C181.745 196.955 181.706 196.71 181.718 196.819C181.722 196.888 181.729 196.955 181.729 197.024C181.729 197.063 181.729 197.106 181.729 197.145C181.729 197.184 181.71 197.331 181.733 197.145C181.71 197.308 181.706 197.448 181.791 197.596C181.861 197.716 182 197.833 182.139 197.864C182.413 197.926 182.806 197.778 182.853 197.456C182.907 197.052 182.899 196.651 182.775 196.259C182.652 195.867 182.451 195.517 182.189 195.202C181.695 194.607 180.953 194.238 180.185 194.215C179.88 194.207 179.591 194.491 179.606 194.798C179.622 195.105 179.861 195.373 180.185 195.381L180.181 195.385Z" fill="black"/>
<path d="M182.968 195.233L185.987 194.095C186.269 193.99 186.493 193.694 186.392 193.376C186.304 193.096 185.983 192.855 185.678 192.968L182.66 194.106C182.378 194.211 182.154 194.507 182.254 194.825C182.343 195.105 182.664 195.346 182.968 195.233Z" fill="black"/>
<path d="M185.632 190.873V200.747C185.632 201.497 186.79 201.497 186.79 200.747V190.873C186.79 190.123 185.632 190.123 185.632 190.873Z" fill="black"/>
<path d="M188.65 190.873V202.643C188.65 203.393 189.808 203.393 189.808 202.643V190.873C189.808 190.123 188.65 190.123 188.65 190.873Z" fill="black"/>
<path d="M193.36 190.299C192.761 191.294 192.136 192.463 192.503 193.656C192.823 194.69 193.85 195.521 194.954 195.129C195.907 194.791 196.479 193.765 196.622 192.801C196.78 191.721 196.548 190.4 195.556 189.778C194.653 189.215 193.12 189.588 192.912 190.746C192.858 191.057 192.997 191.375 193.317 191.465C193.599 191.542 193.973 191.367 194.031 191.057C194.039 191.018 194.051 190.979 194.058 190.94C194.078 190.858 193.989 191.045 194.058 190.932C194.074 190.909 194.089 190.882 194.105 190.854C194.051 190.948 194.07 190.893 194.097 190.866C194.116 190.851 194.228 190.753 194.112 190.839C194.136 190.819 194.163 190.804 194.19 190.788C194.217 190.773 194.244 190.757 194.271 190.742C194.379 190.68 194.194 190.757 194.305 190.73C194.34 190.722 194.572 190.672 194.433 190.691C194.498 190.683 194.56 190.68 194.626 190.683C194.626 190.683 194.784 190.695 194.695 190.683C194.607 190.672 194.757 190.699 194.761 190.699C194.792 190.707 194.823 190.718 194.854 190.726C194.973 190.753 194.796 190.683 194.892 190.742C195.12 190.878 195.305 191.111 195.398 191.391C195.429 191.488 195.456 191.593 195.479 191.694C195.487 191.737 195.494 191.775 195.502 191.818C195.491 191.74 195.502 191.841 195.502 191.853C195.521 192.063 195.525 192.273 195.51 192.487C195.51 192.479 195.491 192.661 195.502 192.576C195.514 192.49 195.483 192.681 195.487 192.669C195.471 192.747 195.456 192.821 195.433 192.895C195.406 192.988 195.375 193.081 195.34 193.174C195.336 193.186 195.297 193.275 195.332 193.198C195.309 193.252 195.282 193.303 195.255 193.353C195.213 193.439 195.162 193.52 195.108 193.598C195.089 193.629 195.066 193.66 195.043 193.691C195.097 193.617 195.043 193.691 195.031 193.703C194.969 193.769 194.908 193.831 194.842 193.893C194.827 193.909 194.753 193.955 194.834 193.901C194.792 193.932 194.749 193.959 194.703 193.983C194.672 193.998 194.641 194.014 194.61 194.029C194.726 193.975 194.576 194.037 194.556 194.041C194.522 194.049 194.491 194.056 194.456 194.064C194.483 194.064 194.564 194.041 194.456 194.064C194.41 194.064 194.367 194.064 194.321 194.064C194.228 194.06 194.441 194.103 194.282 194.056C194.248 194.045 194.213 194.037 194.178 194.029C194.051 193.998 194.228 194.072 194.116 194.002C194.085 193.983 194.055 193.963 194.024 193.948C193.885 193.866 194.062 193.986 193.989 193.924C193.927 193.87 193.869 193.812 193.815 193.746C193.877 193.819 193.804 193.726 193.792 193.707C193.769 193.668 193.742 193.625 193.719 193.586C193.699 193.551 193.684 193.52 193.669 193.485C193.595 193.338 193.688 193.571 193.642 193.411C193.615 193.318 193.591 193.229 193.568 193.132C193.53 192.957 193.568 193.194 193.56 193.089C193.557 193.023 193.553 192.957 193.553 192.891C193.553 192.681 193.599 192.494 193.665 192.273C193.815 191.787 194.093 191.336 194.36 190.897C194.522 190.629 194.417 190.256 194.151 190.101C193.885 189.945 193.522 190.038 193.36 190.31V190.299Z" fill="black"/>
<path d="M193.931 195.051V197.709C193.931 198.012 194.197 198.308 194.51 198.292C194.823 198.277 195.089 198.036 195.089 197.709V195.051C195.089 194.748 194.823 194.453 194.51 194.468C194.197 194.484 193.931 194.725 193.931 195.051Z" fill="black"/>
<path d="M196.193 195.432V199.99C196.193 200.74 197.351 200.74 197.351 199.99V195.432C197.351 194.682 196.193 194.682 196.193 195.432Z" fill="black"/>
<path d="M191.117 201.747C193.754 201.447 196.386 201.148 199.023 200.853C199.335 200.818 199.598 200.612 199.602 200.27C199.602 199.982 199.331 199.652 199.023 199.687C196.386 199.986 193.754 200.286 191.117 200.581C190.804 200.616 190.542 200.822 190.538 201.164C190.538 201.451 190.808 201.782 191.117 201.747Z" fill="black"/>
<path d="M203.94 201.331C204.685 201.331 204.685 200.165 203.94 200.165C203.195 200.165 203.195 201.331 203.94 201.331Z" fill="black"/>
</g>
<path d="M12.2815 224.64V229.428H2.0615V224.64H12.2815ZM10.8955 228.28V225.788H3.4475V228.28H10.8955ZM1.2075 230.632H13.1495V231.808H7.8715V233.866H6.4715V231.808H1.2075V230.632ZM3.4475 232.83V235.126H12.5475V236.316H2.0475V232.83H3.4475ZM24.8523 224.5H26.1683V236.456H24.8523V224.5ZM21.7583 229.05V224.57H23.0743V236.246H21.7583V230.352H19.8683V229.05H21.7583ZM18.4963 226.194C18.4823 227.538 18.4123 228.742 18.2863 229.806L21.1983 234.93L20.0643 235.574L17.9363 231.71C17.3483 234.132 16.2983 235.476 14.7723 235.742V234.384C16.3543 233.95 17.1383 230.786 17.1663 226.194H14.9683V224.934H20.5963V226.194H18.4963ZM29.0091 229.134V226.432H37.8851V225.62H29.0091V224.64H39.2291V227.356H30.3531V228.154H39.3971V229.134H29.0091ZM28.1411 231.01V230.002H40.0831V231.01H28.1411ZM28.9671 236.316V233.628H37.9131V232.858H28.9391V231.878H39.2571V234.552H30.3111V235.336H39.4671V236.316H28.9671ZM49.1437 224.472V226.362H51.6497V227.608H45.2657V226.362H47.7717V224.472H49.1437ZM55.7377 224.5H57.0257V236.456H55.7377V230.618H53.8197V236.246H52.5317V224.57H53.8197V229.316H55.7377V224.5ZM48.5137 228.546C50.1237 228.546 51.2997 229.834 51.2997 232.214C51.2997 234.594 50.1237 235.882 48.5137 235.882C46.9177 235.882 45.7417 234.594 45.7417 232.214C45.7417 229.834 46.9177 228.546 48.5137 228.546ZM48.5137 234.664C49.3817 234.664 50.0257 233.782 50.0257 232.214C50.0257 230.646 49.3817 229.764 48.5137 229.764C47.6597 229.764 47.0297 230.646 47.0297 232.214C47.0297 233.782 47.6597 234.664 48.5137 234.664ZM68.8685 230.38V229.176H66.2645V228.042H68.8685V226.81H66.7825V225.676H68.8685V224.5H70.2545V230.38H68.8685ZM66.1945 226.012C66.1945 228.938 63.4505 230.17 59.3765 230.17V229.008C62.6945 228.994 64.8085 228.168 64.8085 226.236V225.956H59.3765V224.794H66.1945V226.012ZM61.5045 235.21H70.5485V236.302H60.1325V233.138H68.8825V232.102H60.1045V231.01H70.2545V234.174H61.5045V235.21ZM77.3093 224.472V226.39H80.4873V227.622H72.7313V226.39H75.8953V224.472H77.3093ZM84.9673 229.344V230.674H83.2873V236.456H81.9013V224.5H83.2873V229.344H84.9673ZM76.6093 228.574C78.5553 228.574 79.9273 230.03 79.9273 232.228C79.9273 234.426 78.5553 235.882 76.6093 235.882C74.6633 235.882 73.2773 234.426 73.2773 232.228C73.2773 230.03 74.6633 228.574 76.6093 228.574ZM76.6093 234.678C77.7153 234.678 78.5833 233.754 78.5833 232.228C78.5833 230.702 77.7153 229.778 76.6093 229.778C75.4893 229.778 74.6213 230.702 74.6213 232.228C74.6213 233.754 75.4893 234.678 76.6093 234.678ZM95.7041 236.456V224.5H97.0901V236.456H95.7041ZM86.4921 235.714V234.398C89.7541 234.384 91.7141 231.85 91.7141 227.846V226.208H86.4921V224.934H93.1281V227.818C93.1281 232.606 90.5801 235.714 86.4921 235.714ZM113.137 224.5H114.523V236.456H113.137V224.5ZM107.425 230.842C105.339 230.842 103.883 229.582 103.883 227.776C103.883 225.97 105.339 224.71 107.425 224.71C109.497 224.71 110.967 225.97 110.967 227.776C110.967 229.582 109.497 230.842 107.425 230.842ZM107.425 225.858C106.081 225.858 105.213 226.684 105.213 227.776C105.213 228.868 106.081 229.694 107.425 229.694C108.755 229.694 109.623 228.868 109.623 227.776C109.623 226.684 108.755 225.858 107.425 225.858ZM103.323 231.962H108.209C109.819 231.962 111.275 231.836 112.129 231.5V232.76C111.275 233.082 109.861 233.222 108.223 233.222H108.111V236.456H106.725V233.222H103.323V231.962ZM120.402 224.472V226.362H122.908V227.608H116.524V226.362H119.03V224.472H120.402ZM126.996 224.5H128.284V236.456H126.996V230.618H125.078V236.246H123.79V224.57H125.078V229.316H126.996V224.5ZM119.772 228.546C121.382 228.546 122.558 229.834 122.558 232.214C122.558 234.594 121.382 235.882 119.772 235.882C118.176 235.882 117 234.594 117 232.214C117 229.834 118.176 228.546 119.772 228.546ZM119.772 234.664C120.64 234.664 121.284 233.782 121.284 232.214C121.284 230.646 120.64 229.764 119.772 229.764C118.918 229.764 118.288 230.646 118.288 232.214C118.288 233.782 118.918 234.664 119.772 234.664ZM142.02 228.14H144.05V226.628H142.02L141.936 225.48H144.05V224.5H145.436V230.352H144.05V229.288H141.936L142.02 228.14ZM141.656 227.412C141.656 229.036 140.2 230.198 138.016 230.198C135.832 230.198 134.362 229.036 134.362 227.412C134.362 225.788 135.832 224.626 138.016 224.626C140.2 224.626 141.656 225.788 141.656 227.412ZM135.734 227.412C135.734 228.42 136.672 229.078 138.016 229.078C139.36 229.078 140.284 228.42 140.284 227.412C140.284 226.404 139.36 225.746 138.016 225.746C136.672 225.746 135.734 226.404 135.734 227.412ZM136.77 235.21H145.73V236.302H135.398V233.138H144.064V232.102H135.37V231.01H145.436V234.174H136.77V235.21ZM157.419 224.5H158.805V230.996H157.419V224.5ZM151.889 228.21C151.007 229.554 149.579 230.492 147.829 230.73V229.47C150.097 229.064 151.511 227.048 151.525 224.612L152.911 224.696C152.911 225.564 152.757 226.376 152.463 227.118L156.243 229.554L155.529 230.576L151.889 228.21ZM148.669 236.302V231.654H158.805V236.302H148.669ZM150.055 232.83V235.14H157.419V232.83H150.055ZM166.14 224.458V226.362H169.374V227.622H161.506V226.362H164.726V224.458H166.14ZM170.886 224.5H172.272V236.456H170.886V224.5ZM165.44 228.574C167.4 228.574 168.8 230.058 168.8 232.228C168.8 234.398 167.4 235.882 165.44 235.882C163.466 235.882 162.066 234.398 162.066 232.228C162.066 230.058 163.466 228.574 165.44 228.574ZM165.44 234.664C166.574 234.664 167.456 233.712 167.456 232.228C167.456 230.73 166.574 229.792 165.44 229.792C164.292 229.792 163.41 230.73 163.41 232.228C163.41 233.712 164.292 234.664 165.44 234.664ZM185.182 234.58H190.446V235.882H178.504V234.58H183.768V231.472H179.288V224.78H180.716V230.17H189.704V231.472H185.182V234.58ZM201.855 224.5H203.227V231.976H201.855V229.232H199.671V228.056H201.855V226.978H199.671V225.802H201.855V224.5ZM192.461 227.552H197.459V225.956H192.433V224.794H198.831V228.686H193.833V230.31H196.521C198.187 230.31 199.573 230.142 200.287 229.848V231.01C199.601 231.276 198.145 231.472 196.423 231.472H192.461V227.552ZM192.951 233.824V232.634H203.227V236.456H201.813V233.824H192.951ZM210.282 224.472V226.39H213.46V227.622H205.704V226.39H208.868V224.472H210.282ZM217.94 229.344V230.674H216.26V236.456H214.874V224.5H216.26V229.344H217.94ZM209.582 228.574C211.528 228.574 212.9 230.03 212.9 232.228C212.9 234.426 211.528 235.882 209.582 235.882C207.636 235.882 206.25 234.426 206.25 232.228C206.25 230.03 207.636 228.574 209.582 228.574ZM209.582 234.678C210.688 234.678 211.556 233.754 211.556 232.228C211.556 230.702 210.688 229.778 209.582 229.778C208.462 229.778 207.594 230.702 207.594 232.228C207.594 233.754 208.462 234.678 209.582 234.678ZM228.607 232.816V226.222H219.633V224.92H230.049V232.816H228.607ZM224.785 234.58H230.847V235.882H218.905V234.58H223.357V229.246H224.785V234.58ZM247.453 224.5V231.15H246.067V224.5H247.453ZM243.953 227.734C243.953 229.582 242.497 230.842 240.215 230.842C237.919 230.842 236.463 229.582 236.463 227.734C236.463 225.9 237.919 224.626 240.215 224.626C242.497 224.626 243.953 225.9 243.953 227.734ZM237.849 227.734C237.849 228.966 238.815 229.694 240.215 229.694C241.601 229.694 242.567 228.966 242.567 227.734C242.567 226.502 241.601 225.774 240.215 225.774C238.815 225.774 237.849 226.502 237.849 227.734ZM248.419 235.378L247.593 236.358L245.297 234.44C244.569 235.546 243.491 236.232 242.315 236.302L240.285 234.51C239.543 235.56 238.479 236.218 237.331 236.302V235.042C238.647 234.916 239.809 233.362 239.963 231.514L241.307 231.696C241.237 232.34 241.083 232.928 240.859 233.46L242.693 234.972C243.813 234.622 244.751 233.194 244.877 231.514L246.221 231.71C246.165 232.312 246.039 232.858 245.843 233.376L248.419 235.378ZM259.632 224.5H261.018V236.456H259.632V230.758H257.336C257.224 234.258 255.782 235.896 253.78 235.896C251.68 235.896 250.21 234.132 250.21 230.338C250.21 226.544 251.68 224.78 253.78 224.78C255.698 224.78 257.098 226.264 257.308 229.456H259.632V224.5ZM253.78 234.622C255.012 234.622 255.95 233.376 255.95 230.338C255.95 227.314 255.012 226.054 253.78 226.054C252.534 226.054 251.596 227.314 251.596 230.338C251.596 233.376 252.534 234.622 253.78 234.622ZM272.427 234.608H275.171V235.882H263.229V234.608H265.973V231.374C264.601 230.744 263.803 229.694 263.803 228.35C263.803 226.138 265.931 224.71 269.193 224.71C272.455 224.71 274.583 226.138 274.583 228.35C274.583 229.68 273.785 230.744 272.427 231.36V234.608ZM265.273 228.35C265.273 229.778 266.841 230.716 269.193 230.716C271.545 230.716 273.127 229.778 273.127 228.35C273.127 226.894 271.545 225.97 269.193 225.97C266.841 225.97 265.273 226.894 265.273 228.35ZM267.359 231.808V234.608H271.041V231.808C270.481 231.92 269.865 231.976 269.193 231.976C268.535 231.976 267.919 231.92 267.359 231.808ZM277.214 233.054L276.864 224.948H278.642L278.278 233.054H277.214ZM277.746 236.386C277.158 236.386 276.71 235.938 276.71 235.35C276.71 234.776 277.158 234.328 277.746 234.328C278.334 234.328 278.782 234.776 278.782 235.35C278.782 235.938 278.334 236.386 277.746 236.386ZM71.521 246.782V248.098H69.841V250.996H68.455V244.5H69.841V246.782H71.521ZM63.163 248.434C62.351 249.708 60.951 250.562 59.187 250.73V249.484C61.147 249.218 62.379 247.874 62.561 245.998H59.341V244.808H66.971V245.998H63.947C63.919 246.46 63.835 246.908 63.695 247.328L67.363 249.582L66.677 250.618L63.163 248.434ZM59.845 256.302V251.654H69.841V256.302H59.845ZM61.231 252.83V255.14H68.455V252.83H61.231ZM82.2578 244.5H83.6438V256.456H82.2578V244.5ZM77.8338 244.85C77.8198 246.684 77.6658 248.336 77.3578 249.764L81.2218 254.916L80.1018 255.714L76.9238 251.374C76.0418 254.006 74.5858 255.602 72.6958 255.742V254.342C75.0898 253.964 76.4058 249.82 76.4198 244.794L77.8338 244.85ZM101.356 245.69V246.894H90.3244V245.69H95.1124V244.206H96.5404V245.69H101.356ZM90.8844 249.918C90.8844 248.364 93.0124 247.664 95.8404 247.664C98.6684 247.664 100.796 248.364 100.796 249.918C100.796 251.458 98.6684 252.158 95.8404 252.158C93.0124 252.158 90.8844 251.458 90.8844 249.918ZM99.3824 249.918C99.3824 249.162 97.8704 248.812 95.8404 248.812C93.8244 248.812 92.2984 249.162 92.2984 249.918C92.2984 250.66 93.8244 251.01 95.8404 251.01C97.8704 251.01 99.3824 250.66 99.3824 249.918ZM101.818 252.984V254.216H96.5404V256.736H95.1264V254.216H89.8764V252.984H101.818ZM119.769 249.344V250.674H118.089V256.456H116.703V244.5H118.089V249.344H119.769ZM109.241 254.482H112.573C113.707 254.482 114.939 254.258 115.667 253.908V255.168C114.939 255.532 113.651 255.742 112.503 255.742H107.827V244.934H114.729V246.194H109.241V254.482ZM130.506 244.5H131.892V256.456H130.506V244.5ZM126.082 244.85C126.068 246.684 125.914 248.336 125.606 249.764L129.47 254.916L128.35 255.714L125.172 251.374C124.29 254.006 122.834 255.602 120.944 255.742V254.342C123.338 253.964 124.654 249.82 124.668 244.794L126.082 244.85ZM146.16 245.382V246.418H138.166V245.382H141.4V244.164H142.828V245.382H146.16ZM150.626 247.692V248.98H148.974V252.704H147.588V244.5H148.974V247.692H150.626ZM146.594 251.99C145.838 252.312 144.312 252.452 142.618 252.452H138.124V251.388H141.442V250.534C139.72 250.394 138.698 249.75 138.698 248.756C138.698 247.65 140 246.95 142.142 246.95C144.284 246.95 145.586 247.65 145.586 248.756C145.586 249.75 144.55 250.408 142.814 250.534V251.388C144.396 251.374 145.852 251.234 146.594 250.912V251.99ZM140 248.756C140 249.232 140.714 249.582 142.142 249.582C143.556 249.582 144.27 249.232 144.27 248.756C144.27 248.294 143.556 247.958 142.142 247.958C140.714 247.958 140 248.294 140 248.756ZM138.894 254.426V253.348H148.974V256.456H147.588V254.426H138.894ZM161.363 253.376V244.5H162.749V253.376H161.363ZM155.497 251.57C153.159 251.57 151.703 250.1 151.703 248.098C151.703 246.096 153.159 244.626 155.497 244.626C157.835 244.626 159.277 246.096 159.277 248.098C159.277 250.1 157.835 251.57 155.497 251.57ZM155.497 250.394C156.911 250.394 157.891 249.512 157.891 248.098C157.891 246.684 156.911 245.788 155.497 245.788C154.069 245.788 153.089 246.684 153.089 248.098C153.089 249.512 154.069 250.394 155.497 250.394ZM152.753 256.302V252.396H154.167V255.042H163.071V256.302H152.753ZM168.67 244.472V246.362H171.176V247.608H164.792V246.362H167.298V244.472H168.67ZM175.264 244.5H176.552V256.456H175.264V250.618H173.346V256.246H172.058V244.57H173.346V249.316H175.264V244.5ZM168.04 248.546C169.65 248.546 170.826 249.834 170.826 252.214C170.826 254.594 169.65 255.882 168.04 255.882C166.444 255.882 165.268 254.594 165.268 252.214C165.268 249.834 166.444 248.546 168.04 248.546ZM168.04 254.664C168.908 254.664 169.552 253.782 169.552 252.214C169.552 250.646 168.908 249.764 168.04 249.764C167.186 249.764 166.556 250.646 166.556 252.214C166.556 253.782 167.186 254.664 168.04 254.664ZM184.251 248.378C183.047 249.806 181.073 250.674 178.917 250.814V249.526C181.353 249.33 183.383 248.056 183.887 246.068H179.211V244.808H189.767V246.068H185.357C185.273 246.502 185.133 246.922 184.951 247.3L190.159 249.61L189.585 250.772L184.251 248.378ZM190.467 252.102V253.39H185.175V256.736H183.775V253.39H178.525V252.102H190.467ZM202.17 244.5H203.486V256.456H202.17V244.5ZM199.16 248.588V244.57H200.476V256.246H199.16V249.904H197.27V248.588H199.16ZM195.968 244.85C195.968 246.712 195.87 248.322 195.702 249.708L198.6 254.972L197.438 255.588L195.338 251.668C194.736 254.062 193.686 255.406 192.09 255.742V254.342C193.98 253.726 194.624 250.128 194.638 244.794L195.968 244.85ZM214.656 254.608H217.4V255.882H205.458V254.608H208.202V251.374C206.83 250.744 206.032 249.694 206.032 248.35C206.032 246.138 208.16 244.71 211.422 244.71C214.684 244.71 216.812 246.138 216.812 248.35C216.812 249.68 216.014 250.744 214.656 251.36V254.608ZM207.502 248.35C207.502 249.778 209.07 250.716 211.422 250.716C213.774 250.716 215.356 249.778 215.356 248.35C215.356 246.894 213.774 245.97 211.422 245.97C209.07 245.97 207.502 246.894 207.502 248.35ZM209.588 251.808V254.608H213.27V251.808C212.71 251.92 212.094 251.976 211.422 251.976C210.764 251.976 210.148 251.92 209.588 251.808ZM219.961 256.344C219.401 256.344 218.967 255.91 218.967 255.35C218.967 254.79 219.401 254.356 219.961 254.356C220.521 254.356 220.941 254.79 220.941 255.35C220.941 255.91 220.521 256.344 219.961 256.344Z" fill="#9E9E9E"/>
<defs>
<clipPath id="clip0_745_5383">
<rect width="129" height="76" fill="white" transform="translate(75.5 128)"/>
</clipPath>
</defs>
</svg>
