<svg width="24" height="25" viewBox="0 0 24 25" fill="none" xmlns="http://www.w3.org/2000/svg">
<g clip-path="url(#clip0_530_1314)">
<path d="M18.364 16.8639L12 23.2279L5.636 16.8639C4.37734 15.6052 3.52019 14.0016 3.17293 12.2558C2.82567 10.5099 3.00391 8.70035 3.6851 7.05582C4.36629 5.41129 5.51984 4.00569 6.99988 3.01677C8.47992 2.02784 10.22 1.5 12 1.5C13.78 1.5 15.5201 2.02784 17.0001 3.01677C18.4802 4.00569 19.6337 5.41129 20.3149 7.05582C20.9961 8.70035 21.1743 10.5099 20.8271 12.2558C20.4798 14.0016 19.6227 15.6052 18.364 16.8639ZM12 12.4999C12.5304 12.4999 13.0391 12.2892 13.4142 11.9141C13.7893 11.5391 14 11.0304 14 10.4999C14 9.96949 13.7893 9.46078 13.4142 9.08571C13.0391 8.71064 12.5304 8.49992 12 8.49992C11.4696 8.49992 10.9609 8.71064 10.5858 9.08571C10.2107 9.46078 10 9.96949 10 10.4999C10 11.0304 10.2107 11.5391 10.5858 11.9141C10.9609 12.2892 11.4696 12.4999 12 12.4999Z" fill="#FFE977"/>
</g>
<defs>
<clipPath id="clip0_530_1314">
<rect width="24" height="24" fill="white" transform="translate(0 0.5)"/>
</clipPath>
</defs>
</svg>
