<svg width="34" height="44" viewBox="0 0 34 44" fill="none" xmlns="http://www.w3.org/2000/svg">
<g filter="url(#filter0_d_745_3784)">
<path d="M21.4265 21.142C22.1243 16.829 22.4854 12.4603 22.5027 8.08816C22.5027 7.71251 22.4923 7.30555 22.2666 7.00642C21.9438 6.58208 21.3362 6.54382 20.805 6.54034C19.7599 6.53338 18.7184 6.52643 17.6734 6.52295C17.1699 6.52295 16.5936 6.55078 16.2777 6.94382C16.0416 7.23947 16.0312 7.6499 16.0312 8.02903C16.0381 12.0186 16.0485 16.0081 16.0555 19.9976C16.0555 20.2898 16.0485 20.6063 15.8645 20.8359C15.625 21.135 15.184 21.1629 14.7986 21.1629C12.035 21.1629 9.27142 21.1663 6.50781 21.1698C7.53202 26.7072 12.9933 30.4324 14.6528 35.8097C14.8472 36.4358 15.059 37.1662 15.6666 37.4097C16.2429 37.6393 16.8852 37.2984 17.3852 36.9297C21.9507 33.5384 23.1589 27.1976 26.8565 22.8741C27.1689 22.5089 27.5231 22.0881 27.4675 21.6115C27.3668 20.7559 26.1933 20.6133 25.3392 20.7037C23.8255 20.8637 22.3118 21.0237 20.798 21.1872" fill="black"/>
<path d="M21.9262 21.2801C22.4192 18.2088 22.756 15.1097 22.9157 12.0036C22.9539 11.2384 22.9817 10.4732 22.999 9.708C23.0164 9.00888 23.0789 8.27845 22.999 7.5828C22.9296 6.96367 22.6206 6.45933 22.0373 6.21237C21.454 5.96542 20.8291 6.01759 20.2285 6.01411C19.4577 6.01064 18.6904 6.00368 17.9197 6.0002C17.3676 6.0002 16.7635 5.98281 16.2705 6.2715C15.7497 6.57759 15.5553 7.13063 15.5206 7.70454C15.472 8.46975 15.5171 9.25235 15.5206 10.0176C15.5275 13.1688 15.5345 16.3201 15.538 19.4714C15.538 19.7114 15.6456 20.3305 15.4408 20.5288C15.2533 20.7097 14.7776 20.6331 14.545 20.6331C13.6527 20.6331 12.7605 20.6331 11.8682 20.6331C10.0836 20.6331 8.2991 20.6331 6.51456 20.6366C6.15348 20.6366 5.94865 20.9671 6.01114 21.2975C6.60483 24.3896 8.51783 26.9461 10.3544 29.4122C11.2953 30.6783 12.2397 31.9513 13.0104 33.3287C13.375 33.9757 13.7013 34.647 13.9583 35.3461C14.2152 36.0452 14.3506 36.8661 14.8644 37.4435C16.149 38.88 18.0169 37.193 18.9925 36.2296C20.0861 35.1513 20.9819 33.8783 21.7665 32.56C23.374 29.854 24.5509 26.8975 26.3841 24.3236C26.6514 23.9479 26.9361 23.5862 27.2347 23.2314C27.5159 22.8975 27.8214 22.5462 27.943 22.1149C28.1721 21.2975 27.686 20.5949 26.9292 20.3166C26.0994 20.014 25.1932 20.1845 24.3392 20.2749C23.1622 20.4001 21.9852 20.5253 20.8083 20.6505C20.1486 20.7201 20.1417 21.7636 20.8083 21.694C21.763 21.5931 22.7143 21.4923 23.6691 21.3914C24.4572 21.3079 25.2905 21.1305 26.0855 21.2001C26.6132 21.2453 27.193 21.4575 26.8285 22.0697C26.4639 22.6818 25.905 23.214 25.4884 23.7983C23.8184 26.1462 22.69 28.8174 21.2839 31.3218C20.6034 32.5357 19.857 33.7218 18.9404 34.7722C18.4092 35.3809 16.3434 37.7774 15.5553 36.6296C15.1838 36.087 15.0797 35.3287 14.8366 34.72C14.5728 34.0626 14.2638 33.4226 13.9166 32.8035C13.2153 31.5548 12.3751 30.3931 11.5245 29.2418C9.66355 26.727 7.62556 24.1705 7.02146 21.0192L6.51803 21.6801C8.01441 21.6801 9.51078 21.6801 11.0072 21.6801C11.7571 21.6801 12.5035 21.6801 13.2535 21.6801C13.9201 21.6801 14.6144 21.7357 15.281 21.6523C15.8296 21.5827 16.3122 21.3044 16.4927 20.7584C16.6941 20.1566 16.583 19.4088 16.5795 18.7827C16.5795 17.2801 16.5726 15.7775 16.5691 14.2715C16.5656 12.7654 16.5622 11.2663 16.5587 9.76018C16.5587 9.06801 16.4858 8.33062 16.5656 7.64193C16.6351 7.03672 17.1767 7.04367 17.6732 7.04367C18.3884 7.04367 19.1001 7.05063 19.8153 7.05759C20.3604 7.05759 21.1346 6.93585 21.6485 7.17237C22.1623 7.40889 21.9818 8.32714 21.9748 8.76888C21.9644 9.50626 21.947 10.2437 21.9193 10.981C21.7908 14.3375 21.4575 17.6871 20.9228 21.0018C20.8187 21.6592 21.8221 21.941 21.9262 21.2801Z" fill="white"/>
</g>
<defs>
<filter id="filter0_d_745_3784" x="0" y="0" width="34" height="44" filterUnits="userSpaceOnUse" color-interpolation-filters="sRGB">
<feFlood flood-opacity="0" result="BackgroundImageFix"/>
<feColorMatrix in="SourceAlpha" type="matrix" values="0 0 0 0 0 0 0 0 0 0 0 0 0 0 0 0 0 0 127 0" result="hardAlpha"/>
<feOffset/>
<feGaussianBlur stdDeviation="3"/>
<feComposite in2="hardAlpha" operator="out"/>
<feColorMatrix type="matrix" values="0 0 0 0 0 0 0 0 0 0 0 0 0 0 0 0 0 0 0.2 0"/>
<feBlend mode="normal" in2="BackgroundImageFix" result="effect1_dropShadow_745_3784"/>
<feBlend mode="normal" in="SourceGraphic" in2="effect1_dropShadow_745_3784" result="shape"/>
</filter>
</defs>
</svg>
