<svg width="82" height="112" viewBox="0 0 82 112" fill="none" xmlns="http://www.w3.org/2000/svg">
<path d="M44.1391 71.259C41.1521 68.7991 36.7674 68.5275 33.1494 69.8933C29.5314 71.259 26.6003 74.0384 24.3001 77.1452C22.2156 79.9566 20.5224 83.1752 20.1949 86.6574C19.7317 91.4814 22.0079 96.3294 25.57 99.6039C29.1321 102.878 33.8682 104.691 38.6602 105.386C46.5351 106.528 55.6959 104.068 59.4497 97.0482C60.7755 94.5643 61.3186 91.745 61.6061 88.9417C62.1332 83.8142 61.7738 78.3193 58.9385 74.0145C54.3302 67.0181 44.6024 65.2929 36.3521 66.7545" fill="black"/>
<path d="M44.9859 70.4127C41.1603 67.3778 36.0008 67.2499 31.6561 69.2307C27.3113 71.2114 23.5655 75.4124 21.2414 79.6773C18.7814 84.1818 18.2064 89.2374 20.2191 94.0295C22.2317 98.8215 25.9455 102.16 30.4501 104.229C38.3409 107.846 48.8834 108.118 56.0715 102.711C60.001 99.748 61.9258 95.4591 62.5966 90.6671C63.2675 85.875 63.2835 80.3882 61.2149 75.7159C56.99 66.1638 45.3533 64.0074 36.0328 65.6127C34.5153 65.8763 35.1622 68.1844 36.6717 67.9209C43.6921 66.7069 52.3018 67.7372 57.1178 73.5595C59.969 77.0018 60.7118 81.6341 60.6 85.9788C60.4882 90.3236 59.8812 95.1316 57.0139 98.55C52.0941 104.428 43.2608 105.403 36.2085 103.701C31.8957 102.663 27.7745 100.587 24.8753 97.1603C21.9761 93.734 20.6344 89.2854 21.6806 84.9885C22.8147 80.3243 26.2171 75.7079 30.0986 72.9126C33.9802 70.1172 39.3792 69.0071 43.2847 72.1139C44.4827 73.0643 46.1839 71.3791 44.9779 70.4207L44.9859 70.4127Z" fill="white"/>
<path d="M43.5879 87.6323L44.0511 79.3102C44.123 78.0722 44.1629 76.7464 43.508 75.7082C42.8531 74.6699 41.1839 74.1827 40.3692 75.1092C39.9459 75.5884 39.874 76.2832 39.8261 76.9221C39.5865 79.9651 39.3469 83.016 39.1153 86.0589C39.0913 86.3225 39.0594 86.618 38.8597 86.7858C38.684 86.9295 38.4364 86.9375 38.2048 86.9375C36.0404 86.9375 33.868 86.9534 31.7036 86.9534C34.1555 90.252 37.0228 93.247 40.2095 95.8507C40.5609 96.1382 40.9602 96.4417 41.4155 96.4497C41.8627 96.4497 42.2621 96.1861 42.6295 95.9226C45.7682 93.6543 48.915 91.3861 52.0538 89.1179C52.2694 88.9661 52.509 88.7185 52.3972 88.4869C52.3253 88.3272 52.1417 88.2713 51.9739 88.2313C49.3064 87.5605 46.6388 86.8976 43.9712 86.2267" fill="#FD9DC3"/>
<g clip-path="url(#clip0_525_962)">
<path d="M6.31492 8.18865C7.38492 8.09041 8.45492 7.98234 9.52492 7.88409C9.74492 7.86444 9.96492 7.83497 10.1749 7.84479C10.2449 7.84479 10.2549 7.84479 10.1849 7.84479L10.2949 7.87427C10.2949 7.87427 10.1949 7.79567 10.1649 7.77602C10.1349 7.6876 10.1349 7.66795 10.1549 7.73672C10.1749 7.80549 10.1749 7.79567 10.1549 7.69742C10.1649 7.78584 10.1549 7.88409 10.1549 7.98234C10.1649 7.83497 10.1549 8.00198 10.1349 8.06093C10.1149 8.15918 10.0849 8.25742 10.0449 8.34584C10.0249 8.39497 9.96492 8.56199 10.0149 8.43427C9.96492 8.55216 9.90492 8.67988 9.84492 8.79777C9.74492 9.01391 9.63492 9.23988 9.53492 9.45602C9.31492 9.91777 9.08492 10.3697 8.84492 10.8118C8.36492 11.7058 7.85492 12.5901 7.30492 13.4546C7.02492 13.9065 7.20492 14.5353 7.66492 14.8006C8.12492 15.0658 8.74492 14.8988 9.03492 14.4469C9.67492 13.435 10.2649 12.3936 10.8149 11.3325C11.0749 10.8216 11.3349 10.3009 11.5749 9.78023C11.8149 9.25953 12.0449 8.7683 12.1249 8.19848C12.2049 7.58935 12.1049 6.98023 11.6749 6.50865C11.2449 6.03707 10.6149 5.86023 9.99492 5.87988C9.41492 5.8897 8.83492 5.97813 8.25492 6.03707L6.29492 6.22374C5.75492 6.27286 5.29492 6.63637 5.29492 7.2062C5.29492 7.69742 5.75492 8.23777 6.29492 8.18865H6.31492Z" fill="black"/>
<path d="M10.1848 11.0771L14.4148 12.875C14.6748 12.9831 14.9048 13.0519 15.1848 12.9733C15.4148 12.9143 15.6648 12.7375 15.7848 12.5213C16.0148 12.0989 15.9348 11.3915 15.4248 11.1754L11.1948 9.37747C10.9348 9.2694 10.7048 9.20063 10.4248 9.27923C10.1948 9.33817 9.94483 9.51502 9.82483 9.73116C9.59483 10.1536 9.67483 10.861 10.1848 11.0771Z" fill="black"/>
<path d="M6.02488 16.6575C9.80488 16.7263 13.5849 16.1663 17.1749 15.0168C18.3949 14.6238 17.8749 12.7277 16.6449 13.1207C13.2149 14.221 9.64488 14.7614 6.03488 14.6926C4.74488 14.673 4.74488 16.6379 6.03488 16.6575H6.02488Z" fill="black"/>
<path d="M10.645 15.9205C10.485 17.1682 10.595 18.4552 10.925 19.6636C11.055 20.1647 11.645 20.5086 12.155 20.3514C12.665 20.1942 12.995 19.6735 12.855 19.1429C12.755 18.7598 12.675 18.3668 12.615 17.9738L12.655 18.2391C12.555 17.4728 12.555 16.6966 12.655 15.9205C12.685 15.6847 12.525 15.3801 12.365 15.2229C12.195 15.0559 11.905 14.9282 11.655 14.938C11.405 14.9479 11.125 15.0363 10.945 15.2229C10.755 15.4293 10.685 15.6454 10.655 15.9205H10.645Z" fill="black"/>
<path d="M10.955 18.7011C10.505 19.2119 10.145 19.7818 9.94497 20.44C9.75497 21.0491 9.72497 21.786 9.94497 22.3853C10.415 23.6625 11.765 24.6351 13.185 24.2421C14.385 23.9081 15.355 22.7586 15.575 21.5698C15.795 20.3811 15.405 19.094 14.285 18.4358C13.235 17.8267 11.665 17.8561 10.855 18.8484C10.685 19.0547 10.565 19.2611 10.565 19.546C10.565 19.7916 10.675 20.0765 10.855 20.2435C11.215 20.5677 11.915 20.6758 12.265 20.2435C12.315 20.1846 12.365 20.1354 12.425 20.0765C12.545 19.9488 12.215 20.214 12.365 20.1158C12.395 20.0961 12.415 20.0863 12.445 20.0667C12.485 20.047 12.525 20.0274 12.565 20.0077C12.365 20.1354 12.365 20.0765 12.455 20.0568C12.545 20.0274 12.625 20.0077 12.715 19.9881C12.885 19.9488 12.485 19.9979 12.605 20.0077C12.645 20.0077 12.685 20.0077 12.725 20.0077C12.805 20.0077 12.885 20.0175 12.955 20.0077C12.685 20.0077 12.755 19.9782 12.855 19.9979C12.895 19.9979 12.935 20.0175 12.975 20.0175C13.065 20.0372 13.155 20.0765 13.245 20.106C12.945 20.0175 13.165 20.0765 13.265 20.1256C13.355 20.1747 13.525 20.3418 13.295 20.1256C13.355 20.1747 13.415 20.2239 13.465 20.2828C13.485 20.3025 13.505 20.3319 13.525 20.3516C13.645 20.4793 13.385 20.1354 13.495 20.3221C13.515 20.3516 13.535 20.3909 13.555 20.4204C13.575 20.4498 13.635 20.6168 13.575 20.4498C13.515 20.2828 13.615 20.5677 13.625 20.6168C13.635 20.6561 13.645 20.7053 13.655 20.7446C13.695 20.9018 13.645 20.6561 13.645 20.6463C13.635 20.7446 13.665 20.8625 13.655 20.9705C13.655 21.0197 13.635 21.0884 13.645 21.1277C13.645 21.1179 13.695 20.8723 13.655 21.0295C13.635 21.1179 13.615 21.2063 13.595 21.2947C13.575 21.3832 13.535 21.4716 13.505 21.56C13.595 21.2849 13.545 21.4618 13.505 21.5305C13.475 21.5797 13.455 21.6288 13.425 21.6779C13.375 21.7565 13.325 21.8351 13.275 21.9137C13.185 22.0414 13.315 21.8547 13.325 21.8449C13.285 21.8646 13.245 21.9333 13.215 21.9726C13.155 22.0414 13.085 22.1004 13.015 22.1691C13.015 22.1691 12.935 22.2281 12.925 22.2379C13.035 22.1495 13.045 22.1397 12.965 22.2084C12.925 22.2379 12.885 22.2575 12.845 22.2772C12.805 22.2968 12.765 22.3165 12.725 22.346C12.525 22.454 12.935 22.2968 12.715 22.346C12.675 22.3558 12.625 22.3656 12.585 22.3853C12.365 22.454 12.825 22.3853 12.615 22.3853C12.565 22.3853 12.285 22.3656 12.475 22.3853C12.665 22.4049 12.475 22.3853 12.445 22.3754C12.395 22.3656 12.335 22.3263 12.285 22.3263L12.425 22.3853C12.425 22.3853 12.355 22.3558 12.325 22.3361C12.295 22.3165 12.255 22.2968 12.225 22.2772C12.155 22.2379 12.045 22.12 12.245 22.3067C12.215 22.2772 12.185 22.2575 12.155 22.2379C12.095 22.1888 12.025 22.0611 11.955 22.0316L12.045 22.1397C12.045 22.1397 11.995 22.0807 11.975 22.0512C11.945 22.0021 11.915 21.953 11.885 21.9039C11.865 21.8744 11.805 21.7074 11.865 21.8646C11.925 22.0414 11.845 21.8056 11.835 21.7663C11.825 21.727 11.815 21.6975 11.805 21.6582C11.805 21.6189 11.785 21.5797 11.785 21.5404C11.805 21.6975 11.805 21.7172 11.795 21.6091C11.795 21.4912 11.795 21.3832 11.795 21.2653V21.2358C11.805 21.1277 11.805 21.1474 11.795 21.3046C11.815 21.2849 11.825 21.1572 11.835 21.1179C11.865 20.9902 11.905 20.8723 11.945 20.7544C12.015 20.5481 11.865 20.9116 11.935 20.7839C11.975 20.7151 12.005 20.6463 12.035 20.5775C12.095 20.4597 12.165 20.3516 12.245 20.2435C12.265 20.214 12.305 20.1747 12.325 20.1354C12.235 20.2435 12.225 20.2632 12.285 20.1846C12.315 20.1551 12.345 20.1158 12.365 20.0863C12.705 19.6933 12.785 19.0744 12.365 18.7011C11.995 18.367 11.315 18.2884 10.955 18.7011Z" fill="black"/>
<path d="M19.8449 8.68967C20.2449 8.5423 20.6549 8.4244 21.0649 8.32616C21.2749 8.27703 21.4849 8.23774 21.6949 8.19844C21.6949 8.19844 22.0149 8.14932 21.8549 8.16896C21.9649 8.15914 22.0649 8.13949 22.1749 8.12967C22.5749 8.09037 22.9849 8.06089 23.3849 8.09037C23.2749 8.07072 23.2549 8.07072 23.3249 8.09037C23.3949 8.11002 23.3849 8.10019 23.2849 8.06089C23.0949 7.91353 23.3549 8.17879 23.1849 7.943C23.1549 7.76616 23.2949 8.09037 23.1849 7.943C23.1349 7.67774 23.1849 7.89388 23.1849 7.96265V8.03142C23.1749 8.13949 23.1749 8.12967 23.1849 7.99212C23.1949 8.05107 23.1449 8.15914 23.1349 8.21809C23.0949 8.37528 23.0349 8.52265 22.9749 8.67984C22.8149 9.09247 22.6549 9.51493 22.4949 9.92756C22.1749 10.7626 21.8549 11.5977 21.5449 12.423C21.3649 12.9044 21.7449 13.5234 22.2449 13.6314C22.8149 13.7591 23.2749 13.4644 23.4749 12.9437C23.8449 11.9711 24.2149 10.9984 24.5849 10.0258C24.9049 9.18089 25.3649 8.26721 25.0949 7.35353C24.9349 6.79353 24.4649 6.3416 23.8949 6.1844C23.4149 6.05668 22.8749 6.08616 22.3749 6.12546C21.3249 6.20405 20.2949 6.41037 19.3049 6.76405C18.8149 6.94089 18.4349 7.44195 18.6049 7.97247C18.7649 8.44405 19.3049 8.84686 19.8349 8.66019L19.8449 8.68967Z" fill="black"/>
<path d="M27.1249 6.06668L28.3649 15.9109C28.4349 16.4414 28.7749 16.8934 29.3649 16.8934C29.8549 16.8934 30.4349 16.4414 30.3649 15.9109L29.1249 6.06668C29.0549 5.53616 28.7149 5.08423 28.1249 5.08423C27.6349 5.08423 27.0549 5.53616 27.1249 6.06668Z" fill="black"/>
<path d="M29.595 13.0813C30.975 12.8161 32.355 12.541 33.735 12.2757C34.245 12.1775 34.595 11.5487 34.435 11.0673C34.255 10.527 33.755 10.2715 33.205 10.3796C31.825 10.6448 30.445 10.9199 29.065 11.1852C28.555 11.2834 28.205 11.9122 28.365 12.3936C28.545 12.934 29.045 13.1894 29.595 13.0813Z" fill="black"/>
<path d="M21.5149 17.355L21.0349 21.2651C20.9649 21.8153 20.8949 22.3851 21.0949 22.9157C21.3149 23.5248 21.8249 23.9964 22.4749 24.1536C23.0649 24.3009 23.6449 24.2027 24.2349 24.1143C24.8949 24.0062 25.5549 23.9079 26.2149 23.7999C27.5349 23.5936 28.8649 23.3872 30.1849 23.1809C30.7149 23.0925 31.0149 22.4441 30.8849 21.9725C30.7249 21.4125 30.1949 21.2062 29.6549 21.2848C28.5349 21.4616 27.4149 21.6385 26.2949 21.8153C25.7349 21.9037 25.1749 21.9921 24.6149 22.0806C24.1149 22.1592 23.5949 22.2672 23.1849 22.2771C23.0149 22.2771 22.9849 22.3164 22.9049 22.2279C23.0349 22.3655 22.9749 22.2279 22.9649 22.1886C22.9349 21.7171 23.0449 21.216 23.1049 20.7444L23.5149 17.3648C23.5749 16.8343 23.0049 16.3823 22.5149 16.3823C21.9249 16.3823 21.5749 16.8343 21.5149 17.3648V17.355Z" fill="black"/>
<path d="M37.0049 8.47349C37.9049 8.47349 38.7849 8.54226 39.6649 8.73875C39.8849 8.78788 40.1049 8.837 40.3149 8.89595C40.3349 8.89595 40.6049 8.94507 40.4449 8.93524L40.5249 8.98437C40.3849 8.91559 40.3249 8.80752 40.3349 8.66016C40.2749 8.32612 40.2949 8.56191 40.2749 8.58156C40.2149 8.66016 40.1749 8.77805 40.1349 8.86647C40.0349 9.07279 39.9249 9.2791 39.8149 9.48542C38.9949 11.0181 38.0449 12.4721 36.9449 13.8181C36.6049 14.2307 36.5349 14.8005 36.9449 15.2033C37.2949 15.5472 38.0149 15.6159 38.3549 15.2033C39.7549 13.4938 40.9749 11.6566 41.9449 9.68191C42.2449 9.07279 42.4549 8.42437 42.0649 7.78577C41.7349 7.26507 41.1549 7.06858 40.5849 6.92121C39.4149 6.6363 38.2049 6.48893 37.0049 6.49875C36.4649 6.49875 36.0049 6.95068 36.0049 7.48121C36.0049 8.01173 36.4649 8.46366 37.0049 8.46366V8.47349Z" fill="black"/>
<path d="M41.015 11.3914C41.845 12.3149 42.745 13.1697 43.705 13.9655C43.915 14.1325 44.135 14.2504 44.415 14.2504C44.665 14.2504 44.955 14.1423 45.125 13.9655C45.295 13.7886 45.425 13.5332 45.415 13.2679C45.405 13.0223 45.325 12.7374 45.125 12.5704C44.165 11.7844 43.265 10.9198 42.435 9.99634C42.275 9.8195 41.965 9.71143 41.725 9.71143C41.485 9.71143 41.185 9.8195 41.015 9.99634C40.625 10.409 40.645 10.969 41.015 11.3816V11.3914Z" fill="black"/>
<path d="M45.3549 5.19221L45.9549 15.0462C46.0349 16.3038 48.0349 16.3136 47.9549 15.0462L47.3549 5.19221C47.2749 3.93466 45.2749 3.92484 45.3549 5.19221Z" fill="black"/>
<path d="M47.035 10.2322H51.465C51.985 10.2322 52.485 9.78032 52.465 9.24979C52.445 8.71926 52.025 8.26733 51.465 8.26733H47.035C46.515 8.26733 46.015 8.71926 46.035 9.24979C46.055 9.78032 46.475 10.2322 47.035 10.2322Z" fill="black"/>
<path d="M42.355 16.5296C41.265 16.677 40.385 17.7086 40.205 18.7402C40.095 19.3788 40.175 19.9781 40.475 20.5675C40.735 21.0784 41.195 21.5009 41.685 21.7956C42.755 22.4146 44.215 22.4735 45.275 21.7956C46.335 21.1177 46.855 19.8209 46.575 18.6026C46.265 17.2861 44.845 16.284 43.465 16.4216C42.945 16.4707 42.435 16.8342 42.465 17.404C42.485 17.8953 42.905 18.4356 43.465 18.3865C43.565 18.3865 43.665 18.3767 43.765 18.3865C43.805 18.3865 43.845 18.3963 43.885 18.3963C43.865 18.3963 43.635 18.3472 43.795 18.3963C43.885 18.416 43.965 18.4454 44.055 18.4651C44.185 18.5044 43.825 18.3472 44.015 18.4454C44.055 18.4651 44.105 18.4946 44.145 18.5142C44.235 18.5633 44.415 18.7303 44.215 18.5437C44.275 18.6026 44.355 18.6616 44.415 18.7205C44.435 18.7402 44.495 18.8286 44.515 18.8286C44.495 18.8286 44.385 18.6321 44.465 18.7696C44.515 18.8482 44.555 18.9465 44.615 19.0251C44.505 18.8581 44.555 18.8777 44.585 18.9563C44.595 19.0054 44.615 19.0546 44.625 19.0939C44.625 19.1332 44.645 19.1724 44.655 19.2117C44.685 19.3395 44.645 18.9563 44.655 19.1528C44.655 19.2314 44.655 19.31 44.655 19.3886C44.655 19.4181 44.635 19.6146 44.655 19.4377C44.675 19.2609 44.645 19.477 44.635 19.5163C44.625 19.5654 44.545 19.7325 44.555 19.7717C44.555 19.7521 44.665 19.5556 44.585 19.703C44.565 19.7423 44.545 19.7717 44.525 19.811C44.505 19.8503 44.475 19.8995 44.445 19.9388C44.425 19.9682 44.355 20.0861 44.435 19.9584C44.525 19.8209 44.415 19.9682 44.395 19.9977C44.355 20.037 44.305 20.0763 44.265 20.1254C44.185 20.204 44.205 20.1058 44.325 20.0861C44.295 20.0861 44.235 20.1451 44.205 20.1647C44.155 20.1942 44.095 20.2139 44.045 20.2433C43.925 20.3121 44.215 20.1844 44.085 20.2237C43.985 20.2532 43.885 20.2925 43.775 20.3121C43.775 20.3121 43.645 20.3514 43.635 20.3416C43.785 20.3219 43.805 20.3219 43.685 20.3416H43.625C43.535 20.3416 43.445 20.3416 43.355 20.3416C43.315 20.3416 43.245 20.3219 43.205 20.3317C43.225 20.3317 43.455 20.3809 43.295 20.3317C43.205 20.3121 43.115 20.2924 43.035 20.2728C42.995 20.263 42.955 20.2532 42.915 20.2335C42.705 20.1647 43.015 20.2826 42.925 20.2433C42.845 20.204 42.765 20.1647 42.685 20.1156C42.645 20.096 42.405 19.9289 42.535 20.0272C42.655 20.1156 42.555 20.0272 42.525 20.0075C42.485 19.9781 42.455 19.9388 42.415 19.9093C42.385 19.8798 42.365 19.8503 42.335 19.8209C42.255 19.7325 42.255 19.6539 42.335 19.8405C42.305 19.7717 42.245 19.7128 42.205 19.644C42.185 19.6146 42.125 19.4475 42.175 19.6047C42.225 19.7619 42.175 19.5851 42.165 19.5556C42.145 19.4868 42.145 19.4082 42.115 19.3493C42.195 19.5163 42.135 19.5458 42.125 19.4279C42.125 19.3788 42.125 19.3395 42.125 19.2903C42.125 19.2412 42.125 19.2019 42.125 19.1528C42.125 19.0644 42.065 19.4082 42.125 19.2019C42.145 19.1135 42.175 19.0251 42.195 18.9465C42.225 18.8384 42.285 18.8482 42.165 19.0054C42.195 18.9661 42.215 18.9072 42.235 18.8581C42.255 18.8286 42.275 18.7991 42.295 18.7696C42.355 18.6812 42.435 18.6517 42.265 18.7991C42.335 18.7402 42.385 18.6616 42.445 18.6026C42.465 18.583 42.505 18.5535 42.525 18.5339C42.395 18.6321 42.365 18.6517 42.455 18.5928L42.495 18.5633C42.495 18.5633 42.575 18.524 42.615 18.4946C42.765 18.4061 42.605 18.524 42.545 18.524C42.625 18.524 42.775 18.4651 42.855 18.4553C43.085 18.4258 43.345 18.19 43.455 18.0033C43.585 17.797 43.635 17.4826 43.555 17.2468C43.475 17.011 43.325 16.7753 43.095 16.6574C42.845 16.5296 42.605 16.5198 42.325 16.5591L42.355 16.5296Z" fill="black"/>
<path d="M54.705 6.39087C54.195 9.34806 53.225 12.1972 51.795 14.8498C51.195 15.9698 52.915 16.9621 53.525 15.8421C55.035 13.0421 56.095 10.0358 56.635 6.91157C56.725 6.39087 56.495 5.85052 55.935 5.70315C55.455 5.57543 54.795 5.86034 54.705 6.39087Z" fill="black"/>
<path d="M55.0249 10.3206C55.8949 12.2364 57.1749 13.995 58.7249 15.4392C59.1049 15.7929 59.7649 15.8322 60.1349 15.4392C60.5049 15.0462 60.5449 14.4273 60.1349 14.0539C59.7749 13.7199 59.4249 13.3662 59.0949 12.9929C58.9249 12.8062 58.7649 12.6097 58.6049 12.4132C58.5049 12.2953 58.6949 12.5311 58.6049 12.4132C58.5649 12.3543 58.5149 12.3052 58.4749 12.2462C58.3949 12.148 58.3249 12.0399 58.2449 11.9416C57.6649 11.1262 57.1649 10.2518 56.7449 9.34796C56.5349 8.87638 55.7949 8.72901 55.3749 8.99428C54.8749 9.30866 54.7849 9.83919 55.0149 10.3402L55.0249 10.3206Z" fill="black"/>
<path d="M55.2149 15.0462C55.1949 15.3016 55.1849 15.5473 55.1549 15.8027C55.1449 15.9108 55.1349 16.0188 55.1249 16.1269C55.1249 16.1957 55.1049 16.2743 55.0949 16.343C55.0749 16.4609 55.0749 16.4904 55.0949 16.402C55.0349 16.8637 54.9449 17.3255 54.8449 17.7873C54.6449 18.7402 54.3649 19.6736 54.0249 20.5873C53.8449 21.0687 54.2249 21.6876 54.7249 21.7957C55.2849 21.9234 55.7649 21.6287 55.9549 21.108C56.6749 19.1627 57.0949 17.1192 57.2149 15.056C57.2449 14.5451 56.7349 14.0539 56.2149 14.0736C55.6449 14.103 55.2449 14.5058 55.2149 15.056V15.0462Z" fill="black"/>
<path d="M51.165 22.3852C54.315 22.6014 57.475 22.3852 60.565 21.7564C61.095 21.6484 61.395 21.0392 61.265 20.548C61.115 20.0077 60.565 19.7522 60.035 19.8603C57.115 20.4498 54.135 20.6266 51.165 20.4203C50.625 20.381 50.165 20.9017 50.165 21.4028C50.165 21.9628 50.625 22.3459 51.165 22.3852Z" fill="black"/>
<path d="M64.8849 10.2715C64.8849 10.2715 64.8049 10.3206 64.7549 10.3501C64.8349 10.3108 64.8549 10.3304 64.7549 10.3304C64.8149 10.3304 64.8749 10.3304 64.9349 10.3304C64.8049 10.3206 64.8849 10.3108 64.9349 10.3501C64.9849 10.3796 65.0549 10.409 64.9549 10.3501C64.9549 10.3501 65.1749 10.4778 65.0949 10.4287C65.0449 10.3992 65.2849 10.635 65.2549 10.5859C65.2549 10.5859 65.3149 10.7333 65.3249 10.7627C65.3649 10.9003 65.3749 10.9985 65.3749 11.1459C65.3749 11.4897 65.3049 11.8041 65.2249 12.1382C64.8249 13.7003 64.3549 15.2525 63.9149 16.8048C63.5749 18.0231 65.5049 18.5438 65.8449 17.3255C66.1349 16.3038 66.4149 15.282 66.7049 14.2603C66.9949 13.2385 67.3649 12.2462 67.3749 11.2147C67.3849 10.1831 66.9749 9.29887 66.1249 8.74869C65.2749 8.19851 64.2549 8.25746 63.4649 8.87641C63.0449 9.21044 63.1149 9.91781 63.4649 10.2617C63.8849 10.6743 64.4549 10.5957 64.8749 10.2617L64.8849 10.2715Z" fill="black"/>
<path d="M69.1249 6.66578C69.7049 11.6567 69.8649 16.6868 69.5949 21.7072C69.5249 22.9746 71.5249 22.9647 71.5949 21.7072C71.8649 16.6868 71.7049 11.6567 71.1249 6.66578C70.9849 5.42789 68.9749 5.40824 69.1249 6.66578Z" fill="black"/>
<path d="M71.1748 14.4961C71.9648 14.2013 72.7748 13.9754 73.6048 13.8084C73.8048 13.7691 74.0048 13.7298 74.2048 13.7003C74.3148 13.6806 74.4248 13.6708 74.5248 13.6512C74.3048 13.6806 74.6148 13.6512 74.6348 13.6413C75.0648 13.5922 75.5048 13.5627 75.9448 13.5529C76.4648 13.5333 76.9648 13.1108 76.9448 12.5705C76.9248 12.0301 76.5048 11.5684 75.9448 11.588C74.1348 11.647 72.3348 11.9712 70.6448 12.5999C70.1548 12.7768 69.7648 13.268 69.9448 13.8084C70.0948 14.2799 70.6548 14.6827 71.1748 14.4961Z" fill="black"/>
<path d="M9.23487 32.8089C10.0349 32.6026 10.6949 32.5142 11.5249 32.5142C11.7249 32.5142 11.9249 32.5142 12.1249 32.5338C12.2149 32.5338 12.3149 32.5338 12.4049 32.5535C12.2349 32.524 12.4549 32.583 12.4849 32.583C12.5949 32.583 12.4549 32.583 12.4249 32.5437C12.3749 32.4847 12.3349 32.3373 12.3749 32.5044C12.3949 32.583 12.3749 32.6223 12.3749 32.524C12.3749 32.6223 12.3749 32.7107 12.3749 32.8089C12.3949 34.5184 12.3849 36.2377 12.3949 37.9472C12.3949 38.458 12.8549 38.9493 13.3949 38.9296C13.9349 38.91 14.3949 38.4973 14.3949 37.9472C14.3949 36.9451 14.3949 35.943 14.3949 34.9409C14.3949 34.4398 14.3949 33.9387 14.3949 33.4377C14.3949 32.9366 14.4249 32.4651 14.3049 31.9935C14.0049 30.7851 12.7949 30.5886 11.7149 30.5591C10.7049 30.5395 9.68487 30.6672 8.71487 30.9226C8.19487 31.0602 7.87487 31.6202 8.01487 32.131C8.15487 32.6419 8.72487 32.9563 9.24487 32.8187L9.23487 32.8089Z" fill="black"/>
<path d="M9.56503 40.0889H15.765C16.285 40.0889 16.785 39.637 16.765 39.1065C16.745 38.576 16.325 38.124 15.765 38.124H9.56503C9.04503 38.124 8.54503 38.576 8.56503 39.1065C8.58503 39.637 9.00503 40.0889 9.56503 40.0889Z" fill="black"/>
<path d="M13.2748 39.9712C13.3348 40.5902 13.3448 41.2091 13.3048 41.8281C13.2948 41.9754 13.2848 42.113 13.2648 42.2603C13.2648 42.2898 13.2248 42.5747 13.2448 42.4175C13.2648 42.2603 13.2248 42.5452 13.2248 42.5747C13.1748 42.8793 13.1148 43.1838 13.0348 43.4884C12.9148 43.9895 13.1948 44.5789 13.7348 44.6968C14.2748 44.8147 14.8348 44.5495 14.9648 44.0091C15.2848 42.6926 15.4048 41.327 15.2748 39.981C15.2448 39.7158 15.1848 39.48 14.9848 39.2835C14.8148 39.1165 14.5248 38.9888 14.2748 38.9986C13.7748 39.0182 13.2248 39.4309 13.2748 39.981V39.9712Z" fill="black"/>
<path d="M14.0149 43.5669C12.6149 43.7536 11.3549 44.5199 10.6849 45.7774C10.0149 47.035 10.0549 48.5283 10.8049 49.7465C11.5549 50.9648 13.0949 51.9964 14.5849 51.7016C16.0749 51.4069 16.6649 49.6385 16.6349 48.3515C16.5949 46.8974 15.8649 45.522 14.6049 44.736C14.1649 44.4609 13.4849 44.6279 13.2349 45.0897C12.9749 45.5711 13.1249 46.1409 13.5949 46.4357C13.6449 46.4651 13.8849 46.6616 13.7249 46.5143C13.7949 46.5732 13.8649 46.6322 13.9349 46.7009C13.9649 46.7304 14.1649 46.9465 14.0949 46.8679C14.0149 46.7795 14.0949 46.8778 14.1149 46.8974C14.1649 46.9662 14.2049 47.0251 14.2449 47.0939C14.2949 47.1725 14.3349 47.2511 14.3849 47.3395C14.3949 47.369 14.4749 47.5164 14.4149 47.4083C14.3649 47.3002 14.4149 47.4181 14.4249 47.4378C14.5049 47.6539 14.5449 47.8799 14.6049 48.096C14.6449 48.2336 14.6049 47.929 14.6049 48.0764C14.6049 48.1157 14.6049 48.155 14.6149 48.1943C14.6149 48.3023 14.6249 48.4104 14.6149 48.5185C14.6049 48.6265 14.6049 48.7346 14.5949 48.8329C14.6149 48.6167 14.5849 48.882 14.5649 48.9606C14.5349 49.0686 14.5049 49.1669 14.4749 49.2651C14.4649 49.3044 14.4049 49.4322 14.4849 49.2553C14.4649 49.2946 14.4549 49.3241 14.4349 49.3634C14.3849 49.4616 14.3349 49.5501 14.2749 49.6385C14.2549 49.6778 14.2249 49.7072 14.2049 49.7465C14.3149 49.5992 14.1449 49.7957 14.1249 49.8153C14.1749 49.7662 14.2049 49.7858 14.1449 49.7858C14.0449 49.7858 14.1549 49.776 14.1749 49.7858C14.2949 49.8055 13.8649 49.7662 14.0449 49.7858C13.9249 49.7662 13.7949 49.7367 13.6849 49.6974C13.6249 49.6778 13.5749 49.6581 13.5149 49.6385C13.6449 49.6876 13.5449 49.6385 13.4749 49.609C13.3849 49.5599 13.2949 49.5108 13.2049 49.4518C13.1549 49.4223 13.1049 49.383 13.0549 49.3536C13.0749 49.3634 13.1949 49.4518 13.0549 49.3536C12.9649 49.275 12.8749 49.1964 12.7949 49.1079C12.7549 49.0686 12.5649 48.823 12.6649 48.9704C12.5349 48.7837 12.4249 48.5971 12.3249 48.4006C12.2549 48.263 12.3649 48.5381 12.3249 48.4006C12.3149 48.3416 12.2849 48.2925 12.2649 48.2336C12.2249 48.1058 12.2049 47.9781 12.1749 47.8504C12.2149 48.0371 12.1749 47.7915 12.1749 47.7227C12.1749 47.6244 12.1749 47.5164 12.1749 47.4181C12.1749 47.3886 12.1849 47.2216 12.1749 47.4181C12.1849 47.3592 12.1949 47.3101 12.2149 47.2511C12.2449 47.1234 12.2949 47.0055 12.3249 46.8876C12.3549 46.7795 12.3249 46.9072 12.3049 46.9269C12.3449 46.8483 12.3849 46.7697 12.4249 46.7009C12.4849 46.6027 12.5449 46.5044 12.6149 46.4062C12.6449 46.3669 12.7249 46.249 12.6149 46.4062C12.6649 46.3472 12.7049 46.2981 12.7549 46.249C12.8449 46.1508 12.9449 46.0722 13.0349 45.9837C13.0649 45.9543 13.1849 45.8757 13.0349 45.9837C13.0949 45.9444 13.1549 45.9051 13.2149 45.8658C13.3249 45.7971 13.4449 45.7381 13.5549 45.6792C13.5449 45.6792 13.4049 45.7283 13.5149 45.6988C13.5849 45.6792 13.6549 45.6497 13.7249 45.6301C13.7849 45.6104 13.8349 45.6006 13.8949 45.5809C13.9449 45.5711 14.2049 45.522 13.9749 45.5515C14.4949 45.4827 15.0049 45.1486 14.9749 44.569C14.9549 44.0974 14.5349 43.5178 13.9749 43.5865L14.0149 43.5669Z" fill="black"/>
<path d="M19.875 34.214L22.325 34.0175C22.705 33.988 23.085 33.9389 23.465 33.929C23.555 33.929 23.635 33.929 23.725 33.929C23.615 33.9094 23.595 33.9192 23.665 33.929C23.735 33.9487 23.715 33.9389 23.615 33.9094C23.535 33.8406 23.515 33.821 23.565 33.8701C23.615 33.9192 23.605 33.8996 23.525 33.8111C23.645 33.9782 23.495 33.6343 23.545 33.8406C23.565 33.9094 23.605 33.988 23.595 34.0568L23.575 33.9487C23.575 33.9978 23.575 34.0469 23.585 34.1059C23.585 34.2631 23.585 34.4301 23.585 34.5873C23.585 34.9803 23.585 35.3733 23.585 35.7662C23.585 36.5915 23.585 37.4168 23.585 38.2322C23.585 38.7431 24.045 39.2343 24.585 39.2147C25.125 39.195 25.585 38.7824 25.585 38.2322C25.585 37.3087 25.585 36.3754 25.585 35.4518C25.585 34.6168 25.715 33.6343 25.275 32.8778C25.015 32.4357 24.565 32.1115 24.055 32.0133C23.595 31.9248 23.135 31.9838 22.665 32.0133L19.855 32.2392C19.335 32.2785 18.825 32.6617 18.855 33.2217C18.875 33.7129 19.295 34.2533 19.855 34.2041L19.875 34.214Z" fill="black"/>
<path d="M19.875 41.9263C22.625 41.5235 25.375 41.1207 28.125 40.7179C28.655 40.6393 28.955 39.981 28.825 39.5095C28.665 38.9495 28.135 38.7432 27.595 38.8217C24.845 39.2246 22.095 39.6274 19.345 40.0302C18.815 40.1088 18.515 40.767 18.645 41.2386C18.805 41.7986 19.335 42.0049 19.875 41.9263Z" fill="black"/>
<path d="M20.665 45.4828L20.645 47.8701V49.0098C20.635 49.3831 20.625 49.7663 20.745 50.1298C21.315 51.8098 23.565 51.7017 24.865 51.0435C26.165 50.3852 27.005 49.0196 27.205 47.5852C27.405 46.1508 27.135 44.2449 25.585 43.734C24.865 43.4982 24.155 43.734 23.515 44.0582C23.265 44.1859 23.005 44.3235 22.755 44.461C22.545 44.5691 22.895 44.4315 22.755 44.461C22.675 44.4807 22.595 44.52 22.515 44.5396C22.495 44.5396 22.385 44.5789 22.375 44.5691C22.525 44.5494 22.545 44.5494 22.435 44.5494C22.325 44.5494 22.345 44.5494 22.495 44.5691C21.975 44.5003 21.395 44.687 21.265 45.2568C21.155 45.7186 21.405 46.3866 21.965 46.4652C22.615 46.5536 23.145 46.4456 23.725 46.1705C23.915 46.0821 24.105 45.974 24.285 45.8757C24.375 45.8266 24.455 45.7775 24.545 45.7382C24.585 45.7186 24.635 45.6989 24.675 45.6694C24.835 45.581 24.555 45.6989 24.665 45.6694C24.665 45.6694 24.955 45.5712 24.955 45.581C24.955 45.6007 24.695 45.581 24.885 45.5908C24.905 45.5908 25.015 45.5908 25.015 45.5908C25.015 45.5908 24.755 45.5515 24.945 45.5908C25.015 45.6007 25.055 45.6596 24.915 45.5712C25.075 45.6694 24.935 45.5712 24.915 45.5515C24.965 45.6007 25.065 45.7579 24.975 45.5908C25.005 45.6498 25.135 45.915 25.065 45.7186C25.105 45.8266 25.135 45.9249 25.165 46.0428C25.195 46.1607 25.215 46.2687 25.235 46.3866C25.205 46.2196 25.235 46.3768 25.235 46.4063C25.235 46.5045 25.255 46.5929 25.255 46.6912C25.255 46.8189 25.255 46.9466 25.255 47.0645C25.255 47.1038 25.215 47.4673 25.245 47.2708C25.205 47.5557 25.125 47.821 25.035 48.0863C24.945 48.3515 25.085 47.9979 25.005 48.155C24.975 48.214 24.945 48.2631 24.915 48.3221C24.855 48.4301 24.775 48.5284 24.715 48.6365C24.645 48.7642 24.805 48.5382 24.715 48.6463C24.665 48.7052 24.615 48.7642 24.565 48.8133C24.475 48.9115 24.365 49 24.265 49.0884C24.155 49.1866 24.385 49.0196 24.255 49.0884C24.205 49.1179 24.155 49.1572 24.105 49.1866C23.985 49.2554 23.865 49.3242 23.745 49.3733C23.925 49.2947 23.605 49.4126 23.565 49.4322C23.505 49.4519 23.445 49.4617 23.395 49.4814C23.345 49.4912 23.085 49.5207 23.305 49.501C23.185 49.501 23.065 49.5207 22.945 49.5108C22.885 49.5108 22.825 49.5108 22.765 49.501C22.805 49.501 22.965 49.5501 22.795 49.501C22.745 49.4912 22.685 49.4617 22.635 49.4519C22.795 49.4814 22.715 49.4814 22.655 49.4519C22.465 49.3831 22.665 49.4322 22.655 49.4715C22.595 49.4028 22.585 49.4028 22.625 49.4617C22.665 49.5207 22.665 49.5108 22.625 49.4322L22.645 49.4617C22.675 49.5207 22.675 49.501 22.645 49.4028C22.655 49.501 22.665 49.5108 22.655 49.4322C22.655 49.3831 22.655 49.3438 22.655 49.2947C22.655 49.1277 22.655 48.9705 22.655 48.8035V47.7228C22.665 46.9663 22.675 46.2098 22.675 45.4533C22.675 44.9424 22.215 44.4512 21.675 44.4708C21.135 44.4905 20.675 44.9031 20.675 45.4533L20.665 45.4828Z" fill="black"/>
<path d="M33.425 32.4948C33.815 32.3867 34.215 32.2983 34.615 32.2491L34.345 32.2884C35.035 32.2 35.725 32.2 36.405 32.2884C36.645 32.3179 36.955 32.1607 37.115 32.0035C37.285 31.8365 37.415 31.5516 37.405 31.306C37.395 31.0604 37.305 30.7853 37.115 30.6084C36.905 30.4218 36.685 30.353 36.405 30.3235C35.235 30.1762 34.025 30.2842 32.885 30.6084C32.385 30.7558 32.015 31.306 32.185 31.8169C32.355 32.3277 32.875 32.6618 33.415 32.5046L33.425 32.4948Z" fill="black"/>
<path d="M32.8648 35.1571C34.9348 35.0982 37.0748 35.1964 39.0848 35.4715C39.6048 35.5403 40.1848 35.3536 40.3148 34.7838C40.4248 34.322 40.1748 33.6539 39.6148 33.5754C37.3748 33.2708 35.1248 33.1234 32.8648 33.1922C32.3448 33.202 31.8448 33.6343 31.8648 34.1747C31.8848 34.715 32.3048 35.1768 32.8648 35.1571Z" fill="black"/>
<path d="M36.9249 36.5228C35.9849 36.2477 34.9649 36.7782 34.5249 37.6035C34.4249 37.7902 34.3349 37.9867 34.2949 38.193C34.2349 38.5074 34.2349 38.753 34.2849 39.0772C34.3449 39.48 34.6049 39.8926 34.9249 40.1579C35.1649 40.3544 35.3749 40.4723 35.6649 40.5803C35.8649 40.6589 36.0649 40.6786 36.2849 40.7081C36.4249 40.7277 36.5549 40.7277 36.6949 40.7081C36.9149 40.6884 37.1349 40.6589 37.3349 40.5803C37.5349 40.5017 37.7349 40.4231 37.9049 40.2954C38.1649 40.1088 38.3249 39.9516 38.5149 39.6961C38.7749 39.3326 38.8949 38.8807 38.9149 38.4484C38.9449 37.967 38.7949 37.466 38.5749 37.0435C38.3549 36.621 37.9749 36.2379 37.5549 36.0021C37.3349 35.8744 37.0349 35.8351 36.7849 35.9038C36.5549 35.9628 36.3049 36.1396 36.1849 36.3558C35.9349 36.8274 36.0649 37.4267 36.5449 37.7017C36.6049 37.741 36.6649 37.7803 36.7249 37.8196L36.5249 37.6624C36.6349 37.7509 36.7349 37.8491 36.8249 37.9572L36.6649 37.7607C36.7649 37.8884 36.8449 38.0259 36.9149 38.1733L36.8149 37.9375C36.8749 38.0849 36.9149 38.2421 36.9449 38.3993L36.9049 38.134C36.9249 38.2814 36.9249 38.4288 36.9049 38.5761L36.9449 38.3109C36.9249 38.4386 36.8949 38.5565 36.8449 38.6744L36.9449 38.4386C36.9049 38.5368 36.8449 38.6253 36.7849 38.7137L36.9449 38.5172C36.8849 38.5958 36.8149 38.6645 36.7349 38.7235L36.9349 38.5663C36.8449 38.6351 36.7349 38.694 36.6249 38.7431L36.8649 38.6449C36.7349 38.694 36.6049 38.7333 36.4649 38.753L36.7349 38.7137C36.5849 38.7333 36.4449 38.7333 36.2949 38.7137L36.5649 38.753C36.4349 38.7333 36.3149 38.7038 36.1949 38.6547L36.4349 38.753C36.3349 38.7137 36.2449 38.6547 36.1549 38.5958L36.3549 38.753C36.2849 38.694 36.2249 38.6351 36.1649 38.5663L36.3249 38.7628C36.2649 38.6842 36.2249 38.6154 36.1849 38.527L36.2849 38.7628C36.2549 38.6842 36.2349 38.6056 36.2249 38.5172L36.2649 38.7824C36.2549 38.694 36.2649 38.5958 36.2649 38.5074L36.2249 38.7726C36.2449 38.6645 36.2749 38.5565 36.3149 38.4484L36.2149 38.6842C36.2649 38.5663 36.3249 38.4681 36.4049 38.3698L36.2449 38.5663C36.3149 38.4779 36.3949 38.3993 36.4849 38.3305L36.2849 38.4877C36.3649 38.4288 36.4549 38.3796 36.5449 38.3403L36.3049 38.4386C36.3849 38.4091 36.4549 38.3895 36.5449 38.3796L36.2749 38.4189C36.3549 38.4091 36.4349 38.4091 36.5249 38.4189L36.2549 38.3796C36.2549 38.3796 36.3449 38.3993 36.3949 38.4091C36.8949 38.5565 37.5049 38.2323 37.6249 37.7214C37.7449 37.2105 37.4649 36.6702 36.9249 36.513V36.5228Z" fill="black"/>
<path d="M40.9548 30.9915C41.2448 34.0764 41.3648 37.1711 41.3148 40.2659C41.2948 41.5332 43.2948 41.5332 43.3148 40.2659C43.3648 37.1711 43.2448 34.0764 42.9548 30.9915C42.9048 30.461 42.5348 30.009 41.9548 30.009C41.4548 30.009 40.9048 30.461 40.9548 30.9915Z" fill="black"/>
<path d="M42.8249 37.3578C42.8949 37.3185 42.9749 37.2793 43.0549 37.24C43.0949 37.2203 43.1349 37.2007 43.1749 37.1908C43.0349 37.2498 43.015 37.2596 43.115 37.2203C43.255 37.1712 43.3949 37.1221 43.5349 37.0828C43.6749 37.0435 43.8249 37.0042 43.9649 36.9845C44.0049 36.9845 44.045 36.9649 44.0949 36.9649C44.2049 36.9452 44.1749 36.955 44.0149 36.9649C44.0749 36.9845 44.1749 36.9452 44.2349 36.9452C44.3949 36.9354 44.5549 36.9354 44.7149 36.9452C44.8549 36.9452 45.0249 36.9943 45.1549 36.9747C44.9949 36.955 44.9649 36.955 45.0749 36.9747C45.1149 36.9747 45.155 36.9845 45.205 36.9943C45.265 37.0042 45.3249 37.0238 45.3949 37.0336C45.5649 37.0729 45.725 37.1221 45.885 37.181C46.375 37.3578 47.005 36.9845 47.115 36.4933C47.245 35.9431 46.9449 35.4715 46.4149 35.2849C44.9149 34.7543 43.2149 34.9312 41.8149 35.6778C41.3549 35.9235 41.175 36.5817 41.455 37.0238C41.755 37.4856 42.3349 37.6428 42.8249 37.3775V37.3578Z" fill="black"/>
<path d="M37.4948 44.009C38.1148 43.7241 38.8548 43.5669 39.5248 43.5571C39.7048 43.5571 39.8948 43.5571 40.0748 43.5669C40.1548 43.5669 40.2348 43.5767 40.3148 43.5865C40.1248 43.5571 40.4648 43.616 40.4648 43.616C40.5348 43.6357 40.6048 43.6455 40.6648 43.675C40.5348 43.6258 40.6948 43.6946 40.7048 43.7044C40.5948 43.5964 40.7748 43.8321 40.7048 43.7044C40.6648 43.6455 40.6648 43.6651 40.7148 43.7437C40.6748 43.6455 40.6648 43.6258 40.6948 43.6946C40.7348 43.7536 40.6948 43.9206 40.7048 43.7143C40.7048 43.7732 40.7048 43.8223 40.7048 43.8813C40.7148 43.6062 40.5948 44.176 40.6848 43.9697C40.6648 44.0188 40.6348 44.0778 40.6048 44.1269C40.6048 44.1269 40.4448 44.3528 40.5348 44.2448C40.6248 44.1367 40.4248 44.3529 40.4348 44.343C40.3148 44.4904 40.5548 44.2939 40.3348 44.4216C39.7748 44.7557 39.1148 44.8834 38.4248 45.0995C36.9648 45.5711 35.5148 46.7402 35.8648 48.4202C36.1448 49.776 37.6248 50.4244 38.9048 50.4932C39.6948 50.5325 40.4448 50.2869 41.1748 50.002C41.5748 49.8448 41.9748 49.6778 42.3948 49.5599C42.8348 49.4223 43.0648 49.383 43.4948 49.4027C44.0348 49.4223 44.4948 48.9409 44.4948 48.4202C44.4948 47.87 44.0348 47.4574 43.4948 47.4378C42.6548 47.4083 41.8548 47.6441 41.0848 47.9388C40.7548 48.0665 40.4248 48.2041 40.0848 48.3121C39.8948 48.3711 39.7148 48.4399 39.5248 48.4792C39.4748 48.489 39.4148 48.4988 39.3648 48.5185C39.1448 48.5676 39.5048 48.5185 39.2948 48.5185C39.1548 48.5185 39.0048 48.5283 38.8648 48.5185C38.8648 48.5185 38.5848 48.489 38.7348 48.5185C38.8848 48.5479 38.6148 48.489 38.6148 48.489C38.4948 48.4595 38.3748 48.4202 38.2548 48.3809C38.1048 48.3318 38.4448 48.4988 38.2248 48.3711C38.1548 48.3318 38.0848 48.2925 38.0148 48.2532C37.8648 48.1746 37.9948 48.2434 38.0248 48.2729C37.9648 48.2237 37.9148 48.1746 37.8648 48.1157C37.8048 48.0567 37.8248 48.0076 37.8848 48.1451C37.8648 48.1058 37.8348 48.0567 37.8148 48.0174C37.9348 48.2139 37.8348 48.0469 37.8148 47.9781C37.7848 47.8897 37.8348 47.8602 37.8148 48.0076C37.8148 47.9486 37.8148 47.8897 37.8148 47.8307C37.7948 48.0764 37.8948 47.6441 37.8448 47.762C37.8048 47.8602 38.0748 47.4672 37.9448 47.6048C37.9948 47.5458 38.0548 47.4869 38.1148 47.4378C38.1448 47.4083 38.3048 47.2904 38.1848 47.3788C38.3048 47.2904 38.4348 47.2118 38.5748 47.1528C38.6048 47.1332 38.8048 47.0448 38.6548 47.1136C38.7548 47.0743 38.8648 47.035 38.9648 47.0055C39.7248 46.7599 40.5148 46.6125 41.2048 46.2097C42.5448 45.4532 43.3448 43.4883 42.0948 42.2897C41.4148 41.6314 40.3148 41.5529 39.4148 41.5823C38.3848 41.6216 37.4248 41.8771 36.4948 42.2995C36.0048 42.5255 35.8848 43.2132 36.1348 43.6455C36.4248 44.1367 37.0148 44.2251 37.5048 43.9992L37.4948 44.009Z" fill="black"/>
<path d="M53.0555 36.0513C54.2355 36.0513 55.4155 36.0513 56.5955 36.0513C57.1155 36.0513 57.6155 35.5994 57.5955 35.0689C57.5755 34.5384 57.1555 34.0864 56.5955 34.0864C55.4155 34.0864 54.2355 34.0864 53.0555 34.0864C52.5355 34.0864 52.0355 34.5384 52.0555 35.0689C52.0755 35.5994 52.4955 36.0513 53.0555 36.0513Z" fill="black"/>
<path d="M52.7356 35.6583L52.5256 38.1832C52.4556 38.979 52.2856 39.8829 52.7756 40.5903C53.5956 41.7888 55.2356 41.7299 56.5056 41.4155C57.0156 41.2878 57.3656 40.7081 57.2056 40.2071C57.0456 39.706 56.5156 39.3818 55.9756 39.5194C55.8556 39.5488 55.7456 39.5783 55.6256 39.598C55.5656 39.6078 55.5056 39.6176 55.4456 39.6274C55.2656 39.6569 55.6256 39.6176 55.4956 39.6274C55.2556 39.6274 55.0256 39.6471 54.7856 39.6471C54.5756 39.6471 55.0256 39.6962 54.8156 39.6471C54.7556 39.6373 54.7056 39.6274 54.6456 39.6078C54.6056 39.598 54.5556 39.5783 54.5156 39.5685C54.3056 39.5095 54.6256 39.6373 54.5556 39.5881C54.5256 39.5685 54.4756 39.5488 54.4456 39.5292C54.2856 39.4408 54.5956 39.6864 54.4856 39.5587C54.4656 39.539 54.4456 39.5194 54.4356 39.4997C54.3856 39.4408 54.4056 39.4801 54.5056 39.598C54.5056 39.5881 54.4356 39.4703 54.4256 39.4604L54.4856 39.598C54.4856 39.598 54.4556 39.5095 54.4456 39.4604C54.4856 39.5881 54.4456 39.5194 54.4456 39.4211C54.4456 39.2541 54.4556 39.0969 54.4756 38.9299C54.5056 38.5566 54.5356 38.1832 54.5656 37.8099L54.7456 35.6583C54.7856 35.1474 54.2556 34.6562 53.7456 34.6759C53.1656 34.7053 52.7956 35.1081 52.7456 35.6583H52.7356Z" fill="black"/>
<path d="M57.1854 36.6406C58.4554 36.6799 59.7454 36.5522 60.9854 36.2869C61.4954 36.1788 61.8454 35.5599 61.6854 35.0785C61.5154 34.548 61.0054 34.2729 60.4554 34.3908C60.0754 34.4694 59.6954 34.5381 59.3054 34.5873L59.5754 34.548C58.7854 34.6462 57.9854 34.6855 57.1854 34.6659C56.6654 34.6462 56.1654 35.1276 56.1854 35.6483C56.2054 36.1985 56.6254 36.6111 57.1854 36.6308V36.6406Z" fill="black"/>
<path d="M57.9155 35.6877C57.5055 36.9944 57.1255 38.4877 57.6655 39.814C58.1355 40.9537 59.2655 41.7593 60.5355 41.7887C61.2055 41.8084 61.9155 41.5333 62.3455 41.0126C62.5155 40.8063 62.6355 40.6 62.6355 40.3151C62.6355 40.0694 62.5255 39.7845 62.3455 39.6175C61.9855 39.2933 61.2855 39.1951 60.9355 39.6175C60.8955 39.6666 60.8455 39.7158 60.7955 39.7649C60.6855 39.8828 60.9955 39.647 60.8455 39.7354C60.7955 39.7649 60.7455 39.7845 60.6955 39.814C60.6255 39.8435 60.6655 39.8337 60.8255 39.7649C60.7955 39.7747 60.7655 39.7845 60.7355 39.7944C60.6955 39.8042 60.6355 39.814 60.5955 39.8238C60.7855 39.8042 60.8255 39.7944 60.7155 39.8042C60.6855 39.8042 60.6455 39.8042 60.6155 39.8042C60.5655 39.8042 60.5155 39.8042 60.4655 39.8042C60.2755 39.8042 60.7055 39.8533 60.5255 39.814C60.4055 39.7845 60.2855 39.7551 60.1755 39.7256C59.9955 39.6765 60.3955 39.8435 60.1955 39.7256C60.1355 39.6961 60.0855 39.6666 60.0255 39.6372C59.9755 39.6077 59.9355 39.5782 59.8855 39.5487C59.6655 39.4014 59.9955 39.6568 59.8755 39.5487C59.7955 39.4701 59.7155 39.3817 59.6355 39.3031C59.5855 39.2442 59.6155 39.2737 59.7055 39.4014C59.6855 39.3719 59.6655 39.3424 59.6455 39.3129C59.6155 39.2737 59.5855 39.2245 59.5655 39.1754C59.4555 38.9691 59.5855 39.2638 59.5655 39.1656C59.5355 39.0772 59.5055 38.9986 59.4855 38.9101C59.4655 38.8414 59.4555 38.7628 59.4355 38.694C59.4155 38.5859 59.4155 38.5958 59.4355 38.7333C59.4355 38.6842 59.4255 38.6351 59.4255 38.5859C59.4155 38.4189 59.4155 38.2617 59.4255 38.0947C59.4255 38.0063 59.4355 37.9179 59.4455 37.8294C59.4655 37.574 59.4055 38.0358 59.4455 37.7803C59.4755 37.6035 59.5155 37.4266 59.5555 37.2498C59.6355 36.8961 59.7455 36.5424 59.8555 36.1986C60.0055 35.7073 59.6755 35.108 59.1555 34.9901C58.6355 34.8722 58.0855 35.1473 57.9255 35.6779L57.9155 35.6877Z" fill="black"/>
<path d="M63.7755 32.7403C63.3955 36.5031 63.4355 40.2954 63.9055 44.0483C63.9755 44.5789 64.3155 45.0308 64.9055 45.0308C65.3955 45.0308 65.9755 44.5789 65.9055 44.0483C65.4355 40.2954 65.3955 36.5031 65.7755 32.7403C65.8255 32.2097 65.2755 31.7578 64.7755 31.7578C64.1855 31.7578 63.8255 32.2097 63.7755 32.7403Z" fill="black"/>
<path d="M65.9955 39.4602L67.4655 39.1556C67.5955 39.1262 67.7055 39.0672 67.8055 38.9788C67.9155 38.91 67.9955 38.8216 68.0655 38.7037C68.1355 38.5956 68.1755 38.4679 68.1855 38.3402C68.2155 38.2125 68.2055 38.0749 68.1655 37.9472C68.0855 37.7114 67.9355 37.4756 67.7055 37.3577L67.4655 37.2595C67.2855 37.2104 67.1155 37.2104 66.9355 37.2595L65.4655 37.5641C65.3355 37.5935 65.2255 37.6525 65.1255 37.7409C65.0155 37.8097 64.9355 37.8981 64.8655 38.016C64.7955 38.1241 64.7555 38.2518 64.7455 38.3795C64.7155 38.5072 64.7255 38.6448 64.7655 38.7725C64.8455 39.0083 64.9955 39.2441 65.2255 39.362L65.4655 39.4602C65.6455 39.5093 65.8155 39.5093 65.9955 39.4602Z" fill="black"/>
<path d="M67.3955 33.9095V44.3432C67.3955 45.6106 69.3955 45.6106 69.3955 44.3432V33.9095C69.3955 32.6421 67.3955 32.6421 67.3955 33.9095Z" fill="black"/>
</g>
<defs>
<clipPath id="clip0_525_962">
<rect width="71.89" height="47.5018" fill="white" transform="translate(5.05493 4.24902)"/>
</clipPath>
</defs>
</svg>
