<svg width="19" height="18" viewBox="0 0 19 18" fill="none" xmlns="http://www.w3.org/2000/svg">
<g clip-path="url(#clip0_338_2053)">
<path d="M9.54254 3.21777C12.7206 3.21777 15.2968 5.79393 15.2968 8.97199C15.2968 12.15 12.7206 14.7262 9.54254 14.7262C6.36449 14.7262 3.78833 12.15 3.78833 8.97199H4.93917C4.93917 11.5142 7.00033 13.5754 9.54254 13.5754C12.0848 13.5754 14.1459 11.5142 14.1459 8.97199C14.1459 6.42977 12.0848 4.36862 9.54254 4.36862C8.1247 4.36862 6.85648 5.00963 6.01233 6.0172L7.24086 7.24572H3.78833V3.79319L5.19639 5.20068C6.25113 3.98654 7.80707 3.21777 9.54254 3.21777Z" fill="#757575"/>
</g>
<defs>
<clipPath id="clip0_338_2053">
<rect width="17.2626" height="17.2626" fill="white" transform="translate(0.911224 0.340332)"/>
</clipPath>
</defs>
</svg>
