<svg width="22" height="22" viewBox="0 0 22 22" fill="none" xmlns="http://www.w3.org/2000/svg">
<g clip-path="url(#clip0_335_2710)">
<path d="M15.3289 17.5919L16.8825 18.8866V19.3182H4.79865V18.8866L6.35229 17.5919H4.79865C4.34082 17.5919 3.90174 17.4101 3.578 17.0863C3.25426 16.7626 3.07239 16.3235 3.07239 15.8657V6.37123C3.07239 5.45556 3.43613 4.5774 4.08361 3.92992C4.73108 3.28245 5.60925 2.9187 6.52492 2.9187H15.1562C16.0719 2.9187 16.9501 3.28245 17.5975 3.92992C18.245 4.5774 18.6088 5.45556 18.6088 6.37123V15.8657C18.6088 16.3235 18.4269 16.7626 18.1032 17.0863C17.7794 17.4101 17.3403 17.5919 16.8825 17.5919H15.3289ZM9.97744 10.6869V4.64496H6.52492C6.06708 4.64496 5.628 4.82684 5.30426 5.15058C4.98053 5.47431 4.79865 5.9134 4.79865 6.37123V10.6869H9.97744ZM11.7037 10.6869H16.8825V6.37123C16.8825 5.9134 16.7006 5.47431 16.3769 5.15058C16.0531 4.82684 15.6141 4.64496 15.1562 4.64496H11.7037V10.6869ZM6.95648 15.8657C7.29986 15.8657 7.62917 15.7293 7.87197 15.4865C8.11477 15.2437 8.25118 14.9144 8.25118 14.571C8.25118 14.2276 8.11477 13.8983 7.87197 13.6555C7.62917 13.4127 7.29986 13.2763 6.95648 13.2763C6.61311 13.2763 6.28379 13.4127 6.04099 13.6555C5.79819 13.8983 5.66178 14.2276 5.66178 14.571C5.66178 14.9144 5.79819 15.2437 6.04099 15.4865C6.28379 15.7293 6.61311 15.8657 6.95648 15.8657ZM14.7247 15.8657C15.068 15.8657 15.3974 15.7293 15.6402 15.4865C15.883 15.2437 16.0194 14.9144 16.0194 14.571C16.0194 14.2276 15.883 13.8983 15.6402 13.6555C15.3974 13.4127 15.068 13.2763 14.7247 13.2763C14.3813 13.2763 14.052 13.4127 13.8092 13.6555C13.5664 13.8983 13.43 14.2276 13.43 14.571C13.43 14.9144 13.5664 15.2437 13.8092 15.4865C14.052 15.7293 14.3813 15.8657 14.7247 15.8657Z" fill="#757575"/>
</g>
<defs>
<clipPath id="clip0_335_2710">
<rect width="20.7152" height="20.7152" fill="white" transform="translate(0.483032 0.329346)"/>
</clipPath>
</defs>
</svg>
