<svg width="16" height="17" viewBox="0 0 16 17" fill="none" xmlns="http://www.w3.org/2000/svg">
<path d="M8.04307 14.7429C4.46776 14.7429 1.56958 11.8447 1.56958 8.26939C1.56958 4.69408 4.46776 1.7959 8.04307 1.7959C11.6184 1.7959 14.5166 4.69408 14.5166 8.26939C14.5166 11.8447 11.6184 14.7429 8.04307 14.7429ZM8.04307 13.4482C9.41657 13.4482 10.7338 12.9026 11.705 11.9313C12.6762 10.9601 13.2219 9.64289 13.2219 8.26939C13.2219 6.89589 12.6762 5.57864 11.705 4.60743C10.7338 3.63622 9.41657 3.0906 8.04307 3.0906C6.66957 3.0906 5.35232 3.63622 4.38111 4.60743C3.4099 5.57864 2.86428 6.89589 2.86428 8.26939C2.86428 9.64289 3.4099 10.9601 4.38111 11.9313C5.35232 12.9026 6.66957 13.4482 8.04307 13.4482Z" fill="#9E9E9E"/>
<path d="M5.4533 7.62207H2.21655V8.91677H5.4533V7.62207Z" fill="#9E9E9E"/>
<path d="M13.8683 7.62207H10.6316V8.91677H13.8683V7.62207Z" fill="#9E9E9E"/>
<path d="M8.68945 5.67961L8.68945 2.44287L7.39476 2.44287L7.39476 5.67961L8.68945 5.67961Z" fill="#9E9E9E"/>
<path d="M8.68945 14.0947L8.68945 10.8579L7.39476 10.8579L7.39476 14.0947L8.68945 14.0947Z" fill="#9E9E9E"/>
</svg>
