<svg width="82" height="112" viewBox="0 0 82 112" fill="none" xmlns="http://www.w3.org/2000/svg">
<path d="M44.1392 71.2591C41.1522 68.7992 36.7675 68.5277 33.1495 69.8934C29.5315 71.2591 26.6004 74.0385 24.3002 77.1454C22.2157 79.9567 20.5225 83.1753 20.195 86.6575C19.7318 91.4815 22.008 96.3295 25.5701 99.604C29.1322 102.879 33.8683 104.692 38.6604 105.386C46.5353 106.529 55.696 104.069 59.4498 97.0483C60.7756 94.5644 61.3187 91.7451 61.6062 88.9418C62.1334 83.8143 61.7739 78.3194 58.9387 74.0146C54.3303 67.0182 44.6025 65.293 36.3522 66.7546" fill="black"/>
<path d="M44.9859 70.4127C41.1603 67.3778 36.0008 67.2499 31.6561 69.2307C27.3113 71.2114 23.5655 75.4124 21.2414 79.6773C18.7814 84.1818 18.2064 89.2374 20.2191 94.0295C22.2317 98.8215 25.9455 102.16 30.4501 104.229C38.3409 107.846 48.8834 108.118 56.0715 102.711C60.001 99.748 61.9258 95.4591 62.5966 90.6671C63.2675 85.875 63.2835 80.3882 61.2149 75.7159C56.99 66.1638 45.3533 64.0074 36.0328 65.6127C34.5153 65.8763 35.1622 68.1844 36.6717 67.9209C43.6921 66.7069 52.3018 67.7372 57.1178 73.5595C59.969 77.0018 60.7118 81.6341 60.6 85.9788C60.4882 90.3236 59.8812 95.1316 57.0139 98.55C52.0941 104.428 43.2608 105.403 36.2085 103.701C31.8957 102.663 27.7745 100.587 24.8753 97.1603C21.9761 93.734 20.6344 89.2854 21.6806 84.9885C22.8147 80.3243 26.2171 75.7079 30.0986 72.9126C33.9802 70.1172 39.3792 69.0071 43.2847 72.1139C44.4827 73.0643 46.1839 71.3791 44.9779 70.4207L44.9859 70.4127Z" fill="white"/>
<path d="M43.588 87.6323L44.0512 79.3101C44.1231 78.0722 44.163 76.7464 43.5081 75.7081C42.8532 74.6698 41.184 74.1826 40.3693 75.1091C39.946 75.5883 39.8742 76.2831 39.8262 76.922C39.5866 79.965 39.347 83.0159 39.1154 86.0589C39.0915 86.3224 39.0595 86.618 38.8598 86.7857C38.6841 86.9295 38.4365 86.9374 38.2049 86.9374C36.0405 86.9374 33.8681 86.9534 31.7037 86.9534C34.1557 90.2519 37.0229 93.2469 40.2096 95.8506C40.561 96.1381 40.9604 96.4416 41.4156 96.4496C41.8629 96.4496 42.2622 96.1861 42.6296 95.9225C45.7684 93.6543 48.9151 91.386 52.0539 89.1178C52.2696 88.9661 52.5092 88.7185 52.3974 88.4869C52.3255 88.3271 52.1418 88.2712 51.9741 88.2313C49.3065 87.5604 46.6389 86.8975 43.9714 86.2266" fill="#FFE977"/>
<path d="M7.57989 6.78875C8.37989 6.50384 9.08989 6.74945 9.69989 7.3684C10.3099 7.98735 10.7199 8.90103 10.6799 9.79507C10.5799 12.0449 8.50989 13.8526 6.96989 15.287C6.02989 16.1614 7.44989 17.5466 8.37989 16.6723C10.4199 14.7761 12.9499 12.261 12.6599 9.24489C12.4099 6.69051 9.88989 3.87086 7.04989 4.89261C6.53989 5.07928 6.19989 5.56068 6.34989 6.10103C6.47989 6.58244 7.06989 6.97542 7.57989 6.78875Z" fill="black"/>
<path d="M9.74003 10.6203C11.45 12.3003 13.16 13.9803 14.87 15.6603C15.24 16.0238 15.92 16.0533 16.28 15.6603C16.64 15.2673 16.68 14.6582 16.28 14.275C14.57 12.595 12.86 10.915 11.15 9.23502C10.78 8.87152 10.1 8.84204 9.74003 9.23502C9.38003 9.62801 9.34003 10.2371 9.74003 10.6203Z" fill="black"/>
<path d="M15.1001 10.8168C16.5701 10.5712 18.0301 10.3256 19.5001 10.08C20.0201 9.99157 20.3501 9.34314 20.2001 8.87157C20.0201 8.32139 19.5201 8.09543 18.9701 8.18385C17.5001 8.42946 16.0401 8.67507 14.5701 8.92069C14.0501 9.00911 13.7201 9.65753 13.8701 10.1291C14.0501 10.6793 14.5501 10.9052 15.1001 10.8168Z" fill="black"/>
<path d="M18.89 5.16766L20.65 13.7445C20.76 14.2652 21.39 14.5599 21.88 14.4322C22.43 14.2849 22.69 13.7445 22.58 13.2238L20.82 4.64696C20.71 4.12626 20.08 3.83152 19.59 3.95924C19.04 4.10661 18.78 4.64696 18.89 5.16766Z" fill="black"/>
<path d="M17.8901 13.8918C16.6401 14.5304 15.9501 15.955 16.0001 17.3108C16.0501 18.7845 16.9101 20.1206 18.3701 20.602C19.7201 21.0441 21.3001 20.5725 22.3001 19.6294C23.4501 18.5487 23.6801 16.8588 22.8901 15.5129C22.0301 14.0392 20.0801 13.096 18.3901 13.6855C17.9001 13.8623 17.5201 14.3634 17.6901 14.8939C17.8501 15.3655 18.3901 15.7683 18.9201 15.5816C19.0501 15.5325 19.1801 15.5129 19.3101 15.4736C19.4101 15.4441 19.2001 15.4834 19.2001 15.4834C19.2201 15.4834 19.2701 15.4834 19.2901 15.4834C19.3601 15.4834 19.4301 15.4834 19.5001 15.4834C19.5601 15.4834 19.6201 15.4834 19.6801 15.4834C19.4501 15.4343 19.8501 15.4834 19.6801 15.4834C19.8101 15.5129 19.9401 15.5423 20.0601 15.5816C20.0901 15.5816 20.1201 15.6013 20.1501 15.6111C20.2501 15.6406 20.0601 15.5718 20.0501 15.5718C20.0801 15.6111 20.2101 15.6406 20.2501 15.6602C20.3701 15.7192 20.4801 15.7978 20.5901 15.8666C20.4501 15.7487 20.7401 15.9648 20.5901 15.8666C20.6401 15.9157 20.7001 15.955 20.7501 16.0041C20.7901 16.0434 20.9901 16.2988 21.0301 16.2988C21.0301 16.2988 20.9101 16.1318 20.9701 16.2202C20.9901 16.2497 21.0101 16.2694 21.0201 16.2988C21.0601 16.3578 21.1001 16.4167 21.1401 16.4757C21.1701 16.5248 21.2001 16.5838 21.2301 16.6329C21.3401 16.8195 21.1901 16.4953 21.2401 16.6427C21.2801 16.7704 21.3201 16.8883 21.3501 17.016C21.3501 17.0357 21.3501 17.0848 21.3701 17.1045C21.3701 17.1045 21.3501 16.8883 21.3501 16.9964C21.3501 17.0652 21.3601 17.1339 21.3601 17.2027C21.3601 17.2616 21.3601 17.3206 21.3601 17.3894C21.3601 17.5662 21.4101 17.1831 21.3601 17.3894C21.3301 17.5073 21.3001 17.6153 21.2601 17.7332C21.2101 17.8904 21.3601 17.5466 21.2701 17.7038C21.2401 17.7627 21.2101 17.8118 21.1801 17.8708C21.1501 17.9199 21.1201 17.9592 21.0901 18.0083C21.0701 18.028 21.0601 18.0574 21.0401 18.0771C20.9601 18.1852 21.0701 18.028 21.0901 18.0083C21.0001 18.0673 20.9201 18.195 20.8401 18.2638C20.8001 18.3031 20.7601 18.3325 20.7101 18.3718C20.5501 18.5094 20.8401 18.2834 20.7101 18.3718C20.6101 18.4406 20.5101 18.5094 20.4001 18.5585C20.3501 18.588 20.3001 18.6076 20.2501 18.6371C20.0601 18.7353 20.4101 18.588 20.2501 18.6371C20.1301 18.6764 20.0201 18.7157 19.9001 18.7452C19.8501 18.755 19.7901 18.7746 19.7401 18.7845C19.7101 18.7845 19.6801 18.7845 19.6601 18.8041C19.5201 18.8336 19.7301 18.7943 19.7601 18.7943C19.6401 18.7943 19.5201 18.8139 19.4001 18.8139C19.3401 18.8139 19.2901 18.8139 19.2301 18.8139C19.0101 18.8139 19.4101 18.8532 19.2501 18.8139C19.1301 18.7943 19.0201 18.7648 18.9001 18.7353C18.8601 18.7255 18.6801 18.6567 18.8401 18.7157C19.0001 18.7746 18.8001 18.696 18.7601 18.6764C18.7001 18.6469 18.6501 18.6174 18.5901 18.5781C18.5601 18.5585 18.4001 18.4406 18.5301 18.5388C18.6601 18.6371 18.5101 18.5192 18.4801 18.4897C18.4301 18.4504 18.3901 18.4013 18.3501 18.3522C18.3301 18.3325 18.3001 18.2834 18.2801 18.2736C18.2801 18.2736 18.4101 18.4504 18.3501 18.362C18.3201 18.3129 18.2901 18.2736 18.2601 18.2343C18.2001 18.136 18.1601 18.0181 18.0901 17.9297C18.0901 17.9395 18.1801 18.1655 18.1301 18.0181C18.1301 17.9887 18.1101 17.969 18.1001 17.9395C18.0801 17.8904 18.0701 17.8413 18.0501 17.7823C18.0201 17.6743 18.0101 17.5466 17.9701 17.4385C17.9701 17.4483 18.0001 17.7038 17.9801 17.5367C17.9801 17.4974 17.9801 17.468 17.9801 17.4287C17.9801 17.3697 17.9801 17.3009 17.9801 17.242C17.9801 17.1045 18.0101 16.9669 18.0001 16.8294C18.0001 16.8294 17.9601 17.0553 17.9801 16.9571C17.9801 16.9178 17.9901 16.8883 18.0001 16.849C18.0101 16.7901 18.0301 16.7213 18.0401 16.6623C18.0501 16.6034 18.0801 16.5445 18.1001 16.4757C18.1101 16.4364 18.2101 16.2006 18.1401 16.3676C18.0701 16.5346 18.1601 16.3283 18.1801 16.289C18.2101 16.2301 18.2401 16.1809 18.2701 16.122C18.3101 16.0631 18.3501 16.0041 18.3901 15.9452C18.4401 15.8567 18.3101 16.0434 18.3201 16.0434C18.3501 16.0238 18.3701 15.9845 18.3901 15.9648C18.4701 15.8764 18.6001 15.7978 18.6601 15.7094C18.6601 15.7192 18.4601 15.8469 18.5901 15.7683C18.6201 15.7487 18.6501 15.729 18.6801 15.7094C18.7401 15.6701 18.8101 15.6308 18.8701 15.6013C19.3401 15.3655 19.5101 14.6876 19.2301 14.2553C18.9201 13.7936 18.3601 13.6462 17.8601 13.9016L17.8901 13.8918Z" fill="black"/>
<path d="M24.8401 5.60986V8.48845C24.8401 8.99933 25.3001 9.49056 25.8401 9.47091C26.3801 9.45126 26.8401 9.03863 26.8401 8.48845V5.60986C26.8401 5.09898 26.3801 4.60775 25.8401 4.6274C25.3001 4.64705 24.8401 5.05968 24.8401 5.60986Z" fill="black"/>
<path d="M23.8899 11.5046C25.5999 11.2688 27.3099 11.033 29.0199 10.7874C29.5399 10.7186 29.8699 10.0407 29.7199 9.57899C29.5399 9.01899 29.0499 8.81267 28.4899 8.89127C26.7799 9.12706 25.0699 9.36285 23.3599 9.60846C22.8399 9.67723 22.5099 10.3551 22.6599 10.8169C22.8399 11.3769 23.3299 11.5832 23.8899 11.5046Z" fill="black"/>
<path d="M28.22 12.2513C26.59 13.9313 26.71 16.9572 28.59 18.4309C28.78 18.5783 28.95 18.7158 29.18 18.7944C29.43 18.873 29.72 18.8141 29.97 18.7355C30.28 18.647 30.58 18.5095 30.84 18.3327C31.36 17.979 31.8 17.5074 32.07 16.9278C32.64 15.7095 32.49 14.3046 31.51 13.3221C30.47 12.2906 28.85 12.0155 27.52 12.6442C27.05 12.8702 26.88 13.5678 27.16 13.9902C27.47 14.4618 28.02 14.5797 28.53 14.3439C28.63 14.2948 28.61 14.3046 28.46 14.3635C28.5 14.3439 28.54 14.3341 28.58 14.3242C28.64 14.3046 28.7 14.2849 28.76 14.2751C28.8 14.2751 28.84 14.2555 28.88 14.2555C28.72 14.2751 28.69 14.2751 28.8 14.2653C28.86 14.2653 28.92 14.2653 28.99 14.2653C29.05 14.2653 29.19 14.3046 29.24 14.2751C29.08 14.2555 29.05 14.2456 29.16 14.2751H29.22C29.28 14.2948 29.61 14.4323 29.64 14.4127C29.5 14.3537 29.48 14.3439 29.58 14.3832C29.62 14.4028 29.66 14.4225 29.69 14.4421C29.75 14.4716 29.8 14.5011 29.85 14.5404C29.89 14.56 29.92 14.5895 29.95 14.6092C30.04 14.6681 30.02 14.6583 29.9 14.5699C29.9 14.5797 30.02 14.6681 30.04 14.6878C30.06 14.7074 30.2 14.8744 30.21 14.8646C30.12 14.7467 30.11 14.727 30.17 14.8155L30.21 14.8646C30.26 14.9334 30.29 15.0021 30.34 15.0807C30.44 15.2379 30.28 14.8744 30.34 15.1004C30.36 15.1692 30.38 15.2379 30.4 15.3165C30.4 15.3558 30.42 15.3951 30.42 15.4442C30.4 15.2969 30.4 15.2674 30.4 15.3362C30.39 15.4049 30.4 15.4835 30.4 15.5621C30.4 15.6014 30.4 15.8569 30.4 15.68C30.39 15.5228 30.38 15.7488 30.37 15.7979C30.35 15.8667 30.33 15.9355 30.3 16.0141C30.23 16.2499 30.38 15.8765 30.29 16.0435C30.25 16.1123 30.22 16.1713 30.18 16.24C30.17 16.2597 30.07 16.4267 30.05 16.4267C30.14 16.3088 30.15 16.299 30.09 16.3776C30.07 16.3972 30.05 16.4267 30.03 16.4463C29.98 16.5053 29.93 16.5544 29.87 16.6035C29.84 16.633 29.81 16.6625 29.77 16.6821C29.88 16.6035 29.9 16.5839 29.84 16.6232C29.77 16.6527 29.72 16.7116 29.65 16.7411C29.61 16.7607 29.58 16.7804 29.54 16.8C29.46 16.8393 29.46 16.8393 29.54 16.8C29.62 16.7706 29.62 16.7706 29.54 16.8C29.5 16.8099 29.46 16.8295 29.42 16.8393C29.34 16.859 29.25 16.8786 29.17 16.8983L29.94 16.9965C29.94 16.9965 29.89 16.9572 29.86 16.9474C29.8 16.9081 29.83 16.9278 29.94 17.0063C29.94 16.9867 29.84 16.9179 29.82 16.9081C29.74 16.8393 29.67 16.7706 29.6 16.692C29.58 16.6723 29.53 16.5839 29.5 16.5741C29.59 16.6821 29.61 16.7116 29.56 16.6527C29.54 16.633 29.52 16.6035 29.51 16.5741C29.45 16.4856 29.4 16.407 29.35 16.3186C29.31 16.24 29.27 16.1123 29.21 16.0435C29.27 16.1713 29.28 16.2106 29.25 16.132C29.24 16.1025 29.23 16.073 29.22 16.0435C29.2 15.9944 29.19 15.9453 29.17 15.8962C29.14 15.7979 29.11 15.6997 29.09 15.6014C29.08 15.5523 29.07 15.5032 29.06 15.4541C29.02 15.2379 29.08 15.6899 29.06 15.4737C29.05 15.2674 29.04 15.0709 29.06 14.8646C29.06 14.7467 29.13 14.6878 29.06 14.8842C29.08 14.8351 29.08 14.7762 29.09 14.7369C29.11 14.6386 29.13 14.5404 29.16 14.4421C29.19 14.3537 29.27 14.2162 29.27 14.1278C29.27 14.1965 29.18 14.3144 29.26 14.167C29.28 14.1179 29.31 14.0786 29.33 14.0295C29.38 13.9411 29.44 13.8625 29.49 13.7741C29.34 13.9313 29.61 13.5972 29.49 13.7741C29.53 13.7249 29.57 13.6856 29.62 13.6365C29.98 13.2632 30.02 12.6148 29.62 12.2513C29.22 11.8878 28.59 11.8583 28.21 12.2513H28.22Z" fill="black"/>
<path d="M32.86 5.59994C32.7 10.7578 33.3 15.9256 34.63 20.9263C34.96 22.1445 36.88 21.6336 36.56 20.4056C35.27 15.5719 34.71 10.6006 34.86 5.59994C34.9 4.33257 32.9 4.33257 32.86 5.59994Z" fill="black"/>
<path d="M35.5899 15.012L38.5299 14.3046C39.0399 14.1867 39.3899 13.5874 39.2299 13.0962C39.0599 12.5755 38.5399 12.2807 37.9999 12.4085L35.0599 13.1158C34.5499 13.2337 34.1999 13.833 34.3599 14.3243C34.5299 14.845 35.0499 15.1397 35.5899 15.012Z" fill="black"/>
<path d="M39.82 9.37265C39.82 9.37265 39.89 9.30388 39.93 9.27441C39.83 9.34318 39.81 9.36283 39.87 9.32353C39.92 9.30388 40.01 9.25476 40.05 9.22528C40.12 9.19581 40.09 9.20564 39.97 9.25476C40.01 9.24493 40.06 9.22529 40.1 9.21546L40.17 9.19581C40.28 9.17616 40.26 9.17616 40.11 9.19581C40.11 9.18599 40.31 9.19581 40.32 9.19581C40.35 9.19581 40.39 9.19581 40.42 9.19581C40.5 9.19581 40.47 9.19581 40.33 9.18599C40.38 9.14669 40.69 9.28423 40.75 9.30388C40.51 9.22528 40.75 9.30388 40.81 9.34318C40.88 9.38248 40.94 9.41195 41.01 9.45125C41.06 9.48072 41.27 9.65757 41.09 9.50037C41.15 9.5495 41.21 9.59862 41.26 9.64774C41.31 9.69686 41.37 9.75581 41.42 9.81476C41.46 9.85406 41.57 10.0407 41.46 9.85406C41.54 9.9916 41.62 10.139 41.71 10.2765C41.74 10.3453 41.73 10.3256 41.68 10.2176C41.69 10.2569 41.71 10.2863 41.72 10.3256C41.74 10.4141 41.77 10.4927 41.78 10.5811C41.74 10.3944 41.78 10.6498 41.78 10.7088C41.78 10.8169 41.78 10.9151 41.78 11.0232C41.78 11.1312 41.78 11.2295 41.76 11.3376C41.78 11.1705 41.73 11.4555 41.73 11.4849C41.68 11.7109 41.61 11.927 41.53 12.1432C41.43 12.4084 41.2 12.8702 40.99 13.2141C40.75 13.6169 40.48 14.0098 40.21 14.4028C39.92 14.8253 40.11 15.513 40.57 15.7488C41.08 16.0141 41.62 15.847 41.94 15.3951C43.16 13.6365 44.56 11.2098 43.32 9.10739C42.36 7.47651 39.94 6.52353 38.42 8.00704C38.05 8.37055 38.02 9.03862 38.42 9.3923C38.82 9.74599 39.44 9.77546 39.83 9.3923L39.82 9.37265Z" fill="black"/>
<path d="M47.5901 7.04417C47.2601 11.4652 47.5001 15.9059 48.2601 20.2779C48.4701 21.5256 50.4001 20.9951 50.1901 19.7572C49.4701 15.5621 49.2801 11.2884 49.5901 7.054C49.6801 5.79645 47.6801 5.79645 47.5901 7.054V7.04417Z" fill="black"/>
<path d="M53.55 10.6106C53.55 10.6106 53.5 10.2766 53.52 10.4829C53.51 10.3454 53.5 10.4829 53.53 10.424C53.59 10.3257 53.39 10.5124 53.57 10.3847C53.46 10.4731 53.58 10.3748 53.64 10.3454C53.77 10.2864 53.79 10.2668 54.02 10.2275C53.83 10.257 54.41 10.2471 54.23 10.2275C54.43 10.257 54.51 10.2864 54.59 10.3355C54.68 10.3847 54.75 10.4534 54.86 10.6303C55.11 11.0331 55.15 11.5243 55.15 11.9861C55.13 13.1847 54.81 14.3833 54.59 15.5524C54.33 16.9671 54.07 18.3819 53.8 19.8064C53.7 20.3271 53.95 20.8675 54.5 21.0148C54.99 21.1426 55.63 20.8577 55.73 20.3271C56.07 18.4801 56.41 16.6331 56.75 14.7959C57.02 13.3222 57.43 11.6815 56.86 10.2177C56.37 8.96994 55.26 8.16432 53.86 8.30187C52.65 8.41976 51.37 9.2745 51.55 10.6205C51.62 11.151 51.96 11.6029 52.55 11.6029C53.04 11.6029 53.62 11.151 53.55 10.6205V10.6106Z" fill="black"/>
<path d="M58.6701 7.55515C60.5901 10.5418 61.8001 13.8822 62.2801 17.3895C62.3501 17.9201 63.0401 18.205 63.5101 18.0773C64.0901 17.9201 64.2801 17.3994 64.2101 16.8688C63.7101 13.2141 62.3901 9.68708 60.4001 6.57269C59.7201 5.50182 57.9801 6.4941 58.6701 7.56497V7.55515Z" fill="black"/>
<path d="M60.6999 11.0919C63.5499 11.6421 66.4999 11.5242 69.2799 10.6891C70.5099 10.3256 69.9799 8.42944 68.7499 8.79295C66.3099 9.51997 63.7299 9.67716 61.2299 9.19576C60.6999 9.09751 60.1499 9.34313 59.9999 9.88348C59.8699 10.3649 60.1699 10.9937 60.6999 11.0919Z" fill="black"/>
<path d="M9.72006 35.9578C9.72006 35.9578 10.0001 35.9873 9.81006 35.9578C9.63006 35.9381 9.82006 35.9578 9.87006 35.9774C9.93006 35.9873 9.99006 36.0069 10.0501 36.0266C10.0901 36.0364 10.3001 36.115 10.1301 36.056C9.96006 35.9971 10.1701 36.0757 10.2101 36.0953C10.2601 36.1248 10.3001 36.1445 10.3501 36.1739C10.4001 36.2034 10.4501 36.2525 10.5101 36.282C10.6001 36.3311 10.4101 36.2034 10.4201 36.2132C10.4401 36.2427 10.4801 36.2624 10.5001 36.282C10.6001 36.3606 10.6901 36.4588 10.7701 36.5473C10.7901 36.5669 10.8001 36.5866 10.8201 36.6062C10.8901 36.675 10.7501 36.508 10.7501 36.5178C10.7801 36.5767 10.8401 36.6357 10.8801 36.6946C10.9501 36.7929 11.0101 36.9009 11.0601 36.9992C11.0801 37.0385 11.1601 37.2153 11.0901 37.0581C11.0201 36.901 11.1101 37.1171 11.1301 37.1662C11.1701 37.2743 11.2001 37.3922 11.2201 37.5101C11.2301 37.5592 11.2401 37.6181 11.2501 37.6673C11.1801 37.3725 11.2401 37.5788 11.2501 37.6673C11.2501 37.7852 11.2401 37.9031 11.2501 38.0111C11.2501 38.1094 11.2701 37.8736 11.2701 37.8834C11.2701 37.9129 11.2601 37.9522 11.2501 37.9915C11.2401 38.0504 11.2201 38.1094 11.2101 38.1683C11.2001 38.2273 11.1701 38.2862 11.1501 38.3452C11.1001 38.5024 11.2501 38.1585 11.1601 38.3059C11.1001 38.4139 11.0101 38.522 10.9601 38.6301C11.0401 38.4532 11.0801 38.4925 11.0201 38.5515C11.0001 38.5711 10.9901 38.5908 10.9701 38.6104C10.9301 38.6497 10.8901 38.6988 10.8401 38.7381C10.8001 38.7676 10.7501 38.7971 10.7201 38.8364C10.7201 38.8364 10.9101 38.7087 10.8201 38.7578C10.7801 38.7774 10.7501 38.8069 10.7101 38.8266C10.6201 38.8855 10.5201 38.9346 10.4201 38.9838C10.4001 38.9936 10.3701 39.0034 10.3501 39.0132C10.3501 39.0132 10.5601 38.9445 10.4701 38.9641C10.4001 38.9838 10.3401 39.0132 10.2701 39.0329C10.1601 39.0624 10.0501 39.082 9.94006 39.1115C9.77006 39.1508 10.1701 39.0918 10.0001 39.1115C9.93006 39.1115 9.86006 39.1213 9.79006 39.1311C9.68006 39.1311 9.56006 39.1311 9.45006 39.1311C9.36006 39.1311 9.18006 39.0722 9.48006 39.1409C9.42006 39.1311 9.36006 39.1213 9.30006 39.1115C9.19006 39.0918 9.08006 39.0624 8.97006 39.0231C8.91006 39.0034 8.86006 38.9838 8.80006 38.9641C8.70006 38.9346 8.93006 39.0231 8.92006 39.0132C8.89006 38.9936 8.86006 38.9838 8.83006 38.9739C8.72006 38.9248 8.62006 38.856 8.52006 38.7971C8.50006 38.7873 8.48006 38.7676 8.46006 38.7578C8.38006 38.7087 8.56006 38.8364 8.56006 38.8364C8.52006 38.7873 8.45006 38.748 8.41006 38.6988C8.37006 38.6595 8.34006 38.6301 8.30006 38.5908C8.28006 38.5711 8.27006 38.5515 8.25006 38.5318C8.17006 38.4434 8.37006 38.7087 8.31006 38.6104C8.25006 38.5122 8.19006 38.3845 8.12006 38.296C8.06006 38.2174 8.16006 38.3943 8.16006 38.4041C8.16006 38.3746 8.14006 38.355 8.13006 38.3255C8.11006 38.2666 8.09006 38.2076 8.07006 38.1388C8.06006 38.0897 8.05006 38.0308 8.03006 37.9817C7.99006 37.8245 8.04006 38.0701 8.04006 38.0799C8.04006 38.0504 8.04006 38.0111 8.04006 37.9718C8.04006 37.8539 8.04006 37.736 8.04006 37.6181C8.04006 37.402 8.00006 37.795 8.04006 37.6378C8.05006 37.5788 8.06006 37.5101 8.08006 37.4511C8.11006 37.3234 8.19006 37.1859 8.21006 37.0581C8.18006 37.2448 8.13006 37.2252 8.18006 37.1367C8.20006 37.1073 8.21006 37.068 8.23006 37.0385C8.26006 36.9697 8.30006 36.9108 8.34006 36.842C8.37006 36.7831 8.41006 36.7339 8.45006 36.675C8.47006 36.6553 8.48006 36.6259 8.50006 36.6062C8.61006 36.449 8.38006 36.7339 8.47006 36.6553C8.57006 36.5571 8.66006 36.449 8.76006 36.3508C8.78006 36.3311 8.80006 36.3115 8.82006 36.2918C8.94006 36.1838 8.83006 36.2918 8.77006 36.3213C8.83006 36.3017 8.88006 36.2427 8.93006 36.2132C8.99006 36.1739 9.06006 36.1346 9.12006 36.1052C9.14006 36.0953 9.17006 36.0855 9.19006 36.0659C9.34006 35.9873 9.01006 36.1248 9.13006 36.0855C9.26006 36.0462 9.39006 36.0069 9.53006 35.9676C9.68006 35.9283 9.29006 35.9774 9.51006 35.9676C9.60006 35.9676 9.68006 35.9676 9.76006 35.9676C10.2801 35.9774 10.7801 35.5059 10.7601 34.9852C10.7401 34.4645 10.3201 34.0125 9.76006 34.0027C8.15006 33.9634 6.84006 35.1129 6.28006 36.5178C6.01006 37.1859 5.97006 37.9522 6.15006 38.6497C6.35006 39.3964 6.83006 39.9957 7.45006 40.4476C8.60006 41.2631 10.2001 41.2925 11.4501 40.7031C12.0501 40.4181 12.6001 39.9073 12.9001 39.3178C13.2601 38.6006 13.3401 37.8343 13.1901 37.0483C12.8801 35.4273 11.4501 34.0911 9.76006 34.0027C9.24006 33.9732 8.74006 34.4743 8.76006 34.9852C8.79006 35.5353 9.20006 35.9381 9.76006 35.9676L9.72006 35.9578Z" fill="black"/>
<path d="M12.64 38.2666H14.84C15.1 38.2666 15.37 38.1585 15.55 37.9817C15.73 37.8049 15.85 37.5298 15.84 37.2842C15.83 37.0385 15.74 36.7635 15.55 36.5866C15.36 36.4098 15.11 36.3017 14.84 36.3017H12.64C12.38 36.3017 12.11 36.4098 11.93 36.5866C11.75 36.7635 11.63 37.0385 11.64 37.2842C11.65 37.5298 11.74 37.8049 11.93 37.9817C12.12 38.1585 12.37 38.2666 12.64 38.2666Z" fill="black"/>
<path d="M16.02 32.9713C16.03 37.6576 16.5 42.3341 17.39 46.9418C17.63 48.1797 19.56 47.659 19.32 46.4211C18.46 41.9902 18.03 37.4906 18.02 32.9713C18.02 31.7039 16.02 31.7039 16.02 32.9713Z" fill="black"/>
<path d="M21.0099 37.6183C21.1099 37.5986 21.2199 37.579 21.3199 37.5593C21.0599 37.5986 21.4499 37.5593 21.4999 37.5495C21.7499 37.5299 22.0099 37.5397 22.2599 37.5495C22.3199 37.5495 22.3699 37.5593 22.4299 37.5692C22.5799 37.579 22.2699 37.5299 22.4099 37.5692C22.5299 37.5986 22.6499 37.6183 22.7699 37.6478C22.8699 37.6772 22.9699 37.7067 23.0699 37.7362C23.1299 37.7558 23.2199 37.8246 23.0399 37.7165C23.0899 37.746 23.1499 37.7657 23.1999 37.7951C23.2499 37.8246 23.2999 37.8541 23.3499 37.8836C23.3199 37.8639 23.1999 37.7362 23.3099 37.8541C23.3699 37.913 23.5099 38.1095 23.3599 37.8836C23.3799 37.913 23.3999 37.9523 23.4199 37.9916C23.4199 37.972 23.3299 37.7657 23.3899 37.9229C23.3999 37.9621 23.3999 38.0113 23.4199 38.0407C23.3999 37.8934 23.3999 37.8639 23.3999 37.9425C23.3999 37.972 23.3999 38.0113 23.3999 38.0407C23.3799 38.0113 23.4699 37.8148 23.3999 37.9916C23.3799 38.0506 23.3699 38.1095 23.3499 38.1685C23.4399 37.9523 23.1899 38.3551 23.3299 38.1881C23.1499 38.4043 22.9199 38.5713 22.6999 38.7481C21.8099 39.4358 21.1299 40.2709 21.2399 41.4499C21.3499 42.5404 21.9699 43.4934 22.8499 44.1516C23.8099 44.8688 25.1299 45.0358 26.1799 44.4071C26.6399 44.132 26.8199 43.5229 26.5399 43.0611C26.2599 42.5993 25.6299 42.4323 25.1699 42.7074C25.0899 42.7565 24.8699 42.8351 25.0799 42.7762C25.0299 42.7958 24.7199 42.8744 24.8699 42.845C25.0199 42.8155 24.7299 42.845 24.6899 42.845C24.6499 42.845 24.4999 42.8351 24.6499 42.845C24.8099 42.8646 24.6099 42.845 24.5799 42.8253C24.4899 42.7958 24.3999 42.7664 24.3099 42.7467C24.5499 42.8057 24.2699 42.7271 24.1899 42.6779C24.1099 42.6288 24.0299 42.5699 23.9399 42.5207C23.8199 42.452 24.0599 42.6386 23.9699 42.5404C23.9299 42.4913 23.8799 42.4618 23.8299 42.4225C23.7599 42.3537 23.6899 42.2751 23.6199 42.2064C23.4499 42.0393 23.6899 42.3243 23.6199 42.2064C23.5899 42.1671 23.5599 42.1278 23.5299 42.0885C23.4799 42.0099 23.4199 41.9214 23.3799 41.833C23.3599 41.7937 23.3399 41.7446 23.3099 41.7053C23.2499 41.6071 23.3699 41.8822 23.3099 41.7053C23.2799 41.6169 23.2499 41.5285 23.2299 41.4302C23.2299 41.4106 23.1899 41.1846 23.2099 41.3516C23.2299 41.499 23.2099 41.3516 23.2099 41.3123C23.2099 41.2829 23.2099 40.9783 23.2099 41.1355C23.2099 41.2829 23.2099 41.1355 23.2099 41.0962C23.2199 41.0471 23.2399 40.9881 23.2499 40.9292C23.2799 40.772 23.2499 40.9292 23.2299 40.9685C23.2599 40.9193 23.2899 40.8604 23.3199 40.8113C23.3399 40.7818 23.4299 40.6541 23.3499 40.7622C23.2699 40.8702 23.3799 40.7327 23.3999 40.713C23.5899 40.5165 23.7999 40.3495 24.0199 40.1825C24.5299 39.7895 24.9899 39.3671 25.2299 38.7579C25.6699 37.6674 25.0999 36.5179 24.0599 36.0169C22.9599 35.4864 21.6399 35.4471 20.4599 35.7025C19.9299 35.8106 19.6199 36.4197 19.7599 36.9109C19.9099 37.4513 20.4599 37.7067 20.9899 37.5986L21.0099 37.6183Z" fill="black"/>
<path d="M27.2999 37.5494H28.7699C29.0299 37.5494 29.2999 37.4414 29.4799 37.2645C29.6599 37.0877 29.7799 36.8126 29.7699 36.567C29.7599 36.3214 29.6699 36.0463 29.4799 35.8694C29.2899 35.6926 29.0399 35.5845 28.7699 35.5845H27.2999C27.0399 35.5845 26.7699 35.6926 26.5899 35.8694C26.4099 36.0463 26.2899 36.3214 26.2999 36.567C26.3099 36.8126 26.3999 37.0877 26.5899 37.2645C26.7799 37.4414 27.0299 37.5494 27.2999 37.5494Z" fill="black"/>
<path d="M26.13 41.951L29.79 41.224C30.3 41.1257 30.65 40.4969 30.49 40.0155C30.31 39.485 29.81 39.2197 29.26 39.3278L25.6 40.0548C25.09 40.1531 24.74 40.7819 24.9 41.2633C25.08 41.7938 25.58 42.059 26.13 41.951Z" fill="black"/>
<path d="M28.8601 33.6982L29.3001 45.2027C29.3501 46.4603 31.3501 46.4701 31.3001 45.2027L30.8601 33.6982C30.8101 32.4406 28.8101 32.4308 28.8601 33.6982Z" fill="black"/>
<path d="M35.5999 33.5706C34.8599 34.0716 34.3999 34.9263 34.4699 35.8204C34.5099 36.2527 34.6099 36.6849 34.8499 37.0484C34.9599 37.2155 35.0899 37.3923 35.2499 37.52C35.4099 37.6477 35.5799 37.7951 35.7899 37.8541C36.0299 37.9228 36.2799 37.8737 36.5099 37.8148C37.4499 37.5593 38.1799 36.793 38.4699 35.8793C38.7599 34.9656 38.4999 33.9832 37.8499 33.2856C37.1499 32.5291 35.9999 32.1951 34.9999 32.4702C34.4999 32.6077 34.1399 33.1776 34.2999 33.6786C34.4599 34.1797 34.9899 34.5137 35.5299 34.3663C35.6099 34.3467 35.6799 34.327 35.7599 34.3172L35.4899 34.3565C35.6499 34.3369 35.7999 34.3369 35.9599 34.3565L35.6899 34.3172C35.7799 34.327 35.8699 34.3467 35.9699 34.3762C36.0199 34.386 36.0599 34.4056 36.0999 34.4155C36.2599 34.4646 35.8799 34.3074 36.0299 34.386C36.1099 34.4253 36.1799 34.4646 36.2599 34.5137C36.2899 34.5334 36.4399 34.6414 36.2899 34.5334C36.1399 34.4253 36.2899 34.5334 36.3099 34.5628C36.3699 34.6218 36.4199 34.6906 36.4899 34.7495C36.3099 34.5923 36.3899 34.612 36.4499 34.7004C36.4799 34.7397 36.4999 34.779 36.5199 34.8183C36.5299 34.8379 36.5899 34.9165 36.5799 34.946L36.5199 34.7986C36.5199 34.7986 36.5399 34.8576 36.5499 34.887C36.5799 34.9755 36.5999 35.0639 36.6099 35.1621L36.5699 34.8969C36.5899 35.0344 36.5899 35.172 36.5699 35.3193L36.6099 35.0541C36.5999 35.1425 36.5799 35.2407 36.5499 35.3291C36.5399 35.3783 36.5199 35.4176 36.4999 35.4667C36.4499 35.6141 36.5899 35.28 36.5399 35.3881C36.4999 35.4667 36.4599 35.5453 36.4099 35.6141C36.3699 35.6828 36.2599 35.7909 36.4499 35.5649C36.4199 35.6042 36.3899 35.6337 36.3599 35.673C36.2999 35.7418 36.2399 35.7909 36.1699 35.8499C36.0799 35.9284 36.3799 35.7123 36.2399 35.7909C36.1999 35.8204 36.1599 35.84 36.1199 35.8695C36.0799 35.899 36.0399 35.9088 35.9899 35.9383C35.8299 36.0169 36.2299 35.8597 36.0499 35.9088C35.9599 35.9383 35.8699 35.9579 35.7699 35.9776L36.5399 36.0758C36.8299 36.2821 36.5799 36.0758 36.5099 36.0267C36.4599 35.9776 36.6699 36.2527 36.5499 36.0758C36.5299 36.0463 36.5099 36.007 36.4899 35.9677C36.4499 35.8891 36.4299 35.7713 36.5199 36.0562C36.5099 36.0169 36.4899 35.9776 36.4799 35.9383C36.4499 35.8499 36.4299 35.7516 36.4199 35.6534L36.4599 35.9186C36.4399 35.7614 36.4399 35.6141 36.4599 35.4667L36.4199 35.732C36.4299 35.6337 36.4499 35.5453 36.4799 35.447C36.4899 35.4077 36.5099 35.3684 36.5199 35.3291C36.4199 35.6239 36.4499 35.4765 36.4999 35.3979C36.5199 35.3586 36.5499 35.3193 36.5799 35.28C36.6699 35.1523 36.4099 35.4667 36.5299 35.3488C36.5599 35.3193 36.5899 35.2898 36.6199 35.2604C36.7999 35.1032 36.4499 35.3783 36.5799 35.2898C37.0099 35.0049 37.2499 34.4155 36.9399 33.9439C36.6599 33.5214 36.0299 33.2856 35.5699 33.5902L35.5999 33.5706Z" fill="black"/>
<path d="M33.67 40.2513C37.15 41.0962 40.84 40.6541 44.02 39.0232C45.16 38.4436 44.15 36.7439 43.01 37.3236C40.31 38.7088 37.15 39.0625 34.2 38.3551C32.95 38.0506 32.42 39.9467 33.67 40.2513Z" fill="black"/>
<path d="M36.7201 40.6443C36.9501 40.9391 37.1501 41.2535 37.3201 41.5777C37.3701 41.6661 37.4101 41.7545 37.4501 41.8429C37.4701 41.8921 37.6201 42.1868 37.5001 41.9412C37.5801 42.1082 37.6401 42.285 37.6901 42.4619C37.8101 42.8156 37.8801 43.1692 37.9501 43.5328C37.9601 43.6114 37.9501 43.5819 37.9501 43.4542C37.9501 43.5033 37.9601 43.5524 37.9701 43.6015C37.9801 43.6998 37.9901 43.798 38.0001 43.8963C38.0101 44.0928 38.02 44.2892 38.01 44.4857C38 44.9966 38.48 45.4878 39.01 45.4682C39.54 45.4485 40 45.0359 40.01 44.4857C40.04 42.7763 39.5001 41.0275 38.4501 39.6521C38.2901 39.4359 38.1201 39.2787 37.8501 39.2001C37.6101 39.1314 37.2901 39.1608 37.0801 39.2984C36.6701 39.5636 36.3901 40.2022 36.7201 40.6443Z" fill="black"/>
<path d="M35.73 45.6155C35.85 45.5861 35.98 45.5566 36.1 45.5271C36.16 45.5173 36.57 45.4583 36.31 45.4878C36.58 45.4583 36.86 45.4387 37.13 45.4485C37.27 45.4485 37.4 45.4485 37.54 45.4682C37.54 45.4682 37.81 45.4976 37.65 45.4682C37.49 45.4387 37.74 45.4878 37.75 45.4878C38 45.5271 38.24 45.5959 38.47 45.6843C38.21 45.5861 38.53 45.7334 38.6 45.7629C38.62 45.7727 38.79 45.9005 38.66 45.7924C38.53 45.6843 38.69 45.8219 38.7 45.8317C38.71 45.8415 38.86 45.9987 38.74 45.871C38.62 45.7433 38.74 45.8906 38.77 45.9201C38.77 45.9201 38.83 46.0085 38.83 46.0282C38.83 45.812 38.76 45.9398 38.82 46.0478C38.87 46.1461 38.82 45.812 38.82 46.0085C38.82 46.0478 38.82 46.0969 38.82 46.1461C38.82 46.3622 38.9 45.9791 38.82 46.1559C38.81 46.1854 38.79 46.2541 38.78 46.2836C38.75 46.4703 38.86 46.1854 38.78 46.264C38.75 46.3033 38.72 46.3622 38.7 46.4113C38.68 46.4506 38.65 46.4801 38.62 46.5194C38.77 46.3033 38.62 46.5096 38.58 46.5587C38.51 46.6373 38.43 46.7061 38.35 46.7748C38.3 46.8141 38 47.0499 38.21 46.8927C38 47.0499 37.79 47.1973 37.57 47.3545C37.09 47.7082 36.63 48.0619 36.29 48.5531C35.43 49.8008 36.02 51.4317 37.37 52.0506C38.18 52.424 39.07 52.4633 39.91 52.1587C40.81 51.8345 41.55 51.245 42.28 50.6359C42.69 50.292 42.64 49.6043 42.28 49.2506C41.87 48.8478 41.28 48.9068 40.87 49.2506C40.6 49.4766 40.34 49.6927 40.11 49.8499C39.97 49.9384 39.83 50.0268 39.69 50.1152C39.51 50.2134 39.38 50.2822 39.28 50.3019C39.21 50.3215 39.14 50.3412 39.07 50.3608C39.06 50.3608 38.71 50.4198 38.93 50.4001C38.81 50.4099 38.69 50.4001 38.58 50.4001C38.81 50.4198 38.53 50.3805 38.49 50.3706C38.43 50.351 38.38 50.3412 38.32 50.3215C38.5 50.3805 38.32 50.3215 38.27 50.3019C38.24 50.2822 38.02 50.1545 38.11 50.2134C38.22 50.292 38.01 50.125 38.01 50.125C37.97 50.0857 37.93 50.0464 37.9 49.9973C38.04 50.1741 37.9 49.958 37.88 49.9187C37.9 49.9482 37.97 50.0955 37.89 49.9187C37.82 49.7812 37.89 49.8696 37.89 49.9384C37.89 49.8598 37.93 49.6436 37.87 49.9187C37.87 49.8794 37.89 49.8303 37.9 49.791C37.93 49.6534 37.96 49.6633 37.89 49.791C37.94 49.7026 38 49.6043 38.06 49.5159C37.93 49.7419 38.1 49.4864 38.17 49.4176C38.24 49.3489 38.31 49.2899 38.38 49.231C38.44 49.1819 38.49 49.1426 38.55 49.0934C38.42 49.1917 38.5 49.1327 38.58 49.0738C39.45 48.4352 40.5 47.8064 40.76 46.6864C41.08 45.3601 40.29 44.2794 39.07 43.8078C37.85 43.3362 36.45 43.405 35.24 43.7292C34.72 43.8668 34.4 44.4268 34.54 44.9377C34.68 45.4485 35.25 45.7629 35.77 45.6254L35.73 45.6155Z" fill="black"/>
<path d="M45.1401 38.9054L48.8001 37.4611C49.0501 37.3629 49.2601 37.245 49.4001 37.0092C49.5301 36.8029 49.5801 36.4885 49.5001 36.2527C49.4201 36.0169 49.2701 35.7811 49.0401 35.6633C48.8101 35.5454 48.5101 35.4668 48.2701 35.565C47.0501 36.0464 45.8301 36.5278 44.6101 37.0092C44.3601 37.1075 44.1501 37.2254 44.0101 37.4611C43.8801 37.6675 43.8301 37.9819 43.9101 38.2176C43.9901 38.4534 44.1401 38.6892 44.3701 38.8071C44.6001 38.925 44.9001 39.0036 45.1401 38.9054Z" fill="black"/>
<path d="M43.9601 37.7461C43.5801 40.2513 43.9201 42.7173 44.9601 45.0261C45.1001 45.3306 45.5001 45.5075 45.8201 45.5173C46.8301 45.5173 47.7801 45.144 48.5101 44.4563C48.9001 44.0927 48.8901 43.4345 48.5101 43.071C48.1301 42.7075 47.4901 42.7075 47.1001 43.071C46.7501 43.405 46.3101 43.5524 45.8301 43.5524L46.6901 44.0436C46.3101 43.1987 46.0001 42.118 45.8701 41.1356C45.7601 40.3201 45.7701 39.092 45.8901 38.2766C45.9701 37.7657 45.7601 37.1959 45.1901 37.0682C44.7101 36.9601 44.0401 37.2156 43.9601 37.7559V37.7461Z" fill="black"/>
<path d="M50.2399 37.7754C51.7799 38.0505 53.3399 38.1389 54.8999 38.021C55.4199 37.9817 55.9299 37.5985 55.8999 37.0385C55.8799 36.5375 55.4599 36.0069 54.8999 36.0561C54.1799 36.115 53.4599 36.1248 52.7399 36.0954C52.3899 36.0757 52.0299 36.0561 51.6799 36.0168C51.5999 36.0168 51.5099 35.9971 51.4299 35.9873C51.1899 35.9578 51.5799 36.0069 51.3599 35.9873C51.1599 35.9578 50.9699 35.9283 50.7699 35.889C50.2599 35.8006 49.6699 36.0266 49.5399 36.5768C49.4299 37.0582 49.6899 37.6869 50.2399 37.7852V37.7754Z" fill="black"/>
<path d="M50.6699 36.8322C49.7099 38.2371 49.2699 40.0153 49.4799 41.7052C49.5399 42.1768 49.5999 42.6778 49.8699 43.0806C50.2599 43.6701 50.8899 43.7487 51.5399 43.8076C52.4999 43.896 53.4599 43.9845 54.4199 44.0827C54.9399 44.1318 55.4399 43.5915 55.4199 43.1003C55.3899 42.5304 54.9799 42.1669 54.4199 42.1178C53.6099 42.0392 52.8099 41.9606 51.9999 41.8918C51.8099 41.8722 51.6199 41.8525 51.4199 41.8329C51.2899 41.8231 51.2699 41.8132 51.3499 41.8329C51.4199 41.8427 51.4099 41.8329 51.2999 41.8231C51.3399 41.8722 51.5999 42.049 51.5599 42.0589C51.5899 42.1178 51.5799 42.108 51.5599 42.0097L51.5399 41.9213C51.5199 41.8427 51.5099 41.7641 51.4899 41.6855C51.4799 41.6168 51.4599 41.4694 51.4799 41.6168C51.4699 41.5185 51.4599 41.4301 51.4499 41.3318C51.4299 41.0175 51.4299 40.6932 51.4499 40.3789C51.4499 40.369 51.4799 40.0645 51.4499 40.261C51.4599 40.1824 51.4699 40.1038 51.4899 40.0252C51.5199 39.868 51.5499 39.7108 51.5899 39.5536C51.6299 39.3866 51.6899 39.2196 51.7499 39.0525C51.7799 38.9739 51.8099 38.9052 51.8299 38.8266C51.8699 38.7283 51.7899 38.9052 51.8599 38.748C52.0099 38.4336 52.1799 38.129 52.3799 37.8343C52.6699 37.402 52.4799 36.7241 52.0199 36.4883C51.5199 36.2231 50.9599 36.3803 50.6499 36.842L50.6699 36.8322Z" fill="black"/>
<path d="M57.2499 34.6512C57.7399 39.6126 58.2399 44.574 58.7299 49.5354C58.8499 50.7831 60.8599 50.793 60.7299 49.5354C60.2399 44.574 59.7399 39.6126 59.2499 34.6512C59.1299 33.4035 57.1199 33.3937 57.2499 34.6512Z" fill="black"/>
<path d="M59.3099 41.6463C60.3099 41.6463 61.3199 41.4597 62.2499 41.0962C62.4999 40.9979 62.7099 40.88 62.8499 40.6442C62.9799 40.4379 63.0299 40.1235 62.9499 39.8877C62.8699 39.6519 62.7199 39.4162 62.4899 39.2983C62.2599 39.1804 61.9599 39.1018 61.7199 39.2C61.1599 39.4162 60.5799 39.5734 59.9899 39.6519L60.2599 39.6126C59.9499 39.6519 59.6299 39.6716 59.3099 39.6814C58.7899 39.6814 58.2899 40.1334 58.3099 40.6639C58.3299 41.1944 58.7499 41.6562 59.3099 41.6463Z" fill="black"/>
<path d="M61.6199 34.6511C61.9399 39.1704 62.5499 43.6701 63.4599 48.1108C63.7099 49.3487 65.6399 48.828 65.3899 47.5901C64.5199 43.3164 63.9299 39.0034 63.6199 34.6511C63.5299 33.3936 61.5299 33.3838 61.6199 34.6511Z" fill="black"/>
<path d="M69.81 47.1481C71.1 47.1481 71.1 45.1832 69.81 45.1832C68.52 45.1832 68.52 47.1481 69.81 47.1481Z" fill="black"/>
<path d="M72.5 47.6295C73.79 47.6295 73.79 45.6646 72.5 45.6646C71.21 45.6646 71.21 47.6295 72.5 47.6295Z" fill="black"/>
<path d="M75.6699 47.6295C76.9599 47.6295 76.9599 45.6646 75.6699 45.6646C74.3799 45.6646 74.3799 47.6295 75.6699 47.6295Z" fill="black"/>
</svg>
