<svg width="200" height="32" viewBox="0 0 200 32" fill="none" xmlns="http://www.w3.org/2000/svg">
<path d="M7.67991 4.71001C6.81991 6.56001 6.49991 8.77001 7.50991 10.64C8.35991 12.21 10.2199 13.12 11.9799 12.85C13.9799 12.54 14.9199 10.65 15.0799 8.81001C15.2399 6.97001 14.7699 4.88001 13.4699 3.47001C11.9899 1.86001 9.42991 1.53001 7.70991 2.93001C7.28991 3.27001 7.34991 3.99001 7.70991 4.34001C8.11991 4.75001 8.69991 4.68001 9.11991 4.34001C9.01991 4.42001 9.18991 4.29001 9.21991 4.28001C9.27991 4.24001 9.33991 4.21001 9.39991 4.18001C9.55991 4.10001 9.19991 4.23001 9.49991 4.14001C9.56991 4.12001 9.62991 4.10001 9.69991 4.08001C9.76991 4.06001 9.83991 4.05001 9.89991 4.04001C9.74991 4.07001 9.91991 4.04001 9.94991 4.04001C10.1299 4.04001 10.2999 4.03001 10.4799 4.04001C10.3299 4.02001 10.5499 4.05001 10.5899 4.06001C10.6799 4.08001 10.7699 4.10001 10.8499 4.12001C10.9199 4.14001 10.9899 4.16001 11.0599 4.19001C11.0599 4.19001 11.2399 4.26001 11.1199 4.21001C11.2499 4.27001 11.3799 4.34001 11.4999 4.41001C11.6999 4.53001 11.7399 4.56001 11.8599 4.68001C12.8099 5.56001 13.1099 6.91001 13.1099 8.18001C13.1099 8.35001 13.1099 8.52001 13.0899 8.69001C13.0899 8.77001 13.0799 8.84001 13.0699 8.92001C13.0399 9.14001 13.0499 9.04001 13.0599 9.00001C13.0299 9.17001 12.9999 9.34001 12.9499 9.50001C12.8999 9.69001 12.8399 9.85001 12.7999 9.94001C12.6499 10.25 12.5799 10.34 12.3299 10.58C12.1999 10.71 12.4299 10.52 12.2999 10.61C12.2399 10.66 12.1699 10.7 12.0999 10.74C12.0499 10.77 11.9899 10.8 11.9299 10.82C12.0899 10.75 11.8599 10.84 11.8199 10.85C11.7499 10.87 11.4299 10.91 11.6199 10.9C11.4799 10.91 11.3399 10.9 11.1899 10.9C11.1399 10.9 10.9399 10.87 11.1199 10.9C11.0599 10.9 10.9899 10.88 10.9299 10.86C10.7699 10.82 10.6099 10.78 10.4599 10.72C10.4299 10.72 10.2899 10.64 10.4299 10.71C10.3699 10.68 10.3099 10.65 10.2499 10.62C10.1199 10.55 9.98991 10.47 9.86991 10.39C9.71991 10.29 10.0199 10.54 9.79991 10.33C9.74991 10.28 9.69991 10.24 9.64991 10.2C9.59991 10.16 9.55991 10.1 9.50991 10.06C9.31991 9.88001 9.56991 10.17 9.41991 9.96001C8.57991 8.71001 8.75991 7.06001 9.38991 5.72001C9.61991 5.23001 9.52991 4.64001 9.02991 4.35001C8.59991 4.10001 7.88991 4.22001 7.65991 4.71001H7.67991Z" fill="black"/>
<path d="M5.96 15.6401C10 15.9501 14.05 16.2601 18.09 16.5601C19.37 16.6601 19.37 14.6601 18.09 14.5601C14.05 14.2501 10 13.9401 5.96 13.6401C4.68 13.5401 4.68 15.5401 5.96 15.6401Z" fill="black"/>
<path d="M12.4701 14.7599C12.1901 19.2699 11.6201 23.7399 10.7501 28.1799C10.5001 29.4399 12.4301 29.9799 12.6801 28.7099C13.5801 24.1099 14.1801 19.4499 14.4701 14.7599C14.5501 13.4699 12.5501 13.4799 12.4701 14.7599Z" fill="black"/>
<path d="M19.22 10.04C19.43 9.33999 20.51 9.22999 21.19 9.58999C22.35 10.2 22.18 11.96 21.81 12.99C21.27 14.52 19.99 15.71 19.01 16.95C18.47 17.63 17.92 18.35 17.97 19.27C18.02 20.12 18.52 20.86 19.21 21.33C20.94 22.52 22.97 21.38 24.03 19.88C24.34 19.44 24.11 18.77 23.67 18.51C23.17 18.22 22.61 18.43 22.3 18.87C21.96 19.35 21.35 19.9 20.71 19.82C20.13 19.75 19.82 19.27 20.12 18.78C20.54 18.07 21.18 17.46 21.7 16.82C22.26 16.14 22.81 15.44 23.23 14.66C23.99 13.26 24.38 11.49 23.84 9.93999C23.34 8.51999 22.23 7.56999 20.72 7.40999C19.21 7.24999 17.74 8.02999 17.29 9.49999C16.91 10.73 18.84 11.26 19.22 10.03V10.04Z" fill="black"/>
<path d="M26.64 6.68991C26.49 12.8599 26.92 19.0199 27.89 25.1099C28.09 26.3799 30.02 25.8399 29.82 24.5799C28.88 18.6699 28.5 12.6799 28.64 6.68991C28.67 5.39991 26.67 5.39991 26.64 6.68991Z" fill="black"/>
<path d="M37.7701 9.70996H39.2901C39.5501 9.70996 39.8201 9.59996 40.0001 9.41996C40.1801 9.23996 40.3001 8.95996 40.2901 8.70996C40.2801 8.45996 40.1901 8.17996 40.0001 7.99996C39.8101 7.81996 39.5601 7.70996 39.2901 7.70996H37.7701C37.5101 7.70996 37.2401 7.81996 37.0601 7.99996C36.8801 8.17996 36.7601 8.45996 36.7701 8.70996C36.7801 8.95996 36.8701 9.23996 37.0601 9.41996C37.2501 9.59996 37.5001 9.70996 37.7701 9.70996Z" fill="black"/>
<path d="M36.2701 9.88007C35.9401 11.6301 35.6601 13.6401 36.9001 15.1101C37.3601 15.6601 38.0501 16.0901 38.7501 16.2401C39.6301 16.4301 40.4401 16.2401 41.1401 15.6701C41.5401 15.3401 41.5101 14.6001 41.1401 14.2601C40.7101 13.8601 40.1601 13.9001 39.7301 14.2601C39.9401 14.0801 39.8001 14.2101 39.7401 14.2401C39.7101 14.2601 39.4901 14.3801 39.6501 14.2901C39.8001 14.2101 39.6201 14.2901 39.5801 14.3001C39.5401 14.3001 39.3301 14.3501 39.5201 14.3201C39.7101 14.2901 39.4601 14.3201 39.4201 14.3201C39.3701 14.3201 39.2901 14.3001 39.2501 14.3201L39.4001 14.3401C39.4001 14.3401 39.3201 14.3301 39.2801 14.3201C39.2201 14.3101 39.1601 14.2901 39.1101 14.2801C39.0701 14.2701 38.9801 14.2101 38.9401 14.2201C39.0801 14.2801 39.1101 14.2901 39.0401 14.2601C39.0101 14.2501 38.9801 14.2301 38.9601 14.2201C38.8501 14.1601 38.7501 14.1001 38.6401 14.0301C38.4701 13.9201 38.7801 14.1601 38.6401 14.0301C38.5901 13.9901 38.5501 13.9501 38.5001 13.9001C38.4501 13.8501 38.4101 13.8101 38.3701 13.7601C38.3401 13.7301 38.3201 13.7001 38.2901 13.6701C38.3801 13.7801 38.4001 13.8101 38.3501 13.7501C38.3101 13.6601 38.2301 13.5101 38.1701 13.4301C38.1401 13.3701 38.1501 13.3901 38.1901 13.4901C38.1701 13.4501 38.1601 13.4101 38.1501 13.3701C38.1201 13.2801 38.0901 13.1901 38.0701 13.1001C38.0501 13.0201 38.0301 12.9401 38.0201 12.8601C38.0101 12.8001 37.9401 12.5701 38.0101 12.8001C37.9601 12.6501 37.9801 12.4601 37.9801 12.3101C37.9801 11.9801 37.9801 11.6301 38.0501 11.3101C38.0101 11.5501 38.0501 11.2901 38.0601 11.2401C38.0701 11.1601 38.0901 11.0701 38.1001 10.9901C38.1301 10.8001 38.1701 10.6001 38.2101 10.4101C38.3101 9.90007 38.0701 9.31007 37.5101 9.18007C37.0201 9.07007 36.3801 9.33007 36.2801 9.88007H36.2701Z" fill="black"/>
<path d="M41.2901 10.1399C42.6401 9.96995 43.9801 9.78995 45.3301 9.61995C45.6101 9.57995 45.8301 9.52995 46.0401 9.32995C46.2101 9.15995 46.3401 8.86995 46.3301 8.61995C46.3101 8.13995 45.8901 7.54995 45.3301 7.61995C43.9801 7.78995 42.6401 7.96995 41.2901 8.13995C41.0101 8.17995 40.7901 8.22995 40.5801 8.42995C40.4101 8.59995 40.2801 8.88995 40.2901 9.13995C40.3101 9.61995 40.7301 10.2099 41.2901 10.1399Z" fill="black"/>
<path d="M41.05 8.94996C40.48 10.55 40.42 12.54 41.38 14C42.28 15.36 43.94 16.01 45.53 15.61C46.35 15.4 47.12 14.85 47.49 14.08C47.71 13.61 47.64 12.98 47.13 12.71C46.69 12.48 46 12.56 45.76 13.07C45.71 13.18 45.63 13.28 45.58 13.39C45.66 13.21 45.7 13.24 45.64 13.31C45.62 13.33 45.61 13.35 45.59 13.37C45.54 13.42 45.46 13.47 45.42 13.53C45.42 13.53 45.61 13.4 45.52 13.45C45.49 13.47 45.46 13.49 45.44 13.51C45.39 13.54 45.34 13.57 45.29 13.6C45.25 13.62 45.05 13.71 45.23 13.64C45.41 13.57 45.17 13.66 45.13 13.67C45.01 13.71 44.89 13.72 44.77 13.75C44.67 13.78 44.91 13.73 44.9 13.73C44.87 13.73 44.83 13.73 44.79 13.73C44.72 13.73 44.65 13.73 44.58 13.73C44.52 13.73 44.45 13.73 44.39 13.73C44.35 13.73 44.32 13.73 44.28 13.73C44.17 13.73 44.42 13.75 44.41 13.75C44.27 13.71 44.13 13.7 43.99 13.66C43.93 13.64 43.87 13.62 43.81 13.6C43.61 13.53 43.97 13.68 43.82 13.6C43.7 13.54 43.58 13.48 43.47 13.4C43.44 13.38 43.41 13.36 43.38 13.34C43.3 13.29 43.48 13.42 43.48 13.41C43.45 13.36 43.38 13.33 43.34 13.29C43.29 13.25 43.25 13.2 43.21 13.15C43.19 13.12 43.15 13.06 43.12 13.05C43.16 13.07 43.23 13.2 43.15 13.09C43.06 12.96 42.98 12.83 42.91 12.69C42.89 12.65 42.87 12.61 42.85 12.57C42.81 12.49 42.85 12.47 42.87 12.62C42.87 12.54 42.81 12.45 42.78 12.37C42.73 12.22 42.69 12.07 42.67 11.91C42.67 11.87 42.67 11.81 42.65 11.78C42.65 11.78 42.67 11.99 42.66 11.88C42.66 11.79 42.64 11.7 42.64 11.61C42.63 11.41 42.63 11.22 42.64 11.02C42.64 10.93 42.65 10.83 42.66 10.74C42.66 10.71 42.66 10.67 42.67 10.64C42.68 10.51 42.63 10.85 42.67 10.66C42.75 10.27 42.84 9.88996 42.97 9.50996C43.15 9.01996 42.77 8.38996 42.27 8.27996C41.71 8.14996 41.23 8.44996 41.04 8.97996L41.05 8.94996Z" fill="black"/>
<path d="M41.28 15.2701L40.78 20.3201C40.73 20.8401 41.28 21.3401 41.78 21.3201C42.37 21.2901 42.72 20.8801 42.78 20.3201L43.28 15.2701C43.33 14.7501 42.78 14.2501 42.28 14.2701C41.69 14.3001 41.34 14.7101 41.28 15.2701Z" fill="black"/>
<path d="M38.29 22.04C41.14 21.79 44 21.54 46.85 21.28C47.39 21.23 47.85 20.85 47.85 20.28C47.85 19.78 47.39 19.23 46.85 19.28C44 19.53 41.14 19.78 38.29 20.04C37.75 20.09 37.29 20.47 37.29 21.04C37.29 21.54 37.75 22.09 38.29 22.04Z" fill="black"/>
<path d="M57.47 8.66002C58.65 8.72002 59.65 8.14002 60.69 7.76002C60.89 7.69002 61.1 7.63002 61.31 7.59002C61.38 7.58002 61.37 7.58002 61.28 7.59002C61.34 7.59002 61.41 7.58002 61.47 7.57002C61.57 7.57002 61.66 7.57002 61.76 7.57002C61.82 7.57002 62.05 7.61002 61.87 7.57002C61.98 7.59002 62.08 7.62002 62.18 7.65002C62.25 7.67002 62.24 7.67002 62.15 7.63002C62.2 7.65002 62.25 7.68002 62.3 7.71002L62.37 7.76002C62.28 7.69002 62.28 7.69002 62.37 7.76002C62.44 7.83002 62.45 7.84002 62.41 7.79002C62.37 7.73002 62.38 7.75002 62.43 7.83002C62.47 7.95002 62.48 7.83002 62.49 7.99002C62.5 8.15002 62.47 8.37002 62.41 8.59002C62.25 9.18002 62.02 9.77002 61.82 10.35C61.4 11.57 60.99 12.78 60.57 14C60.4 14.51 60.77 15.09 61.27 15.23C61.82 15.38 62.32 15.04 62.5 14.53C62.98 13.13 63.46 11.72 63.94 10.32C64.38 9.04002 64.91 7.54002 63.85 6.41002C63.06 5.57002 61.8 5.46002 60.73 5.67002C59.59 5.90002 58.59 6.73002 57.46 6.67002C56.92 6.64002 56.46 7.15002 56.46 7.67002C56.46 8.24002 56.92 8.64002 57.46 8.67002L57.47 8.66002Z" fill="black"/>
<path d="M66.62 6.68994C66.36 9.65994 66.47 12.6199 66.89 15.5699C66.97 16.1099 67.65 16.3999 68.12 16.2699C68.7 16.1099 68.89 15.5799 68.82 15.0399C68.43 12.2799 68.38 9.46994 68.62 6.68994C68.67 6.14994 68.13 5.68994 67.62 5.68994C67.04 5.68994 66.67 6.14994 66.62 6.68994Z" fill="black"/>
<path d="M68.34 12.7C69.52 12.36 70.7 12.03 71.88 11.69C72.38 11.55 72.75 10.98 72.58 10.46C72.41 9.93998 71.89 9.60998 71.35 9.75998C70.17 10.1 68.99 10.43 67.81 10.77C67.31 10.91 66.94 11.48 67.11 12C67.28 12.52 67.8 12.85 68.34 12.7Z" fill="black"/>
<path d="M65.26 16.07C64.56 15.48 63.71 15.43 62.89 15.83C62.23 16.16 61.73 16.8 61.52 17.49C61.12 18.79 61.65 20.34 62.69 21.19C63.28 21.67 63.95 21.97 64.71 22C65.41 22.03 66.16 21.8 66.74 21.41C67.98 20.57 68.73 19.03 68.25 17.55C67.98 16.73 67.44 16.05 66.72 15.57C66 15.09 65.11 14.93 64.23 15.06C63.71 15.13 63.38 15.82 63.53 16.29C63.71 16.86 64.2 17.07 64.76 16.99C64.46 17.03 64.83 16.99 64.9 17H64.97C65.08 17.01 65.06 17 64.91 16.99C64.91 16.99 65.05 17.02 65.04 17.01C65.15 17.03 65.26 17.07 65.37 17.1C65.56 17.16 65.32 17.08 65.32 17.08C65.37 17.07 65.52 17.18 65.56 17.21C65.6 17.23 65.64 17.26 65.68 17.28C65.69 17.28 65.89 17.41 65.75 17.32C65.61 17.23 65.79 17.36 65.81 17.37C65.84 17.4 65.88 17.43 65.91 17.46C65.98 17.53 66.1 17.62 66.14 17.71L66.07 17.62C66.07 17.62 66.12 17.69 66.15 17.73C66.19 17.79 66.22 17.85 66.25 17.91C66.27 17.94 66.38 18.09 66.29 17.97C66.2 17.86 66.29 17.99 66.31 18.04C66.35 18.15 66.37 18.26 66.4 18.37C66.44 18.53 66.38 18.31 66.4 18.31C66.41 18.31 66.4 18.5 66.4 18.52C66.4 18.57 66.4 18.61 66.4 18.66C66.4 18.88 66.45 18.47 66.4 18.66C66.37 18.77 66.34 18.88 66.31 18.98C66.24 19.2 66.42 18.79 66.31 18.98C66.29 19.02 66.27 19.06 66.25 19.1C66.22 19.16 66.13 19.36 66.07 19.38C66.14 19.35 66.19 19.25 66.1 19.34C66.04 19.41 65.98 19.47 65.91 19.54C65.88 19.57 65.84 19.6 65.81 19.63C65.65 19.78 65.95 19.54 65.83 19.63C65.75 19.69 65.66 19.75 65.58 19.8C65.52 19.83 65.46 19.86 65.4 19.89C65.23 19.98 65.45 19.87 65.45 19.87C65.43 19.92 65.12 19.97 65.07 19.99H65C64.91 20.02 64.91 20.02 65 20.01H65.07C65.07 20.01 64.98 20.01 64.94 20.01C64.9 20.01 64.61 20.02 64.6 20C64.6 19.99 64.85 20.06 64.67 20C64.61 19.98 64.55 19.97 64.49 19.95C64.45 19.94 64.41 19.92 64.37 19.91C64.17 19.85 64.54 20.01 64.37 19.91C64.28 19.86 64.19 19.8 64.1 19.75C63.91 19.64 64.26 19.9 64.1 19.75C64.07 19.72 64.04 19.7 64 19.67C63.92 19.6 63.85 19.52 63.78 19.44C63.65 19.3 63.83 19.48 63.82 19.49C63.82 19.49 63.69 19.3 63.68 19.28C63.63 19.2 63.59 19.11 63.54 19.03C63.45 18.85 63.58 19.03 63.55 19.06C63.55 19.06 63.51 18.96 63.51 18.94C63.48 18.84 63.45 18.74 63.43 18.63V18.57C63.4 18.46 63.4 18.49 63.43 18.65C63.45 18.62 63.42 18.5 63.42 18.46C63.42 18.42 63.42 18.38 63.42 18.33C63.42 18.29 63.42 18.25 63.42 18.2C63.43 18.09 63.42 18.12 63.41 18.28C63.45 18.24 63.47 18.04 63.48 17.97C63.37 18.16 63.53 17.76 63.48 17.97C63.51 17.92 63.55 17.86 63.58 17.8C63.68 17.62 63.46 17.9 63.56 17.82C63.62 17.77 63.66 17.71 63.72 17.66C63.73 17.65 63.81 17.57 63.82 17.58C63.7 17.67 63.69 17.68 63.77 17.62C63.8 17.6 63.82 17.59 63.85 17.57C63.97 17.48 63.94 17.6 63.81 17.57C63.83 17.57 63.96 17.52 63.98 17.51C64.16 17.44 63.8 17.5 63.92 17.51C63.95 17.51 63.98 17.51 64.01 17.51C64.12 17.51 64.09 17.51 63.91 17.49C63.91 17.49 64.01 17.52 64.02 17.52C63.87 17.45 63.84 17.44 63.94 17.49C64.03 17.55 64.01 17.53 63.88 17.44C64.28 17.77 64.91 17.86 65.29 17.44C65.63 17.07 65.72 16.38 65.29 16.03L65.26 16.07Z" fill="black"/>
<path d="M73.99 6.72011C74.03 6.78011 74.06 6.84011 74.09 6.90011C74.06 6.82011 74.06 6.83011 74.1 6.95011C74.13 7.05011 74.15 7.14011 74.18 7.24011C74.25 7.53011 74.18 7.08011 74.2 7.38011C74.2 7.50011 74.21 7.62011 74.21 7.74011C74.21 7.97011 74.19 8.20011 74.17 8.43011C74.17 8.43011 74.13 8.75011 74.15 8.59011C74.13 8.73011 74.11 8.88011 74.09 9.02011C73.96 9.95011 73.81 10.8801 74.17 11.7701C74.49 12.5501 75.04 13.3101 75.81 13.7001C76.68 14.1401 77.67 14.0701 78.37 13.3601C78.75 12.9801 78.75 12.3301 78.37 11.9501C77.99 11.5701 77.34 11.5701 76.96 11.9501C76.93 11.9801 76.91 12.0001 76.88 12.0301C76.82 12.0801 76.84 12.0601 76.94 11.9801C76.89 12.0001 76.68 12.1301 76.94 11.9901C76.89 12.0201 76.64 12.0701 76.96 11.9901C76.93 11.9901 76.73 11.9901 76.9 11.9901C77.07 11.9901 76.84 11.9601 76.81 11.9601C76.72 11.9601 76.97 12.0601 76.83 11.9601C76.77 11.9201 76.71 11.8901 76.64 11.8501C76.44 11.7401 76.77 11.9801 76.6 11.8201C76.48 11.7101 76.37 11.6001 76.27 11.4801C76.36 11.5901 76.31 11.5301 76.26 11.4501C76.22 11.3801 76.17 11.3101 76.13 11.2401C76.1 11.1801 76.07 11.1201 76.04 11.0601C76.14 11.2601 76.04 11.0501 76.02 10.9901C75.99 10.9101 75.98 10.8301 75.96 10.7601C75.89 10.5201 75.96 10.9501 75.95 10.7101C75.94 10.3401 75.97 9.96011 76.02 9.59011C76 9.74011 76.04 9.45011 76.04 9.42011C76.06 9.31011 76.07 9.20011 76.09 9.10011C76.13 8.83011 76.16 8.57011 76.19 8.30011C76.28 7.40011 76.18 6.50011 75.73 5.69011C75.47 5.22011 74.82 5.06011 74.36 5.33011C73.9 5.60011 73.74 6.23011 74 6.70011L73.99 6.72011Z" fill="black"/>
<path d="M81.21 5.6799V13.7599C81.21 15.0499 83.21 15.0499 83.21 13.7599V5.6799C83.21 4.3899 81.21 4.3899 81.21 5.6799Z" fill="black"/>
<path d="M82.22 11.32C83.57 11.15 84.91 10.99 86.26 10.82C86.53 10.79 86.76 10.73 86.97 10.53C87.14 10.36 87.27 10.07 87.26 9.81998C87.24 9.32998 86.82 8.74998 86.26 8.81998C84.91 8.98998 83.57 9.14998 82.22 9.31998C81.95 9.34998 81.72 9.40998 81.51 9.60998C81.34 9.77998 81.21 10.07 81.22 10.32C81.24 10.81 81.66 11.39 82.22 11.32Z" fill="black"/>
<path d="M76.16 18.8101C76.21 19.3801 76.22 19.9601 76.18 20.5301C76.16 20.8001 76.14 21.0701 76.11 21.3401C76.12 21.2301 76.11 21.3101 76.11 21.3801C76.1 21.4601 76.08 21.5501 76.07 21.6301C76.04 21.7801 76.02 21.9301 75.98 22.0801C75.88 22.5501 76.05 22.9401 76.44 23.2101C78.52 24.6401 81.74 24.3301 83.04 22.0101C83.59 21.0201 83.78 19.7601 83.37 18.6801C82.96 17.6001 82.01 16.7601 80.83 16.5401C79.5 16.3001 78.17 16.7301 77.38 17.8701C77.08 18.3001 77.29 19.0001 77.74 19.2401C78.25 19.5101 78.79 19.3401 79.11 18.8801C79.21 18.7301 79.07 18.9301 79.06 18.9301C79.07 18.9301 79.15 18.8301 79.16 18.8201C79.19 18.7901 79.4 18.6201 79.26 18.7201C79.12 18.8201 79.37 18.6501 79.41 18.6301C79.45 18.6101 79.48 18.5901 79.52 18.5701C79.68 18.4801 79.31 18.6301 79.51 18.5701C79.59 18.5501 79.66 18.5201 79.74 18.5001C79.78 18.5001 79.82 18.4801 79.86 18.4701C80.02 18.4301 79.8 18.4801 79.78 18.4701C79.85 18.4901 79.96 18.4501 80.03 18.4501C80.13 18.4501 80.24 18.4501 80.34 18.4601C80.52 18.4601 80.28 18.4601 80.26 18.4501C80.28 18.4701 80.38 18.4701 80.41 18.4801C80.49 18.5001 80.57 18.5201 80.65 18.5401C80.67 18.5401 80.79 18.6001 80.8 18.5901C80.79 18.5901 80.57 18.4801 80.73 18.5601C80.82 18.6101 80.91 18.6501 81 18.7101C81.01 18.7101 81.1 18.7801 81.1 18.7801C81.09 18.7801 80.91 18.6201 81.04 18.7401C81.1 18.8001 81.16 18.8501 81.22 18.9101L81.3 19.0001C81.26 19.0101 81.18 18.8201 81.26 18.9501C81.32 19.0501 81.38 19.1401 81.43 19.2401C81.53 19.4101 81.41 19.1801 81.41 19.1901C81.43 19.2001 81.46 19.3201 81.47 19.3501C81.5 19.4401 81.52 19.5201 81.54 19.6101C81.59 19.8201 81.52 19.5801 81.54 19.5801C81.54 19.5801 81.55 19.7201 81.55 19.7101C81.55 19.8201 81.55 19.9401 81.55 20.0501C81.55 20.1001 81.55 20.1401 81.55 20.1901C81.55 20.3501 81.55 20.1301 81.56 20.1301C81.58 20.1501 81.51 20.3701 81.51 20.4001C81.49 20.5001 81.46 20.6001 81.42 20.7001C81.4 20.7401 81.39 20.7901 81.37 20.8301C81.33 20.9501 81.46 20.6501 81.37 20.8101C81.29 20.9601 81.19 21.2301 81.05 21.3401C81.06 21.3301 81.2 21.1701 81.08 21.3001C81.05 21.3301 81.02 21.3701 80.99 21.4001C80.91 21.4801 80.83 21.5601 80.74 21.6301C80.65 21.7001 80.74 21.6801 80.78 21.6001C80.77 21.6201 80.66 21.6801 80.66 21.6801C80.57 21.7401 80.48 21.7901 80.39 21.8401C80.34 21.8601 80.3 21.8901 80.25 21.9101C80.45 21.8101 80.29 21.8901 80.23 21.9101C80.12 21.9501 80.01 21.9801 79.89 22.0101C79.83 22.0301 79.76 22.0401 79.7 22.0501C79.51 22.0901 79.66 22.1001 79.7 22.0501C79.67 22.1001 79.36 22.0701 79.31 22.0701C79.18 22.0701 79.05 22.0701 78.91 22.0501C78.7 22.0401 78.92 22.0601 78.94 22.0501C78.89 22.0601 78.75 22.0201 78.7 22.0101C78.57 21.9801 78.44 21.9501 78.31 21.9101C78.26 21.8901 78.21 21.8801 78.16 21.8601C78.11 21.8401 77.89 21.7501 78.1 21.8401C77.86 21.7301 77.63 21.6001 77.41 21.4501L77.87 22.5801C78.13 21.3301 78.22 20.0601 78.12 18.7901C78.08 18.2701 77.69 17.7601 77.12 17.7901C76.61 17.8101 76.07 18.2301 76.12 18.7901L76.16 18.8101Z" fill="black"/>
<path d="M91.07 9.90006C89.78 10.2101 88.78 11.3601 88.48 12.6301C88.33 13.2601 88.32 13.9601 88.53 14.5801C88.77 15.2901 89.22 15.8601 89.84 16.2901C90.95 17.0501 92.46 17.0401 93.64 16.4601C94.82 15.8801 95.56 14.5001 95.4 13.1801C95.22 11.6701 94.21 10.2001 92.65 9.88006C92.14 9.78006 91.55 10.0301 91.42 10.5801C91.31 11.0801 91.57 11.7001 92.12 11.8101C92.23 11.8301 92.34 11.8701 92.44 11.9001C92.46 11.9001 92.49 11.9201 92.51 11.9301C92.51 11.9301 92.3 11.8301 92.39 11.8801C92.44 11.9101 92.5 11.9301 92.55 11.9601C92.6 11.9901 92.65 12.0201 92.7 12.0501C92.73 12.0701 92.88 12.1801 92.74 12.0801C92.6 11.9801 92.77 12.1101 92.79 12.1301C92.83 12.1701 92.88 12.2101 92.92 12.2601C92.96 12.3001 92.99 12.3401 93.02 12.3701C93.16 12.5301 92.92 12.2201 93.01 12.3501C93.07 12.4401 93.13 12.5401 93.19 12.6301C93.22 12.6801 93.25 12.7401 93.27 12.7901C93.28 12.8101 93.29 12.8401 93.3 12.8601C93.35 12.9501 93.25 12.7301 93.25 12.7401C93.27 12.8601 93.33 12.9701 93.36 13.0801C93.39 13.1801 93.4 13.2801 93.42 13.3801C93.42 13.3801 93.39 13.1101 93.4 13.2701C93.4 13.3001 93.4 13.3201 93.4 13.3501C93.4 13.4101 93.4 13.4701 93.4 13.5301C93.4 13.5801 93.4 13.6301 93.4 13.6801C93.4 13.7201 93.37 13.9401 93.4 13.7501C93.42 13.5601 93.4 13.7501 93.39 13.7901C93.38 13.8601 93.36 13.9201 93.34 13.9901C93.32 14.0401 93.3 14.0901 93.29 14.1301C93.26 14.2301 93.35 14.0001 93.34 14.0101C93.33 14.0301 93.32 14.0601 93.31 14.0801C93.28 14.1301 93.25 14.1901 93.22 14.2401C93.2 14.2801 93.07 14.4501 93.18 14.3101C93.29 14.1701 93.18 14.3101 93.15 14.3501C93.11 14.3901 93.07 14.4401 93.03 14.4801C92.99 14.5101 92.95 14.5501 92.92 14.5801C92.81 14.6801 93.12 14.4501 92.94 14.5601C92.85 14.6201 92.76 14.6801 92.66 14.7201C92.64 14.7301 92.61 14.7401 92.59 14.7501C92.5 14.8001 92.72 14.7001 92.71 14.7001C92.65 14.7201 92.58 14.7501 92.52 14.7701C92.42 14.8001 92.32 14.8301 92.22 14.8501C92.18 14.8501 91.96 14.8901 92.15 14.8701C92.34 14.8501 92.13 14.8701 92.08 14.8701C91.97 14.8701 91.86 14.8701 91.75 14.8701C91.7 14.8701 91.65 14.8701 91.6 14.8601C91.38 14.8401 91.83 14.9101 91.61 14.8601C91.51 14.8401 91.41 14.8201 91.31 14.7901C91.25 14.7701 91.2 14.7501 91.14 14.7301C90.99 14.6801 91.36 14.8401 91.17 14.7401C91.07 14.6901 90.98 14.6401 90.88 14.5801C90.84 14.5501 90.8 14.5201 90.76 14.4901C90.76 14.4901 90.93 14.6401 90.86 14.5701C90.84 14.5501 90.81 14.5301 90.78 14.5001C90.7 14.4301 90.64 14.3301 90.55 14.2601C90.55 14.2601 90.67 14.4401 90.63 14.3601C90.62 14.3401 90.6 14.3201 90.59 14.3001C90.55 14.2401 90.52 14.1801 90.49 14.1201C90.47 14.0801 90.45 14.0201 90.42 13.9801C90.42 13.9801 90.49 14.2001 90.47 14.1001C90.47 14.0801 90.45 14.0501 90.44 14.0301C90.4 13.9201 90.38 13.8001 90.35 13.6901C90.31 13.5301 90.37 13.9601 90.35 13.7301C90.35 13.6801 90.35 13.6301 90.35 13.5801C90.35 13.4601 90.37 13.3401 90.36 13.2301C90.36 13.1301 90.34 13.3801 90.34 13.3701C90.34 13.3401 90.35 13.3001 90.36 13.2701C90.37 13.2101 90.38 13.1501 90.4 13.1001C90.43 12.9801 90.47 12.8601 90.52 12.7301C90.53 12.7001 90.57 12.6101 90.51 12.7501C90.44 12.9101 90.51 12.7701 90.52 12.7301C90.55 12.6801 90.57 12.6201 90.6 12.5701C90.63 12.5201 90.66 12.4701 90.69 12.4201C90.71 12.3901 90.73 12.3601 90.75 12.3401C90.82 12.2301 90.7 12.4001 90.69 12.4201C90.78 12.3301 90.85 12.2301 90.95 12.1401C90.99 12.1001 91.04 12.0601 91.08 12.0201C91.19 11.9201 90.88 12.1501 91.06 12.0401C91.16 11.9801 91.29 11.9301 91.39 11.8501C91.39 11.8501 91.17 11.9301 91.27 11.9001C91.31 11.8901 91.35 11.8701 91.39 11.8601C91.46 11.8401 91.52 11.8201 91.59 11.8101C92.1 11.6901 92.45 11.0801 92.29 10.5801C92.12 10.0501 91.61 9.75006 91.06 9.88006L91.07 9.90006Z" fill="black"/>
<path d="M94.8399 13.24H96.8599C97.1199 13.24 97.3899 13.13 97.5699 12.95C97.7499 12.77 97.8699 12.49 97.8599 12.24C97.8399 11.7 97.4199 11.24 96.8599 11.24H94.8399C94.5799 11.24 94.3099 11.35 94.1299 11.53C93.9499 11.71 93.8299 11.99 93.8399 12.24C93.8599 12.78 94.2799 13.24 94.8399 13.24Z" fill="black"/>
<path d="M96.5899 8.69007L97.1299 18.3101C97.1999 19.5901 99.1999 19.6001 99.1299 18.3101L98.5899 8.69007C98.5199 7.41007 96.5199 7.40007 96.5899 8.69007Z" fill="black"/>
<path d="M101.02 8.96009C100.52 12.5401 100.77 16.1601 101.85 19.6101C102.23 20.8301 104.17 20.3101 103.78 19.0801C102.81 15.9901 102.49 12.7001 102.95 9.49009C103.03 8.96009 102.82 8.42009 102.25 8.26009C101.78 8.13009 101.1 8.42009 101.02 8.96009Z" fill="black"/>
<path d="M106.49 6.42005C105.94 9.69005 105.14 12.91 104.1 16.0601C103.69 17.2801 105.62 17.8101 106.03 16.59C107.07 13.44 107.87 10.22 108.42 6.95005C108.51 6.42005 108.28 5.87005 107.72 5.72005C107.24 5.59005 106.58 5.88005 106.49 6.42005Z" fill="black"/>
<path d="M106.75 13.06C108.08 13.6 109.41 14.14 110.75 14.68C110.97 14.77 111.32 14.7 111.52 14.58C111.72 14.46 111.93 14.22 111.98 13.98C112.04 13.72 112.03 13.44 111.88 13.21C111.73 12.98 111.54 12.85 111.28 12.75C109.95 12.21 108.62 11.67 107.28 11.13C107.06 11.04 106.71 11.11 106.51 11.23C106.31 11.35 106.1 11.59 106.05 11.83C105.99 12.09 106 12.37 106.15 12.6C106.3 12.83 106.49 12.96 106.75 13.06Z" fill="black"/>
<path d="M111.76 11.1301C112.94 10.8101 114.13 10.5001 115.31 10.1801C115.82 10.0401 116.17 9.46008 116.01 8.95008C115.85 8.44008 115.32 8.11008 114.78 8.25008C113.6 8.57008 112.41 8.88008 111.23 9.20008C110.72 9.34008 110.37 9.92008 110.53 10.4301C110.69 10.9401 111.22 11.2701 111.76 11.1301Z" fill="black"/>
<path d="M115.56 5.16992C115.39 8.12992 115.59 11.0999 116.11 14.0199C116.21 14.5499 116.85 14.8499 117.34 14.7199C117.9 14.5699 118.13 14.0199 118.04 13.4899C117.55 10.7499 117.4 7.94992 117.56 5.16992C117.59 4.62992 117.08 4.16992 116.56 4.16992C115.99 4.16992 115.59 4.62992 115.56 5.16992Z" fill="black"/>
<path d="M128.19 5.16998C128.31 7.13998 128.13 8.97998 127.63 10.86C127.46 11.51 127.95 12.1 128.59 12.13C129.41 12.17 130.23 12.21 131.05 12.24C131.77 12.27 132.53 12.37 133.25 12.3C134.08 12.21 134.78 11.84 135.24 11.12C135.58 10.59 135.7 9.94998 135.79 9.33998C135.98 7.97998 136.17 6.49998 135.64 5.17998C135.18 4.02998 134.29 3.13998 133.03 2.91998C131.65 2.67998 130.3 3.19998 129.79 4.57998C129.61 5.06998 129.99 5.69998 130.49 5.80998C131.06 5.93998 131.53 5.63998 131.72 5.10998C131.63 5.35998 131.74 5.10998 131.77 5.03998C131.85 4.89998 131.63 5.16998 131.8 5.01998C131.97 4.86998 131.67 5.06998 131.82 4.99998C131.85 4.98998 131.9 4.95998 131.93 4.92998C132.07 4.82998 131.8 4.94998 131.9 4.92998C131.97 4.91998 132.05 4.87998 132.12 4.85998C132.14 4.85998 132.25 4.82998 132.25 4.82998C132.25 4.83998 131.98 4.83998 132.19 4.83998C132.27 4.83998 132.35 4.83998 132.44 4.83998C132.48 4.83998 132.51 4.83998 132.55 4.83998C132.77 4.83998 132.41 4.79998 132.53 4.83998C132.71 4.88998 132.88 4.91998 133.05 4.98998C132.86 4.91998 133.02 4.98998 133.11 5.02998C133.18 5.06998 133.41 5.24998 133.24 5.09998C133.3 5.14998 133.37 5.20998 133.43 5.26998C133.46 5.29998 133.49 5.33998 133.53 5.37998C133.61 5.44998 133.49 5.32998 133.48 5.31998C133.54 5.43998 133.63 5.54998 133.69 5.66998C133.72 5.72998 133.75 5.78998 133.78 5.84998C133.74 5.74998 133.78 5.84998 133.78 5.88998C133.82 6.01998 133.86 6.14998 133.89 6.27998C133.91 6.34998 133.92 6.40998 133.93 6.47998C133.93 6.47998 133.96 6.64998 133.94 6.54998C133.92 6.43998 133.94 6.64998 133.95 6.66998C133.95 6.71998 133.95 6.76998 133.96 6.81998C133.96 6.97998 133.97 7.12998 133.97 7.28998C133.97 7.54998 133.95 7.81998 133.93 8.07998C133.92 8.19998 133.91 8.31998 133.89 8.44998C133.89 8.49998 133.88 8.54998 133.87 8.60998C133.83 8.94998 133.9 8.41998 133.85 8.75998C133.82 8.97998 133.79 9.19998 133.74 9.40998C133.71 9.52998 133.68 9.64998 133.65 9.76998C133.64 9.80998 133.62 9.85998 133.61 9.89998C133.58 9.99998 133.68 9.79998 133.59 9.94998C133.56 9.99998 133.53 10.05 133.5 10.1C133.5 10.11 133.41 10.22 133.48 10.14C133.56 10.05 133.43 10.18 133.41 10.2C133.31 10.3 133.53 10.13 133.41 10.2C133.37 10.22 133.33 10.25 133.28 10.27C133.41 10.21 133.25 10.27 133.23 10.27C133.21 10.27 133.04 10.31 133.19 10.29C133.12 10.29 133.05 10.3 132.98 10.3C132.27 10.32 131.55 10.25 130.84 10.22C130.08 10.19 129.33 10.15 128.57 10.12L129.53 11.39C130.07 9.36998 130.29 7.24998 130.16 5.15998C130.13 4.63998 129.72 4.12998 129.16 4.15998C128.65 4.17998 128.13 4.59998 128.16 5.15998L128.19 5.16998Z" fill="black"/>
<path d="M137.16 3.26991C138.56 6.64991 138.94 10.3799 138.16 13.9599C137.88 15.2099 139.81 15.7499 140.09 14.4899C140.95 10.5699 140.63 6.44991 139.09 2.72991C138.88 2.22991 138.43 1.87991 137.86 2.02991C137.39 2.15991 136.95 2.75991 137.16 3.25991V3.26991Z" fill="black"/>
<path d="M140.53 11.0801C141.71 10.7401 142.88 10.4001 144.06 10.0601C144.56 9.9101 144.93 9.3501 144.76 8.8301C144.59 8.3101 144.07 7.9801 143.53 8.1301C142.35 8.4701 141.18 8.8101 140 9.1501C139.5 9.3001 139.13 9.8601 139.3 10.3801C139.47 10.9001 139.99 11.2301 140.53 11.0801Z" fill="black"/>
<path d="M133.24 13.5299C133.28 13.6299 133.31 13.7199 133.33 13.8199C133.34 13.8799 133.35 14.0999 133.34 13.8599C133.34 14.0499 133.36 14.2399 133.35 14.4299C133.33 14.8199 133.28 15.2099 133.24 15.5999C133.16 16.4199 133.21 17.3399 133.84 17.9599C134.74 18.8399 136.02 18.5799 137.14 18.4799C138.35 18.3799 139.56 18.2799 140.78 18.1699C141.3 18.1299 141.81 17.7399 141.78 17.1699C141.76 16.6699 141.34 16.1199 140.78 16.1699C139.7 16.2599 138.62 16.3499 137.53 16.4399C136.97 16.4899 136.42 16.5399 135.86 16.5799C135.74 16.5799 135.63 16.5899 135.52 16.5999C135.31 16.5999 135.53 16.6399 135.34 16.5799C135.43 16.6099 135.27 16.5399 135.24 16.5299C135.35 16.6199 135.36 16.6299 135.28 16.5599C135.22 16.4999 135.22 16.4999 135.28 16.5599C135.39 16.6799 135.26 16.4999 135.24 16.4699C135.21 16.3999 135.22 16.4299 135.28 16.5599C135.27 16.5199 135.25 16.4799 135.24 16.4299C135.22 16.1599 135.22 16.3599 135.24 16.4299C135.24 16.3599 135.24 16.2899 135.23 16.2099C135.23 15.8799 135.27 15.5399 135.3 15.2099C135.38 14.4699 135.46 13.6899 135.18 12.9799C134.98 12.4799 134.51 12.1299 133.95 12.2799C133.47 12.4099 133.06 12.9999 133.25 13.5099L133.24 13.5299Z" fill="black"/>
<path d="M145.86 7.19003V10.69C145.86 11.72 145.87 12.93 146.89 13.52C147.91 14.11 149.22 13.57 150.26 13.34C151.4 13.08 152.53 12.82 153.67 12.56C154.2 12.44 154.51 11.83 154.37 11.33C154.22 10.79 153.67 10.51 153.14 10.63C152.17 10.85 151.21 11.07 150.24 11.29C149.74 11.41 149.23 11.52 148.73 11.64C148.52 11.69 148.31 11.74 148.1 11.78C148.03 11.79 148.03 11.79 148.11 11.78C148.06 11.78 148.01 11.78 147.96 11.78C147.81 11.78 147.8 11.72 147.92 11.8C147.98 11.83 147.96 11.82 147.86 11.77L147.93 11.82C148 11.92 148 11.92 147.93 11.82L147.89 11.75C147.98 11.95 147.89 11.7 147.89 11.66C147.83 11.4 147.89 11.84 147.88 11.57C147.86 11.13 147.87 10.68 147.87 10.24V7.19003C147.87 6.67003 147.41 6.17003 146.86 6.19003C146.31 6.21003 145.86 6.63003 145.86 7.19003Z" fill="black"/>
<path d="M153.68 3.38004L156.51 18.06C156.75 19.32 158.68 18.79 158.44 17.53L155.61 2.85004C155.37 1.59004 153.44 2.12004 153.68 3.38004Z" fill="black"/>
<path d="M157.66 14.96C157.84 14.75 158.04 14.57 158.26 14.4L158.06 14.56C158.37 14.32 158.7 14.13 159.06 13.98L158.82 14.08C159.19 13.92 159.58 13.82 159.98 13.76L159.71 13.8C159.81 13.79 159.9 13.78 160 13.77C160.27 13.75 160.51 13.67 160.71 13.48C160.88 13.31 161.01 13.02 161 12.77C160.98 12.26 160.56 11.73 160 11.77C158.58 11.87 157.2 12.48 156.25 13.55C156.07 13.75 155.96 13.98 155.96 14.26C155.96 14.51 156.07 14.8 156.25 14.97C156.63 15.32 157.29 15.39 157.66 14.97V14.96Z" fill="black"/>
<path d="M164.4 6.71005C164.5 6.57004 164.28 6.82004 164.44 6.66004C164.5 6.61004 164.55 6.55005 164.61 6.50005C164.47 6.63004 164.56 6.54004 164.66 6.49004C164.69 6.47004 164.72 6.46005 164.75 6.44005C164.91 6.34005 164.63 6.46004 164.73 6.45004C164.8 6.45004 164.88 6.40005 164.96 6.38005C164.99 6.38005 165.03 6.38005 165.06 6.36005C165.18 6.31005 164.87 6.36005 165 6.36005C165.17 6.36005 165.35 6.36005 165.52 6.36005C165.33 6.36005 165.43 6.35004 165.57 6.37004C165.65 6.39004 165.73 6.41004 165.81 6.43004C165.88 6.45004 165.94 6.48005 166.01 6.50005C165.77 6.43005 166.01 6.50005 166.09 6.55005C166.17 6.59005 166.25 6.65005 166.33 6.69005C166.48 6.78005 166.22 6.57004 166.35 6.70004C166.41 6.76004 166.47 6.81005 166.52 6.86005C166.55 6.89005 166.58 6.93005 166.61 6.96005C166.69 7.03005 166.54 6.82005 166.57 6.92005C166.59 6.98005 166.65 7.07004 166.69 7.12004C166.78 7.25004 166.65 6.95004 166.7 7.16004C166.72 7.24004 166.74 7.31005 166.76 7.39004C166.71 7.17004 166.76 7.36004 166.75 7.47004C166.75 7.53004 166.75 7.58004 166.74 7.64004C166.74 7.62004 166.78 7.48005 166.74 7.58004C166.71 7.67004 166.7 7.77005 166.68 7.87004C166.66 7.97004 166.62 8.06005 166.59 8.16004C166.58 8.20004 166.56 8.24005 166.54 8.28005C166.44 8.54005 166.59 8.18005 166.52 8.32005C166.16 9.08005 165.67 9.78005 165.33 10.55C164.88 11.54 164.69 12.67 165.37 13.61C165.69 14.05 166.24 14.26 166.74 13.97C167.17 13.72 167.42 13.04 167.1 12.6C167.04 12.51 166.99 12.42 166.93 12.33C167.03 12.51 166.93 12.32 166.91 12.23C166.86 12.07 166.9 12.41 166.91 12.18C166.91 12.13 166.91 12.08 166.91 12.04C166.9 11.93 166.86 12.24 166.91 12.05C166.96 11.85 167.01 11.66 167.09 11.46C167.01 11.64 167.11 11.43 167.14 11.36C167.2 11.24 167.26 11.13 167.32 11.02C167.8 10.14 168.38 9.29004 168.62 8.31005C168.88 7.28005 168.67 6.26005 167.95 5.47005C167.31 4.78005 166.38 4.42004 165.45 4.34004C164.35 4.25004 163.31 4.76005 162.7 5.67005C162.4 6.12005 162.61 6.78005 163.06 7.04005C163.55 7.33004 164.13 7.13004 164.43 6.68004L164.4 6.71005Z" fill="black"/>
<path d="M166.05 18.29C167.34 18.29 167.34 16.29 166.05 16.29C164.76 16.29 164.76 18.29 166.05 18.29Z" fill="black"/>
<path d="M173.12 16.27C174.41 16.27 174.41 14.27 173.12 14.27C171.83 14.27 171.83 16.27 173.12 16.27Z" fill="black"/>
<path d="M176.15 16.27C177.44 16.27 177.44 14.27 176.15 14.27C174.86 14.27 174.86 16.27 176.15 16.27Z" fill="black"/>
<path d="M180.7 16.78C181.99 16.78 181.99 14.78 180.7 14.78C179.41 14.78 179.41 16.78 180.7 16.78Z" fill="black"/>
<path d="M185.74 6.04989C185.8 6.08989 185.86 6.13989 185.92 6.17989L185.72 6.01989C186 6.22989 186.24 6.47989 186.46 6.75989L186.3 6.55989C186.51 6.83989 186.69 7.13989 186.83 7.45989L186.73 7.21989C186.76 7.29989 186.79 7.37989 186.82 7.45989C186.91 7.70989 187.05 7.91989 187.28 8.05989C187.49 8.18989 187.81 8.23989 188.05 8.15989C188.29 8.07989 188.53 7.92989 188.65 7.69989C188.77 7.46989 188.84 7.17989 188.75 6.92989C188.58 6.43989 188.35 5.96989 188.03 5.54989C187.85 5.31989 187.67 5.08989 187.46 4.88989C187.25 4.68989 187 4.49989 186.75 4.32989C186.55 4.18989 186.21 4.16989 185.98 4.22989C185.75 4.28989 185.5 4.46989 185.38 4.68989C185.26 4.91989 185.2 5.19989 185.28 5.45989C185.36 5.71989 185.52 5.89989 185.74 6.05989V6.04989Z" fill="black"/>
<path d="M186.85 10.97C186.95 11.25 187.04 11.53 187.1 11.83C187.13 11.98 187.16 12.14 187.19 12.29C187.18 12.18 187.19 12.29 187.19 12.34C187.19 12.41 187.2 12.48 187.21 12.55C187.23 12.85 187.23 13.15 187.21 13.44C187.21 13.53 187.2 13.61 187.19 13.7C187.19 13.75 187.17 13.86 187.19 13.75C187.17 13.91 187.14 14.06 187.1 14.22C187.04 14.51 186.95 14.8 186.85 15.08C186.83 15.15 186.8 15.21 186.78 15.28C186.77 15.31 186.72 15.43 186.76 15.33C186.7 15.47 186.63 15.62 186.55 15.75C186.24 16.34 186 16.66 185.55 17.1C184.64 18.01 186.05 19.43 186.96 18.51C189.02 16.45 189.79 13.19 188.77 10.44C188.58 9.93003 188.09 9.59003 187.54 9.74003C187.05 9.87003 186.65 10.46 186.84 10.97H186.85Z" fill="black"/>
<path d="M191.94 5.40012L192.97 7.92012C193.07 8.17012 193.19 8.37012 193.43 8.52012C193.64 8.65012 193.96 8.70012 194.2 8.62012C194.44 8.54012 194.68 8.39012 194.8 8.16012C194.92 7.93012 195 7.63012 194.9 7.39012L193.87 4.87012C193.77 4.62012 193.65 4.42012 193.41 4.27012C193.2 4.14012 192.88 4.09012 192.64 4.17012C192.4 4.25012 192.16 4.40012 192.04 4.63012C191.92 4.86012 191.84 5.16012 191.94 5.40012Z" fill="black"/>
<path d="M191.83 11.7401C191.86 12.9101 191.74 13.8201 191.41 14.9401C191.08 16.0601 190.65 16.9001 190 17.8501C189.69 18.3001 189.92 18.9601 190.36 19.2201C190.86 19.5101 191.42 19.3101 191.73 18.8601C193.16 16.7901 193.89 14.2601 193.83 11.7401C193.82 11.2201 193.38 10.7201 192.83 10.7401C192.28 10.7601 191.82 11.1801 191.83 11.7401Z" fill="black"/>
</svg>
