<svg width="375" height="134" viewBox="0 0 375 134" fill="none" xmlns="http://www.w3.org/2000/svg">
<g clip-path="url(#clip0_919_96)">
<path d="M37.2855 57.4939C24.8543 55.2901 12.284 53.9599 -0.35256 54.026C-10.5771 54.079 -20.3776 62.9669 -19.9005 73.549C-19.4234 84.1312 -11.3127 93.1316 -0.35256 93.0721C7.91059 93.0257 16.1406 93.5419 24.3375 94.6207L19.1424 93.9258C21.7333 94.2831 24.3176 94.6935 26.8887 95.1501C32.1765 96.0899 37.1662 95.9773 41.9505 93.1846C46.0059 90.8153 49.8757 86.1695 50.9359 81.5171C53.1094 72.0004 48.0468 59.4064 37.2855 57.5005V57.4939Z" fill="#455B92" stroke="black" stroke-width="0.25" stroke-miterlimit="10"/>
<path d="M381.773 52.6562C369.342 50.4524 356.772 49.1222 344.135 49.1884C333.91 49.2413 324.11 58.1293 324.587 68.7114C325.064 79.2935 333.175 88.294 344.135 88.2344C352.398 88.1881 360.628 88.7043 368.825 89.783L363.63 89.0881C366.221 89.4455 368.805 89.8558 371.376 90.3125C376.664 91.2522 381.654 91.1397 386.438 88.3469C390.493 85.9777 394.363 81.3319 395.423 76.6794C397.597 67.1628 392.534 54.5688 381.773 52.6628V52.6562Z" fill="#455B92" stroke="black" stroke-width="0.25" stroke-miterlimit="10"/>
<path d="M352.107 69.1947C351.099 47.1502 337.674 28.7853 317.331 20.4004C312.726 18.501 307.948 17.1973 303.038 16.3899C301.514 16.1384 299.977 16.3767 298.751 17.1112C242.128 14.8148 185.419 14.7288 128.79 16.9193C114.742 17.462 100.667 17.9848 86.6456 18.9974C74.4132 19.8842 61.9092 21.8365 51.2539 28.289C32.2427 39.7976 23.3964 61.7759 28.3662 83.2711C30.5662 92.7811 35.3505 102.192 42.5401 108.909C51.2671 117.062 62.3134 118.909 73.9096 119.134C101.966 119.683 130.022 120.001 158.078 120.431C172.054 120.643 186.042 120.914 200.01 120.232C213.966 119.551 227.762 117.546 241.538 115.322C255.03 113.145 268.547 110.888 282.224 110.378C288.718 110.14 295.179 110.365 301.646 110.987C307.126 111.517 312.633 112.178 318.146 111.914C329.186 111.371 339.132 106.838 345.308 97.4468C350.675 89.2868 352.531 78.8172 352.093 69.1947H352.107ZM321.188 101.08C310.46 102.576 299.301 99.7366 288.526 99.6836C275.83 99.6241 263.187 101.279 250.663 103.204C238.159 105.13 225.694 107.447 213.098 108.697C200.044 109.988 186.917 110.16 173.81 110.054C147.655 109.842 121.501 109.28 95.3527 108.883C88.8191 108.783 82.2854 108.684 75.7451 108.585C69.6952 108.486 63.5857 108.413 57.8207 106.335C50.24 103.608 44.972 96.5732 41.639 89.5515C33.5415 72.4639 37.5902 51.7828 52.7183 40.0624C61.2134 33.4775 71.9548 30.9494 82.471 29.9369C95.2202 28.7125 108.095 28.375 120.884 27.8324C173.591 25.6021 226.384 25.3175 279.117 26.9919C285.71 27.2037 292.303 27.4419 298.89 27.7066C300.129 27.7596 301.143 27.4485 301.931 26.9058C319.856 30.367 335.693 41.7698 340.219 60.2008C344.075 75.9185 340.358 98.3998 321.194 101.073L321.188 101.08Z" fill="#455B92" stroke="black" stroke-miterlimit="10"/>
<path d="M300.904 21.724C316.224 24.1263 331.889 32.2134 340.55 48.3017C349.211 64.39 348.071 89.4191 335.328 100.398C324.746 109.518 310.678 106.712 297.876 105.64C269.303 103.237 240.915 111.391 212.369 114.217C194.948 115.937 177.441 115.673 159.967 115.401C131.652 114.965 103.331 114.534 75.0161 114.098C68.1114 113.992 61.094 113.859 54.5206 111.219C37.7558 104.488 26.9547 78.9098 33.3028 58.2551C37.4576 44.728 47.5562 35.1915 58.4169 30.3604C69.2776 25.5293 80.9733 24.7484 92.4834 24.113C160.994 20.3209 229.624 19.8312 298.161 22.6372" fill="white"/>
<path d="M300.904 21.724C316.224 24.1263 331.889 32.2134 340.55 48.3017C349.211 64.39 348.071 89.4191 335.328 100.398C324.746 109.518 310.678 106.712 297.876 105.64C269.303 103.237 240.915 111.391 212.369 114.217C194.948 115.937 177.441 115.673 159.967 115.401C131.652 114.965 103.331 114.534 75.0161 114.098C68.1114 113.992 61.094 113.859 54.5206 111.219C37.7558 104.488 26.9547 78.9098 33.3028 58.2551C37.4576 44.728 47.5562 35.1915 58.4169 30.3604C69.2776 25.5293 80.9733 24.7484 92.4834 24.113C160.994 20.3209 229.624 19.8312 298.161 22.6372" stroke="black" stroke-miterlimit="10"/>
</g>
<defs>
<clipPath id="clip0_919_96">
<rect width="375" height="134" fill="white"/>
</clipPath>
</defs>
</svg>
