<svg width="127" height="130" viewBox="0 0 127 130" fill="none" xmlns="http://www.w3.org/2000/svg">
<g clip-path="url(#clip0_759_2986)">
<path d="M5.51303 10.085C11.0202 9.4015 16.591 9.19875 22.1329 9.4768C23.0942 9.52314 24.235 9.70272 24.6461 10.5774C24.9473 11.2146 24.7156 11.9619 24.4724 12.6222C22.0171 19.4461 19.1969 26.1424 16.0293 32.6708C15.8613 33.0184 15.676 33.3833 15.3517 33.5861C14.8364 33.9105 14.1588 33.7309 13.5797 33.5397C11.9178 32.9952 10.2558 32.4449 8.59378 31.9004C8.2 31.7729 7.77147 31.6107 7.58038 31.2458C7.34874 30.8056 7.56879 30.2726 7.78306 29.8208C8.99914 27.2952 10.2152 24.7696 11.4313 22.2439C11.6456 21.7979 11.8714 21.2997 11.744 20.8189C11.6224 20.3555 11.2055 20.0311 10.7712 19.8284C9.21341 19.1043 7.40665 19.5735 5.69834 19.7647C3.99002 19.9558 1.92847 19.6662 1.15828 18.1311C0.0869645 15.9878 2.43227 13.3347 1.52311 11.1161" fill="#F25844"/>
<path d="M5.51296 10.9539C8.4084 10.6006 11.3154 10.3688 14.234 10.2762C15.6933 10.2298 17.1526 10.2182 18.6062 10.2356C19.9496 10.253 21.3626 10.1951 22.6945 10.392C23.0883 10.4499 23.65 10.5426 23.8469 10.9365C24.1191 11.4637 23.6732 12.292 23.4937 12.7844C23.0014 14.1399 22.4976 15.4896 21.9765 16.8335C20.9283 19.5387 19.828 22.2265 18.6641 24.8796C18.085 26.2003 17.4943 27.5153 16.8863 28.8244C16.3188 30.0583 15.815 31.4253 15.0969 32.5723C14.761 33.1052 14.1761 32.8156 13.6723 32.6534C12.9716 32.4275 12.2709 32.1958 11.5702 31.9641C10.9159 31.7497 10.2557 31.5354 9.60133 31.3153C9.27704 31.211 8.92958 31.1241 8.61688 30.9909C8.30417 30.8577 8.32154 30.7708 8.43157 30.4464C8.90063 29.1256 9.67661 27.8512 10.2789 26.5884C10.8811 25.3256 11.5529 23.9875 12.1609 22.6726C12.6879 21.543 12.8732 20.3439 11.8019 19.4634C10.8695 18.6988 9.56079 18.5134 8.39103 18.5655C6.64797 18.6408 2.69859 19.9152 1.82995 17.5402C1.46513 16.5381 1.97472 15.3506 2.22952 14.3832C2.53644 13.2362 2.76229 12.0256 2.33376 10.8786C1.95156 9.84171 0.266412 10.2877 0.660192 11.342C1.05397 12.3963 0.677565 13.4679 0.393811 14.5106C0.0926852 15.6055 -0.196859 16.7872 0.127431 17.911C0.810755 20.286 3.52089 20.8536 5.6751 20.6219C7.03017 20.4771 8.47789 20.0716 9.83296 20.4134C10.4815 20.5756 11.0317 20.8073 10.7769 21.543C10.5047 22.325 10.0472 23.0723 9.68819 23.8195C8.99907 25.2503 8.30996 26.6811 7.62084 28.1119C7.08808 29.2183 6.02835 30.765 6.99543 31.9293C7.37762 32.3927 7.92776 32.5897 8.47789 32.775C9.26546 33.0357 10.053 33.2906 10.8406 33.5513C11.5818 33.7946 12.3288 34.0436 13.0701 34.2869C13.736 34.5071 14.4483 34.733 15.1548 34.5766C16.5099 34.2811 16.9673 32.6939 17.4885 31.5933C18.1661 30.1625 18.832 28.7317 19.4748 27.2836C20.7604 24.4104 21.9765 21.514 23.1288 18.5887C23.7253 17.0768 24.3044 15.5533 24.8661 14.024C25.3178 12.7844 26.0417 11.3246 25.3352 10.0445C24.6287 8.76426 23.0999 8.64841 21.8375 8.58469C20.0539 8.4978 18.2645 8.46304 16.4751 8.48042C12.8037 8.50938 9.13805 8.75847 5.49559 9.20451C4.40111 9.33774 4.38373 11.0756 5.49559 10.9423L5.51296 10.9539Z" fill="black"/>
<path d="M32.2089 4.90642C32.1163 15.1074 32.0294 25.3083 31.9368 35.5151C31.9368 35.938 31.9368 36.3956 32.2031 36.7258C32.5506 37.166 33.1992 37.2008 33.7667 37.195C35.585 37.1834 37.3976 37.1718 39.2159 37.1544C39.7081 37.1544 40.2409 37.1313 40.6231 36.83C41.1617 36.4072 41.1964 35.6194 41.1906 34.9358C41.1501 32.0511 41.1153 29.1663 41.0748 26.2815C41.069 25.6907 41.0632 25.0708 41.318 24.5379C42.1693 22.7595 44.8215 23.2461 46.6167 22.4467C48.0181 21.8211 48.9099 20.2223 48.7072 18.6989C48.5045 17.1754 47.2247 15.8662 45.7075 15.6287C44.0281 15.3681 41.8913 16.1501 40.8779 14.7888C40.461 14.2269 40.4262 13.4738 40.3915 12.7729C40.2467 9.77808 39.8413 6.78905 39.1754 3.86373C39.0538 3.34238 38.909 2.79208 38.5152 2.43293C37.1486 1.20487 34.8438 3.49299 33.2397 2.58933" fill="#F25844"/>
<path d="M31.3403 4.90643C31.2766 12.4138 31.2071 19.9211 31.1434 27.4285L31.0913 33.2038C31.0797 34.5361 30.6396 36.691 31.8962 37.6063C32.4116 37.9828 33.0486 38.0523 33.674 38.0639C34.6584 38.0813 35.6487 38.0523 36.6389 38.0465C37.5018 38.0407 38.3588 38.0465 39.2217 38.0291C39.9339 38.0176 40.6868 37.948 41.2427 37.4499C42.4356 36.384 42.0534 34.3392 42.036 32.9258C42.0129 31.1011 41.9897 29.2706 41.9665 27.4459C41.955 26.6754 41.7697 25.6385 42.1171 24.9202C42.3545 24.4279 42.8468 24.2309 43.3448 24.0919C44.4508 23.7849 45.6206 23.7733 46.7035 23.3562C49.2747 22.3714 50.4676 19.1333 48.9098 16.7931C48.1396 15.6345 46.9235 14.8815 45.5395 14.7425C44.4393 14.6324 43.0379 15.0611 42.0071 14.5976C41.2253 14.2501 41.3064 13.2074 41.2659 12.4949C41.2079 11.4638 41.1269 10.4385 41.0111 9.41316C40.7852 7.41467 40.4899 5.39302 39.9861 3.44087C39.6212 2.03324 38.6426 1.04848 37.1254 1.22226C36.5057 1.29757 35.9266 1.50611 35.336 1.68568C34.8438 1.83629 34.201 2.09117 33.6972 1.83629C32.7011 1.33812 31.8209 2.83843 32.8227 3.3366C33.8246 3.83478 34.8495 3.6552 35.8803 3.3366C36.6331 3.0991 37.8145 2.47928 38.2025 3.51039C38.7526 4.97015 38.909 6.70796 39.129 8.24882C39.3664 9.91133 39.4417 11.5796 39.5749 13.2479C39.6849 14.5687 40.183 15.762 41.4975 16.2543C42.6035 16.6656 43.8196 16.4281 44.9604 16.4455C46.1012 16.4629 47.2131 17.0479 47.6937 18.1659C48.1744 19.2839 47.7574 20.5641 46.8598 21.2998C45.2037 22.6611 42.5746 21.7574 41.04 23.4489C40.015 24.5785 40.2177 26.1773 40.2409 27.5849C40.264 29.3169 40.2872 31.0431 40.3104 32.7752C40.3219 33.563 40.3509 34.3566 40.3393 35.1444C40.3277 35.8627 40.2177 36.2392 39.4475 36.2797C37.7624 36.3724 36.0483 36.3029 34.3573 36.3203C33.9114 36.3203 32.9559 36.5172 32.8343 35.938C32.678 35.1965 32.8343 34.2465 32.8401 33.4877L32.8864 28.2916C32.9559 20.4946 33.0254 12.6976 33.0949 4.90643C33.1065 3.78844 31.3692 3.78844 31.3576 4.90643H31.3403Z" fill="black"/>
<path d="M22.4454 45.6988C21.3972 45.4033 20.4244 46.3128 19.7352 47.1585C18.3628 48.8384 17.0483 50.6747 16.6603 52.8122C15.8843 57.0641 19.7005 61.5129 24.0263 61.4376C28.3521 61.3623 32.0061 56.8671 31.2591 52.6095C30.5121 48.3518 25.6072 45.3744 21.4667 46.614" fill="#F25844"/>
<path d="M22.6772 44.8646C20.5693 44.4243 19.191 46.3822 18.085 47.871C16.8747 49.4987 15.8787 51.3524 15.7049 53.4088C15.4154 56.8323 17.7259 60.25 20.8067 61.6229C24.1191 63.0942 27.8832 61.9878 30.1474 59.2189C32.4116 56.45 32.9502 52.6963 31.0045 49.6609C29.0587 46.6255 24.9009 44.7429 21.2294 45.7856C20.1581 46.0926 20.6098 47.7667 21.6927 47.4597C24.2407 46.7356 26.9914 47.6914 28.775 49.5972C30.6744 51.6246 30.9697 54.5152 29.6204 56.9308C28.2712 59.3463 25.7695 60.9451 23.0651 60.5107C20.3608 60.0762 18.1081 57.7649 17.5406 55.1177C17.1816 53.4493 17.6796 51.81 18.5135 50.356C18.9999 49.5103 19.579 48.7167 20.1929 47.9579C20.6388 47.4018 21.38 46.3591 22.2139 46.5329C23.3026 46.7588 23.7716 45.0847 22.6772 44.8588V44.8646Z" fill="black"/>
<path d="M55.442 5.45671C55.1756 12.3616 54.915 19.2607 54.6486 26.1656C54.6255 26.7449 54.6197 27.3821 54.9903 27.834C55.4072 28.3437 56.1427 28.419 56.8028 28.448C61.395 28.6855 65.9988 28.7608 70.5967 28.6855C71.3206 28.6739 72.1139 28.6333 72.6641 28.1641C73.3648 27.5675 73.4169 26.5248 73.4169 25.6038C73.4169 23.5763 73.4169 21.5431 73.4169 19.5156C73.4169 19.058 73.3995 18.5482 73.0752 18.2238C72.7451 17.8937 72.2298 17.8763 71.7665 17.8821C69.1548 17.8995 66.5431 17.9226 63.9314 17.94C63.4334 17.94 62.8833 17.9284 62.5184 17.5924C62.1131 17.2217 62.0841 16.6019 62.0899 16.0458C62.1015 12.2631 62.1131 8.4863 62.1247 4.70366C62.1247 4.19969 62.1189 3.66676 61.8351 3.24969C61.2618 2.41554 60.0052 2.57194 59.0207 2.82682C57.9668 3.09908 56.9186 3.37134 55.8647 3.64359" fill="#8D82F7"/>
<path d="M54.5734 5.45677C54.3302 11.7361 54.0928 18.0154 53.8496 24.2947C53.8032 25.5343 53.4674 27.1852 54.2376 28.2685C54.9556 29.2764 56.2586 29.288 57.3704 29.3459C60.5265 29.4965 63.6883 29.5776 66.8501 29.5834C68.3036 29.5834 69.7977 29.6587 71.2512 29.5255C72.4731 29.4154 73.5212 28.8941 73.9903 27.7008C74.4594 26.5075 74.2856 25.1578 74.2856 23.9413C74.2856 22.4642 74.303 20.987 74.2856 19.5099C74.2683 18.2934 73.805 17.2449 72.4847 17.048C71.0775 16.8452 69.5429 17.019 68.1241 17.0306C66.7054 17.0422 65.1766 17.1233 63.7115 17.0596C63.4625 17.048 63.1903 17.0596 63.0339 16.8452C62.9007 16.6541 62.9529 16.2602 62.9471 16.0401C62.9413 15.2349 62.9471 14.4355 62.9529 13.6303C62.9529 11.9272 62.9644 10.23 62.9702 8.52691C62.9702 7.62904 62.9702 6.73117 62.976 5.8333C62.976 5.10342 63.0513 4.3214 62.8892 3.60311C62.1711 0.359188 57.6021 2.28816 55.6158 2.79792C54.5329 3.07597 54.9904 4.75586 56.0791 4.47201C57.2836 4.15921 58.4939 3.77109 59.7157 3.55097C60.0632 3.48725 60.6191 3.38878 60.9376 3.59152C61.3604 3.85799 61.2445 4.54732 61.2445 4.97598C61.2445 7.71593 61.2272 10.4559 61.2214 13.2016C61.2214 14.4355 61.0592 15.7852 61.2909 17.0016C61.5051 18.1312 62.3911 18.7163 63.4914 18.7858C64.7886 18.8727 66.1205 18.78 67.4234 18.7684C68.7264 18.7568 70.1278 18.7452 71.4828 18.7395C71.894 18.7395 72.4557 18.5946 72.5368 19.1044C72.6294 19.7184 72.5484 20.4078 72.5484 21.0276C72.5484 22.3657 72.5484 23.7038 72.5484 25.0419C72.5484 25.8645 72.7453 27.3127 71.7666 27.6718C71.3091 27.8398 70.7821 27.805 70.3015 27.8166C69.5371 27.8282 68.7669 27.834 68.0025 27.8398C65.2229 27.8514 62.4433 27.805 59.6694 27.7008C59.0498 27.6776 58.4244 27.6544 57.8048 27.6255C57.2372 27.5965 56.5829 27.6486 56.0385 27.4749C55.4942 27.3011 55.5058 26.884 55.5116 26.38C55.5174 25.6849 55.5637 24.984 55.5926 24.2889C55.8359 18.0096 56.0733 11.7303 56.3165 5.45098C56.357 4.33299 54.6198 4.33299 54.5792 5.45098L54.5734 5.45677Z" fill="black"/>
<path d="M78.4143 1.54077C77.1345 10.6469 76.4686 19.8399 76.4338 29.033C76.4338 29.3689 76.4338 29.7223 76.6018 30.0119C76.8624 30.4696 77.4357 30.6376 77.951 30.7592C79.6594 31.1647 81.443 31.5702 83.1513 31.1705C84.8596 30.7708 86.4521 29.2821 86.3478 27.5269C86.2668 26.1598 85.3286 24.4625 86.4231 23.64C87.3555 22.939 88.6121 23.8253 89.7645 23.9991C92.3182 24.3814 93.8934 21.0506 93.4996 18.496C93.3143 17.3027 92.7989 16.0341 91.716 15.5012C90.0019 14.6555 87.3902 15.843 86.3189 14.2616C85.873 13.6012 85.9541 12.7265 86.0525 11.9329C86.4 9.20453 86.7416 6.47616 87.0891 3.74779C87.1701 3.08742 87.2338 2.35175 86.8285 1.82461C86.4463 1.33223 85.7745 1.19321 85.1607 1.10632C83.325 0.851437 81.4661 0.805095 79.6188 0.961499" fill="#8D82F7"/>
<path d="M77.5804 1.31491C76.596 8.34147 75.959 15.4086 75.6984 22.4989C75.6347 24.254 75.5942 26.0034 75.5768 27.7586C75.5594 29.1894 75.4031 30.6955 76.955 31.3559C77.6268 31.6398 78.3738 31.7672 79.0861 31.9062C79.9721 32.0858 80.887 32.2248 81.7962 32.2074C83.2323 32.1785 84.5758 31.7556 85.6819 30.823C86.6316 30.0178 87.286 28.7955 87.2281 27.5327C87.1991 26.8955 87.0254 26.2815 86.8922 25.6617C86.7995 25.233 86.5563 24.3641 87.1875 24.2483C87.784 24.1382 88.5484 24.6016 89.1101 24.7464C89.7066 24.897 90.3146 24.9492 90.9168 24.8159C91.9766 24.5784 92.8221 23.8312 93.4069 22.9391C94.6867 20.9812 94.8431 18.0501 93.5459 16.0574C92.8336 14.9625 91.7681 14.4412 90.4941 14.3195C89.5676 14.2327 88.0156 14.615 87.2338 13.9836C86.7127 13.5607 86.8401 12.7323 86.9038 12.1531C87.0138 11.1393 87.1586 10.1256 87.286 9.1119C87.5292 7.18293 87.8824 5.23658 88.0156 3.30181C88.1314 1.60455 87.147 0.544482 85.5082 0.289603C83.5624 -0.0116179 81.5877 -0.0579596 79.6304 0.0984436C78.5243 0.185334 78.5128 1.92894 79.6304 1.83626C81.1997 1.70882 82.7749 1.71461 84.3442 1.87681C84.8132 1.92315 85.7108 1.91735 86.0872 2.28809C86.5331 2.72833 86.2262 3.77102 86.1567 4.30974C85.9598 5.86219 85.763 7.41464 85.5661 8.96708C85.3865 10.3805 84.987 11.933 85.1375 13.358C85.2534 14.4817 85.9077 15.4086 86.9906 15.7851C87.9867 16.1385 89.0811 15.9821 90.1119 16.0284C91.2817 16.0805 92.0461 16.5961 92.4283 17.7315C92.7641 18.7278 92.7699 19.7821 92.4804 20.7958C92.2372 21.6184 91.7739 22.5278 90.9805 22.9507C89.9961 23.4778 89.0116 22.8117 88.033 22.6089C86.8632 22.3598 85.5834 22.7421 85.1665 23.976C84.7843 25.1056 85.3344 26.2236 85.4676 27.3416C85.6008 28.4596 84.8422 29.4501 83.8635 29.9888C82.6011 30.6782 81.0434 30.5333 79.6825 30.2669C79.0397 30.1394 78.3043 30.0468 77.6962 29.7977C77.0882 29.5486 77.3083 28.6333 77.3083 28.0483C77.3198 26.4842 77.3546 24.9202 77.4067 23.3562C77.6383 16.1385 78.2522 8.93233 79.254 1.77833C79.3177 1.30912 79.1382 0.851496 78.646 0.706678C78.2406 0.590824 77.6441 0.851496 77.5746 1.31491H77.5804Z" fill="black"/>
<path d="M79.0688 42.2751C73.0463 42.501 67.0295 42.7269 61.007 42.9528C60.5495 42.9702 60.0573 43.005 59.7214 43.312C59.4029 43.6074 59.3219 44.065 59.2582 44.4937C58.6617 48.6123 58.4938 52.7889 58.7543 56.9422C58.7833 57.3941 58.8296 57.8865 59.1308 58.2282C59.4956 58.6511 60.1152 58.7206 60.6711 58.7554C66.074 59.1261 71.4769 59.4968 76.8798 59.8676C77.511 59.9081 78.2002 59.9371 78.7155 59.5721C79.422 59.074 79.5089 58.0834 79.5321 57.2203C79.6595 52.2212 79.7869 47.2279 79.9143 42.2288" fill="#8D82F7"/>
<path d="M79.0688 41.4062C73.8106 41.6032 68.5583 41.8001 63.3002 41.9971C62.1999 42.0376 60.8622 41.8812 59.8083 42.2693C58.6848 42.6864 58.4821 43.7696 58.3374 44.8239C57.9899 47.3843 57.793 49.962 57.7641 52.5456C57.7525 53.82 57.7757 55.1002 57.8451 56.3746C57.9031 57.4462 57.9552 58.6337 58.9975 59.2304C59.953 59.7807 61.3023 59.6648 62.3678 59.7401C63.6476 59.827 64.9274 59.9139 66.2072 60.0066C68.8131 60.1862 71.419 60.3657 74.0249 60.5453C75.2352 60.6264 76.5092 60.8407 77.7253 60.7539C78.6981 60.6843 79.5436 60.2441 79.9895 59.3462C80.5165 58.2746 80.4007 56.9423 80.4296 55.7837C80.4701 54.295 80.5049 52.8063 80.5454 51.3175C80.6207 48.2937 80.7018 45.2641 80.7771 42.2404C80.806 41.1224 79.0688 41.1224 79.0398 42.2404C78.924 46.8977 78.8024 51.5608 78.6866 56.2182C78.6692 56.9191 78.8371 58.124 78.3623 58.7264C77.8411 59.381 76.1617 58.9581 75.461 58.906C73.1852 58.7496 70.9094 58.5932 68.6394 58.4368C66.3693 58.2804 64.0877 58.124 61.8177 57.9676C61.3718 57.9386 60.9143 57.9328 60.4684 57.8749C59.953 57.8054 59.733 57.7127 59.6461 57.174C59.455 56.0038 59.5187 54.7236 59.5129 53.5419C59.5013 51.2712 59.6114 49.0062 59.8546 46.7471C59.9067 46.2779 59.9588 45.8087 60.0225 45.3394C60.0631 45.0151 60.0515 44.1925 60.3236 43.9492C60.5784 43.7175 61.2907 43.816 61.5919 43.8044L63.6013 43.7291C68.761 43.5379 73.9207 43.341 79.0803 43.1498C80.1922 43.1093 80.198 41.3714 79.0803 41.412L79.0688 41.4062Z" fill="black"/>
<path d="M111.33 8.30663C109.32 7.71577 107.091 8.62523 105.632 10.1313C104.172 11.6374 103.361 13.6475 102.753 15.6576C102.215 17.4359 101.838 19.4808 102.817 21.0622C103.344 21.9079 104.201 22.5046 105.11 22.9043C108.921 24.5726 113.907 22.6552 115.609 18.8609C117.312 15.0667 115.441 10.0618 111.666 8.31821" fill="#5CC848"/>
<path d="M111.561 7.46669C107.693 6.43559 104.404 9.40145 102.921 12.7033C101.532 15.8024 100.09 20.3381 103.298 22.8232C105.886 24.8274 109.558 24.7463 112.384 23.3271C115.21 21.9079 117.011 19.2027 117.121 16.0862C117.242 12.6106 115.279 9.07127 112.117 7.55937C111.115 7.07858 110.229 8.57889 111.243 9.05968C115.783 11.232 116.924 17.8472 112.812 21.0216C110.884 22.5104 108.214 23.0665 105.892 22.2671C104.52 21.7979 103.35 20.8421 103.13 19.3417C102.91 17.8414 103.437 16.3295 103.9 14.9567C104.925 11.9676 107.38 8.14444 111.11 9.14078C112.193 9.43042 112.65 7.75632 111.573 7.46669H111.561Z" fill="black"/>
<path d="M92.6716 30.1569C102.111 31.0374 111.654 30.7709 121.03 29.3691C121.476 29.2996 121.956 29.2416 122.356 29.4502C122.964 29.7804 123.091 30.5798 123.149 31.2691C123.276 32.7984 123.381 34.4435 122.587 35.7584C121.296 37.9133 118.337 38.174 115.824 38.1914C108.324 38.2493 100.825 38.3014 93.326 38.3594C92.4805 38.3652 91.5887 38.3594 90.8707 37.9133C89.0813 36.8011 89.6777 34.0901 90.4885 32.1438" fill="#5CC848"/>
<path d="M92.6716 31.0256C97.7676 31.4948 102.892 31.6397 108.012 31.4485C110.618 31.35 113.218 31.1647 115.812 30.8982C117.069 30.765 118.319 30.6144 119.57 30.4464C120.167 30.3653 120.769 30.2494 121.371 30.1915C121.933 30.1393 122.107 30.2726 122.217 30.8287C122.582 32.6418 122.599 35.15 120.896 36.2912C119.408 37.2933 117.404 37.3049 115.679 37.3223C110.438 37.3687 105.203 37.4034 99.9623 37.4382C98.5204 37.4497 97.0784 37.4613 95.6365 37.4729C94.9126 37.4729 94.1946 37.4845 93.4707 37.4903C92.8974 37.4903 92.2778 37.5309 91.7219 37.3513C89.7008 36.6909 90.778 33.7135 91.3281 32.3753C91.7508 31.3384 90.0715 30.8924 89.6545 31.9119C88.9538 33.6208 88.3226 35.9263 89.3881 37.6235C90.7664 39.8248 94.0266 39.2223 96.2156 39.2049C102.128 39.1586 108.041 39.118 113.953 39.0717C116.159 39.0543 118.545 39.1934 120.642 38.3592C122.871 37.4729 124.023 35.6019 124.105 33.2269C124.139 32.1436 124.139 30.8171 123.722 29.7976C123.247 28.6448 122.188 28.3378 121.03 28.4942C118.163 28.8765 115.302 29.2473 112.419 29.4616C105.846 29.954 99.2442 29.8903 92.6774 29.282C91.5655 29.1778 91.5713 30.9156 92.6774 31.0198L92.6716 31.0256Z" fill="black"/>
<path d="M95.7349 45.021C94.5131 50.7558 94.0556 56.6585 94.3799 62.515C94.403 62.9552 94.4436 63.4302 94.7215 63.772C95.1269 64.2875 95.8797 64.3281 96.5399 64.3281C102.898 64.3281 109.251 64.3281 115.609 64.3281C116.073 64.3281 116.576 64.3165 116.953 64.0442C117.509 63.6387 117.567 62.8451 117.572 62.1616C117.584 60.9046 117.596 59.6534 117.613 58.3963C117.613 57.9445 117.613 57.4579 117.358 57.0814C116.935 56.4616 116.061 56.421 115.314 56.421C110.843 56.4384 106.379 55.8302 102.076 54.6195C101.508 54.4631 100.895 54.2488 100.617 53.7274C100.379 53.2814 100.472 52.7369 100.57 52.2387C100.831 50.9064 101.091 49.5682 101.352 48.2359C101.624 46.8399 101.873 45.2816 101.109 44.0826C100.344 42.8835 98.1266 42.7039 97.7096 44.0652" fill="#5CC848"/>
<path d="M94.8952 44.7893C94.2524 47.8247 93.8123 50.9064 93.5865 53.9997C93.4765 55.529 93.4128 57.0698 93.407 58.6049C93.4012 60.14 93.3259 61.704 93.5749 63.1927C93.7892 64.4903 94.7852 65.0927 96.0245 65.1854C97.5243 65.3013 99.0647 65.2028 100.57 65.2028C103.796 65.2028 107.021 65.2028 110.247 65.2028C111.834 65.2028 113.426 65.2028 115.013 65.2028C116.327 65.2028 117.677 65.1217 118.204 63.7083C118.638 62.5497 118.435 61.09 118.447 59.8793C118.458 58.6686 118.725 57.1046 117.706 56.2067C116.767 55.3726 115.325 55.5695 114.173 55.5463C112.639 55.5174 111.104 55.4131 109.575 55.2335C108.046 55.054 106.5 54.7933 104.989 54.4573C104.259 54.2951 103.535 54.1213 102.817 53.9302C102.331 53.7969 101.416 53.71 101.306 53.1134C101.248 52.8006 101.393 52.3777 101.456 52.0707C101.537 51.671 101.613 51.2713 101.694 50.8716C101.856 50.0317 102.024 49.1917 102.186 48.3518C102.458 46.9384 102.678 45.4149 102.053 44.0594C101.103 42.0088 97.7443 41.4295 96.8468 43.8335C96.4588 44.882 98.1381 45.3338 98.5203 44.2969C98.723 43.7466 99.6785 44.0073 100.02 44.2332C100.871 44.8067 100.773 46.1737 100.651 47.06C100.489 48.2707 100.194 49.4756 99.9623 50.6747C99.7538 51.7289 99.2905 53.0323 99.7943 54.0634C100.258 55.0076 101.277 55.3146 102.221 55.5695C103.524 55.9229 104.838 56.2241 106.17 56.4674C108.764 56.9424 111.399 57.2204 114.034 57.2784C114.746 57.2957 116.576 56.9424 116.715 57.9387C116.796 58.5122 116.715 59.161 116.71 59.7403C116.704 60.4122 116.698 61.0842 116.686 61.7561C116.686 62.1616 116.75 62.683 116.582 63.0653C116.35 63.604 115.65 63.4592 115.152 63.4592C113.756 63.4592 112.361 63.4592 110.965 63.4592C108.22 63.4592 105.475 63.4592 102.73 63.4592C101.335 63.4592 99.9391 63.4592 98.5435 63.4592C97.8717 63.4592 97.1942 63.465 96.5225 63.4592C96.0881 63.4592 95.4975 63.5113 95.3064 63.0479C95.0747 62.4744 95.1848 61.5881 95.1674 60.9741C95.1442 60.2268 95.1327 59.4854 95.1327 58.7381C95.1327 57.2494 95.1906 55.7607 95.289 54.2719C95.4975 51.2366 95.926 48.2243 96.5572 45.2469C96.7889 44.1579 95.1153 43.6887 94.8837 44.7835L94.8952 44.7893Z" fill="black"/>
<path d="M4.37789 79.2096C11.6049 78.584 18.8667 78.3581 26.1169 78.5261C27.0724 78.5493 28.2595 78.7404 28.5491 79.6499C28.717 80.1712 28.5027 80.7331 28.2943 81.2429C26.6323 85.263 24.9703 89.2889 23.3141 93.3091C22.9145 94.2823 22.5092 95.3945 22.9493 96.356C23.2446 96.999 23.8642 97.4277 24.4491 97.8216C25.6942 98.6558 26.9334 99.4899 28.1785 100.318C29.4814 101.193 30.8365 102.12 31.6067 103.487C32.3768 104.854 32.3479 106.812 31.1202 107.791C28.0916 106.041 25.0572 104.298 22.0285 102.548C21.6579 102.334 21.2525 102.114 20.824 102.137C19.7295 102.207 19.4168 103.62 19.0636 104.657C17.8417 108.272 12.2014 109.256 9.82712 106.267C13.4754 99.9533 16.4287 93.2338 18.6119 86.2767C14.8594 86.6359 11.1011 87.0008 7.34862 87.36C6.43366 87.4469 5.47816 87.528 4.6269 87.1862C2.05575 86.1377 2.36266 82.4362 3.12706 79.7657" fill="#75C1E1"/>
<path d="M4.37779 80.0783C8.46616 79.725 12.5661 79.499 16.6661 79.4006C18.6697 79.3542 20.6734 79.331 22.677 79.3426C23.6788 79.3484 24.6807 79.36 25.6825 79.3832C26.1921 79.3948 27.2402 79.3079 27.6224 79.7597C28.0278 80.2405 27.2171 81.5786 27.026 82.0536C26.6264 83.0152 26.2326 83.9768 25.833 84.9384C25.0744 86.7747 24.3158 88.611 23.5572 90.4473C23.1982 91.322 22.8276 92.1967 22.4743 93.0714C22.1211 93.9461 21.8084 94.8323 21.9126 95.7765C22.1095 97.5781 23.8236 98.4412 25.1729 99.3449C26.8407 100.463 28.7748 101.488 30.153 102.971C31.1896 104.083 31.8324 106.018 30.5005 107.171L31.5544 107.038C29.4639 105.833 27.3792 104.628 25.2887 103.429C24.2869 102.849 23.2966 102.235 22.2716 101.691C21.4783 101.274 20.5865 101.083 19.7874 101.592C18.467 102.438 18.5828 104.234 17.7026 105.392C16.9267 106.412 15.6469 107.003 14.396 107.136C12.8904 107.298 11.4137 106.835 10.4409 105.653L10.574 106.707C14.2513 100.318 17.2336 93.5406 19.4515 86.5082C19.6078 86.01 19.1677 85.3555 18.6118 85.4076C16.4518 85.6161 14.2918 85.8247 12.1318 86.0332L9.03367 86.3344C8.02026 86.4329 6.9837 86.6009 5.95871 86.5719C2.63474 86.4792 3.36439 82.1231 3.96085 80.003C4.26198 78.9256 2.58841 78.4621 2.28728 79.5396C1.5171 82.2911 1.01908 86.6357 4.29093 87.9854C5.31013 88.4082 6.4104 88.3271 7.4875 88.2229C8.70938 88.107 9.92547 87.9854 11.1473 87.8695C13.6374 87.632 16.1217 87.3887 18.6118 87.1512L17.7721 86.0506C15.5947 92.9439 12.6819 99.5708 9.07421 105.833C8.86573 106.192 8.95839 106.58 9.2074 106.887C11.1068 109.192 14.6045 109.413 17.1351 108.074C18.4033 107.403 19.3762 106.313 19.8684 104.97C20.0422 104.495 20.2159 103.267 20.7544 103.035C21.0845 102.896 21.5652 103.29 21.8315 103.44C22.3643 103.747 22.8971 104.054 23.4298 104.361C25.8446 105.752 28.2594 107.148 30.68 108.538C31.0333 108.741 31.4386 108.66 31.734 108.405C32.9616 107.345 33.2338 105.584 32.7879 104.078C32.2783 102.369 30.9001 101.164 29.4987 100.167C27.8251 98.9799 25.9662 97.9836 24.3622 96.7034C23.592 96.0836 23.5167 95.3826 23.8004 94.4674C24.1189 93.4305 24.5996 92.44 25.0107 91.4378C25.8388 89.4277 26.6727 87.4177 27.5008 85.4018C27.9004 84.4402 28.2942 83.4786 28.6937 82.517C29.0644 81.625 29.6261 80.6344 29.4292 79.6381C29.0933 77.9466 27.2518 77.6801 25.8215 77.6454C23.6267 77.5932 21.432 77.5874 19.2372 77.6106C14.2744 77.6685 9.31742 77.9118 4.372 78.3347C3.26594 78.4274 3.25436 80.171 4.372 80.0725L4.37779 80.0783Z" fill="black"/>
<path d="M35.6777 77.9063L36.8591 115.449C36.8707 115.849 36.917 116.306 37.2471 116.526C37.5077 116.7 37.8551 116.654 38.162 116.602C39.8124 116.324 41.4628 116.045 43.1132 115.773C43.646 115.686 44.2135 115.576 44.6015 115.2C45.1285 114.684 45.1343 113.856 45.1111 113.114C44.7347 103.174 44.0224 93.2454 42.9743 83.3572C42.7716 81.4282 42.5168 79.4008 41.376 77.831C40.2352 76.2611 37.8956 75.3864 36.2974 76.4813" fill="#75C1E1"/>
<path d="M34.8091 77.9062C35.0176 84.5968 35.2318 91.2873 35.4403 97.9779L35.753 107.941L35.9093 112.993C35.9325 113.809 35.9441 114.632 35.9846 115.449C36.0194 116.074 36.1178 116.717 36.6274 117.14C37.137 117.563 37.7682 117.534 38.3879 117.441C39.2159 117.314 40.0383 117.163 40.8664 117.024C41.6944 116.885 42.5168 116.758 43.3449 116.607C43.9587 116.497 44.5725 116.347 45.0647 115.935C46.0782 115.084 46.0029 113.734 45.9565 112.535C45.8928 110.861 45.8176 109.193 45.7307 107.519C45.3948 100.88 44.9084 94.2474 44.2714 87.6322C44.1035 85.8943 43.9471 84.1507 43.7328 82.4187C43.5475 80.9184 43.2754 79.4181 42.5515 78.0742C41.318 75.7861 38.2662 74.1989 35.8572 75.7281C34.9133 76.3248 35.7877 77.8309 36.7317 77.2284C38.6716 76.0004 40.7332 77.9352 41.3875 79.6846C41.8103 80.8199 41.9608 82.0364 42.094 83.2355C42.2504 84.701 42.3951 86.1666 42.5399 87.6322C43.1074 93.5349 43.5533 99.4493 43.8834 105.369C43.9645 106.8 44.034 108.237 44.1035 109.668C44.1672 111.029 44.3641 112.471 44.2482 113.827C44.2019 114.371 44.0282 114.655 43.4954 114.806C42.8584 114.991 42.1693 115.049 41.5149 115.159C40.8258 115.275 40.1367 115.391 39.4534 115.507C39.1349 115.559 38.8106 115.617 38.4921 115.669C38.3184 115.698 38.1157 115.715 37.942 115.762L37.6987 115.779C37.7856 115.854 37.8088 115.837 37.7682 115.738C37.6235 115.113 37.7045 114.36 37.6872 113.717L37.6119 111.405L37.4729 106.928L37.1949 98.1227C36.9807 91.3858 36.7722 84.6489 36.5579 77.9062C36.5232 76.7882 34.7859 76.7882 34.8207 77.9062H34.8091Z" fill="black"/>
<path d="M54.7354 75.0851C59.9067 75.0735 65.078 75.0677 70.2492 75.0562C70.8457 75.0562 71.4885 75.0677 71.9633 75.4327C72.4324 75.7918 72.6177 76.4116 72.7741 76.9851C73.5848 80.0147 74.0539 83.8784 71.5117 85.7205C70.6546 86.3403 69.5891 86.5952 68.5583 86.8385C66.8731 87.2324 65.188 87.6205 63.5086 88.0144C61.2154 88.5474 58.3779 89.7523 58.4879 92.1041C58.5748 93.9578 60.6595 95.1453 62.5126 95.0931C64.3657 95.041 66.074 94.1489 67.8402 93.5812C69.6065 93.0136 71.7085 92.805 73.1621 93.952C74.5345 95.0352 74.8762 96.9468 75.0557 98.6846C75.1078 99.1944 75.1483 99.7273 74.9341 100.191C74.5519 101.025 73.5211 101.297 72.6177 101.448C68.3498 102.183 63.9951 102.461 59.6693 102.276C57.1618 102.166 54.3127 101.708 52.9345 99.6057C52.3091 98.6499 52.089 97.4855 51.8921 96.3559C51.6142 94.7977 51.3362 93.2453 51.0582 91.687C50.925 90.934 50.7919 90.1635 50.925 89.4105C51.203 87.887 52.5639 86.7574 54.0232 86.2245C55.4825 85.6916 57.0518 85.6163 58.5864 85.3788C59.6867 85.2108 60.8448 84.9153 61.615 84.1102C62.3852 83.305 62.5705 81.851 61.7193 81.1269C61.0765 80.5824 60.1383 80.6403 59.2987 80.7214C57.434 80.9126 55.5751 81.1037 53.7105 81.2949C52.5349 81.4165 51.3072 81.5266 50.2128 81.0922C49.1183 80.6577 48.2091 79.4934 48.4871 78.3464C48.9446 76.4522 51.6373 76.4812 53.5251 76.9562" fill="#FD9DC3"/>
<path d="M54.7354 75.9541C57.4629 75.9541 60.1962 75.9425 62.9237 75.9367H66.9484C68.2224 75.9251 69.5543 75.8093 70.8167 75.9367C71.8764 76.041 71.9575 77.2227 72.1544 78.08C72.3745 79.0358 72.5308 80.009 72.5482 80.9937C72.5829 82.8474 72.0444 84.6663 70.2145 85.4483C69.0968 85.9291 67.8228 86.1087 66.6415 86.381C65.3733 86.6764 64.0877 86.9429 62.8253 87.273C61.1749 87.7133 59.3623 88.4316 58.3142 89.8566C57.266 91.2816 57.4629 93.3959 58.8412 94.6182C60.4105 96.0084 62.5126 96.1533 64.4699 95.6435C66.6009 95.0874 68.6625 93.7667 70.9383 93.9868C73.2141 94.2069 73.909 96.3676 74.1407 98.3545C74.1986 98.8353 74.3665 99.5536 74.0307 99.9649C73.7585 100.301 73.2663 100.405 72.8667 100.498C71.5927 100.793 70.2666 100.932 68.9694 101.077C66.3461 101.367 63.7055 101.488 61.0706 101.436C59.096 101.396 56.8838 101.39 55.106 100.411C52.9692 99.2408 52.836 96.7615 52.448 94.6008C52.2222 93.338 51.9442 92.0694 51.7763 90.8008C51.6257 89.6423 51.8979 88.6865 52.7897 87.9044C54.5327 86.3752 57.1039 86.5374 59.2465 86.1261C61.1459 85.7611 63.1843 84.591 63.138 82.3898C63.1206 81.4108 62.6052 80.5245 61.7076 80.1017C60.729 79.6382 59.6287 79.812 58.5864 79.9163C57.2834 80.0495 55.9805 80.1828 54.6717 80.316C53.4904 80.4376 52.2048 80.6867 51.0292 80.4261C50.1838 80.2407 48.9735 79.4413 49.3557 78.4102C49.5757 77.8078 50.3054 77.6282 50.8787 77.5645C51.6836 77.4776 52.5001 77.5934 53.2819 77.7846C54.3706 78.0453 54.8339 76.3712 53.7452 76.1105C52.0774 75.7108 49.8884 75.4965 48.487 76.7071C46.7729 78.1843 47.6821 80.7562 49.4773 81.7004C50.6181 82.3029 51.9384 82.3145 53.195 82.2044C54.5733 82.0828 55.9573 81.9264 57.3355 81.7815C58.0246 81.712 58.708 81.6367 59.3971 81.573C59.8951 81.5267 60.5668 81.4166 61.0185 81.6947C61.9451 82.2566 61.1228 83.502 60.4742 83.8901C59.4724 84.4925 58.1694 84.5563 57.0344 84.7011C55.7488 84.8691 54.469 85.0544 53.2761 85.5816C51.0872 86.549 49.7495 88.5011 50.0506 90.9225C50.2243 92.3127 50.5254 93.6914 50.7687 95.07C51.0003 96.3676 51.1509 97.7289 51.6373 98.9627C52.4596 101.054 54.3011 102.241 56.4264 102.734C58.8412 103.296 61.4297 103.232 63.8908 103.162C66.792 103.087 69.6933 102.803 72.554 102.317C73.55 102.149 74.6387 101.911 75.3278 101.112C76.1617 100.15 75.9474 98.8527 75.7853 97.6999C75.4726 95.4929 74.5808 93.3264 72.3281 92.527C70.0755 91.7276 67.6086 92.724 65.437 93.506C63.665 94.149 60.7232 94.9078 59.5534 92.7877C58.5342 90.9456 60.9838 89.6944 62.362 89.2252C64.8289 88.3794 67.4696 88.113 69.9655 87.3599C72.1139 86.7169 73.6716 85.2224 74.1001 82.9806C74.4939 80.9474 74.1407 78.8215 73.6195 76.8404C73.3415 75.7803 72.9014 74.7724 71.7954 74.3785C70.6256 73.9614 69.1547 74.1873 67.9329 74.1873C64.9621 74.1873 61.9972 74.1989 59.0265 74.2047H54.718C53.6004 74.2163 53.6004 75.9541 54.718 75.9483L54.7354 75.9541Z" fill="black"/>
<path d="M79.642 107.802C71.9981 107.478 64.3541 107.148 56.7101 106.823C55.245 106.76 53.6989 106.719 52.4133 107.426C50.9134 108.248 50.068 110.108 50.4212 111.782C50.7745 113.456 52.3033 114.811 54.0058 114.956C56.0268 115.136 58.4532 113.908 59.8662 115.362C60.3758 115.889 60.5726 116.636 60.7058 117.36C61.0012 118.965 61.0938 120.604 60.9664 122.232C60.8159 124.213 60.4163 126.443 61.6671 127.99C63.5086 130.272 67.5565 128.905 68.8652 126.281C70.1739 123.657 69.6643 120.535 69.2764 117.627C69.2011 117.076 69.149 116.468 69.4617 116.011C69.7686 115.559 70.3535 115.385 70.8978 115.304C73.0636 114.997 75.3047 115.721 77.4415 115.246C79.5783 114.771 81.4372 112.031 79.9142 110.455" fill="#FD9DC3"/>
<path d="M79.642 106.933C71.8359 106.597 64.024 106.18 56.2179 105.931C54.6543 105.879 52.9634 105.966 51.6257 106.887C50.4444 107.704 49.68 109.019 49.512 110.438C49.153 113.404 51.7126 115.912 54.6196 115.837C55.8994 115.802 57.5787 115.118 58.8064 115.657C59.4492 115.941 59.6577 116.625 59.7966 117.256C59.9993 118.171 60.0978 119.115 60.1325 120.048C60.2425 122.887 58.9454 126.762 61.4007 128.963C63.3117 130.678 66.2129 130.052 68.0544 128.575C70.5098 126.611 70.753 123.222 70.475 120.315C70.3824 119.341 70.2087 118.374 70.1102 117.401C70.0813 117.111 69.9944 116.7 70.1913 116.451C70.4345 116.144 71.0483 116.132 71.4074 116.103C73.411 115.941 75.4031 116.491 77.4067 116.121C80.059 115.634 82.6822 112.251 80.5222 109.83C79.7752 108.996 78.5475 110.229 79.2946 111.058C79.9721 111.817 79.3698 112.888 78.7734 113.491C77.7774 114.499 76.4454 114.568 75.0962 114.51C72.7798 114.412 68.0313 113.56 68.3672 117.297C68.622 120.118 69.4964 123.333 68.0313 125.986C67.1453 127.584 64.5973 129.033 62.8484 127.897C61.7945 127.208 61.6324 125.858 61.6497 124.705C61.6787 123.194 61.9219 121.705 61.8756 120.187C61.8292 118.669 61.7366 116.99 61.088 115.64C60.5263 114.47 59.426 113.856 58.1578 113.775C56.8896 113.693 55.5982 114.128 54.3011 114.099C53.0039 114.07 51.8921 113.259 51.4172 112.112C50.9424 110.965 51.2609 109.668 52.06 108.793C53.085 107.675 54.6717 107.629 56.0847 107.669C63.9371 107.889 71.7838 108.335 79.6304 108.671C80.7481 108.718 80.7481 106.98 79.6304 106.933H79.642Z" fill="black"/>
<path d="M89.2549 83.0443L100.003 81.822C100.675 81.7467 101.364 81.6598 101.937 81.3006C103.338 80.4144 103.269 78.1436 102.105 76.9619C100.941 75.7802 99.111 75.5195 97.4606 75.7281C95.8102 75.9366 94.2409 76.539 92.6078 76.8345C91.1949 77.0893 89.6718 77.1299 88.4789 77.9235C87.286 78.7171 86.7243 80.675 87.8593 81.5613" fill="#F7D260"/>
<path d="M89.2549 83.9133C92.6484 83.5251 96.0418 83.1428 99.4353 82.7547C100.692 82.6099 102.082 82.5346 102.991 81.5382C103.738 80.7157 103.958 79.5745 103.784 78.4971C103.356 75.9019 100.727 74.7492 98.3292 74.7955C96.8178 74.8245 95.3585 75.2705 93.905 75.6471C92.5441 76.0004 91.1427 76.0873 89.7819 76.4349C88.421 76.7824 87.2513 77.4949 86.6838 78.7925C86.1857 79.9279 86.2494 81.3123 87.2339 82.1697C88.0736 82.8995 89.307 81.6773 88.4616 80.9416C87.8941 80.4492 88.0794 79.6556 88.4847 79.0995C89.0291 78.3465 90.0483 78.1205 90.9111 77.9641C91.9824 77.7672 93.0537 77.6513 94.1135 77.3849C95.289 77.0894 96.4646 76.6955 97.6749 76.5681C99.3484 76.3943 101.746 76.7882 102.082 78.7867C102.186 79.4181 102.064 80.1712 101.497 80.5535C101.103 80.82 100.576 80.8837 100.113 80.9416C99.4179 81.0285 98.7172 81.098 98.0223 81.1791C95.0979 81.5093 92.1793 81.8453 89.2549 82.1754C88.1547 82.3029 88.1431 84.0407 89.2549 83.9133Z" fill="black"/>
<path d="M80.7712 90.9513C88.311 89.4625 95.8565 87.9738 103.396 86.4851C103.761 86.4098 104.166 86.3461 104.491 86.5314C104.89 86.7631 105.012 87.2787 105.087 87.7363C105.429 89.7348 105.765 91.7333 106.106 93.7318C106.164 94.0793 106.216 94.4732 106.008 94.7571C105.794 95.0467 105.388 95.1162 105.029 95.1568C97.9586 95.9504 90.8937 96.744 83.823 97.5376C83.1802 97.6071 82.5143 97.6824 81.9004 97.4739C79.7868 96.7729 79.8852 93.7723 80.4122 91.6058" fill="#F7D260"/>
<path d="M81.0029 91.7855C85.1492 90.9687 89.3013 90.1461 93.4475 89.3294C95.5207 88.9181 97.5938 88.5126 99.6728 88.1013L102.782 87.4873C102.962 87.4525 103.883 87.1513 104.062 87.2845C104.294 87.4583 104.3 88.2345 104.346 88.5068C104.514 89.5089 104.688 90.5053 104.856 91.5074C104.931 91.9592 105.012 92.4169 105.087 92.8687C105.116 93.0367 105.412 94.1257 105.342 94.2068C105.157 94.4327 104.155 94.3748 103.883 94.4096C103.408 94.4617 102.927 94.5196 102.452 94.5717C101.404 94.6876 100.35 94.8092 99.3021 94.9251C95.0979 95.3943 90.8938 95.8693 86.6954 96.3385C85.5082 96.4718 84.2979 96.6745 83.0992 96.7266C82.3754 96.7556 81.7384 96.6108 81.3562 95.9562C80.6613 94.7803 80.9624 93.083 81.2577 91.8318C81.5125 90.7428 79.839 90.2793 79.5842 91.3684C79.2367 92.8571 79.0109 94.566 79.5147 96.0489C80.0995 97.7693 81.5646 98.5861 83.3482 98.4471C85.8036 98.2559 88.2589 97.9026 90.7085 97.6245C93.158 97.3465 95.5786 97.08 98.0166 96.8019C100.455 96.5239 102.91 96.3269 105.336 95.9736C107.913 95.5971 106.807 92.6254 106.512 90.8992C106.315 89.729 106.141 88.5531 105.915 87.3946C105.736 86.4677 105.203 85.6452 104.195 85.5525C103.095 85.4482 101.844 85.9001 100.767 86.1144L97.09 86.8385C91.5771 87.9275 86.0584 89.0165 80.5454 90.0998C79.451 90.3141 79.9142 91.994 81.0087 91.7739L81.0029 91.7855Z" fill="black"/>
<path d="M94.5536 102.05C92.7468 103.991 90.8822 106.041 90.1989 108.608C89.5155 111.174 90.4594 114.377 92.9264 115.333C94.9763 116.127 97.4433 115.055 98.6478 113.213C99.8523 111.371 99.9507 108.973 99.3658 106.847C98.6825 104.356 96.1693 101.824 93.8355 102.931" fill="#F7D260"/>
<path d="M93.9397 101.436C91.9477 103.579 89.7471 105.972 89.2317 108.967C88.8148 111.371 89.5329 114.134 91.6002 115.599C93.8123 117.169 96.8815 116.433 98.6709 114.562C100.686 112.454 100.987 109.123 100.148 106.429C99.3079 103.736 96.4704 100.839 93.3954 102.178C92.3704 102.624 93.2564 104.124 94.2698 103.678C96.1634 102.855 97.9412 105.277 98.4393 106.8C99.1052 108.839 99.0531 111.504 97.5648 113.19C96.3256 114.591 94.0787 115.321 92.4688 114.093C91.0559 113.016 90.6158 110.925 90.9285 109.256C91.4265 106.626 93.4012 104.553 95.1558 102.664C95.9144 101.847 94.6926 100.614 93.9282 101.436H93.9397Z" fill="black"/>
<path d="M112.031 75.0793C112.216 92.2953 107.334 109.112 104.699 126.131C104.595 126.808 104.531 127.608 105.029 128.077C105.377 128.401 105.887 128.459 106.361 128.506C107.965 128.645 109.564 128.789 111.168 128.928C111.712 128.975 112.297 129.021 112.783 128.76C113.826 128.21 113.803 126.733 113.681 125.563C113.206 121.027 113.473 116.41 114.463 111.956C114.77 110.583 115.204 109.129 116.31 108.254C117.416 107.38 119.374 107.507 119.912 108.805C120.097 109.256 120.086 109.766 120.057 110.258C119.843 113.543 118.933 116.735 118.25 119.955C117.897 121.624 117.619 123.425 118.296 124.989C118.974 126.553 120.989 127.648 122.448 126.762C123.601 126.061 123.896 124.543 124.064 123.199C125.807 109.407 126.456 95.4813 126.004 81.5904C125.981 80.8721 125.923 80.0785 125.402 79.5861C124.585 78.8099 123.12 79.3486 122.558 80.3275C121.997 81.3065 122.055 82.5056 122.095 83.6294C122.246 88.1998 121.742 92.7877 120.601 97.2133C120.254 98.5572 119.541 100.15 118.152 100.226C116.119 100.336 115.685 97.3987 116.015 95.3886C116.501 92.4053 116.988 89.4279 117.474 86.4446C117.885 83.9306 118.273 81.2486 117.225 78.9315C116.177 76.6144 113.073 75.0562 110.994 76.5275" fill="#F7D260"/>
<path d="M111.162 75.0793C111.307 90.9049 107.224 106.296 104.537 121.786C104.381 122.701 104.224 123.611 104.08 124.526C103.941 125.389 103.703 126.304 103.773 127.179C103.923 129.119 105.637 129.305 107.213 129.444C108.156 129.525 109.095 129.612 110.038 129.693C110.982 129.774 111.92 129.965 112.801 129.693C114.248 129.235 114.642 127.689 114.602 126.333C114.55 124.445 114.295 122.579 114.318 120.685C114.341 118.669 114.503 116.654 114.822 114.661C115.082 113.039 115.285 111.093 116.194 109.679C116.698 108.897 118.209 107.941 119.003 108.961C119.454 109.54 119.159 110.693 119.084 111.353C118.974 112.367 118.794 113.369 118.592 114.365C118.215 116.242 117.729 118.102 117.352 119.979C116.976 121.855 116.744 123.715 117.538 125.429C118.099 126.646 119.304 127.642 120.636 127.886C122.066 128.14 123.41 127.474 124.116 126.212C124.904 124.81 124.944 123.06 125.13 121.508C125.61 117.488 125.998 113.462 126.293 109.424C126.878 101.401 127.098 93.3495 126.954 85.3092C126.936 84.3592 126.913 83.4034 126.884 82.4534C126.861 81.6019 126.896 80.6808 126.577 79.8756C126.01 78.4274 124.429 78.0162 123.097 78.6823C121.591 79.4296 121.198 81.1037 121.186 82.6561C121.174 84.5735 121.255 86.4735 121.128 88.3851C121.001 90.2967 120.74 92.3126 120.364 94.2531C120.184 95.1684 119.987 96.0836 119.744 96.9815C119.57 97.6419 119.35 98.3428 118.904 98.8757C118.065 99.8836 117.208 99.1074 116.941 98.1285C116.547 96.6977 116.895 95.2263 117.127 93.8013C117.451 91.797 117.781 89.7927 118.105 87.7943C118.401 85.9985 118.754 84.1854 118.742 82.3607C118.719 79.3021 117.37 76.2841 114.272 75.311C113.015 74.9171 111.637 75.0387 110.531 75.7744C109.604 76.3884 110.473 77.8945 111.405 77.2747C112.447 76.5796 113.664 76.7707 114.694 77.3963C115.951 78.161 116.623 79.4122 116.878 80.8314C117.184 82.5171 116.918 84.2839 116.652 85.958C116.351 87.8116 116.044 89.6653 115.742 91.519C115.331 94.0504 114.214 97.5202 115.829 99.8779C116.513 100.88 117.711 101.343 118.887 100.944C120.161 100.509 120.856 99.1943 121.25 97.9952C121.8 96.3153 122.101 94.5196 122.367 92.776C122.651 90.9455 122.836 89.1034 122.917 87.2555C122.958 86.3229 122.97 85.3903 122.958 84.4577C122.946 83.5772 122.842 82.6677 122.958 81.7872C123.045 81.1558 123.271 80.5012 123.879 80.2058C124.556 79.8756 124.956 80.2348 125.066 80.9357C125.187 81.7003 125.135 82.5229 125.158 83.2933C125.187 84.3418 125.205 85.3845 125.222 86.433C125.251 88.3388 125.257 90.2388 125.24 92.1446C125.211 96.0025 125.095 99.8547 124.898 103.707C124.701 107.559 124.417 111.405 124.052 115.24C123.873 117.134 123.67 119.029 123.45 120.917C123.282 122.336 123.329 124.242 122.506 125.482C121.684 126.721 120.236 126.165 119.46 125.244C118.372 123.947 118.713 121.936 119.02 120.425C119.385 118.635 119.837 116.868 120.207 115.078C120.578 113.288 120.954 111.515 120.925 109.749C120.902 108.376 120.167 107.223 118.789 106.904C117.549 106.615 116.241 107.02 115.355 107.918C114.248 109.036 113.837 110.629 113.519 112.118C113.125 113.972 112.853 115.848 112.702 117.737C112.552 119.625 112.523 121.461 112.621 123.321C112.668 124.19 112.766 125.059 112.83 125.928C112.87 126.478 112.94 127.208 112.639 127.706C112.256 128.337 111.197 128.048 110.589 127.996C109.645 127.915 108.707 127.828 107.763 127.747C107.259 127.7 105.852 127.828 105.545 127.335C105.394 127.098 105.493 126.6 105.527 126.351C105.591 125.847 105.684 125.343 105.765 124.839C108.156 110.108 112.065 95.5681 112.783 80.6055C112.87 78.7576 112.905 76.9098 112.888 75.0619C112.876 73.9439 111.139 73.9439 111.15 75.0619L111.162 75.0793Z" fill="black"/>
</g>
<defs>
<clipPath id="clip0_759_2986">
<rect width="127" height="130" fill="white"/>
</clipPath>
</defs>
</svg>
