<svg width="232" height="50" viewBox="0 0 232 50" fill="none" xmlns="http://www.w3.org/2000/svg">
<path d="M8.01728 7.95827C5.06191 8.03887 2.80155 10.3887 2.18167 13.1477C1.4804 16.2353 2.85164 19.1556 5.51899 20.8482C8.18634 22.5408 11.8555 22.9004 14.7357 21.7348C16.6204 20.9722 17.3029 19.0564 17.6535 17.2025C18.0042 15.3487 17.9979 13.3461 17.3843 11.5233C16.1007 7.73506 12.3877 5.10624 8.31156 5.73245C7.61029 5.83785 7.22208 6.71206 7.39114 7.33206C7.59777 8.07607 8.3053 8.34887 9.00658 8.24347C11.3483 7.88387 13.6212 9.56408 14.5855 11.5729C15.1615 12.7881 15.3243 14.1521 15.2429 15.4789C15.1991 16.1361 15.0801 16.7747 14.9048 17.4072C14.7545 17.959 14.598 18.7588 14.1159 19.137C13.2768 19.7942 11.6739 19.8004 10.6596 19.7632C9.64524 19.726 8.5808 19.4904 7.64786 19.0502C5.71935 18.1388 4.44203 16.4461 4.62361 14.3753C4.78015 12.5339 6.15139 10.6057 8.01728 10.5561C9.70785 10.5127 9.71411 7.90867 8.01728 7.95207V7.95827Z" fill="black"/>
<path d="M22.3995 3.30167C21.429 12.3166 21.6983 21.4058 23.1133 30.3587C23.226 31.0531 24.1026 31.4375 24.7288 31.2701C25.4801 31.0655 25.7556 30.3649 25.6492 29.6705C24.2717 20.9594 24.0901 12.0747 25.0293 3.30787C25.1045 2.60726 24.3719 2.00586 23.7144 2.00586C22.938 2.00586 22.4747 2.60726 22.3995 3.30787V3.30167Z" fill="black"/>
<path d="M24.6286 14.1704C24.7727 14.1022 24.9229 14.034 25.0669 13.972C24.8227 14.0836 25.1796 13.9286 25.1984 13.9224C25.4614 13.817 25.7306 13.724 25.9999 13.6434C26.5196 13.476 27.0518 13.3458 27.584 13.2466C27.7218 13.2218 27.8658 13.197 28.0035 13.1784C28.398 13.1164 27.7405 13.2032 28.135 13.1598C28.4168 13.1288 28.6985 13.104 28.9803 13.0916C29.5438 13.0606 30.1136 13.073 30.6771 13.1164C31.3659 13.166 32.0233 12.484 31.992 11.8144C31.9607 11.0641 31.416 10.5681 30.6771 10.5123C28.1287 10.3263 25.5929 10.8533 23.295 11.9322C22.6751 12.2236 22.4622 13.1598 22.8254 13.7116C23.2386 14.344 23.9587 14.4928 24.6224 14.1766L24.6286 14.1704Z" fill="black"/>
<path d="M23.9524 20.3833H31.297C31.9858 20.3833 32.6432 19.7819 32.6119 19.0813C32.5806 18.3807 32.0359 17.7793 31.297 17.7793H23.9524C23.2637 17.7793 22.6062 18.3807 22.6375 19.0813C22.6689 19.7819 23.2136 20.3833 23.9524 20.3833Z" fill="black"/>
<path d="M9.26311 37.3215C10.9224 37.3339 12.5879 37.3463 14.2472 37.3649C15.0361 37.3711 15.8188 37.3711 16.6077 37.3835C16.8582 37.3835 17.2464 37.3959 17.4217 37.4269C17.4217 37.4269 17.6784 37.4827 17.7598 37.5075C17.9226 37.5509 17.9289 37.5633 17.9789 37.5943C18.0228 37.6191 18.1543 37.7183 18.1668 37.7493C18.3045 38.0407 18.292 38.1957 18.3045 38.4685C18.3421 39.2435 18.3233 40.0185 18.3296 40.7935C18.3421 42.4427 18.3546 44.092 18.3672 45.7412C18.3797 47.3904 21.0095 47.4214 20.9969 45.7412C20.9844 43.8874 20.9656 42.0273 20.9531 40.1735C20.9406 38.5367 21.0909 36.6643 19.6194 35.5607C18.292 34.5687 16.4261 34.7795 14.867 34.7671C12.9949 34.7547 11.129 34.7361 9.25685 34.7237C7.56628 34.7113 7.56002 37.3153 9.25685 37.3277L9.26311 37.3215Z" fill="black"/>
<path d="M41.9915 3.61816C38.0656 7.6792 34.6845 12.2548 31.9858 17.2025C31.1844 18.6781 33.451 19.9925 34.2587 18.5169C36.8572 13.7553 40.0693 9.36562 43.8511 5.45958C45.022 4.25057 43.1624 2.40295 41.9915 3.61816Z" fill="black"/>
<path d="M38.3223 10.2957C41.6095 13.4143 45.4227 15.9687 49.5865 17.7915C50.2377 18.0767 51.0016 17.9775 51.3835 17.3265C51.7091 16.7747 51.5651 15.8323 50.9139 15.5471C46.9505 13.8111 43.3126 11.4303 40.1819 8.45426C38.961 7.29485 37.0951 9.13626 38.3223 10.2957Z" fill="black"/>
<path d="M38.5226 20.8978L39.2552 28.1581C39.3241 28.8339 39.8125 29.4911 40.5701 29.4601C41.2213 29.4291 41.9601 28.8835 41.885 28.1581L41.1524 20.8978C41.0835 20.222 40.5951 19.5648 39.8375 19.5958C39.1863 19.6268 38.4475 20.1724 38.5226 20.8978Z" fill="black"/>
<path d="M31.9043 32.5722C38.5852 32.659 45.2724 31.9149 51.7717 30.3773C53.4184 29.9867 52.7234 27.4757 51.0704 27.8663C44.7902 29.3481 38.3598 30.0487 31.9043 29.9681C30.2137 29.9495 30.2075 32.5536 31.9043 32.5722Z" fill="black"/>
<path d="M33.7388 38.0595L38.9608 38.3509C40.3759 38.4315 41.9162 38.3509 43.2874 38.7353C43.7194 38.8593 44.1765 39.1197 44.3894 39.3987C44.6962 39.8017 44.7776 40.2109 44.7964 40.6511C44.8465 41.8291 44.4708 42.9823 44.0576 44.1231C43.8134 44.7865 44.3268 45.5491 44.978 45.7227C45.7106 45.9211 46.3555 45.4747 46.5934 44.8113C47.5952 42.0709 48.1963 38.1277 44.9529 36.5839C43.3563 35.8275 41.4967 35.8833 39.7623 35.7841L33.7451 35.4492C33.0375 35.412 32.4302 36.0755 32.4302 36.7513C32.4302 37.4891 33.0313 38.0161 33.7451 38.0533L33.7388 38.0595Z" fill="black"/>
<path d="M60.976 10.3203C62.0342 10.1777 63.1049 10.0847 64.1756 10.0413C64.6702 10.0165 65.1649 10.0103 65.6595 10.0041C65.8849 10.0041 66.6926 9.88632 66.8617 10.0661C67.0871 10.3017 66.7803 11.1387 66.6926 11.4115C66.4234 12.2609 66.0978 13.1041 65.7472 13.9288C64.3071 17.2768 62.2909 20.3768 59.8176 23.0676C58.6843 24.3076 60.5377 26.1553 61.6773 24.9091C64.808 21.499 67.2436 17.5372 68.8403 13.2095C69.5103 11.3929 70.2178 8.73311 67.9387 7.7039C66.8617 7.2203 65.4717 7.3815 64.3196 7.4311C62.9609 7.4869 61.6209 7.6295 60.2747 7.8093C59.5735 7.9085 59.1852 8.79511 59.3543 9.40891C59.5609 10.1591 60.2685 10.4133 60.9697 10.3203H60.976Z" fill="black"/>
<path d="M66.4485 17.8225C66.8116 17.8907 67.1622 17.9713 67.5129 18.0829C67.6819 18.1387 67.8447 18.1945 68.0075 18.2565C68.3143 18.3681 67.7508 18.1387 68.0451 18.2689C68.1328 18.3061 68.2204 18.3495 68.3018 18.3867C68.6149 18.5355 68.9217 18.7091 69.216 18.9013C69.3788 19.0067 69.529 19.1121 69.6856 19.2237C69.5604 19.1183 69.8859 19.3663 69.6856 19.2237C69.7607 19.2857 69.8359 19.3415 69.9047 19.4035C70.1677 19.6267 70.4244 19.8685 70.6624 20.1289C70.7813 20.2591 70.894 20.3893 71.0067 20.5195C71.1946 20.7427 70.8752 20.3397 71.038 20.5567C71.0944 20.6311 71.1507 20.7117 71.2071 20.7861C71.4075 21.0713 71.589 21.3689 71.7518 21.6727C71.7957 21.7595 71.8395 21.8401 71.8771 21.9269C71.8958 21.9641 71.9647 22.1625 71.996 22.1873L71.9397 22.0509C71.9647 22.1067 71.9898 22.1687 72.0086 22.2245C72.0399 22.3113 72.0712 22.4043 72.1025 22.4911C72.3279 23.1359 73.0166 23.6258 73.7179 23.4025C74.3628 23.1979 74.8763 22.4911 74.6383 21.8029C73.505 18.5417 70.606 15.9315 67.1497 15.3053C66.4735 15.1813 65.6971 15.4851 65.5343 16.2167C65.3903 16.8553 65.7284 17.6861 66.4547 17.8163L66.4485 17.8225Z" fill="black"/>
<path d="M74.6133 6.35842C74.5695 14.4433 74.8199 22.522 75.3647 30.5882C75.4774 32.2499 78.1071 32.2623 77.9944 30.5882C77.4497 22.522 77.1992 14.4433 77.2431 6.35842C77.2556 4.68441 74.6258 4.67821 74.6133 6.35842Z" fill="black"/>
<path d="M77.5247 19.7138C80.5552 18.5978 83.7548 18.2258 86.9669 18.5978C87.6744 18.6784 88.2817 17.9405 88.2817 17.2957C88.2817 16.5207 87.6744 16.0743 86.9669 15.9937C83.5544 15.5969 80.0418 16.0185 76.8234 17.2027C76.1597 17.4507 75.7026 18.0831 75.903 18.8024C76.0783 19.4348 76.8485 19.9556 77.5184 19.7138H77.5247Z" fill="black"/>
<path d="M70.6812 33.2484C69.0657 35.1518 67.6381 37.5326 67.8823 40.1181C68.0952 42.3873 69.5103 44.6937 71.8708 45.2703C74.2314 45.8469 76.3352 44.5511 77.6125 42.7221C78.9838 40.7567 79.0025 38.3634 78.0383 36.2244C76.9801 33.8684 74.7824 32.1138 72.5158 30.9544C71.8834 30.632 71.0882 30.7932 70.7187 31.4194C70.3744 32.0022 70.5559 32.8764 71.1883 33.1988C73.7555 34.5132 77.0177 37.2722 75.8781 40.4219C75.4461 41.6061 74.2376 42.7531 73.1356 42.7965C71.8082 42.8523 70.8502 41.6805 70.5622 40.3413C70.1552 38.4688 71.3511 36.491 72.5471 35.0836C73.0041 34.5442 73.0793 33.7692 72.5471 33.2422C72.0775 32.7772 71.1445 32.7028 70.6874 33.2422L70.6812 33.2484Z" fill="black"/>
<path d="M91.1746 10.2399C88.7264 16.0989 86.2782 21.9518 83.83 27.8108C83.5607 28.4619 84.1242 29.2431 84.7504 29.4105C85.508 29.6151 86.0966 29.1563 86.3658 28.4991C88.814 22.64 91.2622 16.7871 93.7104 10.9281C93.9796 10.2771 93.4161 9.49588 92.79 9.32848C92.0324 9.12388 91.4438 9.58269 91.1746 10.2399Z" fill="black"/>
<path d="M89.4777 16.1175C91.2809 19.4903 93.3472 22.7143 95.6576 25.7709C96.0834 26.3351 96.7972 26.6203 97.4546 26.2359C98.0119 25.9135 98.3563 25.0207 97.9243 24.4565C95.6138 21.3999 93.5538 18.1697 91.7443 14.803C91.4124 14.183 90.5421 13.9908 89.9473 14.338C89.3149 14.7038 89.1395 15.4974 89.4777 16.1175Z" fill="black"/>
<path d="M88.9205 27.2715C89.7283 31.2891 89.434 35.4432 88.1441 39.3306C87.6182 40.924 90.154 41.6122 90.68 40.025C92.1138 35.685 92.3518 31.0535 91.4564 26.5771C91.3186 25.8889 90.4859 25.4921 89.841 25.6657C89.1146 25.8641 88.7828 26.5771 88.9205 27.2653V27.2715Z" fill="black"/>
<path d="M84.1869 44.2226C89.5216 43.057 94.9753 42.6106 100.435 42.8524C102.126 42.9268 102.126 40.3228 100.435 40.2484C94.7499 39.9942 89.0458 40.5026 83.4919 41.7116C81.8389 42.0712 82.5402 44.5822 84.1932 44.2226H84.1869Z" fill="black"/>
<path d="M113.19 10.3826C114.649 9.89277 116.258 9.29136 117.829 9.51456C118.831 9.65716 119.989 10.3516 120.215 11.3932C120.252 11.5606 120.265 11.7156 120.234 11.8892C120.221 11.976 120.19 12.069 120.159 12.1558C120.033 12.5464 120.221 12.0628 120.115 12.2674C119.983 12.5278 119.82 12.72 119.582 12.906C119.019 13.34 118.286 13.588 117.516 13.8298C115.757 14.394 113.81 14.8032 112.407 16.0742C110.491 17.804 110.673 20.5197 112.313 22.3673C114.843 25.2193 118.862 24.3513 122.049 23.3221C123.652 22.8075 122.964 20.2903 121.348 20.8111C119.082 21.5427 115.319 22.7827 113.853 20.0609C113.665 19.7137 113.559 19.3292 113.628 18.9386C113.684 18.6286 113.853 18.3372 114.029 18.1512C114.479 17.6676 115.193 17.3328 115.863 17.091C117.548 16.4896 119.457 16.1858 120.935 15.138C122.882 13.7554 123.496 11.2258 122.031 9.22936C119.701 6.05493 115.732 6.78654 112.482 7.87775C110.885 8.41095 111.574 10.9282 113.183 10.3888L113.19 10.3826Z" fill="black"/>
<path d="M128.411 5.75112C128.273 12.3666 127.553 18.9448 126.245 25.4301C125.913 27.0669 128.449 27.7675 128.781 26.1245C130.139 19.416 130.897 12.596 131.041 5.75112C131.078 4.0771 128.449 4.0771 128.411 5.75112Z" fill="black"/>
<path d="M130.415 18.2751C131.648 17.6923 132.882 17.1032 134.115 16.5204C134.397 16.384 134.641 16.0306 134.722 15.7392C134.81 15.4292 134.772 15.0138 134.591 14.7348C134.409 14.4558 134.14 14.214 133.802 14.1334C133.439 14.0528 133.126 14.1086 132.788 14.2636C131.554 14.8464 130.321 15.4354 129.087 16.0182C128.805 16.1546 128.561 16.508 128.48 16.7994C128.392 17.1094 128.43 17.5249 128.611 17.8039C128.793 18.0829 129.062 18.3247 129.4 18.4053C129.763 18.4859 130.076 18.4301 130.415 18.2751Z" fill="black"/>
<path d="M135.856 6.9663C135.599 12.7386 134.96 18.4798 133.921 24.1653C133.796 24.8535 134.109 25.5665 134.841 25.7649C135.48 25.9385 136.332 25.5541 136.457 24.8535C137.534 18.9386 138.222 12.9618 138.485 6.9601C138.561 5.28609 135.931 5.28609 135.856 6.9601V6.9663Z" fill="black"/>
<path d="M118.719 27.5563C118.531 30.1913 118.349 32.8325 118.161 35.4675C118.005 37.6686 117.341 40.719 119.908 41.8102C120.835 42.207 121.856 42.2008 122.845 42.1264C124.147 42.0334 125.456 41.9342 126.758 41.835C129.419 41.6366 132.074 41.4382 134.735 41.2398C136.413 41.1158 136.426 38.5118 134.735 38.6358C132.425 38.8094 130.121 38.9768 127.81 39.1504C126.608 39.2372 125.399 39.3302 124.197 39.417C123.296 39.4852 122.281 39.6774 121.38 39.5348C120.547 39.4046 120.566 38.8838 120.603 38.1398C120.66 36.9927 120.766 35.8457 120.847 34.6987L121.355 27.5501C121.474 25.876 118.844 25.8822 118.725 27.5501L118.719 27.5563Z" fill="black"/>
<path d="M143.883 8.33647C146.118 8.08847 148.36 7.84047 150.595 7.59247C151.278 7.51807 151.941 7.04686 151.91 6.29046C151.879 5.65185 151.328 4.90784 150.595 4.98844C148.36 5.23645 146.118 5.48445 143.883 5.73245C143.2 5.80685 142.537 6.27806 142.568 7.03446C142.599 7.67307 143.15 8.41707 143.883 8.33647Z" fill="black"/>
<path d="M144.321 7.23931C144.584 8.78313 143.977 10.3641 143.733 11.8708C143.476 13.4518 143.432 15.0514 144.121 16.5394C145.304 19.1062 149.174 20.03 150.914 17.5066C151.315 16.9238 151.027 16.062 150.445 15.7272C149.794 15.349 149.049 15.6094 148.648 16.1922C148.786 15.9938 148.585 16.2542 148.554 16.2852C148.704 16.1364 148.541 16.2852 148.454 16.341C148.26 16.465 148.535 16.3286 148.404 16.3596C148.31 16.3782 148.222 16.4092 148.128 16.4278C148.422 16.3782 148.066 16.4154 148.015 16.4154C147.972 16.4154 147.615 16.3658 147.89 16.4154C147.69 16.3782 147.49 16.3286 147.302 16.2542C147.558 16.3534 146.826 15.9442 147.032 16.1054C146.951 16.0434 146.882 15.969 146.807 15.9008C146.744 15.8388 146.632 15.69 146.744 15.8388C146.431 15.411 146.275 14.9336 146.212 14.4376C146.074 13.3154 146.331 12.2118 146.575 11.0709C146.901 9.55813 147.126 8.08872 146.863 6.55111C146.744 5.8567 145.88 5.4661 145.248 5.6397C144.503 5.8443 144.215 6.54491 144.328 7.23931H144.321Z" fill="black"/>
<path d="M153.663 12.5029H157.946C158.635 12.5029 159.292 11.9015 159.261 11.2009C159.23 10.5003 158.685 9.89893 157.946 9.89893H153.663C152.974 9.89893 152.317 10.5003 152.348 11.2009C152.38 11.9015 152.924 12.5029 153.663 12.5029Z" fill="black"/>
<path d="M158.422 6.95387C157.808 12.3851 157.633 17.8536 157.89 23.3158C157.971 24.9836 160.601 24.996 160.519 23.3158C160.263 17.8536 160.438 12.3851 161.052 6.95387C161.133 6.25326 160.388 5.65186 159.737 5.65186C158.96 5.65186 158.503 6.25326 158.422 6.95387Z" fill="black"/>
<path d="M144.422 26.9551L144.378 32.0577C144.365 33.6202 144.252 35.2136 144.378 36.7698C144.49 38.2082 144.96 39.5536 146.156 40.4402C147.02 41.0788 148.153 41.3206 149.218 41.209C151.691 40.9424 153.732 39.3676 154.596 37.0674C155.122 35.6848 155.222 34.1534 155.185 32.6902C155.147 31.2269 155.072 29.8257 154.903 28.4245C154.797 27.5379 154.44 26.7195 153.588 26.3165C152.737 25.9135 151.754 26.1057 150.877 26.1367C148.955 26.2111 147.033 26.2793 145.117 26.3537C143.432 26.4157 143.42 29.0197 145.117 28.9577C146.5 28.9081 147.884 28.8523 149.268 28.8027C149.957 28.7779 150.652 28.7531 151.34 28.7221C151.647 28.7097 151.954 28.6911 152.261 28.6849H152.43C152.63 28.6973 152.655 28.6849 152.505 28.6539C152.399 28.6353 152.317 28.5733 152.261 28.4741C152.242 28.4245 152.248 28.4431 152.273 28.5237C152.248 28.5919 152.323 28.9825 152.33 29.1065C152.342 29.3793 152.361 29.6459 152.38 29.9187C152.424 30.5697 152.48 31.2145 152.518 31.8655C152.586 33.0126 152.624 34.1968 152.374 35.3252C152.154 36.3048 151.81 37.0612 151.153 37.6564C150.921 37.8672 150.689 38.0222 150.32 38.2144C149.975 38.3942 149.744 38.4748 149.268 38.5802C149.237 38.5864 149.011 38.6298 149.218 38.5988C149.13 38.6112 149.042 38.6174 148.955 38.6236C148.867 38.6298 148.779 38.6298 148.692 38.6236C148.717 38.6236 148.291 38.5988 148.479 38.6236C148.178 38.5926 147.953 38.5058 147.684 38.3322C147.533 38.233 147.402 38.0966 147.252 37.799C147.026 37.3402 146.995 36.7946 146.982 36.2924C146.895 33.1862 147.026 30.0613 147.051 26.9551C147.064 25.2811 144.434 25.2749 144.422 26.9551Z" fill="black"/>
<path d="M167.513 6.01137C168.12 9.2168 168.415 12.4718 168.39 15.7331C168.377 17.3575 168.264 18.9757 168.12 20.5939C168.008 21.8835 168.189 23.3219 169.366 24.1031C170.544 24.8843 172.391 24.6549 173.774 24.5867C175.427 24.5061 177.08 24.3139 178.708 24.0287C180.111 23.7807 181.802 23.5761 182.578 22.2245C183.354 20.8729 183.204 19.1121 183.242 17.6675C183.342 13.9412 182.991 10.2088 182.252 6.55698C181.92 4.91396 179.385 5.60837 179.716 7.25138C180.267 9.99181 180.568 12.7694 180.618 15.5657C180.643 17.0165 180.606 18.4735 180.493 19.9243C180.468 20.2343 180.493 20.7613 180.242 20.9907C179.873 21.3255 178.902 21.3503 178.445 21.4371C177.099 21.6913 175.734 21.8587 174.363 21.9455C173.668 21.9889 172.973 22.0137 172.278 22.0199C171.934 22.0199 171.126 22.1749 170.838 21.9393C170.619 21.7595 170.7 21.2449 170.713 21.0093C170.744 20.3397 170.832 19.6701 170.882 19.0005C170.982 17.6117 171.026 16.2229 171.013 14.8341C170.982 11.641 170.644 8.45419 170.049 5.31697C169.736 3.67395 167.2 4.36836 167.513 6.01137Z" fill="black"/>
<path d="M173.85 8.16285C174.463 12.7881 174.632 17.4505 174.344 22.1068C174.244 23.7808 176.874 23.7746 176.974 22.1068C177.262 17.4505 177.093 12.7881 176.479 8.16285C176.385 7.46844 175.941 6.86084 175.165 6.86084C174.526 6.86084 173.756 7.46224 173.85 8.16285Z" fill="black"/>
<path d="M171.408 17.3511H181.201C182.891 17.3511 182.898 14.7471 181.201 14.7471H171.408C169.717 14.7471 169.711 17.3511 171.408 17.3511Z" fill="black"/>
<path d="M173.769 23.3216V28.7715C173.769 29.4535 174.376 30.1045 175.083 30.0735C175.791 30.0425 176.398 29.5031 176.398 28.7715V23.3216C176.398 22.6396 175.791 21.9886 175.083 22.0196C174.376 22.0506 173.769 22.59 173.769 23.3216Z" fill="black"/>
<path d="M166.518 32.4484C171.583 32.9816 176.755 32.3368 181.526 30.5822C182.19 30.3404 182.647 29.7018 182.447 28.9826C182.271 28.3501 181.501 27.8293 180.831 28.0711C176.242 29.7576 171.389 30.3528 166.524 29.8444C165.816 29.77 165.209 30.4954 165.209 31.1464C165.209 31.9152 165.816 32.374 166.524 32.4484H166.518Z" fill="black"/>
<path d="M168.54 32.7401C167.883 36.5656 167.369 41.1722 170.8 43.9188C172.266 45.0907 174.213 45.6921 176.047 45.0411C178.133 44.297 179.266 42.5238 179.535 40.4096C179.848 37.9606 179.967 35.4744 180.167 33.013C180.224 32.3123 179.523 31.7109 178.853 31.7109C178.095 31.7109 177.594 32.3061 177.538 33.013C177.381 34.8668 177.231 36.7144 177.074 38.5682C176.962 39.9198 176.974 41.5194 175.753 42.3006C174.733 42.9516 173.699 42.7718 172.71 42.1084C171.646 41.3954 171.032 40.1864 170.775 38.934C170.412 37.1298 170.763 35.2202 171.07 33.4346C171.189 32.7401 170.882 32.0333 170.149 31.8349C169.517 31.6613 168.653 32.0457 168.534 32.7463L168.54 32.7401Z" fill="black"/>
<path d="M177.187 34.228L171.702 35.5301C171.032 35.6913 170.569 36.4787 170.782 37.1297C171.007 37.8179 171.683 38.2085 172.397 38.0411C174.226 37.6071 176.054 37.1731 177.882 36.7391C178.552 36.5779 179.015 35.7905 178.803 35.1395C178.577 34.4512 177.901 34.0606 177.187 34.228Z" fill="black"/>
<path d="M185.127 17.2583C186.767 17.7605 188.257 16.9793 189.635 16.1671C190.292 15.7827 190.824 15.4355 191.532 15.3053C192.014 15.2123 192.54 15.3363 193.028 15.6153C194.174 16.2601 194.894 17.4877 195.051 18.8269C195.27 20.7489 194.644 22.6647 194.08 24.4752C193.586 26.081 196.122 26.7692 196.616 25.1696C197.562 22.1129 198.507 18.5045 196.641 15.5843C195.846 14.3443 194.663 13.3213 193.229 12.8873C191.795 12.4533 190.349 12.8191 189.052 13.5073C188.42 13.8421 187.825 14.2451 187.18 14.5613C186.98 14.6605 187.055 14.6295 186.899 14.6853C186.742 14.7411 186.592 14.7845 186.429 14.8155C186.266 14.8465 186.41 14.8217 186.442 14.8155C186.354 14.8279 186.26 14.8279 186.172 14.8217C186.172 14.8217 185.953 14.8031 186.072 14.8217C186.179 14.8341 185.828 14.7473 185.828 14.7473C184.206 14.2575 183.511 16.7685 185.127 17.2583Z" fill="black"/>
<path d="M202.721 5.14955C202.42 16.6631 201.838 28.1704 200.974 39.6529C200.849 41.3269 203.479 41.3145 203.604 39.6529C204.468 28.1642 205.05 16.6631 205.351 5.14955C205.395 3.47554 202.765 3.47554 202.721 5.14955Z" fill="black"/>
<path d="M214.054 11.1946C213.428 16.8304 213.272 22.5035 213.578 28.1703C213.672 29.8382 216.302 29.8506 216.208 28.1703C215.901 22.5097 216.058 16.8366 216.684 11.1946C216.759 10.494 216.027 9.89258 215.369 9.89258C214.593 9.89258 214.129 10.494 214.054 11.1946Z" fill="black"/>
<path d="M213.628 36.9249C213.428 37.4147 213.434 38.0472 213.591 38.5494C213.666 38.7974 213.772 39.064 213.929 39.2748C214.173 39.6096 214.374 39.8142 214.718 40.0498C215.1 40.3164 215.663 40.2668 216.045 40.0498C217.053 39.4856 218.062 38.7478 218.393 37.5884C218.506 37.1915 218.506 36.8195 218.431 36.4227C218.406 36.2925 218.356 36.1809 218.299 36.0569C218.243 35.9267 218.193 35.7965 218.112 35.6787C217.742 35.1517 217.235 34.7301 216.603 34.5627C216.252 34.4697 215.832 34.4511 215.482 34.5627C215 34.7115 214.637 35.0091 214.361 35.4245C214.179 35.6973 214.142 36.1189 214.23 36.4289C214.317 36.7389 214.549 37.0613 214.837 37.2101C215.494 37.5512 216.233 37.3527 216.634 36.7451C216.646 36.7265 216.659 36.7079 216.672 36.6955L216.465 36.9621C216.502 36.9187 216.54 36.8753 216.59 36.8381L216.321 37.0427C216.358 37.0179 216.396 36.9931 216.44 36.9745L216.127 37.1047C216.177 37.0861 216.227 37.0675 216.283 37.0613L215.933 37.1109C216.008 37.0985 216.077 37.1047 216.152 37.1109L215.801 37.0613C215.889 37.0737 215.97 37.0985 216.052 37.1295L215.739 36.9993C215.845 37.0427 215.939 37.1047 216.033 37.1729L215.764 36.9683C215.858 37.0427 215.939 37.1233 216.014 37.2163L215.807 36.9497C215.87 37.0365 215.926 37.1233 215.97 37.2225L215.839 36.9125C215.87 36.9931 215.895 37.0675 215.908 37.1543L215.858 36.8071C215.87 36.8939 215.87 36.9745 215.858 37.0551L215.908 36.7079C215.889 36.8381 215.851 36.9621 215.801 37.0861L215.933 36.7761C215.87 36.9187 215.789 37.0551 215.695 37.1791L215.901 36.9125C215.739 37.1171 215.551 37.2907 215.344 37.4457L215.613 37.2411C215.332 37.4519 215.031 37.6318 214.73 37.7992H216.058C216.058 37.7992 216.014 37.7682 215.995 37.7558L216.265 37.9604C216.183 37.8922 216.108 37.824 216.045 37.7434L216.252 38.01C216.171 37.9046 216.108 37.793 216.058 37.6752L216.189 37.9852C216.139 37.8612 216.108 37.7372 216.089 37.6131L216.139 37.9604C216.127 37.8426 216.127 37.731 216.139 37.6131L216.089 37.9604C216.108 37.8426 216.133 37.731 216.183 37.6255C216.302 37.3341 216.202 36.8815 216.052 36.6211C215.901 36.3607 215.582 36.0941 215.263 36.0197C214.925 35.9453 214.549 35.9577 214.248 36.1499L213.979 36.3545C213.816 36.5157 213.704 36.7079 213.641 36.9311L213.628 36.9249Z" fill="black"/>
<path d="M224.548 15.4414C224.548 19.4777 224.548 23.5201 224.548 27.5563C224.548 29.2304 227.178 29.2366 227.178 27.5563C227.178 23.5201 227.178 19.4777 227.178 15.4414C227.178 13.7674 224.548 13.7612 224.548 15.4414Z" fill="black"/>
<path d="M224.655 34.9593C224.191 35.0151 223.79 35.1143 223.44 35.4491C223.189 35.6847 223.02 35.9699 222.92 36.3047C222.745 36.8813 222.864 37.5323 223.146 38.0531C223.427 38.5739 223.972 39.0327 224.573 39.132C225.356 39.2622 226.132 39.0948 226.777 38.6235C227.359 38.2019 227.804 37.6997 228.223 37.1293C228.643 36.5589 228.919 35.8955 228.987 35.1887C229.138 33.6387 227.723 32.1135 226.113 32.4545C224.504 32.7955 223.847 35.3437 225.443 36.1993C226.051 36.5217 226.902 36.3667 227.24 35.7343C227.579 35.1019 227.416 34.2959 226.771 33.9549C226.733 33.9363 226.702 33.9115 226.664 33.8867L226.934 34.0913C226.934 34.0913 226.877 34.0355 226.852 34.0045L227.059 34.2711C227.034 34.2401 227.015 34.2091 227.003 34.1719L227.134 34.4819C227.115 34.4323 227.103 34.3827 227.09 34.3331L227.14 34.6803C227.134 34.6121 227.134 34.5439 227.14 34.4757L227.09 34.8229C227.103 34.7361 227.121 34.6555 227.153 34.5749L227.021 34.8849C227.059 34.8043 227.096 34.7299 227.153 34.6617L226.946 34.9283C226.99 34.8725 227.04 34.8229 227.096 34.7733L226.827 34.9779C226.884 34.9345 226.946 34.9035 227.009 34.8725L226.696 35.0027C226.752 34.9841 226.802 34.9717 226.859 34.9593L226.508 35.0089C226.577 35.0089 226.646 35.0089 226.721 35.0151L226.37 34.9655C226.445 34.9779 226.508 34.9965 226.577 35.0213L226.264 34.8911C226.345 34.9283 226.426 34.9717 226.495 35.0275L226.226 34.8229C226.314 34.8911 226.389 34.9717 226.458 35.0585L226.251 34.7919C226.32 34.8849 226.376 34.9841 226.42 35.0895L226.289 34.7795C226.339 34.9035 226.376 35.0337 226.395 35.1639L226.345 34.8167C226.358 34.9407 226.358 35.0585 226.345 35.1763L226.395 34.8291C226.37 35.0337 226.314 35.2197 226.232 35.4119L226.364 35.1019C226.232 35.3933 226.057 35.6599 225.863 35.9203L226.07 35.6537C225.819 35.9761 225.55 36.2799 225.231 36.5341L225.5 36.3295C225.343 36.4473 225.18 36.5527 224.999 36.6333L225.312 36.5031C225.174 36.5589 225.036 36.5961 224.886 36.6209L225.237 36.5713C225.13 36.5837 225.03 36.5775 224.917 36.5713L225.268 36.6209C225.193 36.6085 225.124 36.5899 225.049 36.5651L225.362 36.6953C225.299 36.6643 225.249 36.6333 225.193 36.5961L225.462 36.8007C225.412 36.7573 225.368 36.7139 225.324 36.6643L225.531 36.9309C225.475 36.8565 225.425 36.7759 225.387 36.6891L225.519 36.9991C225.475 36.8999 225.45 36.8007 225.431 36.6953L225.481 37.0425C225.468 36.9557 225.468 36.8689 225.481 36.7759L225.431 37.1231C225.443 37.0549 225.456 36.9867 225.487 36.9185L225.356 37.2285C225.375 37.1851 225.4 37.1479 225.425 37.1107L225.218 37.3773C225.249 37.3401 225.274 37.3153 225.312 37.2843L225.043 37.4889C225.043 37.4889 225.099 37.4517 225.13 37.4393L224.817 37.5695C224.861 37.5509 224.911 37.5385 224.961 37.5261L224.611 37.5757H224.648C225.011 37.5261 225.312 37.4517 225.575 37.1913C225.8 36.9681 225.976 36.5961 225.963 36.2737C225.951 35.9513 225.838 35.5855 225.575 35.3561C225.337 35.1391 224.986 34.9345 224.648 34.9717L224.655 34.9593Z" fill="black"/>
</svg>
