<svg width="124" height="36" viewBox="0 0 124 36" fill="none" xmlns="http://www.w3.org/2000/svg">
<path d="M11.6839 7.87292C8.66779 7.53648 5.56212 9.10651 3.97943 11.6504C2.39673 14.1943 2.83869 17.5882 4.8514 19.8842C6.86411 22.1802 10.2326 22.8826 12.962 21.3421C15.6914 19.8016 17.2203 16.6438 16.6709 13.6041C16.0557 10.1689 12.9679 7.43614 9.5756 6.78098C8.44681 6.5626 7.96901 8.26837 9.0978 8.48676C11.4808 8.94714 13.6548 10.529 14.5805 12.7896C15.5062 15.0502 14.7955 17.5764 12.95 19.1877C11.1045 20.7991 8.58417 20.8404 6.76855 19.2821C4.95293 17.7239 4.20638 15.3276 5.16794 13.1968C6.27284 10.7533 9.03211 9.3485 11.6719 9.64362C12.8186 9.77347 12.8067 7.99687 11.6719 7.87292H11.6839Z" fill="black"/>
<path d="M17.4353 12.3999C18.4088 12.3999 19.3824 12.3999 20.3559 12.3999C20.8217 12.3999 21.2756 11.9926 21.2517 11.5145C21.2278 11.0364 20.8575 10.6292 20.3559 10.6292C19.3824 10.6292 18.4088 10.6292 17.4353 10.6292C16.9695 10.6292 16.5156 11.0364 16.5395 11.5145C16.5634 11.9926 16.9337 12.3999 17.4353 12.3999Z" fill="black"/>
<path d="M16.856 18.7095C19.4659 19.0046 22.1595 18.3849 24.3872 17.0214C25.3667 16.4253 24.4648 14.8907 23.4854 15.4927C21.4965 16.7086 19.1792 17.1985 16.8619 16.9388C16.3782 16.8857 15.9661 17.3874 15.9661 17.8241C15.9661 18.3494 16.3782 18.6564 16.8619 18.7095H16.856Z" fill="black"/>
<path d="M24.465 5.78352C23.6527 13.8343 22.8345 21.8851 22.0223 29.9418C21.9088 31.0751 23.7005 31.0692 23.814 29.9418C24.6262 21.891 25.4445 13.8402 26.2567 5.78352C26.3702 4.65027 24.5785 4.65617 24.465 5.78352Z" fill="black"/>
<path d="M30.9868 12.0872C31.2555 11.3612 32.1395 11.0661 32.8741 11.0779C33.8297 11.0956 34.6001 11.6858 35.0839 12.4827C36.5352 14.8672 35.5497 17.8774 35.3407 20.4508C35.2989 20.9289 35.7826 21.3362 36.2365 21.3362C36.7561 21.3362 37.0906 20.9289 37.1324 20.4508C37.4012 17.1809 38.4702 13.486 35.9917 10.7415C34.1402 8.68744 30.288 8.8173 29.2548 11.6209C29.0875 12.0695 29.4399 12.5889 29.8819 12.7128C30.3776 12.8486 30.8195 12.5476 30.9868 12.0931V12.0872Z" fill="black"/>
<path d="M43.3976 5.16955C43.0512 14.8435 43.4394 24.5292 44.5502 34.1501C44.6757 35.2538 46.342 35.3187 46.342 34.1501C46.342 33.3355 46.342 32.521 46.342 31.7006C46.342 30.5614 44.5502 30.5614 44.5502 31.7006C44.5502 32.5151 44.5502 33.3296 44.5502 34.1501H46.342C45.2251 24.5351 44.8429 14.8435 45.1893 5.16955C45.2311 4.0304 43.4394 4.0304 43.3976 5.16955Z" fill="black"/>
<path d="M64.1875 12.1757C65.0595 11.3553 66.2719 10.5762 67.538 10.8772C68.5653 11.1251 69.3178 12.0163 69.7 12.9489C70.787 15.5931 69.061 18.3495 67.7232 20.557C67.1259 21.5368 68.6788 22.4281 69.27 21.4483C71.0438 18.5266 72.8654 15.0265 71.0677 11.6858C70.3929 10.4286 69.1804 9.34847 67.7291 9.10647C65.8896 8.80545 64.2174 9.69671 62.9213 10.9185C62.0852 11.7035 63.3513 12.9548 64.1875 12.1698V12.1757Z" fill="black"/>
<path d="M77.8226 4.01868C77.6673 6.03138 77.8823 8.07949 78.4377 10.0214C78.5691 10.4817 79.0708 10.7651 79.5426 10.6411C80.0144 10.5172 80.3011 10.0155 80.1697 9.54917C79.6442 7.73125 79.4709 5.91923 79.6203 4.01868C79.6561 3.5583 79.1843 3.11562 78.7244 3.13333C78.2108 3.15694 77.8703 3.52288 77.8285 4.01868H77.8226Z" fill="black"/>
<path d="M75.6727 13.4388C77.2673 12.5122 78.9456 11.7508 80.7015 11.19C81.4182 10.9598 82.2006 10.6706 82.9531 10.6175C83.1442 10.6057 83.5324 10.5703 83.7116 10.6942C83.8908 10.8182 83.831 10.83 83.7295 11.0779C83.3652 11.9278 82.7441 12.7364 82.2663 13.5333C81.7646 14.3714 81.2629 15.2095 80.7612 16.0418C79.716 17.783 78.6709 19.5241 77.6257 21.2653C77.0344 22.2451 78.5813 23.1364 79.1725 22.1566C80.4208 20.079 81.6631 18.0072 82.9113 15.9296C83.5145 14.9262 84.1177 13.9228 84.7209 12.9194C85.2465 12.04 85.9154 11.072 85.4317 10.0273C84.6552 8.3333 82.3499 8.86451 80.9523 9.26587C78.7903 9.88561 76.7059 10.7828 74.7649 11.9101C73.7735 12.4885 74.6693 14.0173 75.6667 13.4388H75.6727Z" fill="black"/>
<path d="M82.3975 14.4775C86.7693 16.3486 90.8843 18.7862 94.5813 21.7551C94.9575 22.0561 95.4771 22.1151 95.8474 21.7551C96.164 21.4482 96.2237 20.8048 95.8474 20.5038C92.0251 17.4346 87.8205 14.8789 83.2993 12.9488C82.8514 12.7599 82.3437 12.819 82.075 13.2675C81.848 13.6394 81.9555 14.2886 82.3975 14.4775Z" fill="black"/>
<path d="M103.2 6.06678C103.546 4.53807 105.171 3.6114 106.705 3.77667C108.384 3.95374 109.459 5.55918 109.62 7.11149C109.841 9.25995 108.193 10.6883 107.201 12.4118C106.21 14.1353 105.953 16.2837 107.41 17.7416C108.222 18.5502 109.489 17.2989 108.676 16.4903C107.38 15.1977 108.772 13.1909 109.584 12.0577C110.635 10.588 111.549 9.07107 111.418 7.20593C111.197 3.94193 108.33 1.25047 104.944 2.18894C103.283 2.64932 101.856 3.90652 101.474 5.60049C101.223 6.71013 102.949 7.18232 103.2 6.07268V6.06678Z" fill="black"/>
<path d="M108.485 25.6684C109.638 25.6684 109.638 23.8977 108.485 23.8977C107.332 23.8977 107.332 25.6684 108.485 25.6684Z" fill="black"/>
<path d="M117.038 4.60886C117.008 5.01613 116.984 4.56164 117.175 4.75052C117.366 4.93939 117.48 5.14007 117.569 5.39978C117.796 6.04904 117.927 6.75141 118.053 7.42428C118.31 8.80543 118.346 10.3164 117.39 11.4556C116.518 12.5003 115.3 13.2027 114.559 14.3654C113.818 15.5282 113.574 16.9625 114.338 18.1429C114.959 19.0991 116.512 18.2138 115.885 17.2517C114.923 15.7643 117.044 14.2651 117.975 13.4034C119.367 12.1166 120.084 10.5466 119.994 8.64607C119.952 7.73711 119.779 6.83995 119.57 5.9546C119.385 5.15778 119.194 4.27243 118.608 3.65268C117.521 2.49582 115.377 2.88538 115.246 4.60296C115.162 5.74211 116.954 5.73621 117.038 4.60296V4.60886Z" fill="black"/>
<path d="M116.07 25.09C117.223 25.09 117.223 23.3193 116.07 23.3193C114.917 23.3193 114.917 25.09 116.07 25.09Z" fill="black"/>
</svg>
