<svg width="118" height="42" viewBox="0 0 118 42" fill="none" xmlns="http://www.w3.org/2000/svg">
<path d="M112.987 3.93848C78.0679 4.17622 43.1493 4.41397 8.22451 4.65172C7.54666 4.65172 6.78331 4.70177 6.34362 5.22732C5.98943 5.65902 5.965 6.27216 5.965 6.83524C5.94057 16.6455 6.61232 26.4557 7.98024 36.1658C30.3739 35.7904 52.7736 35.8905 75.1672 36.4724C81.0725 36.6225 86.9839 36.8102 92.8647 37.3733C99.3196 37.9927 106.129 39.0125 112.04 36.2847C110.458 25.6173 110.489 14.6997 112.132 4.03858" fill="#FD9DC3"/>
<path d="M112.987 3.00002C94.6117 3.12515 76.2424 3.25028 57.8671 3.37541C48.6275 3.43797 39.394 3.50054 30.1544 3.5631C25.5866 3.59438 21.0187 3.62567 16.4508 3.65695C14.118 3.67572 11.7791 3.68823 9.4463 3.707C7.80968 3.71951 5.68452 3.57561 5.16544 5.61524C4.87842 6.75393 5.04941 8.1241 5.06162 9.28781C5.07384 10.5641 5.09827 11.8405 5.13491 13.1168C5.20819 15.7195 5.33032 18.3222 5.50131 20.9249C5.84329 26.1053 6.3868 31.2732 7.10129 36.4098C7.15626 36.804 7.62037 37.1043 7.98678 37.098C21.9713 36.8665 35.9559 36.8165 49.9405 36.9541C56.9327 37.0229 63.925 37.1356 70.9173 37.2982C77.9096 37.4609 84.7675 37.5923 91.6682 38.1992C98.6238 38.8061 105.879 40.0824 112.505 37.0918C112.902 36.9103 112.981 36.4098 112.926 36.0344C111.381 25.5297 111.418 14.781 113.018 4.28886C113.201 3.10638 111.436 2.5996 111.253 3.78834C109.598 14.6434 109.567 25.6674 111.161 36.5349L111.582 35.4776C105.842 38.0678 99.3078 37.0667 93.2743 36.4786C86.5018 35.8154 79.6928 35.6465 72.8959 35.4776C59.064 35.1397 45.2321 34.9833 31.4002 35.0084C23.5958 35.0209 15.7913 35.0959 7.99289 35.2273L8.87837 35.9155C7.63259 27 6.97305 17.9906 6.90588 8.98125C6.90588 8.46821 6.90588 7.96143 6.89977 7.4484C6.89977 7.04173 6.77153 6.2534 7.02191 5.89678C7.41885 5.33995 8.89669 5.58396 9.46462 5.58396C11.6997 5.57144 13.9287 5.55267 16.1638 5.54016C20.6278 5.50888 25.098 5.4776 29.5621 5.44631C47.3268 5.32744 65.0914 5.20231 82.8561 5.08344C92.9079 5.01461 102.954 4.94579 113.005 4.87697C114.184 4.87071 114.184 2.99376 113.005 3.00002H112.987Z" fill="black"/>
<path d="M22.2456 13.1167C23.1555 13.1167 24.0593 13.1167 24.9692 13.1167C25.4455 13.1167 25.9096 12.685 25.8852 12.1782C25.8608 11.6714 25.4822 11.2397 24.9692 11.2397C24.0593 11.2397 23.1555 11.2397 22.2456 11.2397C21.7692 11.2397 21.3051 11.6714 21.3295 12.1782C21.354 12.685 21.7326 13.1167 22.2456 13.1167Z" fill="black"/>
<path d="M19.1311 15.8884C22.5021 16.1825 25.873 16.4828 29.244 16.7768C29.7386 16.8206 30.16 16.3138 30.16 15.8383C30.16 15.294 29.7386 14.9437 29.244 14.8999C25.873 14.6058 22.5021 14.3055 19.1311 14.0114C18.6365 13.9676 18.2151 14.4744 18.2151 14.9499C18.2151 15.4942 18.6365 15.8446 19.1311 15.8884Z" fill="black"/>
<path d="M24.9632 16.5767C24.6151 16.6205 24.3464 16.6893 24.0288 16.8457C23.8029 16.9583 23.5952 17.1272 23.412 17.3024C23.0517 17.659 22.7769 18.1408 22.6487 18.6351C22.3617 19.6987 22.7403 20.9187 23.7174 21.4505C24.1387 21.682 24.6334 21.8009 25.1097 21.7696C25.586 21.7383 26.0685 21.6132 26.4593 21.3316C26.9051 21.0125 27.2532 20.5808 27.3998 20.0303C27.5524 19.4484 27.4486 18.8165 27.1494 18.3035C26.5143 17.2023 25.0425 16.5829 23.9128 17.2962C23.5036 17.5527 23.3143 18.147 23.583 18.5787C23.8517 19.0104 24.4013 19.1919 24.8349 18.9166C24.8899 18.8791 24.9509 18.8478 25.012 18.8228L24.7922 18.9166C24.8838 18.8791 24.9754 18.854 25.0731 18.8415L24.8288 18.8728C24.9387 18.8603 25.0425 18.8603 25.1525 18.8728L24.9082 18.8415C25.0364 18.8603 25.1647 18.8978 25.2868 18.9479L25.067 18.854C25.2135 18.9166 25.3479 18.9979 25.47 19.098L25.2868 18.9541C25.4028 19.048 25.5067 19.1543 25.5983 19.2732L25.4578 19.0855C25.5372 19.1981 25.6044 19.3108 25.6593 19.4359L25.5677 19.2107C25.6166 19.3233 25.6471 19.4421 25.6654 19.5673L25.6349 19.317C25.6471 19.4296 25.6471 19.5422 25.6349 19.6549L25.6654 19.4046C25.6471 19.5047 25.6227 19.5986 25.5861 19.6924L25.6777 19.4672C25.6349 19.5673 25.5799 19.6674 25.5189 19.755L25.6593 19.5673C25.586 19.6611 25.5067 19.7487 25.4151 19.8238L25.5983 19.6799C25.4883 19.7675 25.3662 19.8363 25.238 19.8926L25.4578 19.7988C25.3051 19.8613 25.1525 19.9051 24.9937 19.9302L25.238 19.8989C25.067 19.9239 24.896 19.9239 24.725 19.8989L24.9693 19.9302C24.8288 19.9114 24.6945 19.8738 24.5662 19.8175L24.7861 19.9114C24.67 19.8613 24.554 19.7925 24.4563 19.7174L24.6395 19.8613C24.554 19.7925 24.4746 19.7112 24.4074 19.6236L24.5479 19.8113C24.4807 19.7237 24.4258 19.6236 24.383 19.5235L24.4746 19.7487C24.4258 19.6236 24.3891 19.4985 24.3708 19.3671L24.4013 19.6173C24.383 19.4609 24.383 19.3045 24.4013 19.1481L24.3708 19.3983C24.3952 19.2294 24.438 19.0668 24.5051 18.9103L24.4135 19.1356C24.4868 18.9667 24.5723 18.8102 24.6822 18.6663L24.5418 18.854C24.6395 18.7289 24.7494 18.6163 24.8716 18.5162L24.6884 18.6601C24.8044 18.5725 24.9265 18.4974 25.0548 18.4411L24.8349 18.5349C24.9509 18.4912 25.067 18.4536 25.1891 18.4348L24.9448 18.4661H24.9754C25.2257 18.4286 25.4334 18.3785 25.6227 18.1846C25.7815 18.0219 25.9036 17.7529 25.8914 17.5214C25.8792 17.2899 25.8059 17.0271 25.6227 16.8582C25.4578 16.7018 25.2074 16.5516 24.9754 16.5829L24.9632 16.5767Z" fill="black"/>
<path d="M29.525 12.8287C30.0502 15.3564 30.5693 17.8778 31.0944 20.4054C31.1983 20.8997 31.7662 21.1875 32.2242 21.0623C32.725 20.9184 32.9692 20.4054 32.8654 19.9049C32.3402 17.3772 31.8212 14.8559 31.296 12.3282C31.1922 11.834 30.6242 11.5462 30.1662 11.6713C29.6655 11.8152 29.4212 12.3282 29.525 12.8287Z" fill="black"/>
<path d="M31.8333 17.0771C32.1387 16.9895 32.444 16.9082 32.7555 16.8456C32.9203 16.8143 33.0913 16.783 33.2562 16.758C33.5005 16.7205 33.0547 16.7768 33.299 16.758C33.3845 16.7455 33.47 16.7392 33.5554 16.733C34.1967 16.6704 34.844 16.6642 35.4852 16.7205C35.9615 16.758 36.4195 16.2575 36.4012 15.782C36.3768 15.2377 35.9982 14.8873 35.4852 14.8435C34.099 14.7309 32.6822 14.8811 31.3509 15.2752C30.8929 15.4129 30.557 15.9447 30.7097 16.4327C30.8624 16.9207 31.3448 17.2335 31.8394 17.0896L31.8333 17.0771Z" fill="black"/>
<path d="M36.737 15.0815C37.2744 14.6998 37.8851 14.9376 38.337 15.4005C39.0209 16.0888 39.0026 17.1086 38.795 18.0033C38.2393 20.437 36.6515 22.583 37.311 25.192C37.6041 26.362 39.369 25.8677 39.0759 24.6915C38.7278 23.3025 39.3385 21.8885 39.8453 20.6185C40.3827 19.2671 40.8835 17.8406 40.7064 16.3578C40.5598 15.1691 39.9369 14.1367 38.9354 13.5048C37.995 12.9042 36.7492 12.7916 35.8149 13.4548C35.4118 13.7426 35.2225 14.2744 35.4851 14.7374C35.7233 15.1503 36.3278 15.363 36.737 15.0752V15.0815Z" fill="black"/>
<path d="M41.3903 16.6144C41.5919 16.4017 41.9522 16.4017 42.1903 16.5894C42.3002 16.677 42.2758 16.6582 42.3125 16.7583C42.3674 16.9147 42.3735 17.0774 42.3735 17.2463C42.3857 17.7593 42.3735 18.2661 42.3674 18.7792C42.3552 20.8376 42.343 22.8897 42.3247 24.9481C42.3186 26.1556 44.1506 26.1556 44.1567 24.9481C44.175 22.3829 44.2666 19.8115 44.2056 17.2463C44.175 16.1014 43.7048 15.1441 42.6178 14.7312C41.7506 14.4059 40.7308 14.6123 40.0835 15.288C39.2591 16.1514 40.5537 17.4778 41.3781 16.6144H41.3903Z" fill="black"/>
<path d="M44.6759 19.4672C45.3232 19.2045 45.9705 18.9354 46.6239 18.6727C46.7461 18.6414 46.8499 18.5851 46.9354 18.5037C47.0331 18.4349 47.1125 18.3473 47.1735 18.241C47.2896 18.0408 47.3384 17.7404 47.2651 17.5152C47.1919 17.29 47.0575 17.071 46.8438 16.9521C46.63 16.8332 46.3613 16.7644 46.1354 16.8583C45.4881 17.121 44.8408 17.3901 44.1873 17.6529C44.0652 17.6841 43.9614 17.7404 43.8759 17.8218C43.7782 17.8906 43.6988 17.9782 43.6377 18.0846C43.5217 18.2848 43.4728 18.5851 43.5461 18.8103C43.6194 19.0355 43.7537 19.2545 43.9675 19.3734C44.1812 19.4923 44.4499 19.5611 44.6759 19.4672Z" fill="black"/>
<path d="M46.2454 14.1742V26.5371C46.2454 27.7446 48.0774 27.7446 48.0774 26.5371V14.1742C48.0774 12.9667 46.2454 12.9667 46.2454 14.1742Z" fill="black"/>
<path d="M49.3354 14.975C49.311 18.9666 49.4698 22.9583 49.824 26.9312C49.8667 27.438 50.2148 27.8697 50.74 27.8697C51.198 27.8697 51.6988 27.438 51.656 26.9312C51.3018 22.9583 51.137 18.9666 51.1675 14.975C51.1736 13.7675 49.3416 13.7675 49.3354 14.975Z" fill="black"/>
<path d="M23.3876 25.9175C22.9113 26.7058 22.9601 27.6568 23.3265 28.4764C23.6929 29.296 24.3586 29.8215 25.1158 30.1531C25.8731 30.4847 26.6792 30.6662 27.4975 30.7788C28.3158 30.8914 29.1585 30.9352 29.9646 30.6974C31.473 30.2595 32.4623 28.8393 32.273 27.2376C32.102 25.7923 31.2104 24.3909 29.9096 23.759C27.9738 22.8142 25.8181 23.1959 23.809 23.6213C23.3265 23.7214 23.0456 24.3095 23.1677 24.7788C23.3082 25.2918 23.809 25.5358 24.2975 25.4357C25.5738 25.1667 26.9662 24.8664 28.2242 25.1417C28.4929 25.2042 28.7921 25.2856 29.0242 25.3982C29.1402 25.4545 29.244 25.517 29.3539 25.5859C29.4028 25.6172 29.4455 25.6484 29.4944 25.686C29.3478 25.5796 29.5616 25.7485 29.5738 25.7548C29.6593 25.8299 29.7387 25.9112 29.818 25.9988C29.8547 26.0426 29.8913 26.0864 29.928 26.1302C30.1051 26.3367 29.873 26.0489 29.9646 26.1802C30.0379 26.2866 30.1051 26.3992 30.1661 26.5118C30.1967 26.5619 30.2211 26.6119 30.2455 26.662C30.2516 26.6808 30.3554 26.931 30.2883 26.7496C30.3249 26.8559 30.3616 26.9623 30.3921 27.0687C30.4043 27.125 30.4226 27.175 30.4348 27.2313C30.4348 27.2313 30.4837 27.4941 30.4593 27.3502C30.4409 27.2313 30.4593 27.4003 30.4593 27.4315C30.4593 27.5004 30.4654 27.5692 30.4654 27.6318C30.4654 27.6881 30.4654 27.7381 30.4654 27.7944C30.4654 27.9884 30.5142 27.6568 30.4532 27.857C30.4226 27.9571 30.4043 28.0572 30.3677 28.1636C30.4287 27.9821 30.3249 28.2386 30.2944 28.2949C30.2211 28.4201 30.0867 28.5702 29.9096 28.6828C29.5066 28.9394 29.0547 28.9957 28.5051 28.9832C27.9005 28.9706 27.4547 28.8893 26.8135 28.7329C26.1723 28.5765 25.586 28.4013 25.1525 27.9258C25.0486 27.8132 25.2074 28.0197 25.1219 27.8883C25.067 27.8069 25.0242 27.7256 24.9754 27.638C24.9021 27.5004 25.0059 27.7444 24.957 27.6005C24.9265 27.5129 24.9021 27.419 24.8777 27.3252C24.841 27.175 24.8777 27.4503 24.8777 27.2939C24.8777 27.2564 24.8838 27.0124 24.8777 27.0937C24.8654 27.2001 24.896 27.0186 24.9082 26.9936C24.9265 26.931 24.9265 26.9373 24.896 26.9998C24.9204 26.9435 24.9509 26.8872 24.9876 26.8372C25.2502 26.4055 25.0792 25.8048 24.6578 25.5546C24.2364 25.3043 23.6685 25.4607 23.4059 25.8924L23.3876 25.9175Z" fill="black"/>
<path d="M59.0636 12.9979L61.0116 12.5974C61.2254 12.5536 61.4513 12.3534 61.5612 12.1657C61.6773 11.9655 61.7261 11.6652 61.6528 11.44C61.5796 11.2147 61.4452 10.9958 61.2315 10.8769C61.0055 10.7518 60.7796 10.733 60.5231 10.783L58.575 11.1835C58.3613 11.2273 58.1353 11.4275 58.0254 11.6152C57.9094 11.8154 57.8605 12.1157 57.9338 12.3409C58.0071 12.5662 58.1414 12.7851 58.3552 12.904C58.5811 13.0291 58.8071 13.0479 59.0636 12.9979Z" fill="black"/>
<path d="M59.491 15.5881C59.7963 15.5067 60.1017 15.4379 60.4131 15.3816C60.4864 15.3691 60.4559 15.3754 60.3337 15.3941C60.3765 15.3941 60.4192 15.3816 60.462 15.3816C60.5475 15.3754 60.633 15.3691 60.7185 15.3628C60.7795 15.3628 60.8467 15.3628 60.9078 15.3628C60.9505 15.3628 60.9933 15.3628 61.036 15.3691C61.1398 15.3816 61.1215 15.3754 60.975 15.3566C60.975 15.3566 61.3902 15.4379 61.3841 15.4629C61.2681 15.4066 61.2375 15.4004 61.3047 15.4254C61.3291 15.4379 61.3597 15.4504 61.3841 15.4692C61.4207 15.488 61.4513 15.513 61.4879 15.5318C61.5673 15.5881 61.5551 15.5756 61.4513 15.4942C61.4879 15.4942 61.5551 15.6006 61.5856 15.6256C61.6528 15.7007 61.6406 15.6882 61.5612 15.5818C61.5856 15.6131 61.6101 15.6506 61.6284 15.6882C61.6345 15.7007 61.7261 15.8383 61.7139 15.8509C61.665 15.7195 61.6528 15.7069 61.6894 15.8008C61.7017 15.8383 61.7139 15.8821 61.7261 15.9197C61.7383 15.9635 61.7444 16.001 61.7505 16.0448C61.7627 16.1261 61.7627 16.1261 61.7505 16.0448C61.7383 15.9635 61.7383 15.9635 61.7505 16.0448C61.7505 16.0886 61.7505 16.1324 61.7505 16.1762C61.7505 16.2513 61.7444 16.3263 61.7444 16.4014C61.7383 16.4765 61.7444 16.4452 61.7566 16.3138C61.7505 16.3576 61.7444 16.4014 61.7322 16.4452C61.7139 16.5516 61.6833 16.7956 61.6039 16.8832C61.6589 16.758 61.6589 16.7455 61.6223 16.8331C61.604 16.8769 61.5795 16.9207 61.5551 16.9645C61.5185 17.0271 61.4818 17.0896 61.4452 17.1522C61.3963 17.2335 61.3414 17.3211 61.2803 17.39C61.4269 17.2148 61.2681 17.4025 61.2437 17.4275C61.1337 17.5589 61.0177 17.6778 60.9017 17.7966C60.6452 18.0531 60.3704 18.2909 60.0895 18.5224C59.717 18.8352 59.7475 19.5297 60.0895 19.8488C60.4803 20.2179 60.9933 20.1866 61.3841 19.8488C61.9093 19.4046 62.3978 18.9478 62.8192 18.391C63.2406 17.8342 63.5032 17.1585 63.5642 16.4327C63.6253 15.7069 63.4055 14.9624 62.9474 14.3931C62.4894 13.8237 61.7627 13.5547 61.0482 13.4921C60.3337 13.4296 59.6437 13.5922 58.9841 13.7799C58.52 13.9051 58.1903 14.4556 58.3429 14.9374C58.4956 15.4192 58.9719 15.732 59.4727 15.5943L59.491 15.5881Z" fill="black"/>
<path d="M62.5078 18.3912C63.0269 18.923 63.552 19.4486 64.0711 19.9804C64.236 20.1493 64.4803 20.2557 64.7184 20.2557C64.9566 20.2557 65.2131 20.1556 65.3658 19.9804C65.5184 19.8052 65.6467 19.5674 65.6345 19.3172C65.6223 19.0669 65.5429 18.8292 65.3658 18.654C64.8467 18.1222 64.3215 17.5966 63.8024 17.0648C63.6375 16.8959 63.3933 16.7896 63.1551 16.7896C62.9169 16.7896 62.6605 16.8897 62.5078 17.0648C62.3551 17.24 62.2269 17.4778 62.2391 17.728C62.2513 17.9783 62.3307 18.216 62.5078 18.3912Z" fill="black"/>
<path d="M58.9842 23.4462C61.1948 24.0218 63.5704 23.9092 65.7017 23.0583C66.1597 22.8769 66.4833 22.4264 66.3429 21.9008C66.2207 21.4504 65.6772 21.0625 65.2131 21.2439C63.3444 21.9884 61.378 22.1261 59.4727 21.6318C58.9964 21.5067 58.4773 21.7945 58.343 22.2888C58.2086 22.783 58.5017 23.3148 58.9842 23.4462Z" fill="black"/>
<path d="M62.9841 22.5517C62.9841 24.2785 62.9841 26.0053 62.9841 27.7384C62.9841 28.2264 63.4055 28.7019 63.9002 28.6769C64.3948 28.6518 64.8162 28.2639 64.8162 27.7384C64.8162 26.0116 64.8162 24.2848 64.8162 22.5517C64.8162 22.0637 64.3948 21.5882 63.9002 21.6133C63.4055 21.6383 62.9841 22.0262 62.9841 22.5517Z" fill="black"/>
<path d="M66.6238 17.5089L69.2924 17.4964C69.5123 17.4964 69.726 17.4964 69.9459 17.4964C70.0192 17.4964 70.0985 17.4964 70.1718 17.4964C70.2756 17.5027 70.294 17.5089 70.2329 17.4964C70.1718 17.4964 70.1901 17.4964 70.2878 17.5152C70.2512 17.4839 70.2085 17.4526 70.1718 17.4213C70.1413 17.3713 70.1474 17.3838 70.1962 17.4714C70.1657 17.3963 70.1535 17.39 70.1779 17.4526C70.2024 17.5465 70.184 17.3525 70.1901 17.5214C70.1901 17.6153 70.1901 17.7029 70.1901 17.7967C70.1535 19.4484 69.7749 21.0814 69.152 22.6393C68.9627 23.1085 69.3535 23.6716 69.7932 23.7967C70.3184 23.9469 70.7336 23.609 70.923 23.1398C71.2894 22.2263 71.5703 21.2753 71.7535 20.2993C71.9367 19.3233 72.1138 18.2972 72.01 17.34C71.9489 16.7581 71.7168 16.2076 71.2039 15.8947C70.7703 15.632 70.2817 15.6069 69.7932 15.6069C68.7428 15.6069 67.6925 15.6132 66.6421 15.6194C66.1474 15.6194 65.7261 16.0511 65.7261 16.5579C65.7261 17.0647 66.1474 17.4964 66.6421 17.4964L66.6238 17.5089Z" fill="black"/>
<path d="M73.5059 12.9793C73.2739 17.997 73.5792 23.0147 74.3853 27.9699C74.5807 29.1586 76.3456 28.6518 76.1502 27.4694C75.3746 22.6831 75.1181 17.8218 75.338 12.973C75.3929 11.7655 73.5609 11.7655 73.5059 12.973V12.9793Z" fill="black"/>
<path d="M75.3381 21.0564C75.6191 21.1002 75.9061 21.1377 76.1931 21.1377C76.4801 21.1377 76.7366 21.1002 77.0053 21.0564C77.4877 20.9813 77.9519 20.7999 78.3854 20.5746C78.819 20.3494 78.9717 19.6987 78.7152 19.2921C78.4343 18.8478 77.9213 18.7165 77.4633 18.9542C77.3778 18.998 77.2923 19.0418 77.2068 19.0793L77.4267 18.9855C77.1091 19.1231 76.7855 19.2107 76.4435 19.2608L76.6877 19.2295C76.3519 19.2733 76.0099 19.2733 75.674 19.2295L75.9183 19.2608C75.9183 19.2608 75.8633 19.2545 75.8389 19.2483C75.5885 19.2107 75.3626 19.2045 75.1305 19.3421C74.9412 19.4547 74.758 19.68 74.7091 19.9052C74.6542 20.1429 74.6664 20.412 74.8007 20.6309C74.9229 20.8249 75.1183 21.0251 75.3504 21.0626L75.3381 21.0564Z" fill="black"/>
<path d="M79.8632 15.9136H82.9777C83.454 15.9136 83.9181 15.4819 83.8937 14.9751C83.8693 14.4683 83.4907 14.0366 82.9777 14.0366H79.8632C79.3869 14.0366 78.9228 14.4683 78.9472 14.9751C78.9716 15.4819 79.3503 15.9136 79.8632 15.9136Z" fill="black"/>
<path d="M79.0754 19.7986C80.3761 19.6734 81.6708 19.5483 82.9715 19.4169C83.4479 19.3731 83.912 19.0165 83.8875 18.4785C83.8692 18.0092 83.4845 17.4899 82.9715 17.54C81.6708 17.6651 80.3761 17.7902 79.0754 17.9216C78.5991 17.9654 78.1349 18.322 78.1594 18.8601C78.1777 19.3293 78.5624 19.8486 79.0754 19.7986Z" fill="black"/>
<path d="M82.0068 21.0688C81.4999 20.9499 80.9381 21.0188 80.5045 21.3253C80.0709 21.6319 79.7595 22.0636 79.558 22.5829C79.1916 23.5339 79.5274 24.7351 80.4435 25.2169C81.3595 25.6986 82.5015 25.4546 83.2587 24.7351C84.0159 24.0156 84.2052 22.7268 83.619 21.7946C82.9778 20.781 81.6404 20.1679 80.4923 20.5933C80.2664 20.6809 80.0709 20.806 79.9427 21.025C79.8267 21.2252 79.7778 21.5255 79.8511 21.7508C79.9916 22.2013 80.4984 22.5829 80.9809 22.4077C81.0847 22.3702 81.1946 22.3389 81.3045 22.3264L81.0602 22.3577C81.2007 22.3389 81.3473 22.3389 81.4877 22.3577L81.2435 22.3264C81.4083 22.3514 81.5671 22.3952 81.7259 22.4578L81.506 22.3639C81.6709 22.4327 81.8236 22.5266 81.9641 22.6392L81.7808 22.4953C81.903 22.5954 82.0129 22.708 82.1045 22.8332L81.9641 22.6455C82.0434 22.7518 82.1106 22.8644 82.1595 22.9896L82.0679 22.7643C82.1167 22.8895 82.1534 23.0146 82.1717 23.146L82.1412 22.8957C82.1534 23.0146 82.1534 23.1335 82.1412 23.2523L82.1717 23.0021C82.1534 23.1147 82.1289 23.2148 82.0862 23.3212L82.1778 23.0959C82.1289 23.2086 82.074 23.3087 82.0007 23.4025L82.1412 23.2148C82.0557 23.3274 81.9579 23.4275 81.848 23.5151L82.0312 23.3712C81.9091 23.4651 81.7808 23.5401 81.6465 23.6027L81.8663 23.5089C81.732 23.5652 81.5854 23.609 81.4389 23.634L81.6831 23.6027C81.5488 23.6215 81.4144 23.6215 81.2801 23.6027L81.5244 23.634C81.4205 23.6152 81.3228 23.5902 81.2251 23.5464L81.445 23.6403C81.3534 23.6027 81.274 23.5527 81.1946 23.4901L81.3778 23.634C81.3106 23.5777 81.2496 23.5151 81.1885 23.4463L81.3289 23.634C81.274 23.5589 81.2251 23.4776 81.1885 23.39L81.2801 23.6152C81.2435 23.5276 81.2251 23.44 81.2068 23.3462L81.2373 23.5965C81.219 23.4713 81.219 23.3525 81.2373 23.2273L81.2068 23.4776C81.2251 23.3337 81.2618 23.1898 81.3167 23.0584L81.2251 23.2836C81.2801 23.146 81.3534 23.0271 81.4389 22.9082L81.2984 23.0959C81.3717 23.0021 81.4572 22.9145 81.5549 22.8394L81.3717 22.9833C81.445 22.927 81.5183 22.8832 81.6038 22.8457L81.3839 22.9395C81.4633 22.902 81.5488 22.877 81.6404 22.8644L81.3961 22.8957C81.4755 22.8832 81.561 22.8832 81.6404 22.8957L81.3961 22.8644C81.4328 22.8644 81.4694 22.877 81.506 22.8832C81.9702 22.9958 82.5198 22.7331 82.6358 22.2263C82.7396 21.7445 82.4953 21.194 81.9946 21.0688H82.0068Z" fill="black"/>
<path d="M85.6037 12.9794C85.4144 16.971 85.4754 20.9689 85.7869 24.9543C85.8785 26.1493 87.7105 26.1618 87.6189 24.9543C87.3136 20.9689 87.2525 16.971 87.4357 12.9794C87.4907 11.7719 85.6587 11.7719 85.6037 12.9794Z" fill="black"/>
<path d="M87.6493 19.4985H89.5974C89.8294 19.4985 90.0798 19.3922 90.2447 19.2233C90.4096 19.0543 90.5256 18.7916 90.5134 18.5601C90.489 18.0533 90.1104 17.6216 89.5974 17.6216H87.6493C87.4173 17.6216 87.1669 17.7279 87.002 17.8969C86.8371 18.0658 86.7211 18.3286 86.7333 18.5601C86.7577 19.0668 87.1364 19.4985 87.6493 19.4985Z" fill="black"/>
<path d="M93.1026 16.5452C93.0415 16.6766 93.0293 16.7141 93.066 16.6516C93.1026 16.589 93.0782 16.6203 92.9927 16.7391C93.0171 16.7079 93.127 16.614 93.0049 16.7141C92.8339 16.858 93.1637 16.639 92.9622 16.7391C92.8217 16.808 92.9438 16.7517 92.9866 16.7391C92.6935 16.7829 92.8706 16.7517 92.9377 16.7517C92.9805 16.7517 93.1209 16.7829 92.9683 16.7454C92.7912 16.7016 93.1209 16.808 93.1576 16.8017C93.0721 16.8205 92.9866 16.7141 93.1332 16.8017C93.1759 16.8267 93.2614 16.9268 93.1759 16.8205C93.0782 16.7079 93.1759 16.8205 93.2064 16.8518C93.3347 16.9832 93.1942 16.8956 93.2003 16.8267C93.2003 16.8518 93.2553 16.9268 93.2675 16.9456C93.2919 17.0019 93.2858 16.9769 93.237 16.883C93.2492 16.9268 93.2614 16.9644 93.2736 17.0082C93.3102 17.0958 93.2736 16.8893 93.2858 17.0582C93.2858 17.1458 93.2858 17.2334 93.2858 17.321C93.2858 17.4962 93.3103 17.2772 93.2797 17.3773C93.2614 17.4461 93.2492 17.5212 93.2309 17.5963C93.182 17.7715 93.127 17.9467 93.0599 18.1156L93.0232 18.2032C93.0538 18.1343 93.0538 18.1281 93.0232 18.1907C92.9927 18.2595 92.9622 18.3283 92.9316 18.3971C92.8461 18.5786 92.7667 18.76 92.6812 18.9414C92.3698 19.6171 92.0584 20.2928 91.7469 20.9686C91.5454 21.4128 91.6126 22.0009 92.0767 22.2511C92.4858 22.4701 93.1087 22.3888 93.3286 21.9133C93.7377 21.0311 94.153 20.1489 94.5499 19.2605C94.9469 18.3721 95.3072 17.3648 95.0018 16.3825C94.7759 15.638 94.1408 15.0624 93.3835 14.9248C92.9499 14.8434 92.5408 14.8747 92.1377 15.0687C91.7347 15.2626 91.4904 15.6255 91.3316 16.0447C91.1607 16.5014 91.521 17.0958 91.9729 17.2021C92.498 17.3273 92.9133 17.0395 93.1026 16.5452Z" fill="black"/>
<path d="M97.7134 13.3857C97.1455 18.147 97.1516 22.9582 97.7256 27.7194C97.7867 28.2262 98.1043 28.6516 98.6417 28.6579C99.0874 28.6579 99.6187 28.2199 99.5577 27.7194C98.9836 22.9582 98.9775 18.147 99.5455 13.3857C99.6065 12.879 99.0813 12.4535 98.6294 12.4473C98.0859 12.4473 97.7745 12.8852 97.7134 13.3857Z" fill="black"/>
</svg>
