<svg width="252" height="52" viewBox="0 0 252 52" fill="none" xmlns="http://www.w3.org/2000/svg">
<path d="M247.839 6.34153C220.229 0.586655 190.765 3.67019 161.999 4.20922C110.911 5.16044 59.505 -2.09261 8.90807 3.0519C7.50502 3.19458 5.96721 3.40068 5.07941 4.18544C4.23124 4.93056 4.21539 5.96897 4.23917 6.92812C4.56417 20.0946 4.88917 33.261 5.21417 46.4275C5.23795 47.4659 5.38063 48.6549 6.56173 49.2574C7.31478 49.6379 8.28978 49.6617 9.20929 49.6775C84.4032 50.9062 159.621 51.144 234.823 50.3989C237.922 50.3671 241.426 50.2086 243.431 48.5281C245.064 47.1568 245.167 45.2068 245.199 43.4074C245.373 31.3665 245.556 19.3257 245.73 7.28483" fill="white"/>
<path d="M81.1474 18.5963C84.0486 18.5963 86.9578 18.5963 89.859 18.5963C91.3889 18.5963 91.3889 16.2183 89.859 16.2183C86.9578 16.2183 84.0486 16.2183 81.1474 16.2183C79.6175 16.2183 79.6175 18.5963 81.1474 18.5963Z" fill="#202020"/>
<path d="M81.7181 18.5726L81.6785 22.7659L81.6626 24.8189C81.6626 25.4769 81.5913 26.1823 81.8291 26.8086C82.4394 28.4177 84.1992 28.1403 85.5785 28.061C86.9577 27.9817 88.4242 27.8866 89.851 27.7994C90.4931 27.7598 91.0401 27.2842 91.0401 26.6104C91.0401 26 90.4931 25.3817 89.851 25.4214C88.6224 25.5006 87.3858 25.572 86.1571 25.6512C85.5309 25.6909 84.8968 25.7384 84.2705 25.7701C84.1675 25.7701 84.0645 25.7781 83.9614 25.7781C83.898 25.7781 83.8346 25.7781 83.7712 25.7781H83.8425C83.8821 25.8019 83.9218 25.8256 83.9535 25.8653L84.0724 26.0793C83.9773 25.8811 84.0407 26.1269 84.0327 25.9049C83.9773 23.4714 84.0724 21.022 84.0962 18.5884C84.0962 17.9464 83.5492 17.3994 82.9071 17.3994C82.2651 17.3994 81.726 17.9464 81.7181 18.5884V18.5726Z" fill="#202020"/>
<path d="M95.0431 14.498C94.9638 20.1181 95.2096 25.7382 95.7644 31.3346C95.915 32.8407 98.2931 32.8565 98.1425 31.3346C97.5876 25.7382 97.3498 20.1181 97.4211 14.498C97.4449 12.9681 95.0669 12.9681 95.0431 14.498Z" fill="#202020"/>
<path d="M98.293 23.7012C100.037 23.3128 101.781 22.9323 103.525 22.5439C104.135 22.4091 104.547 21.6719 104.357 21.0774C104.151 20.4353 103.549 20.1024 102.891 20.2451C101.147 20.6335 99.4028 21.014 97.6589 21.4024C97.0485 21.5372 96.6363 22.2744 96.8266 22.8689C97.0327 23.5109 97.6351 23.8439 98.293 23.7012Z" fill="#202020"/>
<path d="M111.166 15.4574C109.153 18.0337 107.607 20.9032 106.592 24.0184C106.394 24.6288 106.822 25.3184 107.425 25.4849C108.067 25.6593 108.685 25.2709 108.891 24.6526C109.755 21.9891 111.142 19.3416 112.855 17.1459C113.251 16.6385 113.346 15.9568 112.855 15.4654C112.442 15.0532 111.571 14.958 111.174 15.4654L111.166 15.4574Z" fill="#202020"/>
<path d="M111.277 18.5724C111.349 21.0218 112.022 23.4237 113.251 25.548C113.56 26.0871 114.337 26.3249 114.876 25.9761C115.415 25.6273 115.637 24.9297 115.304 24.3511C115.043 23.8913 114.797 23.4237 114.591 22.9322C114.678 23.1383 114.511 22.7261 114.496 22.6944C114.456 22.5913 114.416 22.4804 114.377 22.3773C114.282 22.1078 114.194 21.8383 114.115 21.5688C113.972 21.0615 113.854 20.5383 113.774 20.0151C113.766 19.9596 113.758 19.9041 113.751 19.8487C113.766 19.9755 113.766 19.9676 113.751 19.8249C113.735 19.6901 113.719 19.5633 113.711 19.4285C113.687 19.1432 113.671 18.8657 113.663 18.5804C113.647 17.9621 113.132 17.3596 112.474 17.3913C111.816 17.423 111.269 17.9145 111.285 18.5804L111.277 18.5724Z" fill="#202020"/>
<path d="M119.807 16.2183C119.133 21.7512 119.291 27.3159 120.211 32.8092C120.464 34.3153 122.755 33.6732 122.502 32.175C121.622 26.9037 121.535 21.5214 122.185 16.2183C122.264 15.5762 121.582 15.0372 120.996 15.0293C120.29 15.0293 119.886 15.5842 119.807 16.2183Z" fill="#202020"/>
<path d="M134.939 14.4822C135.026 16.7176 135.105 18.945 135.201 21.1804C135.248 22.2584 135.478 23.2651 136.469 23.8597C137.293 24.3511 138.379 24.4066 139.315 24.5334C141.201 24.7792 143.23 24.7792 144.911 23.7645C146.338 22.9005 147.249 21.4895 147.757 19.9279C148.312 18.1999 148.391 16.3212 148.391 14.5139C148.391 12.984 146.013 12.984 146.013 14.5139C146.013 16.8286 145.973 19.6901 144.229 21.331C143.246 22.2505 141.756 22.3615 140.44 22.2743C139.695 22.2267 138.95 22.1237 138.221 21.9731C138.007 21.9334 137.769 21.8859 137.626 21.759C137.761 21.87 137.634 21.7907 137.626 21.6481C137.602 21.4182 137.602 21.1883 137.594 20.9664L137.341 14.4901C137.285 12.9682 134.899 12.9603 134.963 14.4901L134.939 14.4822Z" fill="#202020"/>
<path d="M141.534 15.0849C141.534 17.9861 141.534 20.8953 141.534 23.7965C141.534 25.3264 143.912 25.3264 143.912 23.7965C143.912 20.8953 143.912 17.9861 143.912 15.0849C143.912 13.555 141.534 13.555 141.534 15.0849Z" fill="#202020"/>
<path d="M146.211 17.3755C143.111 17.3755 140.012 17.3755 136.913 17.3755C135.383 17.3755 135.383 19.7535 136.913 19.7535C140.012 19.7535 143.111 19.7535 146.211 19.7535C147.741 19.7535 147.741 17.3755 146.211 17.3755Z" fill="#202020"/>
<path d="M139.853 22.9087C139.291 24.6605 138.728 26.4044 138.165 28.1562C137.975 28.7507 138.387 29.48 138.997 29.6227C139.647 29.7733 140.258 29.4245 140.464 28.7904C141.027 27.0385 141.589 25.2946 142.152 23.5428C142.342 22.9483 141.93 22.219 141.32 22.0763C140.67 21.9257 140.059 22.2745 139.853 22.9087Z" fill="#202020"/>
<path d="M134.4 31.2399C138.839 30.5581 143.254 29.7338 147.63 28.7667C149.12 28.4338 148.494 26.1429 146.995 26.4758C142.612 27.4508 138.197 28.2752 133.766 28.949C133.131 29.0441 132.783 29.8447 132.933 30.4155C133.124 31.0972 133.758 31.3429 134.4 31.2478V31.2399Z" fill="#202020"/>
<path d="M136.421 31.3666L135.708 37.613C135.597 38.6118 135.319 39.7136 135.858 40.641C136.286 41.3862 137.182 41.8776 137.991 42.0996C139.489 42.5118 141.153 42.0758 142.398 41.1959C143.817 40.1892 144.752 38.7465 145.117 37.0343C145.577 34.8624 145.236 32.6508 144.808 30.5026C144.681 29.8764 143.936 29.5118 143.341 29.6703C142.683 29.8526 142.382 30.5026 142.509 31.1368C142.802 32.6191 143.048 34.1252 142.929 35.6471C142.826 36.9154 142.374 38.0727 141.51 38.8733C141.209 39.1508 140.654 39.5154 140.345 39.6343C140.091 39.7374 139.83 39.8008 139.56 39.8563C139.314 39.9038 139.457 39.8721 139.513 39.8563C139.449 39.8563 139.394 39.8642 139.33 39.8642C139.267 39.8642 139.211 39.8642 139.148 39.8642C139.124 39.8642 138.815 39.8483 138.942 39.8642C138.728 39.8404 138.054 39.7057 137.911 39.4282C137.959 39.5233 137.911 39.2855 137.911 39.238C137.911 39.0794 137.935 38.9209 137.959 38.7624C138.014 38.2788 138.07 37.8032 138.125 37.3197L138.799 31.3587C138.871 30.7166 138.197 30.1697 137.61 30.1697C136.905 30.1697 136.493 30.7166 136.421 31.3587V31.3666Z" fill="#202020"/>
<path d="M143.888 33.063C142.144 33.063 140.4 33.063 138.657 33.063C138.038 33.063 137.436 33.6099 137.468 34.252C137.499 34.8941 137.991 35.441 138.657 35.441C140.4 35.441 142.144 35.441 143.888 35.441C144.507 35.441 145.109 34.8941 145.077 34.252C145.046 33.6099 144.554 33.063 143.888 33.063Z" fill="#202020"/>
<path d="M155.509 22.0921C156.801 22.0763 158.101 22.0366 159.393 22.0446C159.441 22.0446 159.671 22.0525 159.671 22.0525C159.671 22.0684 159.48 21.8543 159.496 21.8464C159.496 21.8464 159.417 22.2427 159.401 22.2745C159.219 22.9324 159.013 23.5903 158.822 24.2403C158.046 26.8641 157.269 29.4958 156.492 32.1196C156.056 33.594 158.355 34.2202 158.783 32.7537C159.71 29.6068 160.638 26.4598 161.573 23.3129C161.771 22.6312 161.961 21.9177 161.787 21.2043C161.597 20.4513 160.963 19.8964 160.218 19.7299C159.472 19.5635 158.703 19.6586 157.966 19.6665L155.509 19.6982C153.979 19.7141 153.979 22.0921 155.509 22.0763V22.0921Z" fill="#202020"/>
<path d="M168.842 17.4072V35.9956C168.842 37.5255 171.22 37.5255 171.22 35.9956V17.4072C171.22 15.8773 168.842 15.8773 168.842 17.4072Z" fill="#202020"/>
</svg>
