<svg width="252" height="52" viewBox="0 0 252 52" fill="none" xmlns="http://www.w3.org/2000/svg">
<g clip-path="url(#clip0_745_1748)">
<path d="M247.839 6.34153C220.23 0.586655 190.766 3.67019 161.999 4.20922C110.911 5.16044 59.5053 -2.09261 8.90831 3.0519C7.50526 3.19458 5.96746 3.40068 5.07965 4.18544C4.23148 4.93056 4.21563 5.96897 4.23941 6.92812C4.56441 20.0946 4.88941 33.261 5.21441 46.4275C5.23819 47.4659 5.38087 48.6549 6.56197 49.2574C7.31502 49.6379 8.29002 49.6617 9.20953 49.6775C84.4034 50.9062 159.621 51.144 234.823 50.3989C237.922 50.3671 241.426 50.2086 243.431 48.5281C245.064 47.1568 245.167 45.2068 245.199 43.4074C245.374 31.3665 245.556 19.3257 245.73 7.28483" fill="#FFE977"/>
<path d="M248.156 5.19205C230.083 1.45851 211.542 1.41095 193.175 1.98168C183.877 2.26705 174.579 2.71888 165.273 2.94875C155.967 3.17863 146.153 3.139 136.594 2.90912C117.553 2.46522 98.5448 1.35546 79.5125 0.642046C60.5039 -0.0713689 41.4478 -0.396369 22.4393 0.768875C17.7308 1.05424 13.0064 1.36339 8.32161 1.92619C6.64112 2.13229 4.70698 2.45729 3.69234 3.97924C2.67771 5.50119 3.06612 7.61766 3.10576 9.32985C3.34356 18.961 3.58137 28.6 3.81917 38.2311C3.87466 40.6408 3.93807 43.0506 3.99356 45.4603C4.0332 47.0853 4.0332 48.8055 5.42039 49.9152C6.96612 51.1518 9.30454 50.8664 11.1515 50.8902C13.4978 50.9299 15.8521 50.9616 18.1984 51.0012C27.9247 51.1518 37.643 51.2786 47.3692 51.3975C66.7344 51.6274 86.1076 51.7939 105.473 51.889C124.838 51.9841 144.053 52.0238 163.339 51.9921C182.625 51.9603 202.077 51.8652 221.45 51.7067C226.23 51.6671 231.018 51.6829 235.798 51.5719C239.135 51.4927 243.503 51.2073 245.413 47.9969C246.325 46.467 246.356 44.6439 246.388 42.9158C246.428 40.5061 246.459 38.0963 246.491 35.6945C246.562 30.875 246.634 26.0634 246.705 21.2439C246.777 16.4244 246.84 11.9299 246.911 7.2768C246.935 5.74692 244.557 5.74692 244.533 7.2768C244.398 16.5908 244.264 25.9049 244.121 35.2109C244.089 37.5414 244.05 39.864 244.018 42.1945C243.994 43.9225 244.2 46.0786 242.869 47.4183C241.648 48.6469 239.619 48.9402 237.978 49.0829C235.798 49.2731 233.594 49.2177 231.414 49.2414C212.691 49.4158 193.976 49.5347 175.253 49.5902C156.53 49.6457 137.806 49.6378 119.091 49.5744C100.289 49.511 81.4862 49.3762 62.6838 49.1939C53.3619 49.0988 44.0478 48.9878 34.7259 48.8689C30.0253 48.8055 25.3247 48.7421 20.6241 48.6707C18.2777 48.639 15.9234 48.5994 13.5771 48.5597C12.4436 48.5439 11.31 48.5201 10.1765 48.5042C9.25698 48.4884 7.80637 48.6866 7.00576 48.1317C6.37954 47.6957 6.41125 46.8792 6.39539 46.1896C6.36368 44.9847 6.3399 43.7799 6.3082 42.575C6.25271 40.2445 6.19722 37.9219 6.13381 35.5914C6.02283 31.0177 5.91185 26.436 5.79295 21.8622C5.67405 17.2884 5.56307 12.5481 5.4521 7.8951C5.43624 7.14205 5.23015 6.00851 5.6582 5.3268C6.14966 4.54997 7.47344 4.43107 8.29783 4.32009C10.549 4.0268 12.824 3.86827 15.0832 3.68595C33.4893 2.17192 51.9826 2.17985 70.4283 2.7268C88.8978 3.27375 107.344 4.34388 125.813 4.98595C144.283 5.62802 162.419 5.51705 180.746 4.81949C199.073 4.12192 216.821 3.36888 234.744 5.4457C239.04 5.9451 243.305 6.6268 247.537 7.49875C249.028 7.8079 249.67 5.51705 248.172 5.2079L248.156 5.19205Z" fill="black"/>
<path d="M53.4017 20.9029C51.9749 22.3932 50.659 24.3749 51.0792 26.5389C51.4279 28.3462 53.0529 29.4718 54.8048 29.6621C56.5566 29.8523 58.2133 28.9566 59.0615 27.4347C59.9731 25.8097 59.9493 23.7408 59.0536 22.1158C58.0389 20.2847 56.0414 19.0798 53.9962 18.7786C53.3621 18.6834 52.72 18.9371 52.5298 19.6109C52.3792 20.1737 52.72 20.9743 53.3621 21.0773C53.695 21.1249 54.0279 21.1962 54.3529 21.2993C54.5273 21.3548 54.6938 21.4103 54.8603 21.4737C54.8127 21.4499 54.6938 21.3944 54.9078 21.4975C54.995 21.5371 55.0901 21.5847 55.1773 21.6322C55.3359 21.7115 55.4944 21.8066 55.645 21.9017C55.7084 21.9414 55.7798 21.9889 55.8432 22.0365C55.867 22.0523 56.0255 22.1712 55.8908 22.0603C56.1682 22.2743 56.4218 22.5279 56.6517 22.7975C56.8103 22.9718 56.7151 22.8767 56.6834 22.8371C56.731 22.9005 56.7706 22.9639 56.8182 23.0273C56.9133 23.1779 57.0005 23.3286 57.0798 23.4871C57.0956 23.5109 57.1908 23.7328 57.1353 23.5981C57.0798 23.4633 57.167 23.6853 57.1749 23.709C57.2304 23.8834 57.2779 24.0578 57.3176 24.2401C57.3176 24.2718 57.3651 24.5017 57.3414 24.3511C57.3176 24.2005 57.3414 24.4304 57.3493 24.47C57.3651 24.6365 57.3651 24.8029 57.3572 24.9694C57.3572 25.0487 57.3017 25.4292 57.3414 25.1993C57.3097 25.3816 57.27 25.556 57.2225 25.7304C57.1987 25.8017 57.0639 26.1505 57.1511 25.9523C57.0877 26.0871 57.0243 26.2139 56.9529 26.3328C56.9133 26.3962 56.8737 26.4517 56.834 26.5151C56.6597 26.8005 56.9212 26.4279 56.7944 26.5706C56.6834 26.6975 56.5725 26.8005 56.4536 26.9194C56.2158 27.1493 56.5487 26.8639 56.3981 26.967C56.3426 26.9987 56.295 27.0383 56.2395 27.07C56.184 27.1017 56.1206 27.1255 56.0731 27.1651C55.9462 27.2603 56.2475 27.1176 56.0969 27.1651C55.9621 27.2048 55.8273 27.2603 55.6847 27.292C55.6212 27.3078 55.5578 27.3158 55.4944 27.3316C55.7005 27.292 55.5499 27.3316 55.431 27.3316C55.3121 27.3316 55.1773 27.3316 55.0426 27.3316C54.9792 27.3316 54.9158 27.3237 54.8523 27.3158C54.8999 27.3158 55.0981 27.3712 54.884 27.3158C54.7572 27.284 54.6383 27.2603 54.5115 27.2206C54.4481 27.2048 54.3926 27.181 54.3292 27.1572C54.5908 27.2444 54.3292 27.1572 54.2657 27.1255C54.1548 27.07 54.0517 26.9987 53.9408 26.9353C53.7029 26.7926 54.0279 27.0462 53.9249 26.9194C53.8853 26.8718 53.8298 26.8401 53.7901 26.7926C53.7505 26.745 53.7109 26.6975 53.6633 26.6578C53.5444 26.5627 53.7426 26.8164 53.6792 26.6816C53.6475 26.6103 53.592 26.5468 53.5523 26.4834C53.5365 26.4517 53.4255 26.2139 53.4889 26.3725C53.5523 26.531 53.4651 26.2853 53.4493 26.2456C53.4334 26.1901 53.37 25.9048 53.3779 25.9761C53.3938 26.1029 53.3779 25.8493 53.3779 25.8255C53.3779 25.7225 53.3779 25.6194 53.3779 25.5164C53.3859 25.2706 53.3938 25.4054 53.3779 25.4609C53.4017 25.334 53.4255 25.2151 53.4651 25.0962C53.4889 25.017 53.5206 24.9377 53.5444 24.8505C53.6475 24.5255 53.4731 24.9694 53.6237 24.6523C54.0121 23.8279 54.4718 23.2572 55.0822 22.6231C55.5261 22.1554 55.542 21.4023 55.0822 20.9426C54.6225 20.4828 53.8456 20.4749 53.4017 20.9426V20.9029Z" fill="black"/>
<path d="M62.9456 15.3701V29.3134C62.9456 30.8432 65.3236 30.8432 65.3236 29.3134V15.3701C65.3236 13.8402 62.9456 13.8402 62.9456 15.3701Z" fill="black"/>
<path d="M64.3724 20.7048L67.2736 21.2834C67.5907 21.3468 67.9077 21.331 68.1931 21.1645C68.4388 21.0218 68.6767 20.7365 68.7401 20.4511C68.8114 20.1499 68.7956 19.809 68.6212 19.5316C68.4626 19.2779 68.209 19.0481 67.9077 18.9846L65.0065 18.406C64.6895 18.3426 64.3724 18.3584 64.087 18.5249C63.8413 18.6676 63.6035 18.9529 63.5401 19.2383C63.4687 19.5395 63.4846 19.8804 63.659 20.1578C63.8175 20.4115 64.0712 20.6413 64.3724 20.7048Z" fill="black"/>
<path d="M66.2115 24.6922C66.378 24.6446 66.5444 24.6129 66.7188 24.5891L66.4018 24.6288C66.703 24.5891 66.9963 24.5971 67.2975 24.6288L66.9804 24.5891C67.2737 24.6288 67.567 24.708 67.8444 24.819L67.5591 24.7001C67.789 24.7952 68.0109 24.9221 68.217 25.0647C68.4548 25.2312 68.8591 25.2629 69.1365 25.1837C69.414 25.1044 69.7152 24.8983 69.8499 24.6367C69.9926 24.3593 70.0719 24.0263 69.9688 23.7172C69.8658 23.408 69.6835 23.194 69.4219 23.0038C68.3359 22.2349 66.8615 22.0208 65.5853 22.3855C65.292 22.4647 65.0304 22.6708 64.8719 22.9324C64.7133 23.194 64.6579 23.5666 64.753 23.8519C64.9511 24.4623 65.5774 24.8666 66.2194 24.6843L66.2115 24.6922Z" fill="black"/>
<path d="M56.3029 36.5826C56.8498 36.424 57.4047 36.2655 57.9675 36.1387C58.5303 36.0118 58.8395 35.9563 59.3389 35.9246C59.5925 35.9088 59.8541 35.9009 60.1157 35.9246C60.2425 35.9246 60.3693 35.9405 60.4962 35.9563C60.3218 35.9326 60.7023 36.0039 60.7498 36.0118C60.8767 36.0435 60.9956 36.0752 61.1224 36.1149C61.1937 36.1387 61.598 36.313 61.3126 36.1704C61.4791 36.2496 61.6297 36.3448 61.7882 36.4399C62.034 36.5984 61.6218 36.2813 61.8358 36.4795C61.9071 36.5429 61.9706 36.5984 62.0419 36.6698C62.1132 36.7411 62.1687 36.8045 62.2321 36.8759C62.4145 37.0661 62.137 36.7252 62.2718 36.9234C62.3828 37.0899 62.4779 37.2563 62.5809 37.4307C62.6047 37.4704 62.6206 37.51 62.6364 37.5496C62.5809 37.4149 62.573 37.3911 62.6047 37.4704C62.6285 37.5734 62.676 37.6685 62.6998 37.7637C62.7236 37.8509 62.7395 37.938 62.7632 38.0173C62.8187 38.2551 62.7632 37.7795 62.7632 38.0411C62.7632 38.1283 62.7712 38.2076 62.7632 38.2948C62.7632 38.3344 62.7632 38.3819 62.7632 38.4216C62.7553 38.5167 62.7632 38.4771 62.7791 38.3106C62.8267 38.3978 62.5651 38.8972 62.7315 38.5801C62.6919 38.6515 62.6047 38.7624 62.5889 38.8417C62.5413 38.913 62.5571 38.8893 62.6443 38.7783C62.6047 38.8258 62.5651 38.8655 62.5254 38.913C62.1053 39.3728 62.0419 40.1496 62.5254 40.5935C62.9852 41.0137 63.7541 41.0771 64.2059 40.5935C65.8151 38.8576 65.1571 36.1387 63.4449 34.7198C61.2254 32.8807 58.1974 33.5545 55.6767 34.2838C55.0821 34.4582 54.6462 35.1319 54.8443 35.7502C55.0425 36.3685 55.6687 36.7649 56.3108 36.5826H56.3029Z" fill="black"/>
<path d="M72.9888 18.2553C72.0296 20.1974 71.0705 22.1395 70.1114 24.0815C69.8339 24.6364 69.9449 25.3974 70.5394 25.7065C71.0784 25.9919 71.8711 25.873 72.1644 25.2785C73.1235 23.3364 74.0827 21.3944 75.0418 19.4523C75.3193 18.8974 75.2083 18.1364 74.6138 17.8273C74.0748 17.5419 73.2821 17.6608 72.9888 18.2553Z" fill="black"/>
<path d="M74.5979 20.4354L74.6455 20.4671L74.4077 20.2848C75.0498 20.7842 75.6284 21.3628 76.1278 22.0049L75.9455 21.7671C76.3735 22.322 76.7382 22.9165 77.0394 23.5427C77.1583 23.7964 77.4833 24.0183 77.7528 24.0897C78.0382 24.1689 78.4187 24.1293 78.6723 23.9708C78.926 23.8122 79.1479 23.5665 79.2193 23.2574C79.2906 22.9324 79.2431 22.647 79.1004 22.3378C78.7278 21.5531 78.2443 20.8397 77.6973 20.158C77.1504 19.4763 76.5083 18.9055 75.8187 18.3824C75.5888 18.208 75.1607 18.1921 74.8992 18.2635C74.6217 18.3427 74.3205 18.5488 74.1857 18.8104C74.0431 19.0878 73.9638 19.4208 74.0668 19.7299L74.1857 20.0153C74.2888 20.1976 74.4315 20.3324 74.6138 20.4433L74.5979 20.4354Z" fill="black"/>
<path d="M74.1146 25.8652C74.1463 25.9207 74.17 25.9841 74.1938 26.0476C74.1383 25.9128 74.1383 25.9128 74.1938 26.0396C74.2335 26.1506 74.2731 26.2536 74.3127 26.3646C74.392 26.5945 74.4554 26.8323 74.5109 27.078C74.5347 27.1732 74.5505 27.2683 74.5664 27.3713C74.5743 27.4347 74.5902 27.4982 74.5981 27.5695C74.5822 27.4189 74.5743 27.411 74.5981 27.5457C74.6139 27.7756 74.6377 28.0055 74.6377 28.2354C74.6377 28.4652 74.6377 28.6951 74.6139 28.925C74.6139 28.9884 74.5981 29.4085 74.5981 29.0994C74.5981 29.1945 74.5664 29.2976 74.5505 29.3927C74.4554 29.8762 74.3127 30.3439 74.1225 30.8037C73.8847 31.3823 74.3841 32.1354 74.9548 32.2701C75.6524 32.4286 76.1597 32.0561 76.4213 31.4378C77.3249 29.2738 77.1664 26.8006 76.1914 24.6921C75.9298 24.1293 75.0658 23.939 74.5664 24.264C73.9798 24.6366 73.8609 25.2866 74.1383 25.889L74.1146 25.8652Z" fill="black"/>
<path d="M70.5316 32.7694C73.7578 33.0627 76.9761 32.9359 80.1785 32.4444C80.8126 32.3493 81.1614 31.5487 81.0108 30.978C80.8206 30.2962 80.1864 30.0505 79.5444 30.1456C76.5639 30.5975 73.5279 30.6609 70.5316 30.3834C69.8895 30.328 69.3425 30.97 69.3425 31.5725C69.3425 32.2621 69.8895 32.706 70.5316 32.7615V32.7694Z" fill="black"/>
<path d="M71.9029 37.5891C72.0614 37.4781 72.2279 37.3909 72.4023 37.3037C72.6322 37.1848 72.1962 37.3672 72.4181 37.3037C72.5212 37.272 72.6242 37.2324 72.7352 37.2086C72.8145 37.1848 72.8938 37.169 72.973 37.1531C73.0127 37.1452 73.0523 37.1373 73.0919 37.1294C73.187 37.1135 73.1474 37.1214 72.9809 37.1452C73.0285 37.0818 73.4803 37.1214 73.5596 37.1294C73.6389 37.1294 73.7261 37.1373 73.8053 37.1452C74.0511 37.169 73.5438 37.0976 73.8529 37.1611C74.0273 37.1928 74.2017 37.2403 74.3681 37.3037C74.4236 37.3196 74.4712 37.3434 74.5188 37.3592C74.3761 37.2958 74.3444 37.28 74.4236 37.3196C74.5108 37.3672 74.598 37.4068 74.6773 37.4544C74.7486 37.494 74.82 37.5415 74.8834 37.5812C74.9309 37.6129 74.9706 37.6446 75.0181 37.6763C74.8992 37.5812 74.8675 37.5574 74.9389 37.6129C75.0657 37.7318 75.1925 37.8428 75.3035 37.9696C75.3352 38.0092 75.3748 38.0489 75.4066 38.0885L75.3194 37.9696C75.3669 37.9775 75.47 38.1915 75.4938 38.2312C75.5334 38.2946 75.7474 38.5879 75.7157 38.6513C75.6523 38.4848 75.6364 38.469 75.684 38.5879C75.6999 38.6355 75.7236 38.6909 75.7395 38.7385C75.7633 38.8178 75.787 38.8891 75.8108 38.9684C75.8346 39.0476 75.8505 39.119 75.8663 39.1983C75.8742 39.2537 75.8901 39.3013 75.898 39.3568C75.8742 39.1745 75.8742 39.1428 75.8901 39.2775C75.898 39.4361 75.9139 39.5946 75.9059 39.7531C75.9059 39.8483 75.8901 39.9355 75.8901 40.0306C75.8822 40.1257 75.8901 40.0861 75.9059 39.9117C75.898 39.9672 75.8901 40.0147 75.8742 40.0702C75.8346 40.2525 75.787 40.4269 75.7236 40.6013C75.5096 41.1879 75.9614 41.933 76.5559 42.0678C77.2297 42.2184 77.7925 41.8617 78.0224 41.2355C78.6883 39.4044 78.0779 37.1056 76.5639 35.8769C74.931 34.5452 72.4816 34.3391 70.706 35.544C70.1907 35.8928 69.9133 36.6062 70.2779 37.169C70.6108 37.6842 71.3559 37.9696 71.9029 37.597V37.5891Z" fill="black"/>
<path d="M83.5792 21.1489C84.4749 21.2837 85.2755 21.1727 86.1158 20.8318C86.7261 20.5861 87.3048 20.2532 87.9469 20.0946C88.0658 20.0629 88.2005 20.0312 88.3194 20.0154C88.1371 20.0392 88.5255 20.0154 88.5652 20.0154C88.6286 20.0154 88.692 20.0154 88.7475 20.0233C88.6286 20.0074 88.6444 20.0074 88.7871 20.0392C88.8188 20.0471 89.1121 20.1818 88.9377 20.0867C89.0566 20.166 89.0646 20.166 88.9774 20.0946C89.0646 20.1898 89.0804 20.2056 89.0408 20.1501C89.0011 20.0946 89.12 20.3404 89.128 20.3721C89.1835 20.594 89.1597 20.8952 89.1438 21.1727C88.9774 23.6696 87.7487 26.0952 85.8859 27.8233C84.7603 28.8617 86.4487 30.5422 87.5664 29.5038C89.9365 27.3081 91.4585 24.1135 91.5377 20.8715C91.5615 19.9678 91.3316 19.0483 90.6579 18.4062C90.0871 17.8593 89.2865 17.6294 88.5018 17.6294C87.717 17.6294 86.9877 17.8593 86.2743 18.1684C85.6798 18.4221 84.8792 18.9373 84.2054 18.8422C83.5713 18.7471 82.9292 19.0007 82.7389 19.6745C82.5883 20.2373 82.9292 21.0459 83.5713 21.141L83.5792 21.1489Z" fill="black"/>
<path d="M90.3803 24.1215C91.5218 26.0715 92.6633 28.0215 93.8047 29.9715C94.1218 30.5105 94.8907 30.7483 95.4297 30.3996C95.9688 30.0508 96.1907 29.3453 95.8578 28.7746C94.7163 26.8246 93.5749 24.8746 92.4334 22.9246C92.1163 22.3855 91.3474 22.1477 90.8084 22.4965C90.2694 22.8453 90.0474 23.5508 90.3803 24.1215Z" fill="black"/>
<path d="M97.8079 18.8579V32.8012C97.8079 34.331 100.186 34.331 100.186 32.8012V18.8579C100.186 17.328 97.8079 17.328 97.8079 18.8579Z" fill="black"/>
<path d="M100.733 27.6012C102.088 27.6012 103.444 27.6012 104.799 27.6012C105.417 27.6012 106.02 27.0542 105.988 26.4122C105.956 25.7701 105.465 25.2231 104.799 25.2231C103.444 25.2231 102.088 25.2231 100.733 25.2231C100.114 25.2231 99.512 25.7701 99.5437 26.4122C99.5754 27.0542 100.067 27.6012 100.733 27.6012Z" fill="black"/>
<path d="M93.5194 32.413C92.7267 32.2941 91.9895 32.3892 91.2761 32.7618C90.6736 33.0709 90.1822 33.5782 89.8096 34.141C89.0328 35.3301 89.0169 36.9233 89.8889 38.0569C90.6261 39.0081 91.8706 39.5392 93.0675 39.4599C93.6779 39.4203 94.3041 39.2697 94.8273 38.9288C95.4931 38.4929 95.937 37.8825 96.2224 37.1453C96.8011 35.6709 96.3492 33.9587 95.8578 32.5319C95.6596 31.9453 95.0334 31.4935 94.3913 31.6996C93.8047 31.8898 93.345 32.5319 93.559 33.166C93.7413 33.6971 93.9078 34.2282 94.0108 34.7752C94.0346 34.8862 94.0346 35.0288 94.0742 35.1319C93.9791 34.8465 94.0584 34.9813 94.0742 35.1002C94.0742 35.1557 94.0822 35.2191 94.0901 35.2746C94.1059 35.5441 94.0742 35.8057 94.0742 36.0752C94.0742 35.7343 94.098 35.9246 94.0742 36.0276C94.0663 36.0831 94.0505 36.1386 94.0346 36.1941C94.0187 36.2496 94.0029 36.3051 93.987 36.3526L93.9633 36.416C93.9157 36.5349 93.9315 36.5032 94.0108 36.3209C93.9474 36.4081 93.9078 36.527 93.8523 36.6221C93.8206 36.6776 93.7572 36.7331 93.7334 36.7965C93.8602 36.638 93.884 36.6063 93.8126 36.6935C93.7968 36.7093 93.7809 36.7331 93.7572 36.749C93.6937 36.8203 93.6224 36.8758 93.5511 36.9392C93.8444 36.6697 93.6462 36.8679 93.5431 36.9234C93.4956 36.9471 93.4559 36.9709 93.4084 36.9947C93.3053 37.0423 93.1706 37.0502 93.5035 36.9551C93.4084 36.9788 93.3133 37.0185 93.2102 37.0502C93.0913 37.0819 92.798 37.0977 93.2261 37.066C93.123 37.066 93.02 37.0819 92.9169 37.0898C92.8297 37.0898 92.7425 37.0898 92.6553 37.0819C92.5444 37.074 92.3937 37.0185 92.7663 37.0977C92.7187 37.0898 92.6633 37.0819 92.6157 37.066C92.5127 37.0423 92.4096 37.0185 92.3145 36.9868C92.2828 36.9788 92.2511 36.963 92.2194 36.9551C92.0212 36.8916 92.5047 37.0898 92.3145 36.9947C92.2352 36.9551 92.1639 36.9154 92.0846 36.8758C92.037 36.852 91.9974 36.8203 91.9578 36.7965C91.72 36.638 92.1401 36.963 91.9974 36.8282C91.934 36.7727 91.8706 36.7173 91.8151 36.6538C91.7834 36.6142 91.7517 36.5746 91.712 36.5429C91.9419 36.7807 91.8547 36.741 91.8072 36.6618C91.7517 36.5746 91.7041 36.4874 91.6486 36.3923C91.5614 36.2337 91.712 36.5429 91.7041 36.5349C91.6645 36.4953 91.6486 36.3605 91.6328 36.3051C91.6169 36.2496 91.6169 36.1862 91.5931 36.1307C91.6803 36.4081 91.6169 36.3764 91.6169 36.2733C91.6169 36.1544 91.6169 36.0435 91.6169 35.9246C91.6169 35.7264 91.6011 36.0752 91.5931 36.0673C91.5852 36.0276 91.6169 35.9325 91.6248 35.8929C91.6486 35.7819 91.7041 35.6709 91.7279 35.5599C91.6566 35.8691 91.6486 35.7343 91.7041 35.6313C91.7358 35.5599 91.7755 35.4886 91.8151 35.4252C91.8389 35.3935 91.8547 35.3538 91.8785 35.3221C92.0529 35.0685 91.7358 35.4727 91.8706 35.3221C91.9498 35.2349 92.0291 35.1398 92.1163 35.0605C92.1559 35.0209 92.2035 34.9813 92.2511 34.9416C92.4175 34.799 92.0291 35.0923 92.1956 34.9813C92.3145 34.9099 92.4255 34.8386 92.5523 34.7752C92.7187 34.688 92.4255 34.8307 92.4255 34.8227C92.4651 34.7831 92.5919 34.7673 92.6474 34.7514C92.7029 34.7355 92.7584 34.7276 92.8139 34.7118C93.012 34.6642 92.5047 34.7276 92.7267 34.7276C92.8456 34.7276 93.3133 34.7673 92.8852 34.7038C93.2102 34.7514 93.5035 34.7593 93.8047 34.5849C94.0505 34.4423 94.2883 34.1569 94.3517 33.8715C94.4785 33.3087 94.1773 32.5081 93.5194 32.4051V32.413Z" fill="black"/>
<path d="M108.438 17.4074C107.486 21.4818 106.543 25.5482 105.592 29.6226C105.243 31.1129 107.534 31.747 107.883 30.2568C108.834 26.1824 109.777 22.1159 110.729 18.0415C111.077 16.5513 108.786 15.9171 108.438 17.4074Z" fill="black"/>
<path d="M109.159 22.0527C109.27 22.1795 109.381 22.3063 109.484 22.4332C109.539 22.4966 109.587 22.56 109.643 22.6313C109.666 22.6551 109.761 22.7819 109.69 22.6868C109.896 22.9484 110.086 23.2258 110.269 23.5112C110.649 24.0899 110.99 24.6923 111.283 25.3185C111.355 25.4691 111.426 25.6197 111.489 25.7783C111.569 25.9685 111.442 25.6515 111.513 25.8417C111.545 25.921 111.577 26.0002 111.608 26.0795C111.727 26.3966 111.838 26.7136 111.933 27.0307C112.139 27.6966 112.29 28.3704 112.401 29.0521C112.496 29.6704 113.297 30.0667 113.868 29.8844C114.533 29.6704 114.803 29.0838 114.7 28.4179C114.224 25.4295 112.845 22.6393 110.839 20.3722C110.427 19.9045 109.571 19.9204 109.159 20.3722C108.699 20.8716 108.715 21.5533 109.159 22.0527Z" fill="black"/>
<path d="M109.531 31.01C108.786 32.5874 108.564 34.2996 108.913 36.0118C109.04 36.6222 109.793 37.0344 110.38 36.8441C111.03 36.638 111.339 36.0356 111.212 35.3777C111.18 35.235 111.156 35.1002 111.141 34.9576L111.18 35.2746C111.101 34.688 111.101 34.0935 111.18 33.507L111.141 33.824C111.188 33.5069 111.252 33.1978 111.339 32.8887C111.378 32.738 111.434 32.5954 111.481 32.4527C111.505 32.3893 111.545 32.3179 111.561 32.2545C111.489 32.4289 111.474 32.4606 111.529 32.3417C111.545 32.3021 111.569 32.2545 111.592 32.2149C111.735 31.9216 111.799 31.6204 111.711 31.2954C111.632 31.0179 111.426 30.7167 111.164 30.582C110.633 30.3045 109.825 30.4076 109.539 31.01H109.531Z" fill="black"/>
<path d="M103.38 39.7767C107.312 38.5242 111.497 38.223 115.556 38.9919C116.19 39.1108 116.84 38.8175 117.022 38.1596C117.181 37.5809 116.824 36.82 116.19 36.6931C111.711 35.845 107.098 36.0907 102.746 37.4779C101.296 37.9376 101.914 40.2364 103.38 39.7687V39.7767Z" fill="black"/>
<path d="M128.619 18.3029H135.008C135.627 18.3029 136.229 17.7559 136.197 17.1138C136.166 16.4718 135.674 15.9248 135.008 15.9248H128.619C128.001 15.9248 127.399 16.4718 127.43 17.1138C127.462 17.7559 127.954 18.3029 128.619 18.3029Z" fill="black"/>
<path d="M129.785 22.3539L133.288 22.3935C133.796 22.3935 134.303 22.3935 134.81 22.4173C134.874 22.4173 134.929 22.4252 134.993 22.4331C134.842 22.4094 134.81 22.4094 134.897 22.4173C135 22.4411 135.103 22.4569 135.199 22.4807C135.238 22.4886 135.278 22.5045 135.325 22.5203C135.413 22.552 135.381 22.5362 135.238 22.4807C135.286 22.5045 135.333 22.5283 135.381 22.56C135.468 22.6154 135.468 22.6234 135.389 22.56C135.31 22.4965 135.31 22.5045 135.389 22.5758C135.294 22.4411 135.278 22.4252 135.341 22.5362L135.302 22.4331C135.333 22.5758 135.341 22.5758 135.31 22.449C135.31 22.5917 135.31 22.5996 135.318 22.4728L135.294 22.5837C135.246 22.7344 135.199 22.885 135.143 23.0276C135.056 23.2575 135.191 22.9246 135.08 23.1703C135.032 23.2734 134.985 23.3844 134.937 23.4874C134.826 23.7331 134.699 23.9789 134.58 24.2167C134.343 24.6606 134.089 25.0965 133.819 25.5246C133.669 25.7545 133.518 25.9764 133.36 26.1984C133.288 26.2935 133.225 26.3886 133.153 26.4837C133.066 26.5947 133.058 26.6106 133.13 26.5234C133.082 26.5868 133.035 26.6423 132.987 26.7057C132.599 27.1892 132.48 27.9185 132.987 28.3862C133.415 28.7825 134.255 28.9014 134.668 28.3862C135.46 27.3953 136.174 26.349 136.744 25.2154C137.378 23.963 138.211 22.3618 137.212 21.0697C136.411 20.0392 135.056 20.0234 133.867 20.0075C132.503 19.9917 131.14 19.9758 129.777 19.96C129.158 19.96 128.556 20.5148 128.588 21.149C128.619 21.7831 129.111 22.3301 129.777 22.338L129.785 22.3539Z" fill="black"/>
<path d="M136.459 23.416C137.196 24.4148 137.933 25.4056 138.671 26.4044C138.861 26.658 139.059 26.8641 139.384 26.9513C139.669 27.0306 140.05 26.991 140.304 26.8324C140.557 26.6739 140.779 26.4282 140.851 26.119C140.922 25.8099 140.914 25.4532 140.732 25.1995C139.994 24.2007 139.257 23.2099 138.52 22.2111C138.33 21.9574 138.132 21.7513 137.807 21.6641C137.521 21.5849 137.141 21.6245 136.887 21.783C136.633 21.9416 136.411 22.1873 136.34 22.4965C136.269 22.8056 136.277 23.1623 136.459 23.416Z" fill="black"/>
<path d="M129.785 33.4117H141.405C142.935 33.4117 142.935 31.0337 141.405 31.0337H129.785C128.255 31.0337 128.255 33.4117 129.785 33.4117Z" fill="black"/>
<path d="M136.301 31.192C134.85 32.7377 134.303 35.1474 135.127 37.1371C135.254 37.4383 135.381 37.6761 135.674 37.8505C135.928 38.0011 136.309 38.0645 136.594 37.9694C136.879 37.8743 137.157 37.6999 137.307 37.4224C137.458 37.145 137.545 36.7962 137.426 36.5029C137.347 36.3127 137.284 36.1224 137.228 35.9322C137.204 35.8371 137.18 35.7499 137.165 35.6548C137.157 35.5993 137.149 35.5359 137.133 35.4804C137.141 35.5279 137.165 35.7499 137.149 35.5834C137.133 35.3853 137.125 35.1792 137.125 34.981C137.125 34.8859 137.133 34.7907 137.141 34.6956C137.141 34.656 137.165 34.4816 137.141 34.6798C137.109 34.8938 137.141 34.656 137.149 34.6243C137.18 34.434 137.228 34.2517 137.284 34.0694C137.315 33.9663 137.355 33.8712 137.387 33.7682C137.434 33.6255 137.284 33.9901 137.347 33.8554C137.371 33.8157 137.387 33.7682 137.41 33.7285C137.498 33.5462 137.601 33.3718 137.712 33.2054C137.735 33.1657 137.767 33.1261 137.791 33.0865C137.91 32.9121 137.664 33.2371 137.759 33.1261C137.83 33.0468 137.894 32.9596 137.973 32.8883C138.401 32.4365 138.457 31.6517 137.973 31.2078C137.49 30.7639 136.744 30.7243 136.293 31.2078L136.301 31.192Z" fill="black"/>
<path d="M144.307 18.8815H147.208C147.509 18.8815 147.834 18.7467 148.048 18.5327C148.262 18.3187 148.413 17.9857 148.397 17.6924C148.365 17.0504 147.874 16.5034 147.208 16.5034H144.307C144.005 16.5034 143.68 16.6382 143.466 16.8522C143.252 17.0662 143.102 17.3991 143.118 17.6924C143.149 18.3345 143.641 18.8815 144.307 18.8815Z" fill="black"/>
<path d="M144.497 23.0275C145.297 22.441 145.884 22.1873 146.859 22.005C146.899 22.005 147.24 21.9495 147.025 21.9733C147.129 21.9653 147.224 21.9574 147.327 21.9495C147.549 21.9336 147.771 21.9336 147.993 21.9416C148.111 21.9416 148.238 21.9574 148.357 21.9653C148.738 21.9971 148.151 21.9178 148.524 21.9891C148.761 22.0367 148.999 22.0842 149.229 22.1556L148.397 20.6891C147.945 23.3763 146.827 25.8495 145.139 27.8471C144.727 28.3385 144.655 29.044 145.139 29.5275C145.567 29.9556 146.407 30.019 146.819 29.5275C148.801 27.1812 150.172 24.3592 150.688 21.3233C150.799 20.6812 150.529 20.055 149.855 19.8568C147.652 19.2227 145.155 19.619 143.292 20.9745C142.777 21.355 142.515 22.005 142.864 22.5995C143.165 23.1147 143.966 23.408 144.489 23.0275H144.497Z" fill="black"/>
<path d="M147.58 25.4687C148.547 26.634 149.514 27.7992 150.474 28.9645C150.656 29.1864 151.036 29.3132 151.314 29.3132C151.607 29.3132 151.956 29.1864 152.154 28.9645C152.352 28.7425 152.519 28.4413 152.503 28.1242C152.487 27.8071 152.368 27.5376 152.154 27.284C151.187 26.1187 150.22 24.9535 149.261 23.7882C149.078 23.5663 148.698 23.4395 148.421 23.4395C148.127 23.4395 147.778 23.5663 147.58 23.7882C147.382 24.0102 147.216 24.3114 147.232 24.6285C147.247 24.9456 147.366 25.2151 147.58 25.4687Z" fill="black"/>
<path d="M152.764 25.2548C154.128 24.8902 155.491 24.5256 156.847 24.1609C157.449 24.0024 157.877 23.3048 157.679 22.6945C157.481 22.0841 156.863 21.6877 156.213 21.8621C154.849 22.2268 153.486 22.5914 152.13 22.956C151.528 23.1146 151.1 23.8121 151.298 24.4225C151.496 25.0329 152.114 25.4292 152.764 25.2548Z" fill="black"/>
<path d="M156.482 18.2792V29.9C156.482 31.4299 158.86 31.4299 158.86 29.9V18.2792C158.86 16.7494 156.482 16.7494 156.482 18.2792Z" fill="black"/>
<path d="M146.59 33.3086C146.439 33.1977 146.534 33.2611 146.558 33.4196C146.574 33.5306 146.558 33.3245 146.566 33.5306C146.566 33.6653 146.566 33.7922 146.566 33.9269C146.566 34.4897 146.534 35.0367 146.629 35.5916C146.835 36.8361 147.826 37.708 149.039 37.9458C150.363 38.2074 151.766 38.0727 153.097 38.0727C154.619 38.0727 156.149 38.0568 157.671 38.0489C159.193 38.0409 159.201 35.6629 157.671 35.6708C156.141 35.6788 154.762 35.6867 153.304 35.6946C152.614 35.6946 151.916 35.6946 151.227 35.7025C150.727 35.7025 150.085 35.7342 149.665 35.655C149.475 35.6153 149.237 35.544 149.15 35.4885C149.086 35.4489 149.007 35.3538 148.991 35.3062C149.023 35.3855 148.944 35.1159 148.944 35.0842C148.975 35.2507 148.928 34.8781 148.928 34.8781C148.92 34.6483 148.928 34.4263 148.928 34.1964C148.96 33.0074 148.777 32.0086 147.779 31.2556C147.263 30.8672 146.447 31.1763 146.154 31.6836C145.797 32.294 146.066 32.9281 146.582 33.3086H146.59Z" fill="black"/>
<path d="M162.308 17.7005L162.269 23.8359C162.269 24.8188 162.118 25.9206 162.356 26.8798C162.61 27.9103 163.466 28.5048 164.48 28.6395C165.495 28.7743 166.462 28.7743 167.453 28.8298C168.444 28.8853 169.506 28.9487 170.528 29.0042C171.551 29.0597 172.51 28.9408 173.184 28.1481C173.763 27.4743 173.929 26.5944 173.961 25.7304C174.048 23.4475 173.961 21.1487 173.961 18.8658C173.961 17.3359 171.583 17.3359 171.583 18.8658C171.583 20.6097 171.583 22.3615 171.583 24.1054C171.583 24.5334 171.583 24.9615 171.583 25.3895C171.583 25.6273 171.567 25.9999 171.551 26.095C171.527 26.2456 171.488 26.4042 171.432 26.5469C171.488 26.42 171.305 26.6658 171.416 26.5627C171.392 26.5865 171.297 26.642 171.345 26.6341C171.385 26.6341 171.345 26.6182 171.329 26.6261C171.171 26.6816 170.964 26.6499 170.79 26.6499C169.046 26.5865 167.302 26.4597 165.558 26.3566C165.249 26.3408 164.892 26.2932 164.663 26.2773C164.615 26.2773 164.544 26.2298 164.544 26.2377C164.544 26.2219 164.686 26.3725 164.686 26.3725C164.663 26.3725 164.647 26.2536 164.639 26.1981C164.544 25.3737 164.639 24.478 164.639 23.6456C164.655 21.6639 164.663 19.6902 164.678 17.7084C164.686 16.1786 162.308 16.1786 162.3 17.7084L162.308 17.7005Z" fill="black"/>
<path d="M172.193 21.7354H164.06C163.418 21.7354 162.871 22.2823 162.871 22.9244C162.871 23.5664 163.418 24.1134 164.06 24.1134H172.193C172.835 24.1134 173.382 23.5664 173.382 22.9244C173.382 22.2823 172.835 21.7354 172.193 21.7354Z" fill="black"/>
<path d="M174.492 17.1142V28.7349C174.492 30.2648 176.87 30.2648 176.87 28.7349V17.1142C176.87 15.5843 174.492 15.5843 174.492 17.1142Z" fill="black"/>
<path d="M177.425 25.8575H180.913C181.531 25.8575 182.133 25.3106 182.102 24.6685C182.07 24.0264 181.579 23.4795 180.913 23.4795H177.425C176.807 23.4795 176.204 24.0264 176.236 24.6685C176.268 25.3106 176.759 25.8575 177.425 25.8575Z" fill="black"/>
<path d="M165.233 33.3005C167.754 33.4828 170.267 33.6652 172.788 33.8554C173.406 33.903 174 33.2767 173.977 32.6664C173.945 31.9847 173.454 31.5249 172.788 31.4773C170.267 31.295 167.754 31.1127 165.233 30.9225C164.615 30.8749 164.021 31.5011 164.044 32.1115C164.076 32.7932 164.568 33.253 165.233 33.3005Z" fill="black"/>
<path d="M164.829 32.1514C163.418 33.5069 163.394 35.6392 164.219 37.3038C165.138 39.1587 167.168 40.0624 169.165 40.102C170.307 40.1258 171.472 39.888 172.534 39.4758C173.113 39.2538 173.573 38.6672 173.366 38.0093C173.184 37.4465 172.526 36.9392 171.9 37.177C171.416 37.3672 170.917 37.5179 170.402 37.6209C170.267 37.6447 170.124 37.6685 169.99 37.6922C170.275 37.6526 169.839 37.7002 169.783 37.7081C169.546 37.724 169.3 37.7319 169.062 37.724C168.927 37.724 168.793 37.7081 168.65 37.6922C168.507 37.6764 168.515 37.6764 168.666 37.6922C168.602 37.6843 168.531 37.6685 168.468 37.6526C168.238 37.6051 168.008 37.5416 167.786 37.4703C167.723 37.4465 167.659 37.4227 167.596 37.399C167.723 37.4544 167.723 37.4544 167.596 37.399C167.477 37.3355 167.358 37.2721 167.239 37.2087C167.152 37.1532 166.993 37.0898 166.93 37.0026C167.065 37.1057 167.08 37.1136 166.977 37.0343C166.946 37.0105 166.914 36.9788 166.882 36.955C166.811 36.8916 166.747 36.8203 166.676 36.749C166.637 36.7093 166.605 36.6697 166.565 36.6221C166.486 36.5191 166.494 36.5349 166.597 36.6697C166.47 36.5983 166.335 36.2654 166.272 36.1386C166.256 36.099 166.232 36.0672 166.216 36.0276C166.161 35.9087 166.169 35.9246 166.24 36.0831C166.185 36.0276 166.153 35.8453 166.129 35.774C166.097 35.6709 166.074 35.5599 166.05 35.4569C166.042 35.4014 166.026 35.3538 166.018 35.2983C166.002 35.1874 166.002 35.1953 166.018 35.2983C166.034 35.4014 166.034 35.4014 166.018 35.2983C166.018 35.2429 166.018 35.1874 166.01 35.1398C166.01 35.0368 166.01 34.9258 166.01 34.8227C166.01 34.7672 166.01 34.7197 166.026 34.6642C166.002 34.8465 165.994 34.8782 166.026 34.7435C166.05 34.6563 166.066 34.5691 166.09 34.474C166.098 34.4422 166.153 34.2203 166.177 34.2203C166.105 34.3868 166.098 34.4105 166.153 34.2916C166.177 34.2441 166.201 34.1965 166.224 34.1569C166.248 34.1093 166.28 34.0697 166.312 34.0221C166.383 33.9191 166.375 33.9349 166.272 34.0697C166.272 34.0221 166.462 33.8715 166.494 33.8319C166.946 33.4038 166.962 32.5794 166.494 32.1514C166.026 31.7233 165.289 31.6916 164.813 32.1514H164.829Z" fill="black"/>
<path d="M182.078 23.5112C183.132 23.6459 184.171 23.2417 185.177 22.9959C185.296 22.9642 185.407 22.9484 185.526 22.9167C185.843 22.8374 185.344 22.9008 185.653 22.9008C185.756 22.9008 185.859 22.9008 185.97 22.9008C185.716 22.9008 185.97 22.9008 186.041 22.9325C185.78 22.8612 186.136 23.0197 185.946 22.8691C185.978 22.9008 186.105 23.0673 186.065 22.9959C186.152 23.1545 186.152 23.3843 186.168 23.5904C186.303 26.1667 185.732 28.7667 184.551 31.0575C184.258 31.6282 184.401 32.3496 184.979 32.6825C185.51 32.9917 186.311 32.8252 186.604 32.2545C187.341 30.8276 187.904 29.3057 188.213 27.7282C188.522 26.1508 188.729 24.4069 188.467 22.8057C188.221 21.2917 186.945 20.3801 185.439 20.5545C184.25 20.6971 183.101 21.2758 182.078 21.141C181.444 21.0618 180.889 21.7435 180.889 22.3301C180.889 23.0435 181.436 23.4398 182.078 23.5191V23.5112Z" fill="black"/>
<path d="M191.154 18.8739C191.677 25.0568 192.2 31.2477 192.724 37.4306C192.85 38.9446 195.228 38.9605 195.102 37.4306C194.578 31.2477 194.055 25.0568 193.532 18.8739C193.405 17.3599 191.027 17.344 191.154 18.8739Z" fill="black"/>
</g>
<defs>
<clipPath id="clip0_745_1748">
<rect width="252" height="52" fill="white"/>
</clipPath>
</defs>
</svg>
