<svg width="252" height="52" viewBox="0 0 252 52" fill="none" xmlns="http://www.w3.org/2000/svg">
<g clip-path="url(#clip0_736_1968)">
<path d="M247.608 6.1511C219.998 0.396225 190.534 3.47976 161.768 4.01879C110.68 4.97001 59.2741 -2.28304 8.67711 2.86147C7.27406 3.00415 5.73626 3.21025 4.84845 3.99501C4.00028 4.74013 3.98443 5.77854 4.00821 6.73769C4.33321 19.9042 4.65821 33.0706 4.98321 46.2371C5.00699 47.2755 5.14967 48.4645 6.33077 49.067C7.08382 49.4474 8.05882 49.4712 8.97833 49.4871C84.1722 50.7157 159.39 50.9535 234.592 50.2084C237.691 50.1767 241.195 50.0182 243.2 48.3377C244.833 46.9663 244.936 45.0163 244.968 43.217C245.142 31.1761 245.325 19.1353 245.499 7.0944" fill="#FFE977"/>
<path d="M248.156 5.19205C230.083 1.45851 211.542 1.41095 193.175 1.98168C183.877 2.26705 174.579 2.71888 165.273 2.94875C155.967 3.17863 146.153 3.139 136.594 2.90912C117.553 2.46522 98.5448 1.35546 79.5125 0.642046C60.5039 -0.0713689 41.4478 -0.396369 22.4393 0.768875C17.7308 1.05424 13.0064 1.36339 8.32161 1.92619C6.64112 2.13229 4.70698 2.45729 3.69234 3.97924C2.67771 5.50119 3.06612 7.61766 3.10576 9.32985C3.34356 18.9609 3.58137 28.6 3.81917 38.2311C3.87466 40.6408 3.93807 43.0506 3.99356 45.4603C4.0332 47.0853 4.0332 48.8055 5.42039 49.9152C6.96612 51.1518 9.30454 50.8664 11.1515 50.8902C13.4978 50.9299 15.8521 50.9616 18.1984 51.0012C27.9247 51.1518 37.643 51.2786 47.3692 51.3975C66.7344 51.6274 86.1076 51.7939 105.473 51.889C124.759 51.9841 144.053 52.0238 163.339 51.992C182.625 51.9603 202.077 51.8652 221.45 51.7067C226.23 51.667 231.018 51.6829 235.798 51.5719C239.135 51.4927 243.503 51.2073 245.413 47.9969C246.325 46.467 246.356 44.6439 246.388 42.9158C246.428 40.5061 246.459 38.0963 246.491 35.6945C246.562 30.875 246.634 26.0634 246.705 21.2439C246.777 16.4244 246.84 11.9299 246.911 7.2768C246.935 5.74692 244.557 5.74692 244.533 7.2768C244.398 16.5908 244.264 25.9049 244.121 35.2109C244.089 37.5414 244.05 39.864 244.018 42.1945C243.994 43.9225 244.2 46.0786 242.869 47.4183C241.648 48.6469 239.619 48.9402 237.978 49.0829C235.798 49.2731 233.594 49.2177 231.414 49.2414C212.691 49.4158 193.976 49.5347 175.253 49.5902C156.53 49.6457 137.806 49.6378 119.091 49.5744C100.289 49.511 81.4862 49.3762 62.6838 49.1939C53.3619 49.0988 44.0478 48.9878 34.7259 48.8689C30.0253 48.8055 25.3247 48.7421 20.6241 48.6707C18.2777 48.639 15.9234 48.5994 13.5771 48.5597C12.4436 48.5439 11.31 48.5201 10.1765 48.5042C9.25698 48.4884 7.80637 48.6866 7.00576 48.1317C6.37954 47.6957 6.41125 46.8792 6.39539 46.1896C6.36368 44.9847 6.3399 43.7799 6.3082 42.575C6.25271 40.2445 6.19722 37.9219 6.13381 35.5914C6.02283 31.0177 5.91185 26.4359 5.79295 21.8622C5.67405 17.2884 5.56307 12.5481 5.4521 7.89509C5.43624 7.14205 5.23015 6.00851 5.6582 5.3268C6.14966 4.54997 7.47344 4.43107 8.29783 4.32009C10.549 4.0268 12.824 3.86827 15.0832 3.68595C33.4893 2.17192 51.9826 2.17985 70.4283 2.7268C88.8978 3.27375 107.344 4.34387 125.813 4.98595C144.283 5.62802 162.419 5.51705 180.746 4.81948C199.073 4.12192 216.821 3.36888 234.744 5.4457C239.04 5.94509 243.305 6.6268 247.537 7.49875C249.028 7.8079 249.67 5.51705 248.172 5.2079L248.156 5.19205Z" fill="black"/>
<path d="M55.0898 13.3884C56.144 13.2774 57.1983 13.2536 58.2526 13.3408C58.5142 13.3646 58.7678 13.3884 59.0294 13.4201C58.8074 13.3884 59.18 13.4439 59.1879 13.4439C59.3227 13.4677 59.4654 13.4914 59.6001 13.5152C60.1312 13.6103 60.6544 13.7372 61.1696 13.8878C61.7642 14.0622 62.4934 13.6817 62.6361 13.0555C62.7788 12.4293 62.4459 11.7793 61.8038 11.589C59.6318 10.9707 57.341 10.7567 55.0977 11.0024C54.4794 11.0658 53.877 11.5018 53.9087 12.1914C53.9325 12.778 54.4318 13.4518 55.0977 13.3805L55.0898 13.3884Z" fill="black"/>
<path d="M53.346 18.0174C54.6619 18.0174 55.9698 18.0095 57.2856 18.0016H59.1722C59.4417 17.9937 59.7033 17.9857 59.9728 18.0016C60.0125 18.0016 60.3375 18.0333 60.2106 18.0174C60.0838 18.0016 60.4009 18.065 60.4405 18.0729C60.5277 18.0967 60.6625 18.1601 60.5119 18.0809C60.5753 18.1126 60.6308 18.1443 60.6942 18.1839L60.6149 18.1284C60.71 18.2235 60.71 18.2235 60.6149 18.1284L60.5991 18.065C60.6387 18.2077 60.6466 18.2315 60.6149 18.1363L60.6308 18.0809C60.5594 18.5485 60.1631 19.0162 59.8619 19.4601C59.1247 20.5382 58.3875 21.6083 57.6582 22.6864C57.2936 23.2174 57.5552 24.0022 58.0863 24.3114C58.6728 24.6522 59.3466 24.4144 59.7113 23.8833C60.5674 22.6388 61.4472 21.4022 62.2716 20.1418C62.6838 19.5156 63.0326 18.7784 62.993 18.0095C62.9533 17.2406 62.5253 16.5113 61.8515 16.1071C60.71 15.4254 59.2119 15.6156 57.9436 15.6235C56.4137 15.6235 54.8838 15.6315 53.346 15.6394C52.7039 15.6394 52.157 16.1863 52.157 16.8284C52.157 17.4705 52.7039 18.0174 53.346 18.0174Z" fill="black"/>
<path d="M61.6137 21.4897C62.1924 22.2665 62.779 23.0354 63.3576 23.8123C63.429 23.947 63.532 24.0659 63.6668 24.1452C63.7778 24.2482 63.9125 24.3196 64.071 24.3592C64.3564 24.4385 64.7369 24.3989 64.9906 24.2403C65.2442 24.0818 65.4662 23.836 65.5375 23.5269C65.6089 23.2178 65.6088 22.861 65.4186 22.6074C64.8399 21.8306 64.2534 21.0617 63.6747 20.2848C63.6034 20.1501 63.5003 20.0312 63.3656 19.9519C63.2546 19.8489 63.1198 19.7775 62.9613 19.7379C62.6759 19.6586 62.2954 19.6982 62.0418 19.8568C61.7881 20.0153 61.5662 20.261 61.4948 20.5702C61.4235 20.8793 61.4235 21.236 61.6137 21.4897Z" fill="black"/>
<path d="M65.5216 14.498C65.7594 18.7547 65.9972 23.0114 66.235 27.2681C66.3222 28.79 68.7003 28.798 68.6131 27.2681C68.3753 23.0114 68.1375 18.7547 67.8997 14.498C67.8125 12.976 65.4344 12.9681 65.5216 14.498Z" fill="black"/>
<path d="M58.2448 28.3781C56.6594 29.7732 56.6039 32.1275 57.4521 33.9268C58.4112 35.964 60.607 36.9707 62.7868 37.0104C64.0472 37.0342 65.3155 36.7567 66.4808 36.2732C67.0515 36.0354 67.5271 35.4726 67.3131 34.8067C67.1387 34.2598 66.4649 33.7207 65.8466 33.9744C65.2917 34.2043 64.721 34.3866 64.1344 34.5055C63.9838 34.5372 63.8411 34.561 63.6905 34.5848C63.9442 34.5451 63.4923 34.6006 63.4527 34.6086C63.1911 34.6244 62.9375 34.6323 62.6759 34.6244C62.5253 34.6244 62.3826 34.6086 62.2399 34.5927C62.0972 34.5768 62.0972 34.5768 62.232 34.5927C62.1606 34.5848 62.0893 34.5689 62.0179 34.5531C61.7326 34.4976 61.4551 34.4104 61.1856 34.3232C61.0588 34.2756 61.0509 34.2677 61.1698 34.3232C61.1064 34.2915 61.035 34.2598 60.9716 34.2281C60.8448 34.1647 60.71 34.0933 60.5911 34.014C60.5356 33.9823 60.1948 33.7128 60.4326 33.9189C60.3533 33.8555 60.274 33.7842 60.2027 33.7128C60.1314 33.6415 60.06 33.5701 59.9887 33.4909C59.949 33.4433 59.9094 33.4037 59.8777 33.3561C59.9728 33.4829 59.9807 33.4909 59.9015 33.3799C59.7747 33.1738 59.6558 32.9756 59.5448 32.7616C59.4893 32.6427 59.4972 32.6506 59.5606 32.8012C59.5368 32.7457 59.521 32.6903 59.4972 32.6348C59.4576 32.5238 59.4179 32.4128 59.3942 32.2939C59.3704 32.175 59.3466 32.064 59.3149 31.9451C59.2594 31.7073 59.3149 32.1829 59.307 31.8659C59.299 31.6439 59.299 31.4378 59.307 31.2159C59.3228 31.0811 59.3149 31.1049 59.299 31.2793C59.307 31.2238 59.3149 31.1683 59.3307 31.1128C59.3545 31.0018 59.3862 30.8909 59.4179 30.7878C59.4338 30.7323 59.4576 30.6848 59.4734 30.6293C59.41 30.7799 59.4021 30.8037 59.4576 30.6848C59.5131 30.5896 59.5686 30.4866 59.624 30.3915C59.6954 30.2884 59.6875 30.2964 59.5844 30.4232C59.624 30.3756 59.6557 30.336 59.6954 30.2964C59.7746 30.2092 59.8618 30.1299 59.949 30.0506C60.4167 29.6384 60.4009 28.7823 59.949 28.3701C59.4496 27.9104 58.7679 27.9342 58.2686 28.3701L58.2448 28.3781Z" fill="black"/>
<path d="M73.9558 16.0441C73.9717 15.9727 73.9954 15.9093 74.0113 15.838C74.0747 15.6081 73.8845 16.0282 73.9954 15.8855C74.0272 15.838 74.0747 15.7666 74.0985 15.7191C74.1302 15.6319 74.0034 15.8459 73.9954 15.8459C74.0272 15.8221 74.0589 15.7745 74.0906 15.7428C74.1302 15.7032 74.2015 15.6556 74.2333 15.616C74.1778 15.7032 74.0034 15.7745 74.1698 15.6715C74.2253 15.6398 74.2808 15.6081 74.3363 15.5764C74.5503 15.4575 74.0826 15.6556 74.3125 15.5843C74.4393 15.5447 74.582 15.5288 74.7089 15.4813C74.8198 15.4416 74.5265 15.505 74.5424 15.505C74.582 15.505 74.6217 15.4971 74.6613 15.4971C74.7406 15.4971 74.8198 15.4892 74.907 15.4892C74.9784 15.4892 75.0497 15.4892 75.1211 15.4892C75.24 15.4971 75.4223 15.5684 75.0814 15.4813C75.2241 15.5209 75.3668 15.5367 75.5095 15.5764C75.5808 15.6002 75.6522 15.6239 75.7235 15.6477C75.9851 15.7349 75.5253 15.5447 75.6997 15.6319C75.8424 15.7032 75.9772 15.7745 76.1119 15.8617C76.1436 15.8855 76.1753 15.9093 76.215 15.9331C76.318 15.9965 76.0961 15.838 76.0961 15.838C76.1357 15.8934 76.207 15.9331 76.2625 15.9806C76.318 16.0282 76.3656 16.0837 76.4131 16.1392C76.4448 16.1709 76.5082 16.266 76.3973 16.1154C76.2704 15.9489 76.3893 16.1075 76.4131 16.1471C76.5162 16.3056 76.6509 16.4959 76.6985 16.6782C76.643 16.48 76.6826 16.6544 76.7143 16.7495C76.754 16.8684 76.7857 16.9873 76.8174 17.1142C76.8412 17.2252 76.857 17.3282 76.8808 17.4392C76.9204 17.6136 76.865 17.2252 76.8808 17.4075C76.8808 17.455 76.8887 17.5026 76.8967 17.5502C76.9204 17.788 76.9204 18.0337 76.9125 18.2715C76.9125 18.5331 76.8808 18.7947 76.8491 19.0563C76.8333 19.1989 76.857 19.0008 76.857 18.9849C76.857 19.0642 76.8333 19.1514 76.8174 19.2306C76.7936 19.3654 76.7698 19.4922 76.7461 19.627C76.643 20.166 76.5003 20.6892 76.3576 21.2203C76.1991 21.8227 76.5558 22.5361 77.19 22.6867C77.8241 22.8373 78.482 22.4965 78.6564 21.8544C79.243 19.6745 79.8217 16.9873 78.4662 14.9581C77.4832 13.4916 75.4698 12.7623 73.7656 13.2776C72.7509 13.5867 71.9107 14.3636 71.6729 15.4178C71.5381 16.0203 71.8552 16.7337 72.5052 16.8843C73.1076 17.0191 73.8211 16.702 73.9717 16.052L73.9558 16.0441Z" fill="black"/>
<path d="M71.0071 26.9195C74.3997 27.411 77.8162 27.5457 81.2327 27.2604C81.8747 27.2049 82.4217 26.753 82.4217 26.0713C82.4217 25.4689 81.8747 24.8268 81.2327 24.8823C78.0382 25.1518 74.8119 25.0884 71.6412 24.6287C71.0071 24.5335 70.365 24.7872 70.1747 25.461C70.0241 26.0238 70.365 26.8323 71.0071 26.9274V26.9195Z" fill="black"/>
<path d="M76.5557 25.5405V36.5825C76.5557 38.1124 78.9337 38.1124 78.9337 36.5825V25.5405C78.9337 24.0106 76.5557 24.0106 76.5557 25.5405Z" fill="black"/>
<path d="M87.019 12.7541V15.0767C87.019 15.3779 87.1538 15.7029 87.3678 15.9169C87.5818 16.131 87.9148 16.2816 88.2081 16.2657C88.5014 16.2499 88.8343 16.1547 89.0483 15.9169C89.2623 15.6791 89.3971 15.4017 89.3971 15.0767V12.7541C89.3971 12.4529 89.2623 12.1279 89.0483 11.9139C88.8343 11.6999 88.5014 11.5493 88.2081 11.5651C87.9148 11.581 87.5818 11.6761 87.3678 11.9139C87.1538 12.1517 87.019 12.4291 87.019 12.7541Z" fill="black"/>
<path d="M85.2991 17.4313H90.5308C91.1491 17.4313 91.7515 16.8843 91.7198 16.2422C91.6881 15.6002 91.1967 15.0532 90.5308 15.0532H85.2991C84.6808 15.0532 84.0784 15.6002 84.1101 16.2422C84.1418 16.8843 84.6333 17.4313 85.2991 17.4313Z" fill="black"/>
<path d="M85.4258 18.9291C84.3557 19.6188 83.7374 20.8791 83.8245 22.1554C83.8721 22.7816 84.0306 23.4157 84.3874 23.9389C84.7995 24.5493 85.3465 24.9694 86.0361 25.231C87.2489 25.6828 88.6203 25.2944 89.5953 24.5255C90.6337 23.709 91.0538 22.2346 90.6178 20.9901C90.1026 19.5236 88.6599 18.2791 87.0349 18.4218C86.7178 18.4535 86.4325 18.5328 86.1947 18.7706C85.9886 18.9767 85.83 19.3175 85.8459 19.6108C85.8697 20.2054 86.3691 20.8554 87.0349 20.7999C87.1855 20.784 87.3361 20.7919 87.4788 20.7999L87.1617 20.7602C87.2886 20.7761 87.4154 20.8078 87.5422 20.8474C87.5977 20.8633 87.6453 20.8871 87.7008 20.9029C87.3599 20.7999 87.5264 20.8316 87.6215 20.8791C87.7404 20.9425 87.8435 21.0218 87.9544 21.0852C87.677 20.9188 87.8038 20.9663 87.891 21.0377C87.9386 21.0773 87.9861 21.1249 88.0337 21.1724C88.0813 21.22 88.1209 21.2675 88.1685 21.3151C88.3032 21.4657 88.002 21.0773 88.1209 21.2517C88.1922 21.3547 88.2557 21.4578 88.3111 21.5608C88.3666 21.6639 88.3983 21.8541 88.2953 21.5054C88.3111 21.5608 88.3349 21.6084 88.3508 21.6639C88.3904 21.7907 88.4221 21.9096 88.438 22.0444L88.3983 21.7273C88.4221 21.9096 88.4221 22.0919 88.3983 22.2822L88.438 21.9651C88.4221 22.0919 88.3904 22.2188 88.3508 22.3377C88.2636 22.6072 88.4697 22.1157 88.3745 22.2822C88.3508 22.3297 88.327 22.3694 88.3032 22.4169C88.2715 22.4724 88.2319 22.5279 88.2002 22.5834C88.0892 22.7499 88.3904 22.3614 88.2636 22.4962C88.1764 22.5913 88.0892 22.6706 88.002 22.7578C87.8197 22.9243 88.2319 22.5993 88.0654 22.7102C88.0178 22.7419 87.9703 22.7736 87.9227 22.8054C87.8752 22.8371 87.8197 22.8608 87.7721 22.8925C87.7246 22.9163 87.5105 23.0114 87.7325 22.9163C87.9544 22.8212 87.7325 22.9163 87.6849 22.9322C87.6294 22.948 87.5739 22.9718 87.5185 22.9877C87.3996 23.0194 87.2727 23.0432 87.1538 23.059L87.4709 23.0194C87.2569 23.0432 87.0428 23.0432 86.8288 23.0194L87.1459 23.059C87.0349 23.0432 86.916 23.0194 86.813 22.9877C86.7654 22.9718 86.7178 22.956 86.6703 22.9401C87.0111 23.0352 86.8764 23.0273 86.7733 22.9797C86.6703 22.9243 86.5752 22.8608 86.4721 22.7974C86.7654 22.9797 86.6386 22.9322 86.5593 22.8529C86.5197 22.8133 86.4721 22.7736 86.4404 22.7261C86.3611 22.6389 86.2977 22.4883 86.488 22.7974C86.4642 22.7578 86.4325 22.7182 86.4087 22.6785C86.3849 22.6389 86.3611 22.5913 86.3374 22.5517C86.3136 22.5121 86.2185 22.2901 86.3136 22.5121C86.4087 22.734 86.3136 22.5121 86.3056 22.4724C86.2977 22.4328 86.2739 22.3773 86.266 22.3297C86.2343 22.2188 86.2105 22.0999 86.1947 21.9889L86.2343 22.306C86.2026 22.0682 86.2105 21.8383 86.2343 21.6084L86.1947 21.9255C86.2185 21.7749 86.2502 21.6322 86.2898 21.4895C86.3294 21.3706 86.4642 21.1486 86.2739 21.4895C86.3136 21.4261 86.3374 21.3547 86.377 21.2913C86.4166 21.2279 86.4563 21.1645 86.4959 21.1011C86.5831 20.9743 86.4087 21.2279 86.4008 21.2279C86.4087 21.2279 86.4721 21.1407 86.48 21.1328C86.5276 21.0773 86.5831 21.0297 86.6386 20.9743C86.7496 20.8633 86.5276 21.0773 86.5117 21.0694C86.5117 21.0694 86.6306 20.9901 86.6386 20.9822C87.1617 20.6413 87.4233 19.9121 87.0666 19.3572C86.7337 18.834 85.9965 18.5724 85.4416 18.9291H85.4258Z" fill="black"/>
<path d="M93.1069 14.4901C93.2972 18.3743 93.4953 22.2584 93.6856 26.1347C93.7648 27.6566 96.1429 27.6645 96.0636 26.1347C95.8734 22.2505 95.6752 18.3664 95.485 14.4901C95.4057 12.9682 93.0277 12.9603 93.1069 14.4901Z" fill="black"/>
<path d="M95.4929 22.0364C96.6581 21.8461 97.8154 21.648 98.9807 21.4577C99.2581 21.4102 99.5593 21.1407 99.6941 20.9108C99.8447 20.6571 99.9081 20.2766 99.813 19.9913C99.7179 19.7059 99.5435 19.4285 99.266 19.2779C98.9648 19.1193 98.6794 19.1035 98.3465 19.1589C97.1813 19.3492 96.024 19.5474 94.8587 19.7376C94.5813 19.7852 94.2801 20.0547 94.1453 20.2846C93.9947 20.5382 93.9313 20.9187 94.0264 21.2041C94.1215 21.4894 94.2959 21.7669 94.5733 21.9175C94.8746 22.076 95.1599 22.0919 95.4929 22.0364Z" fill="black"/>
<path d="M86.068 30.5341C85.7826 31.7945 85.6003 33.1024 85.8619 34.3866C86.1235 35.6707 87.0905 36.8439 88.4064 37.2244C89.6192 37.5732 90.8796 37.1927 92.021 36.7726C92.5759 36.5665 93.1308 36.3445 93.7094 36.1939C94.2881 36.0433 94.4783 35.9799 95.1838 36.075C95.8021 36.1543 96.3966 35.4726 96.3728 34.886C96.3411 34.1726 95.8497 33.7841 95.1838 33.6969C94.0661 33.5463 92.9485 33.903 91.918 34.2915C91.4344 34.4658 90.9588 34.6561 90.4674 34.8067C90.2375 34.878 89.9997 34.9256 89.7619 34.9811C89.4844 35.0366 89.9363 34.9811 89.6826 34.9811C89.5558 34.9811 89.421 34.9811 89.2942 34.9811C89.1594 34.9652 89.1674 34.9811 89.3259 34.9969C89.2783 34.9969 89.2308 34.9811 89.1832 34.9732C89.0722 34.9415 88.9692 34.9177 88.8582 34.878C89.1198 34.9732 88.7948 34.8226 88.7393 34.7988C88.6917 34.775 88.6521 34.7433 88.6125 34.7116C88.7155 34.7908 88.7155 34.7908 88.6125 34.7116C88.5728 34.664 88.335 34.3469 88.4777 34.5768C88.4222 34.4976 88.3826 34.4104 88.3271 34.3311C88.2716 34.2122 88.2716 34.2122 88.3271 34.3469C88.3033 34.2835 88.2795 34.2201 88.2637 34.1567C88.232 34.0616 88.2082 33.9665 88.1844 33.8634C88.1686 33.8079 88.121 33.3878 88.1448 33.6652C88.1369 33.5622 88.1289 33.4512 88.121 33.3482C88.1131 33.0945 88.121 32.8408 88.1369 32.5872C88.1448 32.4366 88.1606 32.2939 88.1765 32.1433C88.1448 32.3969 88.1924 32.0719 88.2003 32.0244C88.2478 31.739 88.3033 31.4537 88.3667 31.1762C88.5015 30.5738 88.1844 29.8604 87.5344 29.7097C86.932 29.575 86.2186 29.8921 86.068 30.5421V30.5341Z" fill="black"/>
<path d="M99.5435 18.501C101.089 18.1126 102.643 17.7242 104.189 17.3358C104.791 17.1852 105.211 16.4718 105.021 15.8693C104.831 15.2669 104.204 14.8785 103.554 15.037C102.009 15.4254 100.455 15.8138 98.9093 16.2023C98.3069 16.3529 97.8868 17.0663 98.077 17.6687C98.2672 18.2712 98.8935 18.6596 99.5435 18.501Z" fill="black"/>
<path d="M100.384 17.9862C100.376 21.3075 100.368 24.6209 100.36 27.9423C100.36 28.624 100.312 29.3374 100.558 29.9795C100.836 30.7166 101.454 31.2002 102.223 31.3349C102.992 31.4697 103.864 31.3349 104.648 31.2319C105.481 31.1209 106.297 30.9545 107.106 30.7325C108.58 30.3282 107.954 28.0295 106.471 28.4416C105.829 28.616 105.179 28.7666 104.521 28.8697C104.236 28.9173 103.959 28.949 103.673 28.9727C103.436 28.9965 102.928 28.9093 102.722 29.0203C102.698 29.0362 102.659 29.0045 102.635 29.0124C102.801 28.941 102.706 29.4166 102.746 29.0441C102.77 28.8063 102.738 28.5526 102.746 28.3148V26.2538C102.754 23.5032 102.762 20.7526 102.77 17.9941C102.77 16.4642 100.392 16.4642 100.392 17.9941L100.384 17.9862Z" fill="black"/>
<path d="M104.862 24.9536C104.926 24.8268 104.997 24.7079 105.084 24.5969L104.902 24.8347C105.005 24.7079 105.116 24.5969 105.243 24.4939L105.005 24.6762C105.148 24.5652 105.306 24.4701 105.481 24.3988L105.195 24.5177C105.378 24.4384 105.56 24.3908 105.758 24.3591L105.441 24.3988C105.615 24.375 105.782 24.375 105.956 24.3988L105.639 24.3591C105.726 24.375 105.806 24.3908 105.893 24.4146C106.186 24.4939 106.543 24.4463 106.812 24.2957C107.058 24.153 107.296 23.8677 107.359 23.5823C107.431 23.2811 107.415 22.9402 107.24 22.6628C107.066 22.3853 106.836 22.203 106.527 22.1158C106.202 22.0286 105.845 21.9811 105.504 22.0128C105.29 22.0366 105.069 22.0603 104.854 22.1158C104.64 22.1713 104.442 22.2585 104.252 22.3536C103.658 22.6232 103.103 23.1542 102.825 23.7488C102.683 24.0421 102.619 24.3433 102.706 24.6683C102.786 24.9457 102.992 25.2469 103.253 25.3817C103.531 25.5244 103.864 25.6036 104.173 25.5006C104.45 25.4134 104.751 25.2311 104.886 24.9536H104.862Z" fill="black"/>
<path d="M109.698 23.2413H110.863C111.03 23.2413 111.18 23.2096 111.323 23.1383C111.473 23.0907 111.6 23.0115 111.703 22.8925C111.822 22.7816 111.901 22.6547 111.949 22.5121C112.02 22.3694 112.06 22.2188 112.052 22.0523L112.012 21.7352C111.957 21.5371 111.854 21.3627 111.703 21.2121C111.473 20.998 111.188 20.8633 110.863 20.8633H109.698C109.531 20.8633 109.381 20.895 109.238 20.9663C109.087 21.0139 108.961 21.0932 108.858 21.2121C108.739 21.323 108.659 21.4499 108.612 21.5925C108.541 21.7352 108.501 21.8858 108.509 22.0523L108.548 22.3694C108.604 22.5675 108.707 22.7419 108.858 22.8925C109.087 23.1066 109.373 23.2413 109.698 23.2413Z" fill="black"/>
<path d="M110.11 16.8368C110.348 20.7051 110.578 24.5813 110.815 28.4496C110.911 29.9716 113.289 29.9795 113.193 28.4496C112.956 24.5813 112.726 20.7051 112.488 16.8368C112.393 15.3149 110.015 15.3069 110.11 16.8368Z" fill="black"/>
<path d="M115.31 17.97C114.771 24.1609 114.652 30.3676 114.945 36.5743C115.017 38.0963 117.395 38.1042 117.324 36.5743C117.03 30.3676 117.149 24.1609 117.688 17.97C117.823 16.4481 115.445 16.456 115.31 17.97Z" fill="black"/>
<path d="M130.712 16.5749C130.934 16.4164 131.164 16.2816 131.409 16.1548C131.536 16.0993 131.552 16.0914 131.441 16.1389C131.512 16.1072 131.584 16.0835 131.655 16.0597C131.766 16.02 131.877 15.9883 131.988 15.9645C132.099 15.9408 132.21 15.917 132.329 15.8932C132.472 15.8694 132.48 15.8694 132.361 15.8932C132.44 15.8853 132.511 15.8774 132.591 15.8694C132.868 15.8536 133.137 15.8694 133.407 15.8774C133.661 15.8853 133.28 15.8456 133.558 15.8932C133.692 15.917 133.827 15.9408 133.962 15.9804C134.208 16.0438 134.453 16.1152 134.691 16.2103C134.501 16.1389 134.905 16.3133 134.945 16.3371C135.048 16.3926 135.151 16.4481 135.254 16.5115C135.373 16.5828 135.484 16.6621 135.595 16.7414C135.658 16.7889 135.658 16.7889 135.595 16.7335C135.658 16.781 135.714 16.8365 135.777 16.8841C135.991 17.0743 136.189 17.2804 136.364 17.5024C136.253 17.3676 136.475 17.653 136.475 17.653C136.554 17.7719 136.633 17.8908 136.705 18.0176C136.776 18.1444 136.847 18.2633 136.911 18.3902C136.911 18.406 137.069 18.731 136.99 18.5566C137.101 18.8182 137.188 19.0956 137.259 19.3731C137.521 20.3639 137.505 21.4261 137.244 22.4091C137.077 23.0274 137.45 23.7011 138.076 23.8755C138.702 24.0499 139.376 23.6694 139.542 23.0432C140.264 20.3005 139.598 17.0188 137.37 15.1322C135.238 13.317 131.885 12.8572 129.531 14.5456C129.008 14.9182 128.762 15.5841 129.103 16.1706C129.404 16.6859 130.205 16.9713 130.728 16.5987L130.712 16.5749Z" fill="black"/>
<path d="M131.172 20.8953V25.5404C131.172 26.1587 131.719 26.7612 132.361 26.7294C133.003 26.6977 133.55 26.2063 133.55 25.5404V20.8953C133.55 20.277 133.003 19.6746 132.361 19.7063C131.719 19.738 131.172 20.2294 131.172 20.8953Z" fill="black"/>
<path d="M129.761 29.5592C132.448 28.4812 135.294 28.1245 138.163 28.497C138.797 28.5842 139.352 27.8946 139.352 27.308C139.352 26.5946 138.805 26.2062 138.163 26.119C135.119 25.7226 131.972 26.119 129.127 27.2684C128.532 27.5062 128.112 28.0611 128.294 28.7348C128.453 29.2976 129.158 29.805 129.761 29.5671V29.5592Z" fill="black"/>
<path d="M133.827 30.1537C132.511 30.3677 131.465 31.5092 131.084 32.7458C130.894 33.372 130.87 34.1013 131.077 34.7275C131.306 35.4409 131.742 35.9958 132.353 36.4238C133.399 37.1531 134.85 37.161 135.975 36.6061C136.514 36.3445 137.022 35.8452 137.267 35.2982C137.584 34.6086 137.656 33.8714 137.466 33.1342C137.299 32.4842 136.903 31.8183 136.388 31.3824C135.785 30.875 135.016 30.5183 134.208 30.6055C133.883 30.6372 133.605 30.7165 133.367 30.9543C133.161 31.1604 133.003 31.5013 133.019 31.7945C133.034 32.0878 133.13 32.4208 133.367 32.6348C133.581 32.833 133.898 33.0153 134.208 32.9836C134.342 32.9677 134.469 32.9677 134.604 32.9836L134.287 32.9439C134.445 32.9677 134.596 33.0074 134.747 33.0708L134.461 32.9519C134.612 33.0153 134.747 33.1025 134.873 33.1976L134.636 33.0153C134.786 33.1342 134.921 33.2689 135.04 33.4195L134.858 33.1817C134.984 33.3482 135.095 33.5305 135.175 33.7208L135.056 33.4354C135.135 33.6256 135.191 33.8238 135.222 34.0378L135.183 33.7208C135.206 33.8952 135.206 34.0695 135.183 34.2439L135.222 33.9269C135.198 34.0695 135.167 34.2122 135.111 34.347L135.23 34.0616C135.175 34.1964 135.095 34.3232 135.008 34.4421L135.191 34.2043C135.095 34.3311 134.984 34.4342 134.866 34.5372L135.103 34.3549C134.969 34.458 134.826 34.5372 134.667 34.6086L134.953 34.4897C134.755 34.5689 134.548 34.6244 134.334 34.6561L134.652 34.6165C134.438 34.6403 134.223 34.6403 134.002 34.6165L134.319 34.6561C134.089 34.6244 133.867 34.5689 133.653 34.4738L133.938 34.5927C133.764 34.5214 133.605 34.4263 133.463 34.3153L133.7 34.4976C133.573 34.4025 133.463 34.2915 133.367 34.1726L133.55 34.4104C133.447 34.2836 133.367 34.1409 133.304 33.9903L133.423 34.2756C133.352 34.1092 133.304 33.9269 133.28 33.7445L133.32 34.0616C133.296 33.8634 133.296 33.6653 133.32 33.4671L133.28 33.7842C133.312 33.5543 133.375 33.3323 133.463 33.1183L133.344 33.4037C133.439 33.1897 133.558 32.9915 133.692 32.8013L133.51 33.0391C133.645 32.8647 133.795 32.7141 133.97 32.5793L133.732 32.7616C133.891 32.6427 134.065 32.5397 134.247 32.4604L133.962 32.5793C134.12 32.5159 134.279 32.4683 134.453 32.4445C134.731 32.397 135.032 32.1275 135.167 31.8976C135.317 31.6439 135.381 31.2634 135.286 30.9781C135.191 30.6927 135.016 30.4153 134.739 30.2647C134.438 30.1061 134.152 30.0903 133.819 30.1458L133.827 30.1537Z" fill="black"/>
<path d="M143.569 17.0266C142.57 18.2791 142.285 19.9675 142.872 21.4736C143.49 23.0748 144.798 24.2321 146.55 24.3827C148.301 24.5333 149.934 23.5029 150.806 22.0919C151.242 21.3864 151.488 20.5065 151.417 19.6742C151.337 18.7468 150.973 17.9382 150.386 17.2169C149.253 15.8218 147.144 15.0925 145.432 15.7425C144.853 15.9644 144.394 16.551 144.6 17.209C144.782 17.7718 145.44 18.2791 146.066 18.0413C146.201 17.9937 146.336 17.9461 146.478 17.9144C146.518 17.9065 146.645 17.9065 146.669 17.8748L146.502 17.8986C146.55 17.8986 146.605 17.8907 146.653 17.8907C146.78 17.8907 146.906 17.8907 147.041 17.8907C147.303 17.8986 146.835 17.8352 146.994 17.8827C147.081 17.9065 147.176 17.9144 147.255 17.9382C147.382 17.9699 147.501 18.0096 147.628 18.0571C147.39 17.9303 147.889 18.1443 147.628 18.0571C147.675 18.0809 147.723 18.1047 147.77 18.1285C147.897 18.1919 148.016 18.2791 148.143 18.3504C148.27 18.4218 148.302 18.3742 148.127 18.3266C148.191 18.3425 148.286 18.4614 148.333 18.501C148.436 18.5961 148.531 18.7071 148.634 18.8102C148.793 18.9766 148.587 18.7468 148.595 18.7547C148.627 18.7547 148.714 18.9211 148.73 18.9449C148.801 19.0559 148.856 19.1669 148.92 19.2779C148.841 19.0242 149.047 19.5077 148.92 19.2779C148.944 19.3492 148.967 19.4205 148.991 19.4998C149.015 19.5791 149.023 19.6504 149.047 19.7218C149.102 19.9358 149.023 19.6504 149.047 19.6346C149.031 19.6425 149.055 20.0309 149.062 20.0705C149.062 20.3242 149.023 20.0309 149.078 20.0309C149.078 20.0309 149.039 20.2449 149.031 20.2608C149.015 20.3083 149.007 20.3638 148.991 20.4114C148.975 20.459 148.959 20.5144 148.944 20.562C148.896 20.6809 148.904 20.6571 148.975 20.4986C148.999 20.5461 148.817 20.8157 148.793 20.8474C148.761 20.9029 148.722 20.9583 148.682 21.0138L148.658 21.0455C148.579 21.1486 148.595 21.1327 148.698 20.998C148.69 21.0772 148.492 21.2279 148.428 21.2913C148.373 21.3468 148.309 21.4022 148.254 21.4577C148.214 21.4894 148.175 21.5291 148.127 21.5608L148.238 21.4736C148.214 21.5529 147.937 21.6718 147.866 21.7114C147.81 21.7431 147.747 21.7748 147.691 21.8065L147.62 21.8382C147.501 21.8937 147.525 21.8858 147.683 21.8144C147.667 21.862 147.35 21.9254 147.303 21.9413C147.239 21.9571 147.176 21.973 147.112 21.9888C146.811 22.0681 147.319 21.9888 147.073 21.9968C146.938 21.9968 146.811 22.0126 146.677 22.0047C146.383 21.9888 146.677 21.9888 146.677 22.0126C146.677 22.0126 146.542 21.9888 146.518 21.9809C146.375 21.9492 146.241 21.8937 146.106 21.8541C145.955 21.8144 146.367 21.9968 146.161 21.8699C146.09 21.8303 146.011 21.7907 145.939 21.7431C145.892 21.7114 145.836 21.6797 145.789 21.648C145.575 21.5132 145.987 21.8303 145.805 21.6559C145.717 21.5766 145.63 21.4974 145.551 21.4022C145.511 21.3626 145.472 21.3071 145.432 21.2675C145.321 21.1565 145.598 21.5132 145.464 21.3071C145.384 21.1882 145.305 21.0693 145.234 20.9346C145.202 20.8711 145.17 20.8077 145.139 20.7364C145.028 20.5065 145.226 20.998 145.147 20.7522C145.099 20.6096 145.052 20.4748 145.02 20.3321C145.004 20.2608 144.988 20.1894 144.972 20.1181C144.917 19.8644 144.996 20.4035 144.972 20.1419C144.964 19.9992 144.948 19.8565 144.956 19.7059C144.956 19.6346 144.964 19.5632 144.964 19.4919C144.972 19.2461 144.909 19.7455 144.964 19.5236C144.996 19.3809 145.02 19.2461 145.067 19.1035C145.083 19.048 145.139 18.9529 145.139 18.8974C145.067 19.0718 145.052 19.1035 145.107 18.9846C145.123 18.9529 145.139 18.9211 145.155 18.8894C145.186 18.834 145.21 18.7864 145.242 18.7309C145.281 18.6675 145.487 18.398 145.266 18.6754C145.654 18.1919 145.773 17.4626 145.266 16.9949C144.837 16.5986 143.997 16.4718 143.585 16.9949L143.569 17.0266Z" fill="black"/>
<path d="M141.072 28.4733H152.693C154.223 28.4733 154.223 26.0952 152.693 26.0952H141.072C139.542 26.0952 139.542 28.4733 141.072 28.4733Z" fill="black"/>
<path d="M146.811 27.5141C145.63 30.8195 144.861 34.2439 144.457 37.7317C144.386 38.3738 145.059 38.9208 145.646 38.9208C146.351 38.9208 146.764 38.3738 146.835 37.7317C147.215 34.4659 148 31.2476 149.11 28.1482C149.324 27.5458 148.864 26.8482 148.278 26.6817C147.62 26.4994 147.033 26.9037 146.811 27.5141Z" fill="black"/>
<path d="M148.04 29.6066C147.913 32.4444 148.547 35.2743 149.823 37.8109C150.101 38.3658 150.933 38.5719 151.448 38.2389C152.019 37.8743 152.178 37.2084 151.876 36.6139C151.345 35.5597 150.949 34.442 150.687 33.2054C150.434 32.0401 150.354 30.8987 150.41 29.6145C150.442 28.9962 149.839 28.3938 149.221 28.4255C148.555 28.4572 148.064 28.9487 148.032 29.6145L148.04 29.6066Z" fill="black"/>
<path d="M156.759 19.1749H160.247C160.865 19.1749 161.468 18.628 161.436 17.9859C161.404 17.3438 160.913 16.7969 160.247 16.7969H156.759C156.141 16.7969 155.539 17.3438 155.57 17.9859C155.602 18.628 156.093 19.1749 156.759 19.1749Z" fill="black"/>
<path d="M155.618 24.2401C155.618 24.2401 156.062 24.0499 155.879 24.1212C155.99 24.0737 156.101 24.034 156.212 23.9865C156.466 23.8834 156.728 23.7883 156.989 23.6932C157.473 23.5188 157.964 23.3682 158.464 23.2334C158.963 23.0987 159.462 22.9798 159.97 22.8846C160.239 22.8291 160.517 22.7816 160.786 22.7419C160.905 22.7261 161.024 22.7023 161.135 22.6865C160.913 22.7182 161.365 22.6627 161.404 22.6548C162.023 22.5834 162.625 22.1554 162.593 21.4657C162.57 20.8791 162.07 20.2054 161.404 20.2767C158.971 20.5462 156.648 21.1804 154.413 22.1791C153.842 22.4328 153.668 23.3048 153.985 23.8041C154.365 24.3907 155 24.5017 155.61 24.2322L155.618 24.2401Z" fill="black"/>
<path d="M159.811 24.2798C158.242 24.5651 156.974 25.8017 156.427 27.2682C155.88 28.7347 156.3 30.3517 157.481 31.295C158.662 32.2383 160.2 32.5395 161.587 31.9054C162.974 31.2712 163.497 29.6779 163.101 28.2828C162.649 26.6895 161.135 25.4609 159.439 25.8731C158.836 26.0237 158.416 26.7371 158.606 27.3395C158.797 27.942 159.423 28.3304 160.073 28.1718C160.192 28.1401 160.319 28.1718 159.97 28.1718C160.025 28.1718 160.073 28.1639 160.128 28.1639C160.184 28.1639 160.231 28.1718 160.287 28.1639C159.954 28.1639 160.025 28.1164 160.12 28.1481C160.168 28.1639 160.216 28.1718 160.271 28.1877C160.39 28.2273 160.461 28.3066 160.176 28.1401C160.263 28.1956 160.358 28.2353 160.445 28.2908C160.62 28.4017 160.216 28.0847 160.374 28.2353C160.414 28.2749 160.453 28.3066 160.493 28.3462C160.556 28.4097 160.612 28.481 160.675 28.5444C160.398 28.2432 160.644 28.5127 160.699 28.6157C160.723 28.6554 160.747 28.695 160.763 28.7347C160.818 28.8377 160.842 29.02 160.747 28.6792C160.778 28.7822 160.818 28.8853 160.85 28.9962C160.881 29.1231 160.874 29.4084 160.866 28.9962C160.866 29.1072 160.881 29.2103 160.874 29.3212C160.874 29.3529 160.866 29.3926 160.874 29.4243C160.866 29.0597 160.905 29.234 160.874 29.3688C160.858 29.4243 160.842 29.4719 160.826 29.5194C160.77 29.7176 160.953 29.2816 160.874 29.4084C160.826 29.4877 160.77 29.5749 160.723 29.6621C160.85 29.4084 160.858 29.4956 160.77 29.5908C160.747 29.6225 160.715 29.6462 160.691 29.67C160.612 29.7493 160.477 29.7968 160.763 29.6304C160.699 29.67 160.644 29.7176 160.58 29.7493C160.533 29.7731 160.477 29.7968 160.438 29.8286C160.438 29.8286 160.739 29.7176 160.572 29.7731C160.469 29.8048 160.366 29.8444 160.255 29.8603C159.954 29.9237 160.549 29.8444 160.239 29.8603C160.105 29.8603 159.978 29.8603 159.851 29.8603C159.637 29.8444 160.12 29.9158 159.97 29.8761C159.922 29.8682 159.875 29.8603 159.827 29.8523C159.716 29.8286 159.605 29.7968 159.494 29.7572C159.209 29.6542 159.74 29.8761 159.463 29.7414C159.344 29.6859 159.225 29.6145 159.114 29.5432C159.082 29.5194 159.05 29.4956 159.019 29.4798C159.296 29.6304 159.169 29.5987 159.082 29.5194C158.995 29.4401 158.916 29.3609 158.836 29.2816C158.813 29.2499 158.789 29.2182 158.765 29.1944C158.995 29.4322 158.876 29.345 158.82 29.2499C158.765 29.1548 158.717 29.0438 158.654 28.9487C158.82 29.2182 158.725 29.1389 158.694 29.02C158.678 28.9645 158.654 28.9011 158.646 28.8456C158.63 28.7822 158.63 28.7029 158.606 28.6475C158.694 28.8853 158.63 28.8694 158.622 28.7664C158.622 28.6316 158.622 28.4968 158.622 28.37C158.622 28.1243 158.559 28.6633 158.614 28.4255C158.63 28.3621 158.638 28.2987 158.654 28.2273C158.67 28.156 158.686 28.1005 158.71 28.0371C158.741 27.942 158.884 27.6883 158.71 28.0054C158.773 27.8865 158.828 27.7597 158.9 27.6487C158.931 27.5932 158.971 27.5298 159.011 27.4743C159.035 27.4347 159.066 27.4029 159.09 27.3633C158.979 27.506 158.955 27.5377 159.011 27.4664C159.114 27.3554 159.209 27.2444 159.312 27.1414C159.36 27.0938 159.415 27.0542 159.463 27.0066C159.645 26.8401 159.233 27.1572 159.439 27.0225C159.574 26.9353 159.708 26.8481 159.851 26.7688C159.891 26.745 159.93 26.7292 159.978 26.7054C160.089 26.6499 160.057 26.6658 159.883 26.745C159.922 26.7292 159.97 26.7133 160.01 26.6975C160.16 26.642 160.319 26.6103 160.477 26.5786C161.088 26.4676 161.492 25.6908 161.31 25.1121C161.095 24.4542 160.501 24.1609 159.843 24.2798H159.811Z" fill="black"/>
<path d="M164.734 16.8368L165.843 34.8466C165.939 36.3685 168.317 36.3765 168.222 34.8466C167.849 28.846 167.484 22.8374 167.112 16.8368C167.017 15.3149 164.639 15.3069 164.734 16.8368Z" fill="black"/>
<path d="M168.388 25.9682C168.428 25.9444 168.475 25.9286 168.523 25.9127C168.349 25.984 168.317 25.9999 168.436 25.9523C168.499 25.9286 168.57 25.8968 168.634 25.8731C168.792 25.8176 168.951 25.7621 169.109 25.7145C169.434 25.6194 169.759 25.556 170.092 25.5084L169.775 25.5481C170.37 25.4688 170.972 25.4688 171.567 25.5481L171.25 25.5084C171.345 25.5243 171.44 25.5322 171.535 25.5481C171.86 25.6036 172.161 25.6036 172.455 25.4292C172.7 25.2865 172.938 25.0011 173.002 24.7158C173.136 24.1371 172.827 23.3603 172.169 23.2493C171.313 23.1066 170.481 23.0749 169.617 23.1859C168.753 23.2968 167.968 23.5426 167.183 23.9072C166.93 24.0261 166.708 24.359 166.636 24.6206C166.557 24.906 166.597 25.2865 166.755 25.5401C166.914 25.7938 167.159 26.0158 167.469 26.0871C167.794 26.1584 168.079 26.1109 168.388 25.9682Z" fill="black"/>
<path d="M173.43 20.5461C174.143 21.4656 175.364 21.537 176.434 21.4656C176.68 21.4498 176.925 21.426 177.179 21.426C177.298 21.426 177.425 21.426 177.544 21.426C177.575 21.426 177.876 21.4577 177.734 21.4339C177.615 21.4181 177.924 21.4894 177.964 21.4973C177.987 21.4973 177.98 21.4973 178.003 21.5132C177.956 21.4894 178.075 21.5766 178.083 21.5845C178.114 21.64 178.146 21.6955 178.178 21.751C178.138 21.6876 178.138 21.6876 178.162 21.7669C178.257 22.1077 178.186 22.512 178.075 22.9717C177.908 23.6693 177.686 24.3589 177.472 25.0406C177.02 26.4754 176.505 27.8864 175.926 29.2815C175.681 29.876 176.188 30.5894 176.759 30.748C177.441 30.9382 177.98 30.5102 178.225 29.9156C178.844 28.4095 179.398 26.8717 179.882 25.3181C180.286 23.9943 180.825 22.5278 180.461 21.1406C180.096 19.7534 178.796 19.0638 177.425 19.04C176.894 19.04 176.362 19.1114 175.831 19.1114C175.712 19.1114 175.601 19.1114 175.483 19.1034C175.728 19.1193 175.395 19.0797 175.364 19.0797C175.229 19.0321 175.229 19.04 175.356 19.0876L175.269 19.04C175.15 18.9687 175.158 18.9687 175.269 19.04C175.213 18.9845 175.166 18.9291 175.126 18.8736C174.73 18.3662 173.858 18.4614 173.445 18.8736C172.946 19.373 173.049 20.0467 173.445 20.5541L173.43 20.5461Z" fill="black"/>
<path d="M182.775 18.5727C183.029 24.383 183.29 30.1855 183.544 35.9958C183.608 37.5178 185.994 37.5257 185.922 35.9958C185.669 30.1855 185.407 24.383 185.153 18.5727C185.09 17.0507 182.704 17.0428 182.775 18.5727Z" fill="black"/>
</g>
<defs>
<clipPath id="clip0_736_1968">
<rect width="252" height="52" fill="white"/>
</clipPath>
</defs>
</svg>
