<svg width="147" height="34" viewBox="0 0 147 34" fill="none" xmlns="http://www.w3.org/2000/svg">
<g clip-path="url(#clip0_513_1927)">
<path d="M1.26447 5.39036C4.47345 4.06658 8.03257 3.63109 11.4586 4.14734C11.8 4.19925 12.1704 4.27712 12.3874 4.5511C12.6305 4.85681 12.5958 5.2923 12.5495 5.68165C12.0749 9.70489 11.6004 13.7281 11.1229 17.7514C11.0998 17.959 11.0679 18.1782 10.929 18.3311C10.7468 18.533 10.4458 18.5445 10.1767 18.5445C9.11187 18.5445 8.04703 18.5445 6.98509 18.5445C6.67547 18.5445 6.3456 18.5387 6.09676 18.3513C5.7148 18.0657 5.70033 17.5005 5.72059 17.0188C5.77846 15.7181 5.83344 14.4174 5.89131 13.1167C5.93182 12.1794 5.96365 11.1959 5.57012 10.348C5.1766 9.50012 4.20435 8.84833 3.33338 9.15115C2.58683 9.41072 1.76795 10.2673 1.19791 9.71354C0.983788 9.50589 0.943277 9.17999 0.917235 8.88294C0.807279 7.68029 0.694429 6.47764 0.584473 5.27211" fill="#F25844"/>
<path d="M1.4179 5.94695C4.3057 4.76737 7.43656 4.29727 10.5443 4.60875C10.9002 4.64336 11.2677 4.67508 11.6149 4.7616C11.9043 4.8337 12.0026 4.9433 12.0055 5.24612C12.0055 6.02193 11.8377 6.82658 11.748 7.59662C11.5484 9.27802 11.3516 10.9565 11.1519 12.6379C10.9523 14.3193 10.8047 16.0065 10.5559 17.6792C10.5443 17.7571 10.4604 17.9792 10.5298 17.9301C10.4401 17.9907 10.281 17.9676 10.1797 17.9676C9.76301 17.9734 9.34633 17.9676 8.92966 17.9676C8.51298 17.9676 8.0963 17.9676 7.67963 17.9676C7.34686 17.9676 6.881 18.0455 6.55981 17.9388C6.08526 17.7802 6.31385 16.6785 6.33121 16.3209C6.36594 15.5076 6.40066 14.6943 6.43828 13.881C6.49904 12.4735 6.70159 10.8123 5.7959 9.6068C5.3445 9.00692 4.68476 8.56277 3.92086 8.50221C3.15695 8.44164 2.60138 8.91174 1.95032 9.21457C1.79118 9.28955 1.65807 9.38761 1.5568 9.22322C1.48446 9.10497 1.49024 8.86848 1.47867 8.74158C1.45841 8.53393 1.44105 8.32628 1.4208 8.11575C1.33399 7.1669 1.24429 6.21805 1.15748 5.26919C1.12854 4.95772 0.911526 4.69239 0.578763 4.69239C0.289405 4.69239 -0.0259964 4.95772 4.5899e-05 5.26919C0.0868535 6.19497 0.170768 7.12075 0.257575 8.04653C0.324128 8.77619 0.263362 9.72793 0.914419 10.224C1.51629 10.6797 2.21943 10.3941 2.80393 10.0654C3.06435 9.91827 3.33346 9.71927 3.6315 9.66448C3.92954 9.60968 4.22758 9.72504 4.46774 9.8952C5.0291 10.2932 5.24612 10.9767 5.30688 11.6343C5.38501 12.4937 5.2982 13.3705 5.26059 14.2299C5.22008 15.1355 5.17957 16.0411 5.14195 16.9496C5.11301 17.6389 5.17089 18.4233 5.80169 18.8502C6.13156 19.0722 6.53377 19.1184 6.9244 19.1213C7.38448 19.127 7.84167 19.1213 8.30175 19.1213C8.76183 19.1213 9.1814 19.1213 9.62122 19.1213C10.0205 19.1213 10.4488 19.1616 10.8365 19.0405C11.7625 18.755 11.7104 17.6764 11.803 16.8948C11.9101 15.995 12.0142 15.0951 12.1213 14.1982C12.3412 12.3293 12.564 10.4605 12.7839 8.58873C12.8939 7.66584 13.0038 6.74294 13.1109 5.82005C13.2006 5.04424 13.1543 4.19633 12.3557 3.8041C11.9535 3.60798 11.5021 3.56761 11.0651 3.51281C10.5877 3.45225 10.1073 3.40899 9.62412 3.38303C8.66055 3.334 7.69409 3.35707 6.73342 3.44936C4.79761 3.63971 2.90521 4.09539 1.1054 4.83082C0.816037 4.94907 0.610593 5.2144 0.700294 5.54029C0.775527 5.81428 1.11986 6.06231 1.41212 5.94406L1.4179 5.94695Z" fill="black"/>
<path d="M16.0306 2.34759C14.4999 7.42927 14.0658 12.8542 14.7719 18.1204C14.8153 18.4492 14.8905 18.8212 15.1683 18.9943C15.4027 19.1414 15.7007 19.0923 15.9698 19.0433C16.9999 18.8472 18.03 18.6511 19.0602 18.4579C19.2801 18.4175 19.5173 18.3656 19.662 18.1925C19.8414 17.9762 19.8125 17.6561 19.7662 17.3763C19.555 16.1102 19.2048 14.8413 19.3466 13.5665C19.4884 12.2918 20.2957 10.9738 21.54 10.7603C21.9885 10.6825 22.4862 10.743 22.8623 10.4835C23.2472 10.221 23.3745 9.71344 23.4729 9.25487C23.7015 8.19066 23.9272 7.06011 23.577 6.02763C23.2269 4.99514 22.0637 4.1703 21.0799 4.60291C20.8889 4.68655 20.7066 4.81633 20.4983 4.8221C20.015 4.8394 19.7546 4.22798 19.7836 3.7377C19.8125 3.24741 19.989 2.73982 19.8241 2.27837C19.5434 1.49679 18.4901 1.36701 17.706 1.60062C16.9218 1.83423 16.1666 2.29856 15.3535 2.22069" fill="#F25844"/>
<path d="M15.472 2.19477C14.3985 5.77964 13.8545 9.5289 13.8631 13.2695C13.8631 14.2155 13.9037 15.1614 13.9789 16.1045C14.0136 16.5314 14.0541 16.9582 14.1004 17.3822C14.1467 17.8061 14.167 18.2647 14.2914 18.6713C14.4042 19.0434 14.6213 19.3664 14.9801 19.5394C15.4315 19.7586 15.9378 19.6288 16.4066 19.5394C17.3731 19.3548 18.354 19.2078 19.3118 18.9857C19.6619 18.9049 20.0004 18.7463 20.1943 18.4291C20.4258 18.0484 20.394 17.6331 20.3274 17.212C20.1769 16.266 19.9281 15.3345 19.8992 14.3741C19.8615 13.0849 20.3795 11.4237 21.8871 11.2853C22.2893 11.2478 22.7002 11.2276 23.0619 11.0286C23.4235 10.8296 23.6811 10.472 23.8373 10.0855C24.1469 9.31259 24.2772 8.37816 24.3292 7.55044C24.4247 6.04209 23.7332 4.24821 22.0607 3.9425C21.6498 3.86752 21.2447 3.90213 20.8598 4.06652C20.5878 4.18476 20.4866 4.35492 20.3911 4.02326C20.2753 3.61661 20.4721 3.15804 20.475 2.74851C20.4779 2.3159 20.3535 1.90348 20.0728 1.57182C19.5895 1.00078 18.7678 0.856576 18.0588 0.943097C17.13 1.05846 16.3082 1.7016 15.3562 1.64104C14.6126 1.59489 14.6155 2.74851 15.3562 2.79465C16.1722 2.84657 16.8812 2.48894 17.6277 2.22938C18.0646 2.07653 18.7273 1.92367 19.1295 2.25534C19.5751 2.62161 19.1642 3.5099 19.2192 4.00018C19.2857 4.62891 19.659 5.29512 20.3419 5.37876C20.9611 5.45663 21.4009 4.88847 22.0259 5.12785C22.5815 5.34126 22.9548 5.86328 23.0966 6.4199C23.2962 7.21013 23.1371 8.05227 22.975 8.83384C22.9143 9.1309 22.868 9.4568 22.7378 9.73366C22.5902 10.0509 22.3298 10.0971 22.0028 10.1259C21.291 10.1865 20.692 10.3508 20.1335 10.8094C19.6272 11.2276 19.2741 11.8044 19.0398 12.4101C18.435 13.9732 18.8806 15.669 19.1642 17.2495C19.1873 17.3793 19.2626 17.6129 19.225 17.7455C19.196 17.8465 19.2539 17.8032 19.1005 17.8522C18.6839 17.982 18.218 18.0253 17.7868 18.106C17.3557 18.1868 16.9448 18.2647 16.5223 18.3454C16.3343 18.38 16.1491 18.4175 15.961 18.4521C15.8597 18.4723 15.5588 18.5588 15.4691 18.4896C15.3013 18.3598 15.3099 17.7744 15.2868 17.5754C15.2376 17.1514 15.1942 16.7246 15.1566 16.2977C15.0871 15.4671 15.0437 14.6337 15.0293 13.8002C14.9627 9.97304 15.4922 6.15745 16.5918 2.48894C16.8059 1.77659 15.689 1.47088 15.4749 2.18324L15.472 2.19477Z" fill="black"/>
<path d="M12.3499 21.1257C9.91932 21.2671 7.74334 23.3753 7.48581 25.8411C7.22828 28.307 8.92393 30.8305 11.2706 31.4881C13.6202 32.1457 16.3431 30.8507 17.3587 28.5983C18.1632 26.8131 17.8738 24.5549 16.5977 23.0782C15.3216 21.6016 13.1225 21.019 11.3227 21.7285" fill="#F25844"/>
<path d="M12.3497 20.5488C9.89886 20.7189 7.74024 22.5272 7.0834 24.8806C6.42655 27.234 7.51743 29.8873 9.52558 31.2918C11.5337 32.6964 14.1929 32.4599 16.0796 31.0438C18.1282 29.5066 18.9355 26.7639 18.0096 24.3615C17.5003 23.0406 16.5367 21.9475 15.2317 21.3592C13.9267 20.7708 12.4857 20.6728 11.1691 21.1717C10.8769 21.2813 10.6772 21.5611 10.764 21.8812C10.8422 22.161 11.1836 22.3946 11.4759 22.285C13.3625 21.5697 15.579 22.3253 16.6004 24.0731C17.6218 25.8208 17.3875 28.1944 15.9349 29.6508C14.6386 30.9515 12.5118 31.5254 10.8045 30.7035C9.09733 29.8815 7.86466 27.8627 8.05853 25.89C8.26977 23.7472 10.1882 21.8495 12.3497 21.6995C13.0876 21.6476 13.0934 20.494 12.3497 20.5459V20.5488Z" fill="black"/>
<path d="M27.2952 3.77533C26.459 7.11794 25.6661 10.4721 24.9167 13.8378C24.8068 14.3252 24.7228 14.9049 25.0614 15.2682C25.3536 15.5797 25.8311 15.5884 26.2535 15.574C29.6246 15.4615 32.9985 15.349 36.3695 15.2394C36.7457 15.2279 37.171 15.1933 37.4199 14.9049C37.634 14.6539 37.6485 14.2906 37.6514 13.9589C37.6658 12.3352 37.6832 10.7115 37.6977 9.08486C35.4002 8.97815 33.0824 9.26655 30.8775 9.93277C31.2768 8.30905 31.5806 6.65938 31.789 4.99817C31.8526 4.49634 31.8931 3.93972 31.6067 3.52731C31.1958 2.93896 30.3306 2.93896 29.6535 3.16103C28.9764 3.3831 28.3254 3.7638 27.6164 3.73496" fill="#8D82F7"/>
<path d="M26.7367 3.61956C26.21 5.72491 25.7008 7.83603 25.206 9.95292C24.96 11.0114 24.7169 12.0698 24.4797 13.1283C24.2916 13.9733 23.9646 15.075 24.7256 15.7441C25.4866 16.4132 26.6701 16.1334 27.5498 16.1046C28.658 16.0671 29.7662 16.0296 30.8745 15.995C31.9827 15.9604 33.091 15.92 34.1992 15.8854C34.7288 15.8681 35.2583 15.8508 35.7878 15.8335C36.2595 15.8191 36.7861 15.8479 37.2404 15.6835C38.4354 15.2451 38.2271 13.832 38.2387 12.811C38.2502 11.568 38.2618 10.3278 38.2734 9.08483C38.2763 8.76181 38.0043 8.52244 37.6947 8.50802C35.3393 8.40707 32.9781 8.70413 30.7211 9.37611L31.433 10.0856C31.6963 9.00119 31.922 7.90814 32.1043 6.80643C32.1911 6.27288 32.2692 5.73933 32.3386 5.2029C32.4023 4.7155 32.4631 4.21367 32.3271 3.73204C32.0753 2.84375 31.2217 2.39673 30.3334 2.44864C29.3785 2.50344 28.5654 3.161 27.6163 3.15523C26.8727 3.14946 26.8698 4.30308 27.6163 4.30885C28.4815 4.31462 29.1817 3.8647 29.9948 3.65994C30.6025 3.50708 31.2362 3.61091 31.2536 4.34346C31.2738 5.21155 31.0568 6.1258 30.9063 6.97947C30.7414 7.91679 30.5417 8.85122 30.3189 9.777C30.2176 10.1923 30.5967 10.6163 31.0307 10.4865C33.198 9.84045 35.4377 9.56069 37.6976 9.65875L37.1189 9.08194C37.1102 10.0856 37.0986 11.0892 37.0899 12.0929C37.087 12.5457 37.0812 13.0014 37.0783 13.4542C37.0783 13.6935 37.1767 14.3367 36.9771 14.5357C36.7774 14.7347 36.1987 14.6655 35.9383 14.6741C35.4087 14.6914 34.8792 14.7087 34.3497 14.726C33.3861 14.7577 32.4226 14.7895 31.459 14.8212C30.4954 14.8529 29.4827 14.8875 28.496 14.9192C28.0388 14.9337 27.5816 14.951 27.1215 14.9654C26.6614 14.9798 26.1985 15.0548 25.7644 14.9856C25.4201 14.9279 25.3796 14.6943 25.4085 14.3799C25.4461 13.9704 25.5734 13.558 25.6631 13.16C25.8802 12.1938 26.103 11.2248 26.3258 10.2615C26.8177 8.14751 27.327 6.03639 27.8565 3.92815C28.0359 3.20714 26.9219 2.90143 26.7396 3.62245L26.7367 3.61956Z" fill="black"/>
<path d="M40.377 1.5026C40.0935 7.51584 39.807 13.532 39.5234 19.5452C40.9124 19.6519 42.5906 19.6202 43.3343 18.4204C44.2487 16.9467 43.1346 14.5443 44.5004 13.4916C45.6058 12.6379 47.3072 13.5867 48.5514 12.958C49.596 12.4302 49.8391 10.844 49.1475 9.8894C48.4559 8.93479 47.0931 8.63773 45.9877 9.01266C45.5363 9.16551 45.0357 9.41065 44.6162 9.18281C44.3615 9.0415 44.2168 8.75597 44.1242 8.47622C43.7625 7.40047 43.9043 6.22667 43.9969 5.09324C44.0895 3.95981 44.1069 2.75139 43.5426 1.77082C42.9784 0.790243 41.6213 0.201898 40.6982 0.842156" fill="#8D82F7"/>
<path d="M39.7985 1.50259C39.5149 7.51582 39.2284 13.5319 38.9449 19.5452C38.9304 19.874 39.2226 20.0989 39.5236 20.122C40.6202 20.2027 41.8182 20.2085 42.8107 19.6721C43.8639 19.1068 44.2459 18.0224 44.3096 16.8947C44.3385 16.3727 44.3096 15.8507 44.3385 15.3287C44.3588 14.9278 44.4022 14.4721 44.6568 14.1405C44.9548 13.7511 45.4439 13.6819 45.901 13.6848C46.4942 13.6906 47.0845 13.7944 47.6777 13.7511C48.8351 13.6675 49.7871 12.9811 50.0418 11.8188C50.2964 10.6565 49.8826 9.57503 48.9509 8.88863C48.0191 8.20223 46.7055 8.14166 45.603 8.53101C45.4004 8.60311 45.0503 8.78769 44.8536 8.63772C44.6221 8.46179 44.5671 7.94555 44.5237 7.68598C44.4137 7.00535 44.4745 6.29587 44.5295 5.61235C44.651 4.12995 44.7986 2.42837 43.8321 1.17092C43.0537 0.158625 41.5549 -0.406648 40.4032 0.337436C39.7811 0.741202 40.3598 1.73908 40.9877 1.33243C41.7892 0.813303 42.7557 1.47087 43.1261 2.21495C43.6817 3.32531 43.4415 4.69234 43.3518 5.87769C43.3026 6.5439 43.2881 7.20435 43.3865 7.86479C43.4762 8.47333 43.6585 9.17992 44.1736 9.56926C44.7205 9.98745 45.3715 9.83459 45.9676 9.62406C46.4392 9.45678 46.9225 9.3645 47.4202 9.46832C48.3027 9.65002 48.9827 10.2932 48.9567 11.2247C48.9451 11.6054 48.8091 12.0063 48.5255 12.2716C48.2014 12.5744 47.7385 12.6119 47.3131 12.6062C46.2656 12.5946 45.1227 12.3178 44.2054 12.9897C43.372 13.5983 43.1955 14.5904 43.1695 15.5594C43.1434 16.5285 43.3373 17.7109 42.5937 18.4146C41.85 19.1183 40.4958 19.0376 39.5207 18.9655L40.0994 19.5423C40.383 13.5291 40.6694 7.51294 40.953 1.49971C40.9877 0.758506 39.8303 0.758506 39.7956 1.49971L39.7985 1.50259Z" fill="black"/>
<path d="M35.4233 21.1717C33.3255 21.1688 31.2276 21.163 29.1298 21.1602C28.7391 21.1602 28.3167 21.1688 28.0099 21.414C27.6511 21.7024 27.5672 22.2128 27.5122 22.6743C27.2547 24.8142 26.9943 26.9513 26.7368 29.0913C26.6529 29.7921 26.6066 30.6083 27.1158 31.0899C27.6338 31.5802 28.4498 31.4591 29.1471 31.3322C31.4475 30.9198 33.8 30.8217 36.1265 31.0438C35.5825 27.8886 35.0414 24.7335 34.4974 21.5783" fill="#8D82F7"/>
<path d="M35.4234 20.595C33.421 20.5921 31.4187 20.5864 29.4163 20.5835C28.58 20.5835 27.7062 20.6268 27.2519 21.4429C27.0493 21.8063 26.9944 22.2159 26.9423 22.6196C26.8786 23.1128 26.8236 23.606 26.7629 24.0991C26.6413 25.097 26.5227 26.0949 26.4012 27.0928C26.2941 27.9868 26.106 28.9097 26.1089 29.8124C26.1089 30.5969 26.378 31.4131 27.1246 31.7909C27.8711 32.1687 28.7218 31.987 29.5089 31.8543C31.6906 31.4823 33.9216 31.4188 36.1265 31.6207C36.5345 31.6582 36.7429 31.2227 36.685 30.8911C36.141 27.7359 35.5999 24.5808 35.0559 21.4256C35.0038 21.117 34.6247 20.9469 34.3441 21.0219C34.0171 21.1113 33.8869 21.4228 33.939 21.7313C34.483 24.8865 35.0241 28.0416 35.5681 31.1968L36.1265 30.4671C34.3817 30.3056 32.6253 30.3143 30.8804 30.5075C30.0847 30.594 29.2948 30.7757 28.499 30.8536C27.8972 30.9113 27.3676 30.8017 27.2779 30.1239C27.1795 29.3741 27.3821 28.5492 27.4718 27.808C27.576 26.9515 27.6772 26.0978 27.7814 25.2412C27.8856 24.3847 27.9695 23.4848 28.0997 22.611C28.1344 22.3687 28.1692 22.0053 28.3891 21.8496C28.6524 21.6621 29.1154 21.7342 29.4163 21.7371C31.4187 21.74 33.421 21.7458 35.4234 21.7487C36.167 21.7487 36.1699 20.5979 35.4234 20.595Z" fill="black"/>
<path d="M56.6246 2.65917C55.9619 2.33039 55.2819 3.0514 54.8855 3.68589C53.3751 6.10848 51.9514 9.3588 53.6442 11.6516C55.3688 13.9848 59.2548 13.2869 61.1212 11.069C62.3336 9.62414 62.9702 7.55628 62.3249 5.77105C61.6797 3.98583 59.5268 2.78607 57.8254 3.57053" fill="#5CC848"/>
<path d="M56.9169 2.16004C55.5829 1.59765 54.6888 2.86663 54.0956 3.87605C53.4561 4.96333 52.889 6.12272 52.562 7.34555C52.264 8.46745 52.1656 9.70758 52.562 10.8179C52.9237 11.8302 53.6355 12.7214 54.6165 13.2002C56.4336 14.0856 58.6993 13.6645 60.3226 12.5513C62.2874 11.2044 63.4911 8.69529 63.0744 6.3246C62.6577 3.95392 59.9436 2.01584 57.539 3.0714C57.2525 3.1983 57.186 3.6136 57.3306 3.86163C57.5043 4.1558 57.8341 4.19329 58.1235 4.06928C59.6224 3.41172 61.3788 4.66916 61.8273 6.08811C62.4031 7.91948 61.5466 10.0277 60.1345 11.2534C59.0031 12.234 57.3046 12.7877 55.826 12.4244C54.1072 12.0004 53.3317 10.368 53.4822 8.70105C53.5806 7.59646 54.0146 6.51495 54.5123 5.53149C54.7698 5.01813 55.0563 4.5163 55.3601 4.0289C55.4903 3.81837 55.9909 3.0166 56.3352 3.1608C56.6217 3.28193 56.9545 3.24732 57.1281 2.95315C57.2699 2.71089 57.2091 2.28694 56.9198 2.16292L56.9169 2.16004Z" fill="black"/>
<path d="M49.0839 16.5689C49.7581 15.9085 50.794 15.8652 51.7286 15.8652C56.1819 15.8537 60.6351 15.845 65.0883 15.8335C66.1184 16.3959 65.9159 18.1061 64.9986 18.8416C64.0813 19.577 62.8168 19.6174 61.6478 19.626C57.1078 19.6577 52.5649 19.6923 48.0248 19.7241C47.8454 19.7241 47.6487 19.7241 47.5098 19.6087C47.3217 19.4559 47.3072 19.179 47.3101 18.9338C47.313 18.1667 47.3188 17.3966 47.3217 16.6295" fill="#5CC848"/>
<path d="M49.4919 16.9754C50.2703 16.2544 51.6187 16.439 52.5881 16.439C53.977 16.4361 55.3659 16.4332 56.7548 16.4303C59.5327 16.4245 62.3076 16.4159 65.0855 16.4101L64.7932 16.3323C65.5369 16.7706 65.1636 17.9733 64.6138 18.4116C63.5663 19.2509 61.888 19.0461 60.6409 19.0577C57.2959 19.0807 53.948 19.1067 50.6031 19.1298C50.1256 19.1327 49.6482 19.1355 49.1678 19.1413C48.9277 19.1413 48.6904 19.1442 48.4502 19.1471C48.2679 19.1471 48.0249 19.1932 47.8484 19.1471C47.9004 19.1615 47.9004 19.2769 47.8889 19.1528C47.8773 19.0288 47.8831 18.9135 47.8831 18.7952C47.8831 18.5558 47.8831 18.3165 47.886 18.0742C47.886 17.5955 47.8918 17.1138 47.8947 16.6351C47.8976 15.8939 46.7401 15.891 46.7372 16.6351C46.7343 17.4195 46.7083 18.2069 46.7256 18.9913C46.743 19.7758 47.1279 20.2661 47.912 20.3036C48.6962 20.3411 49.4225 20.2949 50.1719 20.2892C50.9619 20.2834 51.7489 20.2776 52.5389 20.2719C55.6495 20.2488 58.763 20.2488 61.8736 20.2055C63.1294 20.1882 64.4894 20.0671 65.4703 19.199C66.2053 18.5501 66.5525 17.3705 66.2516 16.4361C66.104 15.9775 65.7394 15.418 65.2417 15.2825C64.8945 15.1873 64.4402 15.2623 64.0814 15.2652C63.6734 15.2652 63.2683 15.2652 62.8603 15.268C61.3035 15.2709 59.7468 15.2767 58.1929 15.2796C56.4221 15.2825 54.6512 15.2882 52.8774 15.2911C51.4567 15.294 49.8015 15.1238 48.6759 16.1679C48.129 16.6755 48.9508 17.4888 49.4948 16.984L49.4919 16.9754Z" fill="black"/>
<path d="M50.3137 21.9331C49.7582 25.1632 49.1997 28.3962 48.6441 31.6264C48.5949 31.9177 48.5457 32.232 48.6788 32.4974C48.9132 32.9703 49.5469 33.0165 50.0649 32.9963C54.5094 32.8319 58.954 32.6675 63.3985 32.5031C64.3187 32.4685 65.3633 32.3733 65.9217 31.6293C66.7175 30.5679 65.8494 28.9211 64.6283 28.4366C63.4072 27.9521 62.0385 28.2463 60.7422 28.4539C58.7283 28.7798 56.6796 28.8894 54.6425 28.7798C54.3011 28.7625 53.951 28.7337 53.6442 28.5808C52.8283 28.1684 52.6517 27.0436 52.8254 26.1323C52.999 25.2209 53.407 24.3413 53.3549 23.4126C53.3346 23.0319 53.1957 22.6109 52.8543 22.4551C52.6431 22.3599 52.4029 22.3888 52.1743 22.4205C51.3062 22.5388 50.4381 22.6541 49.5672 22.7724" fill="#5CC848"/>
<path d="M49.7552 21.7803C49.3993 23.8396 49.0463 25.9016 48.6904 27.9609L48.158 31.0526C48.0133 31.8918 47.8368 32.8868 48.7598 33.354C49.5093 33.7318 50.4815 33.5588 51.283 33.5299C52.3103 33.4925 53.3375 33.455 54.3647 33.4146C56.4683 33.3367 58.5691 33.2588 60.6727 33.181C61.6826 33.1435 62.6982 33.1262 63.7081 33.0656C64.5038 33.0195 65.3314 32.8926 65.9738 32.3879C67.2296 31.3986 66.9026 29.6278 65.8841 28.6011C64.5501 27.2543 62.5246 27.5802 60.8406 27.8599C58.8382 28.1916 56.8069 28.3127 54.7814 28.2147C54.3705 28.1945 53.8959 28.1945 53.6239 27.8368C53.4272 27.5802 53.3577 27.2341 53.3433 26.9197C53.2999 25.9363 53.7831 25.0105 53.9017 24.0443C54.0088 23.1791 53.8091 22.0341 52.7848 21.8496C52.2697 21.7573 51.7055 21.9159 51.1933 21.9851C50.6001 22.0659 50.0041 22.1466 49.4109 22.2274C49.1013 22.2706 48.9305 22.6658 49.0058 22.9369C49.0984 23.2714 49.408 23.381 49.7176 23.3406C50.603 23.2224 51.5087 23.0291 52.4 22.983C52.7009 22.9686 52.7443 23.1445 52.7703 23.4214C52.8108 23.828 52.7096 24.2433 52.6112 24.6327C52.2697 25.9564 51.7373 27.6955 52.9295 28.7886C53.5834 29.3885 54.5007 29.3712 55.3341 29.3942C56.2369 29.4202 57.1425 29.4029 58.0453 29.3452C58.9481 29.2875 59.903 29.175 60.8261 29.0308C61.6392 28.9011 62.4523 28.7367 63.2798 28.7626C63.9772 28.7857 64.6456 28.9703 65.1288 29.4923C65.4732 29.8614 65.7336 30.4152 65.6236 30.9257C65.4905 31.5428 64.8366 31.7678 64.2839 31.8601C63.4795 31.9985 62.6317 31.961 61.8186 31.9899C58.0193 32.1312 54.22 32.2696 50.4207 32.4109C50.0938 32.4225 49.6742 32.4917 49.3559 32.3648C49.0376 32.2379 49.2025 31.7707 49.2488 31.5053L49.7813 28.4137C50.143 26.3054 50.5076 24.2001 50.8693 22.0918C50.9213 21.7861 50.7882 21.4718 50.4641 21.3824C50.1864 21.3074 49.8044 21.4775 49.7523 21.7861L49.7552 21.7803Z" fill="black"/>
<path d="M77.0302 7.75515L92.4965 7.22161C92.8639 7.21007 93.2488 7.20142 93.57 7.37734C94.2673 7.76092 94.2558 8.84244 93.7494 9.45386C93.243 10.0653 92.4357 10.3248 91.6747 10.5584C90.4131 10.942 89.1515 11.3227 87.8928 11.7063C87.5426 11.813 87.152 11.9514 86.9929 12.2802C86.799 12.6869 87.0507 13.1541 87.2967 13.5319C88.4599 15.3287 89.6231 17.1225 90.7863 18.9193C91.2754 19.6749 91.7846 20.5199 91.6544 21.4082C91.4577 22.7435 89.8228 23.4732 88.5033 23.1704C87.1838 22.8675 86.1566 21.8552 85.277 20.8285C84.3973 19.8018 83.5466 18.6915 82.3515 18.0598C81.9146 19.5394 80.8237 20.941 79.3075 21.2409C77.7912 21.5409 76.0204 20.2748 76.2258 18.7462C76.3126 18.0916 76.7148 17.5263 77.0794 16.9726C78.2658 15.1787 79.186 13.2089 79.8023 11.1497C78.885 11.3083 77.8983 11.4583 77.0592 11.0545C76.22 10.6507 75.7136 9.45674 76.3358 8.76745" fill="#75C1E1"/>
<path d="M77.0303 8.33213C80.6443 8.20811 84.2584 8.0841 87.8725 7.9572L90.4739 7.86779L91.776 7.82165C92.1956 7.80723 92.6643 7.73224 93.0781 7.81011C93.5758 7.90529 93.6192 8.45037 93.4485 8.84837C93.217 9.39057 92.563 9.6559 92.0422 9.83471C91.2465 10.1087 90.4334 10.3308 89.6289 10.573C88.8245 10.8153 88.0288 10.9912 87.2822 11.3113C86.5357 11.6315 86.1827 12.3006 86.4199 13.0648C86.5328 13.4253 86.7469 13.7426 86.9495 14.057C87.207 14.455 87.4674 14.8558 87.725 15.2538C88.6654 16.7074 89.655 18.1408 90.5491 19.6232C90.8848 20.1798 91.2638 20.8893 91.0208 21.5526C90.8558 22.0025 90.442 22.3197 90.0051 22.487C88.5438 23.0494 87.1896 22.0285 86.2319 21.0219C85.0773 19.8106 84.1485 18.3744 82.6409 17.5553C82.3082 17.3736 81.9031 17.538 81.7902 17.9014C81.2925 19.5251 79.6113 21.4516 77.7623 20.4105C76.9897 19.975 76.5673 19.1819 76.9319 18.3282C77.1634 17.7918 77.5453 17.3188 77.852 16.8256C78.1848 16.2979 78.4915 15.7557 78.778 15.2019C79.4204 13.9531 79.947 12.6438 80.355 11.3027C80.4939 10.847 80.0569 10.5211 79.6432 10.5932C78.8822 10.723 77.881 10.9278 77.1865 10.4692C76.8335 10.2356 76.4024 9.58092 76.738 9.17427C77.2097 8.60611 76.3966 7.78704 75.9191 8.35808C75.1928 9.23195 75.4417 10.4779 76.2664 11.2104C77.2762 12.1102 78.7259 11.9141 79.9499 11.7036L79.2381 10.9941C78.8214 12.3698 78.2774 13.6964 77.5974 14.9625C77.2617 15.5855 76.8943 16.1911 76.5036 16.7824C76.113 17.3736 75.7195 18.0081 75.6384 18.7435C75.514 19.8568 76.2316 20.8777 77.1749 21.4084C78.2137 21.9938 79.4204 21.9794 80.4678 21.4228C81.6947 20.7681 82.5049 19.5078 82.9042 18.21L82.0535 18.5561C83.4627 19.3203 84.3308 20.7104 85.4101 21.8439C86.4171 22.9023 87.7886 23.9204 89.3338 23.805C90.6157 23.7099 91.9872 22.9196 92.2071 21.5584C92.3489 20.6989 92.0364 19.8856 91.6081 19.1531C91.1452 18.3599 90.6156 17.6014 90.1151 16.8285C89.6145 16.0556 89.0821 15.2336 88.5641 14.4348C88.3066 14.0368 88.0433 13.6388 87.7886 13.2379C87.6729 13.0533 87.3604 12.6611 87.5716 12.4534C87.7944 12.2371 88.2979 12.1794 88.5786 12.0929C89.03 11.9574 89.4785 11.8189 89.9299 11.6834C90.769 11.4296 91.6226 11.2017 92.4473 10.9076C93.1591 10.6538 93.8507 10.299 94.2963 9.67032C94.6696 9.14831 94.7911 8.40134 94.5914 7.79281C94.3368 7.017 93.6423 6.66515 92.8611 6.63631C91.9264 6.6017 90.9687 6.69399 90.034 6.72571C85.6966 6.87568 81.362 7.02565 77.0245 7.17274C76.2808 7.1987 76.2779 8.35231 77.0245 8.32636L77.0303 8.33213Z" fill="black"/>
<path d="M95.5058 6.13139C94.8113 12.4705 94.1169 18.8125 93.4542 25.1546C93.324 26.4005 93.2112 27.7358 93.8159 28.8317C94.4207 29.9276 96.0498 30.5419 96.9699 29.6854C97.5139 29.1778 97.6239 28.3731 97.6991 27.6319C97.9624 25.0565 98.2258 22.481 98.492 19.9056C98.8884 16.0439 99.2848 12.1764 99.2964 8.29443C99.2993 7.03122 99.2327 5.67283 98.4717 4.66342C97.7107 3.654 95.9919 3.28484 95.1962 4.2683" fill="#75C1E1"/>
<path d="M94.9271 6.13143C94.4583 10.4229 93.9867 14.7115 93.5266 19.0029C93.3009 21.0939 93.0752 23.1848 92.8611 25.2757C92.6874 26.9802 92.6701 28.9673 94.1979 30.0892C94.7824 30.5189 95.5405 30.741 96.2639 30.6314C97.0915 30.5074 97.6905 29.9104 97.9827 29.149C98.301 28.3184 98.3039 27.3609 98.3936 26.487C98.5007 25.4372 98.6077 24.3874 98.7148 23.3405C99.1488 19.1154 99.6523 14.8845 99.8201 10.6363C99.8635 9.53172 99.9127 8.41271 99.8491 7.30812C99.7941 6.34197 99.6176 5.33255 99.0649 4.51348C98.1708 3.18682 95.9659 2.48312 94.7795 3.86169C94.2963 4.42119 95.1123 5.24315 95.5984 4.67787C95.9601 4.2568 96.4809 4.19624 96.996 4.34332C97.6152 4.51925 98.0521 4.96051 98.3155 5.53732C98.6251 6.21507 98.6858 6.98222 98.7061 7.71477C98.7293 8.61748 98.7003 9.52307 98.6685 10.4229C98.5296 14.2875 98.0898 18.1348 97.6933 21.9793C97.4966 23.8971 97.3114 25.8179 97.1031 27.7358C97.0423 28.304 96.9497 29.0913 96.3854 29.3941C95.9109 29.6479 95.309 29.4547 94.8953 29.1692C93.6047 28.2867 93.9056 26.3284 94.0445 25.0075C94.25 23.0521 94.4583 21.0967 94.6667 19.1414C95.1325 14.8009 95.6071 10.4633 96.0816 6.12566C96.1163 5.81419 95.7923 5.54885 95.5029 5.54885C95.1615 5.54885 94.9589 5.81419 94.9242 6.12566L94.9271 6.13143Z" fill="black"/>
<path d="M103.284 5.37579C106.866 4.75861 110.529 4.59999 114.152 4.90281C114.427 4.92588 114.728 4.96338 114.925 5.15661C115.116 5.34695 115.156 5.63824 115.188 5.90357C115.367 7.48691 115.55 9.06737 115.729 10.6507C115.77 11.0141 115.801 11.4208 115.57 11.7063C115.385 11.937 115.078 12.0235 114.792 12.0985C112.254 12.7618 109.719 13.428 107.181 14.0914C106.334 15.2017 107.847 16.7764 109.247 16.736C110.648 16.6957 111.878 15.8218 113.238 15.493C114.658 15.1498 116.256 15.4642 117.352 16.4275C118.449 17.3907 118.955 19.0173 118.472 20.393C113.617 20.7679 108.761 21.1429 103.906 21.5178C103.454 21.5524 102.919 21.5524 102.653 21.189C102.494 20.9727 102.479 20.6843 102.474 20.4132C102.419 18.0656 102.459 15.718 102.592 13.3761C102.621 12.883 102.667 12.3465 102.997 11.9774C103.382 11.5448 104.022 11.4755 104.6 11.4323C105.957 11.3342 107.314 11.2362 108.672 11.1381C109.039 11.1122 109.438 11.0718 109.705 10.8151C110.26 10.2816 109.716 9.26349 108.973 9.05872C108.229 8.85395 107.45 9.15101 106.701 9.33847C105.599 9.61246 104.34 9.61534 103.437 8.93182C102.534 8.2483 102.283 6.69957 103.177 6.00452" fill="#FD9DC3"/>
<path d="M103.44 5.93257C106.605 5.39325 109.832 5.21733 113.041 5.40191C113.428 5.42498 113.822 5.43651 114.21 5.48554C114.505 5.52304 114.566 5.58648 114.609 5.88066C114.733 6.67377 114.791 7.4813 114.884 8.28018C114.977 9.07906 115.072 9.86064 115.156 10.6538C115.179 10.8672 115.26 11.2104 115.092 11.3834C114.896 11.5853 114.352 11.6257 114.088 11.692C112.474 12.116 110.859 12.537 109.244 12.961C108.874 13.059 108.507 13.1542 108.136 13.2523C107.766 13.3503 107.236 13.3994 106.892 13.6012C106.403 13.8868 106.304 14.6828 106.4 15.1788C106.617 16.2834 107.743 17.1313 108.819 17.2871C110.191 17.4861 111.461 16.7102 112.702 16.2661C114.062 15.7816 115.613 15.8162 116.8 16.7218C117.861 17.5351 118.336 18.98 117.916 20.2461L118.475 19.8221C115.231 20.073 111.985 20.3239 108.741 20.5749C107.132 20.6989 105.52 20.8373 103.909 20.9498C103.715 20.9642 103.353 21.0277 103.182 20.9065C102.98 20.7652 103.052 20.347 103.046 20.1336C103.029 19.3203 103.026 18.5041 103.032 17.6908C103.043 16.1594 103.02 14.5847 103.194 13.0619C103.263 12.4505 103.53 12.1708 104.134 12.0669C104.837 11.9458 105.575 11.9487 106.287 11.8968C107.083 11.8391 107.879 11.7872 108.674 11.7237C109.305 11.6747 109.985 11.5507 110.332 10.9566C110.954 9.89813 109.948 8.63204 108.877 8.46476C108.035 8.3321 107.245 8.63492 106.438 8.8195C105.766 8.97235 105.043 9.01273 104.38 8.79354C103.839 8.61473 103.417 8.23115 103.26 7.67742C103.127 7.20732 103.2 6.7401 103.587 6.41997C104.16 5.94411 103.339 5.13369 102.769 5.60379C101.845 6.36806 101.869 7.7899 102.482 8.73586C103.237 9.89813 104.725 10.2125 106.027 10.051C106.77 9.9587 107.476 9.65299 108.22 9.58377C108.677 9.54339 109.218 9.65299 109.34 10.1692C109.461 10.6855 108.405 10.5874 108.11 10.6076C107.268 10.6682 106.426 10.7287 105.581 10.7893C104.267 10.8845 102.595 10.8354 102.146 12.3784C101.935 13.1023 101.976 13.9271 101.944 14.6712C101.909 15.5076 101.886 16.3469 101.874 17.1861C101.863 18.0254 101.863 18.8617 101.874 19.701C101.886 20.4422 101.796 21.3449 102.485 21.8265C103.043 22.2188 103.767 22.1092 104.406 22.0601C105.248 21.9938 106.087 21.9304 106.93 21.864C110.775 21.567 114.621 21.2699 118.466 20.9729C118.735 20.9527 118.938 20.8056 119.025 20.5489C119.806 18.2042 118.269 15.7643 115.998 15.0346C114.838 14.6626 113.585 14.7318 112.445 15.1298C111.854 15.3374 111.29 15.6057 110.703 15.822C110.191 16.0123 109.597 16.2171 109.042 16.1565C108.295 16.0758 107.092 15.2048 107.673 14.3828L107.326 14.6482C109.265 14.1406 111.2 13.633 113.139 13.1254C113.599 13.0042 114.062 12.8831 114.522 12.762C114.945 12.6524 115.396 12.5688 115.755 12.3034C116.525 11.7382 116.313 10.7633 116.221 9.94716C116.108 8.96947 115.998 7.99178 115.885 7.01409C115.795 6.22963 115.879 5.07889 115.13 4.58572C114.797 4.36653 114.392 4.33769 114.004 4.30885C113.538 4.27136 113.075 4.24252 112.61 4.21945C111.632 4.1733 110.654 4.15888 109.673 4.17907C107.476 4.22522 105.286 4.4444 103.122 4.81068C102.812 4.86259 102.641 5.2404 102.716 5.52015C102.806 5.84605 103.119 5.97583 103.428 5.92392L103.44 5.93257Z" fill="black"/>
<path d="M101.212 22.6946C106.6 22.6946 111.991 22.6975 117.378 22.7003C117.867 22.7003 118.382 22.7061 118.811 22.9455C120.095 23.6665 119.424 25.8353 118.073 26.4208C116.722 27.0062 115.173 26.6255 113.706 26.5044C112.239 26.3833 110.474 26.7178 109.875 28.0618C109.21 29.5528 110.335 31.5803 109.256 32.8089C108.53 33.6338 107.097 33.5155 106.299 32.757C105.5 31.9985 105.26 30.8074 105.361 29.7143C105.434 28.927 105.63 28.0243 105.107 27.4302C104.459 26.6976 103.272 27.0178 102.311 26.8303C100.781 26.5275 99.8722 24.5375 100.651 23.1878" fill="#FD9DC3"/>
<path d="M101.212 23.2713C105.541 23.2713 109.872 23.2742 114.201 23.2771C115.26 23.2771 116.319 23.2771 117.375 23.2771C117.969 23.2771 118.75 23.2886 118.895 23.9721C118.999 24.4595 118.77 25.0392 118.446 25.4228C117.969 25.9938 117.211 26.1409 116.496 26.1611C114.791 26.2072 113.128 25.6304 111.441 26.138C110.74 26.3486 110.098 26.7206 109.652 27.3061C109.187 27.9233 109.051 28.6846 109.065 29.4403C109.082 30.5045 109.644 32.7598 107.939 32.8031C106.235 32.8463 105.81 30.8967 105.954 29.5556C106.05 28.6443 106.163 27.606 105.408 26.9225C104.707 26.288 103.752 26.3659 102.876 26.3197C102.158 26.2822 101.594 25.9765 101.232 25.3478C100.905 24.7796 100.827 24.0702 101.148 23.4818C101.507 22.83 100.506 22.2475 100.15 22.8993C99.3802 24.3009 99.9242 26.1092 101.223 26.9946C101.927 27.4733 102.748 27.4618 103.564 27.4935C103.9 27.5051 104.32 27.5108 104.594 27.7358C104.91 27.9954 104.89 28.4655 104.869 28.8317C104.814 29.7489 104.678 30.6083 104.933 31.5168C105.167 32.356 105.68 33.1636 106.464 33.5875C107.167 33.9711 108.058 34.0836 108.813 33.7865C109.647 33.4577 110.153 32.7108 110.277 31.8398C110.471 30.4872 109.626 28.4626 111.044 27.5628C112.552 26.6052 114.479 27.2657 116.12 27.3118C117.02 27.3378 118.041 27.2195 118.785 26.6687C119.372 26.2361 119.809 25.5958 119.985 24.8864C120.162 24.1769 120.081 23.4184 119.598 22.856C118.935 22.0831 117.87 22.1234 116.941 22.1234C111.698 22.1234 106.452 22.1206 101.209 22.1177C100.465 22.1177 100.462 23.2713 101.209 23.2713H101.212Z" fill="black"/>
<path d="M129.621 11.1699C130.35 9.79128 130.984 8.36368 131.516 6.90147C131.699 6.40253 131.855 5.80553 131.545 5.37581C131.267 4.99223 130.738 4.91437 130.266 4.8711C128.984 4.74709 127.703 4.62019 126.421 4.49618C126.131 4.46734 125.822 4.44427 125.564 4.57982C124.569 5.11336 125.764 6.66498 125.437 7.7465C125.174 8.61171 124.034 8.82513 123.136 8.68381C122.239 8.54249 121.299 8.21083 120.463 8.56268C118.828 9.25197 119.152 11.6313 119.76 13.2925C119.887 13.6415 120.029 14.0078 120.324 14.2327C120.654 14.4836 121.099 14.5038 121.513 14.5096C124.661 14.573 127.813 14.6336 130.961 14.697C131.45 14.7057 131.956 14.7115 132.399 14.5153C134.126 13.7453 133.443 10.9939 134.601 9.5C132.885 8.71554 130.773 8.86262 129.184 9.88069" fill="#FFE977"/>
<path d="M130.119 11.4612C130.59 10.5643 131.022 9.65003 131.415 8.7156C131.757 7.91096 132.196 7.04286 132.283 6.16323C132.37 5.28359 131.788 4.57412 130.926 4.38377C130.02 4.18477 129.045 4.17035 128.122 4.08095C127.601 4.02903 127.078 3.98 126.557 3.92809C126.12 3.88483 125.666 3.85311 125.266 4.07806C124.644 4.42703 124.52 5.07882 124.615 5.73062C124.699 6.29012 125.02 6.93903 124.896 7.50719C124.771 8.07535 124.062 8.14745 123.597 8.14168C122.702 8.12726 121.858 7.74368 120.949 7.85039C120.211 7.93691 119.569 8.31184 119.158 8.92902C118.417 10.048 118.654 11.6256 119.002 12.834C119.213 13.5695 119.476 14.4779 120.22 14.8413C121.018 15.2335 122.08 15.0951 122.943 15.1124C124.994 15.1528 127.046 15.1932 129.097 15.2335C129.67 15.2451 130.243 15.2566 130.816 15.2682C131.317 15.2768 131.84 15.2941 132.324 15.1499C133.03 14.9394 133.577 14.4289 133.875 13.7627C134.439 12.4966 134.248 10.9248 135.101 9.78847C135.275 9.55774 135.156 9.11649 134.893 8.99824C132.96 8.1388 130.697 8.24839 128.892 9.37893C128.261 9.77116 128.843 10.7719 129.476 10.3739C130.906 9.47988 132.755 9.30395 134.309 9.99324L134.1 9.20301C133.406 10.1288 133.336 11.3257 133.093 12.4158C132.995 12.86 132.876 13.3531 132.558 13.6992C132.112 14.1838 131.418 14.1261 130.816 14.1145C129.002 14.0799 127.19 14.0424 125.376 14.0078C124.47 13.9905 123.562 13.9732 122.656 13.953C122.216 13.9444 121.779 13.9415 121.34 13.9242C120.995 13.9098 120.694 13.8723 120.503 13.5608C120.194 13.0532 120.049 12.3668 119.939 11.79C119.841 11.2738 119.783 10.7114 119.89 10.1951C119.98 9.75098 120.176 9.34433 120.596 9.13091C121.285 8.77617 122.141 9.09053 122.853 9.21454C124.054 9.41931 125.706 9.1857 126.021 7.77541C126.155 7.17264 125.984 6.56122 125.845 5.97576C125.79 5.74792 125.718 5.50566 125.735 5.26917C125.744 5.13362 125.77 5.08171 125.975 5.0471C126.398 4.98077 126.921 5.11632 127.341 5.15669C127.839 5.20572 128.339 5.25475 128.837 5.30378C129.335 5.35281 129.855 5.38742 130.362 5.45375C130.605 5.48547 130.993 5.52008 131.105 5.77676C131.233 6.06517 131.05 6.4747 130.952 6.7458C130.784 7.22167 130.596 7.68888 130.402 8.1561C130.017 9.08188 129.583 9.99035 129.115 10.8786C128.77 11.5362 129.769 12.1188 130.113 11.4612H130.119Z" fill="black"/>
<path d="M126.603 18.403C125.087 18.2588 123.721 19.8594 123.996 21.3534C124.271 22.8473 125.966 23.8654 127.451 23.5308C128.935 23.1963 130.012 21.6764 129.965 20.1594C129.939 19.2769 129.546 18.377 128.808 17.8896C128.07 17.4022 126.979 17.434 126.372 18.0771" fill="#FFE977"/>
<path d="M126.603 17.8263C125.124 17.7167 123.756 18.9107 123.455 20.321C123.154 21.7312 124.019 23.2223 125.365 23.8308C126.71 24.4394 128.368 24.1481 129.421 23.0204C130.475 21.8928 130.854 20.1941 130.223 18.7463C129.876 17.9503 129.207 17.2869 128.351 17.0677C127.494 16.8486 126.58 17.0476 125.958 17.6705C125.431 18.1983 126.25 19.0145 126.777 18.4867C127.109 18.155 127.596 18.0656 128.044 18.181C128.545 18.3108 128.901 18.6799 129.132 19.1298C129.604 20.0556 129.392 21.215 128.77 22.0168C128.148 22.8185 127.167 23.2079 126.186 22.9166C125.307 22.6541 124.52 21.8726 124.543 20.9151C124.566 19.8537 125.538 18.902 126.606 18.9828C126.918 19.0058 127.185 18.7001 127.185 18.4059C127.185 18.0743 126.918 17.8522 126.606 17.8291L126.603 17.8263Z" fill="black"/>
<path d="M136.713 6.50053C135.177 14.0596 133.658 21.6245 132.156 29.1922C131.93 30.3256 131.768 31.6696 132.596 32.4771C133.536 33.3942 135.232 32.9357 136.036 31.9003C136.841 30.8649 136.997 29.4835 137.124 28.1799C137.278 26.6139 137.431 25.0478 137.581 23.4818C137.665 22.6195 137.761 21.7254 138.218 20.99C138.675 20.2545 139.613 19.7383 140.426 20.044C140.067 23.5337 139.711 27.0205 139.352 30.5102C139.245 31.5629 139.294 32.8982 140.267 33.3164C140.967 33.6163 141.809 33.2097 142.249 32.5867C142.689 31.9638 142.819 31.188 142.94 30.4381C144.072 23.4097 145.2 16.3842 146.332 9.35573C146.482 8.42707 146.56 7.30806 145.819 6.72549C145.061 6.12849 143.869 6.54956 143.293 7.32537C142.717 8.10118 142.579 9.09905 142.393 10.0421C142.032 11.8879 141.433 13.6847 140.611 15.3776C140.223 16.1765 139.393 17.0821 138.614 16.6524C137.874 16.2428 138.122 15.1411 138.426 14.3509C139.225 12.2888 139.714 10.1114 139.87 7.90794C139.908 7.38016 139.908 6.79182 139.563 6.39094C139.219 5.99005 138.403 6.01024 138.279 6.52649" fill="#FFE977"/>
<path d="M136.155 6.3478C134.832 12.8513 133.525 19.3577 132.228 25.867C132.063 26.689 131.901 27.5109 131.736 28.3329C131.603 29.0049 131.45 29.6797 131.406 30.3661C131.323 31.6264 131.759 32.9531 133.047 33.4117C134.135 33.7981 135.434 33.3367 136.224 32.5522C137.194 31.589 137.471 30.1758 137.628 28.8751C137.842 27.0812 137.984 25.2787 138.16 23.4819C138.232 22.7349 138.308 21.9303 138.719 21.2814C139.046 20.7651 139.662 20.396 140.272 20.6007L139.847 20.0441C139.566 22.7667 139.289 25.4921 139.008 28.2146C138.892 29.3509 138.646 30.5449 138.753 31.6899C138.84 32.633 139.231 33.5934 140.209 33.9077C141.256 34.2452 142.359 33.5674 142.877 32.6762C143.487 31.6236 143.548 30.2796 143.736 29.1029C144.167 26.415 144.601 23.7271 145.032 21.0391C145.464 18.3512 145.898 15.6633 146.329 12.9753C146.54 11.6689 146.783 10.3653 146.951 9.05303C147.075 8.07246 147.014 6.93326 146.167 6.2757C145.319 5.61814 144.199 5.8229 143.409 6.41413C142.492 7.09765 142.159 8.22243 141.948 9.29818C141.705 10.5325 141.424 11.7467 141.007 12.935C140.793 13.5435 140.553 14.1405 140.284 14.7259C140.07 15.1903 139.841 15.6777 139.43 16.0065C139.205 16.1853 138.878 16.2978 138.745 15.9661C138.611 15.6344 138.768 15.147 138.875 14.8182C139.26 13.6358 139.694 12.4937 139.96 11.2737C140.226 10.0538 140.458 8.77905 140.466 7.53603C140.472 6.53238 139.928 5.42779 138.762 5.5518C138.261 5.60372 137.877 5.89789 137.72 6.37664C137.489 7.08323 138.606 7.38894 138.837 6.68235C138.86 6.60736 139.141 6.78041 139.184 6.85539C139.407 7.21878 139.303 7.78117 139.271 8.18205C139.173 9.36739 138.967 10.5412 138.672 11.6919C138.528 12.2601 138.36 12.8225 138.169 13.3762C138.007 13.8463 137.801 14.3078 137.677 14.7894C137.46 15.6258 137.469 16.6727 138.322 17.1543C139.274 17.6907 140.229 16.9813 140.779 16.2257C141.088 15.7988 141.294 15.2999 141.505 14.8182C141.739 14.2789 141.956 13.7338 142.147 13.1801C142.532 12.0697 142.813 10.9363 143.033 9.78558C143.201 8.91171 143.374 7.78405 144.199 7.27358C144.491 7.09188 144.867 6.95922 145.209 7.06304C145.582 7.17264 145.753 7.51584 145.819 7.87634C145.892 8.27722 145.845 8.71272 145.788 9.11071C145.698 9.71059 145.597 10.3105 145.498 10.9075C145.099 13.3849 144.702 15.8594 144.303 18.3368C143.904 20.8142 143.507 23.2887 143.108 25.7661C142.911 26.9918 142.715 28.2175 142.518 29.4432C142.367 30.3805 142.344 31.7014 141.638 32.4282C141.094 32.9906 140.261 32.9906 140.009 32.1773C139.74 31.3092 139.951 30.32 140.041 29.4403C140.298 26.9312 140.556 24.4221 140.814 21.913C140.877 21.2929 140.941 20.67 141.004 20.0499C141.031 19.7903 140.805 19.5683 140.579 19.4933C139.315 19.0693 138.03 19.9547 137.518 21.0853C137.225 21.7313 137.116 22.4177 137.04 23.1185C136.953 23.9059 136.884 24.6932 136.809 25.4834C136.67 26.9197 136.626 28.4107 136.314 29.8239C136.074 30.9112 135.556 32.0071 134.396 32.3273C133.979 32.4426 133.504 32.4426 133.137 32.186C132.726 31.8975 132.578 31.3871 132.555 30.9112C132.526 30.2883 132.648 29.6797 132.769 29.0712C132.928 28.2723 133.088 27.4734 133.247 26.6745C133.869 23.5482 134.494 20.4248 135.122 17.3014C135.834 13.754 136.551 10.2095 137.272 6.66216C137.419 5.93827 136.302 5.62679 136.155 6.35645V6.3478Z" fill="black"/>
</g>
<defs>
<clipPath id="clip0_513_1927">
<rect width="147" height="34" fill="white"/>
</clipPath>
</defs>
</svg>
