<svg width="146" height="42" viewBox="0 0 146 42" fill="none" xmlns="http://www.w3.org/2000/svg">
<g clip-path="url(#clip0_745_1864)">
<path d="M3.44413 1.35621L5.50203 6.32295C5.61549 6.59321 5.73412 6.81248 6.00232 6.96546C6.23441 7.09804 6.57481 7.15924 6.83785 7.07255C7.3433 6.90937 7.82296 6.31275 7.59602 5.75692L5.53297 0.785083C5.4195 0.514819 5.30088 0.295548 5.03268 0.142568C4.80059 0.00998552 4.46019 -0.046107 4.19715 0.0405815C3.6917 0.20376 3.21204 0.800381 3.43898 1.35621H3.44413Z" fill="black"/>
<path d="M4.46034 10.4383C4.60476 10.2445 4.92969 10.0609 5.27525 9.97423C5.59502 9.89774 6.03342 9.91304 6.38414 10.0099C6.60592 10.0711 6.67812 10.0966 6.94116 10.27C7.2042 10.4434 6.85348 10.168 7.0701 10.3771C7.07526 10.3822 7.29704 10.6218 7.19389 10.4893C7.59102 10.9941 7.60134 11.6774 7.53945 12.2893C7.27641 14.9614 5.68786 17.4753 3.65575 19.1887C3.2122 19.5661 3.26377 20.3157 3.65575 20.7032C4.09931 21.1418 4.73886 21.0806 5.18757 20.7032C7.32798 18.9031 8.88043 16.3841 9.48903 13.6712C9.80365 12.2587 9.93259 10.6065 9.03 9.37251C8.31825 8.39854 7.19904 7.88351 6.00247 7.79682C4.64602 7.69484 3.39271 8.29656 2.59328 9.36232C2.24256 9.82635 2.51592 10.5607 2.9801 10.8258C3.53197 11.1471 4.10962 10.9074 4.46034 10.4434V10.4383Z" fill="black"/>
<path d="M8.11685 14.0484C9.48362 15.8076 11.0206 17.4088 12.769 18.806C13.0011 18.9896 13.2281 19.1222 13.5324 19.1222C13.8006 19.1222 14.1152 19.0049 14.2957 18.806C14.6567 18.4185 14.765 17.6689 14.2957 17.2915C13.4705 16.6337 12.6865 15.93 11.9438 15.1855C11.5776 14.8184 11.2217 14.4359 10.8813 14.0484C10.7111 13.8546 10.5409 13.6557 10.3759 13.4568C10.2882 13.3498 10.2005 13.2478 10.118 13.1407C10.0819 13.0999 10.051 13.054 10.0149 13.0132C9.98907 12.9826 9.81887 12.7582 9.98391 12.9724C9.8034 12.7429 9.6332 12.5594 9.33405 12.4778C9.07617 12.4064 8.73061 12.437 8.49852 12.5849C8.05496 12.8653 7.74035 13.5741 8.1117 14.0484H8.11685Z" fill="black"/>
<path d="M3.98585 23.5383C8.66897 23.8239 13.383 23.3854 17.9372 22.2584C19.2885 21.9219 18.716 19.8566 17.3596 20.1932C12.9859 21.2742 8.48845 21.672 3.98585 21.3966C2.59329 21.3099 2.59844 23.4517 3.98585 23.5383Z" fill="black"/>
<path d="M12.9908 21.3562C11.588 23.1563 11.1135 25.5478 11.5622 27.7558C11.6756 28.3066 12.3668 28.6737 12.8928 28.5054C13.486 28.3168 13.7696 27.7762 13.651 27.1898C13.6252 27.0725 13.6046 26.9553 13.5891 26.838C13.6355 27.1133 13.5788 26.7309 13.5736 26.6799C13.553 26.4402 13.5479 26.2057 13.553 25.966C13.553 25.8487 13.5633 25.7263 13.5685 25.609C13.5685 25.558 13.6149 25.1705 13.5788 25.451C13.6098 25.2317 13.651 25.0073 13.7077 24.7931C13.7645 24.579 13.8264 24.3597 13.8986 24.1506C13.9398 24.0384 13.9811 23.9263 14.0275 23.8141C13.9347 24.0537 14.0791 23.7019 14.0997 23.6611C14.3112 23.2276 14.5639 22.8248 14.8631 22.4475C15.2086 22.0038 14.9456 21.2287 14.4762 20.9839C13.9037 20.6831 13.3673 20.8922 12.996 21.3664L12.9908 21.3562Z" fill="black"/>
<path d="M6.97705 29.3468C8.71002 28.8623 11.1754 28.1229 12.4648 29.7394C12.8877 30.2647 13.027 30.8409 12.7175 31.3457C12.4338 31.8047 11.7994 32.0647 11.1547 32.2483C10.3501 32.4829 9.48882 32.5848 8.71002 32.8959C7.76617 33.2733 6.95642 33.875 6.3633 34.7011C5.81659 35.4609 5.59997 36.4552 5.97132 37.3323C6.38908 38.3165 7.34324 38.8672 8.40056 38.9335C9.52492 38.9998 10.5771 38.546 11.5931 38.1329C12.8619 37.6128 14.1307 37.0978 15.3995 36.5776C15.941 36.3583 16.3227 35.8688 16.1576 35.262C16.0184 34.7572 15.3685 34.2931 14.827 34.5124C13.6717 34.9815 12.5215 35.4558 11.3662 35.9249C10.5616 36.2513 9.60229 36.7306 8.79254 36.7918C8.57592 36.8071 8.44182 36.802 8.32835 36.7765C8.21488 36.751 8.15299 36.7306 8.055 36.649C8.04468 36.6388 7.94669 36.4246 7.97763 36.5368C7.8848 36.2105 7.97763 36.649 7.957 36.4552C7.957 36.4042 7.957 36.3481 7.957 36.2972C7.94669 36.4042 7.957 36.394 7.97763 36.2615C8.03437 36.083 8.19941 35.8229 8.40056 35.6138C8.67907 35.3283 8.98853 35.109 9.37019 34.9356C10.0149 34.645 10.9381 34.543 11.6757 34.3339C12.537 34.0891 13.4086 33.7373 14.0533 33.105C15.5748 31.6262 15.188 29.306 13.7232 27.9394C11.6911 26.0475 8.8338 26.6084 6.40456 27.2866C5.06357 27.6589 5.63607 29.7292 6.98221 29.3519L6.97705 29.3468Z" fill="black"/>
<path d="M19.041 7.04744C19.0307 9.72968 19.0203 12.4119 19.01 15.0942C18.9997 17.1696 18.7882 19.602 20.1911 21.3255C21.5012 22.942 23.7499 23.0338 25.4777 22.0344C27.4531 20.8921 28.2525 18.7708 28.3195 16.5934C28.3608 15.2777 28.1442 13.9672 27.9585 12.672C27.747 11.1881 27.5356 9.70419 27.3293 8.22028C27.2468 7.64916 26.5092 7.333 25.9986 7.47068C25.3745 7.63896 25.1631 8.21518 25.2404 8.78631C25.5344 10.8719 25.9109 12.9627 26.0966 15.0585C26.241 16.7005 26.241 18.6994 24.8536 19.8569C23.9459 20.6116 22.5017 20.9431 21.7487 19.811C21.3413 19.1991 21.2381 18.4087 21.1969 17.6948C21.1401 16.7056 21.1762 15.7061 21.1814 14.7117C21.1917 12.157 21.202 9.5971 21.2123 7.04234C21.2175 5.66552 19.0513 5.66042 19.0461 7.04234L19.041 7.04744Z" fill="black"/>
<path d="M21.3669 16.9145C23.7291 16.2872 26.0913 15.66 28.4535 15.0379C29.0208 14.89 29.3664 14.273 29.2117 13.7223C29.057 13.1715 28.4484 12.8248 27.881 12.9727C25.5188 13.5999 23.1566 14.2271 20.7944 14.8492C20.2271 14.9971 19.8815 15.6141 20.0363 16.1649C20.191 16.7156 20.7996 17.0623 21.3669 16.9145Z" fill="black"/>
<path d="M30.6558 4.55853C30.9756 10.2086 31.3005 15.8535 31.6203 21.5036C31.6977 22.8753 33.8639 22.8804 33.7865 21.5036C33.4667 15.8535 33.1418 10.2086 32.822 4.55853C32.7447 3.18682 30.5785 3.18172 30.6558 4.55853Z" fill="black"/>
<path d="M33.9878 15.4716C35.3442 15.2167 36.7058 14.9617 38.0623 14.7016C38.6193 14.5945 38.9907 13.9061 38.8205 13.386C38.6296 12.7996 38.0881 12.5242 37.4898 12.6364C36.1333 12.8914 34.7717 13.1463 33.4153 13.4064C32.8582 13.5135 32.4869 14.2019 32.6571 14.722C32.8479 15.3085 33.3895 15.5838 33.9878 15.4716Z" fill="black"/>
<path d="M26.8805 26.6643C27.8089 26.2054 28.7888 25.7006 29.841 25.5884C30.5785 25.5119 31.4656 25.6496 31.9865 26.2156C33.0181 27.3323 31.837 29.0151 30.5682 29.525C29.6295 29.9024 28.5825 29.9228 27.5871 29.8667C26.4679 29.8004 25.3126 29.576 24.3894 30.3868C22.8988 31.6974 23.6157 34.196 25.1939 35.0833C26.2616 35.6799 27.5252 35.7207 28.7166 35.5779C29.908 35.4352 31.1974 35.1037 32.3888 35.5575C32.9355 35.7666 33.5751 35.3281 33.7195 34.8079C33.8897 34.2011 33.5132 33.7014 32.9613 33.4923C31.7699 33.0385 30.5011 33.1813 29.2685 33.3546C28.371 33.4821 27.3189 33.681 26.4524 33.3138C26.0965 33.166 25.9676 33.0487 25.8232 32.7376C25.7613 32.605 25.7252 32.2532 25.7561 32.1257C25.7922 31.9931 25.7252 32.0492 25.8335 31.9625C25.7407 32.039 25.9521 31.9115 26.0295 31.8962C26.5401 31.8146 27.1487 31.9778 27.6593 32.0033C29.8771 32.1206 32.2393 31.626 33.6267 29.7698C34.9264 28.0309 34.8078 25.568 32.9768 24.2472C30.7332 22.6308 27.9739 23.722 25.7819 24.8031C25.261 25.0631 25.1114 25.7923 25.3951 26.2666C25.7046 26.7918 26.3544 26.9091 26.8753 26.649L26.8805 26.6643Z" fill="black"/>
<path d="M42.3222 11.0248C43.0494 10.4435 44.2563 9.66839 45.2105 9.80097C46.4999 9.97945 45.4993 11.7591 45.1228 12.3455C44.179 13.7988 43.1113 15.191 42.1056 16.6035C41.0999 18.016 40.0013 19.5662 38.9491 21.045C38.6139 21.5192 38.8615 22.2331 39.336 22.5085C39.8775 22.8195 40.481 22.6003 40.8162 22.126C42.0953 20.326 43.3795 18.5208 44.6586 16.7208C45.2982 15.8182 45.9429 14.9207 46.5824 14.0181C47.1394 13.2328 47.6913 12.3812 47.9079 11.4328C48.3205 9.6123 47.2426 7.82243 45.2879 7.67455C43.6271 7.55217 42.0179 8.52104 40.7853 9.51541C40.3314 9.88256 40.4036 10.6526 40.7853 11.0299C41.234 11.4735 41.8632 11.3971 42.3171 11.0299L42.3222 11.0248Z" fill="black"/>
<path d="M44.6331 16.4044C45.2159 17.3477 45.7265 18.3268 46.1804 19.3365C46.232 19.4537 46.2371 19.4741 46.201 19.3875C46.232 19.4537 46.2578 19.5251 46.2836 19.5914C46.3248 19.6934 46.3661 19.7954 46.4073 19.8974C46.5156 20.1728 46.6188 20.4481 46.7168 20.7235C46.9025 21.2436 47.0624 21.7739 47.2119 22.3043C47.3615 22.8346 47.9907 23.2323 48.5426 23.0539C49.0945 22.8754 49.4607 22.3145 49.3008 21.7382C48.6819 19.4843 47.7328 17.3171 46.5053 15.3233C46.2113 14.844 45.5202 14.6196 45.0251 14.9408C44.53 15.2621 44.3185 15.8944 44.6383 16.4044H44.6331Z" fill="black"/>
<path d="M52.8182 8.54628L51.9362 30.9731C51.8846 32.3499 54.0508 32.3499 54.1024 30.9731L54.9844 8.54628C55.0359 7.16947 52.8697 7.16947 52.8182 8.54628Z" fill="black"/>
<path d="M70.4988 10.9176C68.7091 10.836 67.2856 12.1669 66.6924 13.7375C66.4036 14.4973 66.3572 15.3693 66.5532 16.1597C66.7698 17.0265 67.3268 17.7405 68.0489 18.2555C69.4208 19.2244 71.3394 19.1581 72.7991 18.434C74.367 17.6589 75.2696 15.9404 75.0478 14.227C74.7899 12.2179 73.3716 10.3668 71.3343 9.8671C70.7876 9.73451 70.1326 10.0405 70.0036 10.6167C69.8747 11.1929 70.1738 11.7895 70.7618 11.9323C70.8392 11.9527 71.1538 11.9935 71.1899 12.0649C71.1899 12.0649 70.9939 11.9731 71.1022 12.0292C71.1486 12.0496 71.195 12.07 71.2363 12.0904C71.3137 12.1312 71.391 12.172 71.4632 12.2128C71.5251 12.2485 71.5922 12.2893 71.6541 12.3301C71.685 12.3505 71.716 12.376 71.7469 12.3964C71.8501 12.4576 71.6747 12.3403 71.6747 12.3403C71.8036 12.3862 71.9687 12.5952 72.0615 12.6921C72.1131 12.7482 72.1647 12.7992 72.2111 12.8553C72.2369 12.8808 72.2575 12.9165 72.2833 12.942C72.3658 13.0287 72.2266 12.8706 72.2317 12.8706C72.34 12.942 72.4329 13.1613 72.4999 13.2734C72.567 13.3907 72.7011 13.5692 72.7217 13.7018C72.7217 13.7018 72.6495 13.4978 72.6856 13.6151C72.6959 13.6508 72.7114 13.6865 72.7268 13.7171C72.7578 13.7987 72.7836 13.8803 72.8042 13.9619C72.8455 14.1046 72.8661 14.2474 72.9022 14.3902C72.9332 14.5126 72.8816 14.2831 72.8919 14.2882C72.9022 14.2882 72.9022 14.3851 72.9022 14.3953C72.9074 14.4922 72.9177 14.5891 72.9177 14.686C72.9177 14.7573 72.9177 14.8287 72.9125 14.9052C72.9125 14.946 72.8816 15.1857 72.9074 15.0174C72.9332 14.8491 72.8919 15.0837 72.8816 15.1245C72.8609 15.2061 72.8403 15.2877 72.8197 15.3693C72.8042 15.4203 72.7372 15.665 72.7733 15.5171C72.8094 15.3693 72.7423 15.5783 72.7217 15.6242C72.7011 15.6599 72.4793 15.9863 72.4896 16.0016C72.4896 15.9965 72.634 15.8384 72.5567 15.9149C72.5309 15.9404 72.5154 15.9659 72.4896 15.9914C72.4432 16.0424 72.3968 16.0883 72.3503 16.1393C72.2936 16.1954 72.2369 16.2463 72.175 16.2973C71.9945 16.4554 72.2988 16.2209 72.1544 16.3126C72.0409 16.384 71.9274 16.4605 71.8036 16.5217C71.7417 16.5523 71.6799 16.5829 71.618 16.6135C71.4787 16.6849 71.6386 16.5625 71.6902 16.588C71.6747 16.5829 71.5767 16.6288 71.5612 16.6339C71.4323 16.6798 71.2982 16.7206 71.1641 16.7512C71.097 16.7665 71.03 16.7818 70.9629 16.792C70.9268 16.7971 70.8959 16.8022 70.8598 16.8073C70.7205 16.8379 71.0867 16.792 70.9423 16.7971C70.7927 16.8022 70.6483 16.8226 70.4988 16.8175C70.4317 16.8175 70.3595 16.8175 70.2925 16.8124C70.246 16.8124 69.983 16.7869 70.1635 16.8022C70.344 16.8175 70.1171 16.792 70.0758 16.7818C70.0088 16.7665 69.9417 16.7512 69.8798 16.7359C69.8025 16.7155 69.7303 16.6951 69.6529 16.6696C69.622 16.6594 69.591 16.6441 69.5601 16.6339C69.4311 16.5982 69.7509 16.7308 69.6323 16.6645C69.5136 16.5982 69.395 16.5472 69.2816 16.4758C69.2351 16.4452 69.0959 16.3126 69.199 16.4248C69.3125 16.5472 69.1114 16.3432 69.0804 16.3126C69.0288 16.2667 68.9876 16.2158 68.9412 16.1699C68.9412 16.1648 68.8741 16.0934 68.8741 16.0934C68.8793 16.0934 68.9979 16.2718 68.936 16.175C68.8586 16.0526 68.7813 15.9302 68.7091 15.8027C68.6162 15.6344 68.7709 15.9965 68.7142 15.818C68.6936 15.7466 68.6678 15.6752 68.6472 15.5987C68.6317 15.5375 68.6214 15.4713 68.6059 15.405C68.575 15.2979 68.6214 15.5273 68.6214 15.5273C68.6214 15.4866 68.6111 15.4356 68.6059 15.3948C68.5956 15.2622 68.5956 15.1296 68.6059 15.0021C68.6059 14.9562 68.6317 14.6911 68.6111 14.8797C68.5956 15.0582 68.6265 14.8083 68.6369 14.7573C68.673 14.6044 68.7142 14.4565 68.7709 14.3086C68.7813 14.278 68.7967 14.2474 68.8071 14.2168C68.8483 14.0893 68.7091 14.4055 68.7761 14.2882C68.8225 14.2117 68.8535 14.125 68.8999 14.0485C68.936 13.9823 68.9773 13.9109 69.0237 13.8497C69.0443 13.8242 69.0598 13.7936 69.0804 13.7681C69.1165 13.7171 69.199 13.6661 69.0959 13.7426C68.9721 13.8293 69.1423 13.6916 69.1784 13.6457C69.23 13.5896 69.2816 13.5335 69.3383 13.4774C69.4002 13.4162 69.4724 13.3652 69.5343 13.304C69.6168 13.2276 69.4466 13.3703 69.4466 13.3703C69.4672 13.3703 69.5343 13.3091 69.5549 13.2989C69.6168 13.2581 69.6839 13.2174 69.7509 13.1817C69.7818 13.1664 69.8076 13.1511 69.8386 13.1358C69.9675 13.0644 69.8025 13.1613 69.7561 13.1664C69.8798 13.1562 70.1068 13.0746 70.2254 13.0287C70.3234 12.993 70.1119 13.044 70.1016 13.044C70.1326 13.0542 70.1996 13.0338 70.2357 13.0338C70.3286 13.0338 70.4162 13.0338 70.5091 13.0338C71.0764 13.0593 71.618 12.5238 71.5922 11.9629C71.5664 11.3612 71.1177 10.9227 70.5091 10.8921L70.4988 10.9176Z" fill="black"/>
<path d="M80.1692 6.56297C79.8339 11.2136 79.4987 15.8641 79.1583 20.5147C79.0603 21.8915 81.2265 21.8813 81.3245 20.5147C81.6597 15.8641 81.995 11.2136 82.3354 6.56297C82.4334 5.18615 80.2671 5.19635 80.1692 6.56297Z" fill="black"/>
<path d="M70.9577 22.4982C70.9422 24.5277 70.9319 26.5572 70.9164 28.5817C70.9113 29.5199 70.7927 30.5551 71.0248 31.473C71.2569 32.3909 71.9686 33.0844 72.8712 33.4158C74.3669 33.9716 76.1205 33.4923 77.3583 32.5744C78.7148 31.5699 79.6535 30.1013 80.0506 28.4746C80.587 26.2564 80.2621 23.9872 79.932 21.769C79.8443 21.1978 79.1119 20.8817 78.6013 21.0194C77.9824 21.1876 77.7606 21.7639 77.8431 22.335C78.1268 24.2523 78.426 26.2819 77.8896 28.1839C77.5131 29.5199 76.5331 30.8968 75.1457 31.3455C74.6196 31.5138 73.7789 31.6566 73.3147 31.2537C73.0878 31.0548 73.0827 30.7591 73.0723 30.4786C73.0569 29.984 73.0723 29.4842 73.0775 28.9896C73.093 26.8224 73.1084 24.6552 73.1188 22.4931C73.1291 21.1162 70.9629 21.1111 70.9526 22.4931L70.9577 22.4982Z" fill="black"/>
<path d="M73.5828 29.408C73.4951 29.4437 73.5106 29.4386 73.6292 29.3876C73.6963 29.3621 73.7685 29.3315 73.8355 29.306C73.9387 29.2652 74.0418 29.2295 74.145 29.1938C74.3874 29.1071 74.635 29.0306 74.8825 28.9592C75.3415 28.8266 75.8109 28.7247 76.2854 28.6431C76.3937 28.6227 76.502 28.6074 76.6155 28.5921C76.4247 28.6176 76.7805 28.5768 76.8218 28.5717C77.059 28.5462 77.3014 28.5309 77.5387 28.5156C78.0545 28.4901 78.5702 28.5003 79.086 28.536C79.6533 28.5768 80.1949 28.0158 80.1691 27.4651C80.1433 26.8532 79.6946 26.4351 79.086 26.3943C76.8166 26.2413 74.5782 26.6696 72.4945 27.5518C71.9736 27.7711 71.8189 28.5717 72.1077 29.0153C72.4584 29.5507 73.0309 29.6374 73.588 29.3978L73.5828 29.408Z" fill="black"/>
<path d="M90.1234 11.4069C90.438 10.331 91.8821 9.77003 92.7486 10.5043C93.7905 11.3916 93.4552 12.7123 92.4031 13.4466C91.0311 14.4053 89.3446 14.7929 88.2254 16.1085C87.034 17.5108 86.5337 19.6525 88.1893 20.9426C89.8449 22.2328 92.1297 21.3149 93.6512 20.3001C94.8014 19.5352 93.7183 17.6791 92.5578 18.4491C91.9028 18.8876 91.1446 19.3211 90.34 19.4128C89.8965 19.4638 89.3755 19.3873 89.2672 18.8468C89.1589 18.3063 89.6901 17.6332 90.1285 17.2201C90.7062 16.6745 91.4798 16.3736 92.1813 16.0218C93.7905 15.2212 95.3635 14.0892 95.5337 12.1718C95.6885 10.4278 94.5228 8.62778 92.795 8.14334C90.7887 7.58242 88.5967 8.87764 88.0294 10.8256C87.6426 12.1514 89.7314 12.7174 90.1182 11.3967L90.1234 11.4069Z" fill="black"/>
<path d="M96.9417 12.0394C98.4839 12.3403 100.109 12.2383 101.568 11.6417C101.841 11.5295 102.058 11.4122 102.218 11.147C102.352 10.9175 102.414 10.581 102.326 10.3209C102.239 10.0609 102.079 9.81099 101.826 9.67841C101.573 9.54583 101.254 9.46424 100.99 9.57133C100.676 9.69881 100.356 9.8059 100.031 9.89258C99.8661 9.93338 99.7011 9.96907 99.536 9.99967C99.5051 9.99967 99.3194 10.0303 99.3194 10.0354C99.4896 10.015 99.5102 10.0099 99.3916 10.0252C99.3555 10.0252 99.3194 10.0354 99.2833 10.0354C98.9584 10.066 98.6334 10.0762 98.3034 10.066C98.1332 10.0609 97.9681 10.0456 97.7979 10.0252C97.5452 9.99967 98.0506 10.0711 97.7979 10.0252C97.7051 10.0099 97.6071 9.99457 97.5142 9.97417C96.9624 9.86709 96.3177 10.1272 96.1836 10.7238C96.0598 11.2541 96.3435 11.9272 96.9417 12.0394Z" fill="black"/>
<path d="M97.7258 17.5875H101.759C102.326 17.5875 102.868 17.0929 102.842 16.5167C102.816 15.9404 102.368 15.4458 101.759 15.4458H97.7258C97.1585 15.4458 96.6169 15.9404 96.6427 16.5167C96.6685 17.0929 97.1172 17.5875 97.7258 17.5875Z" fill="black"/>
<path d="M102.342 6.04775C102.63 12.3658 102.367 18.6992 101.568 24.9764C101.496 25.5527 102.12 26.0473 102.651 26.0473C103.296 26.0473 103.662 25.5527 103.734 24.9764C104.539 18.6992 104.797 12.3658 104.508 6.04775C104.446 4.67604 102.28 4.66584 102.342 6.04775Z" fill="black"/>
<path d="M90.9021 26.4911C91.9284 26.8021 93.0012 26.7001 94.0482 26.6033C94.5382 26.5574 95.0179 26.5319 95.5078 26.537C95.5646 26.537 95.6161 26.5421 95.6729 26.5472C95.58 26.5319 95.5697 26.5319 95.6471 26.5472C95.7657 26.5676 95.8792 26.5931 95.9978 26.6288C96.2093 26.69 95.8998 26.5523 96.1061 26.6696C96.1474 26.6899 96.3691 26.8531 96.2144 26.7256C96.2144 26.7256 96.4362 26.9551 96.3279 26.8174C96.3795 26.8837 96.4465 26.9755 96.4826 27.052C96.5909 27.2815 96.6167 27.5517 96.6373 27.8016C96.7044 28.5359 96.7147 29.2855 96.6992 30.0249C96.6734 31.4272 96.529 32.8193 96.2557 34.2013C96.1422 34.7673 96.4207 35.3588 97.0139 35.5169C97.5451 35.6597 98.2311 35.3384 98.3445 34.7673C98.6643 33.1508 98.85 31.4986 98.8706 29.8515C98.8861 28.3727 98.9944 26.5166 97.8958 25.359C97.0603 24.4768 95.8018 24.3443 94.6465 24.4157C94.0792 24.4513 93.5118 24.5278 92.9393 24.5533C92.6763 24.5686 92.4132 24.5686 92.1554 24.5533C91.8562 24.538 91.815 24.5278 91.4746 24.4259C90.1387 24.023 89.5662 26.0882 90.8969 26.4911H90.9021Z" fill="black"/>
<path d="M116.113 18.9285C117.742 18.3828 119.372 17.8321 120.997 17.2865C121.373 17.159 122.291 16.6899 122.58 16.9805C122.952 17.3579 122.941 18.4338 123.013 18.9132C123.498 22.243 123.565 25.629 123.292 28.9792C123.179 30.3509 125.345 30.3458 125.458 28.9792C125.778 25.0782 125.67 21.0498 124.917 17.1998C124.772 16.4706 124.489 15.7516 123.895 15.2671C123.122 14.6297 122.132 14.6807 121.224 14.951C119.31 15.5221 117.428 16.2258 115.535 16.8632C114.225 17.3069 114.787 19.3721 116.113 18.9285Z" fill="black"/>
<path d="M133.257 17.9546C135.036 18.4594 136.609 17.6691 138.239 17.0724C139.054 16.7767 140.483 16.3687 141.117 17.103C141.462 17.5059 141.437 18.1178 141.37 18.6022C141.272 19.3518 141.009 20.0912 140.802 20.8153C140.297 22.5899 139.797 24.3594 139.291 26.1339C138.915 27.4649 141.003 28.0309 141.38 26.7051C141.937 24.7367 142.499 22.7633 143.056 20.7949C143.489 19.2651 143.964 17.4498 142.979 16.022C141.994 14.5942 140.235 14.3953 138.652 14.7216C137.068 15.048 135.459 16.3534 133.819 15.8894C132.478 15.5069 131.905 17.5773 133.241 17.9546H133.257Z" fill="black"/>
</g>
<defs>
<clipPath id="clip0_745_1864">
<rect width="146" height="42" fill="white"/>
</clipPath>
</defs>
</svg>
