<svg width="121" height="50" viewBox="0 0 121 50" fill="none" xmlns="http://www.w3.org/2000/svg">
<path d="M30.7049 10.6538C22.5565 9.13537 14.1811 10.4812 6.00248 11.827C5.71863 11.8731 5.41586 11.9306 5.21149 12.1338C4.92007 12.4252 4.93521 12.893 4.96927 13.3032C5.19635 16.0601 5.42721 18.8208 5.65429 21.5777C5.80946 23.4373 5.99112 25.3889 7.02055 26.938C7.42172 27.54 7.95536 28.0998 8.08025 28.8168C8.14081 29.1619 8.10296 29.5491 8.30733 29.829C8.61767 30.2585 9.25728 30.1895 9.77199 30.0744C16.2664 28.6212 22.7647 27.1642 29.2592 25.711C29.4635 25.665 29.6868 25.6113 29.8193 25.4465C29.9858 25.2471 29.9669 24.9557 29.9442 24.6988C29.8496 23.7172 29.7549 22.7394 29.6603 21.7579C29.6263 21.3936 29.5771 20.9948 29.3197 20.7379C28.9942 20.412 28.4719 20.435 28.0178 20.4772C23.2908 20.9412 18.5599 21.4051 13.8329 21.8691C13.1971 21.9304 12.4364 21.9381 12.0693 21.4128C11.8535 21.106 11.846 20.6996 11.8422 20.3238C11.8384 19.116 11.8308 17.9121 11.8271 16.7043C11.8271 16.4244 11.8346 16.1138 12.0276 15.9144C12.2055 15.7227 12.4894 15.692 12.7467 15.669C17.7235 15.2242 22.6966 14.7833 27.6734 14.3385C27.9989 14.3078 28.3546 14.2657 28.5703 14.0126C28.7066 13.8554 28.7558 13.6407 28.8012 13.4374C29.0926 12.153 29.384 10.8685 29.6755 9.58398" fill="#455B92"/>
<path d="M30.8185 10.2364C22.8291 8.76788 14.7262 9.96418 6.80114 11.2602C6.05178 11.3829 5.04885 11.379 4.67416 12.1842C4.32219 12.9396 4.60604 14.017 4.67416 14.8107C4.84447 16.8812 5.01857 18.9479 5.18888 21.0184C5.33269 22.7439 5.43109 24.523 6.11612 26.1334C6.44917 26.9156 6.99037 27.5176 7.41047 28.2384C7.79272 28.8979 7.56185 29.845 8.22417 30.3358C8.81836 30.7729 9.60935 30.5582 10.2603 30.4086C11.2708 30.1824 12.2813 29.9562 13.2918 29.73C15.3128 29.2775 17.3376 28.8251 19.3586 28.3726C21.3796 27.9202 23.4044 27.4677 25.4254 27.0153C26.4359 26.7891 27.4464 26.5628 28.4569 26.3366C29.123 26.1871 30.1297 26.1487 30.3454 25.3397C30.4476 24.9601 30.3568 24.5345 30.319 24.1511C30.266 23.5989 30.213 23.0468 30.16 22.4985C30.0919 21.7776 30.1335 20.8536 29.5204 20.3513C28.8619 19.8106 27.8476 20.0714 27.0869 20.1442C26.0915 20.2401 25.0961 20.3398 24.1008 20.4356C22.0457 20.635 19.9944 20.8382 17.9394 21.0376C16.9137 21.1373 15.8843 21.237 14.8587 21.3405C14.2607 21.398 12.9209 21.7623 12.4478 21.2102C12.1829 20.9034 12.2662 20.3244 12.2662 19.9487C12.2662 19.408 12.2624 18.8674 12.2586 18.3306C12.2586 17.8245 12.251 17.3145 12.251 16.8084C12.251 16.6627 12.2132 16.379 12.3116 16.2486C12.463 16.053 12.9058 16.0914 13.1177 16.0722C15.169 15.8882 17.2241 15.708 19.2753 15.5239C21.3266 15.3399 23.3817 15.1596 25.433 14.9756C25.9288 14.9296 26.4283 14.8874 26.9241 14.8414C27.3442 14.8031 27.7946 14.8069 28.2033 14.6995C29.1609 14.4503 29.2252 13.4764 29.4144 12.6444C29.6377 11.6666 29.8572 10.685 30.0805 9.70729C30.2016 9.16665 29.3804 8.93659 29.2593 9.47723C29.036 10.455 28.8164 11.4366 28.5932 12.4143C28.5099 12.7862 28.491 13.3499 28.2828 13.6758C28.0557 14.0285 27.2799 13.948 26.9241 13.9787C24.9637 14.1551 23.007 14.3276 21.0466 14.504C19.0861 14.6804 17.19 14.8491 15.2636 15.0178C14.3477 15.0983 13.4129 15.1366 12.5008 15.2708C11.706 15.3897 11.4071 15.9418 11.3995 16.7125C11.3881 17.698 11.4071 18.6795 11.4108 19.6649C11.4108 20.3781 11.3124 21.26 11.8423 21.8236C12.3002 22.3068 13.0117 22.3681 13.6362 22.3259C14.5748 22.2608 15.5096 22.1457 16.4444 22.0537C20.3237 21.6741 24.203 21.237 28.086 20.9111C28.438 20.8804 28.8959 20.8229 29.1079 21.1795C29.3198 21.5361 29.2668 22.1151 29.3047 22.4985C29.3501 22.9586 29.3917 23.4187 29.4371 23.8788C29.4674 24.1856 29.6756 24.9371 29.4561 25.1748C29.2365 25.4125 28.5326 25.4394 28.226 25.5084C27.734 25.6196 27.2458 25.727 26.7538 25.8382C25.7736 26.0567 24.7934 26.2791 23.8131 26.4976C20.0134 27.3489 16.2136 28.2001 12.4138 29.0513C11.4563 29.266 10.4987 29.5152 9.53744 29.6954C9.29522 29.7415 8.88648 29.8258 8.68589 29.6264C8.43232 29.381 8.5118 28.6985 8.39448 28.3688C8.1409 27.6518 7.5997 27.1073 7.21745 26.4631C6.79357 25.7423 6.54757 24.9333 6.38483 24.1166C6.03285 22.3374 5.98365 20.4816 5.83605 18.6757C5.75657 17.7056 5.67331 16.7317 5.59383 15.7616C5.51436 14.7916 5.32512 13.8291 5.37433 12.8936C5.40082 12.3683 5.75657 12.3146 6.19938 12.2379C6.68381 12.1574 7.16825 12.0769 7.65647 12.0002C8.59885 11.8468 9.54122 11.6973 10.4874 11.5516C12.4024 11.2602 14.3175 10.9956 16.2438 10.8001C20.0474 10.409 23.8888 10.2633 27.7 10.662C28.6651 10.7617 29.6264 10.9036 30.5839 11.08C31.1213 11.1797 31.3484 10.3476 30.811 10.2479L30.8185 10.2364Z" fill="black"/>
<path d="M26.5871 31.5353C21.7125 33.2262 16.607 34.2347 11.4637 34.5222C10.2412 34.5913 8.8182 34.7216 8.14453 35.7607C7.36111 36.9724 8.24672 38.74 9.58648 39.2499C10.9262 39.7599 12.4401 39.3151 13.689 38.6096C14.5217 38.138 15.7025 37.6012 16.2891 38.3642C16.5237 38.6709 16.5502 39.085 16.5654 39.4761C16.6638 42.1716 16.7016 44.871 16.6751 47.5703C18.4426 47.0144 20.2062 46.4622 21.9736 45.9063C22.2878 45.8066 22.6284 45.6915 22.8176 45.4193C23.0561 45.0742 22.9766 44.6064 22.8971 44.1923C22.583 42.5359 22.4619 40.845 22.5338 39.1617C22.5527 38.7323 22.6019 38.2645 22.9009 37.9654C23.2718 37.5897 23.866 37.6203 24.392 37.6242C25.781 37.6395 27.1775 37.2944 28.4038 36.6388C28.7482 36.4547 29.0926 36.2323 29.2856 35.8949C29.5467 35.4425 29.49 34.8788 29.4294 34.3612C29.3234 33.4908 29.2061 32.5821 28.7255 31.8536C28.2448 31.1251 27.2722 30.6458 26.4849 31.0177" fill="#455B92"/>
<path d="M26.4738 31.1174C23.6391 32.0952 20.7287 32.8543 17.7766 33.3681C16.2779 33.6289 14.7716 33.8244 13.2578 33.9586C12.0164 34.0698 10.6918 34.0085 9.48825 34.3574C8.50045 34.645 7.61863 35.339 7.45967 36.4202C7.31964 37.3826 7.76244 38.3796 8.45882 39.0237C9.34443 39.8443 10.5669 40.013 11.7136 39.8098C12.3305 39.7024 12.9247 39.4762 13.4848 39.2001C14.045 38.924 14.5408 38.5751 15.1387 38.4486C15.3999 38.3911 15.7064 38.3642 15.9146 38.5713C16.1795 38.832 16.1417 39.3151 16.153 39.6564C16.1871 40.5344 16.2098 41.4125 16.2287 42.2905C16.2628 44.0466 16.2741 45.8028 16.2552 47.5627C16.2552 47.8349 16.5315 48.0612 16.7926 47.9768C17.8523 47.6432 18.912 47.3096 19.9717 46.9799C20.5016 46.815 21.0314 46.6463 21.5613 46.4814C22.0041 46.3434 22.5037 46.236 22.8821 45.9485C23.6391 45.3695 23.3628 44.4109 23.2265 43.6095C23.0373 42.4784 22.9465 41.332 22.9389 40.1855C22.9389 39.7024 22.8973 39.1694 23.0032 38.694C23.1357 38.0997 23.5974 38.0498 24.1197 38.046C25.0886 38.0421 26.0347 37.9616 26.9695 37.6817C27.7984 37.4325 28.8051 37.0759 29.4106 36.4241C30.0578 35.7262 29.9102 34.7523 29.7929 33.8858C29.668 32.9387 29.4523 31.9341 28.771 31.2248C28.1579 30.5883 27.2042 30.2394 26.364 30.5883C25.8644 30.7953 26.0839 31.6312 26.5911 31.4203C27.3139 31.1213 28.0482 31.5507 28.4342 32.1872C28.8543 32.8889 28.9489 33.7861 29.0246 34.5836C29.0662 35.0016 29.0965 35.4693 28.8089 35.8106C28.5213 36.1518 28.0255 36.3512 27.6319 36.5238C26.8182 36.8804 25.9363 37.0989 25.0507 37.1641C24.3468 37.2139 23.5217 37.0529 22.8821 37.4287C22.2425 37.8044 22.1252 38.5559 22.0987 39.2461C22.0571 40.243 22.0911 41.2438 22.1895 42.2369C22.2312 42.6778 22.2879 43.1187 22.3561 43.5597C22.4204 43.9661 22.6058 44.4761 22.5453 44.894C22.4696 45.4385 21.7581 45.5152 21.3266 45.6494C20.7968 45.8143 20.2669 45.983 19.7371 46.1478C18.6774 46.4814 17.6177 46.815 16.558 47.1448L17.0954 47.5589C17.1105 46.052 17.1067 44.5451 17.0803 43.0421C17.0689 42.2905 17.05 41.5352 17.0273 40.7837C17.0083 40.1242 17.0538 39.411 16.9137 38.7668C16.6715 37.6395 15.6232 37.3711 14.6505 37.6856C13.4811 38.0613 12.5311 38.8588 11.2746 39.0084C10.1241 39.1426 8.96218 38.7208 8.45882 37.6012C8.00845 36.6043 8.45882 35.6457 9.45797 35.27C10.582 34.8443 11.8953 34.9364 13.0723 34.8367C14.484 34.7178 15.8881 34.5414 17.2884 34.3191C20.4864 33.8053 23.6315 33.0077 26.6933 31.9495C27.208 31.7731 26.9885 30.9372 26.4662 31.1174H26.4738Z" fill="black"/>
<path d="M35.5191 8.38777C39.7352 7.6976 44.0194 7.46754 48.2847 7.6976C48.6821 7.72061 49.1324 7.77045 49.3822 8.08486C49.5715 8.32642 49.5904 8.65617 49.6017 8.96292C49.7228 13.2957 49.246 17.6476 48.1825 21.8461C48.0652 22.3063 47.9251 22.797 47.558 23.0961C47.1493 23.4297 46.5778 23.4412 46.0555 23.4335C44.8142 23.4182 43.5728 23.399 42.3314 23.3837C42.0059 23.3799 41.6388 23.3568 41.4307 23.1076C41.2074 22.8431 41.2604 22.4443 41.3285 22.103C41.7335 20.0287 42.1384 17.9505 42.5434 15.8761C42.7175 14.9904 42.7856 13.8593 42.0173 13.4107C41.5707 13.15 41.0144 13.242 40.511 13.3417C39.0501 13.6331 37.5893 13.9207 36.1322 14.2121C35.7651 14.2849 35.3374 14.3424 35.0649 14.0855C34.8454 13.8785 34.8113 13.5449 34.7962 13.242C34.7243 11.8425 34.7508 10.4391 34.8719 9.04727" fill="#455B92"/>
<path d="M35.6326 8.80201C39.5042 8.17702 43.4365 7.93546 47.3574 8.085C47.7586 8.10033 48.1787 8.085 48.5761 8.15401C49.1854 8.25371 49.1665 8.71382 49.1778 9.23912C49.2005 10.1862 49.1929 11.1333 49.1551 12.0765C49.0832 13.9898 48.894 15.8993 48.5874 17.7896C48.4284 18.752 48.243 19.7106 48.0273 20.6653C47.8721 21.3516 47.7851 22.6208 47.0281 22.9045C46.6648 23.0387 46.2485 23.0042 45.87 23.0004C45.3742 22.9927 44.8785 22.9851 44.3789 22.9812C43.8793 22.9774 43.3873 22.9659 42.8877 22.962C42.6039 22.9582 41.9113 23.0771 41.7221 22.7857C41.5517 22.5249 41.8053 21.8424 41.8583 21.5779C41.9529 21.0909 42.0475 20.6001 42.1459 20.1132C42.3314 19.1661 42.5168 18.219 42.6985 17.2758C42.9331 16.068 43.5652 14.1815 42.4563 13.2076C41.7675 12.6056 40.8289 12.8395 40.0265 13.0006C38.963 13.2114 37.8958 13.4223 36.8323 13.6332C36.4955 13.6984 35.6931 14.0166 35.3828 13.7943C35.0724 13.5719 35.1897 12.6478 35.1822 12.3296C35.1595 11.233 35.1973 10.1402 35.2919 9.0474C35.3373 8.49527 34.4858 8.4991 34.4404 9.0474C34.3458 10.1402 34.3079 11.233 34.3306 12.3296C34.3458 13.0466 34.236 14.1125 34.9551 14.5419C35.2806 14.7375 35.6704 14.7222 36.0299 14.6685C36.5901 14.5841 37.1464 14.4538 37.7028 14.3426C38.7246 14.1393 39.7465 13.9093 40.7759 13.7329C41.2036 13.6601 41.7221 13.5949 42.0173 13.986C42.2481 14.2965 42.2443 14.7528 42.2178 15.1209C42.1573 16.0718 41.881 17.0304 41.6993 17.9621C41.4836 19.0626 41.2717 20.1592 41.056 21.2596C40.9197 21.9651 40.5791 22.9352 41.2111 23.4988C41.4685 23.7289 41.8129 23.7903 42.1421 23.8133C42.6985 23.8516 43.2624 23.8324 43.8187 23.8401C44.7914 23.8516 45.8133 23.959 46.7783 23.8401C47.6223 23.7366 48.1673 23.2496 48.4512 22.4521C48.788 21.5012 48.9583 20.4583 49.1513 19.4652C49.5563 17.3908 49.825 15.2896 49.9537 13.1769C50.018 12.111 50.0483 11.0412 50.0407 9.97147C50.0369 9.17777 50.1845 8.02748 49.4011 7.53669C49.0113 7.29513 48.5382 7.27596 48.0992 7.25296C47.4823 7.22228 46.8616 7.19928 46.2447 7.18777C45.0677 7.16477 43.8944 7.17627 42.7174 7.22228C40.2687 7.31814 37.8276 7.57504 35.4055 7.96613C34.8643 8.05432 35.0951 8.88636 35.6326 8.79817V8.80201Z" fill="black"/>
<path d="M34.0203 27.3027C40.7797 26.8656 47.5391 26.4323 54.2947 25.999C54.5558 27.387 54.6277 29.193 53.375 29.8141C53.0798 29.9598 52.743 30.0135 52.4175 30.0595C46.8011 30.8647 41.109 31.1255 35.4433 30.8302C34.7356 30.7919 33.9863 30.7344 33.4148 30.3088C32.8433 29.8832 32.5784 28.9591 33.0666 28.4415" fill="#455B92"/>
<path d="M34.0202 27.732C40.7796 27.2949 47.539 26.8616 54.2946 26.4284L53.8858 26.1101C54.0637 27.0955 54.3021 28.7749 53.2651 29.3808C52.9245 29.5801 52.5006 29.6108 52.1222 29.6645C51.6415 29.7335 51.1571 29.7949 50.6764 29.8562C49.7908 29.9636 48.9014 30.0594 48.0083 30.1438C44.4469 30.4735 40.8666 30.5809 37.2901 30.4735C36.3743 30.4467 35.3902 30.4889 34.4895 30.2972C34.0845 30.2128 33.6569 30.0556 33.4184 29.6913C33.2406 29.4191 33.1384 29.0165 33.3655 28.7443C33.7136 28.3225 33.1157 27.7052 32.7637 28.1346C32.2982 28.7021 32.283 29.4459 32.6502 30.0748C33.0627 30.7879 33.8499 31.0832 34.622 31.1867C35.6211 31.3247 36.6543 31.3171 37.661 31.3439C38.7397 31.3708 39.8183 31.3823 40.8969 31.3708C43.0844 31.3478 45.272 31.2404 47.4557 31.0563C48.5305 30.9643 49.6054 30.8531 50.6764 30.7189C51.1722 30.6576 51.668 30.5924 52.1638 30.5234C52.6596 30.4544 53.1478 30.4084 53.5906 30.1821C55.1234 29.3999 54.9682 27.3141 54.7071 25.8801C54.6768 25.7037 54.4687 25.5541 54.2984 25.5618C47.539 25.9951 40.7796 26.4284 34.024 26.8655C33.479 26.9 33.4752 27.7627 34.024 27.7282L34.0202 27.732Z" fill="black"/>
<path d="M36.3252 35.9373L33.8311 43.4372C33.7176 43.7823 33.604 44.1772 33.7668 44.5031C34.0052 44.9786 34.6524 45.0169 35.1785 44.9863C39.2205 44.7562 43.2625 44.5261 47.3083 44.2999C49.1817 44.1926 51.4676 43.7861 52.0693 41.9917C52.4743 40.7877 51.7439 39.3153 50.5479 38.9281C49.9954 38.7479 49.405 38.7785 48.8259 38.813C46.1464 38.9664 43.4706 39.116 40.7911 39.2693C40.4088 39.2923 39.9585 39.2808 39.739 38.9626C39.5611 38.7057 39.6216 38.3568 39.6898 38.05C39.8941 37.126 40.0985 36.2019 40.3029 35.2778C38.8306 35.3277 37.3622 35.3814 35.89 35.4312" fill="#455B92"/>
<path d="M35.9127 35.8224L34.1906 41.0025C33.903 41.8691 33.5397 42.7433 33.3277 43.629C33.1764 44.2617 33.3126 44.9097 33.9219 45.2279C34.5313 45.5461 35.2768 45.4119 35.9202 45.3774C36.821 45.3276 37.7255 45.2739 38.6263 45.2241C40.4315 45.1205 42.233 45.0209 44.0383 44.9173C45.6203 44.8291 47.2363 44.8253 48.8032 44.5761C49.9234 44.3959 51.1497 44.0201 51.9104 43.1152C52.6711 42.2103 52.8111 40.8913 52.2169 39.8254C51.9255 39.3039 51.4789 38.8706 50.9377 38.6253C50.2149 38.2955 49.4125 38.353 48.6404 38.3952C46.5854 38.5102 44.5303 38.6291 42.4752 38.7441C41.9757 38.771 41.4799 38.8016 40.9803 38.8285C40.6245 38.8476 40.0606 38.9588 40.0569 38.4565C40.0531 37.9543 40.2688 37.429 40.371 36.965C40.4883 36.4397 40.6018 35.9182 40.7192 35.3929C40.7759 35.1284 40.5981 34.837 40.3104 34.8485C38.8382 34.8983 37.3697 34.952 35.8975 35.0018C35.3525 35.021 35.3487 35.8837 35.8975 35.8646C37.3697 35.8147 38.8382 35.761 40.3104 35.7112L39.9017 35.1667C39.72 35.9988 39.5346 36.8308 39.3529 37.6628C39.228 38.2303 39.0615 38.9052 39.5308 39.3653C39.9622 39.7909 40.6283 39.7142 41.1733 39.6835C42.0135 39.6375 42.8537 39.5877 43.6977 39.5416C45.3781 39.4458 47.0622 39.3499 48.7426 39.2541C49.4655 39.2119 50.2754 39.1352 50.8999 39.5838C51.3502 39.9097 51.6606 40.4389 51.7439 40.991C51.9255 42.1988 50.9642 43.0424 49.9424 43.4104C48.7426 43.8437 47.4521 43.8629 46.1956 43.9357C42.8688 44.1236 39.5421 44.3115 36.2116 44.5032C35.7916 44.5262 34.1944 44.8483 34.1263 44.1581C34.0847 43.7402 34.3572 43.2341 34.4896 42.8468L34.9362 41.5086L36.7491 36.0601C36.9232 35.531 36.1019 35.3048 35.9278 35.8301L35.9127 35.8224Z" fill="black"/>
<path d="M80.5411 10.0327C72.3927 8.51428 64.0173 9.86012 55.8387 11.206C55.5548 11.252 55.252 11.3095 55.0477 11.5127C54.7563 11.8041 54.7714 12.2719 54.8055 12.6822C55.0325 15.439 55.2634 18.1997 55.4905 20.9566C55.6456 22.8162 55.8273 24.7678 56.8567 26.3169C57.2579 26.9189 57.7915 27.4787 57.9164 28.1957C57.977 28.5408 57.9391 28.928 58.1435 29.208C58.4539 29.6374 59.0935 29.5684 59.6082 29.4533C66.1026 28.0002 72.6009 26.5431 79.0953 25.0899C79.2997 25.0439 79.523 24.9902 79.6555 24.8254C79.822 24.626 79.8031 24.3346 79.7804 24.0777C79.6857 23.0961 79.5911 22.1183 79.4965 21.1368C79.4624 20.7725 79.4132 20.3737 79.1559 20.1168C78.8304 19.7909 78.3081 19.8139 77.854 19.8561C73.1269 20.3201 68.3961 20.784 63.6691 21.248C63.0333 21.3093 62.2726 21.317 61.9055 20.7917C61.6897 20.4849 61.6822 20.0785 61.6784 19.7027C61.6746 18.4949 61.667 17.291 61.6632 16.0832C61.6632 15.8033 61.6708 15.4927 61.8638 15.2933C62.0417 15.1016 62.3256 15.0709 62.5829 15.0479C67.5597 14.6031 72.5328 14.1622 77.5096 13.7174C77.835 13.6867 78.1908 13.6446 78.4065 13.3915C78.5428 13.2343 78.592 13.0196 78.6374 12.8164C78.9288 11.5319 79.2202 10.2474 79.5116 8.96289" fill="#455B92"/>
<path d="M80.6547 9.61484C72.6653 8.1463 64.5624 9.3426 56.6373 10.6386C55.888 10.7613 54.885 10.7575 54.5103 11.5627C54.1584 12.318 54.4422 13.3954 54.5103 14.1891C54.6807 16.2597 54.8547 18.3263 55.0251 20.3969C55.1689 22.1223 55.2673 23.9014 55.9523 25.5118C56.2853 26.294 56.8266 26.896 57.2466 27.6168C57.6289 28.2763 57.398 29.2234 58.0604 29.7142C58.6545 30.1513 59.4455 29.9366 60.0965 29.787C61.107 29.5608 62.1175 29.3346 63.128 29.1084C65.149 28.6559 67.1738 28.2035 69.1948 27.751C71.2158 27.2986 73.2406 26.8461 75.2616 26.3937C76.2721 26.1675 77.2826 25.9412 78.2931 25.715C78.9592 25.5655 79.9659 25.5271 80.1816 24.7181C80.2838 24.3385 80.193 23.9129 80.1551 23.5295C80.1021 22.9773 80.0492 22.4252 79.9962 21.8769C79.9281 21.1561 79.9697 20.232 79.3566 19.7297C78.698 19.1891 77.6838 19.4498 76.923 19.5226C75.9277 19.6185 74.9323 19.7182 73.937 19.8141C71.8819 20.0134 69.8306 20.2167 67.7755 20.416C66.7499 20.5157 65.7205 20.6154 64.6948 20.7189C64.0969 20.7765 62.7571 21.1407 62.284 20.5886C62.0191 20.2818 62.1024 19.7029 62.1024 19.3271C62.1024 18.7865 62.0986 18.2458 62.0948 17.709C62.0948 17.2029 62.0872 16.6929 62.0872 16.1868C62.0872 16.0411 62.0494 15.7574 62.1478 15.627C62.2992 15.4315 62.742 15.4698 62.9539 15.4506C65.0052 15.2666 67.0602 15.0864 69.1115 14.9023C71.1628 14.7183 73.2179 14.5381 75.2692 14.354C75.7649 14.308 76.2645 14.2658 76.7603 14.2198C77.1804 14.1815 77.6308 14.1853 78.0395 14.078C78.997 13.8287 79.0614 12.8548 79.2506 12.0228C79.4739 11.045 79.6934 10.0634 79.9167 9.0857C80.0378 8.54507 79.2165 8.31501 79.0954 8.85565C78.8721 9.83339 78.6526 10.815 78.4293 11.7927C78.3461 12.1646 78.3272 12.7283 78.119 13.0542C77.8919 13.407 77.1161 13.3264 76.7603 13.3571C74.7999 13.5335 72.8432 13.706 70.8827 13.8824C68.9223 14.0588 67.0262 14.2275 65.0998 14.3962C64.1839 14.4767 63.2491 14.5151 62.337 14.6493C61.5422 14.7681 61.2432 15.3203 61.2357 16.091C61.2243 17.0764 61.2432 18.0579 61.247 19.0434C61.247 19.7565 61.1486 20.6384 61.6785 21.2021C62.1364 21.6852 62.8479 21.7465 63.4724 21.7044C64.411 21.6392 65.3458 21.5241 66.2806 21.4321C70.1599 21.0525 74.0391 20.6154 77.9222 20.2895C78.2742 20.2588 78.7321 20.2013 78.944 20.5579C79.156 20.9145 79.103 21.4935 79.1409 21.8769C79.1863 22.337 79.2279 22.7971 79.2733 23.2572C79.3036 23.564 79.5117 24.3155 79.2922 24.5532C79.0727 24.791 78.3688 24.8178 78.0622 24.8868C77.5702 24.998 77.082 25.1054 76.59 25.2166C75.6098 25.4351 74.6296 25.6575 73.6493 25.8761C69.8495 26.7273 66.0497 27.5785 62.25 28.4297C61.2924 28.6444 60.3349 28.8937 59.3736 29.0739C59.1314 29.1199 58.7227 29.2042 58.5221 29.0049C58.2685 28.7595 58.348 28.077 58.2307 27.7472C57.9771 27.0302 57.4359 26.4857 57.0536 25.8416C56.6298 25.1207 56.3837 24.3117 56.221 23.495C55.869 21.7159 55.8198 19.8601 55.6722 18.0541C55.5928 17.084 55.5095 16.1101 55.43 15.1401C55.3505 14.17 55.1613 13.2076 55.2105 12.272C55.237 11.7467 55.5928 11.693 56.0356 11.6163C56.52 11.5358 57.0044 11.4553 57.4927 11.3786C58.435 11.2252 59.3774 11.0757 60.3236 10.93C62.2386 10.6386 64.1536 10.374 66.08 10.1785C69.8836 9.78738 73.725 9.64168 77.5362 10.0404C78.5012 10.1401 79.4625 10.282 80.4201 10.4584C80.9575 10.5581 81.1846 9.72603 80.6471 9.62634L80.6547 9.61484Z" fill="black"/>
<path d="M76.4275 30.9103C71.5528 32.6012 66.4473 33.6097 61.304 33.8972C60.0816 33.9663 58.6585 34.0966 57.9849 35.1357C57.2014 36.3473 58.087 38.115 59.4268 38.6249C60.7666 39.1349 62.2804 38.6901 63.5294 37.9846C64.362 37.513 65.5428 36.9762 66.1294 37.7392C66.3641 38.0459 66.3906 38.46 66.4057 38.8511C66.5041 41.5466 66.542 44.246 66.5155 46.9453C68.2829 46.3894 70.0465 45.8372 71.814 45.2812C72.1281 45.1816 72.4687 45.0665 72.6579 44.7943C72.8964 44.4492 72.8169 43.9814 72.7374 43.5673C72.4233 41.9109 72.3022 40.22 72.3741 38.5367C72.393 38.1073 72.4422 37.6395 72.7412 37.3404C73.1121 36.9647 73.7063 36.9953 74.2324 36.9992C75.6213 37.0145 77.0179 36.6694 78.2441 36.0138C78.5885 35.8297 78.9329 35.6073 79.1259 35.2699C79.3871 34.8175 79.3303 34.2538 79.2697 33.7362C79.1638 32.8658 79.0464 31.9571 78.5658 31.2286C78.0851 30.5001 77.1125 30.0208 76.3253 30.3927" fill="#455B92"/>
<path d="M76.3138 30.4963C73.4791 31.4741 70.5687 32.2333 67.6167 32.7471C66.118 33.0078 64.6117 33.2033 63.0978 33.3375C61.8565 33.4487 60.5319 33.3874 59.3283 33.7363C58.3405 34.0239 57.4587 34.7179 57.2998 35.7991C57.1597 36.7616 57.6025 37.7585 58.2989 38.4026C59.1845 39.2232 60.407 39.3919 61.5537 39.1887C62.1706 39.0813 62.7648 38.8551 63.3249 38.579C63.8851 38.3029 64.3808 37.954 64.9788 37.8275C65.24 37.77 65.5465 37.7431 65.7547 37.9502C66.0196 38.2109 65.9817 38.694 65.9931 39.0353C66.0272 39.9133 66.0499 40.7914 66.0688 41.6694C66.1029 43.4256 66.1142 45.1817 66.0953 46.9416C66.0953 47.2138 66.3716 47.4401 66.6327 47.3557C67.6924 47.0221 68.7521 46.6885 69.8118 46.3588C70.3417 46.1939 70.8715 46.0252 71.4014 45.8603C71.8442 45.7223 72.3437 45.6149 72.7222 45.3274C73.4791 44.7484 73.2029 43.7898 73.0666 42.9884C72.8774 41.8573 72.7866 40.7109 72.779 39.5644C72.779 39.0813 72.7374 38.5483 72.8433 38.0729C72.9758 37.4786 73.4375 37.4287 73.9598 37.4249C74.9287 37.4211 75.8748 37.3405 76.8096 37.0606C77.6385 36.8114 78.6452 36.4548 79.2507 35.803C79.8979 35.1051 79.7503 34.1312 79.633 33.2647C79.5081 32.3176 79.2924 31.313 78.6111 30.6037C77.998 29.9672 77.0443 29.6183 76.2041 29.9672C75.7045 30.1742 75.924 31.0101 76.4312 30.7992C77.154 30.5002 77.8883 30.9296 78.2743 31.5661C78.6944 32.2678 78.789 33.165 78.8647 33.9625C78.9063 34.3805 78.9366 34.8482 78.649 35.1895C78.3613 35.5307 77.8656 35.7301 77.4719 35.9027C76.6582 36.2593 75.7764 36.4778 74.8908 36.543C74.1869 36.5928 73.3618 36.4318 72.7222 36.8076C72.0826 37.1833 71.9653 37.9348 71.9388 38.625C71.8972 39.6219 71.9312 40.6227 72.0296 41.6158C72.0712 42.0567 72.128 42.4977 72.1961 42.9386C72.2605 43.345 72.4459 43.855 72.3854 44.2729C72.3097 44.8174 71.5982 44.8941 71.1667 45.0283C70.6369 45.1932 70.107 45.3619 69.5772 45.5267C68.5175 45.8603 67.4578 46.1939 66.3981 46.5237L66.9355 46.9378C66.9506 45.4309 66.9468 43.924 66.9203 42.421C66.909 41.6694 66.8901 40.9141 66.8674 40.1626C66.8484 39.5031 66.8939 38.7899 66.7538 38.1457C66.5116 37.0185 65.4633 36.7501 64.4906 37.0645C63.3211 37.4402 62.3712 38.2378 61.1147 38.3873C59.9642 38.5215 58.8023 38.0997 58.2989 36.9801C57.8485 35.9832 58.2989 35.0246 59.2981 34.6489C60.4221 34.2233 61.7354 34.3153 62.9124 34.2156C64.3241 34.0967 65.7282 33.9203 67.1285 33.698C70.3265 33.1842 73.4716 32.3866 76.5334 31.3284C77.0481 31.152 76.8286 30.3161 76.3063 30.4963H76.3138Z" fill="black"/>
<path d="M85.3552 7.76668C89.5713 7.07651 93.8556 6.84645 98.1209 7.07651C98.5183 7.09951 98.9686 7.14936 99.2184 7.46377C99.4076 7.70533 99.4266 8.03508 99.4379 8.34182C99.559 12.6746 99.0822 17.0265 98.0187 21.225C97.9014 21.6852 97.7613 22.1759 97.3942 22.475C96.9855 22.8086 96.414 22.8201 95.8917 22.8124C94.6503 22.7971 93.409 22.7779 92.1676 22.7626C91.8421 22.7588 91.475 22.7358 91.2669 22.4865C91.0436 22.222 91.0966 21.8232 91.1647 21.4819C91.5696 19.4076 91.9746 17.3294 92.3796 15.2551C92.5536 14.3693 92.6218 13.2382 91.8535 12.7896C91.4069 12.5289 90.8506 12.6209 90.3472 12.7206C88.8863 13.012 87.4254 13.2996 85.9684 13.591C85.6012 13.6638 85.1736 13.7213 84.9011 13.4644C84.6816 13.2574 84.6475 12.9238 84.6324 12.6209C84.5605 11.2214 84.587 9.81802 84.7081 8.42618" fill="#455B92"/>
<path d="M85.469 8.18092C89.3407 7.55593 93.2729 7.31437 97.1938 7.4639C97.595 7.47924 98.0151 7.4639 98.4125 7.53292C99.0218 7.63261 99.0029 8.09273 99.0142 8.61802C99.0369 9.56509 99.0294 10.5122 98.9915 11.4554C98.9196 13.3687 98.7304 15.2782 98.4238 17.1685C98.2649 18.1309 98.0794 19.0895 97.8637 20.0442C97.7085 20.7306 97.6215 21.9997 96.8646 22.2834C96.5012 22.4176 96.0849 22.3831 95.7065 22.3793C95.2107 22.3716 94.7149 22.364 94.2153 22.3601C93.7157 22.3563 93.2237 22.3448 92.7241 22.341C92.4403 22.3371 91.7477 22.456 91.5585 22.1646C91.3882 21.9038 91.6417 21.2213 91.6947 20.9568C91.7893 20.4698 91.884 19.979 91.9824 19.4921C92.1678 18.545 92.3533 17.5979 92.5349 16.6547C92.7696 15.4469 93.4016 13.5604 92.2927 12.5865C91.6039 11.9845 90.6653 12.2184 89.863 12.3795C88.7995 12.5904 87.7322 12.8012 86.6687 13.0121C86.3319 13.0773 85.5295 13.3956 85.2192 13.1732C84.9088 12.9508 85.0262 12.0267 85.0186 11.7085C84.9959 10.6119 85.0337 9.51908 85.1284 8.42631C85.1738 7.87417 84.3222 7.87801 84.2768 8.42631C84.1822 9.51908 84.1443 10.6119 84.1671 11.7085C84.1822 12.4255 84.0724 13.4914 84.7915 13.9209C85.117 14.1164 85.5068 14.1011 85.8664 14.0474C86.4265 13.963 86.9828 13.8327 87.5392 13.7215C88.561 13.5182 89.5829 13.2882 90.6123 13.1118C91.04 13.039 91.5585 12.9738 91.8537 13.3649C92.0845 13.6755 92.0808 14.1317 92.0543 14.4998C91.9937 15.4507 91.7174 16.4093 91.5358 17.341C91.32 18.4415 91.1081 19.5381 90.8924 20.6385C90.7561 21.344 90.4155 22.3141 91.0475 22.8778C91.3049 23.1078 91.6493 23.1692 91.9786 23.1922C92.5349 23.2305 93.0988 23.2113 93.6552 23.219C94.6278 23.2305 95.6497 23.3379 96.6148 23.219C97.4587 23.1155 98.0037 22.6285 98.2876 21.831C98.6244 20.8801 98.7947 19.8372 98.9877 18.8441C99.3927 16.7697 99.6614 14.6685 99.7901 12.5558C99.8544 11.4899 99.8847 10.4201 99.8771 9.35037C99.8734 8.55668 100.021 7.40639 99.2375 6.9156C98.8477 6.67404 98.3746 6.65487 97.9356 6.63186C97.3187 6.60119 96.698 6.57818 96.0811 6.56668C94.9041 6.54367 93.7309 6.55518 92.5538 6.60119C90.1052 6.69704 87.6641 6.95394 85.2419 7.34504C84.7007 7.43323 84.9316 8.26527 85.469 8.17708V8.18092Z" fill="black"/>
<path d="M83.8565 26.6816C90.6159 26.2445 97.3753 25.8112 104.131 25.3779C104.392 26.7659 104.464 28.5719 103.211 29.193C102.916 29.3388 102.579 29.3924 102.254 29.4384C96.6373 30.2436 90.9452 30.5044 85.2795 30.2091C84.5718 30.1708 83.8224 30.1133 83.251 29.6877C82.6795 29.2621 82.4146 28.338 82.9028 27.8204" fill="#455B92"/>
<path d="M83.8564 27.1109C90.6158 26.6738 97.3751 26.2405 104.131 25.8073L103.722 25.489C103.9 26.4744 104.138 28.1538 103.101 28.7597C102.761 28.9591 102.337 28.9897 101.958 29.0434C101.478 29.1124 100.993 29.1738 100.513 29.2351C99.627 29.3425 98.7376 29.4383 97.8444 29.5227C94.2831 29.8524 90.7028 29.9598 87.1263 29.8524C86.2104 29.8256 85.2264 29.8678 84.3257 29.6761C83.9207 29.5917 83.4931 29.4345 83.2546 29.0702C83.0767 28.798 82.9746 28.3954 83.2016 28.1232C83.5498 27.7014 82.9518 27.0841 82.5999 27.5135C82.1344 28.081 82.1192 28.8248 82.4863 29.4537C82.8989 30.1669 83.6861 30.4621 84.4581 30.5656C85.4573 30.7037 86.4905 30.696 87.4972 30.7228C88.5758 30.7497 89.6545 30.7612 90.7331 30.7497C92.9206 30.7267 95.1081 30.6193 97.2919 30.4353C98.3667 30.3432 99.4416 30.232 100.513 30.0978C101.008 30.0365 101.504 29.9713 102 29.9023C102.496 29.8333 102.984 29.7873 103.427 29.561C104.96 28.7788 104.804 26.693 104.543 25.259C104.513 25.0826 104.305 24.933 104.135 24.9407C97.3752 25.374 90.6158 25.8073 83.8602 26.2444C83.3152 26.2789 83.3114 27.1416 83.8602 27.1071L83.8564 27.1109Z" fill="black"/>
<path d="M86.1616 35.3162L83.6675 42.8161C83.554 43.1612 83.4405 43.5561 83.6032 43.882C83.8416 44.3575 84.4888 44.3958 85.0149 44.3652C89.0569 44.1351 93.0989 43.9051 97.1447 43.6788C99.0181 43.5715 101.304 43.165 101.906 41.3706C102.311 40.1666 101.58 38.6942 100.384 38.307C99.8318 38.1268 99.2414 38.1574 98.6623 38.192C95.9828 38.3453 93.3071 38.4949 90.6275 38.6482C90.2453 38.6712 89.7949 38.6597 89.5754 38.3415C89.3975 38.0846 89.4581 37.7357 89.5262 37.4289C89.7306 36.5049 89.9349 35.5808 90.1393 34.6567C88.6671 34.7066 87.1986 34.7603 85.7264 34.8101" fill="#455B92"/>
<path d="M85.7525 35.2008L84.0305 40.3809C83.7429 41.2475 83.3795 42.1217 83.1676 43.0074C83.0162 43.6401 83.1524 44.2881 83.7618 44.6063C84.3711 44.9246 85.1167 44.7904 85.7601 44.7559C86.6608 44.706 87.5654 44.6523 88.4661 44.6025C90.2714 44.499 92.0729 44.3993 93.8781 44.2957C95.4601 44.2076 97.0762 44.2037 98.643 43.9545C99.7633 43.7743 100.99 43.3985 101.75 42.4936C102.511 41.5887 102.651 40.2697 102.057 39.2038C101.765 38.6823 101.319 38.2491 100.778 38.0037C100.055 37.6739 99.2524 37.7314 98.4803 37.7736C96.4252 37.8886 94.3702 38.0075 92.3151 38.1225C91.8155 38.1494 91.3197 38.18 90.8202 38.2069C90.4644 38.2261 89.9005 38.3373 89.8967 37.835C89.8929 37.3327 90.1086 36.8074 90.2108 36.3434C90.3281 35.8181 90.4417 35.2967 90.559 34.7714C90.6158 34.5068 90.4379 34.2154 90.1503 34.2269C88.678 34.2767 87.2096 34.3304 85.7374 34.3803C85.1924 34.3994 85.1886 35.2621 85.7374 35.243C87.2096 35.1931 88.678 35.1395 90.1503 35.0896L89.7415 34.5451C89.5599 35.3772 89.3744 36.2092 89.1927 37.0413C89.0679 37.6087 88.9013 38.2836 89.3706 38.7437C89.8021 39.1693 90.4682 39.0926 91.0132 39.0619C91.8534 39.0159 92.6935 38.9661 93.5375 38.9201C95.2179 38.8242 96.9021 38.7284 98.5825 38.6325C99.3053 38.5903 100.115 38.5136 100.74 38.9622C101.19 39.2882 101.5 39.8173 101.584 40.3694C101.765 41.5772 100.804 42.4208 99.7822 42.7889C98.5825 43.2221 97.2919 43.2413 96.0354 43.3142C92.7087 43.502 89.382 43.6899 86.0515 43.8816C85.6314 43.9046 84.0343 44.2267 83.9661 43.5366C83.9245 43.1186 84.197 42.6125 84.3295 42.2252L84.7761 40.8871L86.5889 35.4385C86.763 34.9094 85.9417 34.6832 85.7676 35.2085L85.7525 35.2008Z" fill="black"/>
<path d="M108.688 9.46134C110.361 8.51427 111.712 6.53195 111.121 4.68382C110.508 2.77051 107.904 2.01515 106.186 3.0274C104.468 4.03966 103.756 6.3364 104.207 8.29572C104.657 10.255 106.076 11.8731 107.738 12.9736C108.203 13.2803 108.707 13.564 109.259 13.6254C110.05 13.7136 110.815 13.3493 111.53 12.9927C112.718 12.4022 113.975 11.7427 114.618 10.5733C115.262 9.40383 114.914 7.58638 113.638 7.22979C113.048 7.06491 112.423 7.24129 111.837 7.41767C110.69 7.76275 109.539 8.10784 108.393 8.45676" fill="#FD9DC3"/>
<path d="M108.975 9.95652C110.273 9.19733 111.435 7.92434 111.746 6.39829C112.03 4.98727 111.522 3.60309 110.364 2.76722C109.354 2.0387 107.965 1.81631 106.776 2.15757C105.422 2.54866 104.422 3.67211 103.911 4.9681C102.719 7.98952 104.377 11.0991 106.746 12.9511C107.42 13.4764 108.177 14.017 109.032 14.1666C109.937 14.3238 110.784 13.994 111.591 13.6029C112.934 12.9511 114.471 12.1804 115.167 10.7617C115.784 9.51174 115.58 7.68661 114.331 6.90825C113.487 6.37912 112.484 6.62452 111.598 6.88908C110.482 7.2265 109.361 7.56392 108.245 7.90134C107.545 8.11222 107.844 9.22417 108.548 9.00945C109.331 8.77172 110.118 8.53783 110.902 8.3001C111.594 8.09305 112.344 7.7633 113.07 7.7403C114.134 7.70579 114.527 8.86374 114.319 9.77247C114.054 10.9266 112.908 11.6244 111.95 12.1344C111.337 12.4603 110.705 12.8207 110.031 12.9894C109.278 13.1812 108.65 12.8859 108.029 12.4718C106.076 11.1797 104.358 8.96727 104.684 6.47498C104.964 4.32778 106.788 2.58701 108.975 3.32703C110.031 3.68361 110.765 4.61535 110.694 5.76947C110.61 7.14598 109.528 8.30777 108.404 8.9596C107.772 9.32769 108.343 10.3246 108.975 9.95268V9.95652Z" fill="black"/>
</svg>
